<?xml version="1.0" encoding="UTF-8"?>
<svg xmlns="http://www.w3.org/2000/svg" xmlns:xlink="http://www.w3.org/1999/xlink" width="468" height="166" viewBox="0 0 468 166">
<path fill="none" stroke-width="19.9984" stroke-linecap="butt" stroke-linejoin="miter" stroke="rgb(13.729858%, 12.159729%, 12.548828%)" stroke-opacity="1" stroke-miterlimit="22.9256" d="M 61.835938 1407.03125 L 61.835938 299.648438 L 4562.539062 299.648438 " transform="matrix(0.1, 0, 0, -0.1, 0, 166)"/>
<path fill-rule="evenodd" fill="rgb(13.729858%, 12.159729%, 12.548828%)" fill-opacity="1" d="M 11.410156 26.121094 L 6.183594 16.617188 L 0.953125 26.121094 Z M 11.410156 26.121094 "/>
<path fill-rule="evenodd" fill="rgb(13.729858%, 12.159729%, 12.548828%)" fill-opacity="1" d="M 455.429688 130.808594 L 464.933594 136.035156 L 455.429688 141.265625 Z M 455.429688 130.808594 "/>
<path fill-rule="nonzero" fill="rgb(13.729858%, 12.159729%, 12.548828%)" fill-opacity="1" d="M 457.179688 160.738281 L 457.179688 148.296875 L 459.074219 148.296875 L 459.074219 150.0625 C 459.992188 148.695312 461.3125 148.011719 463.035156 148.011719 C 463.789062 148.011719 464.476562 148.148438 465.105469 148.414062 C 465.734375 148.6875 466.203125 149.039062 466.515625 149.480469 C 466.832031 149.914062 467.046875 150.4375 467.175781 151.035156 C 467.253906 151.429688 467.292969 152.113281 467.292969 153.089844 L 467.292969 160.738281 L 465.179688 160.738281 L 465.179688 153.167969 C 465.179688 152.3125 465.101562 151.667969 464.9375 151.238281 C 464.773438 150.816406 464.480469 150.476562 464.0625 150.222656 C 463.644531 149.96875 463.15625 149.839844 462.59375 149.839844 C 461.691406 149.839844 460.921875 150.128906 460.265625 150.695312 C 459.613281 151.269531 459.289062 152.347656 459.289062 153.945312 L 459.289062 160.738281 L 457.179688 160.738281 "/>
<path fill="none" stroke-width="2.16" stroke-linecap="butt" stroke-linejoin="miter" stroke="rgb(13.729858%, 12.159729%, 12.548828%)" stroke-opacity="1" stroke-miterlimit="22.9256" d="M 1472.03125 471.015625 L 1472.070312 299.648438 " transform="matrix(0.1, 0, 0, -0.1, 0, 166)"/>
<path fill="none" stroke-width="2.16" stroke-linecap="butt" stroke-linejoin="miter" stroke="rgb(13.729858%, 12.159729%, 12.548828%)" stroke-opacity="1" stroke-miterlimit="22.9256" d="M 2928.789062 471.015625 L 2928.789062 299.648438 " transform="matrix(0.1, 0, 0, -0.1, 0, 166)"/>
<path fill-rule="nonzero" fill="rgb(13.729858%, 12.159729%, 12.548828%)" fill-opacity="1" d="M 136.636719 165.390625 L 136.636719 148.210938 L 138.96875 148.210938 L 147.992188 161.695312 L 147.992188 148.210938 L 150.171875 148.210938 L 150.171875 165.390625 L 147.839844 165.390625 L 138.816406 151.890625 L 138.816406 165.390625 L 136.636719 165.390625 "/>
<path fill-rule="nonzero" fill="rgb(13.729858%, 12.159729%, 12.548828%)" fill-opacity="1" d="M 297.214844 163.363281 L 297.214844 165.390625 L 285.855469 165.390625 C 285.839844 164.882812 285.921875 164.394531 286.101562 163.925781 C 286.390625 163.148438 286.851562 162.390625 287.488281 161.636719 C 288.128906 160.890625 289.050781 160.019531 290.25 159.039062 C 292.117188 157.503906 293.382812 156.292969 294.035156 155.398438 C 294.691406 154.503906 295.019531 153.65625 295.019531 152.859375 C 295.019531 152.027344 294.722656 151.320312 294.125 150.746094 C 293.523438 150.171875 292.746094 149.886719 291.785156 149.886719 C 290.769531 149.886719 289.957031 150.1875 289.347656 150.800781 C 288.738281 151.410156 288.429688 152.253906 288.421875 153.328125 L 286.253906 153.109375 C 286.402344 151.488281 286.960938 150.257812 287.929688 149.410156 C 288.898438 148.5625 290.199219 148.136719 291.832031 148.136719 C 293.480469 148.136719 294.785156 148.597656 295.746094 149.507812 C 296.710938 150.425781 297.1875 151.558594 297.1875 152.910156 C 297.1875 153.597656 297.050781 154.273438 296.765625 154.9375 C 296.484375 155.601562 296.015625 156.300781 295.363281 157.03125 C 294.714844 157.769531 293.628906 158.777344 292.113281 160.058594 C 290.847656 161.121094 290.035156 161.839844 289.675781 162.222656 C 289.316406 162.597656 289.019531 162.976562 288.785156 163.363281 L 297.214844 163.363281 "/>
<path fill-rule="nonzero" fill="rgb(13.729858%, 12.159729%, 12.548828%)" fill-opacity="1" d="M 300.304688 165.390625 L 300.304688 148.210938 L 302.636719 148.210938 L 311.660156 161.695312 L 311.660156 148.210938 L 313.839844 148.210938 L 313.839844 165.390625 L 311.507812 165.390625 L 302.484375 151.890625 L 302.484375 165.390625 L 300.304688 165.390625 "/>
<path fill="none" stroke-width="9.9978" stroke-linecap="butt" stroke-linejoin="miter" stroke="rgb(13.729858%, 12.159729%, 12.548828%)" stroke-opacity="1" stroke-miterlimit="22.9256" d="M 61.835938 409.023438 C 162.421875 477.851562 195.585938 527.265625 247.773438 579.492188 C 272.8125 604.53125 535.195312 654.53125 604.21875 687.96875 C 709.257812 738.90625 692.539062 768.4375 821.171875 718.984375 C 876.523438 697.695312 892.5 803.242188 945.15625 718.984375 C 1019.765625 599.570312 1159.375 467.148438 1177.617188 299.648438 " transform="matrix(0.1, 0, 0, -0.1, 0, 166)"/>
<path fill="none" stroke-width="9.9978" stroke-linecap="butt" stroke-linejoin="miter" stroke="rgb(13.729858%, 12.159729%, 12.548828%)" stroke-opacity="1" stroke-miterlimit="22.9256" d="M 1487.539062 416.171875 C 1588.164062 485.039062 1621.289062 534.453125 1673.515625 586.640625 C 1698.554688 611.679688 1960.9375 661.679688 2029.960938 695.117188 C 2135 746.054688 2118.242188 775.585938 2246.914062 726.132812 C 2302.265625 704.84375 2318.203125 810.390625 2370.898438 726.132812 C 2445.507812 606.71875 2585.078125 474.296875 2603.359375 306.796875 " transform="matrix(0.1, 0, 0, -0.1, 0, 166)"/>
<path fill="none" stroke-width="9.9978" stroke-linecap="butt" stroke-linejoin="miter" stroke="rgb(13.729858%, 12.159729%, 12.548828%)" stroke-opacity="1" stroke-miterlimit="22.9256" d="M 2913.28125 423.320312 C 3013.90625 492.1875 3047.03125 541.601562 3099.257812 593.789062 C 3124.296875 618.828125 3386.640625 668.828125 3455.664062 702.265625 C 3560.703125 753.203125 3543.984375 782.773438 3672.617188 733.28125 C 3727.96875 711.992188 3743.945312 817.539062 3796.601562 733.28125 C 3871.210938 613.867188 4010.820312 481.445312 4029.0625 313.945312 " transform="matrix(0.1, 0, 0, -0.1, 0, 166)"/>
<path fill-rule="nonzero" fill="rgb(13.729858%, 12.159729%, 12.548828%)" fill-opacity="1" d="M 18.671875 18.179688 L 23.21875 11.710938 L 19.011719 5.734375 L 21.644531 5.734375 L 23.558594 8.652344 C 23.914062 9.207031 24.207031 9.671875 24.421875 10.046875 C 24.765625 9.53125 25.082031 9.074219 25.375 8.675781 L 27.46875 5.734375 L 29.988281 5.734375 L 25.691406 11.59375 L 30.320312 18.179688 L 27.730469 18.179688 L 25.175781 14.3125 L 24.492188 13.265625 L 21.226562 18.179688 L 18.671875 18.179688 "/>
<path fill-rule="nonzero" fill="rgb(13.729858%, 12.159729%, 12.548828%)" fill-opacity="1" d="M 36.105469 23.230469 C 34.941406 21.761719 33.957031 20.042969 33.15625 18.074219 C 32.351562 16.101562 31.945312 14.066406 31.945312 11.953125 C 31.945312 10.09375 32.246094 8.316406 32.851562 6.609375 C 33.554688 4.636719 34.636719 2.667969 36.105469 0.707031 L 37.617188 0.707031 C 36.675781 2.332031 36.050781 3.492188 35.746094 4.1875 C 35.265625 5.261719 34.894531 6.390625 34.617188 7.5625 C 34.28125 9.023438 34.113281 10.492188 34.113281 11.96875 C 34.113281 15.726562 35.28125 19.480469 37.617188 23.230469 L 36.105469 23.230469 "/>
<path fill-rule="nonzero" fill="rgb(13.729858%, 12.159729%, 12.548828%)" fill-opacity="1" d="M 40.070312 18.179688 L 40.070312 5.734375 L 41.964844 5.734375 L 41.964844 7.503906 C 42.882812 6.136719 44.203125 5.449219 45.925781 5.449219 C 46.679688 5.449219 47.367188 5.585938 47.992188 5.855469 C 48.625 6.128906 49.09375 6.480469 49.40625 6.917969 C 49.722656 7.355469 49.9375 7.875 50.066406 8.476562 C 50.140625 8.867188 50.183594 9.550781 50.183594 10.527344 L 50.183594 18.179688 L 48.070312 18.179688 L 48.070312 10.605469 C 48.070312 9.75 47.988281 9.105469 47.828125 8.679688 C 47.664062 8.253906 47.371094 7.914062 46.953125 7.664062 C 46.535156 7.40625 46.046875 7.277344 45.480469 7.277344 C 44.582031 7.277344 43.808594 7.566406 43.15625 8.136719 C 42.503906 8.707031 42.179688 9.785156 42.179688 11.382812 L 42.179688 18.179688 L 40.070312 18.179688 "/>
<path fill-rule="nonzero" fill="rgb(13.729858%, 12.159729%, 12.548828%)" fill-opacity="1" d="M 54.796875 23.230469 L 53.285156 23.230469 C 55.621094 19.480469 56.789062 15.726562 56.789062 11.96875 C 56.789062 10.5 56.621094 9.042969 56.285156 7.59375 C 56.023438 6.425781 55.652344 5.300781 55.175781 4.222656 C 54.871094 3.519531 54.242188 2.347656 53.285156 0.707031 L 54.796875 0.707031 C 56.265625 2.667969 57.355469 4.636719 58.058594 6.609375 C 58.660156 8.316406 58.957031 10.09375 58.957031 11.953125 C 58.957031 14.066406 58.554688 16.101562 57.746094 18.074219 C 56.9375 20.042969 55.953125 21.761719 54.796875 23.230469 "/>
</svg>
