<?xml version="1.0" encoding="UTF-8"?>
<svg xmlns="http://www.w3.org/2000/svg" xmlns:xlink="http://www.w3.org/1999/xlink" width="522" height="174" viewBox="0 0 522 174">
<path fill-rule="nonzero" fill="rgb(13.729858%, 12.159729%, 12.548828%)" fill-opacity="1" d="M 202.832031 125.757812 L 202.832031 110.605469 L 197.171875 110.605469 L 197.171875 108.578125 L 210.789062 108.578125 L 210.789062 110.605469 L 205.105469 110.605469 L 205.105469 125.757812 L 202.832031 125.757812 "/>
<path fill="none" stroke-width="19.9984" stroke-linecap="butt" stroke-linejoin="miter" stroke="rgb(13.729858%, 12.159729%, 12.548828%)" stroke-opacity="1" stroke-miterlimit="22.9256" d="M 1877.1875 749.414062 L 2201.40625 749.414062 L 2201.40625 387.5 L 1877.1875 387.5 Z M 1877.1875 749.414062 " transform="matrix(0.1, 0, 0, -0.1, 0, 174)"/>
<path fill-rule="nonzero" fill="rgb(13.729858%, 12.159729%, 12.548828%)" fill-opacity="1" d="M 281.777344 124.367188 L 281.777344 109.214844 L 276.121094 109.214844 L 276.121094 107.1875 L 289.734375 107.1875 L 289.734375 109.214844 L 284.050781 109.214844 L 284.050781 124.367188 L 281.777344 124.367188 "/>
<path fill="none" stroke-width="19.9984" stroke-linecap="butt" stroke-linejoin="miter" stroke="rgb(13.729858%, 12.159729%, 12.548828%)" stroke-opacity="1" stroke-miterlimit="22.9256" d="M 2666.679688 763.28125 L 2990.898438 763.28125 L 2990.898438 401.40625 L 2666.679688 401.40625 Z M 2666.679688 763.28125 " transform="matrix(0.1, 0, 0, -0.1, 0, 174)"/>
<path fill="none" stroke-width="19.9984" stroke-linecap="butt" stroke-linejoin="miter" stroke="rgb(13.729858%, 12.159729%, 12.548828%)" stroke-opacity="1" stroke-miterlimit="22.9256" d="M 1414.296875 571.445312 L 1871.171875 571.445312 " transform="matrix(0.1, 0, 0, -0.1, 0, 174)"/>
<path fill="none" stroke-width="19.9984" stroke-linecap="butt" stroke-linejoin="miter" stroke="rgb(13.729858%, 12.159729%, 12.548828%)" stroke-opacity="1" stroke-miterlimit="22.9256" d="M 2209.335938 577.34375 L 2666.171875 577.34375 " transform="matrix(0.1, 0, 0, -0.1, 0, 174)"/>
<path fill="none" stroke-width="19.9984" stroke-linecap="butt" stroke-linejoin="miter" stroke="rgb(13.729858%, 12.159729%, 12.548828%)" stroke-opacity="1" stroke-miterlimit="22.9256" d="M 1218.515625 767.226562 C 1326.640625 767.226562 1414.296875 679.53125 1414.296875 571.445312 C 1414.296875 463.320312 1326.640625 375.664062 1218.515625 375.664062 C 1110.429688 375.664062 1022.734375 463.320312 1022.734375 571.445312 C 1022.734375 679.53125 1110.429688 767.226562 1218.515625 767.226562 Z M 1218.515625 767.226562 " transform="matrix(0.1, 0, 0, -0.1, 0, 174)"/>
<path fill-rule="nonzero" fill="rgb(13.729858%, 12.159729%, 12.548828%)" fill-opacity="1" d="M 129.714844 124.570312 L 117.761719 124.570312 L 117.761719 124.136719 L 123.890625 116.789062 L 117.761719 109.101562 L 117.761719 108.675781 L 129.355469 108.675781 L 129.714844 112.640625 L 129.234375 112.640625 C 129.117188 111.5625 128.816406 110.792969 128.339844 110.328125 C 127.859375 109.871094 127.164062 109.640625 126.257812 109.640625 L 120.796875 109.640625 L 125.800781 115.933594 L 120.164062 122.71875 L 126.375 122.71875 C 127.414062 122.71875 128.195312 122.523438 128.714844 122.132812 C 129.234375 121.742188 129.664062 121.007812 130.011719 119.929688 L 130.441406 120.023438 L 129.714844 124.570312 "/>
<path fill="none" stroke-width="19.9984" stroke-linecap="butt" stroke-linejoin="miter" stroke="rgb(13.729858%, 12.159729%, 12.548828%)" stroke-opacity="1" stroke-miterlimit="22.9256" d="M 447.226562 577.34375 L 930 577.34375 " transform="matrix(0.1, 0, 0, -0.1, 0, 174)"/>
<path fill-rule="evenodd" fill="rgb(13.729858%, 12.159729%, 12.548828%)" fill-opacity="1" d="M 92.175781 111.035156 L 101.679688 116.265625 L 92.175781 121.492188 Z M 92.175781 111.035156 "/>
<path fill-rule="evenodd" fill="rgb(13.729858%, 12.159729%, 12.548828%)" fill-opacity="1" d="M 243.773438 112.40625 C 245.902344 112.40625 247.632812 114.132812 247.632812 116.265625 C 247.632812 118.394531 245.902344 120.121094 243.773438 120.121094 C 241.644531 120.121094 239.917969 118.394531 239.917969 116.265625 C 239.917969 114.132812 241.644531 112.40625 243.773438 112.40625 "/>
<path fill="none" stroke-width="19.9984" stroke-linecap="butt" stroke-linejoin="miter" stroke="rgb(13.729858%, 12.159729%, 12.548828%)" stroke-opacity="1" stroke-miterlimit="22.9256" d="M 2437.734375 615.9375 C 2459.023438 615.9375 2476.328125 598.671875 2476.328125 577.34375 C 2476.328125 556.054688 2459.023438 538.789062 2437.734375 538.789062 C 2416.445312 538.789062 2399.179688 556.054688 2399.179688 577.34375 C 2399.179688 598.671875 2416.445312 615.9375 2437.734375 615.9375 Z M 2437.734375 615.9375 " transform="matrix(0.1, 0, 0, -0.1, 0, 174)"/>
<path fill-rule="evenodd" fill="rgb(13.729858%, 12.159729%, 12.548828%)" fill-opacity="1" d="M 164.273438 113 C 166.402344 113 168.132812 114.726562 168.132812 116.855469 C 168.132812 118.988281 166.402344 120.714844 164.273438 120.714844 C 162.144531 120.714844 160.417969 118.988281 160.417969 116.855469 C 160.417969 114.726562 162.144531 113 164.273438 113 "/>
<path fill="none" stroke-width="19.9984" stroke-linecap="butt" stroke-linejoin="miter" stroke="rgb(13.729858%, 12.159729%, 12.548828%)" stroke-opacity="1" stroke-miterlimit="22.9256" d="M 1642.734375 610 C 1664.023438 610 1681.328125 592.734375 1681.328125 571.445312 C 1681.328125 550.117188 1664.023438 532.851562 1642.734375 532.851562 C 1621.445312 532.851562 1604.179688 550.117188 1604.179688 571.445312 C 1604.179688 592.734375 1621.445312 610 1642.734375 610 Z M 1642.734375 610 " transform="matrix(0.1, 0, 0, -0.1, 0, 174)"/>
<path fill-rule="nonzero" fill="rgb(13.729858%, 12.159729%, 12.548828%)" fill-opacity="1" d="M 165.0625 82.335938 L 165.0625 84.363281 L 153.707031 84.363281 C 153.691406 83.855469 153.769531 83.367188 153.949219 82.898438 C 154.238281 82.125 154.703125 81.363281 155.339844 80.613281 C 155.980469 79.863281 156.898438 78.996094 158.097656 78.011719 C 159.96875 76.480469 161.230469 75.269531 161.886719 74.371094 C 162.542969 73.480469 162.871094 72.632812 162.871094 71.835938 C 162.871094 71 162.570312 70.296875 161.976562 69.71875 C 161.375 69.148438 160.59375 68.859375 159.636719 68.859375 C 158.617188 68.859375 157.808594 69.164062 157.199219 69.777344 C 156.585938 70.382812 156.277344 71.226562 156.269531 72.304688 L 154.101562 72.085938 C 154.25 70.464844 154.8125 69.230469 155.777344 68.382812 C 156.746094 67.535156 158.050781 67.113281 159.683594 67.113281 C 161.332031 67.113281 162.636719 67.570312 163.59375 68.484375 C 164.558594 69.398438 165.039062 70.53125 165.039062 71.882812 C 165.039062 72.570312 164.898438 73.246094 164.613281 73.910156 C 164.335938 74.574219 163.867188 75.277344 163.214844 76.007812 C 162.5625 76.742188 161.480469 77.75 159.964844 79.03125 C 158.699219 80.09375 157.886719 80.816406 157.527344 81.195312 C 157.167969 81.570312 156.871094 81.953125 156.636719 82.335938 L 165.0625 82.335938 "/>
<path fill-rule="nonzero" fill="rgb(13.729858%, 12.159729%, 12.548828%)" fill-opacity="1" d="M 167.886719 84.363281 L 167.886719 71.921875 L 169.78125 71.921875 L 169.78125 73.804688 C 170.265625 72.921875 170.714844 72.339844 171.128906 72.058594 C 171.535156 71.78125 171.988281 71.636719 172.480469 71.636719 C 173.191406 71.636719 173.910156 71.863281 174.648438 72.316406 L 173.917969 74.277344 C 173.40625 73.96875 172.890625 73.816406 172.375 73.816406 C 171.910156 73.816406 171.5 73.957031 171.132812 74.230469 C 170.761719 74.511719 170.503906 74.894531 170.347656 75.386719 C 170.109375 76.136719 169.996094 76.957031 169.996094 77.847656 L 169.996094 84.363281 L 167.886719 84.363281 "/>
<path fill-rule="nonzero" fill="rgb(13.729858%, 12.159729%, 12.548828%)" fill-opacity="1" d="M 184.023438 79.804688 L 186.09375 80.074219 C 185.871094 81.503906 185.289062 82.625 184.355469 83.429688 C 183.421875 84.238281 182.273438 84.644531 180.914062 84.644531 C 179.214844 84.644531 177.84375 84.085938 176.8125 82.976562 C 175.773438 81.863281 175.253906 80.269531 175.253906 78.1875 C 175.253906 76.84375 175.480469 75.667969 175.921875 74.660156 C 176.371094 73.652344 177.046875 72.894531 177.960938 72.390625 C 178.867188 71.886719 179.859375 71.636719 180.925781 71.636719 C 182.277344 71.636719 183.386719 71.980469 184.242188 72.664062 C 185.101562 73.347656 185.65625 74.316406 185.898438 75.574219 L 183.847656 75.890625 C 183.652344 75.054688 183.308594 74.425781 182.8125 74.003906 C 182.316406 73.585938 181.714844 73.371094 181.011719 73.371094 C 179.945312 73.371094 179.082031 73.753906 178.417969 74.515625 C 177.753906 75.277344 177.421875 76.480469 177.421875 78.128906 C 177.421875 79.800781 177.742188 81.015625 178.386719 81.777344 C 179.027344 82.53125 179.863281 82.910156 180.894531 82.910156 C 181.722656 82.910156 182.410156 82.65625 182.96875 82.148438 C 183.523438 81.640625 183.875 80.859375 184.023438 79.804688 "/>
<path fill-rule="nonzero" fill="rgb(13.729858%, 12.159729%, 12.548828%)" fill-opacity="1" d="M 187.113281 78.140625 C 187.113281 75.835938 187.753906 74.128906 189.039062 73.019531 C 190.105469 72.101562 191.410156 71.636719 192.949219 71.636719 C 194.664062 71.636719 196.0625 72.195312 197.148438 73.320312 C 198.234375 74.441406 198.773438 75.988281 198.773438 77.964844 C 198.773438 79.566406 198.535156 80.828125 198.054688 81.742188 C 197.574219 82.664062 196.875 83.375 195.960938 83.882812 C 195.039062 84.390625 194.039062 84.644531 192.949219 84.644531 C 191.210938 84.644531 189.804688 84.085938 188.726562 82.96875 C 187.652344 81.851562 187.113281 80.242188 187.113281 78.140625 Z M 189.28125 78.140625 C 189.28125 79.734375 189.632812 80.925781 190.328125 81.71875 C 191.023438 82.515625 191.898438 82.910156 192.949219 82.910156 C 194 82.910156 194.871094 82.511719 195.566406 81.714844 C 196.257812 80.917969 196.605469 79.703125 196.605469 78.070312 C 196.605469 76.53125 196.257812 75.363281 195.558594 74.570312 C 194.859375 73.78125 193.992188 73.382812 192.949219 73.382812 C 191.898438 73.382812 191.023438 73.78125 190.328125 74.566406 C 189.632812 75.355469 189.28125 76.546875 189.28125 78.140625 "/>
<path fill-rule="nonzero" fill="rgb(13.729858%, 12.159729%, 12.548828%)" fill-opacity="1" d="M 200.40625 80.648438 L 202.492188 80.320312 C 202.605469 81.15625 202.933594 81.796875 203.472656 82.242188 C 204.003906 82.6875 204.75 82.910156 205.714844 82.910156 C 206.683594 82.910156 207.402344 82.710938 207.871094 82.320312 C 208.339844 81.921875 208.574219 81.460938 208.574219 80.929688 C 208.574219 80.453125 208.367188 80.078125 207.949219 79.804688 C 207.664062 79.617188 206.941406 79.378906 205.796875 79.089844 C 204.25 78.699219 203.175781 78.363281 202.578125 78.074219 C 201.984375 77.792969 201.527344 77.394531 201.21875 76.890625 C 200.910156 76.386719 200.753906 75.832031 200.753906 75.222656 C 200.753906 74.667969 200.882812 74.15625 201.140625 73.683594 C 201.390625 73.207031 201.738281 72.816406 202.175781 72.503906 C 202.503906 72.265625 202.949219 72.054688 203.515625 71.886719 C 204.082031 71.71875 204.691406 71.636719 205.339844 71.636719 C 206.316406 71.636719 207.171875 71.78125 207.910156 72.058594 C 208.652344 72.339844 209.195312 72.71875 209.546875 73.199219 C 209.898438 73.683594 210.140625 74.324219 210.269531 75.128906 L 208.210938 75.410156 C 208.113281 74.773438 207.84375 74.273438 207.394531 73.910156 C 206.945312 73.550781 206.3125 73.371094 205.492188 73.371094 C 204.523438 73.371094 203.832031 73.53125 203.417969 73.851562 C 203.003906 74.171875 202.796875 74.546875 202.796875 74.976562 C 202.796875 75.25 202.882812 75.496094 203.054688 75.714844 C 203.226562 75.945312 203.496094 76.128906 203.863281 76.28125 C 204.074219 76.355469 204.695312 76.535156 205.726562 76.816406 C 207.21875 77.214844 208.257812 77.539062 208.847656 77.796875 C 209.4375 78.046875 209.902344 78.417969 210.238281 78.902344 C 210.574219 79.386719 210.742188 79.988281 210.742188 80.707031 C 210.742188 81.410156 210.535156 82.070312 210.128906 82.695312 C 209.714844 83.316406 209.121094 83.796875 208.351562 84.136719 C 207.578125 84.476562 206.703125 84.644531 205.726562 84.644531 C 204.105469 84.644531 202.875 84.308594 202.027344 83.636719 C 201.179688 82.964844 200.640625 81.96875 200.40625 80.648438 "/>
<path fill-rule="nonzero" fill="rgb(13.729858%, 12.159729%, 12.548828%)" fill-opacity="1" d="M 221.160156 73.734375 L 221.160156 73.3125 C 222.480469 73.3125 223.558594 73.535156 224.394531 73.988281 C 225.230469 74.433594 225.902344 75.160156 226.414062 76.15625 C 226.925781 77.152344 227.183594 78.242188 227.183594 79.429688 C 227.183594 80.441406 226.984375 81.359375 226.585938 82.195312 C 226.1875 83.03125 225.644531 83.664062 224.949219 84.085938 C 224.257812 84.515625 223.601562 84.726562 222.976562 84.726562 C 222.289062 84.726562 221.703125 84.53125 221.21875 84.140625 C 220.734375 83.75 220.300781 83.144531 219.917969 82.324219 C 219.488281 83.152344 219.003906 83.761719 218.460938 84.148438 C 217.914062 84.53125 217.308594 84.726562 216.636719 84.726562 C 216.050781 84.726562 215.429688 84.519531 214.777344 84.097656 C 214.128906 83.683594 213.597656 83.035156 213.203125 82.167969 C 212.804688 81.296875 212.601562 80.351562 212.601562 79.335938 C 212.601562 78.234375 212.828125 77.230469 213.269531 76.324219 C 213.613281 75.621094 214.054688 75.039062 214.589844 74.578125 C 215.128906 74.117188 215.695312 73.789062 216.296875 73.601562 C 216.898438 73.40625 217.664062 73.3125 218.589844 73.3125 L 218.589844 73.734375 C 217.507812 73.84375 216.609375 74.359375 215.902344 75.277344 C 215.195312 76.195312 214.84375 77.542969 214.84375 79.324219 C 214.84375 81.082031 215.109375 82.371094 215.652344 83.191406 C 215.980469 83.683594 216.4375 83.929688 217.035156 83.929688 C 217.527344 83.929688 217.996094 83.726562 218.433594 83.320312 C 218.875 82.914062 219.253906 82.179688 219.566406 81.117188 C 219.222656 80.203125 219 79.523438 218.890625 79.078125 C 218.789062 78.632812 218.734375 78.207031 218.734375 77.800781 C 218.734375 77.042969 218.910156 76.390625 219.257812 75.84375 C 219.429688 75.570312 219.636719 75.433594 219.871094 75.433594 C 220.109375 75.433594 220.320312 75.570312 220.492188 75.84375 C 220.828125 76.359375 220.996094 76.988281 220.996094 77.730469 C 220.996094 78.636719 220.742188 79.769531 220.234375 81.117188 C 220.539062 82.1875 220.894531 82.90625 221.308594 83.28125 C 221.714844 83.652344 222.179688 83.835938 222.695312 83.835938 C 223.304688 83.835938 223.796875 83.597656 224.171875 83.121094 C 224.679688 82.480469 224.929688 81.28125 224.929688 79.523438 C 224.929688 77.390625 224.460938 75.816406 223.515625 74.800781 C 222.941406 74.183594 222.160156 73.828125 221.160156 73.734375 "/>
<path fill-rule="nonzero" fill="rgb(13.729858%, 12.159729%, 12.548828%)" fill-opacity="1" d="M 225.105469 87.777344 C 225.105469 86.660156 225.222656 85.761719 225.453125 85.085938 C 225.679688 84.40625 226.023438 83.878906 226.472656 83.511719 C 226.925781 83.144531 227.496094 82.957031 228.179688 82.957031 C 228.6875 82.957031 229.128906 83.0625 229.511719 83.265625 C 229.894531 83.46875 230.207031 83.761719 230.457031 84.144531 C 230.703125 84.53125 230.902344 84.996094 231.039062 85.546875 C 231.183594 86.097656 231.253906 86.839844 231.253906 87.777344 C 231.253906 88.882812 231.140625 89.773438 230.914062 90.453125 C 230.6875 91.132812 230.347656 91.65625 229.894531 92.027344 C 229.441406 92.398438 228.871094 92.585938 228.179688 92.585938 C 227.269531 92.585938 226.558594 92.257812 226.039062 91.605469 C 225.417969 90.824219 225.105469 89.542969 225.105469 87.777344 Z M 226.296875 87.777344 C 226.296875 89.324219 226.480469 90.351562 226.839844 90.867188 C 227.203125 91.378906 227.648438 91.632812 228.179688 91.632812 C 228.714844 91.632812 229.15625 91.375 229.519531 90.859375 C 229.882812 90.347656 230.066406 89.320312 230.066406 87.777344 C 230.066406 86.222656 229.882812 85.191406 229.519531 84.683594 C 229.15625 84.171875 228.707031 83.917969 228.167969 83.917969 C 227.636719 83.917969 227.210938 84.144531 226.894531 84.59375 C 226.496094 85.164062 226.296875 86.226562 226.296875 87.777344 "/>
<path fill-rule="nonzero" fill="rgb(13.729858%, 12.159729%, 12.548828%)" fill-opacity="1" d="M 0.34375 122.472656 L 4.890625 116.007812 L 0.683594 110.03125 L 3.320312 110.03125 L 5.230469 112.945312 C 5.585938 113.503906 5.878906 113.964844 6.09375 114.34375 C 6.4375 113.824219 6.753906 113.371094 7.046875 112.96875 L 9.144531 110.03125 L 11.664062 110.03125 L 7.363281 115.890625 L 11.992188 122.472656 L 9.402344 122.472656 L 6.847656 118.605469 L 6.167969 117.5625 L 2.898438 122.472656 L 0.34375 122.472656 "/>
<path fill-rule="nonzero" fill="rgb(13.729858%, 12.159729%, 12.548828%)" fill-opacity="1" d="M 17.78125 127.527344 C 16.617188 126.058594 15.632812 124.339844 14.828125 122.371094 C 14.023438 120.398438 13.621094 118.363281 13.621094 116.25 C 13.621094 114.390625 13.917969 112.609375 14.523438 110.90625 C 15.226562 108.929688 16.3125 106.960938 17.78125 105 L 19.292969 105 C 18.347656 106.625 17.722656 107.785156 17.417969 108.480469 C 16.941406 109.558594 16.566406 110.683594 16.292969 111.859375 C 15.957031 113.316406 15.789062 114.785156 15.789062 116.261719 C 15.789062 120.023438 16.957031 123.773438 19.292969 127.527344 L 17.78125 127.527344 "/>
<path fill-rule="nonzero" fill="rgb(13.729858%, 12.159729%, 12.548828%)" fill-opacity="1" d="M 21.742188 122.472656 L 21.742188 110.03125 L 23.640625 110.03125 L 23.640625 111.796875 C 24.554688 110.429688 25.875 109.746094 27.601562 109.746094 C 28.351562 109.746094 29.039062 109.882812 29.667969 110.148438 C 30.300781 110.421875 30.769531 110.773438 31.078125 111.214844 C 31.394531 111.648438 31.613281 112.167969 31.738281 112.769531 C 31.816406 113.160156 31.855469 113.84375 31.855469 114.820312 L 31.855469 122.472656 L 29.742188 122.472656 L 29.742188 114.902344 C 29.742188 114.046875 29.664062 113.402344 29.5 112.972656 C 29.335938 112.550781 29.042969 112.210938 28.628906 111.957031 C 28.207031 111.703125 27.71875 111.574219 27.15625 111.574219 C 26.253906 111.574219 25.484375 111.863281 24.828125 112.429688 C 24.175781 113.003906 23.851562 114.082031 23.851562 115.675781 L 23.851562 122.472656 L 21.742188 122.472656 "/>
<path fill-rule="nonzero" fill="rgb(13.729858%, 12.159729%, 12.548828%)" fill-opacity="1" d="M 36.472656 127.527344 L 34.960938 127.527344 C 37.296875 123.773438 38.464844 120.023438 38.464844 116.261719 C 38.464844 114.792969 38.296875 113.339844 37.960938 111.890625 C 37.695312 110.722656 37.324219 109.59375 36.847656 108.519531 C 36.542969 107.8125 35.914062 106.640625 34.960938 105 L 36.472656 105 C 37.941406 106.960938 39.027344 108.929688 39.730469 110.90625 C 40.332031 112.609375 40.632812 114.390625 40.632812 116.25 C 40.632812 118.363281 40.226562 120.398438 39.417969 122.371094 C 38.613281 124.339844 37.628906 126.058594 36.472656 127.527344 "/>
<path fill-rule="nonzero" fill="rgb(13.729858%, 12.159729%, 12.548828%)" fill-opacity="1" d="M 482.222656 173.542969 L 481.984375 171.5625 C 482.449219 171.6875 482.851562 171.75 483.195312 171.75 C 483.660156 171.75 484.039062 171.671875 484.316406 171.515625 C 484.601562 171.359375 484.828125 171.144531 485.011719 170.859375 C 485.144531 170.652344 485.359375 170.125 485.652344 169.289062 C 485.695312 169.171875 485.757812 169.003906 485.84375 168.773438 L 481.121094 156.304688 L 483.394531 156.304688 L 485.984375 163.511719 C 486.316406 164.425781 486.621094 165.386719 486.886719 166.394531 C 487.128906 165.425781 487.417969 164.480469 487.753906 163.558594 L 490.414062 156.304688 L 492.523438 156.304688 L 487.789062 168.960938 C 487.28125 170.332031 486.886719 171.269531 486.605469 171.785156 C 486.230469 172.484375 485.800781 172.992188 485.316406 173.3125 C 484.828125 173.640625 484.253906 173.800781 483.582031 173.800781 C 483.175781 173.800781 482.722656 173.714844 482.222656 173.542969 "/>
<path fill-rule="nonzero" fill="rgb(13.729858%, 12.159729%, 12.548828%)" fill-opacity="1" d="M 498.347656 173.800781 C 497.183594 172.335938 496.199219 170.613281 495.394531 168.644531 C 494.589844 166.675781 494.1875 164.636719 494.1875 162.527344 C 494.1875 160.667969 494.484375 158.886719 495.089844 157.183594 C 495.792969 155.207031 496.878906 153.238281 498.347656 151.277344 L 499.859375 151.277344 C 498.914062 152.902344 498.289062 154.0625 497.984375 154.757812 C 497.507812 155.835938 497.132812 156.960938 496.859375 158.132812 C 496.523438 159.59375 496.355469 161.0625 496.355469 162.539062 C 496.355469 166.296875 497.523438 170.050781 499.859375 173.800781 L 498.347656 173.800781 "/>
<path fill-rule="nonzero" fill="rgb(13.729858%, 12.159729%, 12.548828%)" fill-opacity="1" d="M 502.308594 168.75 L 502.308594 156.304688 L 504.207031 156.304688 L 504.207031 158.074219 C 505.121094 156.707031 506.441406 156.023438 508.164062 156.023438 C 508.917969 156.023438 509.605469 156.160156 510.234375 156.425781 C 510.867188 156.699219 511.335938 157.050781 511.644531 157.492188 C 511.960938 157.925781 512.179688 158.445312 512.304688 159.046875 C 512.382812 159.4375 512.421875 160.121094 512.421875 161.097656 L 512.421875 168.75 L 510.308594 168.75 L 510.308594 161.179688 C 510.308594 160.324219 510.230469 159.679688 510.066406 159.25 C 509.902344 158.828125 509.609375 158.488281 509.195312 158.234375 C 508.773438 157.976562 508.285156 157.851562 507.722656 157.851562 C 506.820312 157.851562 506.050781 158.136719 505.394531 158.707031 C 504.742188 159.277344 504.417969 160.359375 504.417969 161.953125 L 504.417969 168.75 L 502.308594 168.75 "/>
<path fill-rule="nonzero" fill="rgb(13.729858%, 12.159729%, 12.548828%)" fill-opacity="1" d="M 517.039062 173.800781 L 515.527344 173.800781 C 517.863281 170.050781 519.03125 166.296875 519.03125 162.539062 C 519.03125 161.070312 518.863281 159.613281 518.527344 158.167969 C 518.261719 157 517.890625 155.871094 517.414062 154.792969 C 517.109375 154.089844 516.480469 152.917969 515.527344 151.277344 L 517.039062 151.277344 C 518.507812 153.238281 519.59375 155.207031 520.296875 157.183594 C 520.898438 158.886719 521.199219 160.667969 521.199219 162.527344 C 521.199219 164.636719 520.792969 166.675781 519.984375 168.644531 C 519.179688 170.613281 518.195312 172.335938 517.039062 173.800781 "/>
<path fill="none" stroke-width="19.9984" stroke-linecap="butt" stroke-linejoin="miter" stroke="rgb(13.729858%, 12.159729%, 12.548828%)" stroke-opacity="1" stroke-miterlimit="22.9256" d="M 2437.734375 577.34375 L 2437.734375 1235.9375 L 1616.015625 1235.9375 L 1363.359375 813.789062 " transform="matrix(0.1, 0, 0, -0.1, 0, 174)"/>
<path fill-rule="evenodd" fill="rgb(13.729858%, 12.159729%, 12.548828%)" fill-opacity="1" d="M 141.230469 94.59375 L 131.890625 100.046875 L 132.285156 89.238281 Z M 141.230469 94.59375 "/>
<path fill="none" stroke-width="19.9984" stroke-linecap="butt" stroke-linejoin="miter" stroke="rgb(13.729858%, 12.159729%, 12.548828%)" stroke-opacity="1" stroke-miterlimit="22.9256" d="M 2994.0625 582.34375 L 3360.546875 582.34375 L 3360.546875 1728.476562 L 1218.515625 1728.476562 L 1218.515625 853.828125 " transform="matrix(0.1, 0, 0, -0.1, 0, 174)"/>
<path fill-rule="evenodd" fill="rgb(13.729858%, 12.159729%, 12.548828%)" fill-opacity="1" d="M 127.082031 87.792969 L 121.851562 97.296875 L 116.625 87.792969 Z M 127.082031 87.792969 "/>
<path fill-rule="nonzero" fill="rgb(13.729858%, 12.159729%, 12.548828%)" fill-opacity="1" d="M 126.914062 28.910156 L 126.914062 26.789062 L 133.398438 26.789062 L 133.398438 28.910156 L 126.914062 28.910156 "/>
<path fill-rule="nonzero" fill="rgb(13.729858%, 12.159729%, 12.548828%)" fill-opacity="1" d="M 135.707031 34.066406 L 135.707031 21.621094 L 137.605469 21.621094 L 137.605469 23.507812 C 138.089844 22.625 138.535156 22.042969 138.949219 21.761719 C 139.355469 21.480469 139.808594 21.339844 140.300781 21.339844 C 141.011719 21.339844 141.730469 21.566406 142.46875 22.019531 L 141.738281 23.980469 C 141.226562 23.671875 140.710938 23.519531 140.195312 23.519531 C 139.730469 23.519531 139.320312 23.65625 138.953125 23.933594 C 138.585938 24.214844 138.324219 24.597656 138.167969 25.089844 C 137.933594 25.839844 137.816406 26.65625 137.816406 27.550781 L 137.816406 34.066406 L 135.707031 34.066406 "/>
<path fill-rule="nonzero" fill="rgb(13.729858%, 12.159729%, 12.548828%)" fill-opacity="1" d="M 153.230469 24.183594 L 153.230469 25.703125 L 144.714844 25.703125 C 144.703125 25.324219 144.761719 24.957031 144.898438 24.605469 C 145.113281 24.023438 145.460938 23.453125 145.9375 22.890625 C 146.421875 22.328125 147.109375 21.675781 148.007812 20.9375 C 149.410156 19.789062 150.359375 18.882812 150.851562 18.210938 C 151.34375 17.539062 151.589844 16.90625 151.589844 16.308594 C 151.589844 15.679688 151.363281 15.152344 150.914062 14.71875 C 150.464844 14.289062 149.882812 14.074219 149.160156 14.074219 C 148.398438 14.074219 147.789062 14.304688 147.335938 14.761719 C 146.875 15.21875 146.644531 15.851562 146.636719 16.660156 L 145.011719 16.492188 C 145.121094 15.277344 145.542969 14.355469 146.269531 13.71875 C 146.996094 13.082031 147.972656 12.765625 149.195312 12.765625 C 150.433594 12.765625 151.410156 13.109375 152.132812 13.792969 C 152.855469 14.480469 153.214844 15.328125 153.214844 16.34375 C 153.214844 16.859375 153.109375 17.367188 152.894531 17.863281 C 152.6875 18.363281 152.335938 18.886719 151.847656 19.4375 C 151.355469 19.988281 150.546875 20.746094 149.40625 21.703125 C 148.460938 22.503906 147.851562 23.042969 147.578125 23.328125 C 147.308594 23.609375 147.089844 23.894531 146.910156 24.183594 L 153.230469 24.183594 "/>
<path fill="none" stroke-width="19.9984" stroke-linecap="butt" stroke-linejoin="miter" stroke="rgb(13.729858%, 12.159729%, 12.548828%)" stroke-opacity="1" stroke-miterlimit="22.9256" d="M 1642.734375 571.445312 L 1642.734375 96.796875 L 4668.085938 96.796875 " transform="matrix(0.1, 0, 0, -0.1, 0, 174)"/>
<path fill-rule="evenodd" fill="rgb(13.729858%, 12.159729%, 12.548828%)" fill-opacity="1" d="M 465.988281 159.113281 L 475.453125 164.320312 L 465.988281 169.527344 Z M 465.988281 159.113281 "/>
</svg>
