<?xml version="1.0" encoding="UTF-8"?>
<svg xmlns="http://www.w3.org/2000/svg" xmlns:xlink="http://www.w3.org/1999/xlink" width="510" height="299" viewBox="0 0 510 299">
<path fill="none" stroke-width="19.9984" stroke-linecap="butt" stroke-linejoin="miter" stroke="rgb(13.729858%, 12.159729%, 12.548828%)" stroke-opacity="1" stroke-miterlimit="22.9256" d="M 180.46875 2899.960938 L 180.46875 257.226562 L 4899.6875 257.226562 " transform="matrix(0.1, 0, 0, -0.1, 0, 299)"/>
<path fill-rule="evenodd" fill="rgb(13.729858%, 12.159729%, 12.548828%)" fill-opacity="1" d="M 23.273438 9.828125 L 18.046875 0.320312 L 12.816406 9.828125 Z M 23.273438 9.828125 "/>
<path fill-rule="evenodd" fill="rgb(13.729858%, 12.159729%, 12.548828%)" fill-opacity="1" d="M 489.144531 268.050781 L 498.648438 273.277344 L 489.144531 278.507812 Z M 489.144531 268.050781 "/>
<path fill="none" stroke-width="19.9984" stroke-linecap="butt" stroke-linejoin="miter" stroke="rgb(13.729858%, 12.159729%, 12.548828%)" stroke-opacity="1" stroke-dasharray="19.9984 19.9984" stroke-miterlimit="22.9256" d="M 2.460938 2096.835938 L 4001.40625 2096.835938 " transform="matrix(0.1, 0, 0, -0.1, 0, 299)"/>
<path fill="none" stroke-width="19.9984" stroke-linecap="butt" stroke-linejoin="miter" stroke="rgb(13.729858%, 12.159729%, 12.548828%)" stroke-opacity="1" stroke-dasharray="19.9984 19.9984" stroke-miterlimit="22.9256" d="M 14.335938 1859.53125 L 4007.265625 1859.53125 " transform="matrix(0.1, 0, 0, -0.1, 0, 299)"/>
<path fill="none" stroke-width="19.9984" stroke-linecap="butt" stroke-linejoin="miter" stroke="rgb(13.729858%, 12.159729%, 12.548828%)" stroke-opacity="1" stroke-dasharray="19.9984 19.9984" stroke-miterlimit="22.9256" d="M 20.195312 1622.226562 L 4013.125 1622.226562 " transform="matrix(0.1, 0, 0, -0.1, 0, 299)"/>
<path fill="none" stroke-width="19.9984" stroke-linecap="butt" stroke-linejoin="miter" stroke="rgb(13.729858%, 12.159729%, 12.548828%)" stroke-opacity="1" stroke-dasharray="19.9984 19.9984" stroke-miterlimit="22.9256" d="M 20.039062 1384.882812 L 4018.984375 1384.882812 " transform="matrix(0.1, 0, 0, -0.1, 0, 299)"/>
<path fill="none" stroke-width="19.9984" stroke-linecap="butt" stroke-linejoin="miter" stroke="rgb(13.729858%, 12.159729%, 12.548828%)" stroke-opacity="1" stroke-dasharray="19.9984 19.9984" stroke-miterlimit="22.9256" d="M 25.898438 1147.578125 L 4024.804688 1147.578125 " transform="matrix(0.1, 0, 0, -0.1, 0, 299)"/>
<path fill="none" stroke-width="19.9984" stroke-linecap="butt" stroke-linejoin="miter" stroke="rgb(13.729858%, 12.159729%, 12.548828%)" stroke-opacity="1" stroke-dasharray="19.9984 19.9984" stroke-miterlimit="22.9256" d="M 31.71875 910.273438 L 4030.664062 910.273438 " transform="matrix(0.1, 0, 0, -0.1, 0, 299)"/>
<path fill-rule="nonzero" fill="rgb(13.729858%, 12.159729%, 12.548828%)" fill-opacity="1" d="M 184.230469 133.039062 L 170.167969 133.039062 L 177.527344 116.785156 Z M 181.464844 132.078125 L 176.789062 120.746094 L 171.632812 132.078125 L 181.464844 132.078125 "/>
<path fill="none" stroke-width="39.9997" stroke-linecap="butt" stroke-linejoin="miter" stroke="rgb(13.729858%, 12.159729%, 12.548828%)" stroke-opacity="1" stroke-miterlimit="22.9256" d="M 572.03125 2476.5625 C 633.203125 2231.875 1843.59375 1376.875 2102.734375 1218.789062 C 2539.726562 952.148438 3449.804688 613.59375 3930.078125 613.59375 " transform="matrix(0.1, 0, 0, -0.1, 0, 299)"/>
<path fill-rule="nonzero" fill="rgb(13.729858%, 12.159729%, 12.548828%)" fill-opacity="1" d="M 188.230469 123.953125 C 188.828125 123.9375 189.320312 123.777344 189.699219 123.464844 C 190.078125 123.15625 190.328125 122.730469 190.457031 122.195312 C 190.578125 121.65625 190.644531 120.730469 190.652344 119.429688 C 190.660156 118.125 190.683594 117.265625 190.726562 116.851562 C 190.796875 116.195312 190.925781 115.667969 191.117188 115.269531 C 191.308594 114.871094 191.546875 114.550781 191.824219 114.3125 C 192.109375 114.074219 192.46875 113.890625 192.90625 113.769531 C 193.199219 113.691406 193.683594 113.652344 194.355469 113.652344 L 195.011719 113.652344 L 195.011719 115.492188 L 194.648438 115.492188 C 193.835938 115.492188 193.300781 115.636719 193.03125 115.933594 C 192.769531 116.222656 192.636719 116.875 192.636719 117.890625 C 192.636719 119.9375 192.59375 121.230469 192.503906 121.769531 C 192.363281 122.605469 192.125 123.253906 191.785156 123.703125 C 191.445312 124.160156 190.914062 124.558594 190.183594 124.910156 C 191.046875 125.269531 191.667969 125.820312 192.058594 126.558594 C 192.441406 127.296875 192.636719 128.507812 192.636719 130.1875 C 192.636719 131.707031 192.648438 132.617188 192.679688 132.902344 C 192.746094 133.4375 192.898438 133.808594 193.15625 134.019531 C 193.410156 134.226562 193.910156 134.335938 194.648438 134.335938 L 195.011719 134.335938 L 195.011719 136.175781 L 194.355469 136.175781 C 193.59375 136.175781 193.035156 136.113281 192.691406 135.988281 C 192.191406 135.808594 191.78125 135.515625 191.453125 135.117188 C 191.125 134.710938 190.910156 134.203125 190.8125 133.585938 C 190.714844 132.96875 190.660156 131.957031 190.652344 130.546875 C 190.644531 129.144531 190.578125 128.171875 190.457031 127.632812 C 190.328125 127.09375 190.078125 126.667969 189.699219 126.355469 C 189.320312 126.039062 188.828125 125.875 188.230469 125.863281 L 188.230469 123.953125 "/>
<path fill-rule="nonzero" fill="rgb(13.729858%, 12.159729%, 12.548828%)" fill-opacity="1" d="M 121.328125 53.996094 L 125.875 47.527344 L 121.664062 41.550781 L 124.300781 41.550781 L 126.214844 44.46875 C 126.570312 45.023438 126.863281 45.488281 127.078125 45.863281 C 127.421875 45.347656 127.738281 44.890625 128.03125 44.492188 L 130.125 41.550781 L 132.644531 41.550781 L 128.347656 47.410156 L 132.976562 53.996094 L 130.386719 53.996094 L 127.828125 50.128906 L 127.148438 49.085938 L 123.882812 53.996094 L 121.328125 53.996094 "/>
<path fill-rule="nonzero" fill="rgb(13.729858%, 12.159729%, 12.548828%)" fill-opacity="1" d="M 145.429688 59.046875 C 144.265625 57.578125 143.28125 55.859375 142.480469 53.890625 C 141.675781 51.921875 141.269531 49.882812 141.269531 47.773438 C 141.269531 45.910156 141.570312 44.132812 142.175781 42.429688 C 142.878906 40.453125 143.964844 38.484375 145.429688 36.523438 L 146.941406 36.523438 C 145.996094 38.148438 145.375 39.308594 145.070312 40.003906 C 144.589844 41.078125 144.21875 42.207031 143.941406 43.378906 C 143.605469 44.839844 143.4375 46.308594 143.4375 47.785156 C 143.4375 51.542969 144.605469 55.296875 146.941406 59.046875 L 145.429688 59.046875 "/>
<path fill-rule="nonzero" fill="rgb(13.729858%, 12.159729%, 12.548828%)" fill-opacity="1" d="M 149.394531 53.996094 L 149.394531 41.550781 L 151.289062 41.550781 L 151.289062 43.320312 C 152.207031 41.953125 153.527344 41.269531 155.25 41.269531 C 156.003906 41.269531 156.691406 41.402344 157.316406 41.671875 C 157.949219 41.945312 158.417969 42.296875 158.730469 42.734375 C 159.046875 43.171875 159.261719 43.691406 159.390625 44.292969 C 159.464844 44.683594 159.507812 45.367188 159.507812 46.34375 L 159.507812 53.996094 L 157.394531 53.996094 L 157.394531 46.425781 C 157.394531 45.566406 157.3125 44.925781 157.152344 44.496094 C 156.988281 44.070312 156.695312 43.730469 156.277344 43.480469 C 155.859375 43.222656 155.371094 43.097656 154.804688 43.097656 C 153.90625 43.097656 153.132812 43.382812 152.480469 43.953125 C 151.828125 44.523438 151.503906 45.605469 151.503906 47.199219 L 151.503906 53.996094 L 149.394531 53.996094 "/>
<path fill-rule="nonzero" fill="rgb(13.729858%, 12.159729%, 12.548828%)" fill-opacity="1" d="M 164.121094 59.046875 L 162.609375 59.046875 C 164.945312 55.296875 166.113281 51.542969 166.113281 47.785156 C 166.113281 46.316406 165.945312 44.859375 165.609375 43.410156 C 165.347656 42.242188 164.976562 41.117188 164.5 40.039062 C 164.195312 39.335938 163.566406 38.164062 162.609375 36.523438 L 164.121094 36.523438 C 165.589844 38.484375 166.679688 40.453125 167.382812 42.429688 C 167.984375 44.132812 168.28125 45.910156 168.28125 47.773438 C 168.28125 49.882812 167.878906 51.921875 167.070312 53.890625 C 166.261719 55.859375 165.277344 57.578125 164.121094 59.046875 "/>
<path fill-rule="nonzero" fill="rgb(13.729858%, 12.159729%, 12.548828%)" fill-opacity="1" d="M 139.617188 62.480469 L 139.617188 58.421875 C 139.398438 58.726562 139.089844 58.980469 138.699219 59.183594 C 138.304688 59.386719 137.886719 59.488281 137.441406 59.488281 C 136.460938 59.488281 135.609375 59.097656 134.902344 58.308594 C 134.1875 57.523438 133.835938 56.445312 133.835938 55.074219 C 133.835938 54.242188 133.980469 53.496094 134.269531 52.832031 C 134.558594 52.171875 134.976562 51.671875 135.523438 51.328125 C 136.074219 50.988281 136.675781 50.816406 137.335938 50.816406 C 138.359375 50.816406 139.167969 51.25 139.757812 52.117188 L 139.757812 51.007812 L 141.019531 51.007812 L 141.019531 62.480469 Z M 135.28125 55.132812 C 135.28125 56.199219 135.503906 56.996094 135.953125 57.53125 C 136.398438 58.066406 136.9375 58.335938 137.558594 58.335938 C 138.160156 58.335938 138.675781 58.082031 139.105469 57.570312 C 139.539062 57.066406 139.757812 56.289062 139.757812 55.253906 C 139.757812 54.148438 139.527344 53.320312 139.070312 52.765625 C 138.617188 52.207031 138.082031 51.925781 137.46875 51.925781 C 136.859375 51.925781 136.339844 52.1875 135.917969 52.703125 C 135.492188 53.222656 135.28125 54.03125 135.28125 55.132812 "/>
<path fill-rule="nonzero" fill="rgb(13.729858%, 12.159729%, 12.548828%)" fill-opacity="1" d="M 499.007812 298.15625 L 499.007812 285.710938 L 500.90625 285.710938 L 500.90625 287.476562 C 501.820312 286.109375 503.140625 285.425781 504.863281 285.425781 C 505.617188 285.425781 506.304688 285.5625 506.933594 285.832031 C 507.566406 286.101562 508.03125 286.453125 508.34375 286.894531 C 508.660156 287.332031 508.878906 287.851562 509.003906 288.449219 C 509.082031 288.84375 509.121094 289.527344 509.121094 290.503906 L 509.121094 298.15625 L 507.007812 298.15625 L 507.007812 290.582031 C 507.007812 289.726562 506.929688 289.082031 506.765625 288.65625 C 506.601562 288.230469 506.308594 287.890625 505.894531 287.640625 C 505.472656 287.382812 504.984375 287.253906 504.421875 287.253906 C 503.519531 287.253906 502.75 287.542969 502.09375 288.109375 C 501.441406 288.683594 501.117188 289.761719 501.117188 291.359375 L 501.117188 298.15625 L 499.007812 298.15625 "/>
<path fill="none" stroke-width="19.9984" stroke-linecap="butt" stroke-linejoin="miter" stroke="rgb(13.729858%, 12.159729%, 12.548828%)" stroke-opacity="1" stroke-miterlimit="22.9256" d="M 630.9375 2191.289062 L 1118.085938 2191.289062 L 1118.085938 1995.898438 L 1396.757812 1995.898438 L 1396.757812 1752.734375 L 1657.8125 1752.734375 L 1657.8125 1526.679688 L 1942.539062 1526.679688 L 1942.539062 1266.171875 L 2233.28125 1266.171875 L 2233.28125 1028.828125 L 2791.484375 1028.828125 L 2791.484375 785.429688 L 3580.039062 785.429688 " transform="matrix(0.1, 0, 0, -0.1, 0, 299)"/>
<path fill="none" stroke-width="19.9984" stroke-linecap="butt" stroke-linejoin="miter" stroke="rgb(13.729858%, 12.159729%, 12.548828%)" stroke-opacity="1" stroke-miterlimit="22.9256" d="M 1206.835938 2387.539062 L 1126.953125 2310.976562 " transform="matrix(0.1, 0, 0, -0.1, 0, 299)"/>
<path fill-rule="evenodd" fill="rgb(13.729858%, 12.159729%, 12.548828%)" fill-opacity="1" d="M 116.894531 71.097656 L 106.445312 73.890625 L 109.679688 63.570312 Z M 116.894531 71.097656 "/>
<path fill-rule="nonzero" fill="rgb(13.729858%, 12.159729%, 12.548828%)" fill-opacity="1" d="M 55.597656 27.613281 L 60.148438 21.144531 L 55.9375 15.171875 L 58.574219 15.171875 L 60.488281 18.085938 C 60.84375 18.640625 61.136719 19.105469 61.351562 19.480469 C 61.695312 18.964844 62.011719 18.511719 62.300781 18.109375 L 64.398438 15.171875 L 66.917969 15.171875 L 62.617188 21.03125 L 67.246094 27.613281 L 64.660156 27.613281 L 62.101562 23.746094 L 61.421875 22.703125 L 58.15625 27.613281 L 55.597656 27.613281 "/>
<path fill-rule="nonzero" fill="rgb(13.729858%, 12.159729%, 12.548828%)" fill-opacity="1" d="M 73.035156 32.664062 C 71.871094 31.199219 70.886719 29.476562 70.082031 27.511719 C 69.28125 25.535156 68.875 23.503906 68.875 21.390625 C 68.875 19.53125 69.175781 17.75 69.777344 16.046875 C 70.484375 14.070312 71.566406 12.101562 73.035156 10.140625 L 74.546875 10.140625 C 73.601562 11.765625 72.980469 12.925781 72.675781 13.621094 C 72.195312 14.699219 71.824219 15.824219 71.546875 16.996094 C 71.210938 18.457031 71.042969 19.925781 71.042969 21.402344 C 71.042969 25.160156 72.210938 28.914062 74.546875 32.664062 L 73.035156 32.664062 "/>
<path fill-rule="nonzero" fill="rgb(13.729858%, 12.159729%, 12.548828%)" fill-opacity="1" d="M 77 27.613281 L 77 15.171875 L 78.894531 15.171875 L 78.894531 16.9375 C 79.8125 15.570312 81.132812 14.886719 82.855469 14.886719 C 83.605469 14.886719 84.296875 15.023438 84.921875 15.289062 C 85.554688 15.5625 86.023438 15.914062 86.335938 16.355469 C 86.652344 16.789062 86.867188 17.308594 86.996094 17.910156 C 87.070312 18.300781 87.109375 18.984375 87.109375 19.960938 L 87.109375 27.613281 L 85 27.613281 L 85 20.042969 C 85 19.1875 84.917969 18.542969 84.753906 18.113281 C 84.589844 17.691406 84.300781 17.351562 83.882812 17.097656 C 83.464844 16.84375 82.976562 16.714844 82.410156 16.714844 C 81.511719 16.714844 80.738281 17.003906 80.082031 17.570312 C 79.429688 18.140625 79.105469 19.222656 79.105469 20.816406 L 79.105469 27.613281 L 77 27.613281 "/>
<path fill-rule="nonzero" fill="rgb(13.729858%, 12.159729%, 12.548828%)" fill-opacity="1" d="M 91.726562 32.664062 L 90.214844 32.664062 C 92.550781 28.914062 93.71875 25.160156 93.71875 21.402344 C 93.71875 19.933594 93.550781 18.476562 93.214844 17.03125 C 92.953125 15.863281 92.578125 14.734375 92.101562 13.65625 C 91.800781 12.953125 91.171875 11.78125 90.214844 10.140625 L 91.726562 10.140625 C 93.195312 12.101562 94.28125 14.070312 94.988281 16.046875 C 95.585938 17.75 95.886719 19.53125 95.886719 21.390625 C 95.886719 23.503906 95.484375 25.535156 94.675781 27.511719 C 93.867188 29.476562 92.882812 31.199219 91.726562 32.664062 "/>
<path fill="none" stroke-width="19.9984" stroke-linecap="butt" stroke-linejoin="miter" stroke="rgb(13.729858%, 12.159729%, 12.548828%)" stroke-opacity="1" stroke-miterlimit="22.9256" d="M 714.414062 2630.78125 L 687.96875 2525.039062 " transform="matrix(0.1, 0, 0, -0.1, 0, 299)"/>
<path fill-rule="evenodd" fill="rgb(13.729858%, 12.159729%, 12.548828%)" fill-opacity="1" d="M 74.058594 46.964844 L 66.695312 54.90625 L 63.933594 44.433594 Z M 74.058594 46.964844 "/>
</svg>
