<?xml version="1.0" encoding="UTF-8"?>
<svg xmlns="http://www.w3.org/2000/svg" xmlns:xlink="http://www.w3.org/1999/xlink" width="943" height="438" viewBox="0 0 943 438">
<path fill="none" stroke-width="39.9997" stroke-linecap="butt" stroke-linejoin="miter" stroke="rgb(13.729858%, 12.159729%, 12.548828%)" stroke-opacity="1" stroke-miterlimit="22.9256" d="M 332.96875 3833.984375 L 332.96875 388.4375 L 8067.65625 388.4375 " transform="matrix(0.1, 0, 0, -0.1, 0, 438)"/>
<path fill-rule="evenodd" fill="rgb(13.729858%, 12.159729%, 12.548828%)" fill-opacity="1" d="M 43.753906 56.25 L 33.296875 37.238281 L 22.839844 56.25 Z M 43.753906 56.25 "/>
<path fill-rule="evenodd" fill="rgb(13.729858%, 12.159729%, 12.548828%)" fill-opacity="1" d="M 805.117188 388.699219 L 824.125 399.15625 L 805.117188 409.613281 Z M 805.117188 388.699219 "/>
<path fill="none" stroke-width="39.9997" stroke-linecap="butt" stroke-linejoin="miter" stroke="rgb(13.729858%, 12.159729%, 12.548828%)" stroke-opacity="1" stroke-miterlimit="22.9256" d="M 351.054688 384.21875 L 2236.25 2269.414062 " transform="matrix(0.1, 0, 0, -0.1, 0, 438)"/>
<path fill="none" stroke-width="39.9997" stroke-linecap="butt" stroke-linejoin="miter" stroke="rgb(13.729858%, 12.159729%, 12.548828%)" stroke-opacity="1" stroke-miterlimit="22.9256" d="M 2235.859375 2269.257812 L 4121.054688 384.101562 " transform="matrix(0.1, 0, 0, -0.1, 0, 438)"/>
<path fill="none" stroke-width="39.9997" stroke-linecap="butt" stroke-linejoin="miter" stroke="rgb(13.729858%, 12.159729%, 12.548828%)" stroke-opacity="1" stroke-miterlimit="22.9256" d="M 4135.234375 385.507812 L 6020.390625 2270.703125 " transform="matrix(0.1, 0, 0, -0.1, 0, 438)"/>
<path fill="none" stroke-width="39.9997" stroke-linecap="butt" stroke-linejoin="miter" stroke="rgb(13.729858%, 12.159729%, 12.548828%)" stroke-opacity="1" stroke-miterlimit="22.9256" d="M 6020.039062 2270.546875 L 7905.195312 385.351562 " transform="matrix(0.1, 0, 0, -0.1, 0, 438)"/>
<path fill="none" stroke-width="39.9997" stroke-linecap="butt" stroke-linejoin="miter" stroke="rgb(13.729858%, 12.159729%, 12.548828%)" stroke-opacity="1" stroke-dasharray="39.9997 39.9997" stroke-miterlimit="22.9256" d="M 7889.609375 416.5625 L 8330.15625 872.03125 " transform="matrix(0.1, 0, 0, -0.1, 0, 438)"/>
<path fill-rule="nonzero" fill="rgb(13.729858%, 12.159729%, 12.548828%)" fill-opacity="1" d="M 30.910156 17.878906 L 30.910156 7.074219 L 29.050781 7.074219 L 29.050781 5.433594 L 30.910156 5.433594 L 30.910156 4.109375 C 30.910156 3.273438 30.988281 2.648438 31.136719 2.246094 C 31.339844 1.699219 31.695312 1.253906 32.207031 0.914062 C 32.71875 0.574219 33.433594 0.40625 34.359375 0.40625 C 34.953125 0.40625 35.609375 0.472656 36.328125 0.617188 L 36.011719 2.457031 C 35.574219 2.378906 35.160156 2.339844 34.769531 2.339844 C 34.128906 2.339844 33.675781 2.472656 33.410156 2.75 C 33.144531 3.023438 33.011719 3.535156 33.011719 4.285156 L 33.011719 5.433594 L 35.4375 5.433594 L 35.4375 7.074219 L 33.011719 7.074219 L 33.011719 17.878906 L 30.910156 17.878906 "/>
<path fill-rule="nonzero" fill="rgb(13.729858%, 12.159729%, 12.548828%)" fill-opacity="1" d="M 34.035156 29.054688 L 36.121094 28.726562 C 36.234375 29.5625 36.5625 30.203125 37.097656 30.652344 C 37.632812 31.09375 38.378906 31.320312 39.34375 31.320312 C 40.3125 31.320312 41.03125 31.121094 41.5 30.726562 C 41.96875 30.332031 42.203125 29.867188 42.203125 29.339844 C 42.203125 28.859375 41.996094 28.488281 41.578125 28.210938 C 41.292969 28.023438 40.570312 27.785156 39.421875 27.5 C 37.878906 27.109375 36.804688 26.769531 36.207031 26.484375 C 35.613281 26.199219 35.15625 25.804688 34.847656 25.300781 C 34.539062 24.796875 34.382812 24.238281 34.382812 23.632812 C 34.382812 23.074219 34.511719 22.5625 34.769531 22.089844 C 35.019531 21.617188 35.367188 21.222656 35.804688 20.910156 C 36.132812 20.671875 36.578125 20.464844 37.144531 20.296875 C 37.710938 20.128906 38.320312 20.042969 38.96875 20.042969 C 39.945312 20.042969 40.800781 20.1875 41.539062 20.46875 C 42.28125 20.746094 42.824219 21.128906 43.175781 21.605469 C 43.527344 22.089844 43.769531 22.730469 43.898438 23.535156 L 41.839844 23.820312 C 41.742188 23.179688 41.472656 22.679688 41.023438 22.320312 C 40.574219 21.960938 39.941406 21.78125 39.121094 21.78125 C 38.152344 21.78125 37.460938 21.9375 37.046875 22.257812 C 36.632812 22.578125 36.421875 22.953125 36.421875 23.382812 C 36.421875 23.660156 36.511719 23.902344 36.683594 24.121094 C 36.855469 24.351562 37.125 24.535156 37.492188 24.6875 C 37.703125 24.761719 38.324219 24.941406 39.355469 25.222656 C 40.847656 25.621094 41.886719 25.945312 42.476562 26.203125 C 43.066406 26.453125 43.53125 26.828125 43.867188 27.3125 C 44.203125 27.796875 44.371094 28.394531 44.371094 29.113281 C 44.371094 29.820312 44.164062 30.480469 43.757812 31.105469 C 43.34375 31.722656 42.753906 32.203125 41.980469 32.542969 C 41.207031 32.882812 40.332031 33.050781 39.355469 33.050781 C 37.734375 33.050781 36.503906 32.714844 35.65625 32.042969 C 34.808594 31.371094 34.269531 30.375 34.035156 29.054688 "/>
<path fill-rule="nonzero" fill="rgb(13.729858%, 12.159729%, 12.548828%)" fill-opacity="1" d="M 55 31.234375 C 54.214844 31.898438 53.464844 32.367188 52.742188 32.644531 C 52.019531 32.914062 51.242188 33.050781 50.414062 33.050781 C 49.046875 33.050781 48 32.71875 47.265625 32.050781 C 46.53125 31.382812 46.164062 30.527344 46.164062 29.492188 C 46.164062 28.878906 46.300781 28.324219 46.582031 27.820312 C 46.855469 27.316406 47.21875 26.910156 47.667969 26.605469 C 48.121094 26.304688 48.625 26.070312 49.1875 25.914062 C 49.601562 25.808594 50.222656 25.699219 51.058594 25.601562 C 52.765625 25.394531 54.019531 25.15625 54.824219 24.871094 C 54.832031 24.585938 54.835938 24.398438 54.835938 24.324219 C 54.835938 23.464844 54.636719 22.855469 54.234375 22.507812 C 53.699219 22.027344 52.894531 21.789062 51.835938 21.789062 C 50.84375 21.789062 50.113281 21.964844 49.636719 22.3125 C 49.164062 22.660156 48.816406 23.273438 48.589844 24.160156 L 46.527344 23.875 C 46.714844 22.996094 47.023438 22.277344 47.453125 21.738281 C 47.878906 21.195312 48.503906 20.777344 49.316406 20.484375 C 50.128906 20.191406 51.066406 20.042969 52.140625 20.042969 C 53.203125 20.042969 54.0625 20.171875 54.726562 20.421875 C 55.390625 20.671875 55.878906 20.984375 56.195312 21.363281 C 56.507812 21.742188 56.722656 22.21875 56.851562 22.800781 C 56.917969 23.160156 56.957031 23.808594 56.957031 24.742188 L 56.957031 27.554688 C 56.957031 29.519531 57 30.757812 57.09375 31.273438 C 57.179688 31.796875 57.359375 32.296875 57.625 32.769531 L 55.417969 32.769531 C 55.203125 32.335938 55.058594 31.824219 55 31.234375 Z M 54.824219 26.523438 C 54.054688 26.839844 52.90625 27.105469 51.378906 27.324219 C 50.511719 27.449219 49.894531 27.585938 49.539062 27.742188 C 49.179688 27.898438 48.898438 28.128906 48.707031 28.429688 C 48.511719 28.730469 48.410156 29.0625 48.410156 29.433594 C 48.410156 29.996094 48.628906 30.464844 49.050781 30.839844 C 49.476562 31.210938 50.101562 31.398438 50.917969 31.398438 C 51.730469 31.398438 52.457031 31.222656 53.089844 30.867188 C 53.71875 30.511719 54.1875 30.023438 54.484375 29.40625 C 54.710938 28.933594 54.824219 28.226562 54.824219 27.300781 L 54.824219 26.523438 "/>
<path fill-rule="nonzero" fill="rgb(13.729858%, 12.159729%, 12.548828%)" fill-opacity="1" d="M 60.226562 32.769531 L 60.226562 20.328125 L 62.113281 20.328125 L 62.113281 22.070312 C 62.503906 21.464844 63.023438 20.972656 63.671875 20.605469 C 64.320312 20.230469 65.058594 20.042969 65.886719 20.042969 C 66.808594 20.042969 67.5625 20.234375 68.152344 20.621094 C 68.742188 21.003906 69.160156 21.535156 69.398438 22.222656 C 70.386719 20.769531 71.667969 20.042969 73.242188 20.042969 C 74.480469 20.042969 75.425781 20.386719 76.09375 21.070312 C 76.757812 21.753906 77.089844 22.808594 77.089844 24.226562 L 77.089844 32.769531 L 74.992188 32.769531 L 74.992188 24.933594 C 74.992188 24.085938 74.921875 23.480469 74.789062 23.105469 C 74.648438 22.738281 74.398438 22.4375 74.042969 22.210938 C 73.683594 21.988281 73.261719 21.871094 72.777344 21.871094 C 71.898438 21.871094 71.175781 22.164062 70.597656 22.746094 C 70.019531 23.328125 69.726562 24.257812 69.726562 25.539062 L 69.726562 32.769531 L 67.621094 32.769531 L 67.621094 24.6875 C 67.621094 23.746094 67.449219 23.042969 67.105469 22.574219 C 66.761719 22.105469 66.199219 21.871094 65.414062 21.871094 C 64.824219 21.871094 64.277344 22.027344 63.773438 22.34375 C 63.269531 22.65625 62.898438 23.113281 62.675781 23.710938 C 62.449219 24.316406 62.335938 25.183594 62.335938 26.316406 L 62.335938 32.769531 L 60.226562 32.769531 "/>
<path fill-rule="nonzero" fill="rgb(13.729858%, 12.159729%, 12.548828%)" fill-opacity="1" d="M 80.21875 37.539062 L 80.21875 20.328125 L 82.140625 20.328125 L 82.140625 21.941406 C 82.59375 21.3125 83.105469 20.835938 83.675781 20.519531 C 84.242188 20.203125 84.9375 20.042969 85.75 20.042969 C 86.8125 20.042969 87.746094 20.320312 88.558594 20.863281 C 89.375 21.410156 89.988281 22.183594 90.402344 23.179688 C 90.816406 24.175781 91.023438 25.269531 91.023438 26.453125 C 91.023438 27.726562 90.796875 28.875 90.335938 29.894531 C 89.878906 30.914062 89.214844 31.695312 88.34375 32.238281 C 87.472656 32.78125 86.554688 33.050781 85.597656 33.050781 C 84.890625 33.050781 84.265625 32.902344 83.703125 32.605469 C 83.144531 32.3125 82.6875 31.9375 82.328125 31.484375 L 82.328125 37.539062 Z M 82.128906 26.621094 C 82.128906 28.21875 82.453125 29.402344 83.101562 30.171875 C 83.746094 30.9375 84.535156 31.320312 85.457031 31.320312 C 86.390625 31.320312 87.195312 30.925781 87.863281 30.128906 C 88.53125 29.335938 88.867188 28.105469 88.867188 26.441406 C 88.867188 24.855469 88.539062 23.671875 87.886719 22.878906 C 87.234375 22.089844 86.457031 21.695312 85.550781 21.695312 C 84.652344 21.695312 83.855469 22.117188 83.164062 22.953125 C 82.472656 23.796875 82.128906 25.019531 82.128906 26.621094 "/>
<path fill-rule="nonzero" fill="rgb(13.729858%, 12.159729%, 12.548828%)" fill-opacity="1" d="M 93.519531 32.769531 L 93.519531 15.59375 L 95.628906 15.59375 L 95.628906 32.769531 L 93.519531 32.769531 "/>
<path fill-rule="nonzero" fill="rgb(13.729858%, 12.159729%, 12.548828%)" fill-opacity="1" d="M 107.414062 28.765625 L 109.597656 29.03125 C 109.253906 30.308594 108.617188 31.296875 107.6875 32 C 106.757812 32.699219 105.566406 33.050781 104.125 33.050781 C 102.304688 33.050781 100.859375 32.492188 99.796875 31.371094 C 98.726562 30.253906 98.195312 28.679688 98.195312 26.65625 C 98.195312 24.558594 98.734375 22.9375 99.8125 21.78125 C 100.890625 20.621094 102.289062 20.042969 104.007812 20.042969 C 105.671875 20.042969 107.03125 20.609375 108.085938 21.742188 C 109.140625 22.875 109.667969 24.472656 109.667969 26.523438 C 109.667969 26.652344 109.664062 26.839844 109.65625 27.085938 L 100.375 27.085938 C 100.453125 28.453125 100.839844 29.503906 101.535156 30.226562 C 102.230469 30.957031 103.097656 31.320312 104.136719 31.320312 C 104.90625 31.320312 105.566406 31.117188 106.117188 30.707031 C 106.664062 30.304688 107.097656 29.65625 107.414062 28.765625 Z M 100.492188 25.351562 L 107.441406 25.351562 C 107.347656 24.308594 107.078125 23.519531 106.644531 23 C 105.972656 22.1875 105.101562 21.78125 104.03125 21.78125 C 103.0625 21.78125 102.246094 22.105469 101.589844 22.753906 C 100.929688 23.398438 100.5625 24.269531 100.492188 25.351562 "/>
<path fill-rule="nonzero" fill="rgb(13.729858%, 12.159729%, 12.548828%)" fill-opacity="1" d="M 120.320312 32.769531 L 120.320312 31.199219 C 119.53125 32.4375 118.371094 33.050781 116.839844 33.050781 C 115.847656 33.050781 114.9375 32.78125 114.105469 32.230469 C 113.273438 31.6875 112.628906 30.925781 112.167969 29.9375 C 111.710938 28.960938 111.484375 27.835938 111.484375 26.558594 C 111.484375 25.320312 111.691406 24.191406 112.105469 23.179688 C 112.519531 22.167969 113.140625 21.390625 113.96875 20.855469 C 114.796875 20.316406 115.722656 20.042969 116.746094 20.042969 C 117.496094 20.042969 118.164062 20.203125 118.746094 20.519531 C 119.335938 20.835938 119.8125 21.246094 120.179688 21.753906 L 120.179688 15.59375 L 122.277344 15.59375 L 122.277344 32.769531 Z M 113.652344 26.558594 C 113.652344 28.15625 113.988281 29.347656 114.660156 30.136719 C 115.332031 30.925781 116.125 31.320312 117.039062 31.320312 C 117.960938 31.320312 118.746094 30.9375 119.386719 30.1875 C 120.03125 29.4375 120.355469 28.285156 120.355469 26.734375 C 120.355469 25.03125 120.027344 23.785156 119.371094 22.988281 C 118.714844 22.1875 117.90625 21.789062 116.945312 21.789062 C 116.007812 21.789062 115.222656 22.175781 114.597656 22.9375 C 113.96875 23.703125 113.652344 24.910156 113.652344 26.558594 "/>
<path fill-rule="nonzero" fill="rgb(13.729858%, 12.159729%, 12.548828%)" fill-opacity="1" d="M 836.519531 415.527344 L 836.519531 398.347656 L 848.109375 398.347656 L 848.109375 400.375 L 838.796875 400.375 L 838.796875 405.695312 L 846.855469 405.695312 L 846.855469 407.722656 L 838.796875 407.722656 L 838.796875 415.527344 L 836.519531 415.527344 "/>
<path fill-rule="nonzero" fill="rgb(13.729858%, 12.159729%, 12.548828%)" fill-opacity="1" d="M 854.679688 430.375 C 853.898438 431.039062 853.144531 431.507812 852.425781 431.78125 C 851.699219 432.054688 850.925781 432.191406 850.097656 432.191406 C 848.730469 432.191406 847.679688 431.859375 846.945312 431.191406 C 846.214844 430.523438 845.84375 429.667969 845.84375 428.628906 C 845.84375 428.019531 845.980469 427.460938 846.261719 426.957031 C 846.535156 426.453125 846.898438 426.050781 847.347656 425.746094 C 847.800781 425.441406 848.304688 425.210938 848.867188 425.054688 C 849.28125 424.945312 849.90625 424.839844 850.742188 424.738281 C 852.445312 424.535156 853.699219 424.292969 854.503906 424.011719 C 854.511719 423.722656 854.515625 423.539062 854.515625 423.460938 C 854.515625 422.601562 854.316406 421.992188 853.917969 421.644531 C 853.382812 421.164062 852.578125 420.929688 851.515625 420.929688 C 850.523438 420.929688 849.792969 421.101562 849.316406 421.449219 C 848.84375 421.796875 848.496094 422.414062 848.269531 423.296875 L 846.210938 423.015625 C 846.394531 422.132812 846.703125 421.417969 847.132812 420.878906 C 847.5625 420.335938 848.183594 419.914062 848.996094 419.621094 C 849.808594 419.332031 850.746094 419.183594 851.820312 419.183594 C 852.886719 419.183594 853.746094 419.308594 854.410156 419.558594 C 855.074219 419.808594 855.5625 420.121094 855.878906 420.503906 C 856.1875 420.882812 856.40625 421.359375 856.53125 421.9375 C 856.601562 422.296875 856.636719 422.945312 856.636719 423.882812 L 856.636719 426.695312 C 856.636719 428.65625 856.679688 429.898438 856.773438 430.414062 C 856.859375 430.933594 857.039062 431.433594 857.304688 431.910156 L 855.101562 431.910156 C 854.886719 431.472656 854.742188 430.960938 854.679688 430.375 Z M 854.503906 425.660156 C 853.738281 425.976562 852.589844 426.242188 851.0625 426.460938 C 850.191406 426.585938 849.578125 426.726562 849.222656 426.882812 C 848.859375 427.039062 848.582031 427.265625 848.390625 427.570312 C 848.191406 427.871094 848.09375 428.203125 848.09375 428.570312 C 848.09375 429.132812 848.308594 429.601562 848.730469 429.976562 C 849.15625 430.351562 849.78125 430.539062 850.601562 430.539062 C 851.414062 430.539062 852.136719 430.363281 852.769531 430.007812 C 853.402344 429.648438 853.867188 429.164062 854.164062 428.546875 C 854.394531 428.070312 854.503906 427.367188 854.503906 426.4375 L 854.503906 425.660156 "/>
<path fill-rule="nonzero" fill="rgb(13.729858%, 12.159729%, 12.548828%)" fill-opacity="1" d="M 859.910156 431.910156 L 859.910156 419.464844 L 861.804688 419.464844 L 861.804688 421.234375 C 862.722656 419.867188 864.039062 419.183594 865.765625 419.183594 C 866.515625 419.183594 867.203125 419.316406 867.832031 419.585938 C 868.464844 419.859375 868.933594 420.210938 869.246094 420.648438 C 869.5625 421.085938 869.777344 421.605469 869.90625 422.207031 C 869.980469 422.597656 870.019531 423.28125 870.019531 424.257812 L 870.019531 431.910156 L 867.910156 431.910156 L 867.910156 424.339844 C 867.910156 423.480469 867.828125 422.839844 867.664062 422.410156 C 867.5 421.984375 867.210938 421.644531 866.792969 421.394531 C 866.371094 421.136719 865.886719 421.011719 865.320312 421.011719 C 864.421875 421.011719 863.648438 421.296875 862.992188 421.867188 C 862.339844 422.4375 862.015625 423.519531 862.015625 425.113281 L 862.015625 431.910156 L 859.910156 431.910156 "/>
<path fill-rule="nonzero" fill="rgb(13.729858%, 12.159729%, 12.548828%)" fill-opacity="1" d="M 881.378906 430.375 C 880.59375 431.039062 879.839844 431.507812 879.121094 431.78125 C 878.398438 432.054688 877.621094 432.191406 876.792969 432.191406 C 875.425781 432.191406 874.378906 431.859375 873.640625 431.191406 C 872.910156 430.523438 872.539062 429.667969 872.539062 428.628906 C 872.539062 428.019531 872.675781 427.460938 872.957031 426.957031 C 873.234375 426.453125 873.597656 426.050781 874.046875 425.746094 C 874.496094 425.441406 875 425.210938 875.566406 425.054688 C 875.976562 424.945312 876.601562 424.839844 877.4375 424.738281 C 879.140625 424.535156 880.398438 424.292969 881.199219 424.011719 C 881.210938 423.722656 881.214844 423.539062 881.214844 423.460938 C 881.214844 422.601562 881.011719 421.992188 880.613281 421.644531 C 880.078125 421.164062 879.273438 420.929688 878.214844 420.929688 C 877.222656 420.929688 876.488281 421.101562 876.011719 421.449219 C 875.539062 421.796875 875.191406 422.414062 874.964844 423.296875 L 872.90625 423.015625 C 873.09375 422.132812 873.402344 421.417969 873.828125 420.878906 C 874.257812 420.335938 874.882812 419.914062 875.691406 419.621094 C 876.503906 419.332031 877.445312 419.183594 878.515625 419.183594 C 879.582031 419.183594 880.441406 419.308594 881.105469 419.558594 C 881.769531 419.808594 882.257812 420.121094 882.574219 420.503906 C 882.886719 420.882812 883.101562 421.359375 883.230469 421.9375 C 883.296875 422.296875 883.332031 422.945312 883.332031 423.882812 L 883.332031 426.695312 C 883.332031 428.65625 883.378906 429.898438 883.46875 430.414062 C 883.558594 430.933594 883.738281 431.433594 884 431.910156 L 881.796875 431.910156 C 881.582031 431.472656 881.4375 430.960938 881.378906 430.375 Z M 881.199219 425.660156 C 880.433594 425.976562 879.285156 426.242188 877.757812 426.460938 C 876.890625 426.585938 876.273438 426.726562 875.917969 426.882812 C 875.558594 427.039062 875.277344 427.265625 875.085938 427.570312 C 874.890625 427.871094 874.789062 428.203125 874.789062 428.570312 C 874.789062 429.132812 875.003906 429.601562 875.429688 429.976562 C 875.851562 430.351562 876.476562 430.539062 877.296875 430.539062 C 878.109375 430.539062 878.832031 430.363281 879.464844 430.007812 C 880.097656 429.648438 880.566406 429.164062 880.859375 428.546875 C 881.089844 428.070312 881.199219 427.367188 881.199219 426.4375 L 881.199219 425.660156 "/>
<path fill-rule="nonzero" fill="rgb(13.729858%, 12.159729%, 12.548828%)" fill-opacity="1" d="M 886.558594 431.910156 L 886.558594 414.730469 L 888.664062 414.730469 L 888.664062 431.910156 L 886.558594 431.910156 "/>
<path fill-rule="nonzero" fill="rgb(13.729858%, 12.159729%, 12.548828%)" fill-opacity="1" d="M 891.148438 425.6875 C 891.148438 423.382812 891.789062 421.675781 893.074219 420.566406 C 894.140625 419.644531 895.445312 419.183594 896.984375 419.183594 C 898.695312 419.183594 900.097656 419.742188 901.179688 420.867188 C 902.269531 421.984375 902.808594 423.535156 902.808594 425.511719 C 902.808594 427.113281 902.570312 428.375 902.089844 429.289062 C 901.609375 430.210938 900.910156 430.921875 899.992188 431.429688 C 899.074219 431.9375 898.074219 432.191406 896.984375 432.191406 C 895.246094 432.191406 893.835938 431.632812 892.761719 430.515625 C 891.683594 429.398438 891.148438 427.789062 891.148438 425.6875 Z M 893.316406 425.6875 C 893.316406 427.28125 893.664062 428.472656 894.359375 429.265625 C 895.058594 430.0625 895.933594 430.457031 896.984375 430.457031 C 898.03125 430.457031 898.90625 430.058594 899.601562 429.261719 C 900.292969 428.464844 900.640625 427.25 900.640625 425.617188 C 900.640625 424.078125 900.292969 422.910156 899.59375 422.117188 C 898.894531 421.328125 898.023438 420.929688 896.984375 420.929688 C 895.933594 420.929688 895.058594 421.328125 894.359375 422.113281 C 893.664062 422.902344 893.316406 424.09375 893.316406 425.6875 "/>
<path fill-rule="nonzero" fill="rgb(13.729858%, 12.159729%, 12.548828%)" fill-opacity="1" d="M 904.898438 432.941406 L 906.949219 433.246094 C 907.03125 433.878906 907.273438 434.335938 907.660156 434.628906 C 908.183594 435.019531 908.902344 435.214844 909.804688 435.214844 C 910.785156 435.214844 911.535156 435.019531 912.070312 434.628906 C 912.601562 434.238281 912.957031 433.691406 913.144531 432.988281 C 913.257812 432.558594 913.304688 431.65625 913.296875 430.28125 C 912.378906 431.367188 911.230469 431.910156 909.851562 431.910156 C 908.140625 431.910156 906.816406 431.292969 905.882812 430.058594 C 904.945312 428.824219 904.472656 427.34375 904.472656 425.617188 C 904.472656 424.429688 904.6875 423.335938 905.117188 422.332031 C 905.550781 421.328125 906.171875 420.550781 906.988281 420.003906 C 907.804688 419.457031 908.765625 419.183594 909.863281 419.183594 C 911.332031 419.183594 912.546875 419.777344 913.496094 420.964844 L 913.496094 419.464844 L 915.445312 419.464844 L 915.445312 430.222656 C 915.445312 432.15625 915.246094 433.535156 914.851562 434.34375 C 914.457031 435.148438 913.832031 435.789062 912.976562 436.257812 C 912.121094 436.726562 911.070312 436.960938 909.816406 436.960938 C 908.332031 436.960938 907.132812 436.625 906.222656 435.957031 C 905.304688 435.289062 904.863281 434.285156 904.898438 432.941406 Z M 906.640625 425.464844 C 906.640625 427.097656 906.964844 428.289062 907.617188 429.039062 C 908.265625 429.789062 909.078125 430.164062 910.054688 430.164062 C 911.019531 430.164062 911.832031 429.789062 912.488281 429.046875 C 913.144531 428.296875 913.472656 427.128906 913.472656 425.535156 C 913.472656 424.011719 913.136719 422.863281 912.460938 422.089844 C 911.785156 421.316406 910.96875 420.929688 910.015625 420.929688 C 909.082031 420.929688 908.285156 421.308594 907.625 422.074219 C 906.96875 422.835938 906.640625 423.964844 906.640625 425.464844 "/>
<path fill-rule="nonzero" fill="rgb(13.729858%, 12.159729%, 12.548828%)" fill-opacity="1" d="M 926.789062 431.910156 L 926.789062 430.082031 C 925.816406 431.488281 924.5 432.191406 922.835938 432.191406 C 922.105469 432.191406 921.417969 432.050781 920.78125 431.769531 C 920.144531 431.488281 919.671875 431.132812 919.363281 430.710938 C 919.054688 430.28125 918.835938 429.761719 918.714844 429.144531 C 918.628906 428.730469 918.585938 428.074219 918.585938 427.171875 L 918.585938 419.464844 L 920.691406 419.464844 L 920.691406 426.367188 C 920.691406 427.46875 920.738281 428.210938 920.820312 428.59375 C 920.957031 429.148438 921.238281 429.582031 921.664062 429.902344 C 922.097656 430.21875 922.628906 430.375 923.261719 430.375 C 923.894531 430.375 924.484375 430.214844 925.039062 429.890625 C 925.597656 429.566406 925.988281 429.121094 926.21875 428.566406 C 926.449219 428.007812 926.566406 427.195312 926.566406 426.132812 L 926.566406 419.464844 L 928.671875 419.464844 L 928.671875 431.910156 L 926.789062 431.910156 "/>
<path fill-rule="nonzero" fill="rgb(13.729858%, 12.159729%, 12.548828%)" fill-opacity="1" d="M 940.496094 427.902344 L 942.675781 428.167969 C 942.332031 429.445312 941.695312 430.433594 940.769531 431.136719 C 939.835938 431.839844 938.648438 432.191406 937.203125 432.191406 C 935.386719 432.191406 933.941406 431.628906 932.878906 430.511719 C 931.808594 429.390625 931.277344 427.816406 931.277344 425.792969 C 931.277344 423.699219 931.816406 422.074219 932.894531 420.917969 C 933.972656 419.761719 935.367188 419.183594 937.089844 419.183594 C 938.753906 419.183594 940.113281 419.75 941.164062 420.882812 C 942.222656 422.015625 942.75 423.609375 942.75 425.660156 C 942.75 425.789062 942.746094 425.976562 942.738281 426.226562 L 933.457031 426.226562 C 933.53125 427.59375 933.921875 428.640625 934.617188 429.367188 C 935.3125 430.09375 936.175781 430.457031 937.21875 430.457031 C 937.988281 430.457031 938.648438 430.253906 939.195312 429.847656 C 939.746094 429.441406 940.175781 428.792969 940.496094 427.902344 Z M 933.574219 424.488281 L 940.519531 424.488281 C 940.429688 423.445312 940.160156 422.65625 939.726562 422.136719 C 939.054688 421.328125 938.179688 420.917969 937.113281 420.917969 C 936.144531 420.917969 935.328125 421.242188 934.667969 421.890625 C 934.007812 422.539062 933.644531 423.40625 933.574219 424.488281 "/>
<path fill="none" stroke-width="39.9997" stroke-linecap="butt" stroke-linejoin="miter" stroke="rgb(13.729858%, 12.159729%, 12.548828%)" stroke-opacity="1" stroke-miterlimit="22.9256" d="M 2209.492188 597.070312 L 2209.492188 224.726562 " transform="matrix(0.1, 0, 0, -0.1, 0, 438)"/>
<path fill="none" stroke-width="39.9997" stroke-linecap="butt" stroke-linejoin="miter" stroke="rgb(13.729858%, 12.159729%, 12.548828%)" stroke-opacity="1" stroke-miterlimit="22.9256" d="M 6023.4375 597.070312 L 6023.4375 224.726562 " transform="matrix(0.1, 0, 0, -0.1, 0, 438)"/>
<path fill="none" stroke-width="39.9997" stroke-linecap="butt" stroke-linejoin="miter" stroke="rgb(13.729858%, 12.159729%, 12.548828%)" stroke-opacity="1" stroke-miterlimit="22.9256" d="M 4118.398438 597.070312 L 4118.398438 224.726562 " transform="matrix(0.1, 0, 0, -0.1, 0, 438)"/>
<path fill-rule="nonzero" fill="rgb(13.729858%, 12.159729%, 12.548828%)" fill-opacity="1" d="M 202.066406 437.519531 L 202.066406 420.34375 L 213.660156 420.34375 L 213.660156 422.371094 L 204.34375 422.371094 L 204.34375 427.691406 L 212.402344 427.691406 L 212.402344 429.71875 L 204.34375 429.71875 L 204.34375 437.519531 L 202.066406 437.519531 "/>
<path fill-rule="nonzero" fill="rgb(13.729858%, 12.159729%, 12.548828%)" fill-opacity="1" d="M 215.5 433.804688 L 217.585938 433.476562 C 217.699219 434.3125 218.027344 434.953125 218.5625 435.402344 C 219.097656 435.84375 219.84375 436.070312 220.808594 436.070312 C 221.777344 436.070312 222.496094 435.871094 222.964844 435.476562 C 223.433594 435.082031 223.667969 434.617188 223.667969 434.089844 C 223.667969 433.609375 223.460938 433.238281 223.042969 432.960938 C 222.757812 432.773438 222.035156 432.539062 220.886719 432.25 C 219.34375 431.859375 218.269531 431.519531 217.671875 431.234375 C 217.074219 430.949219 216.621094 430.554688 216.3125 430.050781 C 216.003906 429.546875 215.847656 428.988281 215.847656 428.382812 C 215.847656 427.824219 215.976562 427.3125 216.230469 426.839844 C 216.484375 426.367188 216.832031 425.972656 217.269531 425.660156 C 217.597656 425.421875 218.042969 425.214844 218.609375 425.046875 C 219.175781 424.878906 219.785156 424.792969 220.433594 424.792969 C 221.40625 424.792969 222.265625 424.9375 223.003906 425.21875 C 223.742188 425.496094 224.289062 425.878906 224.640625 426.355469 C 224.992188 426.839844 225.230469 427.480469 225.363281 428.285156 L 223.304688 428.570312 C 223.207031 427.929688 222.9375 427.429688 222.488281 427.070312 C 222.039062 426.710938 221.402344 426.53125 220.585938 426.53125 C 219.617188 426.53125 218.925781 426.691406 218.511719 427.007812 C 218.097656 427.328125 217.886719 427.707031 217.886719 428.132812 C 217.886719 428.410156 217.976562 428.652344 218.148438 428.875 C 218.320312 429.101562 218.589844 429.285156 218.957031 429.4375 C 219.167969 429.511719 219.789062 429.695312 220.820312 429.972656 C 222.3125 430.375 223.351562 430.699219 223.941406 430.953125 C 224.53125 431.207031 224.996094 431.578125 225.332031 432.0625 C 225.667969 432.546875 225.835938 433.144531 225.835938 433.867188 C 225.835938 434.570312 225.628906 435.230469 225.21875 435.855469 C 224.808594 436.472656 224.214844 436.953125 223.445312 437.292969 C 222.671875 437.632812 221.796875 437.800781 220.820312 437.800781 C 219.199219 437.800781 217.96875 437.464844 217.121094 436.792969 C 216.273438 436.121094 215.730469 435.125 215.5 433.804688 "/>
<path fill-rule="nonzero" fill="rgb(13.729858%, 12.159729%, 12.548828%)" fill-opacity="1" d="M 226.761719 437.8125 L 231.738281 420.050781 L 233.429688 420.050781 L 228.460938 437.8125 L 226.761719 437.8125 "/>
<path fill-rule="nonzero" fill="rgb(13.729858%, 12.159729%, 12.548828%)" fill-opacity="1" d="M 245.511719 435.492188 L 245.511719 437.519531 L 234.15625 437.519531 C 234.140625 437.015625 234.21875 436.523438 234.398438 436.058594 C 234.6875 435.28125 235.152344 434.519531 235.789062 433.769531 C 236.429688 433.019531 237.347656 432.152344 238.546875 431.167969 C 240.414062 429.636719 241.679688 428.425781 242.335938 427.53125 C 242.992188 426.636719 243.320312 425.789062 243.320312 424.992188 C 243.320312 424.15625 243.019531 423.453125 242.425781 422.878906 C 241.824219 422.304688 241.042969 422.019531 240.085938 422.019531 C 239.066406 422.019531 238.257812 422.320312 237.648438 422.933594 C 237.035156 423.542969 236.726562 424.386719 236.71875 425.460938 L 234.550781 425.242188 C 234.699219 423.621094 235.261719 422.390625 236.226562 421.542969 C 237.195312 420.695312 238.5 420.269531 240.132812 420.269531 C 241.78125 420.269531 243.085938 420.730469 244.042969 421.640625 C 245.007812 422.558594 245.488281 423.691406 245.488281 425.042969 C 245.488281 425.730469 245.347656 426.40625 245.0625 427.070312 C 244.785156 427.734375 244.316406 428.433594 243.664062 429.164062 C 243.011719 429.902344 241.929688 430.910156 240.410156 432.1875 C 239.148438 433.253906 238.335938 433.972656 237.976562 434.355469 C 237.617188 434.730469 237.320312 435.109375 237.085938 435.492188 L 245.511719 435.492188 "/>
<path fill-rule="nonzero" fill="rgb(13.729858%, 12.159729%, 12.548828%)" fill-opacity="1" d="M 401.636719 437.535156 L 401.636719 420.351562 L 413.230469 420.351562 L 413.230469 422.382812 L 403.914062 422.382812 L 403.914062 427.703125 L 411.972656 427.703125 L 411.972656 429.730469 L 403.914062 429.730469 L 403.914062 437.535156 L 401.636719 437.535156 "/>
<path fill-rule="nonzero" fill="rgb(13.729858%, 12.159729%, 12.548828%)" fill-opacity="1" d="M 415.070312 433.816406 L 417.152344 433.488281 C 417.269531 434.324219 417.597656 434.964844 418.132812 435.414062 C 418.664062 435.855469 419.414062 436.082031 420.378906 436.082031 C 421.34375 436.082031 422.066406 435.882812 422.53125 435.488281 C 423 435.09375 423.238281 434.628906 423.238281 434.101562 C 423.238281 433.621094 423.027344 433.25 422.613281 432.972656 C 422.324219 432.785156 421.605469 432.550781 420.457031 432.261719 C 418.914062 431.871094 417.835938 431.53125 417.242188 431.246094 C 416.644531 430.960938 416.1875 430.566406 415.882812 430.0625 C 415.574219 429.558594 415.417969 429 415.417969 428.394531 C 415.417969 427.835938 415.546875 427.324219 415.800781 426.851562 C 416.054688 426.378906 416.402344 425.984375 416.835938 425.671875 C 417.164062 425.433594 417.613281 425.226562 418.175781 425.058594 C 418.746094 424.890625 419.351562 424.804688 420 424.804688 C 420.976562 424.804688 421.832031 424.949219 422.574219 425.230469 C 423.3125 425.507812 423.855469 425.890625 424.210938 426.371094 C 424.5625 426.851562 424.800781 427.492188 424.933594 428.296875 L 422.871094 428.582031 C 422.777344 427.941406 422.503906 427.441406 422.058594 427.082031 C 421.609375 426.722656 420.972656 426.542969 420.152344 426.542969 C 419.183594 426.542969 418.492188 426.703125 418.082031 427.023438 C 417.664062 427.339844 417.457031 427.71875 417.457031 428.144531 C 417.457031 428.421875 417.546875 428.664062 417.71875 428.886719 C 417.890625 429.113281 418.15625 429.296875 418.523438 429.449219 C 418.738281 429.523438 419.355469 429.707031 420.390625 429.984375 C 421.882812 430.386719 422.921875 430.710938 423.507812 430.964844 C 424.101562 431.21875 424.566406 431.589844 424.902344 432.074219 C 425.238281 432.558594 425.40625 433.15625 425.40625 433.878906 C 425.40625 434.582031 425.195312 435.242188 424.789062 435.867188 C 424.378906 436.484375 423.785156 436.964844 423.011719 437.304688 C 422.242188 437.644531 421.363281 437.8125 420.390625 437.8125 C 418.769531 437.8125 417.535156 437.476562 416.6875 436.804688 C 415.839844 436.132812 415.300781 435.136719 415.070312 433.816406 "/>
<path fill-rule="nonzero" fill="rgb(13.729858%, 12.159729%, 12.548828%)" fill-opacity="1" d="M 568.117188 437.519531 L 568.117188 420.34375 L 579.707031 420.34375 L 579.707031 422.371094 L 570.390625 422.371094 L 570.390625 427.691406 L 578.453125 427.691406 L 578.453125 429.71875 L 570.390625 429.71875 L 570.390625 437.519531 L 568.117188 437.519531 "/>
<path fill-rule="nonzero" fill="rgb(13.729858%, 12.159729%, 12.548828%)" fill-opacity="1" d="M 581.546875 433.804688 L 583.632812 433.476562 C 583.746094 434.3125 584.074219 434.953125 584.613281 435.402344 C 585.144531 435.84375 585.890625 436.070312 586.855469 436.070312 C 587.824219 436.070312 588.542969 435.871094 589.011719 435.476562 C 589.480469 435.082031 589.714844 434.617188 589.714844 434.089844 C 589.714844 433.609375 589.507812 433.238281 589.089844 432.960938 C 588.804688 432.773438 588.085938 432.539062 586.9375 432.25 C 585.390625 431.859375 584.316406 431.519531 583.71875 431.234375 C 583.121094 430.949219 582.667969 430.554688 582.359375 430.050781 C 582.050781 429.546875 581.894531 428.988281 581.894531 428.382812 C 581.894531 427.824219 582.023438 427.3125 582.28125 426.839844 C 582.53125 426.367188 582.878906 425.972656 583.316406 425.660156 C 583.644531 425.421875 584.089844 425.214844 584.65625 425.046875 C 585.222656 424.878906 585.832031 424.792969 586.480469 424.792969 C 587.453125 424.792969 588.3125 424.9375 589.050781 425.21875 C 589.792969 425.496094 590.335938 425.878906 590.6875 426.355469 C 591.039062 426.839844 591.28125 427.480469 591.410156 428.285156 L 589.351562 428.570312 C 589.253906 427.929688 588.984375 427.429688 588.535156 427.070312 C 588.089844 426.710938 587.453125 426.53125 586.632812 426.53125 C 585.664062 426.53125 584.972656 426.691406 584.558594 427.007812 C 584.144531 427.328125 583.9375 427.707031 583.9375 428.132812 C 583.9375 428.410156 584.023438 428.652344 584.195312 428.875 C 584.367188 429.101562 584.636719 429.285156 585.003906 429.4375 C 585.214844 429.511719 585.835938 429.695312 586.867188 429.972656 C 588.359375 430.375 589.398438 430.699219 589.988281 430.953125 C 590.578125 431.207031 591.042969 431.578125 591.378906 432.0625 C 591.714844 432.546875 591.882812 433.144531 591.882812 433.867188 C 591.882812 434.570312 591.675781 435.230469 591.269531 435.855469 C 590.855469 436.472656 590.265625 436.953125 589.492188 437.292969 C 588.71875 437.632812 587.84375 437.800781 586.867188 437.800781 C 585.246094 437.800781 584.015625 437.464844 583.167969 436.792969 C 582.320312 436.121094 581.78125 435.125 581.546875 433.804688 "/>
<path fill-rule="nonzero" fill="rgb(13.729858%, 12.159729%, 12.548828%)" fill-opacity="1" d="M 598.820312 434.746094 L 598.820312 430.035156 L 594.144531 430.035156 L 594.144531 428.066406 L 598.820312 428.066406 L 598.820312 423.390625 L 600.8125 423.390625 L 600.8125 428.066406 L 605.488281 428.066406 L 605.488281 430.035156 L 600.8125 430.035156 L 600.8125 434.746094 L 598.820312 434.746094 "/>
<path fill-rule="nonzero" fill="rgb(13.729858%, 12.159729%, 12.548828%)" fill-opacity="1" d="M 608.792969 437.519531 L 608.792969 420.34375 L 620.382812 420.34375 L 620.382812 422.371094 L 611.066406 422.371094 L 611.066406 427.691406 L 619.128906 427.691406 L 619.128906 429.71875 L 611.066406 429.71875 L 611.066406 437.519531 L 608.792969 437.519531 "/>
<path fill-rule="nonzero" fill="rgb(13.729858%, 12.159729%, 12.548828%)" fill-opacity="1" d="M 622.222656 433.804688 L 624.308594 433.476562 C 624.425781 434.3125 624.753906 434.953125 625.289062 435.402344 C 625.820312 435.84375 626.566406 436.070312 627.53125 436.070312 C 628.5 436.070312 629.21875 435.871094 629.6875 435.476562 C 630.15625 435.082031 630.390625 434.617188 630.390625 434.089844 C 630.390625 433.609375 630.183594 433.238281 629.769531 432.960938 C 629.480469 432.773438 628.761719 432.539062 627.613281 432.25 C 626.066406 431.859375 624.992188 431.519531 624.394531 431.234375 C 623.800781 430.949219 623.34375 430.554688 623.035156 430.050781 C 622.726562 429.546875 622.570312 428.988281 622.570312 428.382812 C 622.570312 427.824219 622.699219 427.3125 622.957031 426.839844 C 623.207031 426.367188 623.554688 425.972656 623.992188 425.660156 C 624.320312 425.421875 624.769531 425.214844 625.332031 425.046875 C 625.898438 424.878906 626.507812 424.792969 627.15625 424.792969 C 628.132812 424.792969 628.988281 424.9375 629.726562 425.21875 C 630.46875 425.496094 631.011719 425.878906 631.363281 426.355469 C 631.714844 426.839844 631.957031 427.480469 632.089844 428.285156 L 630.027344 428.570312 C 629.933594 427.929688 629.660156 427.429688 629.210938 427.070312 C 628.765625 426.710938 628.128906 426.53125 627.308594 426.53125 C 626.339844 426.53125 625.648438 426.691406 625.234375 427.007812 C 624.820312 427.328125 624.613281 427.707031 624.613281 428.132812 C 624.613281 428.410156 624.699219 428.652344 624.871094 428.875 C 625.042969 429.101562 625.3125 429.285156 625.679688 429.4375 C 625.890625 429.511719 626.511719 429.695312 627.542969 429.972656 C 629.035156 430.375 630.074219 430.699219 630.664062 430.953125 C 631.257812 431.207031 631.71875 431.578125 632.054688 432.0625 C 632.390625 432.546875 632.558594 433.144531 632.558594 433.867188 C 632.558594 434.570312 632.351562 435.230469 631.945312 435.855469 C 631.53125 436.472656 630.941406 436.953125 630.167969 437.292969 C 629.394531 437.632812 628.519531 437.800781 627.542969 437.800781 C 625.925781 437.800781 624.691406 437.464844 623.84375 436.792969 C 622.996094 436.121094 622.457031 435.125 622.222656 433.804688 "/>
<path fill-rule="nonzero" fill="rgb(13.729858%, 12.159729%, 12.548828%)" fill-opacity="1" d="M 633.484375 437.8125 L 638.464844 420.050781 L 640.152344 420.050781 L 635.183594 437.8125 L 633.484375 437.8125 "/>
<path fill-rule="nonzero" fill="rgb(13.729858%, 12.159729%, 12.548828%)" fill-opacity="1" d="M 652.234375 435.492188 L 652.234375 437.519531 L 640.878906 437.519531 C 640.863281 437.015625 640.945312 436.523438 641.125 436.058594 C 641.410156 435.28125 641.875 434.519531 642.511719 433.769531 C 643.152344 433.019531 644.070312 432.152344 645.273438 431.167969 C 647.140625 429.636719 648.402344 428.425781 649.058594 427.53125 C 649.714844 426.636719 650.042969 425.789062 650.042969 424.992188 C 650.042969 424.15625 649.742188 423.453125 649.148438 422.878906 C 648.546875 422.304688 647.769531 422.019531 646.808594 422.019531 C 645.792969 422.019531 644.980469 422.320312 644.371094 422.933594 C 643.761719 423.542969 643.453125 424.386719 643.445312 425.460938 L 641.277344 425.242188 C 641.425781 423.621094 641.984375 422.390625 642.953125 421.542969 C 643.921875 420.695312 645.222656 420.269531 646.855469 420.269531 C 648.503906 420.269531 649.808594 420.730469 650.769531 421.640625 C 651.730469 422.558594 652.210938 423.691406 652.210938 425.042969 C 652.210938 425.730469 652.070312 426.40625 651.789062 427.070312 C 651.507812 427.734375 651.039062 428.433594 650.386719 429.164062 C 649.734375 429.902344 648.652344 430.910156 647.136719 432.1875 C 645.871094 433.253906 645.058594 433.972656 644.699219 434.355469 C 644.339844 434.730469 644.042969 435.109375 643.808594 435.492188 L 652.234375 435.492188 "/>
<path fill="none" stroke-width="39.9997" stroke-linecap="butt" stroke-linejoin="miter" stroke="rgb(13.729858%, 12.159729%, 12.548828%)" stroke-opacity="1" stroke-miterlimit="22.9256" d="M 198.90625 2309.765625 L 496.796875 2309.765625 " transform="matrix(0.1, 0, 0, -0.1, 0, 438)"/>
<path fill-rule="nonzero" fill="rgb(13.729858%, 12.159729%, 12.548828%)" fill-opacity="1" d="M 64.078125 207.484375 C 64.078125 205.453125 64.285156 203.816406 64.707031 202.582031 C 65.121094 201.34375 65.746094 200.386719 66.570312 199.714844 C 67.394531 199.042969 68.429688 198.707031 69.679688 198.707031 C 70.601562 198.707031 71.410156 198.894531 72.105469 199.265625 C 72.800781 199.632812 73.375 200.171875 73.832031 200.871094 C 74.28125 201.570312 74.636719 202.421875 74.894531 203.425781 C 75.15625 204.429688 75.28125 205.78125 75.28125 207.484375 C 75.28125 209.503906 75.074219 211.125 74.660156 212.367188 C 74.246094 213.605469 73.625 214.5625 72.800781 215.238281 C 71.976562 215.914062 70.9375 216.25 69.679688 216.25 C 68.023438 216.25 66.722656 215.65625 65.777344 214.46875 C 64.644531 213.042969 64.078125 210.710938 64.078125 207.484375 Z M 66.246094 207.484375 C 66.246094 210.304688 66.578125 212.183594 67.238281 213.117188 C 67.898438 214.050781 68.710938 214.519531 69.679688 214.519531 C 70.648438 214.519531 71.460938 214.046875 72.121094 213.109375 C 72.78125 212.175781 73.113281 210.296875 73.113281 207.484375 C 73.113281 204.65625 72.78125 202.777344 72.121094 201.851562 C 71.460938 200.917969 70.640625 200.453125 69.65625 200.453125 C 68.6875 200.453125 67.914062 200.867188 67.335938 201.6875 C 66.609375 202.730469 66.246094 204.664062 66.246094 207.484375 "/>
<path fill-rule="nonzero" fill="rgb(13.729858%, 12.159729%, 12.548828%)" fill-opacity="1" d="M 78.609375 215.957031 L 78.609375 213.554688 L 81.015625 213.554688 L 81.015625 215.957031 L 78.609375 215.957031 "/>
<path fill-rule="nonzero" fill="rgb(13.729858%, 12.159729%, 12.548828%)" fill-opacity="1" d="M 84.09375 211.457031 L 86.308594 211.269531 C 86.472656 212.351562 86.855469 213.15625 87.449219 213.703125 C 88.050781 214.246094 88.769531 214.519531 89.613281 214.519531 C 90.628906 214.519531 91.488281 214.132812 92.191406 213.371094 C 92.894531 212.601562 93.246094 211.585938 93.246094 210.320312 C 93.246094 209.117188 92.910156 208.171875 92.234375 207.472656 C 91.558594 206.777344 90.675781 206.429688 89.578125 206.429688 C 88.898438 206.429688 88.285156 206.585938 87.738281 206.894531 C 87.191406 207.203125 86.761719 207.601562 86.449219 208.09375 L 84.46875 207.839844 L 86.132812 199.015625 L 94.679688 199.015625 L 94.679688 201.03125 L 87.824219 201.03125 L 86.894531 205.644531 C 87.925781 204.925781 89.011719 204.566406 90.140625 204.566406 C 91.640625 204.566406 92.90625 205.085938 93.9375 206.125 C 94.96875 207.164062 95.484375 208.503906 95.484375 210.132812 C 95.484375 211.691406 95.03125 213.035156 94.125 214.164062 C 93.023438 215.554688 91.519531 216.25 89.613281 216.25 C 88.050781 216.25 86.773438 215.8125 85.785156 214.9375 C 84.796875 214.0625 84.234375 212.902344 84.09375 211.457031 "/>
<path fill="none" stroke-width="19.9984" stroke-linecap="butt" stroke-linejoin="miter" stroke="rgb(13.729858%, 12.159729%, 12.548828%)" stroke-opacity="1" stroke-dasharray="19.9984 19.9984" stroke-miterlimit="22.9256" d="M 1628.671875 418.320312 L 1628.671875 1660.703125 L 332.851562 1660.703125 " transform="matrix(0.1, 0, 0, -0.1, 0, 438)"/>
<path fill="none" stroke-width="19.9984" stroke-linecap="butt" stroke-linejoin="miter" stroke="rgb(13.729858%, 12.159729%, 12.548828%)" stroke-opacity="1" stroke-dasharray="19.9984 19.9984" stroke-miterlimit="22.9256" d="M 4726.445312 403.4375 L 4726.445312 984.257812 L 347.851562 984.257812 " transform="matrix(0.1, 0, 0, -0.1, 0, 438)"/>
<path fill="none" stroke-width="19.9984" stroke-linecap="butt" stroke-linejoin="miter" stroke="rgb(13.729858%, 12.159729%, 12.548828%)" stroke-opacity="1" stroke-dasharray="19.9984 19.9984" stroke-miterlimit="22.9256" d="M 5039.21875 403.4375 L 5039.21875 1312.03125 L 341.015625 1312.03125 " transform="matrix(0.1, 0, 0, -0.1, 0, 438)"/>
<path fill-rule="nonzero" fill="rgb(13.729858%, 12.159729%, 12.548828%)" fill-opacity="1" d="M 489.988281 410.261719 L 488.078125 410.261719 C 488.066406 409.660156 487.902344 409.167969 487.585938 408.789062 C 487.273438 408.410156 486.851562 408.160156 486.316406 408.03125 C 485.78125 407.90625 484.863281 407.839844 483.558594 407.835938 C 482.25 407.828125 481.394531 407.804688 480.980469 407.765625 C 480.3125 407.691406 479.785156 407.5625 479.390625 407.371094 C 478.996094 407.179688 478.679688 406.945312 478.441406 406.664062 C 478.203125 406.378906 478.023438 406.019531 477.898438 405.582031 C 477.8125 405.289062 477.765625 404.804688 477.765625 404.132812 L 477.765625 403.476562 L 479.605469 403.476562 L 479.605469 403.839844 C 479.605469 404.652344 479.753906 405.1875 480.046875 405.457031 C 480.339844 405.71875 480.996094 405.851562 482.023438 405.851562 C 483.972656 405.851562 485.214844 405.886719 485.738281 405.960938 C 486.601562 406.082031 487.296875 406.335938 487.816406 406.707031 C 488.335938 407.082031 488.738281 407.617188 489.03125 408.304688 C 489.460938 407.402344 490.027344 406.773438 490.734375 406.402344 C 491.441406 406.035156 492.632812 405.851562 494.3125 405.851562 C 495.839844 405.851562 496.746094 405.835938 497.046875 405.796875 C 497.570312 405.738281 497.933594 405.585938 498.144531 405.332031 C 498.347656 405.078125 498.449219 404.578125 498.449219 403.839844 L 498.449219 403.476562 L 500.289062 403.476562 L 500.289062 404.132812 C 500.289062 404.894531 500.230469 405.453125 500.101562 405.796875 C 499.929688 406.296875 499.644531 406.707031 499.238281 407.035156 C 498.828125 407.363281 498.316406 407.578125 497.703125 407.675781 C 497.082031 407.773438 496.070312 407.828125 494.664062 407.835938 C 493.257812 407.839844 492.289062 407.90625 491.753906 408.03125 C 491.21875 408.160156 490.796875 408.410156 490.480469 408.789062 C 490.171875 409.167969 490.007812 409.660156 489.988281 410.261719 "/>
<path fill-rule="nonzero" fill="rgb(13.729858%, 12.159729%, 12.548828%)" fill-opacity="1" d="M 20.074219 323.277344 L 20.074219 321.367188 C 20.675781 321.355469 21.167969 321.191406 21.546875 320.875 C 21.921875 320.5625 22.175781 320.140625 22.304688 319.605469 C 22.425781 319.070312 22.496094 318.152344 22.5 316.847656 C 22.507812 315.539062 22.53125 314.683594 22.570312 314.265625 C 22.644531 313.601562 22.769531 313.074219 22.964844 312.679688 C 23.15625 312.28125 23.390625 311.964844 23.671875 311.730469 C 23.957031 311.492188 24.316406 311.3125 24.75 311.1875 C 25.046875 311.097656 25.53125 311.054688 26.203125 311.054688 L 26.859375 311.054688 L 26.859375 312.894531 L 26.496094 312.894531 C 25.683594 312.894531 25.148438 313.042969 24.878906 313.335938 C 24.613281 313.628906 24.484375 314.285156 24.484375 315.3125 C 24.484375 317.261719 24.449219 318.503906 24.375 319.023438 C 24.25 319.890625 24 320.585938 23.628906 321.105469 C 23.25 321.621094 22.71875 322.027344 22.03125 322.320312 C 22.929688 322.746094 23.5625 323.3125 23.929688 324.023438 C 24.300781 324.730469 24.484375 325.921875 24.484375 327.601562 C 24.484375 329.128906 24.5 330.035156 24.539062 330.335938 C 24.59375 330.859375 24.746094 331.222656 25.003906 331.429688 C 25.253906 331.636719 25.753906 331.738281 26.496094 331.738281 L 26.859375 331.738281 L 26.859375 333.578125 L 26.203125 333.578125 C 25.4375 333.578125 24.882812 333.519531 24.539062 333.390625 C 24.039062 333.21875 23.628906 332.929688 23.300781 332.523438 C 22.972656 332.117188 22.753906 331.605469 22.660156 330.992188 C 22.5625 330.371094 22.507812 329.359375 22.5 327.953125 C 22.496094 326.546875 22.425781 325.578125 22.304688 325.042969 C 22.175781 324.507812 21.921875 324.082031 21.546875 323.769531 C 21.167969 323.460938 20.675781 323.296875 20.074219 323.277344 "/>
<path fill-rule="nonzero" fill="rgb(13.729858%, 12.159729%, 12.548828%)" fill-opacity="1" d="M 2.285156 331.382812 L 2.285156 314.199219 L 8.734375 314.199219 C 10.046875 314.199219 11.097656 314.378906 11.890625 314.722656 C 12.6875 315.070312 13.304688 315.605469 13.753906 316.328125 C 14.203125 317.050781 14.429688 317.804688 14.429688 318.597656 C 14.429688 319.328125 14.230469 320.019531 13.832031 320.667969 C 13.433594 321.316406 12.832031 321.839844 12.027344 322.242188 C 13.066406 322.546875 13.863281 323.066406 14.421875 323.796875 C 14.984375 324.53125 15.261719 325.402344 15.261719 326.402344 C 15.261719 327.203125 15.089844 327.953125 14.75 328.644531 C 14.410156 329.335938 13.992188 329.867188 13.492188 330.246094 C 12.992188 330.621094 12.363281 330.902344 11.609375 331.09375 C 10.859375 331.285156 9.933594 331.382812 8.839844 331.382812 Z M 4.5625 321.421875 L 8.277344 321.421875 C 9.28125 321.421875 10.007812 321.351562 10.445312 321.222656 C 11.023438 321.050781 11.457031 320.765625 11.75 320.363281 C 12.042969 319.964844 12.191406 319.464844 12.191406 318.863281 C 12.191406 318.296875 12.054688 317.792969 11.78125 317.359375 C 11.507812 316.925781 11.113281 316.628906 10.609375 316.46875 C 10.101562 316.308594 9.230469 316.230469 7.996094 316.230469 L 4.5625 316.230469 Z M 4.5625 329.351562 L 8.839844 329.351562 C 9.574219 329.351562 10.089844 329.324219 10.386719 329.273438 C 10.910156 329.175781 11.347656 329.019531 11.699219 328.800781 C 12.050781 328.585938 12.339844 328.265625 12.566406 327.847656 C 12.789062 327.429688 12.90625 326.949219 12.90625 326.402344 C 12.90625 325.761719 12.742188 325.203125 12.414062 324.730469 C 12.085938 324.257812 11.628906 323.925781 11.046875 323.734375 C 10.464844 323.546875 9.625 323.449219 8.535156 323.449219 L 4.5625 323.449219 L 4.5625 329.351562 "/>
<path fill-rule="nonzero" fill="rgb(13.729858%, 12.159729%, 12.548828%)" fill-opacity="1" d="M 482.59375 431.910156 L 482.59375 414.730469 L 489.039062 414.730469 C 490.351562 414.730469 491.40625 414.90625 492.195312 415.25 C 492.992188 415.597656 493.613281 416.132812 494.0625 416.859375 C 494.507812 417.578125 494.738281 418.335938 494.738281 419.125 C 494.738281 419.859375 494.539062 420.550781 494.136719 421.199219 C 493.742188 421.847656 493.136719 422.371094 492.332031 422.769531 C 493.371094 423.074219 494.171875 423.59375 494.730469 424.328125 C 495.289062 425.0625 495.570312 425.929688 495.570312 426.929688 C 495.570312 427.734375 495.398438 428.480469 495.058594 429.175781 C 494.71875 429.867188 494.296875 430.398438 493.796875 430.773438 C 493.296875 431.148438 492.667969 431.429688 491.917969 431.621094 C 491.164062 431.8125 490.242188 431.910156 489.144531 431.910156 Z M 484.867188 421.949219 L 488.585938 421.949219 C 489.589844 421.949219 490.3125 421.882812 490.753906 421.75 C 491.328125 421.578125 491.765625 421.292969 492.058594 420.894531 C 492.347656 420.492188 492.496094 419.992188 492.496094 419.394531 C 492.496094 418.824219 492.359375 418.320312 492.089844 417.890625 C 491.8125 417.453125 491.421875 417.15625 490.917969 416.996094 C 490.410156 416.839844 489.539062 416.757812 488.300781 416.757812 L 484.867188 416.757812 Z M 484.867188 429.882812 L 489.144531 429.882812 C 489.882812 429.882812 490.398438 429.855469 490.691406 429.800781 C 491.21875 429.707031 491.652344 429.550781 492.003906 429.332031 C 492.355469 429.113281 492.644531 428.792969 492.871094 428.378906 C 493.097656 427.957031 493.214844 427.476562 493.214844 426.929688 C 493.214844 426.289062 493.050781 425.734375 492.722656 425.257812 C 492.394531 424.785156 491.9375 424.453125 491.351562 424.261719 C 490.773438 424.074219 489.933594 423.976562 488.839844 423.976562 L 484.867188 423.976562 L 484.867188 429.882812 "/>
<path fill-rule="nonzero" fill="rgb(13.729858%, 12.159729%, 12.548828%)" fill-opacity="1" d="M 13.898438 280.742188 L 20.5 263.5625 L 22.945312 263.5625 L 29.976562 280.742188 L 27.386719 280.742188 L 25.382812 275.539062 L 18.199219 275.539062 L 16.316406 280.742188 Z M 18.855469 273.6875 L 24.683594 273.6875 L 22.886719 268.933594 C 22.34375 267.488281 21.933594 266.300781 21.671875 265.367188 C 21.449219 266.472656 21.144531 267.5625 20.742188 268.652344 L 18.855469 273.6875 "/>
<path fill-rule="nonzero" fill="rgb(13.729858%, 12.159729%, 12.548828%)" fill-opacity="1" d="M 157.003906 422.101562 L 163.601562 404.921875 L 166.050781 404.921875 L 173.082031 422.101562 L 170.488281 422.101562 L 168.484375 416.898438 L 161.300781 416.898438 L 159.417969 422.101562 Z M 161.957031 415.046875 L 167.785156 415.046875 L 165.988281 410.289062 C 165.445312 408.84375 165.039062 407.65625 164.773438 406.726562 C 164.554688 407.828125 164.246094 408.921875 163.847656 410.007812 L 161.957031 415.046875 "/>
</svg>
