<?xml version="1.0" encoding="UTF-8"?>
<svg xmlns="http://www.w3.org/2000/svg" xmlns:xlink="http://www.w3.org/1999/xlink" width="541" height="303" viewBox="0 0 541 303">
<path fill="none" stroke-width="19.9984" stroke-linecap="butt" stroke-linejoin="miter" stroke="rgb(13.729858%, 12.159729%, 12.548828%)" stroke-opacity="1" stroke-miterlimit="22.9256" d="M 600.46875 2939.960938 L 600.46875 297.226562 L 5319.6875 297.226562 " transform="matrix(0.1, 0, 0, -0.1, 0, 303)"/>
<path fill-rule="evenodd" fill="rgb(13.729858%, 12.159729%, 12.548828%)" fill-opacity="1" d="M 65.273438 9.828125 L 60.046875 0.320312 L 54.816406 9.828125 Z M 65.273438 9.828125 "/>
<path fill-rule="evenodd" fill="rgb(13.729858%, 12.159729%, 12.548828%)" fill-opacity="1" d="M 531.144531 268.050781 L 540.648438 273.277344 L 531.144531 278.507812 Z M 531.144531 268.050781 "/>
<path fill="none" stroke-width="19.9984" stroke-linecap="butt" stroke-linejoin="miter" stroke="rgb(13.729858%, 12.159729%, 12.548828%)" stroke-opacity="1" stroke-dasharray="19.9984 19.9984" stroke-miterlimit="22.9256" d="M 422.460938 2136.835938 L 4421.40625 2136.835938 " transform="matrix(0.1, 0, 0, -0.1, 0, 303)"/>
<path fill="none" stroke-width="19.9984" stroke-linecap="butt" stroke-linejoin="miter" stroke="rgb(13.729858%, 12.159729%, 12.548828%)" stroke-opacity="1" stroke-dasharray="19.9984 19.9984" stroke-miterlimit="22.9256" d="M 440.195312 1662.226562 L 4433.125 1662.226562 " transform="matrix(0.1, 0, 0, -0.1, 0, 303)"/>
<path fill="none" stroke-width="19.9984" stroke-linecap="butt" stroke-linejoin="miter" stroke="rgb(13.729858%, 12.159729%, 12.548828%)" stroke-opacity="1" stroke-dasharray="19.9984 19.9984" stroke-miterlimit="22.9256" d="M 445.898438 1187.578125 L 4444.804688 1187.578125 " transform="matrix(0.1, 0, 0, -0.1, 0, 303)"/>
<path fill-rule="nonzero" fill="rgb(13.729858%, 12.159729%, 12.548828%)" fill-opacity="1" d="M 14.925781 120.027344 L 0.859375 120.027344 L 8.222656 103.777344 Z M 12.15625 119.070312 L 7.480469 107.738281 L 2.324219 119.070312 L 12.15625 119.070312 "/>
<path fill-rule="nonzero" fill="rgb(13.729858%, 12.159729%, 12.548828%)" fill-opacity="1" d="M 21.921875 103.363281 L 16.164062 120.355469 L 15.230469 120.355469 L 20.984375 103.363281 L 21.921875 103.363281 "/>
<path fill-rule="nonzero" fill="rgb(13.729858%, 12.159729%, 12.548828%)" fill-opacity="1" d="M 32.914062 116.96875 L 31.800781 120.027344 L 22.425781 120.027344 L 22.425781 119.535156 C 25.652344 116.621094 27.808594 114.253906 28.894531 112.425781 C 29.589844 111.253906 29.9375 110.128906 29.9375 109.0625 C 29.9375 108.054688 29.628906 107.226562 29.007812 106.578125 C 28.394531 105.929688 27.65625 105.605469 26.796875 105.605469 C 26.011719 105.605469 25.3125 105.832031 24.691406 106.289062 C 24.074219 106.746094 23.613281 107.417969 23.316406 108.296875 L 22.882812 108.296875 C 23.078125 106.851562 23.582031 105.746094 24.394531 104.96875 C 25.207031 104.195312 26.214844 103.808594 27.417969 103.808594 C 28.707031 103.808594 29.78125 104.226562 30.644531 105.054688 C 31.507812 105.882812 31.941406 106.863281 31.941406 108.003906 C 31.941406 108.800781 31.746094 109.613281 31.351562 110.445312 C 30.777344 111.691406 29.828125 113.03125 28.515625 114.460938 C 26.605469 116.558594 25.40625 117.820312 24.921875 118.261719 L 29.070312 118.261719 C 30.210938 118.261719 30.992188 118.164062 31.417969 117.976562 C 31.84375 117.789062 32.199219 117.453125 32.480469 116.96875 L 32.914062 116.96875 "/>
<path fill-rule="nonzero" fill="rgb(13.729858%, 12.159729%, 12.548828%)" fill-opacity="1" d="M 504.414062 148.851562 L 483.519531 148.851562 L 494.453125 124.707031 Z M 500.300781 147.425781 L 493.355469 130.589844 L 485.695312 147.425781 L 500.300781 147.425781 "/>
<path fill-rule="nonzero" fill="rgb(13.729858%, 12.159729%, 12.548828%)" fill-opacity="1" d="M 14.53125 166.699219 L 0.46875 166.699219 L 7.828125 150.445312 Z M 11.765625 165.738281 L 7.089844 154.40625 L 1.933594 165.738281 L 11.765625 165.738281 "/>
<path fill-rule="nonzero" fill="rgb(13.729858%, 12.159729%, 12.548828%)" fill-opacity="1" d="M 21.53125 150.035156 L 15.773438 167.027344 L 14.835938 167.027344 L 20.59375 150.035156 L 21.53125 150.035156 "/>
<path fill-rule="nonzero" fill="rgb(13.729858%, 12.159729%, 12.548828%)" fill-opacity="1" d="M 32.519531 163.636719 L 31.410156 166.699219 L 22.03125 166.699219 L 22.03125 166.207031 C 25.261719 163.289062 27.417969 160.921875 28.5 159.09375 C 29.195312 157.921875 29.542969 156.796875 29.542969 155.730469 C 29.542969 154.722656 29.238281 153.894531 28.617188 153.246094 C 28 152.597656 27.265625 152.273438 26.40625 152.273438 C 25.621094 152.273438 24.921875 152.503906 24.300781 152.957031 C 23.679688 153.414062 23.222656 154.085938 22.925781 154.964844 L 22.488281 154.964844 C 22.683594 153.523438 23.1875 152.414062 24 151.636719 C 24.8125 150.867188 25.820312 150.476562 27.023438 150.476562 C 28.3125 150.476562 29.390625 150.894531 30.253906 151.722656 C 31.117188 152.550781 31.550781 153.535156 31.550781 154.675781 C 31.550781 155.46875 31.351562 156.28125 30.960938 157.113281 C 30.386719 158.363281 29.4375 159.703125 28.125 161.128906 C 26.214844 163.226562 25.011719 164.488281 24.53125 164.929688 L 28.675781 164.929688 C 29.816406 164.929688 30.601562 164.835938 31.023438 164.644531 C 31.453125 164.457031 31.804688 164.121094 32.089844 163.636719 L 32.519531 163.636719 "/>
<path fill-rule="nonzero" fill="rgb(13.729858%, 12.159729%, 12.548828%)" fill-opacity="1" d="M 41.5625 111.492188 C 42.160156 111.476562 42.652344 111.316406 43.035156 111.003906 C 43.410156 110.695312 43.660156 110.273438 43.789062 109.738281 C 43.914062 109.195312 43.976562 108.273438 43.984375 106.96875 C 43.992188 105.664062 44.019531 104.804688 44.058594 104.394531 C 44.128906 103.734375 44.257812 103.207031 44.449219 102.808594 C 44.640625 102.410156 44.878906 102.09375 45.15625 101.851562 C 45.441406 101.617188 45.800781 101.433594 46.238281 101.308594 C 46.535156 101.234375 47.019531 101.191406 47.691406 101.191406 L 48.34375 101.191406 L 48.34375 103.03125 L 47.980469 103.03125 C 47.167969 103.03125 46.632812 103.175781 46.367188 103.472656 C 46.101562 103.765625 45.96875 104.414062 45.96875 105.433594 C 45.96875 107.480469 45.925781 108.773438 45.839844 109.3125 C 45.699219 110.148438 45.457031 110.792969 45.117188 111.246094 C 44.777344 111.699219 44.246094 112.101562 43.519531 112.453125 C 44.378906 112.8125 45.003906 113.359375 45.390625 114.101562 C 45.773438 114.835938 45.96875 116.046875 45.96875 117.730469 C 45.96875 119.246094 45.980469 120.15625 46.015625 120.445312 C 46.078125 120.976562 46.234375 121.347656 46.488281 121.5625 C 46.742188 121.769531 47.242188 121.878906 47.980469 121.878906 L 48.34375 121.878906 L 48.34375 123.714844 L 47.691406 123.714844 C 46.925781 123.714844 46.371094 123.652344 46.027344 123.527344 C 45.527344 123.347656 45.113281 123.058594 44.785156 122.65625 C 44.457031 122.253906 44.242188 121.746094 44.144531 121.125 C 44.050781 120.507812 43.992188 119.496094 43.984375 118.089844 C 43.976562 116.683594 43.914062 115.710938 43.789062 115.171875 C 43.660156 114.632812 43.410156 114.210938 43.035156 113.894531 C 42.652344 113.578125 42.160156 113.414062 41.5625 113.40625 L 41.5625 111.492188 "/>
<path fill-rule="nonzero" fill="rgb(13.729858%, 12.159729%, 12.548828%)" fill-opacity="1" d="M 41.167969 158.160156 C 41.769531 158.144531 42.261719 157.984375 42.640625 157.671875 C 43.019531 157.367188 43.269531 156.941406 43.398438 156.40625 C 43.523438 155.863281 43.585938 154.941406 43.59375 153.636719 C 43.601562 152.332031 43.625 151.472656 43.664062 151.0625 C 43.738281 150.40625 43.867188 149.878906 44.058594 149.476562 C 44.25 149.082031 44.484375 148.761719 44.765625 148.519531 C 45.050781 148.285156 45.410156 148.101562 45.847656 147.976562 C 46.140625 147.902344 46.625 147.859375 47.296875 147.859375 L 47.953125 147.859375 L 47.953125 149.703125 L 47.589844 149.703125 C 46.777344 149.703125 46.242188 149.84375 45.972656 150.140625 C 45.710938 150.433594 45.578125 151.085938 45.578125 152.101562 C 45.578125 154.148438 45.535156 155.441406 45.445312 155.980469 C 45.304688 156.816406 45.066406 157.460938 44.726562 157.914062 C 44.386719 158.367188 43.855469 158.769531 43.125 159.121094 C 43.984375 159.480469 44.609375 160.027344 44.996094 160.769531 C 45.382812 161.503906 45.578125 162.71875 45.578125 164.398438 C 45.578125 165.917969 45.589844 166.824219 45.621094 167.113281 C 45.6875 167.644531 45.84375 168.019531 46.097656 168.230469 C 46.351562 168.4375 46.847656 168.546875 47.589844 168.546875 L 47.953125 168.546875 L 47.953125 170.386719 L 47.296875 170.386719 C 46.535156 170.386719 45.976562 170.320312 45.632812 170.195312 C 45.132812 170.015625 44.722656 169.726562 44.394531 169.324219 C 44.066406 168.921875 43.851562 168.414062 43.753906 167.792969 C 43.65625 167.175781 43.601562 166.164062 43.59375 164.757812 C 43.585938 163.355469 43.523438 162.382812 43.398438 161.839844 C 43.269531 161.300781 43.019531 160.878906 42.640625 160.566406 C 42.261719 160.25 41.769531 160.085938 41.167969 160.074219 L 41.167969 158.160156 "/>
<path fill-rule="nonzero" fill="rgb(13.729858%, 12.159729%, 12.548828%)" fill-opacity="1" d="M 271.578125 27.019531 L 276.125 20.550781 L 271.917969 14.578125 L 274.554688 14.578125 L 276.464844 17.492188 C 276.820312 18.046875 277.113281 18.511719 277.328125 18.886719 C 277.671875 18.371094 277.988281 17.914062 278.28125 17.515625 L 280.378906 14.578125 L 282.894531 14.578125 L 278.597656 20.4375 L 283.226562 27.019531 L 280.636719 27.019531 L 278.082031 23.152344 L 277.402344 22.109375 L 274.132812 27.019531 L 271.578125 27.019531 "/>
<path fill-rule="nonzero" fill="rgb(13.729858%, 12.159729%, 12.548828%)" fill-opacity="1" d="M 295.679688 32.070312 C 294.515625 30.605469 293.53125 28.882812 292.730469 26.914062 C 291.925781 24.945312 291.519531 22.910156 291.519531 20.796875 C 291.519531 18.9375 291.820312 17.15625 292.425781 15.453125 C 293.128906 13.476562 294.214844 11.507812 295.679688 9.546875 L 297.191406 9.546875 C 296.25 11.171875 295.625 12.332031 295.320312 13.027344 C 294.839844 14.105469 294.46875 15.230469 294.191406 16.402344 C 293.855469 17.863281 293.6875 19.332031 293.6875 20.808594 C 293.6875 24.566406 294.855469 28.320312 297.191406 32.070312 L 295.679688 32.070312 "/>
<path fill-rule="nonzero" fill="rgb(13.729858%, 12.159729%, 12.548828%)" fill-opacity="1" d="M 299.644531 27.019531 L 299.644531 14.578125 L 301.539062 14.578125 L 301.539062 16.34375 C 302.457031 14.976562 303.777344 14.292969 305.5 14.292969 C 306.253906 14.292969 306.941406 14.429688 307.570312 14.695312 C 308.199219 14.96875 308.667969 15.320312 308.980469 15.761719 C 309.296875 16.195312 309.511719 16.714844 309.640625 17.316406 C 309.71875 17.707031 309.757812 18.390625 309.757812 19.367188 L 309.757812 27.019531 L 307.644531 27.019531 L 307.644531 19.449219 C 307.644531 18.59375 307.566406 17.949219 307.402344 17.519531 C 307.238281 17.097656 306.945312 16.757812 306.527344 16.503906 C 306.109375 16.246094 305.621094 16.121094 305.058594 16.121094 C 304.15625 16.121094 303.386719 16.410156 302.730469 16.976562 C 302.078125 17.546875 301.753906 18.628906 301.753906 20.222656 L 301.753906 27.019531 L 299.644531 27.019531 "/>
<path fill-rule="nonzero" fill="rgb(13.729858%, 12.159729%, 12.548828%)" fill-opacity="1" d="M 314.371094 32.070312 L 312.859375 32.070312 C 315.195312 28.320312 316.363281 24.566406 316.363281 20.808594 C 316.363281 19.339844 316.195312 17.882812 315.859375 16.4375 C 315.597656 15.269531 315.226562 14.140625 314.75 13.0625 C 314.445312 12.359375 313.816406 11.1875 312.859375 9.546875 L 314.371094 9.546875 C 315.839844 11.507812 316.929688 13.476562 317.632812 15.453125 C 318.234375 17.15625 318.53125 18.9375 318.53125 20.796875 C 318.53125 22.910156 318.128906 24.945312 317.320312 26.914062 C 316.511719 28.882812 315.527344 30.605469 314.371094 32.070312 "/>
<path fill-rule="nonzero" fill="rgb(13.729858%, 12.159729%, 12.548828%)" fill-opacity="1" d="M 288.777344 37.5625 L 288.777344 33.5 C 288.558594 33.808594 288.253906 34.0625 287.859375 34.265625 C 287.464844 34.46875 287.046875 34.570312 286.605469 34.570312 C 285.621094 34.570312 284.773438 34.179688 284.0625 33.390625 C 283.351562 32.605469 282.996094 31.527344 282.996094 30.15625 C 282.996094 29.324219 283.140625 28.574219 283.429688 27.914062 C 283.71875 27.253906 284.136719 26.753906 284.6875 26.410156 C 285.234375 26.070312 285.839844 25.898438 286.496094 25.898438 C 287.519531 25.898438 288.328125 26.332031 288.917969 27.195312 L 288.917969 26.089844 L 290.183594 26.089844 L 290.183594 37.5625 Z M 284.441406 30.214844 C 284.441406 31.28125 284.664062 32.078125 285.113281 32.613281 C 285.5625 33.148438 286.097656 33.414062 286.722656 33.414062 C 287.320312 33.414062 287.835938 33.160156 288.269531 32.652344 C 288.703125 32.144531 288.917969 31.371094 288.917969 30.335938 C 288.917969 29.230469 288.691406 28.402344 288.234375 27.84375 C 287.777344 27.289062 287.246094 27.007812 286.628906 27.007812 C 286.019531 27.007812 285.503906 27.269531 285.078125 27.785156 C 284.65625 28.304688 284.441406 29.113281 284.441406 30.214844 "/>
<path fill="none" stroke-width="19.9984" stroke-linecap="butt" stroke-linejoin="miter" stroke="rgb(13.729858%, 12.159729%, 12.548828%)" stroke-opacity="1" stroke-miterlimit="22.9256" d="M 3242.109375 2747.578125 L 3294.765625 2702.8125 " transform="matrix(0.1, 0, 0, -0.1, 0, 303)"/>
<path fill-rule="evenodd" fill="rgb(13.729858%, 12.159729%, 12.548828%)" fill-opacity="1" d="M 332.230469 28.214844 L 336.074219 38.328125 L 325.472656 36.160156 Z M 332.230469 28.214844 "/>
<path fill-rule="nonzero" fill="rgb(13.729858%, 12.159729%, 12.548828%)" fill-opacity="1" d="M 388.90625 27.019531 L 393.453125 20.550781 L 389.246094 14.578125 L 391.882812 14.578125 L 393.792969 17.492188 C 394.148438 18.046875 394.441406 18.511719 394.65625 18.886719 C 395 18.371094 395.316406 17.914062 395.609375 17.515625 L 397.703125 14.578125 L 400.226562 14.578125 L 395.925781 20.4375 L 400.554688 27.019531 L 397.964844 27.019531 L 395.410156 23.152344 L 394.730469 22.109375 L 391.460938 27.019531 L 388.90625 27.019531 "/>
<path fill-rule="nonzero" fill="rgb(13.729858%, 12.159729%, 12.548828%)" fill-opacity="1" d="M 406.339844 32.070312 C 405.175781 30.605469 404.191406 28.882812 403.390625 26.914062 C 402.585938 24.945312 402.179688 22.910156 402.179688 20.796875 C 402.179688 18.9375 402.480469 17.15625 403.085938 15.453125 C 403.789062 13.476562 404.871094 11.507812 406.339844 9.546875 L 407.851562 9.546875 C 406.910156 11.171875 406.285156 12.332031 405.980469 13.027344 C 405.5 14.105469 405.128906 15.230469 404.851562 16.402344 C 404.515625 17.863281 404.347656 19.332031 404.347656 20.808594 C 404.347656 24.566406 405.515625 28.320312 407.851562 32.070312 L 406.339844 32.070312 "/>
<path fill-rule="nonzero" fill="rgb(13.729858%, 12.159729%, 12.548828%)" fill-opacity="1" d="M 410.304688 27.019531 L 410.304688 14.578125 L 412.199219 14.578125 L 412.199219 16.34375 C 413.117188 14.976562 414.4375 14.292969 416.160156 14.292969 C 416.914062 14.292969 417.601562 14.429688 418.230469 14.695312 C 418.859375 14.96875 419.328125 15.320312 419.640625 15.761719 C 419.957031 16.195312 420.171875 16.714844 420.300781 17.316406 C 420.378906 17.707031 420.417969 18.390625 420.417969 19.367188 L 420.417969 27.019531 L 418.304688 27.019531 L 418.304688 19.449219 C 418.304688 18.59375 418.226562 17.949219 418.0625 17.519531 C 417.898438 17.097656 417.605469 16.757812 417.1875 16.503906 C 416.769531 16.246094 416.28125 16.121094 415.71875 16.121094 C 414.816406 16.121094 414.046875 16.410156 413.390625 16.976562 C 412.738281 17.546875 412.414062 18.628906 412.414062 20.222656 L 412.414062 27.019531 L 410.304688 27.019531 "/>
<path fill-rule="nonzero" fill="rgb(13.729858%, 12.159729%, 12.548828%)" fill-opacity="1" d="M 425.03125 32.070312 L 423.519531 32.070312 C 425.855469 28.320312 427.023438 24.566406 427.023438 20.808594 C 427.023438 19.339844 426.855469 17.882812 426.519531 16.4375 C 426.257812 15.269531 425.886719 14.140625 425.410156 13.0625 C 425.105469 12.359375 424.476562 11.1875 423.519531 9.546875 L 425.03125 9.546875 C 426.5 11.507812 427.589844 13.476562 428.292969 15.453125 C 428.894531 17.15625 429.191406 18.9375 429.191406 20.796875 C 429.191406 22.910156 428.789062 24.945312 427.980469 26.914062 C 427.171875 28.882812 426.1875 30.605469 425.03125 32.070312 "/>
<path fill="none" stroke-width="19.9984" stroke-linecap="butt" stroke-linejoin="miter" stroke="rgb(13.729858%, 12.159729%, 12.548828%)" stroke-opacity="1" stroke-miterlimit="22.9256" d="M 4047.460938 2676.71875 L 4021.015625 2570.9375 " transform="matrix(0.1, 0, 0, -0.1, 0, 303)"/>
<path fill-rule="evenodd" fill="rgb(13.729858%, 12.159729%, 12.548828%)" fill-opacity="1" d="M 407.367188 46.371094 L 400.003906 54.3125 L 397.238281 43.839844 Z M 407.367188 46.371094 "/>
<path fill="none" stroke-width="19.9984" stroke-linecap="butt" stroke-linejoin="miter" stroke="rgb(13.729858%, 12.159729%, 12.548828%)" stroke-opacity="1" stroke-dasharray="19.9984 19.9984" stroke-miterlimit="22.9256" d="M 1834.492188 2534.414062 L 1834.492188 137.382812 " transform="matrix(0.1, 0, 0, -0.1, 0, 303)"/>
<path fill="none" stroke-width="19.9984" stroke-linecap="butt" stroke-linejoin="miter" stroke="rgb(13.729858%, 12.159729%, 12.548828%)" stroke-opacity="1" stroke-dasharray="19.9984 19.9984" stroke-miterlimit="22.9256" d="M 2647.304688 2534.414062 L 2647.304688 137.382812 " transform="matrix(0.1, 0, 0, -0.1, 0, 303)"/>
<path fill="none" stroke-width="19.9984" stroke-linecap="butt" stroke-linejoin="miter" stroke="rgb(13.729858%, 12.159729%, 12.548828%)" stroke-opacity="1" stroke-dasharray="19.9984 19.9984" stroke-miterlimit="22.9256" d="M 3460.117188 2534.414062 L 3460.117188 137.382812 " transform="matrix(0.1, 0, 0, -0.1, 0, 303)"/>
<path fill="none" stroke-width="19.9984" stroke-linecap="butt" stroke-linejoin="miter" stroke="rgb(13.729858%, 12.159729%, 12.548828%)" stroke-opacity="1" stroke-dasharray="99.992 19.9984" stroke-miterlimit="22.9256" d="M 4462.773438 2516.5625 C 4254.648438 2516.5625 4045.78125 2449.492188 3845.742188 2368.203125 L 1472.578125 979.921875 C 1387.578125 948.359375 1235.898438 843.476562 1152.226562 843.476562 C 1107.65625 843.476562 1056.210938 819.453125 1009.84375 813.789062 C 974.570312 809.492188 918.28125 799.101562 891.171875 790.078125 " transform="matrix(0.1, 0, 0, -0.1, 0, 303)"/>
<path fill-rule="nonzero" fill="rgb(13.729858%, 12.159729%, 12.548828%)" fill-opacity="1" d="M 350.183594 291.417969 L 350.183594 293.140625 L 346.527344 293.140625 C 346.257812 295.714844 346.128906 297.472656 346.128906 298.425781 C 346.128906 299.1875 346.269531 299.734375 346.554688 300.074219 C 346.839844 300.414062 347.199219 300.582031 347.628906 300.582031 C 347.945312 300.582031 348.226562 300.472656 348.460938 300.253906 C 348.695312 300.039062 348.867188 299.664062 348.976562 299.128906 L 349.386719 299.128906 C 349.25 300.410156 348.964844 301.296875 348.53125 301.785156 C 348.089844 302.273438 347.578125 302.519531 346.996094 302.519531 C 346.378906 302.519531 345.863281 302.238281 345.445312 301.679688 C 345.035156 301.121094 344.828125 300.121094 344.828125 298.6875 C 344.828125 297.554688 344.964844 295.707031 345.246094 293.140625 L 344.144531 293.140625 C 343.515625 293.140625 343.019531 293.257812 342.660156 293.484375 C 342.296875 293.71875 341.941406 294.15625 341.589844 294.792969 L 341.160156 294.792969 C 341.722656 293.292969 342.226562 292.359375 342.671875 291.980469 C 343.113281 291.605469 343.746094 291.417969 344.570312 291.417969 L 350.183594 291.417969 "/>
<path fill-rule="nonzero" fill="rgb(13.729858%, 12.159729%, 12.548828%)" fill-opacity="1" d="M 164.226562 295.402344 L 176.535156 295.402344 L 176.535156 296.566406 L 164.226562 296.566406 L 164.226562 295.402344 "/>
<path fill-rule="nonzero" fill="rgb(13.729858%, 12.159729%, 12.548828%)" fill-opacity="1" d="M 186.492188 291.417969 L 186.492188 293.140625 L 182.839844 293.140625 C 182.570312 295.714844 182.4375 297.472656 182.4375 298.425781 C 182.4375 299.1875 182.582031 299.734375 182.867188 300.074219 C 183.148438 300.414062 183.511719 300.582031 183.9375 300.582031 C 184.257812 300.582031 184.539062 300.472656 184.769531 300.253906 C 185.007812 300.039062 185.179688 299.664062 185.285156 299.128906 L 185.699219 299.128906 C 185.5625 300.410156 185.277344 301.296875 184.84375 301.785156 C 184.402344 302.273438 183.890625 302.519531 183.304688 302.519531 C 182.691406 302.519531 182.175781 302.238281 181.757812 301.679688 C 181.347656 301.121094 181.136719 300.121094 181.136719 298.6875 C 181.136719 297.554688 181.277344 295.707031 181.558594 293.140625 L 180.457031 293.140625 C 179.824219 293.140625 179.328125 293.257812 178.96875 293.484375 C 178.609375 293.71875 178.253906 294.15625 177.902344 294.792969 L 177.46875 294.792969 C 178.035156 293.292969 178.539062 292.359375 178.980469 291.980469 C 179.425781 291.605469 180.058594 291.417969 180.882812 291.417969 L 186.492188 291.417969 "/>
<path fill-rule="nonzero" fill="rgb(13.729858%, 12.159729%, 12.548828%)" fill-opacity="1" d="M 262.683594 295.945312 C 262.683594 294.421875 262.839844 293.195312 263.152344 292.265625 C 263.464844 291.335938 263.933594 290.621094 264.550781 290.117188 C 265.171875 289.613281 265.945312 289.359375 266.882812 289.359375 C 267.574219 289.359375 268.183594 289.5 268.703125 289.78125 C 269.226562 290.054688 269.65625 290.457031 269.996094 290.984375 C 270.335938 291.507812 270.601562 292.148438 270.796875 292.898438 C 270.988281 293.652344 271.085938 294.667969 271.085938 295.945312 C 271.085938 297.457031 270.929688 298.675781 270.621094 299.605469 C 270.308594 300.535156 269.84375 301.25 269.226562 301.757812 C 268.609375 302.265625 267.828125 302.519531 266.882812 302.519531 C 265.640625 302.519531 264.664062 302.074219 263.957031 301.183594 C 263.109375 300.113281 262.683594 298.363281 262.683594 295.945312 Z M 264.308594 295.945312 C 264.308594 298.058594 264.558594 299.46875 265.054688 300.167969 C 265.546875 300.867188 266.15625 301.21875 266.882812 301.21875 C 267.613281 301.21875 268.222656 300.863281 268.714844 300.164062 C 269.210938 299.460938 269.460938 298.054688 269.460938 295.945312 C 269.460938 293.824219 269.210938 292.414062 268.714844 291.71875 C 268.222656 291.019531 267.605469 290.671875 266.867188 290.671875 C 266.140625 290.671875 265.558594 290.980469 265.125 291.59375 C 264.582031 292.378906 264.308594 293.828125 264.308594 295.945312 "/>
<path fill-rule="nonzero" fill="rgb(13.729858%, 12.159729%, 12.548828%)" fill-opacity="1" d="M 472.382812 132.230469 L 472.382812 141.269531 C 470.628906 141.328125 469.1875 142.101562 468.074219 143.59375 C 466.976562 145.070312 466.238281 147.074219 465.863281 149.589844 C 465.5 152.121094 465.300781 156.472656 465.289062 162.636719 C 465.265625 168.816406 465.195312 172.863281 465.078125 174.828125 C 464.867188 177.96875 464.492188 180.464844 463.933594 182.335938 C 463.371094 184.207031 462.679688 185.699219 461.859375 186.816406 C 461.027344 187.949219 459.976562 188.800781 458.699219 189.386719 C 457.835938 189.804688 456.417969 190.011719 454.449219 190.011719 L 452.53125 190.011719 L 452.53125 181.316406 L 453.597656 181.316406 C 455.972656 181.316406 457.539062 180.613281 458.324219 179.234375 C 459.097656 177.855469 459.484375 174.734375 459.484375 169.894531 C 459.484375 160.667969 459.589844 154.808594 459.800781 152.328125 C 460.164062 148.246094 460.898438 144.957031 461.988281 142.496094 C 463.089844 140.058594 464.644531 138.148438 466.660156 136.769531 C 464.027344 134.746094 462.175781 132.0625 461.101562 128.714844 C 460.023438 125.367188 459.484375 119.734375 459.484375 111.792969 C 459.484375 104.589844 459.4375 100.296875 459.320312 98.878906 C 459.15625 96.402344 458.710938 94.683594 457.964844 93.699219 C 457.226562 92.734375 455.761719 92.242188 453.597656 92.242188 L 452.53125 92.242188 L 452.53125 83.546875 L 454.449219 83.546875 C 456.6875 83.546875 458.3125 83.828125 459.320312 84.433594 C 460.785156 85.246094 461.988281 86.609375 462.949219 88.519531 C 463.910156 90.449219 464.539062 92.867188 464.820312 95.777344 C 465.101562 98.710938 465.265625 103.492188 465.289062 110.128906 C 465.300781 116.785156 465.5 121.359375 465.863281 123.894531 C 466.238281 126.425781 466.976562 128.433594 468.074219 129.90625 C 469.1875 131.382812 470.628906 132.15625 472.382812 132.230469 "/>
<path fill="none" stroke-width="19.9984" stroke-linecap="butt" stroke-linejoin="miter" stroke="rgb(13.729858%, 12.159729%, 12.548828%)" stroke-opacity="1" stroke-miterlimit="22.9256" d="M 3460.117188 2664.882812 L 3460.117188 1662.226562 L 1834.492188 1662.226562 L 1834.492188 908.710938 " transform="matrix(0.1, 0, 0, -0.1, 0, 303)"/>
<path fill-rule="evenodd" fill="rgb(91.363525%, 91.20636%, 91.246033%)" fill-opacity="1" stroke-width="2.16" stroke-linecap="butt" stroke-linejoin="miter" stroke="rgb(13.729858%, 12.159729%, 12.548828%)" stroke-opacity="1" stroke-miterlimit="22.9256" d="M 1834.492188 1662.226562 L 1834.492188 1187.578125 L 2638.90625 1662.226562 Z M 1834.492188 1662.226562 " transform="matrix(0.1, 0, 0, -0.1, 0, 303)"/>
<path fill-rule="evenodd" fill="rgb(91.363525%, 91.20636%, 91.246033%)" fill-opacity="1" stroke-width="2.16" stroke-linecap="butt" stroke-linejoin="miter" stroke="rgb(13.729858%, 12.159729%, 12.548828%)" stroke-opacity="1" stroke-miterlimit="22.9256" d="M 3460.117188 2142.617188 L 3460.117188 1662.226562 L 2647.304688 1662.226562 Z M 3460.117188 2142.617188 " transform="matrix(0.1, 0, 0, -0.1, 0, 303)"/>
</svg>
