<?xml version="1.0" encoding="UTF-8"?>
<svg xmlns="http://www.w3.org/2000/svg" xmlns:xlink="http://www.w3.org/1999/xlink" width="690" height="346" viewBox="0 0 690 346">
<path fill="none" stroke-width="19.9984" stroke-linecap="butt" stroke-linejoin="miter" stroke="rgb(13.729858%, 12.159729%, 12.548828%)" stroke-opacity="1" stroke-miterlimit="22.9256" d="M 2885.625 2545.859375 L 2885.625 779.179688 L 6809.492188 779.179688 " transform="matrix(0.1, 0, 0, -0.1, 0, 346)"/>
<path fill-rule="evenodd" fill="rgb(13.729858%, 12.159729%, 12.548828%)" fill-opacity="1" d="M 293.789062 92.238281 L 288.5625 82.734375 L 283.335938 92.238281 Z M 293.789062 92.238281 "/>
<path fill-rule="evenodd" fill="rgb(13.729858%, 12.159729%, 12.548828%)" fill-opacity="1" d="M 680.125 262.855469 L 689.628906 268.082031 L 680.125 273.3125 Z M 680.125 262.855469 "/>
<path fill="none" stroke-width="39.9997" stroke-linecap="butt" stroke-linejoin="miter" stroke="rgb(13.729858%, 12.159729%, 12.548828%)" stroke-opacity="1" stroke-miterlimit="10" d="M 2885.625 781.09375 L 2918.125 1149.609375 L 2950.15625 1474.609375 L 2982.65625 1746.601562 L 3014.648438 1957.578125 L 3047.148438 2105.078125 L 3079.140625 2186.601562 L 3111.640625 2205.078125 L 3143.632812 2164.609375 L 3176.132812 2070.585938 L 3208.125 1931.601562 L 3240.625 1756.601562 L 3272.65625 1555.585938 L 3305.15625 1338.59375 L 3337.148438 1116.09375 L 3369.648438 896.601562 L 3401.640625 690.117188 L 3434.140625 503.085938 L 3466.132812 342.109375 L 3498.632812 211.09375 L 3531.132812 113.59375 L 3563.125 50.585938 L 3595.664062 22.617188 L 3627.65625 27.109375 L 3660.15625 62.109375 L 3692.148438 123.59375 L 3724.648438 207.109375 L 3756.640625 307.109375 L 3789.140625 419.101562 L 3821.171875 536.601562 L 3853.632812 655.117188 L 3885.664062 769.609375 L 3918.164062 875.585938 L 3950.15625 969.609375 L 3982.65625 1048.59375 L 4014.648438 1110.625 L 4047.148438 1154.101562 L 4079.140625 1179.609375 L 4111.640625 1186.601562 L 4143.671875 1176.601562 L 4176.171875 1151.09375 L 4208.671875 1113.125 L 4240.664062 1064.101562 L 4273.164062 1007.617188 L 4305.15625 946.09375 L 4337.65625 882.617188 L 4369.6875 820.117188 L 4402.1875 760.625 L 4434.179688 707.109375 L 4466.679688 660.117188 L 4498.671875 622.109375 L 4531.171875 593.59375 L 4563.164062 574.609375 L 4595.664062 565.625 L 4627.695312 565.625 L 4660.195312 575.117188 L 4692.1875 591.601562 L 4724.6875 615.117188 L 4756.679688 643.125 L 4789.179688 674.609375 L 4821.679688 708.125 L 4853.671875 741.601562 L 4886.171875 774.609375 L 4918.164062 805.117188 L 4950.703125 832.109375 L 4982.695312 855.117188 L 5015.195312 873.125 L 5047.1875 886.132812 L 5079.6875 894.101562 L 5111.679688 896.601562 L 5144.179688 894.101562 L 5176.171875 887.109375 L 5208.710938 876.601562 L 5240.703125 863.125 L 5273.203125 847.109375 L 5305.195312 829.609375 L 5337.695312 811.601562 L 5369.6875 794.101562 L 5402.1875 777.109375 L 5434.21875 761.601562 L 5466.71875 747.617188 L 5499.21875 736.640625 L 5531.210938 728.125 L 5563.710938 722.617188 L 5595.703125 719.609375 L 5628.203125 719.609375 L 5660.195312 722.109375 L 5692.695312 726.640625 L 5724.726562 733.125 L 5757.226562 740.625 L 5789.21875 749.609375 L 5821.71875 759.140625 L 5853.710938 768.632812 L 5886.210938 778.125 L 5918.203125 787.109375 L 5950.703125 794.609375 L 5982.695312 801.640625 L 6015.234375 806.640625 L 6047.226562 810.625 L 6079.726562 813.125 " transform="matrix(0.1, 0, 0, -0.1, 0, 346)"/>
<path fill-rule="nonzero" fill="rgb(13.729858%, 12.159729%, 12.548828%)" fill-opacity="1" d="M 688.695312 293.242188 L 689 295.105469 C 688.410156 295.230469 687.878906 295.296875 687.410156 295.296875 C 686.640625 295.296875 686.050781 295.175781 685.625 294.929688 C 685.203125 294.691406 684.910156 294.371094 684.738281 293.976562 C 684.566406 293.582031 684.476562 292.75 684.476562 291.488281 L 684.476562 284.328125 L 682.929688 284.328125 L 682.929688 282.6875 L 684.476562 282.6875 L 684.476562 279.601562 L 686.578125 278.339844 L 686.578125 282.6875 L 688.695312 282.6875 L 688.695312 284.328125 L 686.578125 284.328125 L 686.578125 291.601562 C 686.578125 292.207031 686.613281 292.589844 686.683594 292.765625 C 686.761719 292.933594 686.882812 293.070312 687.050781 293.175781 C 687.21875 293.277344 687.457031 293.328125 687.769531 293.328125 C 688.003906 293.328125 688.3125 293.300781 688.695312 293.242188 "/>
<path fill="none" stroke-width="39.9997" stroke-linecap="butt" stroke-linejoin="miter" stroke="rgb(13.729858%, 12.159729%, 12.548828%)" stroke-opacity="1" stroke-miterlimit="22.9256" d="M 2885.625 781.09375 L 690.46875 781.601562 " transform="matrix(0.1, 0, 0, -0.1, 0, 346)"/>
<path fill-rule="nonzero" fill="rgb(13.729858%, 12.159729%, 12.548828%)" fill-opacity="1" d="M 286 280.726562 C 286 278.695312 286.207031 277.058594 286.628906 275.824219 C 287.042969 274.582031 287.667969 273.625 288.492188 272.953125 C 289.316406 272.28125 290.351562 271.945312 291.601562 271.945312 C 292.523438 271.945312 293.332031 272.136719 294.027344 272.507812 C 294.722656 272.875 295.296875 273.410156 295.753906 274.109375 C 296.203125 274.808594 296.558594 275.664062 296.816406 276.667969 C 297.074219 277.671875 297.203125 279.023438 297.203125 280.726562 C 297.203125 282.742188 296.996094 284.367188 296.585938 285.605469 C 296.167969 286.847656 295.546875 287.800781 294.722656 288.476562 C 293.898438 289.15625 292.859375 289.492188 291.601562 289.492188 C 289.945312 289.492188 288.644531 288.898438 287.699219 287.710938 C 286.566406 286.28125 286 283.949219 286 280.726562 Z M 288.167969 280.726562 C 288.167969 283.546875 288.5 285.421875 289.160156 286.359375 C 289.820312 287.289062 290.632812 287.757812 291.601562 287.757812 C 292.570312 287.757812 293.382812 287.285156 294.042969 286.351562 C 294.703125 285.414062 295.035156 283.539062 295.035156 280.726562 C 295.035156 277.898438 294.703125 276.019531 294.042969 275.089844 C 293.382812 274.160156 292.5625 273.695312 291.578125 273.695312 C 290.609375 273.695312 289.835938 274.105469 289.253906 274.925781 C 288.53125 275.96875 288.167969 277.90625 288.167969 280.726562 "/>
<path fill-rule="nonzero" fill="rgb(13.729858%, 12.159729%, 12.548828%)" fill-opacity="1" d="M 171.207031 257.453125 L 171.207031 255.738281 L 179.128906 246.648438 C 178.230469 246.695312 177.4375 246.714844 176.75 246.714844 L 171.675781 246.714844 L 171.675781 245.007812 L 181.847656 245.007812 L 181.847656 246.398438 L 175.109375 254.300781 L 173.8125 255.738281 C 174.753906 255.671875 175.644531 255.636719 176.46875 255.636719 L 182.222656 255.636719 L 182.222656 257.453125 L 171.207031 257.453125 "/>
<path fill-rule="nonzero" fill="rgb(13.729858%, 12.159729%, 12.548828%)" fill-opacity="1" d="M 192.839844 253.445312 L 195.019531 253.710938 C 194.675781 254.988281 194.039062 255.976562 193.109375 256.679688 C 192.179688 257.378906 190.992188 257.730469 189.546875 257.730469 C 187.726562 257.730469 186.28125 257.171875 185.21875 256.050781 C 184.152344 254.933594 183.617188 253.359375 183.617188 251.335938 C 183.617188 249.238281 184.160156 247.617188 185.234375 246.460938 C 186.3125 245.304688 187.710938 244.722656 189.429688 244.722656 C 191.09375 244.722656 192.453125 245.292969 193.507812 246.425781 C 194.5625 247.554688 195.089844 249.152344 195.089844 251.203125 C 195.089844 251.332031 195.085938 251.519531 195.078125 251.769531 L 185.800781 251.769531 C 185.875 253.136719 186.261719 254.183594 186.960938 254.90625 C 187.65625 255.636719 188.519531 256 189.558594 256 C 190.332031 256 190.992188 255.796875 191.539062 255.386719 C 192.085938 254.984375 192.519531 254.335938 192.839844 253.445312 Z M 185.914062 250.03125 L 192.863281 250.03125 C 192.769531 248.988281 192.503906 248.199219 192.066406 247.679688 C 191.394531 246.867188 190.523438 246.460938 189.453125 246.460938 C 188.488281 246.460938 187.671875 246.785156 187.011719 247.433594 C 186.351562 248.082031 185.988281 248.949219 185.914062 250.03125 "/>
<path fill-rule="nonzero" fill="rgb(13.729858%, 12.159729%, 12.548828%)" fill-opacity="1" d="M 197.644531 257.453125 L 197.644531 245.007812 L 199.542969 245.007812 L 199.542969 246.890625 C 200.027344 246.011719 200.476562 245.429688 200.886719 245.148438 C 201.296875 244.867188 201.746094 244.722656 202.238281 244.722656 C 202.949219 244.722656 203.671875 244.953125 204.40625 245.402344 L 203.679688 247.363281 C 203.167969 247.054688 202.652344 246.902344 202.136719 246.902344 C 201.671875 246.902344 201.257812 247.042969 200.890625 247.320312 C 200.523438 247.601562 200.261719 247.984375 200.105469 248.476562 C 199.871094 249.222656 199.753906 250.042969 199.753906 250.9375 L 199.753906 257.453125 L 197.644531 257.453125 "/>
<path fill-rule="nonzero" fill="rgb(13.729858%, 12.159729%, 12.548828%)" fill-opacity="1" d="M 204.875 251.226562 C 204.875 248.925781 205.515625 247.214844 206.800781 246.109375 C 207.867188 245.1875 209.171875 244.722656 210.710938 244.722656 C 212.421875 244.722656 213.824219 245.285156 214.90625 246.40625 C 215.996094 247.527344 216.535156 249.074219 216.535156 251.050781 C 216.535156 252.65625 216.296875 253.914062 215.816406 254.832031 C 215.335938 255.753906 214.636719 256.464844 213.71875 256.972656 C 212.800781 257.480469 211.800781 257.730469 210.710938 257.730469 C 208.972656 257.730469 207.5625 257.175781 206.488281 256.054688 C 205.410156 254.941406 204.875 253.332031 204.875 251.226562 Z M 207.042969 251.226562 C 207.042969 252.824219 207.390625 254.015625 208.085938 254.808594 C 208.78125 255.605469 209.660156 256 210.710938 256 C 211.757812 256 212.632812 255.601562 213.328125 254.804688 C 214.019531 254.007812 214.367188 252.792969 214.367188 251.160156 C 214.367188 249.621094 214.019531 248.453125 213.320312 247.660156 C 212.617188 246.867188 211.75 246.472656 210.710938 246.472656 C 209.660156 246.472656 208.78125 246.867188 208.085938 247.65625 C 207.390625 248.445312 207.042969 249.636719 207.042969 251.226562 "/>
<path fill-rule="nonzero" fill="rgb(13.729858%, 12.159729%, 12.548828%)" fill-opacity="1" d="M 220.136719 253.1875 L 219.492188 244.078125 L 219.492188 240.273438 L 222.101562 240.273438 L 222.101562 244.078125 L 221.496094 253.1875 Z M 219.582031 257.453125 L 219.582031 255.046875 L 222.011719 255.046875 L 222.011719 257.453125 L 219.582031 257.453125 "/>
<path fill="none" stroke-width="19.9984" stroke-linecap="butt" stroke-linejoin="miter" stroke="rgb(13.729858%, 12.159729%, 12.548828%)" stroke-opacity="1" stroke-miterlimit="22.9256" d="M 939.648438 3131.015625 L 1983.828125 3131.015625 L 1983.828125 2478.398438 L 939.648438 2478.398438 Z M 939.648438 3131.015625 " transform="matrix(0.1, 0, 0, -0.1, 0, 346)"/>
<path fill-rule="nonzero" fill="rgb(13.729858%, 12.159729%, 12.548828%)" fill-opacity="1" d="M 116.105469 70.867188 L 116.105469 53.6875 L 127.695312 53.6875 L 127.695312 55.714844 L 118.378906 55.714844 L 118.378906 61.035156 L 126.441406 61.035156 L 126.441406 63.0625 L 118.378906 63.0625 L 118.378906 70.867188 L 116.105469 70.867188 "/>
<path fill-rule="nonzero" fill="rgb(13.729858%, 12.159729%, 12.548828%)" fill-opacity="1" d="M 130.386719 56.113281 L 130.386719 53.6875 L 132.5 53.6875 L 132.5 56.113281 Z M 130.386719 70.867188 L 130.386719 58.421875 L 132.5 58.421875 L 132.5 70.867188 L 130.386719 70.867188 "/>
<path fill-rule="nonzero" fill="rgb(13.729858%, 12.159729%, 12.548828%)" fill-opacity="1" d="M 135.664062 70.867188 L 135.664062 53.6875 L 137.769531 53.6875 L 137.769531 70.867188 L 135.664062 70.867188 "/>
<path fill-rule="nonzero" fill="rgb(13.729858%, 12.159729%, 12.548828%)" fill-opacity="1" d="M 145.648438 68.980469 L 145.953125 70.84375 C 145.359375 70.96875 144.828125 71.03125 144.359375 71.03125 C 143.59375 71.03125 143 70.910156 142.574219 70.667969 C 142.15625 70.425781 141.859375 70.105469 141.6875 69.710938 C 141.515625 69.320312 141.429688 68.488281 141.429688 67.222656 L 141.429688 60.0625 L 139.878906 60.0625 L 139.878906 58.421875 L 141.429688 58.421875 L 141.429688 55.339844 L 143.527344 54.074219 L 143.527344 58.421875 L 145.648438 58.421875 L 145.648438 60.0625 L 143.527344 60.0625 L 143.527344 67.339844 C 143.527344 67.941406 143.5625 68.328125 143.636719 68.5 C 143.710938 68.671875 143.832031 68.808594 144 68.910156 C 144.167969 69.011719 144.40625 69.0625 144.71875 69.0625 C 144.953125 69.0625 145.265625 69.035156 145.648438 68.980469 "/>
<path fill-rule="nonzero" fill="rgb(13.729858%, 12.159729%, 12.548828%)" fill-opacity="1" d="M 156.226562 66.859375 L 158.40625 67.128906 C 158.0625 68.402344 157.429688 69.390625 156.5 70.097656 C 155.566406 70.796875 154.378906 71.148438 152.9375 71.148438 C 151.117188 71.148438 149.671875 70.585938 148.605469 69.46875 C 147.539062 68.347656 147.007812 66.773438 147.007812 64.753906 C 147.007812 62.65625 147.546875 61.03125 148.621094 59.875 C 149.703125 58.71875 151.101562 58.140625 152.820312 58.140625 C 154.484375 58.140625 155.84375 58.707031 156.894531 59.839844 C 157.953125 60.972656 158.480469 62.566406 158.480469 64.617188 C 158.480469 64.746094 158.476562 64.9375 158.46875 65.183594 L 149.1875 65.183594 C 149.261719 66.550781 149.652344 67.597656 150.347656 68.324219 C 151.042969 69.050781 151.90625 69.414062 152.949219 69.414062 C 153.71875 69.414062 154.378906 69.210938 154.929688 68.804688 C 155.476562 68.398438 155.90625 67.75 156.226562 66.859375 Z M 149.304688 63.449219 L 156.253906 63.449219 C 156.160156 62.402344 155.890625 61.613281 155.453125 61.09375 C 154.785156 60.285156 153.910156 59.875 152.84375 59.875 C 151.875 59.875 151.058594 60.199219 150.398438 60.847656 C 149.738281 61.496094 149.375 62.363281 149.304688 63.449219 "/>
<path fill-rule="nonzero" fill="rgb(13.729858%, 12.159729%, 12.548828%)" fill-opacity="1" d="M 161.035156 70.867188 L 161.035156 58.421875 L 162.933594 58.421875 L 162.933594 60.308594 C 163.414062 59.425781 163.863281 58.84375 164.273438 58.5625 C 164.683594 58.28125 165.136719 58.140625 165.628906 58.140625 C 166.339844 58.140625 167.058594 58.367188 167.796875 58.820312 L 167.066406 60.78125 C 166.554688 60.472656 166.039062 60.320312 165.523438 60.320312 C 165.058594 60.320312 164.648438 60.460938 164.28125 60.734375 C 163.910156 61.015625 163.652344 61.398438 163.496094 61.890625 C 163.257812 62.640625 163.144531 63.460938 163.144531 64.351562 L 163.144531 70.867188 L 161.035156 70.867188 "/>
<path fill="none" stroke-width="19.9984" stroke-linecap="butt" stroke-linejoin="miter" stroke="rgb(13.729858%, 12.159729%, 12.548828%)" stroke-opacity="1" stroke-miterlimit="22.9256" d="M 476.875 2786.914062 L 823.945312 2786.914062 " transform="matrix(0.1, 0, 0, -0.1, 0, 346)"/>
<path fill-rule="evenodd" fill="rgb(13.729858%, 12.159729%, 12.548828%)" fill-opacity="1" d="M 93.996094 67.308594 L 81.753906 61.1875 L 81.753906 73.433594 Z M 93.996094 67.308594 "/>
<path fill="none" stroke-width="19.9984" stroke-linecap="butt" stroke-linejoin="miter" stroke="rgb(13.729858%, 12.159729%, 12.548828%)" stroke-opacity="1" stroke-miterlimit="22.9256" d="M 1983.828125 2804.726562 L 2390.625 2804.726562 " transform="matrix(0.1, 0, 0, -0.1, 0, 346)"/>
<path fill-rule="evenodd" fill="rgb(13.729858%, 12.159729%, 12.548828%)" fill-opacity="1" d="M 250.621094 65.527344 L 238.425781 59.433594 L 238.425781 71.628906 Z M 250.621094 65.527344 "/>
<path fill="none" stroke-width="19.9984" stroke-linecap="butt" stroke-linejoin="miter" stroke="rgb(13.729858%, 12.159729%, 12.548828%)" stroke-opacity="1" stroke-miterlimit="22.9256" d="M 32.03125 2448.671875 L 245.585938 2448.671875 L 245.585938 2864.140625 L 245.585938 2448.671875 L 455.703125 2448.671875 " transform="matrix(0.1, 0, 0, -0.1, 0, 346)"/>
<path fill-rule="evenodd" fill="rgb(13.729858%, 12.159729%, 12.548828%)" fill-opacity="1" d="M 44.746094 95.90625 L 54.25 101.132812 L 44.746094 106.363281 Z M 44.746094 95.90625 "/>
<path fill-rule="nonzero" fill="rgb(13.729858%, 12.159729%, 12.548828%)" fill-opacity="1" d="M 10.484375 18.074219 L 10.484375 16.5 C 9.695312 17.738281 8.539062 18.351562 7.003906 18.351562 C 6.011719 18.351562 5.101562 18.082031 4.269531 17.53125 C 3.4375 16.988281 2.792969 16.226562 2.332031 15.242188 C 1.875 14.261719 1.648438 13.136719 1.648438 11.859375 C 1.648438 10.621094 1.855469 9.492188 2.269531 8.480469 C 2.683594 7.46875 3.304688 6.691406 4.132812 6.15625 C 4.960938 5.617188 5.890625 5.34375 6.914062 5.34375 C 7.660156 5.34375 8.328125 5.503906 8.914062 5.820312 C 9.5 6.136719 9.976562 6.550781 10.34375 7.058594 L 10.34375 0.894531 L 12.441406 0.894531 L 12.441406 18.074219 Z M 3.816406 11.859375 C 3.816406 13.457031 4.152344 14.648438 4.824219 15.4375 C 5.496094 16.226562 6.289062 16.621094 7.207031 16.621094 C 8.125 16.621094 8.910156 16.242188 9.550781 15.488281 C 10.195312 14.738281 10.519531 13.585938 10.519531 12.035156 C 10.519531 10.332031 10.191406 9.085938 9.539062 8.289062 C 8.882812 7.488281 8.074219 7.09375 7.109375 7.09375 C 6.171875 7.09375 5.390625 7.476562 4.761719 8.242188 C 4.132812 9.003906 3.816406 10.214844 3.816406 11.859375 "/>
<path fill-rule="nonzero" fill="rgb(13.729858%, 12.159729%, 12.548828%)" fill-opacity="1" d="M 24.277344 14.066406 L 26.457031 14.332031 C 26.113281 15.609375 25.476562 16.597656 24.546875 17.300781 C 23.617188 18 22.429688 18.351562 20.984375 18.351562 C 19.164062 18.351562 17.71875 17.792969 16.65625 16.671875 C 15.589844 15.554688 15.058594 13.980469 15.058594 11.957031 C 15.058594 9.859375 15.597656 8.238281 16.671875 7.082031 C 17.753906 5.925781 19.148438 5.34375 20.867188 5.34375 C 22.53125 5.34375 23.894531 5.914062 24.945312 7.046875 C 26 8.175781 26.527344 9.773438 26.527344 11.824219 C 26.527344 11.953125 26.523438 12.140625 26.515625 12.390625 L 17.238281 12.390625 C 17.3125 13.757812 17.703125 14.804688 18.398438 15.527344 C 19.09375 16.257812 19.957031 16.621094 20.996094 16.621094 C 21.769531 16.621094 22.429688 16.417969 22.976562 16.007812 C 23.523438 15.605469 23.957031 14.957031 24.277344 14.066406 Z M 17.351562 10.652344 L 24.300781 10.652344 C 24.210938 9.609375 23.941406 8.820312 23.503906 8.300781 C 22.832031 7.488281 21.960938 7.082031 20.894531 7.082031 C 19.925781 7.082031 19.109375 7.40625 18.449219 8.054688 C 17.789062 8.699219 17.425781 9.570312 17.351562 10.652344 "/>
<path fill-rule="nonzero" fill="rgb(13.729858%, 12.159729%, 12.548828%)" fill-opacity="1" d="M 29.0625 18.074219 L 29.0625 0.894531 L 31.167969 0.894531 L 31.167969 18.074219 L 29.0625 18.074219 "/>
<path fill-rule="nonzero" fill="rgb(13.729858%, 12.159729%, 12.548828%)" fill-opacity="1" d="M 39.042969 16.183594 L 39.347656 18.050781 C 38.757812 18.171875 38.226562 18.238281 37.757812 18.238281 C 36.988281 18.238281 36.398438 18.117188 35.972656 17.871094 C 35.554688 17.632812 35.257812 17.3125 35.085938 16.917969 C 34.914062 16.523438 34.824219 15.691406 34.824219 14.429688 L 34.824219 7.269531 L 33.277344 7.269531 L 33.277344 5.628906 L 34.824219 5.628906 L 34.824219 2.546875 L 36.925781 1.28125 L 36.925781 5.628906 L 39.042969 5.628906 L 39.042969 7.269531 L 36.925781 7.269531 L 36.925781 14.546875 C 36.925781 15.148438 36.960938 15.53125 37.03125 15.703125 C 37.109375 15.878906 37.230469 16.011719 37.398438 16.117188 C 37.566406 16.21875 37.804688 16.269531 38.117188 16.269531 C 38.351562 16.269531 38.660156 16.242188 39.042969 16.183594 "/>
<path fill-rule="nonzero" fill="rgb(13.729858%, 12.159729%, 12.548828%)" fill-opacity="1" d="M 49.230469 16.535156 C 48.445312 17.199219 47.691406 17.667969 46.972656 17.945312 C 46.25 18.21875 45.472656 18.351562 44.644531 18.351562 C 43.277344 18.351562 42.230469 18.019531 41.492188 17.351562 C 40.761719 16.683594 40.394531 15.828125 40.394531 14.792969 C 40.394531 14.179688 40.527344 13.625 40.808594 13.121094 C 41.085938 12.617188 41.449219 12.214844 41.898438 11.910156 C 42.347656 11.605469 42.851562 11.371094 43.417969 11.21875 C 43.828125 11.109375 44.453125 11 45.289062 10.902344 C 46.992188 10.695312 48.25 10.457031 49.054688 10.171875 C 49.0625 9.886719 49.066406 9.699219 49.066406 9.625 C 49.066406 8.765625 48.863281 8.15625 48.464844 7.808594 C 47.929688 7.328125 47.125 7.09375 46.066406 7.09375 C 45.074219 7.09375 44.339844 7.265625 43.863281 7.613281 C 43.394531 7.960938 43.042969 8.578125 42.816406 9.460938 L 40.757812 9.175781 C 40.945312 8.296875 41.253906 7.582031 41.679688 7.039062 C 42.109375 6.496094 42.734375 6.078125 43.542969 5.785156 C 44.355469 5.492188 45.296875 5.34375 46.367188 5.34375 C 47.433594 5.34375 48.292969 5.472656 48.957031 5.722656 C 49.621094 5.972656 50.109375 6.285156 50.425781 6.664062 C 50.738281 7.046875 50.953125 7.519531 51.082031 8.101562 C 51.148438 8.460938 51.183594 9.109375 51.183594 10.046875 L 51.183594 12.855469 C 51.183594 14.820312 51.230469 16.0625 51.320312 16.578125 C 51.410156 17.097656 51.589844 17.597656 51.851562 18.074219 L 49.648438 18.074219 C 49.433594 17.636719 49.289062 17.125 49.230469 16.535156 Z M 49.054688 11.824219 C 48.285156 12.140625 47.136719 12.40625 45.609375 12.625 C 44.742188 12.75 44.125 12.890625 43.769531 13.046875 C 43.410156 13.199219 43.128906 13.429688 42.9375 13.734375 C 42.742188 14.03125 42.640625 14.363281 42.640625 14.734375 C 42.640625 15.296875 42.855469 15.765625 43.28125 16.140625 C 43.707031 16.511719 44.328125 16.699219 45.148438 16.699219 C 45.960938 16.699219 46.683594 16.523438 47.316406 16.167969 C 47.949219 15.8125 48.417969 15.324219 48.714844 14.710938 C 48.941406 14.234375 49.054688 13.527344 49.054688 12.601562 L 49.054688 11.824219 "/>
<path fill-rule="nonzero" fill="rgb(13.729858%, 12.159729%, 12.548828%)" fill-opacity="1" d="M 2.414062 49.652344 L 2.414062 32.441406 L 4.332031 32.441406 L 4.332031 34.058594 C 4.785156 33.425781 5.296875 32.949219 5.867188 32.632812 C 6.4375 32.316406 7.128906 32.15625 7.941406 32.15625 C 9.003906 32.15625 9.941406 32.433594 10.753906 32.976562 C 11.570312 33.523438 12.179688 34.296875 12.59375 35.292969 C 13.007812 36.289062 13.21875 37.382812 13.21875 38.570312 C 13.21875 39.839844 12.988281 40.988281 12.527344 42.007812 C 12.074219 43.027344 11.410156 43.808594 10.535156 44.351562 C 9.664062 44.894531 8.75 45.164062 7.789062 45.164062 C 7.085938 45.164062 6.457031 45.015625 5.898438 44.722656 C 5.335938 44.425781 4.882812 44.050781 4.519531 43.597656 L 4.519531 49.652344 Z M 4.320312 38.734375 C 4.320312 40.332031 4.644531 41.515625 5.292969 42.285156 C 5.941406 43.050781 6.730469 43.433594 7.648438 43.433594 C 8.585938 43.433594 9.390625 43.035156 10.058594 42.242188 C 10.726562 41.449219 11.0625 40.222656 11.0625 38.558594 C 11.0625 36.96875 10.734375 35.785156 10.082031 34.992188 C 9.429688 34.203125 8.648438 33.808594 7.746094 33.808594 C 6.84375 33.808594 6.050781 34.230469 5.355469 35.070312 C 4.664062 35.910156 4.320312 37.132812 4.320312 38.734375 "/>
<path fill-rule="nonzero" fill="rgb(13.729858%, 12.159729%, 12.548828%)" fill-opacity="1" d="M 23.917969 44.886719 L 23.917969 43.058594 C 22.945312 44.464844 21.628906 45.164062 19.964844 45.164062 C 19.234375 45.164062 18.542969 45.023438 17.910156 44.746094 C 17.273438 44.464844 16.800781 44.109375 16.492188 43.683594 C 16.179688 43.257812 15.964844 42.738281 15.839844 42.121094 C 15.757812 41.703125 15.714844 41.050781 15.714844 40.148438 L 15.714844 32.441406 L 17.820312 32.441406 L 17.820312 39.339844 C 17.820312 40.445312 17.863281 41.183594 17.949219 41.570312 C 18.085938 42.125 18.363281 42.558594 18.792969 42.878906 C 19.226562 43.191406 19.757812 43.347656 20.390625 43.347656 C 21.019531 43.347656 21.613281 43.1875 22.167969 42.863281 C 22.726562 42.539062 23.117188 42.097656 23.34375 41.539062 C 23.578125 40.980469 23.691406 40.167969 23.691406 39.109375 L 23.691406 32.441406 L 25.800781 32.441406 L 25.800781 44.886719 L 23.917969 44.886719 "/>
<path fill-rule="nonzero" fill="rgb(13.729858%, 12.159729%, 12.548828%)" fill-opacity="1" d="M 29.0625 44.886719 L 29.0625 27.703125 L 31.167969 27.703125 L 31.167969 44.886719 L 29.0625 44.886719 "/>
<path fill-rule="nonzero" fill="rgb(13.729858%, 12.159729%, 12.548828%)" fill-opacity="1" d="M 33.597656 41.167969 L 35.679688 40.839844 C 35.796875 41.675781 36.125 42.316406 36.660156 42.765625 C 37.195312 43.210938 37.941406 43.433594 38.90625 43.433594 C 39.871094 43.433594 40.59375 43.234375 41.0625 42.839844 C 41.527344 42.445312 41.765625 41.980469 41.765625 41.453125 C 41.765625 40.972656 41.558594 40.601562 41.140625 40.324219 C 40.851562 40.136719 40.132812 39.902344 38.984375 39.613281 C 37.441406 39.222656 36.363281 38.886719 35.769531 38.597656 C 35.171875 38.3125 34.71875 37.917969 34.410156 37.414062 C 34.101562 36.910156 33.945312 36.351562 33.945312 35.746094 C 33.945312 35.1875 34.074219 34.675781 34.328125 34.203125 C 34.582031 33.730469 34.929688 33.335938 35.363281 33.023438 C 35.691406 32.785156 36.140625 32.578125 36.707031 32.410156 C 37.273438 32.242188 37.882812 32.15625 38.53125 32.15625 C 39.503906 32.15625 40.359375 32.300781 41.101562 32.582031 C 41.839844 32.859375 42.386719 33.242188 42.738281 33.722656 C 43.089844 34.203125 43.328125 34.84375 43.460938 35.648438 L 41.402344 35.933594 C 41.304688 35.292969 41.03125 34.792969 40.585938 34.433594 C 40.136719 34.074219 39.5 33.894531 38.679688 33.894531 C 37.714844 33.894531 37.019531 34.054688 36.609375 34.371094 C 36.191406 34.691406 35.984375 35.070312 35.984375 35.496094 C 35.984375 35.773438 36.074219 36.015625 36.246094 36.238281 C 36.417969 36.464844 36.683594 36.648438 37.054688 36.800781 C 37.265625 36.878906 37.886719 37.058594 38.917969 37.335938 C 40.410156 37.738281 41.449219 38.0625 42.035156 38.316406 C 42.628906 38.570312 43.09375 38.941406 43.429688 39.425781 C 43.765625 39.910156 43.933594 40.507812 43.933594 41.230469 C 43.933594 41.933594 43.726562 42.59375 43.316406 43.21875 C 42.90625 43.835938 42.3125 44.316406 41.539062 44.65625 C 40.769531 44.996094 39.894531 45.164062 38.917969 45.164062 C 37.296875 45.164062 36.066406 44.828125 35.21875 44.15625 C 34.367188 43.484375 33.828125 42.488281 33.597656 41.167969 "/>
<path fill-rule="nonzero" fill="rgb(13.729858%, 12.159729%, 12.548828%)" fill-opacity="1" d="M 54.957031 40.878906 L 57.136719 41.144531 C 56.792969 42.421875 56.15625 43.410156 55.230469 44.113281 C 54.296875 44.8125 53.109375 45.164062 51.664062 45.164062 C 49.84375 45.164062 48.402344 44.605469 47.335938 43.484375 C 46.269531 42.363281 45.738281 40.792969 45.738281 38.769531 C 45.738281 36.671875 46.277344 35.050781 47.351562 33.894531 C 48.433594 32.738281 49.828125 32.15625 51.550781 32.15625 C 53.214844 32.15625 54.574219 32.726562 55.625 33.855469 C 56.679688 34.988281 57.210938 36.585938 57.210938 38.636719 C 57.210938 38.765625 57.207031 38.953125 57.199219 39.199219 L 47.917969 39.199219 C 47.992188 40.570312 48.382812 41.617188 49.078125 42.339844 C 49.773438 43.070312 50.636719 43.433594 51.675781 43.433594 C 52.449219 43.433594 53.109375 43.230469 53.65625 42.820312 C 54.207031 42.417969 54.636719 41.769531 54.957031 40.878906 Z M 48.03125 37.464844 L 54.980469 37.464844 C 54.890625 36.421875 54.621094 35.632812 54.183594 35.113281 C 53.511719 34.300781 52.640625 33.894531 51.574219 33.894531 C 50.605469 33.894531 49.789062 34.21875 49.128906 34.863281 C 48.46875 35.511719 48.105469 36.382812 48.03125 37.464844 "/>
<path fill-rule="nonzero" fill="rgb(13.729858%, 12.159729%, 12.548828%)" fill-opacity="1" d="M 51.96875 126.546875 L 52.273438 128.410156 C 51.679688 128.53125 51.148438 128.597656 50.679688 128.597656 C 49.914062 128.597656 49.320312 128.476562 48.898438 128.234375 C 48.476562 127.992188 48.179688 127.671875 48.007812 127.277344 C 47.835938 126.886719 47.75 126.054688 47.75 124.789062 L 47.75 117.628906 L 46.203125 117.628906 L 46.203125 115.988281 L 47.75 115.988281 L 47.75 112.90625 L 49.847656 111.640625 L 49.847656 115.988281 L 51.96875 115.988281 L 51.96875 117.628906 L 49.847656 117.628906 L 49.847656 124.90625 C 49.847656 125.507812 49.886719 125.894531 49.957031 126.066406 C 50.03125 126.238281 50.152344 126.371094 50.320312 126.476562 C 50.488281 126.578125 50.730469 126.628906 51.042969 126.628906 C 51.277344 126.628906 51.585938 126.601562 51.96875 126.546875 "/>
<path fill="none" stroke-width="39.9997" stroke-linecap="butt" stroke-linejoin="miter" stroke="rgb(13.729858%, 12.159729%, 12.548828%)" stroke-opacity="1" stroke-miterlimit="22.9256" d="M 2672.03125 2810.664062 C 3092.226562 2810.664062 4205.15625 2723.90625 4273.945312 2276.679688 C 4307.8125 2056.523438 4368.867188 1896.445312 4368.867188 1671.523438 " transform="matrix(0.1, 0, 0, -0.1, 0, 346)"/>
<path fill-rule="evenodd" fill="rgb(13.729858%, 12.159729%, 12.548828%)" fill-opacity="1" d="M 447.34375 177.199219 L 436.886719 196.207031 L 426.429688 177.199219 Z M 447.34375 177.199219 "/>
</svg>
