<?xml version="1.0" encoding="UTF-8"?>
<svg xmlns="http://www.w3.org/2000/svg" xmlns:xlink="http://www.w3.org/1999/xlink" width="722" height="382" viewBox="0 0 722 382">
<path fill="none" stroke-width="19.9984" stroke-linecap="butt" stroke-linejoin="miter" stroke="rgb(13.729858%, 12.159729%, 12.548828%)" stroke-opacity="1" stroke-miterlimit="22.9256" d="M 990.46875 1464.335938 L 990.46875 304.882812 L 7097.617188 304.882812 " transform="matrix(0.1, 0, 0, -0.1, 0, 382)"/>
<path fill-rule="evenodd" fill="rgb(13.729858%, 12.159729%, 12.548828%)" fill-opacity="1" d="M 104.253906 236.390625 L 99.046875 226.921875 L 93.839844 236.390625 Z M 104.253906 236.390625 "/>
<path fill-rule="evenodd" fill="rgb(13.729858%, 12.159729%, 12.548828%)" fill-opacity="1" d="M 708.9375 346.285156 L 718.441406 351.511719 L 708.9375 356.742188 Z M 708.9375 346.285156 "/>
<path fill="none" stroke-width="19.9984" stroke-linecap="butt" stroke-linejoin="miter" stroke="rgb(13.729858%, 12.159729%, 12.548828%)" stroke-opacity="1" stroke-miterlimit="22.9256" d="M 990.46875 3428.125 L 990.46875 2268.671875 L 7097.617188 2268.671875 " transform="matrix(0.1, 0, 0, -0.1, 0, 382)"/>
<path fill-rule="evenodd" fill="rgb(13.729858%, 12.159729%, 12.548828%)" fill-opacity="1" d="M 104.253906 40.007812 L 99.046875 30.542969 L 93.839844 40.007812 Z M 104.253906 40.007812 "/>
<path fill-rule="evenodd" fill="rgb(13.729858%, 12.159729%, 12.548828%)" fill-opacity="1" d="M 708.9375 149.90625 L 718.441406 155.132812 L 708.9375 160.363281 Z M 708.9375 149.90625 "/>
<path fill="none" stroke-width="19.9984" stroke-linecap="butt" stroke-linejoin="miter" stroke="rgb(13.729858%, 12.159729%, 12.548828%)" stroke-opacity="1" stroke-miterlimit="22.9256" d="M 990.46875 3034.023438 C 1029.492188 2834.453125 1002.96875 3010.273438 1156.367188 3010.273438 C 1493.710938 3010.273438 1789.726562 2725.507812 2151.992188 2725.507812 C 2284.84375 2725.507812 2624.335938 2706.015625 2725.195312 2606.835938 C 2787.1875 2545.898438 3034.414062 2253.828125 3057.03125 2268.671875 " transform="matrix(0.1, 0, 0, -0.1, 0, 382)"/>
<path fill="none" stroke-width="19.9984" stroke-linecap="butt" stroke-linejoin="miter" stroke="rgb(13.729858%, 12.159729%, 12.548828%)" stroke-opacity="1" stroke-miterlimit="22.9256" d="M 990.46875 1091.210938 C 1029.492188 891.679688 1002.96875 1067.5 1156.367188 1067.5 C 1493.710938 1067.5 1789.726562 782.734375 2151.992188 782.734375 C 2284.84375 782.734375 2624.335938 763.242188 2725.195312 664.0625 C 2787.1875 603.085938 3034.414062 311.054688 3057.03125 325.898438 " transform="matrix(0.1, 0, 0, -0.1, 0, 382)"/>
<path fill="none" stroke-width="19.9984" stroke-linecap="butt" stroke-linejoin="miter" stroke="rgb(13.729858%, 12.159729%, 12.548828%)" stroke-opacity="1" stroke-miterlimit="22.9256" d="M 2034.648438 3295.078125 L 2034.648438 2268.671875 " transform="matrix(0.1, 0, 0, -0.1, 0, 382)"/>
<path fill="none" stroke-width="19.9984" stroke-linecap="butt" stroke-linejoin="miter" stroke="rgb(13.729858%, 12.159729%, 12.548828%)" stroke-opacity="1" stroke-miterlimit="22.9256" d="M 5902.890625 1316.445312 L 5902.890625 290.039062 " transform="matrix(0.1, 0, 0, -0.1, 0, 382)"/>
<path fill-rule="nonzero" fill="rgb(13.729858%, 12.159729%, 12.548828%)" fill-opacity="1" d="M 185.101562 39.726562 L 185.101562 22.546875 L 196.691406 22.546875 L 196.691406 24.574219 L 187.375 24.574219 L 187.375 29.894531 L 195.4375 29.894531 L 195.4375 31.921875 L 187.375 31.921875 L 187.375 39.726562 L 185.101562 39.726562 "/>
<path fill-rule="nonzero" fill="rgb(13.729858%, 12.159729%, 12.548828%)" fill-opacity="1" d="M 198.53125 36.011719 L 200.617188 35.683594 C 200.730469 36.519531 201.058594 37.15625 201.597656 37.605469 C 202.128906 38.050781 202.875 38.273438 203.839844 38.273438 C 204.808594 38.273438 205.527344 38.074219 205.996094 37.683594 C 206.464844 37.285156 206.699219 36.820312 206.699219 36.292969 C 206.699219 35.8125 206.492188 35.441406 206.074219 35.164062 C 205.789062 34.976562 205.066406 34.742188 203.921875 34.453125 C 202.375 34.0625 201.300781 33.726562 200.703125 33.4375 C 200.109375 33.152344 199.652344 32.757812 199.34375 32.253906 C 199.035156 31.75 198.878906 31.195312 198.878906 30.585938 C 198.878906 30.03125 199.007812 29.519531 199.265625 29.046875 C 199.515625 28.570312 199.863281 28.179688 200.300781 27.867188 C 200.628906 27.625 201.074219 27.417969 201.640625 27.25 C 202.207031 27.082031 202.816406 26.996094 203.464844 26.996094 C 204.441406 26.996094 205.296875 27.140625 206.035156 27.421875 C 206.777344 27.703125 207.320312 28.082031 207.671875 28.5625 C 208.023438 29.046875 208.265625 29.6875 208.394531 30.488281 L 206.335938 30.773438 C 206.238281 30.132812 205.96875 29.632812 205.519531 29.273438 C 205.070312 28.914062 204.4375 28.734375 203.617188 28.734375 C 202.648438 28.734375 201.957031 28.894531 201.542969 29.214844 C 201.128906 29.535156 200.921875 29.910156 200.921875 30.339844 C 200.921875 30.613281 201.007812 30.859375 201.179688 31.078125 C 201.351562 31.304688 201.621094 31.488281 201.988281 31.640625 C 202.199219 31.71875 202.820312 31.898438 203.851562 32.179688 C 205.34375 32.578125 206.382812 32.902344 206.972656 33.15625 C 207.5625 33.410156 208.027344 33.78125 208.363281 34.265625 C 208.699219 34.75 208.867188 35.351562 208.867188 36.070312 C 208.867188 36.773438 208.660156 37.433594 208.253906 38.058594 C 207.839844 38.679688 207.246094 39.15625 206.476562 39.496094 C 205.703125 39.839844 204.828125 40.007812 203.851562 40.007812 C 202.230469 40.007812 201 39.671875 200.152344 38.996094 C 199.304688 38.324219 198.765625 37.328125 198.53125 36.011719 "/>
<path fill-rule="nonzero" fill="rgb(13.729858%, 12.159729%, 12.548828%)" fill-opacity="1" d="M 209.792969 40.019531 L 214.773438 22.253906 L 216.460938 22.253906 L 211.492188 40.019531 L 209.792969 40.019531 "/>
<path fill-rule="nonzero" fill="rgb(13.729858%, 12.159729%, 12.548828%)" fill-opacity="1" d="M 228.542969 37.699219 L 228.542969 39.726562 L 217.1875 39.726562 C 217.171875 39.21875 217.253906 38.730469 217.433594 38.261719 C 217.71875 37.484375 218.183594 36.726562 218.820312 35.972656 C 219.460938 35.226562 220.378906 34.359375 221.578125 33.375 C 223.449219 31.84375 224.710938 30.628906 225.367188 29.734375 C 226.023438 28.84375 226.351562 27.992188 226.351562 27.199219 C 226.351562 26.363281 226.050781 25.65625 225.457031 25.082031 C 224.855469 24.511719 224.074219 24.222656 223.117188 24.222656 C 222.101562 24.222656 221.289062 24.527344 220.679688 25.136719 C 220.066406 25.746094 219.761719 26.589844 219.753906 27.664062 L 217.585938 27.445312 C 217.730469 25.824219 218.292969 24.59375 219.261719 23.746094 C 220.226562 22.898438 221.53125 22.472656 223.164062 22.472656 C 224.8125 22.472656 226.117188 22.933594 227.074219 23.847656 C 228.039062 24.761719 228.519531 25.894531 228.519531 27.246094 C 228.519531 27.933594 228.378906 28.609375 228.097656 29.273438 C 227.816406 29.9375 227.347656 30.636719 226.695312 31.371094 C 226.042969 32.105469 224.960938 33.113281 223.445312 34.394531 C 222.179688 35.457031 221.367188 36.179688 221.007812 36.558594 C 220.648438 36.933594 220.351562 37.3125 220.117188 37.699219 L 228.542969 37.699219 "/>
<path fill-rule="nonzero" fill="rgb(13.729858%, 12.159729%, 12.548828%)" fill-opacity="1" d="M 570.738281 235.511719 L 570.738281 218.332031 L 582.332031 218.332031 L 582.332031 220.359375 L 573.015625 220.359375 L 573.015625 225.679688 L 581.074219 225.679688 L 581.074219 227.707031 L 573.015625 227.707031 L 573.015625 235.511719 L 570.738281 235.511719 "/>
<path fill-rule="nonzero" fill="rgb(13.729858%, 12.159729%, 12.548828%)" fill-opacity="1" d="M 584.171875 231.796875 L 586.253906 231.46875 C 586.371094 232.304688 586.699219 232.945312 587.234375 233.390625 C 587.769531 233.835938 588.515625 234.058594 589.480469 234.058594 C 590.445312 234.058594 591.167969 233.859375 591.636719 233.46875 C 592.101562 233.070312 592.339844 232.609375 592.339844 232.078125 C 592.339844 231.601562 592.132812 231.226562 591.714844 230.953125 C 591.425781 230.765625 590.707031 230.527344 589.558594 230.238281 C 588.015625 229.847656 586.9375 229.511719 586.34375 229.222656 C 585.746094 228.941406 585.289062 228.542969 584.984375 228.039062 C 584.675781 227.535156 584.519531 226.980469 584.519531 226.371094 C 584.519531 225.816406 584.648438 225.304688 584.902344 224.832031 C 585.15625 224.355469 585.503906 223.964844 585.9375 223.652344 C 586.265625 223.410156 586.714844 223.203125 587.277344 223.035156 C 587.847656 222.867188 588.453125 222.785156 589.105469 222.785156 C 590.078125 222.785156 590.9375 222.929688 591.675781 223.207031 C 592.414062 223.488281 592.960938 223.867188 593.3125 224.347656 C 593.664062 224.832031 593.902344 225.472656 594.035156 226.277344 L 591.976562 226.558594 C 591.878906 225.921875 591.605469 225.421875 591.160156 225.058594 C 590.710938 224.699219 590.074219 224.519531 589.253906 224.519531 C 588.285156 224.519531 587.59375 224.679688 587.183594 225 C 586.765625 225.320312 586.558594 225.695312 586.558594 226.125 C 586.558594 226.398438 586.648438 226.644531 586.820312 226.863281 C 586.992188 227.09375 587.257812 227.277344 587.628906 227.429688 C 587.839844 227.503906 588.460938 227.683594 589.492188 227.964844 C 590.984375 228.363281 592.023438 228.6875 592.609375 228.945312 C 593.203125 229.195312 593.667969 229.566406 594.003906 230.050781 C 594.339844 230.535156 594.507812 231.136719 594.507812 231.855469 C 594.507812 232.558594 594.300781 233.21875 593.890625 233.84375 C 593.480469 234.464844 592.886719 234.945312 592.113281 235.285156 C 591.34375 235.625 590.46875 235.792969 589.492188 235.792969 C 587.871094 235.792969 586.640625 235.457031 585.789062 234.785156 C 584.941406 234.113281 584.402344 233.117188 584.171875 231.796875 "/>
<path fill-rule="nonzero" fill="rgb(13.729858%, 12.159729%, 12.548828%)" fill-opacity="1" d="M 595.429688 235.804688 L 600.410156 218.039062 L 602.097656 218.039062 L 597.132812 235.804688 L 595.429688 235.804688 "/>
<path fill-rule="nonzero" fill="rgb(13.729858%, 12.159729%, 12.548828%)" fill-opacity="1" d="M 614.183594 233.484375 L 614.183594 235.511719 L 602.828125 235.511719 C 602.8125 235.003906 602.890625 234.515625 603.070312 234.046875 C 603.359375 233.273438 603.824219 232.511719 604.460938 231.761719 C 605.097656 231.011719 606.019531 230.144531 607.21875 229.160156 C 609.089844 227.628906 610.351562 226.414062 611.007812 225.519531 C 611.664062 224.628906 611.992188 223.78125 611.992188 222.984375 C 611.992188 222.148438 611.691406 221.445312 611.09375 220.867188 C 610.496094 220.296875 609.714844 220.007812 608.753906 220.007812 C 607.738281 220.007812 606.925781 220.3125 606.320312 220.925781 C 605.707031 221.53125 605.398438 222.375 605.390625 223.453125 L 603.222656 223.230469 C 603.371094 221.613281 603.929688 220.378906 604.898438 219.53125 C 605.867188 218.683594 607.171875 218.261719 608.804688 218.261719 C 610.453125 218.261719 611.753906 218.71875 612.714844 219.632812 C 613.679688 220.546875 614.160156 221.679688 614.160156 223.03125 C 614.160156 223.71875 614.019531 224.394531 613.734375 225.058594 C 613.453125 225.722656 612.988281 226.425781 612.335938 227.15625 C 611.683594 227.890625 610.597656 228.898438 609.082031 230.179688 C 607.820312 231.242188 607.007812 231.964844 606.648438 232.34375 C 606.285156 232.71875 605.992188 233.101562 605.753906 233.484375 L 614.183594 233.484375 "/>
<path fill="none" stroke-width="19.9984" stroke-linecap="butt" stroke-linejoin="miter" stroke="rgb(13.729858%, 12.159729%, 12.548828%)" stroke-opacity="1" stroke-dasharray="19.9984 19.9984" stroke-miterlimit="22.9256" d="M 990.46875 3271.328125 C 1205.15625 3237.421875 1504.492188 3019.375 1571.875 2844.140625 C 1615.039062 2731.953125 1662.226562 2627.734375 1714.257812 2535.625 C 1761.601562 2451.914062 1844.804688 2378.789062 1844.804688 2268.671875 " transform="matrix(0.1, 0, 0, -0.1, 0, 382)"/>
<path fill-rule="nonzero" fill="rgb(13.729858%, 12.159729%, 12.548828%)" fill-opacity="1" d="M 708.542969 381.175781 L 708.542969 363.996094 L 720.136719 363.996094 L 720.136719 366.027344 L 710.820312 366.027344 L 710.820312 371.34375 L 718.878906 371.34375 L 718.878906 373.375 L 710.820312 373.375 L 710.820312 381.175781 L 708.542969 381.175781 "/>
<path fill-rule="nonzero" fill="rgb(13.729858%, 12.159729%, 12.548828%)" fill-opacity="1" d="M 709.730469 180.644531 L 709.730469 163.464844 L 721.324219 163.464844 L 721.324219 165.492188 L 712.007812 165.492188 L 712.007812 170.8125 L 720.066406 170.8125 L 720.066406 172.839844 L 712.007812 172.839844 L 712.007812 180.644531 L 709.730469 180.644531 "/>
<path fill-rule="nonzero" fill="rgb(13.729858%, 12.159729%, 12.548828%)" fill-opacity="1" d="M 81.078125 27.882812 L 81.078125 5.355469 L 82.917969 5.355469 L 82.917969 27.882812 L 81.078125 27.882812 "/>
<path fill-rule="nonzero" fill="rgb(13.729858%, 12.159729%, 12.548828%)" fill-opacity="1" d="M 87.03125 22.828125 L 87.03125 5.648438 L 89.304688 5.648438 L 89.304688 12.707031 L 98.234375 12.707031 L 98.234375 5.648438 L 100.511719 5.648438 L 100.511719 22.828125 L 98.234375 22.828125 L 98.234375 14.734375 L 89.304688 14.734375 L 89.304688 22.828125 L 87.03125 22.828125 "/>
<path fill-rule="nonzero" fill="rgb(13.729858%, 12.159729%, 12.548828%)" fill-opacity="1" d="M 108.054688 27.882812 C 106.890625 26.414062 105.90625 24.695312 105.101562 22.726562 C 104.296875 20.753906 103.894531 18.71875 103.894531 16.605469 C 103.894531 14.746094 104.195312 12.964844 104.796875 11.261719 C 105.503906 9.285156 106.585938 7.316406 108.054688 5.355469 L 109.566406 5.355469 C 108.621094 6.980469 107.996094 8.140625 107.695312 8.835938 C 107.214844 9.914062 106.84375 11.039062 106.566406 12.214844 C 106.230469 13.675781 106.0625 15.140625 106.0625 16.617188 C 106.0625 20.378906 107.230469 24.128906 109.566406 27.882812 L 108.054688 27.882812 "/>
<path fill-rule="nonzero" fill="rgb(13.729858%, 12.159729%, 12.548828%)" fill-opacity="1" d="M 112.402344 22.828125 L 112.402344 5.648438 L 123.992188 5.648438 L 123.992188 7.679688 L 114.679688 7.679688 L 114.679688 12.996094 L 122.738281 12.996094 L 122.738281 15.027344 L 114.679688 15.027344 L 114.679688 22.828125 L 112.402344 22.828125 "/>
<path fill-rule="nonzero" fill="rgb(13.729858%, 12.159729%, 12.548828%)" fill-opacity="1" d="M 128.058594 27.882812 L 126.546875 27.882812 C 128.882812 24.128906 130.050781 20.378906 130.050781 16.617188 C 130.050781 15.148438 129.882812 13.695312 129.546875 12.246094 C 129.28125 11.078125 128.910156 9.949219 128.433594 8.871094 C 128.128906 8.171875 127.503906 6.996094 126.546875 5.355469 L 128.058594 5.355469 C 129.527344 7.316406 130.613281 9.285156 131.316406 11.261719 C 131.917969 12.964844 132.21875 14.746094 132.21875 16.605469 C 132.21875 18.71875 131.8125 20.753906 131.003906 22.726562 C 130.199219 24.695312 129.214844 26.414062 128.058594 27.882812 "/>
<path fill-rule="nonzero" fill="rgb(13.729858%, 12.159729%, 12.548828%)" fill-opacity="1" d="M 135.289062 27.882812 L 135.289062 5.355469 L 137.128906 5.355469 L 137.128906 27.882812 L 135.289062 27.882812 "/>
<path fill-rule="nonzero" fill="rgb(13.729858%, 12.159729%, 12.548828%)" fill-opacity="1" d="M 79.242188 221.570312 L 79.242188 199.046875 L 81.082031 199.046875 L 81.082031 221.570312 L 79.242188 221.570312 "/>
<path fill-rule="nonzero" fill="rgb(13.729858%, 12.159729%, 12.548828%)" fill-opacity="1" d="M 85.191406 216.519531 L 85.191406 199.339844 L 87.46875 199.339844 L 87.46875 206.394531 L 96.398438 206.394531 L 96.398438 199.339844 L 98.671875 199.339844 L 98.671875 216.519531 L 96.398438 216.519531 L 96.398438 208.425781 L 87.46875 208.425781 L 87.46875 216.519531 L 85.191406 216.519531 "/>
<path fill-rule="nonzero" fill="rgb(13.729858%, 12.159729%, 12.548828%)" fill-opacity="1" d="M 106.21875 221.570312 C 105.054688 220.105469 104.070312 218.382812 103.265625 216.414062 C 102.460938 214.445312 102.058594 212.40625 102.058594 210.296875 C 102.058594 208.4375 102.355469 206.65625 102.960938 204.953125 C 103.664062 202.976562 104.75 201.007812 106.21875 199.046875 L 107.730469 199.046875 C 106.785156 200.671875 106.160156 201.832031 105.855469 202.527344 C 105.378906 203.605469 105.003906 204.730469 104.730469 205.902344 C 104.394531 207.363281 104.226562 208.832031 104.226562 210.308594 C 104.226562 214.066406 105.394531 217.820312 107.730469 221.570312 L 106.21875 221.570312 "/>
<path fill-rule="nonzero" fill="rgb(13.729858%, 12.159729%, 12.548828%)" fill-opacity="1" d="M 110.566406 216.519531 L 110.566406 199.339844 L 122.15625 199.339844 L 122.15625 201.367188 L 112.839844 201.367188 L 112.839844 206.6875 L 120.902344 206.6875 L 120.902344 208.714844 L 112.839844 208.714844 L 112.839844 216.519531 L 110.566406 216.519531 "/>
<path fill-rule="nonzero" fill="rgb(13.729858%, 12.159729%, 12.548828%)" fill-opacity="1" d="M 126.222656 221.570312 L 124.710938 221.570312 C 127.046875 217.820312 128.214844 214.066406 128.214844 210.308594 C 128.214844 208.839844 128.046875 207.382812 127.710938 205.9375 C 127.445312 204.769531 127.074219 203.640625 126.597656 202.5625 C 126.292969 201.859375 125.664062 200.6875 124.710938 199.046875 L 126.222656 199.046875 C 127.6875 201.007812 128.777344 202.976562 129.480469 204.953125 C 130.082031 206.65625 130.382812 208.4375 130.382812 210.296875 C 130.382812 212.40625 129.976562 214.445312 129.167969 216.414062 C 128.359375 218.382812 127.378906 220.105469 126.222656 221.570312 "/>
<path fill-rule="nonzero" fill="rgb(13.729858%, 12.159729%, 12.548828%)" fill-opacity="1" d="M 133.453125 221.570312 L 133.453125 199.046875 L 135.292969 199.046875 L 135.292969 221.570312 L 133.453125 221.570312 "/>
<path fill-rule="nonzero" fill="rgb(13.729858%, 12.159729%, 12.548828%)" fill-opacity="1" d="M 384.566406 264.894531 L 372.617188 264.894531 L 372.617188 264.460938 L 378.742188 257.113281 L 372.617188 249.425781 L 372.617188 249 L 384.207031 249 L 384.566406 252.964844 L 384.089844 252.964844 C 383.972656 251.882812 383.671875 251.117188 383.191406 250.652344 C 382.710938 250.191406 382.019531 249.964844 381.113281 249.964844 L 375.652344 249.964844 L 380.65625 256.257812 L 375.019531 263.039062 L 381.226562 263.039062 C 382.269531 263.039062 383.046875 262.84375 383.566406 262.457031 C 384.089844 262.0625 384.519531 261.328125 384.863281 260.253906 L 385.296875 260.34375 L 384.566406 264.894531 "/>
<path fill-rule="nonzero" fill="rgb(13.729858%, 12.159729%, 12.548828%)" fill-opacity="1" d="M 400.53125 264.894531 L 386.46875 264.894531 L 393.828125 248.640625 Z M 397.765625 263.933594 L 393.089844 252.601562 L 387.933594 263.933594 L 397.765625 263.933594 "/>
<path fill-rule="nonzero" fill="rgb(13.729858%, 12.159729%, 12.548828%)" fill-opacity="1" d="M 406.15625 264.894531 L 412.753906 247.710938 L 415.203125 247.710938 L 422.234375 264.894531 L 419.644531 264.894531 L 417.640625 259.6875 L 410.457031 259.6875 L 408.570312 264.894531 Z M 411.113281 257.835938 L 416.941406 257.835938 L 415.144531 253.078125 C 414.601562 251.636719 414.191406 250.449219 413.929688 249.515625 C 413.707031 250.621094 413.398438 251.710938 413 252.800781 L 411.113281 257.835938 "/>
<path fill-rule="nonzero" fill="rgb(13.729858%, 12.159729%, 12.548828%)" fill-opacity="1" d="M 422.199219 265.183594 L 427.179688 247.421875 L 428.867188 247.421875 L 423.898438 265.183594 L 422.199219 265.183594 "/>
<path fill-rule="nonzero" fill="rgb(13.729858%, 12.159729%, 12.548828%)" fill-opacity="1" d="M 430.71875 264.894531 L 430.71875 247.710938 L 436.636719 247.710938 C 437.972656 247.710938 438.992188 247.796875 439.695312 247.960938 C 440.679688 248.183594 441.519531 248.597656 442.214844 249.1875 C 443.121094 249.957031 443.800781 250.933594 444.246094 252.125 C 444.699219 253.316406 444.925781 254.675781 444.925781 256.210938 C 444.925781 257.511719 444.773438 258.667969 444.464844 259.675781 C 444.160156 260.683594 443.769531 261.519531 443.292969 262.179688 C 442.816406 262.839844 442.296875 263.359375 441.726562 263.738281 C 441.164062 264.117188 440.480469 264.402344 439.679688 264.601562 C 438.875 264.796875 437.957031 264.894531 436.921875 264.894531 Z M 432.992188 262.863281 L 436.660156 262.863281 C 437.792969 262.863281 438.683594 262.761719 439.328125 262.546875 C 439.972656 262.335938 440.484375 262.039062 440.867188 261.65625 C 441.40625 261.121094 441.828125 260.394531 442.128906 259.484375 C 442.429688 258.574219 442.578125 257.472656 442.578125 256.171875 C 442.578125 254.378906 442.285156 252.996094 441.695312 252.03125 C 441.105469 251.0625 440.386719 250.421875 439.542969 250.09375 C 438.9375 249.855469 437.953125 249.742188 436.605469 249.742188 L 432.992188 249.742188 L 432.992188 262.863281 "/>
<path fill="none" stroke-width="19.9984" stroke-linecap="butt" stroke-linejoin="miter" stroke="rgb(13.729858%, 12.159729%, 12.548828%)" stroke-opacity="1" stroke-miterlimit="22.9256" d="M 3589.0625 1443.984375 L 4573.945312 1443.984375 L 4573.945312 1052.421875 L 3589.0625 1052.421875 Z M 3589.0625 1443.984375 " transform="matrix(0.1, 0, 0, -0.1, 0, 382)"/>
<path fill-rule="nonzero" fill="rgb(13.729858%, 12.159729%, 12.548828%)" fill-opacity="1" d="M 452.769531 50.816406 L 454.914062 50.628906 C 455.015625 51.488281 455.253906 52.195312 455.621094 52.746094 C 455.996094 53.296875 456.570312 53.742188 457.351562 54.082031 C 458.132812 54.421875 459.011719 54.589844 459.988281 54.589844 C 460.855469 54.589844 461.621094 54.460938 462.28125 54.207031 C 462.945312 53.945312 463.441406 53.59375 463.769531 53.144531 C 464.089844 52.695312 464.253906 52.207031 464.253906 51.675781 C 464.253906 51.132812 464.101562 50.664062 463.78125 50.261719 C 463.472656 49.859375 462.953125 49.523438 462.238281 49.25 C 461.773438 49.070312 460.757812 48.789062 459.179688 48.410156 C 457.601562 48.03125 456.496094 47.675781 455.863281 47.339844 C 455.042969 46.910156 454.429688 46.375 454.027344 45.738281 C 453.628906 45.101562 453.425781 44.390625 453.425781 43.597656 C 453.425781 42.734375 453.671875 41.921875 454.164062 41.171875 C 454.65625 40.414062 455.375 39.84375 456.320312 39.449219 C 457.269531 39.0625 458.316406 38.867188 459.472656 38.867188 C 460.746094 38.867188 461.867188 39.070312 462.84375 39.480469 C 463.816406 39.890625 464.5625 40.492188 465.089844 41.289062 C 465.605469 42.085938 465.890625 42.988281 465.933594 43.996094 L 463.753906 44.160156 C 463.632812 43.078125 463.234375 42.253906 462.558594 41.703125 C 461.882812 41.144531 460.886719 40.871094 459.566406 40.871094 C 458.191406 40.871094 457.191406 41.121094 456.558594 41.625 C 455.929688 42.128906 455.613281 42.738281 455.613281 43.445312 C 455.613281 44.066406 455.839844 44.574219 456.285156 44.96875 C 456.722656 45.371094 457.863281 45.777344 459.710938 46.195312 C 461.558594 46.613281 462.828125 46.976562 463.515625 47.289062 C 464.515625 47.753906 465.253906 48.339844 465.730469 49.042969 C 466.207031 49.75 466.441406 50.566406 466.441406 51.484375 C 466.441406 52.402344 466.183594 53.261719 465.660156 54.070312 C 465.136719 54.878906 464.382812 55.507812 463.402344 55.957031 C 462.421875 56.40625 461.320312 56.628906 460.097656 56.628906 C 458.539062 56.628906 457.234375 56.40625 456.1875 55.949219 C 455.136719 55.496094 454.3125 54.816406 453.710938 53.90625 C 453.117188 52.996094 452.800781 51.964844 452.769531 50.816406 "/>
<path fill-rule="nonzero" fill="rgb(13.729858%, 12.159729%, 12.548828%)" fill-opacity="1" d="M 467.664062 56.339844 L 474.261719 39.15625 L 476.710938 39.15625 L 483.742188 56.339844 L 481.152344 56.339844 L 479.148438 51.132812 L 471.964844 51.132812 L 470.078125 56.339844 Z M 472.621094 49.28125 L 478.449219 49.28125 L 476.652344 44.527344 C 476.105469 43.082031 475.699219 41.894531 475.4375 40.960938 C 475.214844 42.066406 474.90625 43.15625 474.507812 44.246094 L 472.621094 49.28125 "/>
<path fill-rule="nonzero" fill="rgb(13.729858%, 12.159729%, 12.548828%)" fill-opacity="1" d="M 485.59375 56.339844 L 485.59375 39.15625 L 493.210938 39.15625 C 494.742188 39.15625 495.90625 39.3125 496.703125 39.621094 C 497.5 39.929688 498.136719 40.472656 498.617188 41.253906 C 499.09375 42.039062 499.328125 42.902344 499.328125 43.847656 C 499.328125 45.066406 498.9375 46.089844 498.144531 46.925781 C 497.355469 47.761719 496.136719 48.292969 494.488281 48.523438 C 495.089844 48.808594 495.546875 49.09375 495.859375 49.378906 C 496.523438 49.984375 497.152344 50.75 497.746094 51.660156 L 500.734375 56.339844 L 497.875 56.339844 L 495.605469 52.761719 C 494.9375 51.734375 494.390625 50.941406 493.960938 50.398438 C 493.53125 49.851562 493.148438 49.464844 492.808594 49.25 C 492.46875 49.03125 492.121094 48.878906 491.769531 48.789062 C 491.511719 48.738281 491.089844 48.710938 490.503906 48.710938 L 487.867188 48.710938 L 487.867188 56.339844 Z M 487.867188 46.742188 L 492.753906 46.742188 C 493.789062 46.742188 494.609375 46.632812 495.191406 46.417969 C 495.78125 46.203125 496.222656 45.859375 496.527344 45.386719 C 496.832031 44.914062 496.984375 44.402344 496.984375 43.847656 C 496.984375 43.035156 496.691406 42.367188 496.101562 41.84375 C 495.511719 41.316406 494.578125 41.058594 493.304688 41.058594 L 487.867188 41.058594 L 487.867188 46.742188 "/>
<path fill-rule="nonzero" fill="rgb(13.729858%, 12.159729%, 12.548828%)" fill-opacity="1" d="M 506.347656 56.339844 L 512.949219 39.15625 L 515.394531 39.15625 L 522.429688 56.339844 L 519.835938 56.339844 L 517.832031 51.132812 L 510.648438 51.132812 L 508.765625 56.339844 Z M 511.304688 49.28125 L 517.132812 49.28125 L 515.335938 44.527344 C 514.792969 43.082031 514.382812 41.894531 514.121094 40.960938 C 513.898438 42.066406 513.589844 43.15625 513.191406 44.246094 L 511.304688 49.28125 "/>
<path fill-rule="nonzero" fill="rgb(13.729858%, 12.159729%, 12.548828%)" fill-opacity="1" d="M 522.390625 56.628906 L 527.371094 38.867188 L 529.058594 38.867188 L 524.09375 56.628906 L 522.390625 56.628906 "/>
<path fill-rule="nonzero" fill="rgb(13.729858%, 12.159729%, 12.548828%)" fill-opacity="1" d="M 530.910156 56.339844 L 530.910156 39.15625 L 536.828125 39.15625 C 538.164062 39.15625 539.183594 39.242188 539.886719 39.40625 C 540.871094 39.628906 541.710938 40.042969 542.40625 40.632812 C 543.3125 41.402344 543.992188 42.378906 544.4375 43.570312 C 544.890625 44.761719 545.117188 46.121094 545.117188 47.652344 C 545.117188 48.957031 544.964844 50.113281 544.65625 51.121094 C 544.351562 52.128906 543.964844 52.964844 543.484375 53.625 C 543.007812 54.285156 542.488281 54.804688 541.921875 55.183594 C 541.355469 55.5625 540.671875 55.851562 539.871094 56.046875 C 539.066406 56.242188 538.148438 56.339844 537.113281 56.339844 Z M 533.183594 54.308594 L 536.851562 54.308594 C 537.984375 54.308594 538.875 54.207031 539.519531 53.992188 C 540.164062 53.78125 540.675781 53.484375 541.058594 53.101562 C 541.601562 52.566406 542.019531 51.839844 542.320312 50.929688 C 542.621094 50.019531 542.769531 48.917969 542.769531 47.617188 C 542.769531 45.820312 542.476562 44.441406 541.886719 43.476562 C 541.296875 42.511719 540.578125 41.867188 539.734375 41.539062 C 539.128906 41.300781 538.144531 41.1875 536.796875 41.1875 L 533.183594 41.1875 L 533.183594 54.308594 "/>
<path fill="none" stroke-width="19.9984" stroke-linecap="butt" stroke-linejoin="miter" stroke="rgb(13.729858%, 12.159729%, 12.548828%)" stroke-opacity="1" stroke-miterlimit="22.9256" d="M 4443.398438 3538.320312 L 5582.539062 3538.320312 L 5582.539062 3146.71875 L 4443.398438 3146.71875 Z M 4443.398438 3538.320312 " transform="matrix(0.1, 0, 0, -0.1, 0, 382)"/>
<path fill-rule="nonzero" fill="rgb(13.729858%, 12.159729%, 12.548828%)" fill-opacity="1" d="M 375.726562 58.425781 L 375.726562 41.246094 L 378.003906 41.246094 L 378.003906 56.398438 L 386.460938 56.398438 L 386.460938 58.425781 L 375.726562 58.425781 "/>
<path fill-rule="nonzero" fill="rgb(13.729858%, 12.159729%, 12.548828%)" fill-opacity="1" d="M 389.171875 58.425781 L 389.171875 41.246094 L 395.648438 41.246094 C 396.789062 41.246094 397.660156 41.304688 398.261719 41.410156 C 399.105469 41.550781 399.8125 41.820312 400.386719 42.214844 C 400.953125 42.605469 401.414062 43.164062 401.761719 43.871094 C 402.109375 44.582031 402.28125 45.363281 402.28125 46.214844 C 402.28125 47.675781 401.816406 48.914062 400.890625 49.925781 C 399.957031 50.933594 398.277344 51.441406 395.851562 51.441406 L 391.441406 51.441406 L 391.441406 58.425781 Z M 391.441406 49.414062 L 395.886719 49.414062 C 397.355469 49.414062 398.398438 49.144531 399.015625 48.59375 C 399.628906 48.046875 399.9375 47.277344 399.9375 46.285156 C 399.9375 45.566406 399.757812 44.949219 399.394531 44.4375 C 399.03125 43.925781 398.554688 43.589844 397.960938 43.425781 C 397.574219 43.328125 396.871094 43.273438 395.839844 43.273438 L 391.441406 43.273438 L 391.441406 49.414062 "/>
<path fill="none" stroke-width="19.9984" stroke-linecap="butt" stroke-linejoin="miter" stroke="rgb(13.729858%, 12.159729%, 12.548828%)" stroke-opacity="1" stroke-miterlimit="22.9256" d="M 3666.210938 3517.421875 L 4200.15625 3517.421875 L 4200.15625 3125.859375 L 3666.210938 3125.859375 Z M 3666.210938 3517.421875 " transform="matrix(0.1, 0, 0, -0.1, 0, 382)"/>
<path fill="none" stroke-width="19.9984" stroke-linecap="butt" stroke-linejoin="miter" stroke="rgb(13.729858%, 12.159729%, 12.548828%)" stroke-opacity="1" stroke-miterlimit="22.9256" d="M 4200.15625 3321.640625 L 4354.296875 3321.640625 " transform="matrix(0.1, 0, 0, -0.1, 0, 382)"/>
<path fill-rule="evenodd" fill="rgb(13.729858%, 12.159729%, 12.548828%)" fill-opacity="1" d="M 434.605469 44.609375 L 444.109375 49.835938 L 434.605469 55.066406 Z M 434.605469 44.609375 "/>
<path fill="none" stroke-width="19.9984" stroke-linecap="butt" stroke-linejoin="miter" stroke="rgb(13.729858%, 12.159729%, 12.548828%)" stroke-opacity="1" stroke-miterlimit="22.9256" d="M 3411.09375 3318.789062 L 3579.765625 3320.664062 " transform="matrix(0.1, 0, 0, -0.1, 0, 382)"/>
<path fill-rule="evenodd" fill="rgb(13.729858%, 12.159729%, 12.548828%)" fill-opacity="1" d="M 357.097656 44.734375 L 366.621094 49.835938 L 357.210938 55.148438 Z M 357.097656 44.734375 "/>
<path fill="none" stroke-width="19.9984" stroke-linecap="butt" stroke-linejoin="miter" stroke="rgb(13.729858%, 12.159729%, 12.548828%)" stroke-opacity="1" stroke-miterlimit="22.9256" d="M 3328.007812 1242.265625 L 3502.617188 1246.25 " transform="matrix(0.1, 0, 0, -0.1, 0, 382)"/>
<path fill-rule="evenodd" fill="rgb(13.729858%, 12.159729%, 12.548828%)" fill-opacity="1" d="M 349.324219 252.1875 L 358.90625 257.179688 L 349.558594 262.601562 Z M 349.324219 252.1875 "/>
<path fill-rule="nonzero" fill="rgb(13.729858%, 12.159729%, 12.548828%)" fill-opacity="1" d="M 0.523438 18.082031 L 7.125 0.902344 L 9.570312 0.902344 L 16.601562 18.082031 L 14.011719 18.082031 L 12.007812 12.878906 L 4.824219 12.878906 L 2.9375 18.082031 Z M 5.480469 11.027344 L 11.308594 11.027344 L 9.511719 6.269531 C 8.96875 4.828125 8.558594 3.640625 8.296875 2.707031 C 8.074219 3.8125 7.765625 4.902344 7.367188 5.992188 L 5.480469 11.027344 "/>
<path fill-rule="nonzero" fill="rgb(13.729858%, 12.159729%, 12.548828%)" fill-opacity="1" d="M 2.28125 224.550781 L 2.28125 207.367188 L 8.726562 207.367188 C 10.039062 207.367188 11.089844 207.546875 11.882812 207.890625 C 12.679688 208.238281 13.300781 208.773438 13.746094 209.496094 C 14.195312 210.21875 14.421875 210.972656 14.421875 211.765625 C 14.421875 212.496094 14.222656 213.1875 13.824219 213.835938 C 13.425781 214.484375 12.824219 215.007812 12.019531 215.410156 C 13.058594 215.710938 13.855469 216.234375 14.414062 216.964844 C 14.976562 217.699219 15.253906 218.570312 15.253906 219.570312 C 15.253906 220.371094 15.082031 221.121094 14.742188 221.8125 C 14.402344 222.503906 13.984375 223.035156 13.484375 223.410156 C 12.984375 223.789062 12.355469 224.070312 11.601562 224.261719 C 10.851562 224.453125 9.925781 224.550781 8.832031 224.550781 Z M 4.554688 214.589844 L 8.269531 214.589844 C 9.273438 214.589844 10 214.519531 10.441406 214.390625 C 11.015625 214.21875 11.453125 213.933594 11.742188 213.53125 C 12.035156 213.132812 12.183594 212.632812 12.183594 212.03125 C 12.183594 211.464844 12.046875 210.960938 11.777344 210.527344 C 11.5 210.09375 11.105469 209.796875 10.601562 209.636719 C 10.09375 209.476562 9.222656 209.398438 7.988281 209.398438 L 4.554688 209.398438 Z M 4.554688 222.519531 L 8.832031 222.519531 C 9.566406 222.519531 10.082031 222.492188 10.378906 222.441406 C 10.902344 222.34375 11.339844 222.1875 11.691406 221.96875 C 12.042969 221.753906 12.332031 221.433594 12.558594 221.015625 C 12.78125 220.597656 12.898438 220.117188 12.898438 219.570312 C 12.898438 218.929688 12.734375 218.371094 12.40625 217.898438 C 12.078125 217.425781 11.621094 217.09375 11.039062 216.902344 C 10.460938 216.710938 9.617188 216.617188 8.527344 216.617188 L 4.554688 216.617188 L 4.554688 222.519531 "/>
<path fill-rule="nonzero" fill="rgb(13.729858%, 12.159729%, 12.548828%)" fill-opacity="1" d="M 140.042969 135.839844 L 140.042969 118.660156 L 142.316406 118.660156 L 142.316406 133.8125 L 150.777344 133.8125 L 150.777344 135.839844 L 140.042969 135.839844 "/>
<path fill-rule="nonzero" fill="rgb(13.729858%, 12.159729%, 12.548828%)" fill-opacity="1" d="M 153.484375 135.839844 L 153.484375 118.660156 L 159.964844 118.660156 C 161.105469 118.660156 161.976562 118.714844 162.578125 118.824219 C 163.421875 118.964844 164.128906 119.230469 164.703125 119.628906 C 165.269531 120.019531 165.730469 120.574219 166.078125 121.28125 C 166.425781 121.996094 166.597656 122.773438 166.597656 123.628906 C 166.597656 125.085938 166.132812 126.328125 165.203125 127.339844 C 164.273438 128.347656 162.59375 128.855469 160.164062 128.855469 L 155.757812 128.855469 L 155.757812 135.839844 Z M 155.757812 126.828125 L 160.203125 126.828125 C 161.671875 126.828125 162.714844 126.554688 163.328125 126.007812 C 163.945312 125.460938 164.253906 124.691406 164.253906 123.699219 C 164.253906 122.980469 164.074219 122.363281 163.710938 121.851562 C 163.347656 121.339844 162.871094 121.003906 162.273438 120.839844 C 161.890625 120.738281 161.1875 120.6875 160.152344 120.6875 L 155.757812 120.6875 L 155.757812 126.828125 "/>
<path fill-rule="nonzero" fill="rgb(13.729858%, 12.159729%, 12.548828%)" fill-opacity="1" d="M 261.503906 107.050781 L 263.585938 106.722656 C 263.703125 107.558594 264.03125 108.199219 264.566406 108.648438 C 265.097656 109.09375 265.847656 109.316406 266.808594 109.316406 C 267.777344 109.316406 268.496094 109.117188 268.964844 108.722656 C 269.433594 108.328125 269.671875 107.863281 269.671875 107.335938 C 269.671875 106.855469 269.460938 106.484375 269.046875 106.207031 C 268.757812 106.019531 268.039062 105.785156 266.890625 105.496094 C 265.347656 105.105469 264.269531 104.769531 263.675781 104.480469 C 263.078125 104.195312 262.621094 103.800781 262.3125 103.296875 C 262.007812 102.792969 261.851562 102.234375 261.851562 101.628906 C 261.851562 101.070312 261.976562 100.558594 262.234375 100.085938 C 262.484375 99.613281 262.835938 99.21875 263.269531 98.90625 C 263.597656 98.667969 264.046875 98.460938 264.609375 98.292969 C 265.179688 98.125 265.785156 98.039062 266.433594 98.039062 C 267.410156 98.039062 268.265625 98.183594 269.007812 98.464844 C 269.746094 98.742188 270.289062 99.121094 270.640625 99.605469 C 270.992188 100.085938 271.234375 100.726562 271.367188 101.53125 L 269.304688 101.816406 C 269.210938 101.175781 268.9375 100.675781 268.488281 100.316406 C 268.042969 99.957031 267.40625 99.777344 266.585938 99.777344 C 265.617188 99.777344 264.925781 99.9375 264.515625 100.257812 C 264.097656 100.574219 263.890625 100.953125 263.890625 101.378906 C 263.890625 101.65625 263.976562 101.898438 264.148438 102.121094 C 264.320312 102.347656 264.589844 102.53125 264.957031 102.683594 C 265.171875 102.761719 265.789062 102.9375 266.820312 103.21875 C 268.3125 103.621094 269.355469 103.945312 269.941406 104.199219 C 270.535156 104.453125 270.996094 104.824219 271.335938 105.308594 C 271.671875 105.792969 271.839844 106.390625 271.839844 107.113281 C 271.839844 107.816406 271.628906 108.476562 271.222656 109.101562 C 270.808594 109.71875 270.21875 110.199219 269.445312 110.539062 C 268.675781 110.878906 267.796875 111.046875 266.820312 111.046875 C 265.203125 111.046875 263.96875 110.710938 263.121094 110.039062 C 262.273438 109.367188 261.734375 108.371094 261.503906 107.050781 "/>
<path fill-rule="nonzero" fill="rgb(13.729858%, 12.159729%, 12.548828%)" fill-opacity="1" d="M 274.355469 96.015625 L 274.355469 93.589844 L 276.464844 93.589844 L 276.464844 96.015625 Z M 274.355469 110.769531 L 274.355469 98.324219 L 276.464844 98.324219 L 276.464844 110.769531 L 274.355469 110.769531 "/>
<path fill-rule="nonzero" fill="rgb(13.729858%, 12.159729%, 12.548828%)" fill-opacity="1" d="M 279.289062 111.800781 L 281.34375 112.105469 C 281.425781 112.734375 281.664062 113.195312 282.054688 113.488281 C 282.578125 113.875 283.292969 114.070312 284.199219 114.070312 C 285.179688 114.070312 285.929688 113.875 286.460938 113.488281 C 286.992188 113.097656 287.351562 112.546875 287.539062 111.847656 C 287.648438 111.414062 287.699219 110.515625 287.691406 109.140625 C 286.769531 110.222656 285.621094 110.769531 284.246094 110.769531 C 282.535156 110.769531 281.210938 110.152344 280.273438 108.914062 C 279.339844 107.683594 278.867188 106.199219 278.867188 104.476562 C 278.867188 103.289062 279.082031 102.191406 279.511719 101.1875 C 279.941406 100.183594 280.566406 99.40625 281.382812 98.859375 C 282.199219 98.316406 283.15625 98.039062 284.257812 98.039062 C 285.726562 98.039062 286.9375 98.636719 287.890625 99.824219 L 287.890625 98.324219 L 289.839844 98.324219 L 289.839844 109.078125 C 289.839844 111.015625 289.636719 112.390625 289.246094 113.199219 C 288.851562 114.007812 288.226562 114.648438 287.371094 115.117188 C 286.515625 115.585938 285.460938 115.820312 284.210938 115.820312 C 282.726562 115.820312 281.527344 115.484375 280.613281 114.816406 C 279.699219 114.148438 279.257812 113.144531 279.289062 111.800781 Z M 281.035156 104.324219 C 281.035156 105.957031 281.359375 107.148438 282.011719 107.894531 C 282.65625 108.648438 283.46875 109.019531 284.445312 109.019531 C 285.414062 109.019531 286.226562 108.648438 286.882812 107.902344 C 287.539062 107.15625 287.867188 105.988281 287.867188 104.390625 C 287.867188 102.867188 287.53125 101.71875 286.855469 100.949219 C 286.179688 100.175781 285.363281 99.789062 284.410156 99.789062 C 283.472656 99.789062 282.679688 100.167969 282.019531 100.933594 C 281.363281 101.691406 281.035156 102.824219 281.035156 104.324219 "/>
<path fill-rule="nonzero" fill="rgb(13.729858%, 12.159729%, 12.548828%)" fill-opacity="1" d="M 293.027344 110.769531 L 293.027344 98.324219 L 294.921875 98.324219 L 294.921875 100.09375 C 295.839844 98.722656 297.15625 98.039062 298.882812 98.039062 C 299.632812 98.039062 300.320312 98.175781 300.949219 98.445312 C 301.582031 98.714844 302.050781 99.066406 302.363281 99.507812 C 302.679688 99.945312 302.894531 100.464844 303.023438 101.0625 C 303.097656 101.457031 303.136719 102.140625 303.136719 103.117188 L 303.136719 110.769531 L 301.027344 110.769531 L 301.027344 103.195312 C 301.027344 102.339844 300.945312 101.695312 300.78125 101.269531 C 300.617188 100.84375 300.324219 100.503906 299.910156 100.253906 C 299.488281 99.996094 299.003906 99.867188 298.4375 99.867188 C 297.539062 99.867188 296.765625 100.15625 296.109375 100.722656 C 295.457031 101.296875 295.132812 102.375 295.132812 103.972656 L 295.132812 110.769531 L 293.027344 110.769531 "/>
<path fill-rule="nonzero" fill="rgb(13.729858%, 12.159729%, 12.548828%)" fill-opacity="1" d="M 314.492188 109.230469 C 313.710938 109.894531 312.957031 110.363281 312.238281 110.640625 C 311.515625 110.910156 310.738281 111.046875 309.910156 111.046875 C 308.542969 111.046875 307.492188 110.714844 306.757812 110.046875 C 306.027344 109.378906 305.65625 108.523438 305.65625 107.488281 C 305.65625 106.875 305.792969 106.320312 306.074219 105.816406 C 306.351562 105.3125 306.714844 104.90625 307.160156 104.605469 C 307.613281 104.300781 308.117188 104.066406 308.683594 103.910156 C 309.09375 103.804688 309.71875 103.695312 310.554688 103.597656 C 312.257812 103.390625 313.515625 103.152344 314.316406 102.867188 C 314.324219 102.578125 314.328125 102.394531 314.328125 102.320312 C 314.328125 101.460938 314.128906 100.851562 313.730469 100.503906 C 313.195312 100.023438 312.390625 99.789062 311.328125 99.789062 C 310.339844 99.789062 309.605469 99.960938 309.128906 100.308594 C 308.65625 100.65625 308.308594 101.273438 308.082031 102.15625 L 306.023438 101.871094 C 306.210938 100.992188 306.519531 100.277344 306.945312 99.734375 C 307.375 99.191406 307.996094 98.773438 308.808594 98.480469 C 309.621094 98.1875 310.5625 98.039062 311.632812 98.039062 C 312.699219 98.039062 313.558594 98.167969 314.222656 98.414062 C 314.886719 98.667969 315.375 98.980469 315.691406 99.359375 C 316.003906 99.738281 316.21875 100.214844 316.347656 100.796875 C 316.414062 101.15625 316.449219 101.804688 316.449219 102.738281 L 316.449219 105.550781 C 316.449219 107.515625 316.492188 108.757812 316.585938 109.269531 C 316.675781 109.792969 316.855469 110.292969 317.117188 110.769531 L 314.914062 110.769531 C 314.699219 110.332031 314.554688 109.820312 314.492188 109.230469 Z M 314.316406 104.519531 C 313.550781 104.835938 312.402344 105.101562 310.875 105.320312 C 310.007812 105.445312 309.390625 105.585938 309.035156 105.738281 C 308.675781 105.894531 308.394531 106.125 308.203125 106.429688 C 308.007812 106.726562 307.90625 107.058594 307.90625 107.429688 C 307.90625 107.992188 308.121094 108.460938 308.546875 108.835938 C 308.96875 109.207031 309.59375 109.394531 310.414062 109.394531 C 311.226562 109.394531 311.949219 109.21875 312.582031 108.863281 C 313.214844 108.507812 313.683594 108.019531 313.976562 107.402344 C 314.207031 106.929688 314.316406 106.222656 314.316406 105.296875 L 314.316406 104.519531 "/>
<path fill-rule="nonzero" fill="rgb(13.729858%, 12.159729%, 12.548828%)" fill-opacity="1" d="M 319.675781 110.769531 L 319.675781 93.589844 L 321.78125 93.589844 L 321.78125 110.769531 L 319.675781 110.769531 "/>
<path fill-rule="nonzero" fill="rgb(13.729858%, 12.159729%, 12.548828%)" fill-opacity="1" d="M 223.191406 293.214844 L 225.273438 292.886719 C 225.390625 293.722656 225.71875 294.363281 226.253906 294.808594 C 226.785156 295.253906 227.535156 295.476562 228.496094 295.476562 C 229.464844 295.476562 230.1875 295.277344 230.652344 294.886719 C 231.121094 294.488281 231.359375 294.027344 231.359375 293.5 C 231.359375 293.019531 231.148438 292.648438 230.734375 292.371094 C 230.445312 292.183594 229.726562 291.945312 228.578125 291.65625 C 227.035156 291.265625 225.957031 290.929688 225.363281 290.640625 C 224.765625 290.359375 224.308594 289.960938 224.003906 289.457031 C 223.695312 288.953125 223.539062 288.398438 223.539062 287.789062 C 223.539062 287.234375 223.664062 286.722656 223.921875 286.25 C 224.175781 285.773438 224.523438 285.382812 224.957031 285.070312 C 225.285156 284.832031 225.734375 284.621094 226.296875 284.453125 C 226.867188 284.285156 227.472656 284.203125 228.121094 284.203125 C 229.097656 284.203125 229.953125 284.347656 230.695312 284.625 C 231.433594 284.90625 231.976562 285.285156 232.328125 285.765625 C 232.683594 286.25 232.921875 286.890625 233.054688 287.695312 L 230.992188 287.976562 C 230.898438 287.339844 230.625 286.839844 230.179688 286.476562 C 229.730469 286.117188 229.09375 285.9375 228.273438 285.9375 C 227.304688 285.9375 226.613281 286.097656 226.203125 286.417969 C 225.785156 286.738281 225.578125 287.113281 225.578125 287.542969 C 225.578125 287.820312 225.664062 288.0625 225.839844 288.28125 C 226.011719 288.511719 226.277344 288.695312 226.644531 288.847656 C 226.859375 288.921875 227.476562 289.101562 228.511719 289.382812 C 230.003906 289.78125 231.042969 290.105469 231.628906 290.363281 C 232.222656 290.613281 232.6875 290.984375 233.023438 291.46875 C 233.359375 291.953125 233.527344 292.554688 233.527344 293.273438 C 233.527344 293.976562 233.316406 294.636719 232.910156 295.261719 C 232.496094 295.882812 231.90625 296.363281 231.132812 296.703125 C 230.363281 297.042969 229.484375 297.210938 228.511719 297.210938 C 226.890625 297.210938 225.65625 296.875 224.808594 296.203125 C 223.960938 295.53125 223.421875 294.535156 223.191406 293.214844 "/>
<path fill-rule="nonzero" fill="rgb(13.729858%, 12.159729%, 12.548828%)" fill-opacity="1" d="M 236.042969 282.179688 L 236.042969 279.75 L 238.152344 279.75 L 238.152344 282.179688 Z M 236.042969 296.929688 L 236.042969 284.484375 L 238.152344 284.484375 L 238.152344 296.929688 L 236.042969 296.929688 "/>
<path fill-rule="nonzero" fill="rgb(13.729858%, 12.159729%, 12.548828%)" fill-opacity="1" d="M 240.976562 297.960938 L 243.03125 298.265625 C 243.113281 298.898438 243.355469 299.359375 243.742188 299.652344 C 244.265625 300.039062 244.980469 300.234375 245.886719 300.234375 C 246.867188 300.234375 247.617188 300.039062 248.148438 299.652344 C 248.683594 299.257812 249.039062 298.710938 249.226562 298.011719 C 249.339844 297.578125 249.386719 296.679688 249.378906 295.300781 C 248.457031 296.386719 247.308594 296.929688 245.933594 296.929688 C 244.222656 296.929688 242.898438 296.316406 241.964844 295.078125 C 241.027344 293.847656 240.554688 292.363281 240.554688 290.636719 C 240.554688 289.449219 240.769531 288.355469 241.199219 287.351562 C 241.628906 286.347656 242.253906 285.570312 243.070312 285.023438 C 243.886719 284.476562 244.847656 284.203125 245.945312 284.203125 C 247.414062 284.203125 248.628906 284.796875 249.578125 285.984375 L 249.578125 284.484375 L 251.527344 284.484375 L 251.527344 295.242188 C 251.527344 297.179688 251.328125 298.554688 250.933594 299.363281 C 250.539062 300.171875 249.914062 300.808594 249.058594 301.277344 C 248.203125 301.746094 247.148438 301.980469 245.898438 301.980469 C 244.414062 301.980469 243.214844 301.648438 242.300781 300.976562 C 241.386719 300.308594 240.945312 299.304688 240.976562 297.960938 Z M 242.722656 290.484375 C 242.722656 292.117188 243.046875 293.308594 243.699219 294.058594 C 244.347656 294.808594 245.15625 295.183594 246.132812 295.183594 C 247.101562 295.183594 247.914062 294.808594 248.570312 294.066406 C 249.226562 293.320312 249.554688 292.152344 249.554688 290.554688 C 249.554688 289.03125 249.21875 287.882812 248.542969 287.109375 C 247.867188 286.339844 247.050781 285.949219 246.097656 285.949219 C 245.164062 285.949219 244.367188 286.332031 243.707031 287.09375 C 243.050781 287.855469 242.722656 288.984375 242.722656 290.484375 "/>
<path fill-rule="nonzero" fill="rgb(13.729858%, 12.159729%, 12.548828%)" fill-opacity="1" d="M 254.714844 296.929688 L 254.714844 284.484375 L 256.609375 284.484375 L 256.609375 286.253906 C 257.527344 284.886719 258.847656 284.203125 260.570312 284.203125 C 261.324219 284.203125 262.011719 284.339844 262.636719 284.605469 C 263.269531 284.878906 263.738281 285.230469 264.050781 285.671875 C 264.367188 286.105469 264.582031 286.625 264.710938 287.226562 C 264.785156 287.617188 264.828125 288.300781 264.828125 289.277344 L 264.828125 296.929688 L 262.714844 296.929688 L 262.714844 289.359375 C 262.714844 288.503906 262.632812 287.859375 262.472656 287.429688 C 262.304688 287.007812 262.015625 286.667969 261.597656 286.414062 C 261.179688 286.15625 260.691406 286.03125 260.125 286.03125 C 259.226562 286.03125 258.453125 286.320312 257.796875 286.886719 C 257.144531 287.457031 256.824219 288.539062 256.824219 290.132812 L 256.824219 296.929688 L 254.714844 296.929688 "/>
<path fill-rule="nonzero" fill="rgb(13.729858%, 12.159729%, 12.548828%)" fill-opacity="1" d="M 276.183594 295.394531 C 275.398438 296.058594 274.644531 296.527344 273.925781 296.800781 C 273.203125 297.074219 272.425781 297.210938 271.597656 297.210938 C 270.230469 297.210938 269.183594 296.878906 268.445312 296.210938 C 267.714844 295.542969 267.347656 294.6875 267.347656 293.652344 C 267.347656 293.039062 267.480469 292.480469 267.761719 291.976562 C 268.039062 291.472656 268.402344 291.070312 268.851562 290.765625 C 269.300781 290.460938 269.804688 290.230469 270.371094 290.074219 C 270.78125 289.964844 271.40625 289.859375 272.242188 289.757812 C 273.945312 289.554688 275.203125 289.3125 276.007812 289.03125 C 276.015625 288.742188 276.019531 288.558594 276.019531 288.480469 C 276.019531 287.621094 275.820312 287.015625 275.417969 286.667969 C 274.882812 286.1875 274.078125 285.949219 273.019531 285.949219 C 272.027344 285.949219 271.296875 286.121094 270.820312 286.46875 C 270.347656 286.820312 269.996094 287.433594 269.769531 288.320312 L 267.710938 288.035156 C 267.898438 287.15625 268.207031 286.4375 268.632812 285.898438 C 269.0625 285.355469 269.6875 284.933594 270.496094 284.640625 C 271.3125 284.351562 272.25 284.203125 273.320312 284.203125 C 274.386719 284.203125 275.246094 284.332031 275.910156 284.578125 C 276.574219 284.832031 277.0625 285.140625 277.378906 285.523438 C 277.691406 285.902344 277.90625 286.378906 278.035156 286.957031 C 278.101562 287.320312 278.136719 287.964844 278.136719 288.902344 L 278.136719 291.714844 C 278.136719 293.679688 278.183594 294.917969 278.273438 295.433594 C 278.363281 295.953125 278.542969 296.453125 278.808594 296.929688 L 276.601562 296.929688 C 276.386719 296.496094 276.242188 295.980469 276.183594 295.394531 Z M 276.007812 290.683594 C 275.238281 291 274.089844 291.261719 272.5625 291.480469 C 271.695312 291.605469 271.078125 291.746094 270.722656 291.902344 C 270.363281 292.058594 270.082031 292.285156 269.890625 292.589844 C 269.695312 292.890625 269.59375 293.222656 269.59375 293.589844 C 269.59375 294.15625 269.8125 294.621094 270.234375 294.996094 C 270.660156 295.371094 271.28125 295.558594 272.101562 295.558594 C 272.914062 295.558594 273.636719 295.382812 274.269531 295.027344 C 274.902344 294.671875 275.371094 294.183594 275.664062 293.566406 C 275.894531 293.089844 276.007812 292.386719 276.007812 291.457031 L 276.007812 290.683594 "/>
<path fill-rule="nonzero" fill="rgb(13.729858%, 12.159729%, 12.548828%)" fill-opacity="1" d="M 281.363281 296.929688 L 281.363281 279.75 L 283.46875 279.75 L 283.46875 296.929688 L 281.363281 296.929688 "/>
</svg>
