<?xml version="1.0" encoding="UTF-8"?>
<svg xmlns="http://www.w3.org/2000/svg" xmlns:xlink="http://www.w3.org/1999/xlink" width="413" height="320" viewBox="0 0 413 320">
<path fill="none" stroke-width="19.9984" stroke-linecap="butt" stroke-linejoin="miter" stroke="rgb(13.729858%, 12.159729%, 12.548828%)" stroke-opacity="1" stroke-miterlimit="22.9256" d="M 4.765625 2205 L 3854.21875 2205 " transform="matrix(0.1, 0, 0, -0.1, 0, 320)"/>
<path fill-rule="evenodd" fill="rgb(13.729858%, 12.159729%, 12.548828%)" fill-opacity="1" d="M 384.597656 94.273438 L 394.101562 99.5 L 384.597656 104.730469 Z M 384.597656 94.273438 "/>
<path fill="none" stroke-width="19.9984" stroke-linecap="butt" stroke-linejoin="miter" stroke="rgb(13.729858%, 12.159729%, 12.548828%)" stroke-opacity="1" stroke-miterlimit="22.9256" d="M 35.742188 306.445312 L 3885.195312 306.445312 " transform="matrix(0.1, 0, 0, -0.1, 0, 320)"/>
<path fill-rule="evenodd" fill="rgb(13.729858%, 12.159729%, 12.548828%)" fill-opacity="1" d="M 387.695312 284.125 L 397.199219 289.355469 L 387.695312 294.582031 Z M 387.695312 284.125 "/>
<path fill="none" stroke-width="19.9984" stroke-linecap="butt" stroke-linejoin="miter" stroke="rgb(13.729858%, 12.159729%, 12.548828%)" stroke-opacity="1" stroke-miterlimit="22.9256" d="M 1972.851562 2970.507812 L 1972.890625 2205 " transform="matrix(0.1, 0, 0, -0.1, 0, 320)"/>
<path fill-rule="evenodd" fill="rgb(13.729858%, 12.159729%, 12.548828%)" fill-opacity="1" d="M 202.515625 23.769531 L 197.285156 14.265625 L 192.058594 23.769531 Z M 202.515625 23.769531 "/>
<path fill="none" stroke-width="19.9984" stroke-linecap="butt" stroke-linejoin="miter" stroke="rgb(13.729858%, 12.159729%, 12.548828%)" stroke-opacity="1" stroke-miterlimit="22.9256" d="M 2003.828125 1071.992188 L 2003.867188 306.445312 " transform="matrix(0.1, 0, 0, -0.1, 0, 320)"/>
<path fill-rule="evenodd" fill="rgb(13.729858%, 12.159729%, 12.548828%)" fill-opacity="1" d="M 205.613281 213.625 L 200.382812 204.121094 L 195.15625 213.625 Z M 205.613281 213.625 "/>
<path fill="none" stroke-width="19.9984" stroke-linecap="butt" stroke-linejoin="miter" stroke="rgb(13.729858%, 12.159729%, 12.548828%)" stroke-opacity="1" stroke-miterlimit="22.9256" d="M 2577.265625 2328.984375 L 2577.265625 2205 " transform="matrix(0.1, 0, 0, -0.1, 0, 320)"/>
<path fill="none" stroke-width="19.9984" stroke-linecap="butt" stroke-linejoin="miter" stroke="rgb(13.729858%, 12.159729%, 12.548828%)" stroke-opacity="1" stroke-miterlimit="22.9256" d="M 2608.242188 430.429688 L 2608.242188 306.445312 " transform="matrix(0.1, 0, 0, -0.1, 0, 320)"/>
<path fill="none" stroke-width="19.9984" stroke-linecap="butt" stroke-linejoin="miter" stroke="rgb(13.729858%, 12.159729%, 12.548828%)" stroke-opacity="1" stroke-miterlimit="22.9256" d="M 3313.125 2336.289062 L 3313.125 2212.304688 " transform="matrix(0.1, 0, 0, -0.1, 0, 320)"/>
<path fill="none" stroke-width="19.9984" stroke-linecap="butt" stroke-linejoin="miter" stroke="rgb(13.729858%, 12.159729%, 12.548828%)" stroke-opacity="1" stroke-miterlimit="22.9256" d="M 3344.0625 437.734375 L 3344.0625 313.75 " transform="matrix(0.1, 0, 0, -0.1, 0, 320)"/>
<path fill="none" stroke-width="19.9984" stroke-linecap="butt" stroke-linejoin="miter" stroke="rgb(13.729858%, 12.159729%, 12.548828%)" stroke-opacity="1" stroke-miterlimit="22.9256" d="M 733.320312 2328.515625 L 733.320312 2204.53125 " transform="matrix(0.1, 0, 0, -0.1, 0, 320)"/>
<path fill="none" stroke-width="19.9984" stroke-linecap="butt" stroke-linejoin="miter" stroke="rgb(13.729858%, 12.159729%, 12.548828%)" stroke-opacity="1" stroke-miterlimit="22.9256" d="M 764.296875 430 L 764.296875 306.015625 " transform="matrix(0.1, 0, 0, -0.1, 0, 320)"/>
<path fill="none" stroke-width="19.9984" stroke-linecap="butt" stroke-linejoin="miter" stroke="rgb(13.729858%, 12.159729%, 12.548828%)" stroke-opacity="1" stroke-miterlimit="22.9256" d="M 1389.257812 2328.945312 L 1389.257812 2205 " transform="matrix(0.1, 0, 0, -0.1, 0, 320)"/>
<path fill="none" stroke-width="19.9984" stroke-linecap="butt" stroke-linejoin="miter" stroke="rgb(13.729858%, 12.159729%, 12.548828%)" stroke-opacity="1" stroke-miterlimit="22.9256" d="M 1420.234375 430.429688 L 1420.234375 306.445312 " transform="matrix(0.1, 0, 0, -0.1, 0, 320)"/>
<path fill-rule="nonzero" fill="rgb(13.729858%, 12.159729%, 12.548828%)" fill-opacity="1" d="M 240.074219 129.050781 L 240.074219 111.871094 L 251.664062 111.871094 L 251.664062 113.898438 L 242.351562 113.898438 L 242.351562 119.21875 L 250.410156 119.21875 L 250.410156 121.246094 L 242.351562 121.246094 L 242.351562 129.050781 L 240.074219 129.050781 "/>
<path fill-rule="nonzero" fill="rgb(13.729858%, 12.159729%, 12.548828%)" fill-opacity="1" d="M 253.507812 125.335938 L 255.589844 125.007812 C 255.707031 125.84375 256.035156 126.484375 256.570312 126.929688 C 257.101562 127.375 257.851562 127.597656 258.8125 127.597656 C 259.78125 127.597656 260.503906 127.398438 260.96875 127.007812 C 261.4375 126.609375 261.675781 126.148438 261.675781 125.617188 C 261.675781 125.140625 261.464844 124.765625 261.050781 124.492188 C 260.761719 124.304688 260.042969 124.066406 258.894531 123.777344 C 257.351562 123.386719 256.273438 123.050781 255.679688 122.761719 C 255.082031 122.480469 254.625 122.082031 254.316406 121.578125 C 254.011719 121.074219 253.855469 120.519531 253.855469 119.910156 C 253.855469 119.355469 253.980469 118.84375 254.238281 118.371094 C 254.488281 117.894531 254.839844 117.503906 255.273438 117.191406 C 255.601562 116.949219 256.050781 116.742188 256.613281 116.574219 C 257.183594 116.40625 257.789062 116.324219 258.4375 116.324219 C 259.414062 116.324219 260.269531 116.46875 261.011719 116.746094 C 261.75 117.027344 262.292969 117.40625 262.644531 117.886719 C 262.996094 118.371094 263.238281 119.011719 263.371094 119.816406 L 261.308594 120.097656 C 261.214844 119.460938 260.941406 118.960938 260.492188 118.597656 C 260.046875 118.238281 259.410156 118.058594 258.589844 118.058594 C 257.621094 118.058594 256.929688 118.21875 256.519531 118.539062 C 256.101562 118.859375 255.894531 119.234375 255.894531 119.664062 C 255.894531 119.9375 255.980469 120.183594 256.152344 120.402344 C 256.324219 120.632812 256.59375 120.816406 256.960938 120.96875 C 257.175781 121.042969 257.792969 121.222656 258.824219 121.503906 C 260.316406 121.902344 261.359375 122.226562 261.945312 122.484375 C 262.539062 122.734375 263.003906 123.105469 263.339844 123.589844 C 263.675781 124.074219 263.84375 124.675781 263.84375 125.394531 C 263.84375 126.097656 263.632812 126.757812 263.226562 127.382812 C 262.8125 128.003906 262.222656 128.484375 261.449219 128.824219 C 260.679688 129.164062 259.800781 129.332031 258.824219 129.332031 C 257.207031 129.332031 255.972656 128.996094 255.125 128.324219 C 254.277344 127.652344 253.738281 126.65625 253.507812 125.335938 "/>
<path fill-rule="nonzero" fill="rgb(13.729858%, 12.159729%, 12.548828%)" fill-opacity="1" d="M 264.765625 129.34375 L 269.746094 111.578125 L 271.433594 111.578125 L 266.464844 129.34375 L 264.765625 129.34375 "/>
<path fill-rule="nonzero" fill="rgb(13.729858%, 12.159729%, 12.548828%)" fill-opacity="1" d="M 283.519531 127.023438 L 283.519531 129.050781 L 272.160156 129.050781 C 272.144531 128.542969 272.226562 128.054688 272.40625 127.585938 C 272.695312 126.8125 273.15625 126.050781 273.792969 125.300781 C 274.433594 124.550781 275.355469 123.683594 276.554688 122.699219 C 278.421875 121.167969 279.6875 119.953125 280.34375 119.058594 C 280.996094 118.167969 281.324219 117.320312 281.324219 116.523438 C 281.324219 115.6875 281.027344 114.984375 280.429688 114.40625 C 279.828125 113.835938 279.050781 113.546875 278.089844 113.546875 C 277.074219 113.546875 276.261719 113.851562 275.652344 114.464844 C 275.042969 115.070312 274.734375 115.914062 274.726562 116.992188 L 272.558594 116.769531 C 272.707031 115.152344 273.265625 113.917969 274.234375 113.070312 C 275.203125 112.222656 276.507812 111.800781 278.136719 111.800781 C 279.785156 111.800781 281.089844 112.257812 282.050781 113.171875 C 283.015625 114.085938 283.492188 115.21875 283.492188 116.570312 C 283.492188 117.257812 283.355469 117.933594 283.070312 118.597656 C 282.789062 119.261719 282.320312 119.964844 281.671875 120.695312 C 281.019531 121.429688 279.933594 122.4375 278.417969 123.71875 C 277.152344 124.78125 276.34375 125.503906 275.980469 125.882812 C 275.621094 126.257812 275.324219 126.640625 275.089844 127.023438 L 283.519531 127.023438 "/>
<path fill-rule="nonzero" fill="rgb(13.729858%, 12.159729%, 12.548828%)" fill-opacity="1" d="M 243.171875 318.90625 L 243.171875 301.726562 L 254.765625 301.726562 L 254.765625 303.753906 L 245.449219 303.753906 L 245.449219 309.074219 L 253.507812 309.074219 L 253.507812 311.101562 L 245.449219 311.101562 L 245.449219 318.90625 L 243.171875 318.90625 "/>
<path fill-rule="nonzero" fill="rgb(13.729858%, 12.159729%, 12.548828%)" fill-opacity="1" d="M 256.605469 315.1875 L 258.6875 314.863281 C 258.804688 315.699219 259.132812 316.335938 259.667969 316.785156 C 260.199219 317.230469 260.945312 317.453125 261.910156 317.453125 C 262.878906 317.453125 263.601562 317.253906 264.066406 316.863281 C 264.535156 316.464844 264.769531 316 264.769531 315.472656 C 264.769531 314.992188 264.5625 314.621094 264.148438 314.34375 C 263.859375 314.15625 263.140625 313.921875 261.992188 313.632812 C 260.445312 313.242188 259.371094 312.90625 258.773438 312.617188 C 258.179688 312.332031 257.722656 311.9375 257.414062 311.433594 C 257.105469 310.929688 256.953125 310.375 256.953125 309.765625 C 256.953125 309.210938 257.078125 308.699219 257.335938 308.226562 C 257.589844 307.75 257.9375 307.355469 258.371094 307.042969 C 258.699219 306.804688 259.148438 306.597656 259.710938 306.429688 C 260.28125 306.261719 260.886719 306.175781 261.535156 306.175781 C 262.511719 306.175781 263.367188 306.320312 264.105469 306.601562 C 264.847656 306.882812 265.390625 307.261719 265.742188 307.742188 C 266.09375 308.226562 266.335938 308.863281 266.46875 309.667969 L 264.40625 309.953125 C 264.3125 309.3125 264.039062 308.8125 263.589844 308.453125 C 263.144531 308.09375 262.507812 307.914062 261.6875 307.914062 C 260.71875 307.914062 260.027344 308.074219 259.613281 308.394531 C 259.199219 308.714844 258.992188 309.089844 258.992188 309.515625 C 258.992188 309.792969 259.078125 310.039062 259.253906 310.257812 C 259.421875 310.484375 259.691406 310.667969 260.058594 310.820312 C 260.269531 310.898438 260.890625 311.078125 261.921875 311.355469 C 263.414062 311.757812 264.453125 312.082031 265.042969 312.335938 C 265.636719 312.589844 266.097656 312.960938 266.4375 313.445312 C 266.769531 313.929688 266.9375 314.53125 266.9375 315.25 C 266.9375 315.953125 266.730469 316.613281 266.324219 317.238281 C 265.910156 317.855469 265.320312 318.335938 264.546875 318.675781 C 263.773438 319.015625 262.898438 319.183594 261.921875 319.183594 C 260.304688 319.183594 259.070312 318.847656 258.222656 318.175781 C 257.375 317.503906 256.835938 316.507812 256.605469 315.1875 "/>
<path fill-rule="nonzero" fill="rgb(13.729858%, 12.159729%, 12.548828%)" fill-opacity="1" d="M 267.863281 319.199219 L 272.84375 301.433594 L 274.53125 301.433594 L 269.5625 319.199219 L 267.863281 319.199219 "/>
<path fill-rule="nonzero" fill="rgb(13.729858%, 12.159729%, 12.548828%)" fill-opacity="1" d="M 286.617188 316.878906 L 286.617188 318.90625 L 275.257812 318.90625 C 275.242188 318.398438 275.324219 317.910156 275.503906 317.441406 C 275.789062 316.664062 276.253906 315.90625 276.890625 315.152344 C 277.53125 314.40625 278.453125 313.539062 279.652344 312.554688 C 281.519531 311.019531 282.785156 309.808594 283.441406 308.914062 C 284.097656 308.023438 284.421875 307.171875 284.421875 306.378906 C 284.421875 305.542969 284.125 304.835938 283.527344 304.261719 C 282.925781 303.6875 282.148438 303.402344 281.1875 303.402344 C 280.171875 303.402344 279.359375 303.707031 278.753906 304.316406 C 278.140625 304.925781 277.832031 305.769531 277.824219 306.84375 L 275.65625 306.625 C 275.804688 305.003906 276.363281 303.773438 277.332031 302.925781 C 278.300781 302.078125 279.605469 301.652344 281.234375 301.652344 C 282.882812 301.652344 284.1875 302.113281 285.148438 303.027344 C 286.113281 303.941406 286.589844 305.074219 286.589844 306.425781 C 286.589844 307.113281 286.453125 307.789062 286.167969 308.453125 C 285.886719 309.117188 285.421875 309.816406 284.769531 310.550781 C 284.117188 311.285156 283.03125 312.292969 281.515625 313.574219 C 280.253906 314.636719 279.4375 315.355469 279.078125 315.738281 C 278.71875 316.113281 278.421875 316.492188 278.1875 316.878906 L 286.617188 316.878906 "/>
<path fill-rule="nonzero" fill="rgb(13.729858%, 12.159729%, 12.548828%)" fill-opacity="1" d="M 112.464844 123.894531 L 112.464844 121.773438 L 118.949219 121.773438 L 118.949219 123.894531 L 112.464844 123.894531 "/>
<path fill-rule="nonzero" fill="rgb(13.729858%, 12.159729%, 12.548828%)" fill-opacity="1" d="M 121.664062 129.050781 L 121.664062 111.871094 L 133.257812 111.871094 L 133.257812 113.898438 L 123.941406 113.898438 L 123.941406 119.21875 L 132.003906 119.21875 L 132.003906 121.246094 L 123.941406 121.246094 L 123.941406 129.050781 L 121.664062 129.050781 "/>
<path fill-rule="nonzero" fill="rgb(13.729858%, 12.159729%, 12.548828%)" fill-opacity="1" d="M 135.097656 125.335938 L 137.183594 125.007812 C 137.296875 125.84375 137.625 126.484375 138.160156 126.929688 C 138.695312 127.375 139.441406 127.597656 140.40625 127.597656 C 141.375 127.597656 142.09375 127.398438 142.5625 127.007812 C 143.03125 126.609375 143.265625 126.148438 143.265625 125.617188 C 143.265625 125.140625 143.058594 124.765625 142.640625 124.492188 C 142.355469 124.304688 141.632812 124.066406 140.484375 123.777344 C 138.941406 123.386719 137.867188 123.050781 137.269531 122.761719 C 136.675781 122.480469 136.21875 122.082031 135.910156 121.578125 C 135.601562 121.074219 135.445312 120.519531 135.445312 119.910156 C 135.445312 119.355469 135.574219 118.84375 135.828125 118.371094 C 136.082031 117.894531 136.429688 117.503906 136.867188 117.191406 C 137.195312 116.949219 137.640625 116.742188 138.207031 116.574219 C 138.773438 116.40625 139.382812 116.324219 140.03125 116.324219 C 141.007812 116.324219 141.863281 116.46875 142.601562 116.746094 C 143.34375 117.027344 143.886719 117.40625 144.238281 117.886719 C 144.589844 118.371094 144.828125 119.011719 144.960938 119.816406 L 142.902344 120.097656 C 142.804688 119.460938 142.535156 118.960938 142.085938 118.597656 C 141.636719 118.238281 141.003906 118.058594 140.183594 118.058594 C 139.214844 118.058594 138.523438 118.21875 138.109375 118.539062 C 137.695312 118.859375 137.484375 119.234375 137.484375 119.664062 C 137.484375 119.9375 137.574219 120.183594 137.746094 120.402344 C 137.917969 120.632812 138.1875 120.816406 138.554688 120.96875 C 138.765625 121.042969 139.386719 121.222656 140.417969 121.503906 C 141.910156 121.902344 142.949219 122.226562 143.539062 122.484375 C 144.128906 122.734375 144.59375 123.105469 144.929688 123.589844 C 145.265625 124.074219 145.433594 124.675781 145.433594 125.394531 C 145.433594 126.097656 145.226562 126.757812 144.816406 127.382812 C 144.40625 128.003906 143.8125 128.484375 143.042969 128.824219 C 142.269531 129.164062 141.394531 129.332031 140.417969 129.332031 C 138.796875 129.332031 137.566406 128.996094 136.71875 128.324219 C 135.871094 127.652344 135.328125 126.65625 135.097656 125.335938 "/>
<path fill-rule="nonzero" fill="rgb(13.729858%, 12.159729%, 12.548828%)" fill-opacity="1" d="M 146.359375 129.34375 L 151.339844 111.578125 L 153.027344 111.578125 L 148.058594 129.34375 L 146.359375 129.34375 "/>
<path fill-rule="nonzero" fill="rgb(13.729858%, 12.159729%, 12.548828%)" fill-opacity="1" d="M 165.109375 127.023438 L 165.109375 129.050781 L 153.753906 129.050781 C 153.738281 128.542969 153.816406 128.054688 153.996094 127.585938 C 154.285156 126.8125 154.75 126.050781 155.386719 125.300781 C 156.027344 124.550781 156.945312 123.683594 158.144531 122.699219 C 160.015625 121.167969 161.277344 119.953125 161.933594 119.058594 C 162.589844 118.167969 162.917969 117.320312 162.917969 116.523438 C 162.917969 115.6875 162.617188 114.984375 162.023438 114.40625 C 161.421875 113.835938 160.640625 113.546875 159.683594 113.546875 C 158.664062 113.546875 157.855469 113.851562 157.246094 114.464844 C 156.632812 115.070312 156.324219 115.914062 156.316406 116.992188 L 154.148438 116.769531 C 154.296875 115.152344 154.859375 113.917969 155.824219 113.070312 C 156.792969 112.222656 158.097656 111.800781 159.730469 111.800781 C 161.378906 111.800781 162.683594 112.257812 163.640625 113.171875 C 164.605469 114.085938 165.085938 115.21875 165.085938 116.570312 C 165.085938 117.257812 164.945312 117.933594 164.660156 118.597656 C 164.382812 119.261719 163.914062 119.964844 163.261719 120.695312 C 162.609375 121.429688 161.527344 122.4375 160.011719 123.71875 C 158.746094 124.78125 157.933594 125.503906 157.574219 125.882812 C 157.214844 126.257812 156.917969 126.640625 156.683594 127.023438 L 165.109375 127.023438 "/>
<path fill-rule="nonzero" fill="rgb(13.729858%, 12.159729%, 12.548828%)" fill-opacity="1" d="M 115.5625 313.75 L 115.5625 311.628906 L 122.046875 311.628906 L 122.046875 313.75 L 115.5625 313.75 "/>
<path fill-rule="nonzero" fill="rgb(13.729858%, 12.159729%, 12.548828%)" fill-opacity="1" d="M 124.765625 318.90625 L 124.765625 301.726562 L 136.355469 301.726562 L 136.355469 303.753906 L 127.039062 303.753906 L 127.039062 309.074219 L 135.101562 309.074219 L 135.101562 311.101562 L 127.039062 311.101562 L 127.039062 318.90625 L 124.765625 318.90625 "/>
<path fill-rule="nonzero" fill="rgb(13.729858%, 12.159729%, 12.548828%)" fill-opacity="1" d="M 138.195312 315.1875 L 140.277344 314.863281 C 140.394531 315.699219 140.722656 316.335938 141.261719 316.785156 C 141.792969 317.230469 142.539062 317.453125 143.503906 317.453125 C 144.472656 317.453125 145.191406 317.253906 145.660156 316.863281 C 146.128906 316.464844 146.363281 316 146.363281 315.472656 C 146.363281 314.992188 146.15625 314.621094 145.738281 314.34375 C 145.453125 314.15625 144.730469 313.921875 143.585938 313.632812 C 142.039062 313.242188 140.964844 312.90625 140.367188 312.617188 C 139.769531 312.332031 139.316406 311.9375 139.007812 311.433594 C 138.699219 310.929688 138.542969 310.375 138.542969 309.765625 C 138.542969 309.210938 138.671875 308.699219 138.925781 308.226562 C 139.179688 307.75 139.527344 307.355469 139.964844 307.042969 C 140.289062 306.804688 140.738281 306.597656 141.304688 306.429688 C 141.871094 306.261719 142.480469 306.175781 143.128906 306.175781 C 144.105469 306.175781 144.960938 306.320312 145.699219 306.601562 C 146.4375 306.882812 146.984375 307.261719 147.335938 307.742188 C 147.6875 308.226562 147.925781 308.863281 148.058594 309.667969 L 146 309.953125 C 145.902344 309.3125 145.632812 308.8125 145.183594 308.453125 C 144.734375 308.09375 144.101562 307.914062 143.28125 307.914062 C 142.3125 307.914062 141.621094 308.074219 141.207031 308.394531 C 140.789062 308.714844 140.585938 309.089844 140.585938 309.515625 C 140.585938 309.792969 140.671875 310.039062 140.84375 310.257812 C 141.015625 310.484375 141.28125 310.667969 141.652344 310.820312 C 141.863281 310.898438 142.484375 311.078125 143.515625 311.355469 C 145.007812 311.757812 146.046875 312.082031 146.636719 312.335938 C 147.226562 312.589844 147.691406 312.960938 148.027344 313.445312 C 148.363281 313.929688 148.53125 314.53125 148.53125 315.25 C 148.53125 315.953125 148.324219 316.613281 147.914062 317.238281 C 147.503906 317.855469 146.910156 318.335938 146.140625 318.675781 C 145.367188 319.015625 144.492188 319.183594 143.515625 319.183594 C 141.894531 319.183594 140.664062 318.847656 139.816406 318.175781 C 138.96875 317.503906 138.425781 316.507812 138.195312 315.1875 "/>
<path fill-rule="nonzero" fill="rgb(13.729858%, 12.159729%, 12.548828%)" fill-opacity="1" d="M 149.453125 319.199219 L 154.4375 301.433594 L 156.121094 301.433594 L 151.15625 319.199219 L 149.453125 319.199219 "/>
<path fill-rule="nonzero" fill="rgb(13.729858%, 12.159729%, 12.548828%)" fill-opacity="1" d="M 168.207031 316.878906 L 168.207031 318.90625 L 156.851562 318.90625 C 156.835938 318.398438 156.914062 317.910156 157.097656 317.441406 C 157.382812 316.664062 157.847656 315.90625 158.484375 315.152344 C 159.121094 314.40625 160.042969 313.539062 161.242188 312.554688 C 163.113281 311.019531 164.375 309.808594 165.03125 308.914062 C 165.6875 308.023438 166.015625 307.171875 166.015625 306.378906 C 166.015625 305.542969 165.714844 304.835938 165.121094 304.261719 C 164.519531 303.6875 163.738281 303.402344 162.78125 303.402344 C 161.765625 303.402344 160.953125 303.707031 160.34375 304.316406 C 159.730469 304.925781 159.425781 305.769531 159.414062 306.84375 L 157.246094 306.625 C 157.394531 305.003906 157.953125 303.773438 158.925781 302.925781 C 159.890625 302.078125 161.195312 301.652344 162.828125 301.652344 C 164.476562 301.652344 165.78125 302.113281 166.738281 303.027344 C 167.703125 303.941406 168.183594 305.074219 168.183594 306.425781 C 168.183594 307.113281 168.042969 307.789062 167.757812 308.453125 C 167.480469 309.117188 167.011719 309.816406 166.359375 310.550781 C 165.707031 311.285156 164.621094 312.292969 163.109375 313.574219 C 161.84375 314.636719 161.03125 315.355469 160.671875 315.738281 C 160.3125 316.113281 160.015625 316.492188 159.78125 316.878906 L 168.207031 316.878906 "/>
<path fill-rule="nonzero" fill="rgb(13.729858%, 12.159729%, 12.548828%)" fill-opacity="1" d="M 206.46875 18.066406 L 213.117188 9.117188 L 207.257812 0.886719 L 209.960938 0.886719 L 213.078125 5.296875 C 213.730469 6.207031 214.1875 6.910156 214.460938 7.402344 C 214.84375 6.78125 215.296875 6.128906 215.820312 5.449219 L 219.28125 0.886719 L 221.753906 0.886719 L 215.714844 8.984375 L 222.21875 18.066406 L 219.410156 18.066406 L 215.085938 11.941406 C 214.839844 11.589844 214.59375 11.203125 214.332031 10.792969 C 213.949219 11.414062 213.675781 11.84375 213.511719 12.078125 L 209.199219 18.066406 L 206.46875 18.066406 "/>
<path fill-rule="nonzero" fill="rgb(13.729858%, 12.159729%, 12.548828%)" fill-opacity="1" d="M 232.078125 16.53125 C 231.292969 17.195312 230.539062 17.664062 229.820312 17.9375 C 229.097656 18.210938 228.320312 18.347656 227.492188 18.347656 C 226.125 18.347656 225.078125 18.015625 224.339844 17.347656 C 223.609375 16.679688 223.238281 15.824219 223.238281 14.789062 C 223.238281 14.175781 223.378906 13.621094 223.65625 13.117188 C 223.933594 12.613281 224.296875 12.207031 224.746094 11.902344 C 225.195312 11.601562 225.699219 11.367188 226.265625 11.210938 C 226.675781 11.105469 227.300781 10.996094 228.136719 10.894531 C 229.839844 10.691406 231.097656 10.453125 231.898438 10.167969 C 231.910156 9.878906 231.914062 9.695312 231.914062 9.621094 C 231.914062 8.761719 231.714844 8.152344 231.3125 7.804688 C 230.777344 7.324219 229.972656 7.089844 228.914062 7.089844 C 227.921875 7.089844 227.1875 7.261719 226.714844 7.605469 C 226.238281 7.957031 225.894531 8.570312 225.664062 9.457031 L 223.605469 9.171875 C 223.792969 8.289062 224.101562 7.574219 224.527344 7.035156 C 224.957031 6.492188 225.578125 6.070312 226.394531 5.78125 C 227.203125 5.488281 228.144531 5.339844 229.214844 5.339844 C 230.28125 5.339844 231.140625 5.46875 231.804688 5.714844 C 232.46875 5.96875 232.957031 6.28125 233.273438 6.660156 C 233.585938 7.039062 233.800781 7.515625 233.929688 8.097656 C 233.996094 8.457031 234.03125 9.105469 234.03125 10.039062 L 234.03125 12.851562 C 234.03125 14.816406 234.078125 16.054688 234.167969 16.570312 C 234.257812 17.09375 234.4375 17.59375 234.699219 18.066406 L 232.496094 18.066406 C 232.28125 17.632812 232.136719 17.121094 232.078125 16.53125 Z M 231.898438 11.820312 C 231.132812 12.136719 229.984375 12.398438 228.457031 12.621094 C 227.589844 12.742188 226.972656 12.882812 226.617188 13.039062 C 226.257812 13.195312 225.976562 13.425781 225.785156 13.726562 C 225.589844 14.027344 225.488281 14.359375 225.488281 14.726562 C 225.488281 15.292969 225.703125 15.761719 226.128906 16.136719 C 226.550781 16.507812 227.175781 16.695312 227.996094 16.695312 C 228.808594 16.695312 229.53125 16.519531 230.164062 16.164062 C 230.796875 15.808594 231.265625 15.320312 231.558594 14.703125 C 231.789062 14.226562 231.898438 13.523438 231.898438 12.597656 L 231.898438 11.820312 "/>
<path fill-rule="nonzero" fill="rgb(13.729858%, 12.159729%, 12.548828%)" fill-opacity="1" d="M 209.566406 207.921875 L 216.214844 198.96875 L 210.355469 190.742188 L 213.058594 190.742188 L 216.179688 195.148438 C 216.824219 196.0625 217.285156 196.765625 217.558594 197.257812 C 217.941406 196.632812 218.394531 195.980469 218.917969 195.300781 L 222.378906 190.742188 L 224.851562 190.742188 L 218.8125 198.839844 L 225.316406 207.921875 L 222.507812 207.921875 L 218.183594 201.792969 C 217.9375 201.441406 217.691406 201.058594 217.429688 200.644531 C 217.046875 201.269531 216.773438 201.699219 216.609375 201.933594 L 212.296875 207.921875 L 209.566406 207.921875 "/>
<path fill-rule="nonzero" fill="rgb(13.729858%, 12.159729%, 12.548828%)" fill-opacity="1" d="M 397.617188 122.746094 L 397.617188 105.566406 L 409.210938 105.566406 L 409.210938 107.59375 L 399.894531 107.59375 L 399.894531 112.914062 L 407.953125 112.914062 L 407.953125 114.941406 L 399.894531 114.941406 L 399.894531 122.746094 L 397.617188 122.746094 "/>
<path fill-rule="nonzero" fill="rgb(13.729858%, 12.159729%, 12.548828%)" fill-opacity="1" d="M 400.714844 312.601562 L 400.714844 295.421875 L 412.304688 295.421875 L 412.304688 297.449219 L 402.988281 297.449219 L 402.988281 302.769531 L 411.050781 302.769531 L 411.050781 304.796875 L 402.988281 304.796875 L 402.988281 312.601562 L 400.714844 312.601562 "/>
<path fill="none" stroke-width="19.9984" stroke-linecap="butt" stroke-linejoin="miter" stroke="rgb(13.729858%, 12.159729%, 12.548828%)" stroke-opacity="1" stroke-dasharray="19.9984 19.9984" stroke-miterlimit="22.9256" d="M 1624.257812 2205 C 1655.664062 2412.734375 1626.40625 2493.359375 1779.179688 2646.132812 C 1810.664062 2677.65625 1912.226562 2715.859375 1972.890625 2715.859375 " transform="matrix(0.1, 0, 0, -0.1, 0, 320)"/>
<path fill="none" stroke-width="19.9984" stroke-linecap="butt" stroke-linejoin="miter" stroke="rgb(13.729858%, 12.159729%, 12.548828%)" stroke-opacity="1" stroke-dasharray="19.9984 19.9984" stroke-miterlimit="22.9256" d="M 2319.375 2205 C 2287.96875 2412.734375 2317.1875 2493.359375 2164.414062 2646.132812 C 2132.929688 2677.65625 2031.40625 2715.859375 1970.742188 2715.859375 " transform="matrix(0.1, 0, 0, -0.1, 0, 320)"/>
<path fill="none" stroke-width="19.9984" stroke-linecap="butt" stroke-linejoin="miter" stroke="rgb(13.729858%, 12.159729%, 12.548828%)" stroke-opacity="1" stroke-dasharray="19.9984 19.9984" stroke-miterlimit="22.9256" d="M 409.921875 316.054688 C 441.328125 523.789062 412.070312 604.453125 564.84375 757.226562 C 596.367188 788.710938 697.890625 826.953125 758.554688 826.953125 " transform="matrix(0.1, 0, 0, -0.1, 0, 320)"/>
<path fill="none" stroke-width="19.9984" stroke-linecap="butt" stroke-linejoin="miter" stroke="rgb(13.729858%, 12.159729%, 12.548828%)" stroke-opacity="1" stroke-dasharray="19.9984 19.9984" stroke-miterlimit="22.9256" d="M 1105.039062 316.054688 C 1073.632812 523.789062 1102.890625 604.453125 950.117188 757.226562 C 918.59375 788.710938 817.070312 826.953125 756.40625 826.953125 " transform="matrix(0.1, 0, 0, -0.1, 0, 320)"/>
<path fill="none" stroke-width="19.9984" stroke-linecap="butt" stroke-linejoin="miter" stroke="rgb(13.729858%, 12.159729%, 12.548828%)" stroke-opacity="1" stroke-dasharray="19.9984 19.9984" stroke-miterlimit="22.9256" d="M 3006.992188 325.625 C 3038.4375 533.359375 3009.179688 613.984375 3161.953125 766.757812 C 3193.4375 798.28125 3294.960938 836.484375 3355.625 836.484375 " transform="matrix(0.1, 0, 0, -0.1, 0, 320)"/>
<path fill="none" stroke-width="19.9984" stroke-linecap="butt" stroke-linejoin="miter" stroke="rgb(13.729858%, 12.159729%, 12.548828%)" stroke-opacity="1" stroke-dasharray="19.9984 19.9984" stroke-miterlimit="22.9256" d="M 3702.148438 325.625 C 3670.703125 533.359375 3699.960938 613.984375 3547.1875 766.757812 C 3515.703125 798.28125 3414.140625 836.484375 3353.515625 836.484375 " transform="matrix(0.1, 0, 0, -0.1, 0, 320)"/>
<path fill="none" stroke-width="19.9984" stroke-linecap="butt" stroke-linejoin="miter" stroke="rgb(13.729858%, 12.159729%, 12.548828%)" stroke-opacity="1" stroke-dasharray="19.9984 19.9984" stroke-miterlimit="22.9256" d="M 1672.539062 316.015625 C 1703.945312 523.75 1674.6875 604.375 1827.460938 757.1875 C 1858.984375 788.671875 1960.507812 826.875 2021.171875 826.875 " transform="matrix(0.1, 0, 0, -0.1, 0, 320)"/>
<path fill="none" stroke-width="19.9984" stroke-linecap="butt" stroke-linejoin="miter" stroke="rgb(13.729858%, 12.159729%, 12.548828%)" stroke-opacity="1" stroke-dasharray="19.9984 19.9984" stroke-miterlimit="22.9256" d="M 2367.65625 316.015625 C 2336.210938 523.75 2365.507812 604.375 2212.695312 757.1875 C 2181.210938 788.671875 2079.6875 826.875 2019.023438 826.875 " transform="matrix(0.1, 0, 0, -0.1, 0, 320)"/>
<path fill-rule="nonzero" fill="rgb(13.729858%, 12.159729%, 12.548828%)" fill-opacity="1" d="M 11.765625 15.886719 C 10.980469 16.554688 10.226562 17.019531 9.507812 17.296875 C 8.785156 17.566406 8.007812 17.703125 7.179688 17.703125 C 5.8125 17.703125 4.761719 17.371094 4.027344 16.703125 C 3.296875 16.035156 2.925781 15.179688 2.925781 14.144531 C 2.925781 13.53125 3.0625 12.976562 3.34375 12.472656 C 3.621094 11.96875 3.984375 11.5625 4.429688 11.261719 C 4.882812 10.957031 5.386719 10.726562 5.953125 10.566406 C 6.363281 10.460938 6.988281 10.351562 7.824219 10.253906 C 9.527344 10.046875 10.78125 9.808594 11.585938 9.523438 C 11.59375 9.234375 11.597656 9.050781 11.597656 8.976562 C 11.597656 8.117188 11.398438 7.507812 11 7.160156 C 10.464844 6.679688 9.660156 6.445312 8.601562 6.445312 C 7.605469 6.445312 6.875 6.617188 6.398438 6.964844 C 5.925781 7.3125 5.578125 7.929688 5.351562 8.8125 L 3.292969 8.527344 C 3.480469 7.648438 3.789062 6.933594 4.214844 6.390625 C 4.644531 5.847656 5.269531 5.429688 6.078125 5.136719 C 6.890625 4.84375 7.832031 4.695312 8.902344 4.695312 C 9.96875 4.695312 10.828125 4.824219 11.492188 5.074219 C 12.15625 5.324219 12.644531 5.636719 12.960938 6.015625 C 13.273438 6.394531 13.488281 6.871094 13.617188 7.453125 C 13.683594 7.8125 13.71875 8.460938 13.71875 9.394531 L 13.71875 12.210938 C 13.71875 14.171875 13.761719 15.410156 13.855469 15.929688 C 13.945312 16.449219 14.125 16.949219 14.386719 17.425781 L 12.183594 17.425781 C 11.96875 16.988281 11.824219 16.476562 11.765625 15.886719 Z M 11.585938 11.175781 C 10.820312 11.492188 9.671875 11.757812 8.144531 11.976562 C 7.273438 12.101562 6.660156 12.242188 6.304688 12.394531 C 5.945312 12.554688 5.664062 12.78125 5.472656 13.085938 C 5.273438 13.386719 5.175781 13.714844 5.175781 14.085938 C 5.175781 14.648438 5.390625 15.117188 5.816406 15.492188 C 6.238281 15.863281 6.863281 16.054688 7.683594 16.054688 C 8.496094 16.054688 9.21875 15.878906 9.851562 15.519531 C 10.484375 15.164062 10.953125 14.675781 11.246094 14.0625 C 11.476562 13.585938 11.585938 12.878906 11.585938 11.953125 L 11.585938 11.175781 "/>
<path fill-rule="nonzero" fill="rgb(13.729858%, 12.159729%, 12.548828%)" fill-opacity="1" d="M 16.992188 17.425781 L 16.992188 4.980469 L 18.886719 4.980469 L 18.886719 6.746094 C 19.804688 5.378906 21.125 4.695312 22.847656 4.695312 C 23.597656 4.695312 24.289062 4.832031 24.914062 5.101562 C 25.546875 5.371094 26.015625 5.726562 26.328125 6.164062 C 26.644531 6.601562 26.859375 7.121094 26.988281 7.71875 C 27.0625 8.113281 27.101562 8.796875 27.101562 9.773438 L 27.101562 17.425781 L 24.992188 17.425781 L 24.992188 9.851562 C 24.992188 8.996094 24.910156 8.351562 24.746094 7.925781 C 24.582031 7.5 24.292969 7.160156 23.875 6.910156 C 23.457031 6.652344 22.96875 6.523438 22.402344 6.523438 C 21.503906 6.523438 20.730469 6.8125 20.074219 7.378906 C 19.421875 7.953125 19.097656 9.03125 19.097656 10.628906 L 19.097656 17.425781 L 16.992188 17.425781 "/>
<path fill-rule="nonzero" fill="rgb(13.729858%, 12.159729%, 12.548828%)" fill-opacity="1" d="M 38.460938 15.886719 C 37.675781 16.554688 36.921875 17.019531 36.203125 17.296875 C 35.480469 17.566406 34.703125 17.703125 33.875 17.703125 C 32.507812 17.703125 31.460938 17.371094 30.722656 16.703125 C 29.992188 16.035156 29.625 15.179688 29.625 14.144531 C 29.625 13.53125 29.761719 12.976562 30.039062 12.472656 C 30.316406 11.96875 30.679688 11.5625 31.128906 11.261719 C 31.578125 10.957031 32.082031 10.726562 32.648438 10.566406 C 33.058594 10.460938 33.683594 10.351562 34.519531 10.253906 C 36.222656 10.046875 37.480469 9.808594 38.285156 9.523438 C 38.292969 9.234375 38.296875 9.050781 38.296875 8.976562 C 38.296875 8.117188 38.09375 7.507812 37.695312 7.160156 C 37.160156 6.679688 36.355469 6.445312 35.296875 6.445312 C 34.304688 6.445312 33.570312 6.617188 33.09375 6.964844 C 32.625 7.3125 32.277344 7.929688 32.046875 8.8125 L 29.988281 8.527344 C 30.175781 7.648438 30.484375 6.933594 30.910156 6.390625 C 31.339844 5.847656 31.964844 5.429688 32.777344 5.136719 C 33.585938 4.84375 34.527344 4.695312 35.597656 4.695312 C 36.664062 4.695312 37.523438 4.824219 38.1875 5.074219 C 38.851562 5.324219 39.339844 5.636719 39.65625 6.015625 C 39.96875 6.394531 40.183594 6.871094 40.3125 7.453125 C 40.378906 7.8125 40.414062 8.460938 40.414062 9.394531 L 40.414062 12.210938 C 40.414062 14.171875 40.460938 15.410156 40.550781 15.929688 C 40.640625 16.449219 40.820312 16.949219 41.082031 17.425781 L 38.878906 17.425781 C 38.664062 16.988281 38.519531 16.476562 38.460938 15.886719 Z M 38.285156 11.175781 C 37.515625 11.492188 36.367188 11.757812 34.839844 11.976562 C 33.972656 12.101562 33.355469 12.242188 33 12.394531 C 32.640625 12.554688 32.359375 12.78125 32.167969 13.085938 C 31.972656 13.386719 31.871094 13.714844 31.871094 14.085938 C 31.871094 14.648438 32.089844 15.117188 32.511719 15.492188 C 32.933594 15.863281 33.558594 16.054688 34.378906 16.054688 C 35.191406 16.054688 35.914062 15.878906 36.546875 15.519531 C 37.179688 15.164062 37.648438 14.675781 37.945312 14.0625 C 38.171875 13.585938 38.285156 12.878906 38.285156 11.953125 L 38.285156 11.175781 "/>
<path fill-rule="nonzero" fill="rgb(13.729858%, 12.159729%, 12.548828%)" fill-opacity="1" d="M 43.640625 17.425781 L 43.640625 0.246094 L 45.746094 0.246094 L 45.746094 17.425781 L 43.640625 17.425781 "/>
<path fill-rule="nonzero" fill="rgb(13.729858%, 12.159729%, 12.548828%)" fill-opacity="1" d="M 48.230469 11.199219 C 48.230469 8.894531 48.871094 7.1875 50.15625 6.078125 C 51.222656 5.160156 52.527344 4.695312 54.066406 4.695312 C 55.78125 4.695312 57.179688 5.257812 58.265625 6.378906 C 59.351562 7.5 59.890625 9.046875 59.890625 11.023438 C 59.890625 12.628906 59.652344 13.890625 59.171875 14.804688 C 58.691406 15.726562 57.992188 16.4375 57.074219 16.945312 C 56.15625 17.453125 55.15625 17.703125 54.066406 17.703125 C 52.328125 17.703125 50.917969 17.148438 49.84375 16.027344 C 48.769531 14.910156 48.230469 13.304688 48.230469 11.199219 Z M 50.398438 11.199219 C 50.398438 12.796875 50.746094 13.988281 51.445312 14.78125 C 52.140625 15.578125 53.015625 15.972656 54.066406 15.972656 C 55.117188 15.972656 55.988281 15.574219 56.683594 14.777344 C 57.375 13.980469 57.722656 12.765625 57.722656 11.132812 C 57.722656 9.59375 57.375 8.425781 56.675781 7.632812 C 55.976562 6.839844 55.105469 6.445312 54.066406 6.445312 C 53.015625 6.445312 52.140625 6.839844 51.445312 7.628906 C 50.746094 8.414062 50.398438 9.609375 50.398438 11.199219 "/>
<path fill-rule="nonzero" fill="rgb(13.729858%, 12.159729%, 12.548828%)" fill-opacity="1" d="M 61.980469 18.457031 L 64.03125 18.761719 C 64.117188 19.394531 64.355469 19.851562 64.742188 20.144531 C 65.269531 20.53125 65.984375 20.730469 66.886719 20.730469 C 67.867188 20.730469 68.621094 20.53125 69.152344 20.144531 C 69.683594 19.753906 70.039062 19.203125 70.226562 18.503906 C 70.339844 18.074219 70.386719 17.171875 70.378906 15.796875 C 69.460938 16.878906 68.3125 17.425781 66.933594 17.425781 C 65.222656 17.425781 63.898438 16.808594 62.964844 15.574219 C 62.027344 14.339844 61.554688 12.855469 61.554688 11.132812 C 61.554688 9.945312 61.773438 8.847656 62.199219 7.84375 C 62.632812 6.839844 63.257812 6.0625 64.070312 5.515625 C 64.886719 4.972656 65.847656 4.695312 66.949219 4.695312 C 68.414062 4.695312 69.628906 5.292969 70.578125 6.480469 L 70.578125 4.980469 L 72.527344 4.980469 L 72.527344 15.734375 C 72.527344 17.671875 72.328125 19.046875 71.9375 19.855469 C 71.539062 20.664062 70.914062 21.304688 70.058594 21.773438 C 69.203125 22.242188 68.152344 22.476562 66.898438 22.476562 C 65.414062 22.476562 64.214844 22.140625 63.304688 21.472656 C 62.386719 20.804688 61.949219 19.800781 61.980469 18.457031 Z M 63.722656 10.980469 C 63.722656 12.613281 64.046875 13.804688 64.699219 14.550781 C 65.347656 15.304688 66.160156 15.675781 67.136719 15.675781 C 68.101562 15.675781 68.914062 15.304688 69.570312 14.5625 C 70.226562 13.8125 70.554688 12.644531 70.554688 11.046875 C 70.554688 9.523438 70.21875 8.378906 69.542969 7.605469 C 68.867188 6.832031 68.050781 6.445312 67.101562 6.445312 C 66.164062 6.445312 65.367188 6.824219 64.707031 7.589844 C 64.050781 8.347656 63.722656 9.480469 63.722656 10.980469 "/>
<path fill-rule="nonzero" fill="rgb(13.729858%, 12.159729%, 12.548828%)" fill-opacity="1" d="M 83.871094 17.425781 L 83.871094 15.597656 C 82.898438 17.003906 81.582031 17.703125 79.917969 17.703125 C 79.1875 17.703125 78.5 17.5625 77.863281 17.285156 C 77.226562 17.003906 76.757812 16.648438 76.449219 16.226562 C 76.136719 15.796875 75.917969 15.277344 75.796875 14.660156 C 75.710938 14.246094 75.667969 13.589844 75.667969 12.6875 L 75.667969 4.980469 L 77.777344 4.980469 L 77.777344 11.878906 C 77.777344 12.984375 77.820312 13.726562 77.902344 14.109375 C 78.039062 14.664062 78.320312 15.097656 78.746094 15.414062 C 79.179688 15.730469 79.710938 15.886719 80.34375 15.886719 C 80.976562 15.886719 81.566406 15.730469 82.125 15.40625 C 82.679688 15.078125 83.070312 14.636719 83.300781 14.078125 C 83.53125 13.519531 83.648438 12.710938 83.648438 11.648438 L 83.648438 4.980469 L 85.757812 4.980469 L 85.757812 17.425781 L 83.871094 17.425781 "/>
<path fill-rule="nonzero" fill="rgb(13.729858%, 12.159729%, 12.548828%)" fill-opacity="1" d="M 97.582031 13.417969 L 99.761719 13.683594 C 99.414062 14.960938 98.78125 15.949219 97.851562 16.652344 C 96.917969 17.351562 95.730469 17.703125 94.289062 17.703125 C 92.46875 17.703125 91.023438 17.144531 89.960938 16.023438 C 88.890625 14.90625 88.359375 13.332031 88.359375 11.308594 C 88.359375 9.210938 88.898438 7.589844 89.976562 6.433594 C 91.054688 5.277344 92.453125 4.695312 94.171875 4.695312 C 95.835938 4.695312 97.195312 5.265625 98.246094 6.394531 C 99.304688 7.527344 99.832031 9.125 99.832031 11.175781 C 99.832031 11.304688 99.828125 11.492188 99.820312 11.742188 L 90.539062 11.742188 C 90.617188 13.109375 91.003906 14.15625 91.699219 14.878906 C 92.394531 15.609375 93.261719 15.972656 94.300781 15.972656 C 95.070312 15.972656 95.730469 15.769531 96.28125 15.359375 C 96.828125 14.957031 97.261719 14.308594 97.582031 13.417969 Z M 90.65625 10.003906 L 97.605469 10.003906 C 97.511719 8.960938 97.242188 8.171875 96.808594 7.652344 C 96.136719 6.839844 95.265625 6.433594 94.195312 6.433594 C 93.226562 6.433594 92.410156 6.757812 91.753906 7.40625 C 91.09375 8.054688 90.726562 8.921875 90.65625 10.003906 "/>
<path fill-rule="nonzero" fill="rgb(13.729858%, 12.159729%, 12.548828%)" fill-opacity="1" d="M 5.898438 203.5625 L 7.980469 203.234375 C 8.097656 204.070312 8.425781 204.710938 8.960938 205.160156 C 9.492188 205.601562 10.242188 205.828125 11.207031 205.828125 C 12.171875 205.828125 12.894531 205.628906 13.359375 205.234375 C 13.828125 204.839844 14.066406 204.375 14.066406 203.847656 C 14.066406 203.367188 13.855469 202.996094 13.441406 202.71875 C 13.152344 202.53125 12.433594 202.296875 11.285156 202.007812 C 9.742188 201.613281 8.664062 201.277344 8.070312 200.992188 C 7.472656 200.707031 7.015625 200.3125 6.707031 199.808594 C 6.402344 199.304688 6.246094 198.746094 6.246094 198.140625 C 6.246094 197.582031 6.375 197.070312 6.628906 196.597656 C 6.882812 196.121094 7.230469 195.730469 7.664062 195.417969 C 7.992188 195.179688 8.441406 194.972656 9.003906 194.804688 C 9.574219 194.636719 10.179688 194.550781 10.828125 194.550781 C 11.804688 194.550781 12.660156 194.695312 13.402344 194.976562 C 14.140625 195.253906 14.683594 195.636719 15.035156 196.113281 C 15.390625 196.597656 15.628906 197.238281 15.761719 198.042969 L 13.699219 198.328125 C 13.605469 197.6875 13.332031 197.1875 12.886719 196.828125 C 12.4375 196.46875 11.800781 196.285156 10.980469 196.285156 C 10.011719 196.285156 9.320312 196.445312 8.910156 196.765625 C 8.492188 197.085938 8.285156 197.464844 8.285156 197.890625 C 8.285156 198.167969 8.371094 198.410156 8.542969 198.632812 C 8.71875 198.859375 8.984375 199.042969 9.351562 199.195312 C 9.566406 199.269531 10.183594 199.449219 11.21875 199.730469 C 12.710938 200.132812 13.75 200.453125 14.335938 200.710938 C 14.929688 200.964844 15.394531 201.335938 15.730469 201.820312 C 16.066406 202.304688 16.234375 202.902344 16.234375 203.621094 C 16.234375 204.328125 16.023438 204.988281 15.617188 205.609375 C 15.203125 206.230469 14.613281 206.710938 13.839844 207.050781 C 13.070312 207.390625 12.191406 207.558594 11.21875 207.558594 C 9.597656 207.558594 8.363281 207.222656 7.515625 206.550781 C 6.667969 205.878906 6.128906 204.882812 5.898438 203.5625 "/>
<path fill-rule="nonzero" fill="rgb(13.729858%, 12.159729%, 12.548828%)" fill-opacity="1" d="M 26.859375 205.742188 C 26.078125 206.40625 25.324219 206.875 24.605469 207.152344 C 23.882812 207.421875 23.105469 207.558594 22.277344 207.558594 C 20.910156 207.558594 19.859375 207.226562 19.125 206.558594 C 18.394531 205.890625 18.023438 205.035156 18.023438 204 C 18.023438 203.386719 18.160156 202.832031 18.441406 202.328125 C 18.71875 201.824219 19.082031 201.417969 19.53125 201.113281 C 19.980469 200.8125 20.484375 200.578125 21.050781 200.421875 C 21.460938 200.316406 22.085938 200.207031 22.921875 200.105469 C 24.625 199.902344 25.882812 199.664062 26.683594 199.378906 C 26.691406 199.089844 26.699219 198.90625 26.699219 198.832031 C 26.699219 197.972656 26.496094 197.363281 26.097656 197.015625 C 25.5625 196.535156 24.757812 196.300781 23.699219 196.300781 C 22.707031 196.300781 21.972656 196.472656 21.496094 196.820312 C 21.023438 197.167969 20.675781 197.78125 20.449219 198.667969 L 18.390625 198.382812 C 18.578125 197.503906 18.886719 196.785156 19.3125 196.246094 C 19.742188 195.703125 20.363281 195.28125 21.175781 194.992188 C 21.988281 194.699219 22.929688 194.550781 24 194.550781 C 25.066406 194.550781 25.925781 194.679688 26.589844 194.925781 C 27.253906 195.179688 27.742188 195.492188 28.058594 195.871094 C 28.367188 196.25 28.585938 196.726562 28.714844 197.308594 C 28.78125 197.667969 28.816406 198.316406 28.816406 199.25 L 28.816406 202.0625 C 28.816406 204.027344 28.859375 205.265625 28.953125 205.78125 C 29.039062 206.304688 29.222656 206.804688 29.484375 207.277344 L 27.28125 207.277344 C 27.066406 206.84375 26.921875 206.332031 26.859375 205.742188 Z M 26.683594 201.03125 C 25.917969 201.347656 24.769531 201.609375 23.242188 201.832031 C 22.371094 201.953125 21.757812 202.09375 21.402344 202.25 C 21.039062 202.40625 20.761719 202.636719 20.570312 202.9375 C 20.371094 203.238281 20.273438 203.570312 20.273438 203.9375 C 20.273438 204.503906 20.488281 204.972656 20.914062 205.347656 C 21.335938 205.71875 21.960938 205.90625 22.78125 205.90625 C 23.59375 205.90625 24.316406 205.730469 24.949219 205.375 C 25.582031 205.019531 26.050781 204.53125 26.34375 203.914062 C 26.574219 203.4375 26.683594 202.734375 26.683594 201.808594 L 26.683594 201.03125 "/>
<path fill-rule="nonzero" fill="rgb(13.729858%, 12.159729%, 12.548828%)" fill-opacity="1" d="M 32.089844 207.277344 L 32.089844 194.835938 L 33.972656 194.835938 L 33.972656 196.578125 C 34.363281 195.972656 34.886719 195.480469 35.53125 195.109375 C 36.179688 194.738281 36.921875 194.550781 37.75 194.550781 C 38.667969 194.550781 39.425781 194.742188 40.011719 195.128906 C 40.605469 195.511719 41.019531 196.042969 41.261719 196.730469 C 42.25 195.277344 43.53125 194.550781 45.105469 194.550781 C 46.339844 194.550781 47.289062 194.894531 47.953125 195.578125 C 48.617188 196.261719 48.949219 197.316406 48.949219 198.734375 L 48.949219 207.277344 L 46.851562 207.277344 L 46.851562 199.4375 C 46.851562 198.59375 46.785156 197.988281 46.648438 197.613281 C 46.507812 197.246094 46.261719 196.945312 45.90625 196.71875 C 45.546875 196.496094 45.121094 196.378906 44.636719 196.378906 C 43.761719 196.378906 43.035156 196.671875 42.457031 197.253906 C 41.882812 197.835938 41.589844 198.765625 41.589844 200.046875 L 41.589844 207.277344 L 39.480469 207.277344 L 39.480469 199.195312 C 39.480469 198.253906 39.308594 197.550781 38.964844 197.082031 C 38.621094 196.613281 38.0625 196.378906 37.277344 196.378906 C 36.683594 196.378906 36.136719 196.535156 35.632812 196.851562 C 35.128906 197.164062 34.761719 197.617188 34.535156 198.21875 C 34.308594 198.824219 34.199219 199.691406 34.199219 200.824219 L 34.199219 207.277344 L 32.089844 207.277344 "/>
<path fill-rule="nonzero" fill="rgb(13.729858%, 12.159729%, 12.548828%)" fill-opacity="1" d="M 52.082031 212.046875 L 52.082031 194.835938 L 54 194.835938 L 54 196.449219 C 54.453125 195.820312 54.964844 195.34375 55.539062 195.027344 C 56.105469 194.710938 56.796875 194.550781 57.609375 194.550781 C 58.671875 194.550781 59.609375 194.828125 60.421875 195.371094 C 61.238281 195.917969 61.847656 196.691406 62.261719 197.6875 C 62.675781 198.683594 62.886719 199.773438 62.886719 200.964844 C 62.886719 202.234375 62.65625 203.382812 62.199219 204.402344 C 61.742188 205.421875 61.078125 206.203125 60.207031 206.746094 C 59.332031 207.285156 58.417969 207.558594 57.457031 207.558594 C 56.753906 207.558594 56.125 207.410156 55.566406 207.113281 C 55.003906 206.820312 54.550781 206.441406 54.191406 205.992188 L 54.191406 212.046875 Z M 53.988281 201.128906 C 53.988281 202.726562 54.3125 203.910156 54.960938 204.679688 C 55.609375 205.441406 56.398438 205.828125 57.316406 205.828125 C 58.253906 205.828125 59.058594 205.429688 59.726562 204.636719 C 60.394531 203.84375 60.730469 202.613281 60.730469 200.949219 C 60.730469 199.363281 60.402344 198.179688 59.75 197.386719 C 59.097656 196.597656 58.316406 196.203125 57.414062 196.203125 C 56.511719 196.203125 55.71875 196.621094 55.027344 197.464844 C 54.332031 198.304688 53.988281 199.527344 53.988281 201.128906 "/>
<path fill-rule="nonzero" fill="rgb(13.729858%, 12.159729%, 12.548828%)" fill-opacity="1" d="M 65.382812 207.277344 L 65.382812 190.097656 L 67.488281 190.097656 L 67.488281 207.277344 L 65.382812 207.277344 "/>
<path fill-rule="nonzero" fill="rgb(13.729858%, 12.159729%, 12.548828%)" fill-opacity="1" d="M 79.277344 203.269531 L 81.457031 203.539062 C 81.113281 204.816406 80.476562 205.804688 79.550781 206.507812 C 78.617188 207.207031 77.429688 207.558594 75.984375 207.558594 C 74.164062 207.558594 72.722656 207 71.65625 205.878906 C 70.589844 204.757812 70.058594 203.1875 70.058594 201.164062 C 70.058594 199.066406 70.597656 197.441406 71.671875 196.285156 C 72.753906 195.132812 74.148438 194.550781 75.871094 194.550781 C 77.53125 194.550781 78.894531 195.117188 79.945312 196.25 C 81 197.382812 81.53125 198.980469 81.53125 201.03125 C 81.53125 201.160156 81.527344 201.347656 81.519531 201.59375 L 72.238281 201.59375 C 72.3125 202.964844 72.703125 204.011719 73.398438 204.734375 C 74.09375 205.464844 74.957031 205.828125 75.996094 205.828125 C 76.769531 205.828125 77.429688 205.621094 77.976562 205.214844 C 78.527344 204.8125 78.957031 204.164062 79.277344 203.269531 Z M 72.351562 199.859375 L 79.300781 199.859375 C 79.210938 198.816406 78.941406 198.027344 78.503906 197.507812 C 77.832031 196.695312 76.960938 196.285156 75.894531 196.285156 C 74.925781 196.285156 74.109375 196.609375 73.449219 197.257812 C 72.789062 197.90625 72.425781 198.773438 72.351562 199.859375 "/>
<path fill-rule="nonzero" fill="rgb(13.729858%, 12.159729%, 12.548828%)" fill-opacity="1" d="M 92.179688 207.277344 L 92.179688 205.707031 C 91.394531 206.941406 90.234375 207.558594 88.703125 207.558594 C 87.710938 207.558594 86.796875 207.285156 85.964844 206.738281 C 85.132812 206.195312 84.488281 205.429688 84.03125 204.445312 C 83.574219 203.46875 83.34375 202.34375 83.34375 201.066406 C 83.34375 199.828125 83.554688 198.699219 83.964844 197.6875 C 84.382812 196.675781 85 195.898438 85.828125 195.363281 C 86.65625 194.824219 87.585938 194.550781 88.609375 194.550781 C 89.355469 194.550781 90.027344 194.710938 90.609375 195.027344 C 91.199219 195.34375 91.671875 195.753906 92.042969 196.261719 L 92.042969 190.097656 L 94.136719 190.097656 L 94.136719 207.277344 Z M 85.511719 201.066406 C 85.511719 202.664062 85.847656 203.855469 86.523438 204.644531 C 87.195312 205.429688 87.984375 205.828125 88.902344 205.828125 C 89.820312 205.828125 90.605469 205.445312 91.25 204.695312 C 91.894531 203.941406 92.21875 202.789062 92.21875 201.242188 C 92.21875 199.539062 91.890625 198.289062 91.234375 197.496094 C 90.578125 196.695312 89.769531 196.300781 88.804688 196.300781 C 87.871094 196.300781 87.085938 196.683594 86.457031 197.445312 C 85.828125 198.210938 85.511719 199.417969 85.511719 201.066406 "/>
</svg>
