<?xml version="1.0" encoding="UTF-8"?>
<svg xmlns="http://www.w3.org/2000/svg" xmlns:xlink="http://www.w3.org/1999/xlink" width="778" height="265" viewBox="0 0 778 265">
<path fill="none" stroke-width="19.9984" stroke-linecap="butt" stroke-linejoin="miter" stroke="rgb(13.729858%, 12.159729%, 12.548828%)" stroke-opacity="1" stroke-miterlimit="22.9256" d="M 5923.046875 2549.726562 L 5923.046875 783.046875 L 7663.59375 783.046875 " transform="matrix(0.1, 0, 0, -0.1, 0, 265)"/>
<path fill-rule="evenodd" fill="rgb(13.729858%, 12.159729%, 12.548828%)" fill-opacity="1" d="M 597.535156 10.851562 L 592.304688 1.34375 L 587.078125 10.851562 Z M 597.535156 10.851562 "/>
<path fill-rule="evenodd" fill="rgb(13.729858%, 12.159729%, 12.548828%)" fill-opacity="1" d="M 765.535156 181.46875 L 775.039062 186.695312 L 765.535156 191.921875 Z M 765.535156 181.46875 "/>
<path fill="none" stroke-width="19.9984" stroke-linecap="butt" stroke-linejoin="miter" stroke="rgb(13.729858%, 12.159729%, 12.548828%)" stroke-opacity="1" stroke-miterlimit="22.9256" d="M 263.046875 2562.8125 L 263.046875 796.132812 L 2003.59375 796.132812 " transform="matrix(0.1, 0, 0, -0.1, 0, 265)"/>
<path fill-rule="evenodd" fill="rgb(13.729858%, 12.159729%, 12.548828%)" fill-opacity="1" d="M 31.535156 9.542969 L 26.304688 0.0351562 L 21.078125 9.542969 Z M 31.535156 9.542969 "/>
<path fill-rule="evenodd" fill="rgb(13.729858%, 12.159729%, 12.548828%)" fill-opacity="1" d="M 199.535156 180.160156 L 209.039062 185.386719 L 199.535156 190.617188 Z M 199.535156 180.160156 "/>
<path fill="none" stroke-width="29.9998" stroke-linecap="butt" stroke-linejoin="miter" stroke="rgb(13.729858%, 12.159729%, 12.548828%)" stroke-opacity="1" stroke-miterlimit="10" d="M 8884.56587 588.722175 L 8908.999452 865.109585 L 8932.964284 1108.860194 L 8957.339271 1312.854845 L 8981.362697 1471.087662 L 9005.737685 1581.742236 L 9029.76111 1642.85567 L 9054.136098 1656.742423 L 9078.10093 1626.361488 L 9102.417324 1555.843733 L 9126.440749 1451.605192 L 9150.874331 1320.354863 L 9174.839163 1169.592768 L 9199.21415 1006.84822 L 9223.178982 839.972803 L 9247.612564 675.353251 L 9271.635989 520.489582 L 9295.952383 380.245091 L 9319.975809 259.483071 L 9344.350797 161.221106 L 9368.725784 88.095923 L 9392.690616 40.869243 L 9417.124198 19.863331 L 9441.030436 23.23248 L 9465.464017 49.482546 L 9489.487443 95.595942 L 9513.862431 158.232817 L 9537.885856 233.233005 L 9562.260844 317.227356 L 9586.225676 405.352576 L 9610.600663 494.239517 L 9634.624089 580.108872 L 9658.999077 659.62079 L 9683.022502 730.109247 L 9707.338896 789.347676 L 9731.362322 835.87123 L 9755.73731 868.478734 L 9779.760735 887.609641 L 9804.077129 892.853795 L 9828.100555 885.353776 L 9852.475543 866.252166 L 9876.85053 837.746235 L 9900.815362 800.978565 L 9925.19035 758.615178 L 9949.213775 712.501781 L 9973.588763 664.864943 L 9997.612189 617.989826 L 10021.987177 573.370574 L 10045.893415 533.233755 L 10070.38559 497.989526 L 10094.291828 469.483596 L 10118.784003 448.12612 L 10142.690241 433.858507 L 10167.123823 427.120208 L 10191.088654 427.120208 L 10215.522236 434.239367 L 10239.487068 446.631976 L 10263.920649 464.239442 L 10287.885481 485.245354 L 10312.201875 508.858694 L 10336.576863 533.995476 L 10360.600288 559.132257 L 10384.975276 583.858882 L 10408.998702 606.739798 L 10433.37369 626.983989 L 10457.397115 644.239892 L 10481.713509 657.745785 L 10505.678341 667.501669 L 10530.111922 673.507543 L 10554.076754 675.382548 L 10578.510336 673.507543 L 10602.475168 668.234092 L 10626.791562 660.38251 L 10650.814987 650.245766 L 10675.307162 638.263314 L 10699.2134 625.138282 L 10723.705576 611.632388 L 10747.611814 598.507356 L 10771.986802 585.763183 L 10796.010227 574.132295 L 10820.385215 563.61469 L 10844.818796 555.382248 L 10868.783628 548.995513 L 10893.100022 544.864643 L 10917.123448 542.638075 L 10941.498436 542.638075 L 10965.521861 544.51308 L 10989.896849 547.882229 L 11013.920274 552.745522 L 11038.295262 558.370537 L 11062.318688 565.138132 L 11086.576488 572.25729 L 11110.599913 579.376448 L 11134.974901 586.495607 L 11158.998327 593.263202 L 11183.373315 598.888216 L 11207.39674 604.13237 L 11231.713134 607.882379 L 11255.677966 610.870668 L 11280.111547 612.745672 " transform="matrix(0.0666667, 0, 0, -0.133333, 0, 265)"/>
<path fill-rule="nonzero" fill="rgb(13.729858%, 12.159729%, 12.548828%)" fill-opacity="1" d="M 776.796875 209.492188 L 777.097656 211.355469 C 776.507812 211.476562 775.976562 211.542969 775.507812 211.542969 C 774.738281 211.542969 774.144531 211.421875 773.722656 211.179688 C 773.304688 210.9375 773.007812 210.617188 772.835938 210.222656 C 772.664062 209.832031 772.574219 209 772.574219 207.734375 L 772.574219 200.574219 L 771.027344 200.574219 L 771.027344 198.933594 L 772.574219 198.933594 L 772.574219 195.851562 L 774.675781 194.585938 L 774.675781 198.933594 L 776.796875 198.933594 L 776.796875 200.574219 L 774.675781 200.574219 L 774.675781 207.851562 C 774.675781 208.453125 774.710938 208.839844 774.78125 209.011719 C 774.859375 209.183594 774.980469 209.320312 775.144531 209.421875 C 775.316406 209.523438 775.554688 209.574219 775.867188 209.574219 C 776.101562 209.574219 776.410156 209.546875 776.796875 209.492188 "/>
<path fill-rule="nonzero" fill="rgb(13.729858%, 12.159729%, 12.548828%)" fill-opacity="1" d="M 206.25 214.035156 L 206.554688 215.898438 C 205.960938 216.023438 205.429688 216.089844 204.960938 216.089844 C 204.195312 216.089844 203.601562 215.96875 203.179688 215.722656 C 202.757812 215.484375 202.460938 215.164062 202.289062 214.769531 C 202.117188 214.375 202.03125 213.542969 202.03125 212.28125 L 202.03125 205.121094 L 200.480469 205.121094 L 200.480469 203.480469 L 202.03125 203.480469 L 202.03125 200.394531 L 204.128906 199.132812 L 204.128906 203.480469 L 206.25 203.480469 L 206.25 205.121094 L 204.128906 205.121094 L 204.128906 212.394531 C 204.128906 213 204.164062 213.382812 204.238281 213.554688 C 204.3125 213.726562 204.433594 213.863281 204.601562 213.96875 C 204.769531 214.066406 205.011719 214.121094 205.320312 214.121094 C 205.558594 214.121094 205.867188 214.089844 206.25 214.035156 "/>
<path fill="none" stroke-width="39.9997" stroke-linecap="butt" stroke-linejoin="miter" stroke="rgb(13.729858%, 12.159729%, 12.548828%)" stroke-opacity="1" stroke-miterlimit="22.9256" d="M 5923.046875 784.960938 L 5341.640625 785.46875 " transform="matrix(0.1, 0, 0, -0.1, 0, 265)"/>
<path fill-rule="nonzero" fill="rgb(13.729858%, 12.159729%, 12.548828%)" fill-opacity="1" d="M 589.742188 199.339844 C 589.742188 197.304688 589.949219 195.671875 590.371094 194.433594 C 590.785156 193.195312 591.410156 192.238281 592.234375 191.566406 C 593.058594 190.894531 594.09375 190.558594 595.34375 190.558594 C 596.265625 190.558594 597.074219 190.746094 597.769531 191.117188 C 598.464844 191.488281 599.039062 192.023438 599.492188 192.722656 C 599.945312 193.421875 600.300781 194.273438 600.558594 195.277344 C 600.816406 196.28125 600.945312 197.636719 600.945312 199.339844 C 600.945312 201.355469 600.738281 202.980469 600.324219 204.21875 C 599.910156 205.460938 599.289062 206.414062 598.464844 207.089844 C 597.640625 207.765625 596.601562 208.101562 595.34375 208.101562 C 593.6875 208.101562 592.386719 207.511719 591.441406 206.324219 C 590.308594 204.894531 589.742188 202.5625 589.742188 199.339844 Z M 591.910156 199.339844 C 591.910156 202.160156 592.242188 204.035156 592.902344 204.96875 C 593.5625 205.902344 594.371094 206.371094 595.34375 206.371094 C 596.3125 206.371094 597.125 205.898438 597.785156 204.964844 C 598.445312 204.027344 598.777344 202.152344 598.777344 199.339844 C 598.777344 196.511719 598.445312 194.632812 597.785156 193.703125 C 597.125 192.769531 596.304688 192.304688 595.320312 192.304688 C 594.351562 192.304688 593.578125 192.71875 592.996094 193.539062 C 592.273438 194.582031 591.910156 196.519531 591.910156 199.339844 "/>
<path fill-rule="nonzero" fill="rgb(13.729858%, 12.159729%, 12.548828%)" fill-opacity="1" d="M 19.195312 203.882812 C 19.195312 201.851562 19.40625 200.214844 19.824219 198.980469 C 20.242188 197.738281 20.863281 196.785156 21.6875 196.113281 C 22.511719 195.441406 23.546875 195.105469 24.796875 195.105469 C 25.71875 195.105469 26.527344 195.292969 27.222656 195.664062 C 27.921875 196.03125 28.492188 196.566406 28.949219 197.269531 C 29.402344 197.96875 29.757812 198.820312 30.011719 199.824219 C 30.273438 200.828125 30.402344 202.179688 30.402344 203.882812 C 30.402344 205.898438 30.191406 207.523438 29.78125 208.765625 C 29.363281 210.003906 28.746094 210.960938 27.921875 211.636719 C 27.097656 212.3125 26.054688 212.648438 24.796875 212.648438 C 23.140625 212.648438 21.839844 212.054688 20.898438 210.867188 C 19.765625 209.441406 19.195312 207.109375 19.195312 203.882812 Z M 21.363281 203.882812 C 21.363281 206.703125 21.695312 208.578125 22.355469 209.515625 C 23.015625 210.449219 23.828125 210.914062 24.796875 210.914062 C 25.769531 210.914062 26.582031 210.445312 27.242188 209.507812 C 27.902344 208.570312 28.234375 206.695312 28.234375 203.882812 C 28.234375 201.054688 27.902344 199.175781 27.242188 198.246094 C 26.582031 197.316406 25.761719 196.851562 24.777344 196.851562 C 23.804688 196.851562 23.03125 197.265625 22.453125 198.082031 C 21.726562 199.128906 21.363281 201.0625 21.363281 203.882812 "/>
<path fill="none" stroke-width="19.9984" stroke-linecap="butt" stroke-linejoin="miter" stroke="rgb(13.729858%, 12.159729%, 12.548828%)" stroke-opacity="1" stroke-miterlimit="22.9256" d="M 2956.601562 2026.757812 L 4499.140625 2026.757812 L 4499.140625 887.65625 L 2956.601562 887.65625 Z M 2956.601562 2026.757812 " transform="matrix(0.1, 0, 0, -0.1, 0, 265)"/>
<path fill-rule="nonzero" fill="rgb(13.729858%, 12.159729%, 12.548828%)" fill-opacity="1" d="M 306.839844 111.9375 L 306.839844 94.757812 L 318.429688 94.757812 L 318.429688 96.785156 L 309.113281 96.785156 L 309.113281 102.105469 L 317.175781 102.105469 L 317.175781 104.132812 L 309.113281 104.132812 L 309.113281 111.9375 L 306.839844 111.9375 "/>
<path fill-rule="nonzero" fill="rgb(13.729858%, 12.159729%, 12.548828%)" fill-opacity="1" d="M 321.121094 97.183594 L 321.121094 94.757812 L 323.234375 94.757812 L 323.234375 97.183594 Z M 321.121094 111.9375 L 321.121094 99.492188 L 323.234375 99.492188 L 323.234375 111.9375 L 321.121094 111.9375 "/>
<path fill-rule="nonzero" fill="rgb(13.729858%, 12.159729%, 12.548828%)" fill-opacity="1" d="M 326.398438 111.9375 L 326.398438 94.757812 L 328.507812 94.757812 L 328.507812 111.9375 L 326.398438 111.9375 "/>
<path fill-rule="nonzero" fill="rgb(13.729858%, 12.159729%, 12.548828%)" fill-opacity="1" d="M 336.382812 110.050781 L 336.6875 111.914062 C 336.09375 112.035156 335.5625 112.101562 335.09375 112.101562 C 334.328125 112.101562 333.734375 111.980469 333.3125 111.738281 C 332.890625 111.496094 332.59375 111.175781 332.421875 110.78125 C 332.25 110.390625 332.164062 109.558594 332.164062 108.292969 L 332.164062 101.132812 L 330.613281 101.132812 L 330.613281 99.492188 L 332.164062 99.492188 L 332.164062 96.410156 L 334.261719 95.144531 L 334.261719 99.492188 L 336.382812 99.492188 L 336.382812 101.132812 L 334.261719 101.132812 L 334.261719 108.410156 C 334.261719 109.011719 334.300781 109.398438 334.371094 109.570312 C 334.445312 109.742188 334.566406 109.878906 334.734375 109.980469 C 334.902344 110.082031 335.144531 110.132812 335.453125 110.132812 C 335.691406 110.132812 336 110.105469 336.382812 110.050781 "/>
<path fill-rule="nonzero" fill="rgb(13.729858%, 12.159729%, 12.548828%)" fill-opacity="1" d="M 346.964844 107.929688 L 349.144531 108.195312 C 348.800781 109.472656 348.164062 110.460938 347.234375 111.164062 C 346.304688 111.863281 345.113281 112.21875 343.671875 112.21875 C 341.851562 112.21875 340.40625 111.65625 339.34375 110.535156 C 338.273438 109.417969 337.742188 107.84375 337.742188 105.820312 C 337.742188 103.726562 338.28125 102.101562 339.359375 100.945312 C 340.4375 99.789062 341.835938 99.210938 343.554688 99.210938 C 345.21875 99.210938 346.578125 99.777344 347.632812 100.910156 C 348.6875 102.039062 349.214844 103.636719 349.214844 105.6875 C 349.214844 105.816406 349.210938 106.003906 349.203125 106.253906 L 339.921875 106.253906 C 340 107.621094 340.386719 108.667969 341.082031 109.394531 C 341.777344 110.121094 342.644531 110.484375 343.683594 110.484375 C 344.453125 110.484375 345.113281 110.28125 345.664062 109.871094 C 346.210938 109.46875 346.644531 108.820312 346.964844 107.929688 Z M 340.039062 104.515625 L 346.988281 104.515625 C 346.894531 103.472656 346.628906 102.683594 346.191406 102.164062 C 345.519531 101.351562 344.648438 100.945312 343.578125 100.945312 C 342.609375 100.945312 341.796875 101.269531 341.136719 101.917969 C 340.476562 102.566406 340.109375 103.433594 340.039062 104.515625 "/>
<path fill-rule="nonzero" fill="rgb(13.729858%, 12.159729%, 12.548828%)" fill-opacity="1" d="M 351.769531 111.9375 L 351.769531 99.492188 L 353.667969 99.492188 L 353.667969 101.378906 C 354.152344 100.496094 354.597656 99.914062 355.011719 99.632812 C 355.417969 99.351562 355.871094 99.210938 356.363281 99.210938 C 357.074219 99.210938 357.796875 99.4375 358.53125 99.890625 L 357.804688 101.847656 C 357.289062 101.539062 356.773438 101.390625 356.257812 101.390625 C 355.796875 101.390625 355.382812 101.527344 355.015625 101.804688 C 354.648438 102.085938 354.386719 102.46875 354.230469 102.960938 C 353.996094 103.710938 353.878906 104.527344 353.878906 105.421875 L 353.878906 111.9375 L 351.769531 111.9375 "/>
<path fill-rule="nonzero" fill="rgb(13.729858%, 12.159729%, 12.548828%)" fill-opacity="1" d="M 306.453125 138.75 L 306.453125 121.570312 L 308.5625 121.570312 L 308.5625 127.734375 C 309.546875 126.59375 310.789062 126.019531 312.289062 126.019531 C 313.210938 126.019531 314.011719 126.203125 314.691406 126.570312 C 315.371094 126.929688 315.859375 127.433594 316.152344 128.074219 C 316.441406 128.714844 316.589844 129.644531 316.589844 130.859375 L 316.589844 138.75 L 314.480469 138.75 L 314.480469 130.859375 C 314.480469 129.808594 314.253906 129.039062 313.796875 128.5625 C 313.339844 128.082031 312.691406 127.835938 311.855469 127.835938 C 311.230469 127.835938 310.644531 128 310.089844 128.324219 C 309.539062 128.648438 309.148438 129.089844 308.914062 129.644531 C 308.679688 130.195312 308.5625 130.964844 308.5625 131.941406 L 308.5625 138.75 L 306.453125 138.75 "/>
<path fill-rule="nonzero" fill="rgb(13.729858%, 12.159729%, 12.548828%)" fill-opacity="1" d="M 323.832031 143.800781 C 322.667969 142.332031 321.683594 140.613281 320.878906 138.644531 C 320.074219 136.671875 319.671875 134.636719 319.671875 132.523438 C 319.671875 130.664062 319.972656 128.886719 320.574219 127.179688 C 321.277344 125.203125 322.363281 123.238281 323.832031 121.277344 L 325.34375 121.277344 C 324.398438 122.902344 323.773438 124.0625 323.472656 124.757812 C 322.992188 125.832031 322.617188 126.960938 322.34375 128.132812 C 322.007812 129.59375 321.839844 131.0625 321.839844 132.535156 C 321.839844 136.296875 323.007812 140.050781 325.34375 143.800781 L 323.832031 143.800781 "/>
<path fill-rule="nonzero" fill="rgb(13.729858%, 12.159729%, 12.548828%)" fill-opacity="1" d="M 332.398438 136.859375 L 332.703125 138.726562 C 332.109375 138.847656 331.578125 138.914062 331.109375 138.914062 C 330.34375 138.914062 329.75 138.792969 329.328125 138.550781 C 328.90625 138.308594 328.609375 137.988281 328.4375 137.59375 C 328.265625 137.199219 328.179688 136.367188 328.179688 135.105469 L 328.179688 127.945312 L 326.632812 127.945312 L 326.632812 126.304688 L 328.179688 126.304688 L 328.179688 123.222656 L 330.277344 121.957031 L 330.277344 126.304688 L 332.398438 126.304688 L 332.398438 127.945312 L 330.277344 127.945312 L 330.277344 135.222656 C 330.277344 135.824219 330.316406 136.210938 330.386719 136.382812 C 330.464844 136.554688 330.585938 136.6875 330.75 136.792969 C 330.921875 136.894531 331.160156 136.945312 331.472656 136.945312 C 331.707031 136.945312 332.015625 136.917969 332.398438 136.859375 "/>
<path fill-rule="nonzero" fill="rgb(13.729858%, 12.159729%, 12.548828%)" fill-opacity="1" d="M 335.84375 143.800781 L 334.332031 143.800781 C 336.667969 140.050781 337.835938 136.296875 337.835938 132.535156 C 337.835938 131.070312 337.667969 129.613281 337.332031 128.164062 C 337.066406 126.996094 336.695312 125.867188 336.21875 124.792969 C 335.914062 124.089844 335.289062 122.917969 334.332031 121.277344 L 335.84375 121.277344 C 337.3125 123.238281 338.398438 125.203125 339.101562 127.179688 C 339.703125 128.886719 340.003906 130.664062 340.003906 132.523438 C 340.003906 134.636719 339.597656 136.671875 338.789062 138.644531 C 337.984375 140.613281 337 142.332031 335.84375 143.800781 "/>
<path fill-rule="nonzero" fill="rgb(13.729858%, 12.159729%, 12.548828%)" fill-opacity="1" d="M 348.851562 131.238281 L 348.851562 129.269531 L 360.230469 124.464844 L 360.230469 126.5625 L 351.207031 130.265625 L 360.230469 134 L 360.230469 136.101562 L 348.851562 131.238281 "/>
<path fill-rule="nonzero" fill="rgb(13.729858%, 12.159729%, 12.548828%)" fill-opacity="1" d="M 374.234375 128.648438 L 362.890625 128.648438 L 362.890625 126.675781 L 374.234375 126.675781 Z M 374.234375 133.859375 L 362.890625 133.859375 L 362.890625 131.894531 L 374.234375 131.894531 L 374.234375 133.859375 "/>
<path fill-rule="nonzero" fill="rgb(13.729858%, 12.159729%, 12.548828%)" fill-opacity="1" d="M 388.265625 131.238281 L 376.882812 136.101562 L 376.882812 134 L 385.894531 130.265625 L 376.882812 126.5625 L 376.882812 124.464844 L 388.265625 129.269531 L 388.265625 131.238281 "/>
<path fill-rule="nonzero" fill="rgb(13.729858%, 12.159729%, 12.548828%)" fill-opacity="1" d="M 398.175781 138.75 L 398.175781 121.570312 L 400.453125 121.570312 L 400.453125 128.625 L 409.378906 128.625 L 409.378906 121.570312 L 411.65625 121.570312 L 411.65625 138.75 L 409.378906 138.75 L 409.378906 130.652344 L 400.453125 130.652344 L 400.453125 138.75 L 398.175781 138.75 "/>
<path fill-rule="nonzero" fill="rgb(13.729858%, 12.159729%, 12.548828%)" fill-opacity="1" d="M 419.199219 143.800781 C 418.035156 142.332031 417.050781 140.613281 416.246094 138.644531 C 415.445312 136.671875 415.039062 134.636719 415.039062 132.523438 C 415.039062 130.664062 415.339844 128.886719 415.945312 127.179688 C 416.648438 125.203125 417.730469 123.238281 419.199219 121.277344 L 420.710938 121.277344 C 419.769531 122.902344 419.144531 124.0625 418.839844 124.757812 C 418.359375 125.832031 417.988281 126.960938 417.710938 128.132812 C 417.375 129.59375 417.207031 131.0625 417.207031 132.535156 C 417.207031 136.296875 418.375 140.050781 420.710938 143.800781 L 419.199219 143.800781 "/>
<path fill-rule="nonzero" fill="rgb(13.729858%, 12.159729%, 12.548828%)" fill-opacity="1" d="M 422.320312 135.03125 L 424.402344 134.703125 C 424.519531 135.539062 424.847656 136.179688 425.382812 136.628906 C 425.914062 137.074219 426.664062 137.296875 427.628906 137.296875 C 428.597656 137.296875 429.316406 137.097656 429.785156 136.703125 C 430.253906 136.308594 430.488281 135.84375 430.488281 135.316406 C 430.488281 134.835938 430.28125 134.464844 429.863281 134.1875 C 429.574219 134 428.855469 133.765625 427.707031 133.476562 C 426.164062 133.085938 425.089844 132.75 424.492188 132.460938 C 423.894531 132.175781 423.441406 131.78125 423.132812 131.277344 C 422.824219 130.773438 422.667969 130.21875 422.667969 129.609375 C 422.667969 129.054688 422.796875 128.539062 423.050781 128.070312 C 423.304688 127.59375 423.652344 127.199219 424.089844 126.890625 C 424.414062 126.648438 424.863281 126.441406 425.429688 126.273438 C 425.996094 126.105469 426.605469 126.019531 427.253906 126.019531 C 428.226562 126.019531 429.085938 126.164062 429.824219 126.445312 C 430.5625 126.726562 431.109375 127.105469 431.460938 127.585938 C 431.8125 128.070312 432.050781 128.710938 432.183594 129.511719 L 430.125 129.796875 C 430.027344 129.15625 429.757812 128.65625 429.308594 128.296875 C 428.859375 127.9375 428.222656 127.757812 427.402344 127.757812 C 426.4375 127.757812 425.742188 127.917969 425.332031 128.238281 C 424.914062 128.558594 424.707031 128.933594 424.707031 129.359375 C 424.707031 129.636719 424.796875 129.882812 424.96875 130.101562 C 425.140625 130.328125 425.40625 130.511719 425.777344 130.664062 C 425.988281 130.742188 426.609375 130.921875 427.640625 131.199219 C 429.132812 131.601562 430.171875 131.925781 430.761719 132.179688 C 431.351562 132.433594 431.816406 132.804688 432.152344 133.289062 C 432.488281 133.773438 432.65625 134.371094 432.65625 135.09375 C 432.65625 135.796875 432.449219 136.457031 432.039062 137.082031 C 431.628906 137.699219 431.035156 138.179688 430.265625 138.519531 C 429.492188 138.859375 428.617188 139.027344 427.640625 139.027344 C 426.019531 139.027344 424.789062 138.691406 423.941406 138.019531 C 423.09375 137.347656 422.550781 136.351562 422.320312 135.03125 "/>
<path fill-rule="nonzero" fill="rgb(13.729858%, 12.159729%, 12.548828%)" fill-opacity="1" d="M 436.542969 143.800781 L 435.03125 143.800781 C 437.367188 140.050781 438.535156 136.296875 438.535156 132.535156 C 438.535156 131.070312 438.367188 129.613281 438.03125 128.164062 C 437.769531 126.996094 437.394531 125.867188 436.921875 124.792969 C 436.617188 124.089844 435.988281 122.917969 435.03125 121.277344 L 436.542969 121.277344 C 438.011719 123.238281 439.101562 125.203125 439.804688 127.179688 C 440.402344 128.886719 440.703125 130.664062 440.703125 132.523438 C 440.703125 134.636719 440.300781 136.671875 439.492188 138.644531 C 438.683594 140.613281 437.699219 142.332031 436.542969 143.800781 "/>
<path fill="none" stroke-width="39.9997" stroke-linecap="butt" stroke-linejoin="miter" stroke="rgb(13.729858%, 12.159729%, 12.548828%)" stroke-opacity="1" stroke-miterlimit="22.9256" d="M 263.046875 796.132812 L 263.046875 1549.257812 " transform="matrix(0.1, 0, 0, -0.1, 0, 265)"/>
<path fill-rule="evenodd" fill="rgb(13.729858%, 12.159729%, 12.548828%)" fill-opacity="1" d="M 15.847656 111.722656 L 26.304688 92.710938 L 36.761719 111.722656 Z M 15.847656 111.722656 "/>
<path fill-rule="nonzero" fill="rgb(13.729858%, 12.159729%, 12.548828%)" fill-opacity="1" d="M 55.234375 85.511719 L 55.234375 83.941406 C 54.445312 85.175781 53.285156 85.792969 51.753906 85.792969 C 50.761719 85.792969 49.851562 85.519531 49.019531 84.972656 C 48.1875 84.429688 47.542969 83.664062 47.082031 82.679688 C 46.625 81.699219 46.398438 80.574219 46.398438 79.300781 C 46.398438 78.058594 46.605469 76.933594 47.019531 75.921875 C 47.433594 74.90625 48.054688 74.132812 48.882812 73.597656 C 49.710938 73.054688 50.640625 72.785156 51.664062 72.785156 C 52.410156 72.785156 53.078125 72.945312 53.664062 73.261719 C 54.25 73.574219 54.726562 73.988281 55.09375 74.496094 L 55.09375 68.332031 L 57.191406 68.332031 L 57.191406 85.511719 Z M 48.566406 79.300781 C 48.566406 80.894531 48.902344 82.089844 49.574219 82.875 C 50.246094 83.664062 51.039062 84.058594 51.953125 84.058594 C 52.875 84.058594 53.660156 83.679688 54.300781 82.929688 C 54.945312 82.175781 55.269531 81.023438 55.269531 79.476562 C 55.269531 77.773438 54.941406 76.523438 54.285156 75.726562 C 53.628906 74.929688 52.824219 74.53125 51.859375 74.53125 C 50.921875 74.53125 50.140625 74.914062 49.511719 75.679688 C 48.882812 76.445312 48.566406 77.652344 48.566406 79.300781 "/>
<path fill-rule="nonzero" fill="rgb(13.729858%, 12.159729%, 12.548828%)" fill-opacity="1" d="M 69.027344 81.503906 L 71.207031 81.773438 C 70.863281 83.046875 70.226562 84.035156 69.296875 84.738281 C 68.367188 85.441406 67.179688 85.792969 65.734375 85.792969 C 63.914062 85.792969 62.46875 85.230469 61.40625 84.113281 C 60.339844 82.992188 59.804688 81.421875 59.804688 79.394531 C 59.804688 77.300781 60.347656 75.675781 61.421875 74.519531 C 62.503906 73.363281 63.898438 72.785156 65.617188 72.785156 C 67.28125 72.785156 68.644531 73.351562 69.695312 74.484375 C 70.75 75.617188 71.277344 77.210938 71.277344 79.265625 C 71.277344 79.390625 71.273438 79.578125 71.265625 79.828125 L 61.988281 79.828125 C 62.0625 81.195312 62.449219 82.242188 63.148438 82.96875 C 63.84375 83.695312 64.707031 84.058594 65.746094 84.058594 C 66.519531 84.058594 67.179688 83.855469 67.726562 83.449219 C 68.273438 83.042969 68.707031 82.394531 69.027344 81.503906 Z M 62.101562 78.09375 L 69.050781 78.09375 C 68.957031 77.046875 68.691406 76.261719 68.253906 75.738281 C 67.582031 74.929688 66.710938 74.519531 65.644531 74.519531 C 64.675781 74.519531 63.859375 74.84375 63.199219 75.492188 C 62.539062 76.140625 62.175781 77.007812 62.101562 78.09375 "/>
<path fill-rule="nonzero" fill="rgb(13.729858%, 12.159729%, 12.548828%)" fill-opacity="1" d="M 73.8125 85.511719 L 73.8125 68.332031 L 75.917969 68.332031 L 75.917969 85.511719 L 73.8125 85.511719 "/>
<path fill-rule="nonzero" fill="rgb(13.729858%, 12.159729%, 12.548828%)" fill-opacity="1" d="M 83.792969 83.625 L 84.097656 85.488281 C 83.507812 85.613281 82.972656 85.675781 82.507812 85.675781 C 81.738281 85.675781 81.148438 85.554688 80.722656 85.3125 C 80.300781 85.070312 80.007812 84.753906 79.835938 84.355469 C 79.664062 83.964844 79.574219 83.132812 79.574219 81.867188 L 79.574219 74.707031 L 78.027344 74.707031 L 78.027344 73.066406 L 79.574219 73.066406 L 79.574219 69.984375 L 81.675781 68.71875 L 81.675781 73.066406 L 83.792969 73.066406 L 83.792969 74.707031 L 81.675781 74.707031 L 81.675781 81.984375 C 81.675781 82.589844 81.710938 82.972656 81.78125 83.144531 C 81.859375 83.316406 81.980469 83.453125 82.148438 83.554688 C 82.316406 83.65625 82.554688 83.707031 82.867188 83.707031 C 83.101562 83.707031 83.410156 83.679688 83.792969 83.625 "/>
<path fill-rule="nonzero" fill="rgb(13.729858%, 12.159729%, 12.548828%)" fill-opacity="1" d="M 93.980469 83.976562 C 93.195312 84.640625 92.441406 85.109375 91.722656 85.382812 C 91 85.65625 90.222656 85.792969 89.394531 85.792969 C 88.027344 85.792969 86.976562 85.460938 86.242188 84.792969 C 85.511719 84.125 85.144531 83.269531 85.144531 82.230469 C 85.144531 81.621094 85.277344 81.0625 85.558594 80.558594 C 85.835938 80.054688 86.199219 79.652344 86.648438 79.347656 C 87.097656 79.042969 87.601562 78.8125 88.167969 78.65625 C 88.578125 78.546875 89.203125 78.441406 90.039062 78.339844 C 91.742188 78.136719 93 77.894531 93.800781 77.613281 C 93.808594 77.324219 93.816406 77.140625 93.816406 77.0625 C 93.816406 76.203125 93.613281 75.597656 93.214844 75.246094 C 92.679688 74.769531 91.875 74.53125 90.816406 74.53125 C 89.824219 74.53125 89.089844 74.703125 88.613281 75.050781 C 88.144531 75.398438 87.792969 76.015625 87.566406 76.898438 L 85.507812 76.617188 C 85.695312 75.734375 86.003906 75.019531 86.429688 74.480469 C 86.859375 73.9375 87.480469 73.515625 88.292969 73.222656 C 89.105469 72.933594 90.046875 72.785156 91.117188 72.785156 C 92.183594 72.785156 93.042969 72.910156 93.707031 73.160156 C 94.371094 73.410156 94.859375 73.722656 95.175781 74.105469 C 95.488281 74.484375 95.703125 74.960938 95.832031 75.539062 C 95.898438 75.898438 95.933594 76.546875 95.933594 77.484375 L 95.933594 80.296875 C 95.933594 82.261719 95.976562 83.5 96.070312 84.015625 C 96.160156 84.535156 96.339844 85.035156 96.601562 85.511719 L 94.398438 85.511719 C 94.183594 85.074219 94.039062 84.5625 93.980469 83.976562 Z M 93.800781 79.265625 C 93.035156 79.578125 91.886719 79.84375 90.359375 80.0625 C 89.492188 80.1875 88.875 80.328125 88.519531 80.484375 C 88.160156 80.640625 87.878906 80.867188 87.6875 81.171875 C 87.492188 81.472656 87.390625 81.804688 87.390625 82.171875 C 87.390625 82.734375 87.605469 83.203125 88.03125 83.578125 C 88.453125 83.953125 89.078125 84.140625 89.898438 84.140625 C 90.710938 84.140625 91.433594 83.964844 92.066406 83.609375 C 92.699219 83.253906 93.167969 82.765625 93.460938 82.148438 C 93.691406 81.671875 93.800781 80.96875 93.800781 80.039062 L 93.800781 79.265625 "/>
<path fill-rule="nonzero" fill="rgb(13.729858%, 12.159729%, 12.548828%)" fill-opacity="1" d="M 47.164062 117.09375 L 47.164062 99.878906 L 49.082031 99.878906 L 49.082031 101.496094 C 49.535156 100.863281 50.046875 100.386719 50.617188 100.070312 C 51.1875 99.757812 51.878906 99.597656 52.691406 99.597656 C 53.753906 99.597656 54.691406 99.871094 55.503906 100.414062 C 56.320312 100.964844 56.929688 101.734375 57.34375 102.730469 C 57.757812 103.726562 57.964844 104.820312 57.964844 106.007812 C 57.964844 107.28125 57.738281 108.429688 57.277344 109.449219 C 56.824219 110.46875 56.160156 111.246094 55.285156 111.792969 C 54.414062 112.332031 53.5 112.605469 52.539062 112.605469 C 51.835938 112.605469 51.207031 112.457031 50.648438 112.160156 C 50.085938 111.863281 49.632812 111.488281 49.269531 111.035156 L 49.269531 117.09375 Z M 49.070312 106.171875 C 49.070312 107.773438 49.394531 108.957031 50.042969 109.722656 C 50.691406 110.488281 51.476562 110.871094 52.398438 110.871094 C 53.335938 110.871094 54.140625 110.476562 54.804688 109.679688 C 55.472656 108.886719 55.808594 107.660156 55.808594 105.996094 C 55.808594 104.40625 55.480469 103.222656 54.832031 102.433594 C 54.179688 101.644531 53.398438 101.246094 52.496094 101.246094 C 51.59375 101.246094 50.796875 101.667969 50.105469 102.507812 C 49.414062 103.347656 49.070312 104.570312 49.070312 106.171875 "/>
<path fill-rule="nonzero" fill="rgb(13.729858%, 12.159729%, 12.548828%)" fill-opacity="1" d="M 68.667969 112.324219 L 68.667969 110.496094 C 67.695312 111.902344 66.378906 112.605469 64.714844 112.605469 C 63.984375 112.605469 63.292969 112.464844 62.660156 112.183594 C 62.023438 111.902344 61.550781 111.546875 61.242188 111.125 C 60.929688 110.695312 60.714844 110.175781 60.589844 109.558594 C 60.507812 109.144531 60.464844 108.488281 60.464844 107.589844 L 60.464844 99.878906 L 62.570312 99.878906 L 62.570312 106.78125 C 62.570312 107.882812 62.613281 108.625 62.699219 109.007812 C 62.835938 109.5625 63.113281 109.996094 63.542969 110.316406 C 63.972656 110.632812 64.507812 110.789062 65.140625 110.789062 C 65.769531 110.789062 66.363281 110.628906 66.917969 110.304688 C 67.472656 109.980469 67.867188 109.535156 68.09375 108.980469 C 68.328125 108.421875 68.441406 107.609375 68.441406 106.546875 L 68.441406 99.878906 L 70.550781 99.878906 L 70.550781 112.324219 L 68.667969 112.324219 "/>
<path fill-rule="nonzero" fill="rgb(13.729858%, 12.159729%, 12.548828%)" fill-opacity="1" d="M 73.8125 112.324219 L 73.8125 95.144531 L 75.917969 95.144531 L 75.917969 112.324219 L 73.8125 112.324219 "/>
<path fill-rule="nonzero" fill="rgb(13.729858%, 12.159729%, 12.548828%)" fill-opacity="1" d="M 78.347656 108.609375 L 80.429688 108.28125 C 80.546875 109.117188 80.875 109.757812 81.410156 110.203125 C 81.941406 110.648438 82.691406 110.871094 83.65625 110.871094 C 84.621094 110.871094 85.34375 110.671875 85.808594 110.28125 C 86.277344 109.882812 86.515625 109.421875 86.515625 108.890625 C 86.515625 108.410156 86.304688 108.039062 85.890625 107.765625 C 85.601562 107.574219 84.882812 107.339844 83.734375 107.050781 C 82.191406 106.660156 81.113281 106.324219 80.519531 106.035156 C 79.921875 105.753906 79.46875 105.355469 79.160156 104.851562 C 78.851562 104.347656 78.695312 103.792969 78.695312 103.183594 C 78.695312 102.628906 78.824219 102.117188 79.078125 101.644531 C 79.332031 101.167969 79.679688 100.777344 80.113281 100.464844 C 80.441406 100.222656 80.890625 100.015625 81.453125 99.847656 C 82.023438 99.679688 82.632812 99.597656 83.277344 99.597656 C 84.253906 99.597656 85.109375 99.738281 85.851562 100.019531 C 86.589844 100.300781 87.136719 100.679688 87.488281 101.160156 C 87.839844 101.644531 88.078125 102.285156 88.210938 103.089844 L 86.152344 103.371094 C 86.054688 102.730469 85.78125 102.230469 85.335938 101.871094 C 84.886719 101.511719 84.25 101.332031 83.429688 101.332031 C 82.460938 101.332031 81.769531 101.492188 81.359375 101.8125 C 80.941406 102.132812 80.734375 102.507812 80.734375 102.9375 C 80.734375 103.210938 80.824219 103.457031 80.996094 103.675781 C 81.167969 103.902344 81.433594 104.089844 81.800781 104.238281 C 82.015625 104.316406 82.636719 104.496094 83.667969 104.777344 C 85.160156 105.175781 86.199219 105.5 86.785156 105.757812 C 87.378906 106.007812 87.84375 106.378906 88.179688 106.863281 C 88.515625 107.347656 88.683594 107.949219 88.683594 108.667969 C 88.683594 109.371094 88.472656 110.03125 88.066406 110.65625 C 87.65625 111.277344 87.0625 111.757812 86.289062 112.097656 C 85.519531 112.4375 84.644531 112.605469 83.667969 112.605469 C 82.046875 112.605469 80.816406 112.269531 79.96875 111.597656 C 79.117188 110.925781 78.578125 109.929688 78.347656 108.609375 "/>
<path fill-rule="nonzero" fill="rgb(13.729858%, 12.159729%, 12.548828%)" fill-opacity="1" d="M 99.707031 108.316406 L 101.886719 108.585938 C 101.542969 109.859375 100.90625 110.847656 99.980469 111.550781 C 99.046875 112.253906 97.859375 112.605469 96.414062 112.605469 C 94.59375 112.605469 93.152344 112.042969 92.085938 110.925781 C 91.019531 109.804688 90.488281 108.230469 90.488281 106.207031 C 90.488281 104.113281 91.027344 102.488281 92.101562 101.332031 C 93.183594 100.175781 94.578125 99.597656 96.296875 99.597656 C 97.964844 99.597656 99.324219 100.164062 100.375 101.296875 C 101.429688 102.429688 101.960938 104.023438 101.960938 106.074219 C 101.960938 106.203125 101.953125 106.390625 101.945312 106.640625 L 92.667969 106.640625 C 92.742188 108.007812 93.132812 109.054688 93.828125 109.78125 C 94.523438 110.507812 95.386719 110.871094 96.425781 110.871094 C 97.199219 110.871094 97.859375 110.667969 98.40625 110.261719 C 98.957031 109.855469 99.386719 109.207031 99.707031 108.316406 Z M 92.78125 104.902344 L 99.730469 104.902344 C 99.640625 103.859375 99.371094 103.070312 98.933594 102.550781 C 98.261719 101.738281 97.390625 101.332031 96.324219 101.332031 C 95.355469 101.332031 94.539062 101.65625 93.878906 102.304688 C 93.21875 102.953125 92.855469 103.820312 92.78125 104.902344 "/>
<path fill="none" stroke-width="19.9984" stroke-linecap="butt" stroke-linejoin="miter" stroke="rgb(13.729858%, 12.159729%, 12.548828%)" stroke-opacity="1" stroke-miterlimit="22.9256" d="M 2315.859375 1469.0625 L 2869.882812 1469.0625 " transform="matrix(0.1, 0, 0, -0.1, 0, 265)"/>
<path fill-rule="evenodd" fill="rgb(13.729858%, 12.159729%, 12.548828%)" fill-opacity="1" d="M 286.164062 112.863281 L 295.671875 118.09375 L 286.164062 123.320312 Z M 286.164062 112.863281 "/>
<path fill="none" stroke-width="19.9984" stroke-linecap="butt" stroke-linejoin="miter" stroke="rgb(13.729858%, 12.159729%, 12.548828%)" stroke-opacity="1" stroke-miterlimit="22.9256" d="M 4499.101562 1433.476562 L 5053.164062 1433.476562 " transform="matrix(0.1, 0, 0, -0.1, 0, 265)"/>
<path fill-rule="evenodd" fill="rgb(13.729858%, 12.159729%, 12.548828%)" fill-opacity="1" d="M 504.492188 116.425781 L 513.996094 121.652344 L 504.492188 126.878906 Z M 504.492188 116.425781 "/>
<path fill-rule="nonzero" fill="rgb(13.729858%, 12.159729%, 12.548828%)" fill-opacity="1" d="M 9.417969 98.964844 L 7.308594 98.964844 L 7.308594 85.523438 C 6.800781 86.007812 6.136719 86.492188 5.3125 86.976562 C 4.484375 87.460938 3.746094 87.824219 3.089844 88.066406 L 3.089844 86.027344 C 4.269531 85.472656 5.300781 84.800781 6.183594 84.011719 C 7.066406 83.222656 7.695312 82.457031 8.0625 81.714844 L 9.417969 81.714844 L 9.417969 98.964844 "/>
<path fill="none" stroke-width="19.9984" stroke-linecap="butt" stroke-linejoin="miter" stroke="rgb(13.729858%, 12.159729%, 12.548828%)" stroke-opacity="1" stroke-miterlimit="22.9256" d="M 138.242188 1732.34375 L 417.460938 1732.34375 " transform="matrix(0.1, 0, 0, -0.1, 0, 265)"/>
</svg>
