<?xml version="1.0" encoding="UTF-8"?>
<svg xmlns="http://www.w3.org/2000/svg" xmlns:xlink="http://www.w3.org/1999/xlink" width="648" height="398" viewBox="0 0 648 398">
<path fill="none" stroke-width="21.6" stroke-linecap="butt" stroke-linejoin="miter" stroke="rgb(13.729858%, 12.159729%, 12.548828%)" stroke-opacity="1" stroke-miterlimit="22.9256" d="M 1294.804688 1348.710938 L 1294.804688 1160.078125 L 1086.015625 1160.078125 L 1086.015625 1348.710938 Z M 1294.804688 1348.710938 " transform="matrix(0.1, 0, 0, -0.1, 0, 398)"/>
<path fill="none" stroke-width="21.6" stroke-linecap="butt" stroke-linejoin="miter" stroke="rgb(13.729858%, 12.159729%, 12.548828%)" stroke-opacity="1" stroke-miterlimit="22.9256" d="M 1905.664062 1355.195312 L 1905.664062 1166.523438 L 1696.875 1166.523438 L 1696.875 1355.195312 Z M 1905.664062 1355.195312 " transform="matrix(0.1, 0, 0, -0.1, 0, 398)"/>
<path fill="none" stroke-width="21.6" stroke-linecap="butt" stroke-linejoin="miter" stroke="rgb(13.729858%, 12.159729%, 12.548828%)" stroke-opacity="1" stroke-miterlimit="22.9256" d="M 3558.007812 1356.132812 L 3558.007812 1167.5 L 3349.21875 1167.5 L 3349.21875 1356.132812 Z M 3558.007812 1356.132812 " transform="matrix(0.1, 0, 0, -0.1, 0, 398)"/>
<path fill="none" stroke-width="19.8453" stroke-linecap="butt" stroke-linejoin="miter" stroke="rgb(13.729858%, 12.159729%, 12.548828%)" stroke-opacity="1" stroke-miterlimit="22.9256" d="M -1217.146111 950.26529 L -698.538083 950.26529 " transform="matrix(0, 0.0992139, 0.100786, 0, 0, 398)"/>
<path fill="none" stroke-width="19.1342" stroke-linecap="butt" stroke-linejoin="miter" stroke="rgb(13.729858%, 12.159729%, 12.548828%)" stroke-opacity="1" stroke-miterlimit="22.9256" d="M -664.536238 -1626.146237 L -1183.89721 -1626.146237 L -1183.89721 -1362.486806 " transform="matrix(0, 0.104884, -0.0951156, 0, 0, 398)"/>
<path fill="none" stroke-width="18.8445" stroke-linecap="butt" stroke-linejoin="miter" stroke="rgb(13.729858%, 12.159729%, 12.548828%)" stroke-opacity="1" stroke-miterlimit="22.9256" d="M -666.512697 -2284.111023 L -1189.381692 -2284.111023 L -1189.381692 -2018.622506 " transform="matrix(0, 0.10554, -0.0944603, 0, 0, 398)"/>
<path fill="none" stroke-width="20.0454" stroke-linecap="butt" stroke-linejoin="miter" stroke="rgb(13.729858%, 12.159729%, 12.548828%)" stroke-opacity="1" stroke-miterlimit="22.9256" d="M -1262.618387 -2875.934001 L -1262.618387 -2501.23592 " transform="matrix(0, 0.100201, -0.0997991, 0, 0, 398)"/>
<path fill="none" stroke-width="18.8635" stroke-linecap="butt" stroke-linejoin="miter" stroke="rgb(13.729858%, 12.159729%, 12.548828%)" stroke-opacity="1" stroke-miterlimit="22.9256" d="M -666.837755 -4037.42684 L -1190.234948 -4037.42684 L -1190.234948 -3771.670485 " transform="matrix(0, 0.105635, -0.0943651, 0, 0, 398)"/>
<path fill-rule="evenodd" fill="rgb(13.729858%, 12.159729%, 12.548828%)" fill-opacity="1" d="M 122.210938 268.3125 L 122.210938 269.390625 L 119.257812 269.390625 L 119.257812 276.953125 L 118.105469 276.953125 L 118.105469 269.390625 L 115.152344 269.390625 L 115.152344 268.3125 L 122.210938 268.3125 "/>
<path fill-rule="evenodd" fill="rgb(13.729858%, 12.159729%, 12.548828%)" fill-opacity="1" d="M 183.292969 267.664062 L 183.292969 268.746094 L 180.34375 268.746094 L 180.34375 276.304688 L 179.191406 276.304688 L 179.191406 268.746094 L 176.238281 268.746094 L 176.238281 267.664062 L 183.292969 267.664062 "/>
<path fill="none" stroke-width="21.6" stroke-linecap="butt" stroke-linejoin="miter" stroke="rgb(13.729858%, 12.159729%, 12.548828%)" stroke-opacity="1" stroke-miterlimit="22.9256" d="M 2489.257812 1362.226562 L 2489.257812 1173.554688 L 2280.46875 1173.554688 L 2280.46875 1362.226562 Z M 2489.257812 1362.226562 " transform="matrix(0.1, 0, 0, -0.1, 0, 398)"/>
<path fill-rule="evenodd" fill="rgb(13.729858%, 12.159729%, 12.548828%)" fill-opacity="1" d="M 241.65625 266.960938 L 241.65625 268.042969 L 238.703125 268.042969 L 238.703125 275.601562 L 237.550781 275.601562 L 237.550781 268.042969 L 234.597656 268.042969 L 234.597656 266.960938 L 241.65625 266.960938 "/>
<path fill-rule="evenodd" fill="rgb(13.729858%, 12.159729%, 12.548828%)" fill-opacity="1" d="M 348.527344 267.570312 L 348.527344 268.648438 L 345.574219 268.648438 L 345.574219 276.210938 L 344.421875 276.210938 L 344.421875 268.648438 L 341.472656 268.648438 L 341.472656 267.570312 L 348.527344 267.570312 "/>
<path fill="none" stroke-width="20.0364" stroke-linecap="butt" stroke-linejoin="miter" stroke="rgb(13.729858%, 12.159729%, 12.548828%)" stroke-opacity="1" stroke-miterlimit="22.9256" d="M 510.044921 1242.917293 L 966.862678 1242.917293 " transform="matrix(0.100175, 0, 0, -0.099825, 0, 398)"/>
<path fill="none" stroke-width="16.9418" stroke-linecap="butt" stroke-linejoin="miter" stroke="rgb(13.729858%, 12.159729%, 12.548828%)" stroke-opacity="1" stroke-miterlimit="22.9256" d="M 3702.592853 1071.630498 L 4088.826837 1071.630498 " transform="matrix(0.0819411, 0, 0, -0.118059, 0, 398)"/>
<path fill="none" stroke-width="13.3987" stroke-linecap="butt" stroke-linejoin="miter" stroke="rgb(13.729858%, 12.159729%, 12.548828%)" stroke-opacity="1" stroke-miterlimit="22.9256" d="M 3044.25024 839.483422 L 3349.761149 839.483422 " transform="matrix(0.0507219, 0, 0, -0.149278, 0, 398)"/>
<path fill="none" stroke-width="12.4887" stroke-linecap="butt" stroke-linejoin="miter" stroke="rgb(13.729858%, 12.159729%, 12.548828%)" stroke-opacity="1" stroke-miterlimit="22.9256" d="M 5453.524796 782.78171 L 5738.22532 782.78171 " transform="matrix(0.0398445, 0, 0, -0.160156, 0, 398)"/>
<path fill="none" stroke-width="20.0013" stroke-linecap="butt" stroke-linejoin="miter" stroke="rgb(13.729858%, 12.159729%, 12.548828%)" stroke-opacity="1" stroke-miterlimit="22.9256" d="M 824.609375 241.757812 L 4347.03125 241.757812 L 4347.03125 19.960938 L 824.609375 19.960938 Z M 824.609375 241.757812 " transform="matrix(0.1, 0, 0, -0.1, 0, 398)"/>
<path fill-rule="nonzero" fill="rgb(13.729858%, 12.159729%, 12.548828%)" fill-opacity="1" d="M 258.691406 390.089844 L 249.726562 390.089844 L 249.726562 389.765625 L 254.324219 384.253906 L 249.726562 378.488281 L 249.726562 378.171875 L 258.421875 378.171875 L 258.691406 381.144531 L 258.332031 381.144531 C 258.246094 380.335938 258.019531 379.757812 257.660156 379.410156 C 257.300781 379.066406 256.78125 378.894531 256.101562 378.894531 L 252.003906 378.894531 L 255.757812 383.613281 L 251.53125 388.703125 L 256.1875 388.703125 C 256.96875 388.703125 257.550781 388.554688 257.941406 388.261719 C 258.332031 387.96875 258.65625 387.417969 258.914062 386.609375 L 259.238281 386.679688 L 258.691406 390.089844 "/>
<path fill="none" stroke-width="20.0013" stroke-linecap="butt" stroke-linejoin="miter" stroke="rgb(13.729858%, 12.159729%, 12.548828%)" stroke-opacity="1" stroke-miterlimit="22.9256" d="M 959.0625 458.4375 L 1089.882812 685 L 828.242188 685 Z M 959.0625 458.4375 " transform="matrix(0.1, 0, 0, -0.1, 0, 398)"/>
<path fill="none" stroke-width="20.0013" stroke-linecap="butt" stroke-linejoin="miter" stroke="rgb(13.729858%, 12.159729%, 12.548828%)" stroke-opacity="1" stroke-miterlimit="22.9256" d="M 1547.109375 470.390625 L 1677.890625 696.992188 L 1416.289062 696.992188 Z M 1547.109375 470.390625 " transform="matrix(0.1, 0, 0, -0.1, 0, 398)"/>
<path fill="none" stroke-width="20.0013" stroke-linecap="butt" stroke-linejoin="miter" stroke="rgb(13.729858%, 12.159729%, 12.548828%)" stroke-opacity="1" stroke-miterlimit="22.9256" d="M 2157.929688 476.875 L 2288.75 703.4375 L 2027.109375 703.4375 Z M 2157.929688 476.875 " transform="matrix(0.1, 0, 0, -0.1, 0, 398)"/>
<path fill="none" stroke-width="20.0013" stroke-linecap="butt" stroke-linejoin="miter" stroke="rgb(13.729858%, 12.159729%, 12.548828%)" stroke-opacity="1" stroke-miterlimit="22.9256" d="M 3810.273438 477.8125 L 3941.09375 704.414062 L 3679.453125 704.414062 Z M 3810.273438 477.8125 " transform="matrix(0.1, 0, 0, -0.1, 0, 398)"/>
<path fill="none" stroke-width="20.0013" stroke-linecap="butt" stroke-linejoin="miter" stroke="rgb(13.729858%, 12.159729%, 12.548828%)" stroke-opacity="1" stroke-miterlimit="22.9256" d="M 959.0625 454.882812 L 959.0625 326.640625 " transform="matrix(0.1, 0, 0, -0.1, 0, 398)"/>
<path fill-rule="evenodd" fill="rgb(13.729858%, 12.159729%, 12.548828%)" fill-opacity="1" d="M 101.132812 364.511719 L 95.90625 374.015625 L 90.675781 364.511719 Z M 101.132812 364.511719 "/>
<path fill="none" stroke-width="20.0013" stroke-linecap="butt" stroke-linejoin="miter" stroke="rgb(13.729858%, 12.159729%, 12.548828%)" stroke-opacity="1" stroke-miterlimit="22.9256" d="M 1548.554688 468.359375 L 1548.554688 326.640625 " transform="matrix(0.1, 0, 0, -0.1, 0, 398)"/>
<path fill-rule="evenodd" fill="rgb(13.729858%, 12.159729%, 12.548828%)" fill-opacity="1" d="M 160.085938 364.511719 L 154.855469 374.015625 L 149.628906 364.511719 Z M 160.085938 364.511719 "/>
<path fill="none" stroke-width="20.0013" stroke-linecap="butt" stroke-linejoin="miter" stroke="rgb(13.729858%, 12.159729%, 12.548828%)" stroke-opacity="1" stroke-miterlimit="22.9256" d="M 2159.414062 474.804688 L 2159.414062 333.085938 " transform="matrix(0.1, 0, 0, -0.1, 0, 398)"/>
<path fill-rule="evenodd" fill="rgb(13.729858%, 12.159729%, 12.548828%)" fill-opacity="1" d="M 221.167969 363.867188 L 215.941406 373.371094 L 210.710938 363.867188 Z M 221.167969 363.867188 "/>
<path fill="none" stroke-width="20.0013" stroke-linecap="butt" stroke-linejoin="miter" stroke="rgb(13.729858%, 12.159729%, 12.548828%)" stroke-opacity="1" stroke-miterlimit="22.9256" d="M 3811.757812 475.78125 L 3811.757812 334.0625 " transform="matrix(0.1, 0, 0, -0.1, 0, 398)"/>
<path fill-rule="evenodd" fill="rgb(13.729858%, 12.159729%, 12.548828%)" fill-opacity="1" d="M 386.402344 363.769531 L 381.175781 373.273438 L 375.945312 363.769531 Z M 386.402344 363.769531 "/>
<path fill="none" stroke-width="20.0013" stroke-linecap="butt" stroke-linejoin="miter" stroke="rgb(13.729858%, 12.159729%, 12.548828%)" stroke-opacity="1" stroke-miterlimit="22.9256" d="M 4348.59375 132.304688 L 4464.765625 132.304688 " transform="matrix(0.1, 0, 0, -0.1, 0, 398)"/>
<path fill-rule="evenodd" fill="rgb(13.729858%, 12.159729%, 12.548828%)" fill-opacity="1" d="M 445.652344 379.542969 L 455.15625 384.769531 L 445.652344 390 Z M 445.652344 379.542969 "/>
<path fill="none" stroke-width="20.0013" stroke-linecap="butt" stroke-linejoin="miter" stroke="rgb(13.729858%, 12.159729%, 12.548828%)" stroke-opacity="1" stroke-miterlimit="22.9256" d="M 4296.445312 2696.796875 L 4412.617188 2696.796875 " transform="matrix(0.1, 0, 0, -0.1, 0, 398)"/>
<path fill-rule="evenodd" fill="rgb(13.729858%, 12.159729%, 12.548828%)" fill-opacity="1" d="M 440.4375 123.09375 L 449.945312 128.320312 L 440.4375 133.550781 Z M 440.4375 123.09375 "/>
<path fill="none" stroke-width="20.0013" stroke-linecap="butt" stroke-linejoin="miter" stroke="rgb(13.729858%, 12.159729%, 12.548828%)" stroke-opacity="1" stroke-miterlimit="22.9256" d="M 493.046875 2713.515625 L 726.523438 2713.515625 " transform="matrix(0.1, 0, 0, -0.1, 0, 398)"/>
<path fill-rule="evenodd" fill="rgb(13.729858%, 12.159729%, 12.548828%)" fill-opacity="1" d="M 71.828125 121.421875 L 81.332031 126.648438 L 71.828125 131.878906 Z M 71.828125 121.421875 "/>
<path fill="none" stroke-width="20.0013" stroke-linecap="butt" stroke-linejoin="miter" stroke="rgb(13.729858%, 12.159729%, 12.548828%)" stroke-opacity="1" stroke-miterlimit="22.9256" d="M 5050.898438 137.890625 L 5167.070312 137.890625 " transform="matrix(0.1, 0, 0, -0.1, 0, 398)"/>
<path fill-rule="evenodd" fill="rgb(13.729858%, 12.159729%, 12.548828%)" fill-opacity="1" d="M 515.882812 378.980469 L 525.386719 384.210938 L 515.882812 389.4375 Z M 515.882812 378.980469 "/>
<path fill="none" stroke-width="20.0013" stroke-linecap="butt" stroke-linejoin="miter" stroke="rgb(13.729858%, 12.159729%, 12.548828%)" stroke-opacity="1" stroke-miterlimit="22.9256" d="M 4998.789062 2702.382812 L 5114.960938 2702.382812 " transform="matrix(0.1, 0, 0, -0.1, 0, 398)"/>
<path fill-rule="evenodd" fill="rgb(13.729858%, 12.159729%, 12.548828%)" fill-opacity="1" d="M 510.671875 122.535156 L 520.175781 127.761719 L 510.671875 132.988281 Z M 510.671875 122.535156 "/>
<path fill-rule="evenodd" fill="rgb(13.729858%, 12.159729%, 12.548828%)" fill-opacity="1" d="M 96.167969 269.476562 C 98.144531 269.476562 99.746094 271.230469 99.746094 273.386719 C 99.746094 275.546875 98.144531 277.296875 96.167969 277.296875 C 94.191406 277.296875 92.589844 275.546875 92.589844 273.386719 C 92.589844 271.230469 94.191406 269.476562 96.167969 269.476562 "/>
<path fill="none" stroke-width="20.0013" stroke-linecap="butt" stroke-linejoin="miter" stroke="rgb(13.729858%, 12.159729%, 12.548828%)" stroke-opacity="1" stroke-miterlimit="22.9256" d="M 961.679688 1285.234375 C 981.445312 1285.234375 997.460938 1267.695312 997.460938 1246.132812 C 997.460938 1224.53125 981.445312 1207.03125 961.679688 1207.03125 C 941.914062 1207.03125 925.898438 1224.53125 925.898438 1246.132812 C 925.898438 1267.695312 941.914062 1285.234375 961.679688 1285.234375 Z M 961.679688 1285.234375 " transform="matrix(0.1, 0, 0, -0.1, 0, 398)"/>
<path fill-rule="evenodd" fill="rgb(13.729858%, 12.159729%, 12.548828%)" fill-opacity="1" d="M 195.804688 230.085938 C 197.777344 230.085938 199.378906 231.835938 199.378906 233.996094 C 199.378906 236.15625 197.777344 237.90625 195.804688 237.90625 C 193.828125 237.90625 192.226562 236.15625 192.226562 233.996094 C 192.226562 231.835938 193.828125 230.085938 195.804688 230.085938 "/>
<path fill="none" stroke-width="20.0013" stroke-linecap="butt" stroke-linejoin="miter" stroke="rgb(13.729858%, 12.159729%, 12.548828%)" stroke-opacity="1" stroke-miterlimit="22.9256" d="M 1958.046875 1679.140625 C 1977.773438 1679.140625 1993.789062 1661.640625 1993.789062 1640.039062 C 1993.789062 1618.4375 1977.773438 1600.9375 1958.046875 1600.9375 C 1938.28125 1600.9375 1922.265625 1618.4375 1922.265625 1640.039062 C 1922.265625 1661.640625 1938.28125 1679.140625 1958.046875 1679.140625 Z M 1958.046875 1679.140625 " transform="matrix(0.1, 0, 0, -0.1, 0, 398)"/>
<path fill-rule="evenodd" fill="rgb(13.729858%, 12.159729%, 12.548828%)" fill-opacity="1" d="M 257.261719 230.085938 C 259.238281 230.085938 260.839844 231.835938 260.839844 233.996094 C 260.839844 236.15625 259.238281 237.90625 257.261719 237.90625 C 255.289062 237.90625 253.6875 236.15625 253.6875 233.996094 C 253.6875 231.835938 255.289062 230.085938 257.261719 230.085938 "/>
<path fill="none" stroke-width="20.0013" stroke-linecap="butt" stroke-linejoin="miter" stroke="rgb(13.729858%, 12.159729%, 12.548828%)" stroke-opacity="1" stroke-miterlimit="22.9256" d="M 2572.617188 1679.140625 C 2592.382812 1679.140625 2608.398438 1661.640625 2608.398438 1640.039062 C 2608.398438 1618.4375 2592.382812 1600.9375 2572.617188 1600.9375 C 2552.890625 1600.9375 2536.875 1618.4375 2536.875 1640.039062 C 2536.875 1661.640625 2552.890625 1679.140625 2572.617188 1679.140625 Z M 2572.617188 1679.140625 " transform="matrix(0.1, 0, 0, -0.1, 0, 398)"/>
<path fill-rule="evenodd" fill="rgb(13.729858%, 12.159729%, 12.548828%)" fill-opacity="1" d="M 421.898438 230.628906 C 423.875 230.628906 425.476562 232.382812 425.476562 234.539062 C 425.476562 236.699219 423.875 238.449219 421.898438 238.449219 C 419.925781 238.449219 418.320312 236.699219 418.320312 234.539062 C 418.320312 232.382812 419.925781 230.628906 421.898438 230.628906 "/>
<path fill="none" stroke-width="20.0013" stroke-linecap="butt" stroke-linejoin="miter" stroke="rgb(13.729858%, 12.159729%, 12.548828%)" stroke-opacity="1" stroke-miterlimit="22.9256" d="M 4218.984375 1673.710938 C 4238.75 1673.710938 4254.765625 1656.171875 4254.765625 1634.609375 C 4254.765625 1613.007812 4238.75 1595.507812 4218.984375 1595.507812 C 4199.257812 1595.507812 4183.203125 1613.007812 4183.203125 1634.609375 C 4183.203125 1656.171875 4199.257812 1673.710938 4218.984375 1673.710938 Z M 4218.984375 1673.710938 " transform="matrix(0.1, 0, 0, -0.1, 0, 398)"/>
<path fill-rule="evenodd" fill="rgb(13.729858%, 12.159729%, 12.548828%)" fill-opacity="1" d="M 538.9375 300.839844 C 540.914062 300.839844 542.515625 302.589844 542.515625 304.75 C 542.515625 306.910156 540.914062 308.660156 538.9375 308.660156 C 536.960938 308.660156 535.359375 306.910156 535.359375 304.75 C 535.359375 302.589844 536.960938 300.839844 538.9375 300.839844 "/>
<path fill="none" stroke-width="20.0013" stroke-linecap="butt" stroke-linejoin="miter" stroke="rgb(13.729858%, 12.159729%, 12.548828%)" stroke-opacity="1" stroke-miterlimit="22.9256" d="M 5389.375 971.601562 C 5409.140625 971.601562 5425.15625 954.101562 5425.15625 932.5 C 5425.15625 910.898438 5409.140625 893.398438 5389.375 893.398438 C 5369.609375 893.398438 5353.59375 910.898438 5353.59375 932.5 C 5353.59375 954.101562 5369.609375 971.601562 5389.375 971.601562 Z M 5389.375 971.601562 " transform="matrix(0.1, 0, 0, -0.1, 0, 398)"/>
<path fill-rule="evenodd" fill="rgb(13.729858%, 12.159729%, 12.548828%)" fill-opacity="1" d="M 533.726562 51.589844 C 535.699219 51.589844 537.300781 53.34375 537.300781 55.5 C 537.300781 57.660156 535.699219 59.410156 533.726562 59.410156 C 531.75 59.410156 530.148438 57.660156 530.148438 55.5 C 530.148438 53.34375 531.75 51.589844 533.726562 51.589844 "/>
<path fill="none" stroke-width="20.0013" stroke-linecap="butt" stroke-linejoin="miter" stroke="rgb(13.729858%, 12.159729%, 12.548828%)" stroke-opacity="1" stroke-miterlimit="22.9256" d="M 5337.265625 3464.101562 C 5356.992188 3464.101562 5373.007812 3446.5625 5373.007812 3425 C 5373.007812 3403.398438 5356.992188 3385.898438 5337.265625 3385.898438 C 5317.5 3385.898438 5301.484375 3403.398438 5301.484375 3425 C 5301.484375 3446.5625 5317.5 3464.101562 5337.265625 3464.101562 Z M 5337.265625 3464.101562 " transform="matrix(0.1, 0, 0, -0.1, 0, 398)"/>
<path fill-rule="evenodd" fill="rgb(13.729858%, 12.159729%, 12.548828%)" fill-opacity="1" d="M 154.261719 268.230469 C 156.234375 268.230469 157.839844 269.984375 157.839844 272.144531 C 157.839844 274.300781 156.234375 276.054688 154.261719 276.054688 C 152.285156 276.054688 150.683594 274.300781 150.683594 272.144531 C 150.683594 269.984375 152.285156 268.230469 154.261719 268.230469 "/>
<path fill="none" stroke-width="20.0013" stroke-linecap="butt" stroke-linejoin="miter" stroke="rgb(13.729858%, 12.159729%, 12.548828%)" stroke-opacity="1" stroke-miterlimit="22.9256" d="M 1542.617188 1297.695312 C 1562.34375 1297.695312 1578.398438 1280.15625 1578.398438 1258.554688 C 1578.398438 1236.992188 1562.34375 1219.453125 1542.617188 1219.453125 C 1522.851562 1219.453125 1506.835938 1236.992188 1506.835938 1258.554688 C 1506.835938 1280.15625 1522.851562 1297.695312 1542.617188 1297.695312 Z M 1542.617188 1297.695312 " transform="matrix(0.1, 0, 0, -0.1, 0, 398)"/>
<path fill-rule="evenodd" fill="rgb(13.729858%, 12.159729%, 12.548828%)" fill-opacity="1" d="M 215.941406 268.183594 C 217.917969 268.183594 219.519531 269.9375 219.519531 272.09375 C 219.519531 274.253906 217.917969 276.003906 215.941406 276.003906 C 213.96875 276.003906 212.367188 274.253906 212.367188 272.09375 C 212.367188 269.9375 213.96875 268.183594 215.941406 268.183594 "/>
<path fill="none" stroke-width="20.0013" stroke-linecap="butt" stroke-linejoin="miter" stroke="rgb(13.729858%, 12.159729%, 12.548828%)" stroke-opacity="1" stroke-miterlimit="22.9256" d="M 2159.414062 1298.164062 C 2179.179688 1298.164062 2195.195312 1280.625 2195.195312 1259.0625 C 2195.195312 1237.460938 2179.179688 1219.960938 2159.414062 1219.960938 C 2139.6875 1219.960938 2123.671875 1237.460938 2123.671875 1259.0625 C 2123.671875 1280.625 2139.6875 1298.164062 2159.414062 1298.164062 Z M 2159.414062 1298.164062 " transform="matrix(0.1, 0, 0, -0.1, 0, 398)"/>
<path fill="none" stroke-width="20.0013" stroke-linecap="butt" stroke-linejoin="miter" stroke="rgb(13.729858%, 12.159729%, 12.548828%)" stroke-opacity="1" stroke-miterlimit="22.9256" d="M 957.695312 1249.335938 L 1083.90625 1249.335938 " transform="matrix(0.1, 0, 0, -0.1, 0, 398)"/>
<path fill-rule="nonzero" fill="rgb(13.729858%, 12.159729%, 12.548828%)" fill-opacity="1" d="M 290.824219 279.941406 L 295.804688 262.179688 L 297.492188 262.179688 L 292.527344 279.941406 L 290.824219 279.941406 "/>
<path fill-rule="nonzero" fill="rgb(13.729858%, 12.159729%, 12.548828%)" fill-opacity="1" d="M 297.492188 279.941406 L 302.472656 262.179688 L 304.160156 262.179688 L 299.195312 279.941406 L 297.492188 279.941406 "/>
<path fill-rule="nonzero" fill="rgb(13.729858%, 12.159729%, 12.548828%)" fill-opacity="1" d="M 4.136719 280.417969 L 8.6875 273.949219 L 4.476562 267.972656 L 7.113281 267.972656 L 9.027344 270.890625 C 9.382812 271.445312 9.675781 271.910156 9.890625 272.285156 C 10.234375 271.769531 10.550781 271.3125 10.84375 270.914062 L 12.9375 267.972656 L 15.457031 267.972656 L 11.15625 273.835938 L 15.785156 280.417969 L 13.199219 280.417969 L 10.640625 276.550781 L 9.960938 275.507812 L 6.695312 280.417969 L 4.136719 280.417969 "/>
<path fill-rule="nonzero" fill="rgb(13.729858%, 12.159729%, 12.548828%)" fill-opacity="1" d="M 21.574219 285.46875 C 20.410156 284.003906 19.425781 282.28125 18.621094 280.3125 C 17.816406 278.34375 17.414062 276.304688 17.414062 274.195312 C 17.414062 272.335938 17.714844 270.554688 18.316406 268.851562 C 19.023438 266.875 20.105469 264.90625 21.574219 262.945312 L 23.085938 262.945312 C 22.140625 264.570312 21.519531 265.730469 21.214844 266.425781 C 20.734375 267.503906 20.363281 268.628906 20.085938 269.800781 C 19.75 271.261719 19.582031 272.730469 19.582031 274.207031 C 19.582031 277.964844 20.75 281.71875 23.085938 285.46875 L 21.574219 285.46875 "/>
<path fill-rule="nonzero" fill="rgb(13.729858%, 12.159729%, 12.548828%)" fill-opacity="1" d="M 25.539062 280.417969 L 25.539062 267.972656 L 27.433594 267.972656 L 27.433594 269.742188 C 28.351562 268.375 29.667969 267.691406 31.394531 267.691406 C 32.144531 267.691406 32.835938 267.824219 33.460938 268.09375 C 34.09375 268.367188 34.5625 268.71875 34.875 269.15625 C 35.191406 269.59375 35.40625 270.113281 35.535156 270.714844 C 35.609375 271.105469 35.648438 271.789062 35.648438 272.765625 L 35.648438 280.417969 L 33.539062 280.417969 L 33.539062 272.847656 C 33.539062 271.988281 33.457031 271.347656 33.292969 270.917969 C 33.128906 270.492188 32.839844 270.152344 32.421875 269.902344 C 32.003906 269.644531 31.515625 269.519531 30.949219 269.519531 C 30.050781 269.519531 29.277344 269.804688 28.621094 270.375 C 27.96875 270.945312 27.644531 272.027344 27.644531 273.621094 L 27.644531 280.417969 L 25.539062 280.417969 "/>
<path fill-rule="nonzero" fill="rgb(13.729858%, 12.159729%, 12.548828%)" fill-opacity="1" d="M 40.265625 285.46875 L 38.753906 285.46875 C 41.089844 281.71875 42.257812 277.964844 42.257812 274.207031 C 42.257812 272.738281 42.089844 271.28125 41.753906 269.835938 C 41.488281 268.664062 41.117188 267.539062 40.640625 266.460938 C 40.339844 265.757812 39.710938 264.585938 38.753906 262.945312 L 40.265625 262.945312 C 41.734375 264.90625 42.820312 266.875 43.527344 268.851562 C 44.125 270.554688 44.425781 272.335938 44.425781 274.195312 C 44.425781 276.304688 44.023438 278.34375 43.214844 280.3125 C 42.40625 282.28125 41.421875 284.003906 40.265625 285.46875 "/>
<path fill-rule="nonzero" fill="rgb(13.729858%, 12.159729%, 12.548828%)" fill-opacity="1" d="M 4.136719 134.023438 L 8.6875 127.558594 L 4.476562 121.582031 L 7.113281 121.582031 L 9.027344 124.496094 C 9.382812 125.054688 9.675781 125.519531 9.890625 125.894531 C 10.234375 125.378906 10.550781 124.921875 10.84375 124.519531 L 12.9375 121.582031 L 15.457031 121.582031 L 11.15625 127.441406 L 15.785156 134.023438 L 13.199219 134.023438 L 10.640625 130.15625 L 9.960938 129.113281 L 6.695312 134.023438 L 4.136719 134.023438 "/>
<path fill-rule="nonzero" fill="rgb(13.729858%, 12.159729%, 12.548828%)" fill-opacity="1" d="M 21.574219 139.078125 C 20.410156 137.609375 19.425781 135.890625 18.621094 133.921875 C 17.816406 131.949219 17.414062 129.914062 17.414062 127.800781 C 17.414062 125.941406 17.714844 124.160156 18.316406 122.457031 C 19.023438 120.480469 20.105469 118.511719 21.574219 116.554688 L 23.085938 116.554688 C 22.140625 118.175781 21.519531 119.335938 21.214844 120.03125 C 20.734375 121.109375 20.363281 122.238281 20.085938 123.410156 C 19.75 124.871094 19.582031 126.335938 19.582031 127.8125 C 19.582031 131.574219 20.75 135.324219 23.085938 139.078125 L 21.574219 139.078125 "/>
<path fill-rule="nonzero" fill="rgb(13.729858%, 12.159729%, 12.548828%)" fill-opacity="1" d="M 25.539062 134.023438 L 25.539062 121.582031 L 27.433594 121.582031 L 27.433594 123.347656 C 28.351562 121.980469 29.667969 121.296875 31.394531 121.296875 C 32.144531 121.296875 32.835938 121.433594 33.460938 121.699219 C 34.09375 121.972656 34.5625 122.324219 34.875 122.765625 C 35.191406 123.199219 35.40625 123.722656 35.535156 124.320312 C 35.609375 124.714844 35.648438 125.398438 35.648438 126.371094 L 35.648438 134.023438 L 33.539062 134.023438 L 33.539062 126.453125 C 33.539062 125.597656 33.457031 124.953125 33.292969 124.523438 C 33.128906 124.101562 32.839844 123.761719 32.421875 123.507812 C 32.003906 123.253906 31.515625 123.125 30.949219 123.125 C 30.050781 123.125 29.277344 123.414062 28.621094 123.980469 C 27.96875 124.554688 27.644531 125.632812 27.644531 127.230469 L 27.644531 134.023438 L 25.539062 134.023438 "/>
<path fill-rule="nonzero" fill="rgb(13.729858%, 12.159729%, 12.548828%)" fill-opacity="1" d="M 40.265625 139.078125 L 38.753906 139.078125 C 41.089844 135.324219 42.257812 131.574219 42.257812 127.8125 C 42.257812 126.34375 42.089844 124.890625 41.753906 123.441406 C 41.488281 122.273438 41.117188 121.144531 40.640625 120.070312 C 40.339844 119.367188 39.710938 118.191406 38.753906 116.554688 L 40.265625 116.554688 C 41.734375 118.511719 42.820312 120.480469 43.527344 122.457031 C 44.125 124.160156 44.425781 125.941406 44.425781 127.800781 C 44.425781 129.914062 44.023438 131.949219 43.214844 133.921875 C 42.40625 135.890625 41.421875 137.609375 40.265625 139.078125 "/>
<path fill-rule="nonzero" fill="rgb(13.729858%, 12.159729%, 12.548828%)" fill-opacity="1" d="M 460.484375 395.222656 L 460.25 393.242188 C 460.714844 393.367188 461.113281 393.429688 461.457031 393.429688 C 461.925781 393.429688 462.300781 393.351562 462.582031 393.195312 C 462.867188 393.039062 463.09375 392.824219 463.273438 392.539062 C 463.410156 392.332031 463.621094 391.808594 463.917969 390.972656 C 463.957031 390.851562 464.023438 390.683594 464.105469 390.457031 L 459.386719 377.988281 L 461.65625 377.988281 L 464.25 385.191406 C 464.582031 386.105469 464.886719 387.066406 465.148438 388.074219 C 465.394531 387.105469 465.683594 386.164062 466.019531 385.238281 L 468.679688 377.988281 L 470.785156 377.988281 L 466.054688 390.644531 C 465.546875 392.011719 465.148438 392.949219 464.871094 393.46875 C 464.492188 394.164062 464.066406 394.671875 463.582031 394.996094 C 463.09375 395.320312 462.519531 395.484375 461.847656 395.484375 C 461.4375 395.484375 460.984375 395.394531 460.484375 395.222656 "/>
<path fill-rule="nonzero" fill="rgb(13.729858%, 12.159729%, 12.548828%)" fill-opacity="1" d="M 476.609375 395.484375 C 475.445312 394.015625 474.460938 392.292969 473.65625 390.328125 C 472.855469 388.355469 472.449219 386.320312 472.449219 384.207031 C 472.449219 382.347656 472.75 380.566406 473.355469 378.863281 C 474.058594 376.886719 475.140625 374.917969 476.609375 372.960938 L 478.121094 372.960938 C 477.179688 374.582031 476.554688 375.742188 476.25 376.4375 C 475.769531 377.515625 475.398438 378.644531 475.121094 379.816406 C 474.785156 381.273438 474.617188 382.742188 474.617188 384.21875 C 474.617188 387.980469 475.785156 391.730469 478.121094 395.484375 L 476.609375 395.484375 "/>
<path fill-rule="nonzero" fill="rgb(13.729858%, 12.159729%, 12.548828%)" fill-opacity="1" d="M 480.574219 390.429688 L 480.574219 377.988281 L 482.46875 377.988281 L 482.46875 379.753906 C 483.386719 378.386719 484.707031 377.703125 486.429688 377.703125 C 487.183594 377.703125 487.871094 377.839844 488.496094 378.105469 C 489.128906 378.378906 489.597656 378.730469 489.910156 379.171875 C 490.226562 379.605469 490.441406 380.128906 490.570312 380.726562 C 490.644531 381.117188 490.6875 381.800781 490.6875 382.777344 L 490.6875 390.429688 L 488.574219 390.429688 L 488.574219 382.859375 C 488.574219 382.003906 488.492188 381.359375 488.328125 380.929688 C 488.164062 380.507812 487.875 380.167969 487.457031 379.914062 C 487.039062 379.660156 486.550781 379.53125 485.984375 379.53125 C 485.085938 379.53125 484.3125 379.820312 483.65625 380.386719 C 483.007812 380.960938 482.683594 382.039062 482.683594 383.636719 L 482.683594 390.429688 L 480.574219 390.429688 "/>
<path fill-rule="nonzero" fill="rgb(13.729858%, 12.159729%, 12.548828%)" fill-opacity="1" d="M 495.300781 395.484375 L 493.789062 395.484375 C 496.125 391.730469 497.292969 387.980469 497.292969 384.21875 C 497.292969 382.75 497.125 381.292969 496.789062 379.847656 C 496.527344 378.679688 496.152344 377.550781 495.679688 376.476562 C 495.375 375.769531 494.746094 374.597656 493.789062 372.960938 L 495.300781 372.960938 C 496.769531 374.917969 497.859375 376.886719 498.5625 378.863281 C 499.160156 380.566406 499.460938 382.347656 499.460938 384.207031 C 499.460938 386.320312 499.058594 388.355469 498.25 390.328125 C 497.441406 392.292969 496.457031 394.015625 495.300781 395.484375 "/>
<path fill-rule="nonzero" fill="rgb(13.729858%, 12.159729%, 12.548828%)" fill-opacity="1" d="M 455.273438 138.773438 L 455.039062 136.792969 C 455.503906 136.917969 455.902344 136.980469 456.246094 136.980469 C 456.714844 136.980469 457.089844 136.902344 457.371094 136.746094 C 457.652344 136.589844 457.882812 136.375 458.0625 136.089844 C 458.199219 135.882812 458.410156 135.359375 458.703125 134.523438 C 458.746094 134.402344 458.808594 134.234375 458.894531 134.007812 L 454.171875 121.539062 L 456.445312 121.539062 L 459.039062 128.742188 C 459.371094 129.65625 459.671875 130.617188 459.9375 131.628906 C 460.183594 130.660156 460.46875 129.714844 460.804688 128.789062 L 463.464844 121.539062 L 465.574219 121.539062 L 460.839844 134.195312 C 460.335938 135.5625 459.9375 136.503906 459.65625 137.019531 C 459.28125 137.714844 458.855469 138.222656 458.367188 138.546875 C 457.882812 138.871094 457.304688 139.035156 456.632812 139.035156 C 456.226562 139.035156 455.773438 138.945312 455.273438 138.773438 "/>
<path fill-rule="nonzero" fill="rgb(13.729858%, 12.159729%, 12.548828%)" fill-opacity="1" d="M 471.398438 139.035156 C 470.234375 137.566406 469.25 135.847656 468.445312 133.878906 C 467.640625 131.90625 467.238281 129.871094 467.238281 127.757812 C 467.238281 125.898438 467.539062 124.117188 468.140625 122.414062 C 468.847656 120.4375 469.929688 118.46875 471.398438 116.511719 L 472.910156 116.511719 C 471.964844 118.132812 471.339844 119.292969 471.039062 119.988281 C 470.558594 121.066406 470.1875 122.195312 469.910156 123.367188 C 469.574219 124.828125 469.40625 126.292969 469.40625 127.769531 C 469.40625 131.53125 470.574219 135.28125 472.910156 139.035156 L 471.398438 139.035156 "/>
<path fill-rule="nonzero" fill="rgb(13.729858%, 12.159729%, 12.548828%)" fill-opacity="1" d="M 475.363281 133.980469 L 475.363281 121.539062 L 477.257812 121.539062 L 477.257812 123.304688 C 478.171875 121.9375 479.492188 121.253906 481.21875 121.253906 C 481.96875 121.253906 482.65625 121.390625 483.285156 121.65625 C 483.917969 121.929688 484.386719 122.28125 484.699219 122.722656 C 485.015625 123.15625 485.230469 123.679688 485.359375 124.277344 C 485.433594 124.671875 485.472656 125.355469 485.472656 126.328125 L 485.472656 133.980469 L 483.359375 133.980469 L 483.359375 126.410156 C 483.359375 125.554688 483.28125 124.910156 483.117188 124.480469 C 482.953125 124.058594 482.660156 123.71875 482.246094 123.464844 C 481.824219 123.210938 481.339844 123.082031 480.773438 123.082031 C 479.871094 123.082031 479.101562 123.371094 478.445312 123.9375 C 477.792969 124.511719 477.46875 125.589844 477.46875 127.1875 L 477.46875 133.980469 L 475.363281 133.980469 "/>
<path fill-rule="nonzero" fill="rgb(13.729858%, 12.159729%, 12.548828%)" fill-opacity="1" d="M 490.089844 139.035156 L 488.578125 139.035156 C 490.914062 135.28125 492.082031 131.53125 492.082031 127.769531 C 492.082031 126.300781 491.914062 124.847656 491.578125 123.398438 C 491.3125 122.230469 490.941406 121.101562 490.464844 120.027344 C 490.160156 119.320312 489.535156 118.148438 488.578125 116.511719 L 490.089844 116.511719 C 491.558594 118.46875 492.644531 120.4375 493.351562 122.414062 C 493.949219 124.117188 494.25 125.898438 494.25 127.757812 C 494.25 129.871094 493.847656 131.90625 493.039062 133.878906 C 492.230469 135.847656 491.246094 137.566406 490.089844 139.035156 "/>
<path fill="none" stroke-width="20.0013" stroke-linecap="butt" stroke-linejoin="miter" stroke="rgb(13.729858%, 12.159729%, 12.548828%)" stroke-opacity="1" stroke-miterlimit="22.9256" d="M 1054.179688 932.5 L 957.734375 932.5 " transform="matrix(0.1, 0, 0, -0.1, 0, 398)"/>
<path fill-rule="evenodd" fill="rgb(13.729858%, 12.159729%, 12.548828%)" fill-opacity="1" d="M 95.773438 300.839844 C 97.75 300.839844 99.351562 302.589844 99.351562 304.75 C 99.351562 306.910156 97.75 308.660156 95.773438 308.660156 C 93.796875 308.660156 92.199219 306.910156 92.199219 304.75 C 92.199219 302.589844 93.796875 300.839844 95.773438 300.839844 "/>
<path fill="none" stroke-width="20.0013" stroke-linecap="butt" stroke-linejoin="miter" stroke="rgb(13.729858%, 12.159729%, 12.548828%)" stroke-opacity="1" stroke-miterlimit="22.9256" d="M 957.734375 971.601562 C 977.5 971.601562 993.515625 954.101562 993.515625 932.5 C 993.515625 910.898438 977.5 893.398438 957.734375 893.398438 C 937.96875 893.398438 921.992188 910.898438 921.992188 932.5 C 921.992188 954.101562 937.96875 971.601562 957.734375 971.601562 Z M 957.734375 971.601562 " transform="matrix(0.1, 0, 0, -0.1, 0, 398)"/>
<path fill="none" stroke-width="20.0013" stroke-linecap="butt" stroke-linejoin="miter" stroke="rgb(13.729858%, 12.159729%, 12.548828%)" stroke-opacity="1" stroke-miterlimit="22.9256" d="M 1179.335938 1057.695312 C 1248.476562 1057.695312 1304.53125 1001.640625 1304.53125 932.5 C 1304.53125 863.398438 1248.476562 807.304688 1179.335938 807.304688 C 1110.234375 807.304688 1054.179688 863.398438 1054.179688 932.5 C 1054.179688 1001.640625 1110.234375 1057.695312 1179.335938 1057.695312 Z M 1179.335938 1057.695312 " transform="matrix(0.1, 0, 0, -0.1, 0, 398)"/>
<path fill="none" stroke-width="20.0013" stroke-linecap="butt" stroke-linejoin="miter" stroke="rgb(13.729858%, 12.159729%, 12.548828%)" stroke-opacity="1" stroke-miterlimit="22.9256" d="M 5389.375 263.085938 C 5458.515625 263.085938 5514.53125 207.03125 5514.53125 137.890625 C 5514.53125 68.75 5458.515625 12.695312 5389.375 12.695312 C 5320.234375 12.695312 5264.21875 68.75 5264.21875 137.890625 C 5264.21875 207.03125 5320.234375 263.085938 5389.375 263.085938 Z M 5389.375 263.085938 " transform="matrix(0.1, 0, 0, -0.1, 0, 398)"/>
<path fill="none" stroke-width="20.0013" stroke-linecap="butt" stroke-linejoin="miter" stroke="rgb(13.729858%, 12.159729%, 12.548828%)" stroke-opacity="1" stroke-miterlimit="22.9256" d="M 5337.265625 2827.578125 C 5406.367188 2827.578125 5462.421875 2771.484375 5462.421875 2702.382812 C 5462.421875 2633.242188 5406.367188 2577.1875 5337.265625 2577.1875 C 5268.125 2577.1875 5212.070312 2633.242188 5212.070312 2702.382812 C 5212.070312 2771.484375 5268.125 2827.578125 5337.265625 2827.578125 Z M 5337.265625 2827.578125 " transform="matrix(0.1, 0, 0, -0.1, 0, 398)"/>
<path fill-rule="nonzero" fill="rgb(13.729858%, 12.159729%, 12.548828%)" fill-opacity="1" d="M 110.109375 313.339844 L 116.757812 304.386719 L 110.898438 296.160156 L 113.601562 296.160156 L 116.722656 300.566406 C 117.371094 301.480469 117.828125 302.183594 118.101562 302.675781 C 118.488281 302.050781 118.9375 301.398438 119.464844 300.71875 L 122.921875 296.160156 L 125.394531 296.160156 L 119.359375 304.257812 L 125.863281 313.339844 L 123.050781 313.339844 L 118.726562 307.210938 C 118.484375 306.859375 118.234375 306.476562 117.976562 306.0625 C 117.589844 306.6875 117.320312 307.117188 117.15625 307.351562 L 112.84375 313.339844 L 110.109375 313.339844 "/>
<path fill="none" stroke-width="20.0013" stroke-linecap="butt" stroke-linejoin="miter" stroke="rgb(13.729858%, 12.159729%, 12.548828%)" stroke-opacity="1" stroke-miterlimit="22.9256" d="M 1179.335938 807.304688 L 1179.335938 627.65625 L 844.726562 553.828125 " transform="matrix(0.1, 0, 0, -0.1, 0, 398)"/>
<path fill-rule="evenodd" fill="rgb(13.729858%, 12.159729%, 12.548828%)" fill-opacity="1" d="M 86.394531 347.527344 L 76.027344 344.480469 L 84.152344 337.355469 Z M 86.394531 347.527344 "/>
<path fill="none" stroke-width="20.0013" stroke-linecap="butt" stroke-linejoin="miter" stroke="rgb(13.729858%, 12.159729%, 12.548828%)" stroke-opacity="1" stroke-miterlimit="22.9256" d="M 1304.53125 932.5 L 1361.914062 932.5 L 1361.914062 1640.039062 L 4218.984375 1640.039062 " transform="matrix(0.1, 0, 0, -0.1, 0, 398)"/>
<path fill="none" stroke-width="20.0013" stroke-linecap="butt" stroke-linejoin="miter" stroke="rgb(13.729858%, 12.159729%, 12.548828%)" stroke-opacity="1" stroke-miterlimit="22.9256" d="M 1643.90625 935.625 L 1547.5 935.625 " transform="matrix(0.1, 0, 0, -0.1, 0, 398)"/>
<path fill-rule="evenodd" fill="rgb(13.729858%, 12.159729%, 12.548828%)" fill-opacity="1" d="M 154.59375 300.527344 C 156.570312 300.527344 158.171875 302.277344 158.171875 304.4375 C 158.171875 306.597656 156.570312 308.347656 154.59375 308.347656 C 152.617188 308.347656 151.015625 306.597656 151.015625 304.4375 C 151.015625 302.277344 152.617188 300.527344 154.59375 300.527344 "/>
<path fill="none" stroke-width="20.0013" stroke-linecap="butt" stroke-linejoin="miter" stroke="rgb(13.729858%, 12.159729%, 12.548828%)" stroke-opacity="1" stroke-miterlimit="22.9256" d="M 1545.9375 974.726562 C 1565.703125 974.726562 1581.71875 957.226562 1581.71875 935.625 C 1581.71875 914.023438 1565.703125 896.523438 1545.9375 896.523438 C 1526.171875 896.523438 1510.15625 914.023438 1510.15625 935.625 C 1510.15625 957.226562 1526.171875 974.726562 1545.9375 974.726562 Z M 1545.9375 974.726562 " transform="matrix(0.1, 0, 0, -0.1, 0, 398)"/>
<path fill="none" stroke-width="20.0013" stroke-linecap="butt" stroke-linejoin="miter" stroke="rgb(13.729858%, 12.159729%, 12.548828%)" stroke-opacity="1" stroke-miterlimit="22.9256" d="M 1767.539062 1060.78125 C 1836.640625 1060.78125 1892.695312 1004.726562 1892.695312 935.625 C 1892.695312 866.484375 1836.640625 810.429688 1767.539062 810.429688 C 1698.398438 810.429688 1642.34375 866.484375 1642.34375 935.625 C 1642.34375 1004.726562 1698.398438 1060.78125 1767.539062 1060.78125 Z M 1767.539062 1060.78125 " transform="matrix(0.1, 0, 0, -0.1, 0, 398)"/>
<path fill-rule="nonzero" fill="rgb(13.729858%, 12.159729%, 12.548828%)" fill-opacity="1" d="M 168.929688 313.027344 L 175.578125 304.074219 L 169.71875 295.847656 L 172.421875 295.847656 L 175.542969 300.257812 C 176.191406 301.167969 176.648438 301.871094 176.921875 302.363281 C 177.304688 301.738281 177.757812 301.089844 178.28125 300.40625 L 181.742188 295.847656 L 184.214844 295.847656 L 178.179688 303.945312 L 184.683594 313.027344 L 181.871094 313.027344 L 177.546875 306.898438 C 177.300781 306.546875 177.054688 306.164062 176.792969 305.753906 C 176.410156 306.375 176.136719 306.804688 175.972656 307.039062 L 171.660156 313.027344 L 168.929688 313.027344 "/>
<path fill="none" stroke-width="20.0013" stroke-linecap="butt" stroke-linejoin="miter" stroke="rgb(13.729858%, 12.159729%, 12.548828%)" stroke-opacity="1" stroke-miterlimit="22.9256" d="M 1767.539062 810.429688 L 1767.539062 630.742188 L 1432.890625 556.953125 " transform="matrix(0.1, 0, 0, -0.1, 0, 398)"/>
<path fill-rule="evenodd" fill="rgb(13.729858%, 12.159729%, 12.548828%)" fill-opacity="1" d="M 145.214844 347.214844 L 134.847656 344.167969 L 142.96875 337.042969 Z M 145.214844 347.214844 "/>
<path fill="none" stroke-width="20.0013" stroke-linecap="butt" stroke-linejoin="miter" stroke="rgb(13.729858%, 12.159729%, 12.548828%)" stroke-opacity="1" stroke-miterlimit="22.9256" d="M 1892.695312 935.625 L 1958.046875 935.625 L 1958.046875 1643.164062 " transform="matrix(0.1, 0, 0, -0.1, 0, 398)"/>
<path fill="none" stroke-width="20.0013" stroke-linecap="butt" stroke-linejoin="miter" stroke="rgb(13.729858%, 12.159729%, 12.548828%)" stroke-opacity="1" stroke-miterlimit="22.9256" d="M 2258.515625 932.5 L 2162.109375 932.5 " transform="matrix(0.1, 0, 0, -0.1, 0, 398)"/>
<path fill-rule="evenodd" fill="rgb(13.729858%, 12.159729%, 12.548828%)" fill-opacity="1" d="M 216.054688 300.839844 C 218.03125 300.839844 219.632812 302.589844 219.632812 304.75 C 219.632812 306.910156 218.03125 308.660156 216.054688 308.660156 C 214.078125 308.660156 212.476562 306.910156 212.476562 304.75 C 212.476562 302.589844 214.078125 300.839844 216.054688 300.839844 "/>
<path fill="none" stroke-width="20.0013" stroke-linecap="butt" stroke-linejoin="miter" stroke="rgb(13.729858%, 12.159729%, 12.548828%)" stroke-opacity="1" stroke-miterlimit="22.9256" d="M 2160.546875 971.601562 C 2180.3125 971.601562 2196.328125 954.101562 2196.328125 932.5 C 2196.328125 910.898438 2180.3125 893.398438 2160.546875 893.398438 C 2140.78125 893.398438 2124.765625 910.898438 2124.765625 932.5 C 2124.765625 954.101562 2140.78125 971.601562 2160.546875 971.601562 Z M 2160.546875 971.601562 " transform="matrix(0.1, 0, 0, -0.1, 0, 398)"/>
<path fill="none" stroke-width="20.0013" stroke-linecap="butt" stroke-linejoin="miter" stroke="rgb(13.729858%, 12.159729%, 12.548828%)" stroke-opacity="1" stroke-miterlimit="22.9256" d="M 2382.148438 1057.695312 C 2451.289062 1057.695312 2507.304688 1001.640625 2507.304688 932.5 C 2507.304688 863.398438 2451.289062 807.304688 2382.148438 807.304688 C 2313.007812 807.304688 2256.953125 863.398438 2256.953125 932.5 C 2256.953125 1001.640625 2313.007812 1057.695312 2382.148438 1057.695312 Z M 2382.148438 1057.695312 " transform="matrix(0.1, 0, 0, -0.1, 0, 398)"/>
<path fill-rule="nonzero" fill="rgb(13.729858%, 12.159729%, 12.548828%)" fill-opacity="1" d="M 230.390625 313.339844 L 237.039062 304.386719 L 231.179688 296.160156 L 233.882812 296.160156 L 237.003906 300.566406 C 237.648438 301.480469 238.109375 302.183594 238.382812 302.675781 C 238.765625 302.050781 239.21875 301.398438 239.742188 300.71875 L 243.203125 296.160156 L 245.675781 296.160156 L 239.636719 304.257812 L 246.144531 313.339844 L 243.328125 313.339844 L 239.007812 307.210938 C 238.761719 306.859375 238.515625 306.476562 238.253906 306.0625 C 237.871094 306.6875 237.597656 307.117188 237.433594 307.351562 L 233.121094 313.339844 L 230.390625 313.339844 "/>
<path fill="none" stroke-width="20.0013" stroke-linecap="butt" stroke-linejoin="miter" stroke="rgb(13.729858%, 12.159729%, 12.548828%)" stroke-opacity="1" stroke-miterlimit="22.9256" d="M 2382.148438 807.304688 L 2382.148438 627.65625 L 2047.5 553.828125 " transform="matrix(0.1, 0, 0, -0.1, 0, 398)"/>
<path fill-rule="evenodd" fill="rgb(13.729858%, 12.159729%, 12.548828%)" fill-opacity="1" d="M 206.675781 347.527344 L 196.308594 344.480469 L 204.429688 337.355469 Z M 206.675781 347.527344 "/>
<path fill="none" stroke-width="20.0013" stroke-linecap="butt" stroke-linejoin="miter" stroke="rgb(13.729858%, 12.159729%, 12.548828%)" stroke-opacity="1" stroke-miterlimit="22.9256" d="M 2507.304688 932.5 L 2572.617188 932.5 L 2572.617188 1640.039062 " transform="matrix(0.1, 0, 0, -0.1, 0, 398)"/>
<path fill="none" stroke-width="20.0013" stroke-linecap="butt" stroke-linejoin="miter" stroke="rgb(13.729858%, 12.159729%, 12.548828%)" stroke-opacity="1" stroke-miterlimit="22.9256" d="M 3904.882812 927.070312 L 3808.476562 927.070312 " transform="matrix(0.1, 0, 0, -0.1, 0, 398)"/>
<path fill-rule="evenodd" fill="rgb(13.729858%, 12.159729%, 12.548828%)" fill-opacity="1" d="M 380.691406 301.382812 C 382.664062 301.382812 384.269531 303.136719 384.269531 305.292969 C 384.269531 307.453125 382.664062 309.203125 380.691406 309.203125 C 378.714844 309.203125 377.113281 307.453125 377.113281 305.292969 C 377.113281 303.136719 378.714844 301.382812 380.691406 301.382812 "/>
<path fill="none" stroke-width="20.0013" stroke-linecap="butt" stroke-linejoin="miter" stroke="rgb(13.729858%, 12.159729%, 12.548828%)" stroke-opacity="1" stroke-miterlimit="22.9256" d="M 3806.914062 966.171875 C 3826.640625 966.171875 3842.695312 948.632812 3842.695312 927.070312 C 3842.695312 905.46875 3826.640625 887.96875 3806.914062 887.96875 C 3787.148438 887.96875 3771.132812 905.46875 3771.132812 927.070312 C 3771.132812 948.632812 3787.148438 966.171875 3806.914062 966.171875 Z M 3806.914062 966.171875 " transform="matrix(0.1, 0, 0, -0.1, 0, 398)"/>
<path fill="none" stroke-width="20.0013" stroke-linecap="butt" stroke-linejoin="miter" stroke="rgb(13.729858%, 12.159729%, 12.548828%)" stroke-opacity="1" stroke-miterlimit="22.9256" d="M 4028.515625 1052.226562 C 4097.617188 1052.226562 4153.671875 996.171875 4153.671875 927.070312 C 4153.671875 857.929688 4097.617188 801.875 4028.515625 801.875 C 3959.375 801.875 3903.320312 857.929688 3903.320312 927.070312 C 3903.320312 996.171875 3959.375 1052.226562 4028.515625 1052.226562 Z M 4028.515625 1052.226562 " transform="matrix(0.1, 0, 0, -0.1, 0, 398)"/>
<path fill-rule="nonzero" fill="rgb(13.729858%, 12.159729%, 12.548828%)" fill-opacity="1" d="M 395.027344 313.882812 L 401.675781 304.933594 L 395.8125 296.703125 L 398.519531 296.703125 L 401.640625 301.113281 C 402.285156 302.023438 402.746094 302.726562 403.019531 303.21875 C 403.402344 302.59375 403.855469 301.945312 404.378906 301.265625 L 407.839844 296.703125 L 410.3125 296.703125 L 404.273438 304.800781 L 410.777344 313.882812 L 407.96875 313.882812 L 403.644531 307.757812 C 403.398438 307.402344 403.152344 307.019531 402.890625 306.609375 C 402.507812 307.230469 402.234375 307.660156 402.070312 307.894531 L 397.757812 313.882812 L 395.027344 313.882812 "/>
<path fill="none" stroke-width="20.0013" stroke-linecap="butt" stroke-linejoin="miter" stroke="rgb(13.729858%, 12.159729%, 12.548828%)" stroke-opacity="1" stroke-miterlimit="22.9256" d="M 4028.515625 801.875 L 4028.515625 622.1875 L 3693.867188 548.398438 " transform="matrix(0.1, 0, 0, -0.1, 0, 398)"/>
<path fill-rule="evenodd" fill="rgb(13.729858%, 12.159729%, 12.548828%)" fill-opacity="1" d="M 371.3125 348.070312 L 360.941406 345.023438 L 369.066406 337.898438 Z M 371.3125 348.070312 "/>
<path fill="none" stroke-width="20.0013" stroke-linecap="butt" stroke-linejoin="miter" stroke="rgb(13.729858%, 12.159729%, 12.548828%)" stroke-opacity="1" stroke-miterlimit="22.9256" d="M 4153.671875 927.070312 L 4218.984375 927.070312 L 4218.984375 1634.609375 " transform="matrix(0.1, 0, 0, -0.1, 0, 398)"/>
<path fill-rule="nonzero" fill="rgb(13.729858%, 12.159729%, 12.548828%)" fill-opacity="1" d="M 615.015625 390.964844 L 615.015625 389.394531 C 614.226562 390.628906 613.066406 391.246094 611.535156 391.246094 C 610.542969 391.246094 609.632812 390.972656 608.800781 390.425781 C 607.96875 389.882812 607.324219 389.117188 606.863281 388.132812 C 606.40625 387.152344 606.179688 386.027344 606.179688 384.753906 C 606.179688 383.511719 606.386719 382.386719 606.800781 381.371094 C 607.214844 380.359375 607.835938 379.585938 608.664062 379.050781 C 609.492188 378.507812 610.421875 378.238281 611.445312 378.238281 C 612.191406 378.238281 612.859375 378.398438 613.445312 378.714844 C 614.03125 379.027344 614.507812 379.441406 614.875 379.949219 L 614.875 373.785156 L 616.972656 373.785156 L 616.972656 390.964844 Z M 608.347656 384.753906 C 608.347656 386.347656 608.683594 387.539062 609.355469 388.328125 C 610.027344 389.117188 610.820312 389.511719 611.734375 389.511719 C 612.65625 389.511719 613.441406 389.132812 614.085938 388.382812 C 614.726562 387.628906 615.050781 386.476562 615.050781 384.929688 C 615.050781 383.226562 614.722656 381.976562 614.066406 381.179688 C 613.410156 380.382812 612.605469 379.984375 611.640625 379.984375 C 610.703125 379.984375 609.921875 380.367188 609.292969 381.132812 C 608.664062 381.898438 608.347656 383.105469 608.347656 384.753906 "/>
<path fill-rule="nonzero" fill="rgb(13.729858%, 12.159729%, 12.548828%)" fill-opacity="1" d="M 624.320312 396.015625 C 623.15625 394.550781 622.171875 392.828125 621.367188 390.859375 C 620.5625 388.890625 620.160156 386.851562 620.160156 384.742188 C 620.160156 382.882812 620.460938 381.101562 621.0625 379.398438 C 621.769531 377.421875 622.851562 375.453125 624.320312 373.492188 L 625.832031 373.492188 C 624.886719 375.117188 624.265625 376.277344 623.960938 376.972656 C 623.480469 378.046875 623.109375 379.175781 622.832031 380.347656 C 622.496094 381.808594 622.328125 383.277344 622.328125 384.753906 C 622.328125 388.511719 623.496094 392.265625 625.832031 396.015625 L 624.320312 396.015625 "/>
<path fill-rule="nonzero" fill="rgb(13.729858%, 12.159729%, 12.548828%)" fill-opacity="1" d="M 628.285156 390.964844 L 628.285156 378.519531 L 630.179688 378.519531 L 630.179688 380.289062 C 631.097656 378.921875 632.414062 378.238281 634.140625 378.238281 C 634.890625 378.238281 635.578125 378.371094 636.207031 378.640625 C 636.839844 378.914062 637.308594 379.265625 637.621094 379.707031 C 637.9375 380.140625 638.152344 380.660156 638.28125 381.261719 C 638.355469 381.652344 638.394531 382.335938 638.394531 383.3125 L 638.394531 390.964844 L 636.285156 390.964844 L 636.285156 383.394531 C 636.285156 382.535156 636.203125 381.894531 636.039062 381.464844 C 635.875 381.039062 635.585938 380.703125 635.167969 380.449219 C 634.746094 380.191406 634.261719 380.066406 633.695312 380.066406 C 632.796875 380.066406 632.023438 380.351562 631.367188 380.921875 C 630.714844 381.492188 630.390625 382.574219 630.390625 384.167969 L 630.390625 390.964844 L 628.285156 390.964844 "/>
<path fill-rule="nonzero" fill="rgb(13.729858%, 12.159729%, 12.548828%)" fill-opacity="1" d="M 643.011719 396.015625 L 641.5 396.015625 C 643.835938 392.265625 645.003906 388.511719 645.003906 384.753906 C 645.003906 383.285156 644.835938 381.828125 644.5 380.382812 C 644.234375 379.214844 643.863281 378.085938 643.386719 377.007812 C 643.085938 376.304688 642.457031 375.132812 641.5 373.492188 L 643.011719 373.492188 C 644.480469 375.453125 645.566406 377.421875 646.273438 379.398438 C 646.871094 381.101562 647.171875 382.882812 647.171875 384.742188 C 647.171875 386.851562 646.769531 388.890625 645.960938 390.859375 C 645.152344 392.828125 644.167969 394.550781 643.011719 396.015625 "/>
<path fill-rule="nonzero" fill="rgb(13.729858%, 12.159729%, 12.548828%)" fill-opacity="1" d="M 609.804688 134.515625 L 609.804688 132.945312 C 609.015625 134.179688 607.855469 134.796875 606.324219 134.796875 C 605.332031 134.796875 604.421875 134.523438 603.589844 133.976562 C 602.753906 133.433594 602.113281 132.667969 601.652344 131.683594 C 601.195312 130.703125 600.96875 129.578125 600.96875 128.304688 C 600.96875 127.0625 601.175781 125.9375 601.589844 124.925781 C 602.003906 123.910156 602.625 123.136719 603.453125 122.601562 C 604.28125 122.0625 605.207031 121.789062 606.230469 121.789062 C 606.980469 121.789062 607.648438 121.949219 608.230469 122.265625 C 608.820312 122.578125 609.296875 122.992188 609.664062 123.5 L 609.664062 117.335938 L 611.761719 117.335938 L 611.761719 134.515625 Z M 603.136719 128.304688 C 603.136719 129.898438 603.472656 131.09375 604.144531 131.878906 C 604.816406 132.667969 605.609375 133.0625 606.523438 133.0625 C 607.445312 133.0625 608.226562 132.683594 608.871094 131.933594 C 609.515625 131.179688 609.839844 130.027344 609.839844 128.480469 C 609.839844 126.777344 609.511719 125.527344 608.855469 124.730469 C 608.199219 123.933594 607.390625 123.535156 606.429688 123.535156 C 605.492188 123.535156 604.707031 123.921875 604.078125 124.683594 C 603.453125 125.449219 603.136719 126.65625 603.136719 128.304688 "/>
<path fill-rule="nonzero" fill="rgb(13.729858%, 12.159729%, 12.548828%)" fill-opacity="1" d="M 619.109375 139.566406 C 617.945312 138.101562 616.960938 136.378906 616.15625 134.410156 C 615.351562 132.441406 614.949219 130.402344 614.949219 128.292969 C 614.949219 126.433594 615.246094 124.652344 615.851562 122.949219 C 616.554688 120.972656 617.640625 119.003906 619.109375 117.042969 L 620.621094 117.042969 C 619.675781 118.667969 619.050781 119.828125 618.746094 120.523438 C 618.269531 121.601562 617.894531 122.726562 617.621094 123.898438 C 617.285156 125.359375 617.117188 126.828125 617.117188 128.304688 C 617.117188 132.0625 618.285156 135.816406 620.621094 139.566406 L 619.109375 139.566406 "/>
<path fill-rule="nonzero" fill="rgb(13.729858%, 12.159729%, 12.548828%)" fill-opacity="1" d="M 623.070312 134.515625 L 623.070312 122.070312 L 624.96875 122.070312 L 624.96875 123.839844 C 625.882812 122.472656 627.203125 121.789062 628.929688 121.789062 C 629.679688 121.789062 630.367188 121.925781 630.996094 122.191406 C 631.628906 122.464844 632.097656 122.816406 632.40625 123.257812 C 632.722656 123.691406 632.941406 124.210938 633.066406 124.8125 C 633.144531 125.203125 633.183594 125.886719 633.183594 126.863281 L 633.183594 134.515625 L 631.070312 134.515625 L 631.070312 126.945312 C 631.070312 126.089844 630.992188 125.445312 630.828125 125.015625 C 630.664062 124.59375 630.371094 124.253906 629.957031 124 C 629.535156 123.746094 629.046875 123.617188 628.484375 123.617188 C 627.585938 123.617188 626.8125 123.902344 626.15625 124.472656 C 625.503906 125.046875 625.179688 126.125 625.179688 127.71875 L 625.179688 134.515625 L 623.070312 134.515625 "/>
<path fill-rule="nonzero" fill="rgb(13.729858%, 12.159729%, 12.548828%)" fill-opacity="1" d="M 637.800781 139.566406 L 636.289062 139.566406 C 638.625 135.816406 639.792969 132.0625 639.792969 128.304688 C 639.792969 126.835938 639.625 125.378906 639.289062 123.933594 C 639.023438 122.765625 638.652344 121.636719 638.175781 120.558594 C 637.871094 119.855469 637.242188 118.683594 636.289062 117.042969 L 637.800781 117.042969 C 639.269531 119.003906 640.355469 120.972656 641.058594 122.949219 C 641.660156 124.652344 641.960938 126.433594 641.960938 128.292969 C 641.960938 130.402344 641.554688 132.441406 640.746094 134.410156 C 639.941406 136.378906 638.957031 138.101562 637.800781 139.566406 "/>
<path fill-rule="nonzero" fill="rgb(13.729858%, 12.159729%, 12.548828%)" fill-opacity="1" d="M 544.878906 392.15625 L 532.925781 392.15625 L 532.925781 391.726562 L 539.054688 384.378906 L 532.925781 376.6875 L 532.925781 376.265625 L 544.515625 376.265625 L 544.878906 380.230469 L 544.398438 380.230469 C 544.28125 379.148438 543.980469 378.378906 543.503906 377.917969 C 543.019531 377.457031 542.328125 377.226562 541.421875 377.226562 L 535.960938 377.226562 L 540.964844 383.519531 L 535.328125 390.304688 L 541.539062 390.304688 C 542.578125 390.304688 543.355469 390.109375 543.878906 389.71875 C 544.398438 389.328125 544.828125 388.59375 545.171875 387.515625 L 545.605469 387.609375 L 544.878906 392.15625 "/>
<path fill-rule="nonzero" fill="rgb(13.729858%, 12.159729%, 12.548828%)" fill-opacity="1" d="M 539.664062 135.707031 L 527.714844 135.707031 L 527.714844 135.277344 L 533.839844 127.929688 L 527.714844 120.238281 L 527.714844 119.816406 L 539.304688 119.816406 L 539.664062 123.78125 L 539.183594 123.78125 C 539.070312 122.699219 538.769531 121.933594 538.289062 121.46875 C 537.808594 121.007812 537.117188 120.78125 536.210938 120.78125 L 530.75 120.78125 L 535.753906 127.070312 L 530.117188 133.855469 L 536.324219 133.855469 C 537.363281 133.855469 538.144531 133.660156 538.664062 133.273438 C 539.183594 132.878906 539.617188 132.144531 539.960938 131.066406 L 540.394531 131.160156 L 539.664062 135.707031 "/>
<path fill-rule="nonzero" fill="rgb(13.729858%, 12.159729%, 12.548828%)" fill-opacity="1" d="M 560.65625 377.917969 L 560.65625 373.457031 L 556.15625 373.457031 L 556.15625 370.371094 L 560.65625 370.371094 L 560.65625 365.90625 L 563.65625 365.90625 L 563.65625 370.371094 L 568.167969 370.371094 L 568.167969 373.457031 L 563.65625 373.457031 L 563.65625 377.917969 L 560.65625 377.917969 "/>
<path fill-rule="nonzero" fill="rgb(13.729858%, 12.159729%, 12.548828%)" fill-opacity="1" d="M 555.445312 121.472656 L 555.445312 117.007812 L 550.945312 117.007812 L 550.945312 113.921875 L 555.445312 113.921875 L 555.445312 109.460938 L 558.445312 109.460938 L 558.445312 113.921875 L 562.957031 113.921875 L 562.957031 117.007812 L 558.445312 117.007812 L 558.445312 121.472656 L 555.445312 121.472656 "/>
<path fill-rule="nonzero" fill="rgb(13.729858%, 12.159729%, 12.548828%)" fill-opacity="1" d="M 509.3125 375.402344 L 509.3125 372.222656 L 519.039062 372.222656 L 519.039062 375.402344 L 509.3125 375.402344 "/>
<path fill-rule="nonzero" fill="rgb(13.729858%, 12.159729%, 12.548828%)" fill-opacity="1" d="M 504.101562 118.953125 L 504.101562 115.773438 L 513.828125 115.773438 L 513.828125 118.953125 L 504.101562 118.953125 "/>
<path fill="none" stroke-width="20.0013" stroke-linecap="butt" stroke-linejoin="miter" stroke="rgb(13.729858%, 12.159729%, 12.548828%)" stroke-opacity="1" stroke-miterlimit="22.9256" d="M 5389.375 273.945312 L 5389.375 1645.78125 L 4218.945312 1645.78125 " transform="matrix(0.1, 0, 0, -0.1, 0, 398)"/>
<path fill="none" stroke-width="20.0013" stroke-linecap="butt" stroke-linejoin="miter" stroke="rgb(13.729858%, 12.159729%, 12.548828%)" stroke-opacity="1" stroke-miterlimit="22.9256" d="M 5337.265625 2838.4375 L 5337.265625 3431.289062 L 4166.835938 3431.289062 L 2539.0625 2161.914062 " transform="matrix(0.1, 0, 0, -0.1, 0, 398)"/>
<path fill-rule="evenodd" fill="rgb(13.729858%, 12.159729%, 12.548828%)" fill-opacity="1" d="M 257.757812 185.410156 L 247.085938 187.125 L 251.351562 177.195312 Z M 257.757812 185.410156 "/>
<path fill-rule="nonzero" fill="rgb(13.729858%, 12.159729%, 12.548828%)" fill-opacity="1" d="M 615.460938 306.953125 L 617.640625 307.21875 C 617.296875 308.496094 616.660156 309.484375 615.730469 310.1875 C 614.800781 310.886719 613.613281 311.238281 612.167969 311.238281 C 610.347656 311.238281 608.902344 310.679688 607.839844 309.558594 C 606.773438 308.441406 606.238281 306.867188 606.238281 304.84375 C 606.238281 302.746094 606.78125 301.125 607.855469 299.96875 C 608.9375 298.8125 610.332031 298.230469 612.050781 298.230469 C 613.714844 298.230469 615.074219 298.800781 616.128906 299.933594 C 617.183594 301.0625 617.710938 302.660156 617.710938 304.710938 C 617.710938 304.839844 617.707031 305.027344 617.699219 305.277344 L 608.421875 305.277344 C 608.496094 306.644531 608.882812 307.691406 609.578125 308.414062 C 610.277344 309.144531 611.140625 309.507812 612.179688 309.507812 C 612.953125 309.507812 613.613281 309.304688 614.160156 308.894531 C 614.707031 308.492188 615.140625 307.84375 615.460938 306.953125 Z M 608.535156 303.539062 L 615.484375 303.539062 C 615.390625 302.496094 615.125 301.707031 614.6875 301.1875 C 614.015625 300.375 613.144531 299.96875 612.074219 299.96875 C 611.109375 299.96875 610.292969 300.292969 609.632812 300.941406 C 608.972656 301.589844 608.609375 302.457031 608.535156 303.539062 "/>
<path fill-rule="nonzero" fill="rgb(13.729858%, 12.159729%, 12.548828%)" fill-opacity="1" d="M 624.320312 316.011719 C 623.15625 314.542969 622.171875 312.824219 621.367188 310.855469 C 620.5625 308.882812 620.160156 306.847656 620.160156 304.734375 C 620.160156 302.875 620.460938 301.097656 621.0625 299.390625 C 621.769531 297.414062 622.851562 295.449219 624.320312 293.488281 L 625.832031 293.488281 C 624.886719 295.113281 624.265625 296.273438 623.960938 296.96875 C 623.480469 298.042969 623.109375 299.171875 622.832031 300.34375 C 622.496094 301.804688 622.328125 303.273438 622.328125 304.746094 C 622.328125 308.507812 623.496094 312.261719 625.832031 316.011719 L 624.320312 316.011719 "/>
<path fill-rule="nonzero" fill="rgb(13.729858%, 12.159729%, 12.548828%)" fill-opacity="1" d="M 628.285156 310.960938 L 628.285156 298.515625 L 630.179688 298.515625 L 630.179688 300.285156 C 631.097656 298.914062 632.414062 298.230469 634.140625 298.230469 C 634.890625 298.230469 635.578125 298.367188 636.207031 298.636719 C 636.839844 298.90625 637.308594 299.261719 637.621094 299.699219 C 637.9375 300.136719 638.152344 300.65625 638.28125 301.257812 C 638.355469 301.648438 638.394531 302.332031 638.394531 303.308594 L 638.394531 310.960938 L 636.285156 310.960938 L 636.285156 303.386719 C 636.285156 302.53125 636.203125 301.886719 636.039062 301.460938 C 635.875 301.035156 635.585938 300.695312 635.167969 300.445312 C 634.746094 300.1875 634.261719 300.058594 633.695312 300.058594 C 632.796875 300.058594 632.023438 300.347656 631.367188 300.914062 C 630.714844 301.488281 630.390625 302.566406 630.390625 304.164062 L 630.390625 310.960938 L 628.285156 310.960938 "/>
<path fill-rule="nonzero" fill="rgb(13.729858%, 12.159729%, 12.548828%)" fill-opacity="1" d="M 643.011719 316.011719 L 641.5 316.011719 C 643.835938 312.261719 645.003906 308.507812 645.003906 304.746094 C 645.003906 303.28125 644.835938 301.824219 644.5 300.375 C 644.234375 299.207031 643.863281 298.082031 643.386719 297.003906 C 643.085938 296.300781 642.457031 295.128906 641.5 293.488281 L 643.011719 293.488281 C 644.480469 295.449219 645.566406 297.414062 646.273438 299.390625 C 646.871094 301.097656 647.171875 302.875 647.171875 304.734375 C 647.171875 306.847656 646.769531 308.882812 645.960938 310.855469 C 645.152344 312.824219 644.167969 314.542969 643.011719 316.011719 "/>
<path fill-rule="nonzero" fill="rgb(13.729858%, 12.159729%, 12.548828%)" fill-opacity="1" d="M 610.246094 57.703125 L 612.429688 57.972656 C 612.085938 59.246094 611.449219 60.234375 610.519531 60.9375 C 609.589844 61.640625 608.398438 61.992188 606.957031 61.992188 C 605.136719 61.992188 603.691406 61.429688 602.628906 60.3125 C 601.558594 59.191406 601.027344 57.617188 601.027344 55.59375 C 601.027344 53.5 601.566406 51.875 602.644531 50.71875 C 603.722656 49.5625 605.121094 48.984375 606.839844 48.984375 C 608.503906 48.984375 609.863281 49.550781 610.914062 50.683594 C 611.972656 51.816406 612.5 53.410156 612.5 55.464844 C 612.5 55.589844 612.496094 55.777344 612.488281 56.027344 L 603.207031 56.027344 C 603.285156 57.394531 603.671875 58.441406 604.367188 59.167969 C 605.0625 59.894531 605.929688 60.257812 606.96875 60.257812 C 607.738281 60.257812 608.398438 60.054688 608.949219 59.648438 C 609.496094 59.242188 609.929688 58.59375 610.246094 57.703125 Z M 603.324219 54.289062 L 610.273438 54.289062 C 610.179688 53.246094 609.910156 52.460938 609.476562 51.9375 C 608.804688 51.128906 607.933594 50.71875 606.863281 50.71875 C 605.894531 50.71875 605.078125 51.042969 604.421875 51.691406 C 603.761719 52.339844 603.394531 53.207031 603.324219 54.289062 "/>
<path fill-rule="nonzero" fill="rgb(13.729858%, 12.159729%, 12.548828%)" fill-opacity="1" d="M 619.109375 66.761719 C 617.945312 65.296875 616.960938 63.574219 616.15625 61.605469 C 615.351562 59.636719 614.949219 57.597656 614.949219 55.488281 C 614.949219 53.628906 615.246094 51.847656 615.851562 50.144531 C 616.554688 48.167969 617.640625 46.199219 619.109375 44.238281 L 620.621094 44.238281 C 619.675781 45.863281 619.050781 47.023438 618.746094 47.71875 C 618.269531 48.796875 617.894531 49.921875 617.621094 51.09375 C 617.285156 52.554688 617.117188 54.023438 617.117188 55.5 C 617.117188 59.257812 618.285156 63.011719 620.621094 66.761719 L 619.109375 66.761719 "/>
<path fill-rule="nonzero" fill="rgb(13.729858%, 12.159729%, 12.548828%)" fill-opacity="1" d="M 623.070312 61.710938 L 623.070312 49.265625 L 624.96875 49.265625 L 624.96875 51.035156 C 625.882812 49.667969 627.203125 48.984375 628.929688 48.984375 C 629.679688 48.984375 630.367188 49.117188 630.996094 49.386719 C 631.628906 49.660156 632.097656 50.011719 632.40625 50.449219 C 632.722656 50.886719 632.941406 51.40625 633.066406 52.007812 C 633.144531 52.398438 633.183594 53.082031 633.183594 54.058594 L 633.183594 61.710938 L 631.070312 61.710938 L 631.070312 54.140625 C 631.070312 53.28125 630.992188 52.640625 630.828125 52.210938 C 630.664062 51.785156 630.371094 51.445312 629.957031 51.195312 C 629.535156 50.9375 629.046875 50.8125 628.484375 50.8125 C 627.585938 50.8125 626.8125 51.097656 626.15625 51.667969 C 625.503906 52.238281 625.179688 53.320312 625.179688 54.914062 L 625.179688 61.710938 L 623.070312 61.710938 "/>
<path fill-rule="nonzero" fill="rgb(13.729858%, 12.159729%, 12.548828%)" fill-opacity="1" d="M 637.800781 66.761719 L 636.289062 66.761719 C 638.625 63.011719 639.792969 59.257812 639.792969 55.5 C 639.792969 54.03125 639.625 52.574219 639.289062 51.128906 C 639.023438 49.960938 638.652344 48.832031 638.175781 47.753906 C 637.871094 47.050781 637.242188 45.878906 636.289062 44.238281 L 637.800781 44.238281 C 639.269531 46.199219 640.355469 48.167969 641.058594 50.144531 C 641.660156 51.847656 641.960938 53.628906 641.960938 55.488281 C 641.960938 57.597656 641.554688 59.636719 640.746094 61.605469 C 639.941406 63.574219 638.957031 65.296875 637.800781 66.761719 "/>
<path fill="none" stroke-width="20.0013" stroke-linecap="butt" stroke-linejoin="miter" stroke="rgb(13.729858%, 12.159729%, 12.548828%)" stroke-opacity="1" stroke-miterlimit="22.9256" d="M 5389.375 263.046875 L 5389.375 334.648438 " transform="matrix(0.1, 0, 0, -0.1, 0, 398)"/>
<path fill-rule="evenodd" fill="rgb(13.729858%, 12.159729%, 12.548828%)" fill-opacity="1" d="M 533.710938 365.359375 L 538.9375 355.851562 L 544.164062 365.359375 Z M 533.710938 365.359375 "/>
<path fill="none" stroke-width="20.0013" stroke-linecap="butt" stroke-linejoin="miter" stroke="rgb(13.729858%, 12.159729%, 12.548828%)" stroke-opacity="1" stroke-miterlimit="22.9256" d="M 5337.265625 2827.539062 L 5337.265625 2899.140625 " transform="matrix(0.1, 0, 0, -0.1, 0, 398)"/>
<path fill-rule="evenodd" fill="rgb(13.729858%, 12.159729%, 12.548828%)" fill-opacity="1" d="M 528.496094 108.910156 L 533.726562 99.402344 L 538.953125 108.910156 Z M 528.496094 108.910156 "/>
<path fill="none" stroke-width="20.0013" stroke-linecap="butt" stroke-linejoin="miter" stroke="rgb(13.729858%, 12.159729%, 12.548828%)" stroke-opacity="1" stroke-miterlimit="22.9256" d="M 5389.375 932.5 L 5947.304688 932.5 " transform="matrix(0.1, 0, 0, -0.1, 0, 398)"/>
<path fill-rule="evenodd" fill="rgb(13.729858%, 12.159729%, 12.548828%)" fill-opacity="1" d="M 593.90625 299.523438 L 603.410156 304.75 L 593.90625 309.976562 Z M 593.90625 299.523438 "/>
<path fill="none" stroke-width="20.0013" stroke-linecap="butt" stroke-linejoin="miter" stroke="rgb(13.729858%, 12.159729%, 12.548828%)" stroke-opacity="1" stroke-miterlimit="22.9256" d="M 5337.265625 3425 L 5895.15625 3425 " transform="matrix(0.1, 0, 0, -0.1, 0, 398)"/>
<path fill-rule="evenodd" fill="rgb(13.729858%, 12.159729%, 12.548828%)" fill-opacity="1" d="M 588.691406 50.273438 L 598.199219 55.5 L 588.691406 60.730469 Z M 588.691406 50.273438 "/>
<path fill-rule="nonzero" fill="rgb(13.729858%, 12.159729%, 12.548828%)" fill-opacity="1" d="M 105.628906 345.527344 L 105.628906 348.683594 C 106.160156 348.066406 106.796875 347.753906 107.535156 347.753906 C 107.914062 347.753906 108.253906 347.824219 108.558594 347.964844 C 108.863281 348.105469 109.09375 348.285156 109.246094 348.503906 C 109.402344 348.722656 109.507812 348.964844 109.5625 349.230469 C 109.621094 349.496094 109.648438 349.90625 109.648438 350.464844 L 109.648438 354.117188 L 108.003906 354.117188 L 108.003906 350.828125 C 108.003906 350.175781 107.972656 349.761719 107.910156 349.585938 C 107.847656 349.410156 107.734375 349.273438 107.578125 349.167969 C 107.421875 349.066406 107.222656 349.011719 106.984375 349.011719 C 106.710938 349.011719 106.464844 349.078125 106.253906 349.210938 C 106.035156 349.34375 105.878906 349.542969 105.78125 349.8125 C 105.679688 350.082031 105.628906 350.476562 105.628906 351 L 105.628906 354.117188 L 103.984375 354.117188 L 103.984375 345.527344 L 105.628906 345.527344 "/>
<path fill-rule="nonzero" fill="rgb(13.729858%, 12.159729%, 12.548828%)" fill-opacity="1" d="M 165.496094 345.527344 L 165.496094 348.683594 C 166.027344 348.066406 166.664062 347.753906 167.402344 347.753906 C 167.78125 347.753906 168.121094 347.824219 168.425781 347.964844 C 168.730469 348.105469 168.960938 348.285156 169.117188 348.503906 C 169.269531 348.722656 169.375 348.964844 169.433594 349.230469 C 169.488281 349.496094 169.519531 349.90625 169.519531 350.464844 L 169.519531 354.117188 L 167.871094 354.117188 L 167.871094 350.828125 C 167.871094 350.175781 167.839844 349.761719 167.777344 349.585938 C 167.714844 349.410156 167.605469 349.273438 167.445312 349.167969 C 167.289062 349.066406 167.089844 349.011719 166.851562 349.011719 C 166.578125 349.011719 166.335938 349.078125 166.121094 349.210938 C 165.902344 349.34375 165.746094 349.542969 165.648438 349.8125 C 165.546875 350.082031 165.496094 350.476562 165.496094 351 L 165.496094 354.117188 L 163.851562 354.117188 L 163.851562 345.527344 L 165.496094 345.527344 "/>
<path fill-rule="nonzero" fill="rgb(13.729858%, 12.159729%, 12.548828%)" fill-opacity="1" d="M 225.363281 345.527344 L 225.363281 348.683594 C 225.898438 348.066406 226.53125 347.753906 227.269531 347.753906 C 227.648438 347.753906 227.988281 347.824219 228.296875 347.964844 C 228.597656 348.105469 228.828125 348.285156 228.984375 348.503906 C 229.136719 348.722656 229.242188 348.964844 229.300781 349.230469 C 229.355469 349.496094 229.386719 349.90625 229.386719 350.464844 L 229.386719 354.117188 L 227.738281 354.117188 L 227.738281 350.828125 C 227.738281 350.175781 227.707031 349.761719 227.644531 349.585938 C 227.582031 349.410156 227.472656 349.273438 227.3125 349.167969 C 227.15625 349.066406 226.957031 349.011719 226.71875 349.011719 C 226.445312 349.011719 226.199219 349.078125 225.988281 349.210938 C 225.769531 349.34375 225.613281 349.542969 225.515625 349.8125 C 225.414062 350.082031 225.363281 350.476562 225.363281 351 L 225.363281 354.117188 L 223.71875 354.117188 L 223.71875 345.527344 L 225.363281 345.527344 "/>
<path fill="none" stroke-width="20.0013" stroke-linecap="butt" stroke-linejoin="miter" stroke="rgb(13.729858%, 12.159729%, 12.548828%)" stroke-opacity="1" stroke-miterlimit="22.9256" d="M 5601.367188 137.890625 L 6012.34375 137.890625 " transform="matrix(0.1, 0, 0, -0.1, 0, 398)"/>
<path fill-rule="evenodd" fill="rgb(13.729858%, 12.159729%, 12.548828%)" fill-opacity="1" d="M 560.960938 378.980469 L 551.453125 384.210938 L 560.960938 389.4375 Z M 560.960938 378.980469 "/>
<path fill="none" stroke-width="20.0013" stroke-linecap="butt" stroke-linejoin="miter" stroke="rgb(13.729858%, 12.159729%, 12.548828%)" stroke-opacity="1" stroke-miterlimit="22.9256" d="M 5549.21875 2702.382812 L 5960.195312 2702.382812 " transform="matrix(0.1, 0, 0, -0.1, 0, 398)"/>
<path fill-rule="evenodd" fill="rgb(13.729858%, 12.159729%, 12.548828%)" fill-opacity="1" d="M 555.746094 122.535156 L 546.242188 127.761719 L 555.746094 132.988281 Z M 555.746094 122.535156 "/>
<path fill-rule="evenodd" fill="rgb(100%, 100%, 100%)" fill-opacity="1" d="M 78.703125 90.246094 L 429.980469 90.246094 L 429.980469 162.089844 L 78.703125 162.089844 L 78.703125 90.246094 "/>
<path fill="none" stroke-width="20.0013" stroke-linecap="butt" stroke-linejoin="miter" stroke="rgb(13.729858%, 12.159729%, 12.548828%)" stroke-opacity="1" stroke-miterlimit="22.9256" d="M 787.03125 3077.539062 L 4299.804688 3077.539062 L 4299.804688 2359.101562 L 787.03125 2359.101562 Z M 787.03125 3077.539062 " transform="matrix(0.1, 0, 0, -0.1, 0, 398)"/>
<path fill-rule="nonzero" fill="rgb(13.729858%, 12.159729%, 12.548828%)" fill-opacity="1" d="M 173.636719 136.691406 L 173.636719 119.511719 L 185.230469 119.511719 L 185.230469 121.539062 L 175.914062 121.539062 L 175.914062 126.859375 L 183.972656 126.859375 L 183.972656 128.886719 L 175.914062 128.886719 L 175.914062 136.691406 L 173.636719 136.691406 "/>
<path fill-rule="nonzero" fill="rgb(13.729858%, 12.159729%, 12.548828%)" fill-opacity="1" d="M 188.566406 136.691406 L 188.566406 119.511719 L 190.839844 119.511719 L 190.839844 136.691406 L 188.566406 136.691406 "/>
<path fill-rule="nonzero" fill="rgb(13.729858%, 12.159729%, 12.548828%)" fill-opacity="1" d="M 194.882812 136.691406 L 194.882812 119.511719 L 202.5 119.511719 C 204.03125 119.511719 205.195312 119.667969 205.992188 119.976562 C 206.789062 120.28125 207.425781 120.828125 207.902344 121.605469 C 208.378906 122.390625 208.617188 123.253906 208.617188 124.199219 C 208.617188 125.421875 208.222656 126.441406 207.433594 127.277344 C 206.644531 128.117188 205.425781 128.648438 203.777344 128.875 C 204.378906 129.164062 204.835938 129.445312 205.148438 129.730469 C 205.8125 130.339844 206.441406 131.105469 207.035156 132.015625 L 210.023438 136.691406 L 207.164062 136.691406 L 204.894531 133.117188 C 204.226562 132.085938 203.679688 131.296875 203.246094 130.753906 C 202.820312 130.203125 202.4375 129.820312 202.097656 129.605469 C 201.757812 129.382812 201.414062 129.230469 201.058594 129.144531 C 200.800781 129.089844 200.378906 129.0625 199.792969 129.0625 L 197.15625 129.0625 L 197.15625 136.691406 Z M 197.15625 127.09375 L 202.042969 127.09375 C 203.078125 127.09375 203.894531 126.988281 204.480469 126.769531 C 205.066406 126.554688 205.511719 126.210938 205.816406 125.738281 C 206.121094 125.269531 206.273438 124.753906 206.273438 124.199219 C 206.273438 123.386719 205.980469 122.71875 205.386719 122.195312 C 204.800781 121.671875 203.867188 121.410156 202.59375 121.410156 L 197.15625 121.410156 L 197.15625 127.09375 "/>
<path fill-rule="nonzero" fill="rgb(13.729858%, 12.159729%, 12.548828%)" fill-opacity="1" d="M 282.242188 136.410156 L 282.242188 125.605469 L 280.382812 125.605469 L 280.382812 123.96875 L 282.242188 123.96875 L 282.242188 122.644531 C 282.242188 121.808594 282.316406 121.183594 282.464844 120.777344 C 282.671875 120.230469 283.027344 119.785156 283.539062 119.445312 C 284.050781 119.105469 284.765625 118.9375 285.691406 118.9375 C 286.28125 118.9375 286.9375 119.007812 287.65625 119.152344 L 287.34375 120.992188 C 286.90625 120.910156 286.488281 120.871094 286.097656 120.871094 C 285.457031 120.871094 285.007812 121.007812 284.742188 121.28125 C 284.472656 121.554688 284.339844 122.066406 284.339844 122.820312 L 284.339844 123.96875 L 286.765625 123.96875 L 286.765625 125.605469 L 284.339844 125.605469 L 284.339844 136.410156 L 282.242188 136.410156 "/>
<path fill-rule="nonzero" fill="rgb(13.729858%, 12.159729%, 12.548828%)" fill-opacity="1" d="M 288.417969 121.660156 L 288.417969 119.230469 L 290.53125 119.230469 L 290.53125 121.660156 Z M 288.417969 136.410156 L 288.417969 123.96875 L 290.53125 123.96875 L 290.53125 136.410156 L 288.417969 136.410156 "/>
<path fill-rule="nonzero" fill="rgb(13.729858%, 12.159729%, 12.548828%)" fill-opacity="1" d="M 293.695312 136.410156 L 293.695312 119.230469 L 295.800781 119.230469 L 295.800781 136.410156 L 293.695312 136.410156 "/>
<path fill-rule="nonzero" fill="rgb(13.729858%, 12.159729%, 12.548828%)" fill-opacity="1" d="M 303.679688 134.523438 L 303.980469 136.386719 C 303.390625 136.511719 302.855469 136.574219 302.390625 136.574219 C 301.621094 136.574219 301.027344 136.453125 300.605469 136.210938 C 300.1875 135.972656 299.890625 135.652344 299.71875 135.253906 C 299.546875 134.863281 299.457031 134.03125 299.457031 132.765625 L 299.457031 125.605469 L 297.910156 125.605469 L 297.910156 123.96875 L 299.457031 123.96875 L 299.457031 120.882812 L 301.558594 119.617188 L 301.558594 123.96875 L 303.679688 123.96875 L 303.679688 125.605469 L 301.558594 125.605469 L 301.558594 132.882812 C 301.558594 133.488281 301.59375 133.871094 301.664062 134.042969 C 301.742188 134.214844 301.863281 134.351562 302.03125 134.453125 C 302.199219 134.554688 302.4375 134.605469 302.75 134.605469 C 302.984375 134.605469 303.292969 134.578125 303.679688 134.523438 "/>
<path fill-rule="nonzero" fill="rgb(13.729858%, 12.159729%, 12.548828%)" fill-opacity="1" d="M 314.257812 132.402344 L 316.4375 132.671875 C 316.09375 133.945312 315.457031 134.933594 314.527344 135.640625 C 313.597656 136.339844 312.410156 136.691406 310.964844 136.691406 C 309.144531 136.691406 307.699219 136.132812 306.636719 135.011719 C 305.570312 133.890625 305.039062 132.320312 305.039062 130.296875 C 305.039062 128.199219 305.578125 126.574219 306.652344 125.421875 C 307.734375 124.261719 309.128906 123.683594 310.851562 123.683594 C 312.511719 123.683594 313.871094 124.25 314.925781 125.382812 C 315.980469 126.515625 316.507812 128.109375 316.507812 130.164062 C 316.507812 130.289062 316.503906 130.480469 316.496094 130.726562 L 307.21875 130.726562 C 307.292969 132.09375 307.683594 133.144531 308.378906 133.867188 C 309.074219 134.59375 309.9375 134.960938 310.976562 134.960938 C 311.75 134.960938 312.410156 134.753906 312.957031 134.347656 C 313.503906 133.941406 313.9375 133.296875 314.257812 132.402344 Z M 307.335938 128.992188 L 314.28125 128.992188 C 314.1875 127.945312 313.921875 127.160156 313.484375 126.640625 C 312.8125 125.828125 311.941406 125.421875 310.871094 125.421875 C 309.90625 125.421875 309.089844 125.742188 308.429688 126.390625 C 307.769531 127.039062 307.40625 127.90625 307.335938 128.992188 "/>
<path fill-rule="nonzero" fill="rgb(13.729858%, 12.159729%, 12.548828%)" fill-opacity="1" d="M 319.066406 136.410156 L 319.066406 123.96875 L 320.960938 123.96875 L 320.960938 125.851562 C 321.445312 124.972656 321.894531 124.386719 322.304688 124.105469 C 322.714844 123.828125 323.164062 123.683594 323.65625 123.683594 C 324.371094 123.683594 325.089844 123.910156 325.824219 124.363281 L 325.097656 126.324219 C 324.585938 126.015625 324.070312 125.863281 323.554688 125.863281 C 323.089844 125.863281 322.679688 126.003906 322.308594 126.277344 C 321.941406 126.558594 321.683594 126.941406 321.527344 127.4375 C 321.289062 128.183594 321.171875 129.003906 321.171875 129.894531 L 321.171875 136.410156 L 319.066406 136.410156 "/>
<path fill-rule="nonzero" fill="rgb(13.729858%, 12.159729%, 12.548828%)" fill-opacity="1" d="M 27.257812 26.558594 L 21.59375 26.558594 L 19.34375 20.703125 L 9.042969 20.703125 L 6.917969 26.558594 L 1.398438 26.558594 L 11.433594 0.789062 L 16.9375 0.789062 Z M 17.675781 16.363281 L 14.125 6.800781 L 10.644531 16.363281 Z M 17.675781 16.363281 "/>
<path fill-rule="nonzero" fill="rgb(13.729858%, 12.159729%, 12.548828%)" fill-opacity="1" d="M 2.941406 205.480469 L 13.246094 205.480469 C 15.285156 205.480469 16.808594 205.5625 17.808594 205.738281 C 18.8125 205.90625 19.707031 206.261719 20.5 206.800781 C 21.289062 207.339844 21.945312 208.054688 22.472656 208.953125 C 23 209.847656 23.265625 210.855469 23.265625 211.964844 C 23.265625 213.171875 22.941406 214.28125 22.292969 215.289062 C 21.640625 216.296875 20.757812 217.054688 19.648438 217.558594 C 21.214844 218.015625 22.425781 218.792969 23.265625 219.890625 C 24.109375 220.996094 24.53125 222.292969 24.53125 223.78125 C 24.53125 224.949219 24.261719 226.089844 23.714844 227.199219 C 23.167969 228.304688 22.425781 229.191406 21.484375 229.851562 C 20.539062 230.511719 19.378906 230.921875 17.992188 231.074219 C 17.125 231.164062 15.03125 231.226562 11.714844 231.25 L 2.941406 231.25 Z M 8.152344 209.769531 L 8.152344 215.726562 L 11.558594 215.726562 C 13.585938 215.726562 14.847656 215.699219 15.339844 215.636719 C 16.226562 215.535156 16.929688 215.230469 17.4375 214.71875 C 17.949219 214.210938 18.199219 213.539062 18.199219 212.703125 C 18.199219 211.90625 17.984375 211.257812 17.546875 210.761719 C 17.101562 210.261719 16.449219 209.960938 15.585938 209.859375 C 15.070312 209.800781 13.585938 209.769531 11.140625 209.769531 Z M 8.152344 220.019531 L 8.152344 226.90625 L 12.964844 226.90625 C 14.839844 226.90625 16.027344 226.859375 16.53125 226.75 C 17.304688 226.613281 17.9375 226.265625 18.421875 225.722656 C 18.910156 225.179688 19.15625 224.445312 19.15625 223.535156 C 19.15625 222.761719 18.960938 222.105469 18.589844 221.566406 C 18.210938 221.027344 17.671875 220.628906 16.964844 220.382812 C 16.257812 220.136719 14.714844 220.019531 12.351562 220.019531 L 8.152344 220.019531 "/>
<path fill-rule="nonzero" fill="rgb(13.729858%, 12.159729%, 12.548828%)" fill-opacity="1" d="M 112.425781 349.660156 C 113.117188 349.660156 113.660156 349.90625 114.050781 350.402344 C 114.515625 350.988281 114.75 351.960938 114.75 353.316406 C 114.75 354.671875 114.515625 355.644531 114.046875 356.238281 C 113.660156 356.726562 113.117188 356.96875 112.425781 356.96875 C 111.730469 356.96875 111.167969 356.703125 110.742188 356.164062 C 110.3125 355.632812 110.101562 354.675781 110.101562 353.300781 C 110.101562 351.953125 110.335938 350.984375 110.804688 350.394531 C 111.191406 349.90625 111.730469 349.660156 112.425781 349.660156 Z M 112.425781 350.796875 C 112.257812 350.796875 112.109375 350.851562 111.980469 350.957031 C 111.851562 351.0625 111.75 351.253906 111.679688 351.527344 C 111.585938 351.882812 111.535156 352.476562 111.535156 353.316406 C 111.535156 354.15625 111.578125 354.734375 111.664062 355.046875 C 111.746094 355.363281 111.855469 355.570312 111.984375 355.675781 C 112.113281 355.78125 112.257812 355.832031 112.425781 355.832031 C 112.589844 355.832031 112.738281 355.78125 112.867188 355.671875 C 113 355.566406 113.101562 355.378906 113.171875 355.105469 C 113.265625 354.753906 113.3125 354.15625 113.3125 353.316406 C 113.3125 352.476562 113.269531 351.902344 113.1875 351.585938 C 113.101562 351.273438 112.996094 351.0625 112.867188 350.957031 C 112.738281 350.851562 112.589844 350.796875 112.425781 350.796875 "/>
<path fill-rule="nonzero" fill="rgb(13.729858%, 12.159729%, 12.548828%)" fill-opacity="1" d="M 172.503906 356.96875 L 171.132812 356.96875 L 171.132812 351.796875 C 170.628906 352.269531 170.039062 352.613281 169.359375 352.839844 L 169.359375 351.59375 C 169.714844 351.476562 170.105469 351.253906 170.527344 350.929688 C 170.945312 350.597656 171.234375 350.21875 171.390625 349.78125 L 172.503906 349.78125 L 172.503906 356.96875 "/>
<path fill-rule="nonzero" fill="rgb(13.729858%, 12.159729%, 12.548828%)" fill-opacity="1" d="M 233.492188 355.695312 L 233.492188 356.96875 L 228.683594 356.96875 C 228.738281 356.488281 228.890625 356.03125 229.152344 355.597656 C 229.414062 355.167969 229.929688 354.597656 230.695312 353.882812 C 231.316406 353.308594 231.691406 352.914062 231.835938 352.710938 C 232.023438 352.425781 232.117188 352.148438 232.117188 351.871094 C 232.117188 351.566406 232.035156 351.332031 231.871094 351.167969 C 231.703125 351 231.480469 350.917969 231.1875 350.917969 C 230.902344 350.917969 230.675781 351.007812 230.503906 351.179688 C 230.335938 351.351562 230.238281 351.636719 230.210938 352.039062 L 228.84375 351.902344 C 228.925781 351.144531 229.183594 350.605469 229.613281 350.273438 C 230.042969 349.945312 230.578125 349.78125 231.222656 349.78125 C 231.929688 349.78125 232.484375 349.972656 232.890625 350.351562 C 233.292969 350.734375 233.492188 351.207031 233.492188 351.773438 C 233.492188 352.097656 233.433594 352.402344 233.320312 352.695312 C 233.203125 352.984375 233.023438 353.289062 232.773438 353.609375 C 232.605469 353.820312 232.304688 354.125 231.871094 354.523438 C 231.441406 354.917969 231.164062 355.183594 231.050781 355.316406 C 230.933594 355.445312 230.839844 355.570312 230.769531 355.695312 L 233.492188 355.695312 "/>
</svg>
