<?xml version="1.0" encoding="UTF-8"?>
<svg xmlns="http://www.w3.org/2000/svg" xmlns:xlink="http://www.w3.org/1999/xlink" width="494" height="106" viewBox="0 0 494 106">
<path fill="none" stroke-width="21.6" stroke-linecap="butt" stroke-linejoin="miter" stroke="rgb(13.729858%, 12.159729%, 12.548828%)" stroke-opacity="1" stroke-miterlimit="22.9256" d="M 1241.328125 1034.53125 L 1241.328125 845.898438 L 1032.5 845.898438 L 1032.5 1034.53125 Z M 1241.328125 1034.53125 " transform="matrix(0.1, 0, 0, -0.1, 0, 106)"/>
<path fill="none" stroke-width="21.6" stroke-linecap="butt" stroke-linejoin="miter" stroke="rgb(13.729858%, 12.159729%, 12.548828%)" stroke-opacity="1" stroke-miterlimit="22.9256" d="M 1852.148438 1040.976562 L 1852.148438 852.34375 L 1643.359375 852.34375 L 1643.359375 1040.976562 Z M 1852.148438 1040.976562 " transform="matrix(0.1, 0, 0, -0.1, 0, 106)"/>
<path fill="none" stroke-width="21.6" stroke-linecap="butt" stroke-linejoin="miter" stroke="rgb(13.729858%, 12.159729%, 12.548828%)" stroke-opacity="1" stroke-miterlimit="22.9256" d="M 2564.726562 1041.484375 L 2564.726562 852.851562 L 2355.9375 852.851562 L 2355.9375 1041.484375 Z M 2564.726562 1041.484375 " transform="matrix(0.1, 0, 0, -0.1, 0, 106)"/>
<path fill="none" stroke-width="21.6" stroke-linecap="butt" stroke-linejoin="miter" stroke="rgb(13.729858%, 12.159729%, 12.548828%)" stroke-opacity="1" stroke-miterlimit="22.9256" d="M 3576.484375 1041.953125 L 3576.484375 853.320312 L 3367.695312 853.320312 L 3367.695312 1041.953125 Z M 3576.484375 1041.953125 " transform="matrix(0.1, 0, 0, -0.1, 0, 106)"/>
<path fill="none" stroke-width="19.93" stroke-linecap="butt" stroke-linejoin="miter" stroke="rgb(13.729858%, 12.159729%, 12.548828%)" stroke-opacity="1" stroke-miterlimit="22.9256" d="M -922.635281 901.032118 L -675.893558 901.032118 " transform="matrix(0, 0.0996424, 0.100358, 0, 0, 106)"/>
<path fill="none" stroke-width="20.0284" stroke-linecap="butt" stroke-linejoin="miter" stroke="rgb(13.729858%, 12.159729%, 12.548828%)" stroke-opacity="1" stroke-miterlimit="22.9256" d="M -1491.145344 701.322192 L -1491.145344 936.960816 L -1240.748704 936.960816 " transform="matrix(-0.100138, 0, 0, -0.0998616, 0, 106)"/>
<path fill="none" stroke-width="20.0284" stroke-linecap="butt" stroke-linejoin="miter" stroke="rgb(13.729858%, 12.159729%, 12.548828%)" stroke-opacity="1" stroke-miterlimit="22.9256" d="M -2101.162895 707.815554 L -2101.162895 943.454178 L -1850.727246 943.454178 " transform="matrix(-0.100138, 0, 0, -0.0998616, 0, 106)"/>
<path fill="none" stroke-width="20.0284" stroke-linecap="butt" stroke-linejoin="miter" stroke="rgb(13.729858%, 12.159729%, 12.548828%)" stroke-opacity="1" stroke-miterlimit="22.9256" d="M -2812.759018 708.284954 L -2812.759018 943.923578 L -2562.323369 943.923578 " transform="matrix(-0.100138, 0, 0, -0.0998616, 0, 106)"/>
<path fill="none" stroke-width="20.0262" stroke-linecap="butt" stroke-linejoin="miter" stroke="rgb(13.729858%, 12.159729%, 12.548828%)" stroke-opacity="1" stroke-miterlimit="22.9256" d="M -3822.702611 708.833143 L -3822.702611 944.497962 L -3572.294469 944.497962 " transform="matrix(-0.100149, 0, 0, -0.0998505, 0, 106)"/>
<path fill-rule="evenodd" fill="rgb(13.729858%, 12.159729%, 12.548828%)" fill-opacity="1" d="M 116.859375 7.730469 L 116.859375 8.8125 L 113.90625 8.8125 L 113.90625 16.371094 L 112.753906 16.371094 L 112.753906 8.8125 L 109.804688 8.8125 L 109.804688 7.730469 L 116.859375 7.730469 "/>
<path fill-rule="evenodd" fill="rgb(13.729858%, 12.159729%, 12.548828%)" fill-opacity="1" d="M 177.941406 7.085938 L 177.941406 8.164062 L 174.992188 8.164062 L 174.992188 15.722656 L 173.839844 15.722656 L 173.839844 8.164062 L 170.886719 8.164062 L 170.886719 7.085938 L 177.941406 7.085938 "/>
<path fill-rule="evenodd" fill="rgb(13.729858%, 12.159729%, 12.548828%)" fill-opacity="1" d="M 249.199219 7.035156 L 249.199219 8.117188 L 246.246094 8.117188 L 246.246094 15.675781 L 245.097656 15.675781 L 245.097656 8.117188 L 242.144531 8.117188 L 242.144531 7.035156 L 249.199219 7.035156 "/>
<path fill-rule="evenodd" fill="rgb(13.729858%, 12.159729%, 12.548828%)" fill-opacity="1" d="M 350.378906 6.988281 L 350.378906 8.070312 L 347.425781 8.070312 L 347.425781 15.628906 L 346.273438 15.628906 L 346.273438 8.070312 L 343.320312 8.070312 L 343.320312 6.988281 L 350.378906 6.988281 "/>
<path fill="none" stroke-width="20.0364" stroke-linecap="butt" stroke-linejoin="miter" stroke="rgb(13.729858%, 12.159729%, 12.548828%)" stroke-opacity="1" stroke-miterlimit="22.9256" d="M 456.622785 928.147696 L 913.440542 928.147696 " transform="matrix(0.100175, 0, 0, -0.099825, 0, 106)"/>
<path fill="none" stroke-width="16.9418" stroke-linecap="butt" stroke-linejoin="miter" stroke="rgb(13.729858%, 12.159729%, 12.548828%)" stroke-opacity="1" stroke-miterlimit="22.9256" d="M 3725.141443 805.509586 L 4111.423098 805.509586 " transform="matrix(0.0819411, 0, 0, -0.118059, 0, 106)"/>
<path fill="none" stroke-width="12.4391" stroke-linecap="butt" stroke-linejoin="miter" stroke="rgb(13.729858%, 12.159729%, 12.548828%)" stroke-opacity="1" stroke-miterlimit="22.9256" d="M 7166.210899 587.684203 L 7449.8703 587.684203 " transform="matrix(0.0392058, 0, 0, -0.160794, 0, 106)"/>
<path fill="none" stroke-width="13.3987" stroke-linecap="butt" stroke-linejoin="miter" stroke="rgb(13.729858%, 12.159729%, 12.548828%)" stroke-opacity="1" stroke-miterlimit="22.9256" d="M 2938.819327 629.017253 L 3244.253222 629.017253 " transform="matrix(0.0507219, 0, 0, -0.149278, 0, 106)"/>
<path fill="none" stroke-width="14.9767" stroke-linecap="butt" stroke-linejoin="miter" stroke="rgb(13.729858%, 12.159729%, 12.548828%)" stroke-opacity="1" stroke-miterlimit="22.9256" d="M 3189.462927 703.45201 L 3530.941265 703.45201 " transform="matrix(0.0664505, 0, 0, -0.133549, 0, 106)"/>
<path fill="none" stroke-width="20.0013" stroke-linecap="butt" stroke-linejoin="miter" stroke="rgb(13.729858%, 12.159729%, 12.548828%)" stroke-opacity="1" stroke-miterlimit="22.9256" d="M 768.671875 238.554688 L 4291.09375 238.554688 L 4291.09375 16.757812 L 768.671875 16.757812 Z M 768.671875 238.554688 " transform="matrix(0.1, 0, 0, -0.1, 0, 106)"/>
<path fill-rule="nonzero" fill="rgb(13.729858%, 12.159729%, 12.548828%)" fill-opacity="1" d="M 253.097656 98.414062 L 244.132812 98.414062 L 244.132812 98.089844 L 248.730469 92.578125 L 244.132812 86.8125 L 244.132812 86.492188 L 252.828125 86.492188 L 253.097656 89.46875 L 252.738281 89.46875 C 252.652344 88.65625 252.425781 88.082031 252.066406 87.734375 C 251.707031 87.386719 251.1875 87.21875 250.507812 87.21875 L 246.410156 87.21875 L 250.164062 91.9375 L 245.9375 97.023438 L 250.59375 97.023438 C 251.371094 97.023438 251.957031 96.875 252.347656 96.585938 C 252.738281 96.292969 253.0625 95.738281 253.320312 94.933594 L 253.644531 95.003906 L 253.097656 98.414062 "/>
<path fill="none" stroke-width="20.0013" stroke-linecap="butt" stroke-linejoin="miter" stroke="rgb(13.729858%, 12.159729%, 12.548828%)" stroke-opacity="1" stroke-miterlimit="22.9256" d="M 903.085938 455.195312 L 1033.945312 681.796875 L 772.265625 681.796875 Z M 903.085938 455.195312 " transform="matrix(0.1, 0, 0, -0.1, 0, 106)"/>
<path fill="none" stroke-width="20.0013" stroke-linecap="butt" stroke-linejoin="miter" stroke="rgb(13.729858%, 12.159729%, 12.548828%)" stroke-opacity="1" stroke-miterlimit="22.9256" d="M 1491.132812 467.1875 L 1621.953125 693.75 L 1360.3125 693.75 Z M 1491.132812 467.1875 " transform="matrix(0.1, 0, 0, -0.1, 0, 106)"/>
<path fill="none" stroke-width="20.0013" stroke-linecap="butt" stroke-linejoin="miter" stroke="rgb(13.729858%, 12.159729%, 12.548828%)" stroke-opacity="1" stroke-miterlimit="22.9256" d="M 2101.992188 473.632812 L 2232.8125 700.234375 L 1971.171875 700.234375 Z M 2101.992188 473.632812 " transform="matrix(0.1, 0, 0, -0.1, 0, 106)"/>
<path fill="none" stroke-width="20.0013" stroke-linecap="butt" stroke-linejoin="miter" stroke="rgb(13.729858%, 12.159729%, 12.548828%)" stroke-opacity="1" stroke-miterlimit="22.9256" d="M 2814.570312 474.140625 L 2945.390625 700.703125 L 2683.75 700.703125 Z M 2814.570312 474.140625 " transform="matrix(0.1, 0, 0, -0.1, 0, 106)"/>
<path fill="none" stroke-width="20.0013" stroke-linecap="butt" stroke-linejoin="miter" stroke="rgb(13.729858%, 12.159729%, 12.548828%)" stroke-opacity="1" stroke-miterlimit="22.9256" d="M 3826.328125 474.609375 L 3957.148438 701.171875 L 3695.507812 701.171875 Z M 3826.328125 474.609375 " transform="matrix(0.1, 0, 0, -0.1, 0, 106)"/>
<path fill="none" stroke-width="20.0013" stroke-linecap="butt" stroke-linejoin="miter" stroke="rgb(13.729858%, 12.159729%, 12.548828%)" stroke-opacity="1" stroke-miterlimit="22.9256" d="M 903.085938 451.679688 L 903.085938 323.398438 " transform="matrix(0.1, 0, 0, -0.1, 0, 106)"/>
<path fill-rule="evenodd" fill="rgb(13.729858%, 12.159729%, 12.548828%)" fill-opacity="1" d="M 95.539062 72.835938 L 90.308594 82.339844 L 85.082031 72.835938 Z M 95.539062 72.835938 "/>
<path fill="none" stroke-width="20.0013" stroke-linecap="butt" stroke-linejoin="miter" stroke="rgb(13.729858%, 12.159729%, 12.548828%)" stroke-opacity="1" stroke-miterlimit="22.9256" d="M 1492.617188 465.117188 L 1492.617188 323.398438 " transform="matrix(0.1, 0, 0, -0.1, 0, 106)"/>
<path fill-rule="evenodd" fill="rgb(13.729858%, 12.159729%, 12.548828%)" fill-opacity="1" d="M 154.488281 72.835938 L 149.261719 82.339844 L 144.035156 72.835938 Z M 154.488281 72.835938 "/>
<path fill="none" stroke-width="20.0013" stroke-linecap="butt" stroke-linejoin="miter" stroke="rgb(13.729858%, 12.159729%, 12.548828%)" stroke-opacity="1" stroke-miterlimit="22.9256" d="M 2103.476562 471.601562 L 2103.476562 329.882812 " transform="matrix(0.1, 0, 0, -0.1, 0, 106)"/>
<path fill-rule="evenodd" fill="rgb(13.729858%, 12.159729%, 12.548828%)" fill-opacity="1" d="M 215.574219 72.1875 L 210.347656 81.691406 L 205.117188 72.1875 Z M 215.574219 72.1875 "/>
<path fill="none" stroke-width="20.0013" stroke-linecap="butt" stroke-linejoin="miter" stroke="rgb(13.729858%, 12.159729%, 12.548828%)" stroke-opacity="1" stroke-miterlimit="22.9256" d="M 2816.015625 472.070312 L 2816.015625 330.351562 " transform="matrix(0.1, 0, 0, -0.1, 0, 106)"/>
<path fill-rule="evenodd" fill="rgb(13.729858%, 12.159729%, 12.548828%)" fill-opacity="1" d="M 286.832031 72.140625 L 281.601562 81.644531 L 276.375 72.140625 Z M 286.832031 72.140625 "/>
<path fill="none" stroke-width="20.0013" stroke-linecap="butt" stroke-linejoin="miter" stroke="rgb(13.729858%, 12.159729%, 12.548828%)" stroke-opacity="1" stroke-miterlimit="22.9256" d="M 3827.8125 472.539062 L 3827.8125 330.859375 " transform="matrix(0.1, 0, 0, -0.1, 0, 106)"/>
<path fill-rule="evenodd" fill="rgb(13.729858%, 12.159729%, 12.548828%)" fill-opacity="1" d="M 388.007812 72.089844 L 382.78125 81.597656 L 377.550781 72.089844 Z M 388.007812 72.089844 "/>
<path fill="none" stroke-width="20.0013" stroke-linecap="butt" stroke-linejoin="miter" stroke="rgb(13.729858%, 12.159729%, 12.548828%)" stroke-opacity="1" stroke-miterlimit="22.9256" d="M 4292.65625 129.0625 L 4408.828125 129.0625 " transform="matrix(0.1, 0, 0, -0.1, 0, 106)"/>
<path fill-rule="evenodd" fill="rgb(13.729858%, 12.159729%, 12.548828%)" fill-opacity="1" d="M 440.058594 87.863281 L 449.5625 93.09375 L 440.058594 98.320312 Z M 440.058594 87.863281 "/>
<path fill-rule="evenodd" fill="rgb(13.729858%, 12.159729%, 12.548828%)" fill-opacity="1" d="M 90.816406 8.898438 C 92.792969 8.898438 94.394531 10.648438 94.394531 12.808594 C 94.394531 14.964844 92.792969 16.71875 90.816406 16.71875 C 88.84375 16.71875 87.242188 14.964844 87.242188 12.808594 C 87.242188 10.648438 88.84375 8.898438 90.816406 8.898438 "/>
<path fill="none" stroke-width="20.0013" stroke-linecap="butt" stroke-linejoin="miter" stroke="rgb(13.729858%, 12.159729%, 12.548828%)" stroke-opacity="1" stroke-miterlimit="22.9256" d="M 908.164062 971.015625 C 927.929688 971.015625 943.945312 953.515625 943.945312 931.914062 C 943.945312 910.351562 927.929688 892.8125 908.164062 892.8125 C 888.4375 892.8125 872.421875 910.351562 872.421875 931.914062 C 872.421875 953.515625 888.4375 971.015625 908.164062 971.015625 Z M 908.164062 971.015625 " transform="matrix(0.1, 0, 0, -0.1, 0, 106)"/>
<path fill-rule="evenodd" fill="rgb(13.729858%, 12.159729%, 12.548828%)" fill-opacity="1" d="M 148.910156 7.652344 C 150.886719 7.652344 152.488281 9.402344 152.488281 11.5625 C 152.488281 13.71875 150.886719 15.472656 148.910156 15.472656 C 146.933594 15.472656 145.332031 13.71875 145.332031 11.5625 C 145.332031 9.402344 146.933594 7.652344 148.910156 7.652344 "/>
<path fill="none" stroke-width="20.0013" stroke-linecap="butt" stroke-linejoin="miter" stroke="rgb(13.729858%, 12.159729%, 12.548828%)" stroke-opacity="1" stroke-miterlimit="22.9256" d="M 1489.101562 983.476562 C 1508.867188 983.476562 1524.882812 965.976562 1524.882812 944.375 C 1524.882812 922.8125 1508.867188 905.273438 1489.101562 905.273438 C 1469.335938 905.273438 1453.320312 922.8125 1453.320312 944.375 C 1453.320312 965.976562 1469.335938 983.476562 1489.101562 983.476562 Z M 1489.101562 983.476562 " transform="matrix(0.1, 0, 0, -0.1, 0, 106)"/>
<path fill-rule="evenodd" fill="rgb(13.729858%, 12.159729%, 12.548828%)" fill-opacity="1" d="M 210.59375 7.601562 C 212.566406 7.601562 214.171875 9.355469 214.171875 11.515625 C 214.171875 13.671875 212.566406 15.421875 210.59375 15.421875 C 208.617188 15.421875 207.015625 13.671875 207.015625 11.515625 C 207.015625 9.355469 208.617188 7.601562 210.59375 7.601562 "/>
<path fill="none" stroke-width="20.0013" stroke-linecap="butt" stroke-linejoin="miter" stroke="rgb(13.729858%, 12.159729%, 12.548828%)" stroke-opacity="1" stroke-miterlimit="22.9256" d="M 2105.9375 983.984375 C 2125.664062 983.984375 2141.71875 966.445312 2141.71875 944.84375 C 2141.71875 923.28125 2125.664062 905.78125 2105.9375 905.78125 C 2086.171875 905.78125 2070.15625 923.28125 2070.15625 944.84375 C 2070.15625 966.445312 2086.171875 983.984375 2105.9375 983.984375 Z M 2105.9375 983.984375 " transform="matrix(0.1, 0, 0, -0.1, 0, 106)"/>
<path fill-rule="evenodd" fill="rgb(13.729858%, 12.159729%, 12.548828%)" fill-opacity="1" d="M 282.449219 6.957031 C 284.425781 6.957031 286.027344 8.707031 286.027344 10.867188 C 286.027344 13.027344 284.425781 14.777344 282.449219 14.777344 C 280.472656 14.777344 278.871094 13.027344 278.871094 10.867188 C 278.871094 8.707031 280.472656 6.957031 282.449219 6.957031 "/>
<path fill="none" stroke-width="20.0013" stroke-linecap="butt" stroke-linejoin="miter" stroke="rgb(13.729858%, 12.159729%, 12.548828%)" stroke-opacity="1" stroke-miterlimit="22.9256" d="M 2824.492188 990.429688 C 2844.257812 990.429688 2860.273438 972.929688 2860.273438 951.328125 C 2860.273438 929.726562 2844.257812 912.226562 2824.492188 912.226562 C 2804.726562 912.226562 2788.710938 929.726562 2788.710938 951.328125 C 2788.710938 972.929688 2804.726562 990.429688 2824.492188 990.429688 Z M 2824.492188 990.429688 " transform="matrix(0.1, 0, 0, -0.1, 0, 106)"/>
<path fill-rule="nonzero" fill="rgb(13.729858%, 12.159729%, 12.548828%)" fill-opacity="1" d="M 162.289062 56.652344 L 162.289062 43.765625 L 163.871094 43.765625 L 163.871094 48.390625 C 164.609375 47.535156 165.542969 47.105469 166.667969 47.105469 C 167.355469 47.105469 167.957031 47.242188 168.46875 47.515625 C 168.976562 47.785156 169.34375 48.164062 169.5625 48.644531 C 169.78125 49.125 169.890625 49.824219 169.890625 50.734375 L 169.890625 56.652344 L 168.308594 56.652344 L 168.308594 50.734375 C 168.308594 49.945312 168.136719 49.371094 167.796875 49.011719 C 167.453125 48.652344 166.96875 48.46875 166.339844 48.46875 C 165.871094 48.46875 165.429688 48.589844 165.015625 48.832031 C 164.601562 49.078125 164.308594 49.40625 164.136719 49.824219 C 163.957031 50.238281 163.871094 50.8125 163.871094 51.546875 L 163.871094 56.652344 L 162.289062 56.652344 "/>
<path fill-rule="nonzero" fill="rgb(13.729858%, 12.159729%, 12.548828%)" fill-opacity="1" d="M 175.320312 60.441406 C 174.449219 59.339844 173.710938 58.050781 173.109375 56.574219 C 172.503906 55.09375 172.203125 53.566406 172.203125 51.984375 C 172.203125 50.589844 172.425781 49.253906 172.878906 47.976562 C 173.40625 46.492188 174.222656 45.015625 175.320312 43.546875 L 176.457031 43.546875 C 175.746094 44.765625 175.28125 45.636719 175.050781 46.15625 C 174.691406 46.964844 174.414062 47.808594 174.207031 48.691406 C 173.953125 49.785156 173.828125 50.886719 173.828125 51.992188 C 173.828125 54.8125 174.703125 57.625 176.457031 60.441406 L 175.320312 60.441406 "/>
<path fill-rule="nonzero" fill="rgb(13.729858%, 12.159729%, 12.548828%)" fill-opacity="1" d="M 183.8125 56.652344 L 182.230469 56.652344 L 182.230469 46.570312 C 181.851562 46.933594 181.351562 47.296875 180.734375 47.660156 C 180.113281 48.023438 179.558594 48.296875 179.066406 48.476562 L 179.066406 46.949219 C 179.949219 46.53125 180.726562 46.027344 181.386719 45.4375 C 182.046875 44.84375 182.519531 44.269531 182.796875 43.710938 L 183.8125 43.710938 L 183.8125 56.652344 "/>
<path fill-rule="nonzero" fill="rgb(13.729858%, 12.159729%, 12.548828%)" fill-opacity="1" d="M 189.339844 60.441406 L 188.207031 60.441406 C 189.960938 57.625 190.835938 54.8125 190.835938 51.992188 C 190.835938 50.890625 190.710938 49.800781 190.457031 48.714844 C 190.257812 47.835938 189.980469 46.992188 189.621094 46.183594 C 189.394531 45.65625 188.925781 44.777344 188.207031 43.546875 L 189.339844 43.546875 C 190.441406 45.015625 191.257812 46.492188 191.785156 47.976562 C 192.234375 49.253906 192.460938 50.589844 192.460938 51.984375 C 192.460938 53.566406 192.15625 55.09375 191.550781 56.574219 C 190.945312 58.050781 190.207031 59.339844 189.339844 60.441406 "/>
<path fill-rule="nonzero" fill="rgb(13.729858%, 12.159729%, 12.548828%)" fill-opacity="1" d="M 222.175781 54.808594 L 222.175781 41.921875 L 223.757812 41.921875 L 223.757812 46.546875 C 224.496094 45.691406 225.429688 45.261719 226.554688 45.261719 C 227.242188 45.261719 227.84375 45.398438 228.355469 45.671875 C 228.863281 45.941406 229.230469 46.320312 229.449219 46.800781 C 229.667969 47.28125 229.777344 47.980469 229.777344 48.890625 L 229.777344 54.808594 L 228.195312 54.808594 L 228.195312 48.890625 C 228.195312 48.101562 228.023438 47.527344 227.683594 47.167969 C 227.339844 46.808594 226.855469 46.625 226.226562 46.625 C 225.757812 46.625 225.316406 46.746094 224.902344 46.988281 C 224.488281 47.234375 224.195312 47.5625 224.023438 47.980469 C 223.84375 48.394531 223.757812 48.96875 223.757812 49.703125 L 223.757812 54.808594 L 222.175781 54.808594 "/>
<path fill-rule="nonzero" fill="rgb(13.729858%, 12.159729%, 12.548828%)" fill-opacity="1" d="M 235.210938 58.597656 C 234.335938 57.496094 233.597656 56.207031 232.996094 54.730469 C 232.394531 53.25 232.089844 51.722656 232.089844 50.140625 C 232.089844 48.746094 232.3125 47.410156 232.769531 46.132812 C 233.296875 44.648438 234.109375 43.171875 235.210938 41.703125 L 236.34375 41.703125 C 235.636719 42.921875 235.167969 43.792969 234.9375 44.3125 C 234.578125 45.121094 234.300781 45.96875 234.09375 46.847656 C 233.839844 47.941406 233.714844 49.042969 233.714844 50.148438 C 233.714844 52.96875 234.589844 55.78125 236.34375 58.597656 L 235.210938 58.597656 "/>
<path fill-rule="nonzero" fill="rgb(13.729858%, 12.159729%, 12.548828%)" fill-opacity="1" d="M 246.058594 53.285156 L 246.058594 54.808594 L 237.539062 54.808594 C 237.527344 54.425781 237.589844 54.0625 237.722656 53.710938 C 237.9375 53.128906 238.289062 52.558594 238.765625 51.992188 C 239.246094 51.433594 239.933594 50.78125 240.835938 50.042969 C 242.234375 48.894531 243.183594 47.984375 243.675781 47.3125 C 244.167969 46.644531 244.414062 46.007812 244.414062 45.410156 C 244.414062 44.785156 244.1875 44.257812 243.742188 43.824219 C 243.289062 43.394531 242.707031 43.179688 241.988281 43.179688 C 241.226562 43.179688 240.617188 43.40625 240.160156 43.867188 C 239.699219 44.324219 239.46875 44.957031 239.464844 45.761719 L 237.839844 45.597656 C 237.949219 44.382812 238.367188 43.460938 239.09375 42.824219 C 239.820312 42.1875 240.800781 41.867188 242.023438 41.867188 C 243.257812 41.867188 244.234375 42.214844 244.957031 42.898438 C 245.679688 43.585938 246.039062 44.433594 246.039062 45.449219 C 246.039062 45.964844 245.933594 46.472656 245.722656 46.96875 C 245.511719 47.46875 245.160156 47.992188 244.671875 48.539062 C 244.183594 49.09375 243.371094 49.847656 242.234375 50.808594 C 241.285156 51.605469 240.675781 52.148438 240.40625 52.433594 C 240.136719 52.714844 239.914062 53 239.734375 53.285156 L 246.058594 53.285156 "/>
<path fill-rule="nonzero" fill="rgb(13.729858%, 12.159729%, 12.548828%)" fill-opacity="1" d="M 249.230469 58.597656 L 248.09375 58.597656 C 249.847656 55.78125 250.722656 52.96875 250.722656 50.148438 C 250.722656 49.046875 250.597656 47.957031 250.34375 46.871094 C 250.148438 45.992188 249.867188 45.148438 249.511719 44.339844 C 249.28125 43.8125 248.8125 42.933594 248.09375 41.703125 L 249.230469 41.703125 C 250.328125 43.171875 251.144531 44.648438 251.675781 46.132812 C 252.125 47.410156 252.347656 48.746094 252.347656 50.140625 C 252.347656 51.722656 252.046875 53.25 251.4375 54.730469 C 250.835938 56.207031 250.097656 57.496094 249.230469 58.597656 "/>
<path fill-rule="nonzero" fill="rgb(13.729858%, 12.159729%, 12.548828%)" fill-opacity="1" d="M 293.433594 54.761719 L 293.433594 41.875 L 295.015625 41.875 L 295.015625 46.496094 C 295.753906 45.644531 296.6875 45.214844 297.8125 45.214844 C 298.5 45.214844 299.101562 45.351562 299.609375 45.625 C 300.121094 45.894531 300.488281 46.273438 300.707031 46.753906 C 300.925781 47.234375 301.035156 47.929688 301.035156 48.84375 L 301.035156 54.761719 L 299.453125 54.761719 L 299.453125 48.84375 C 299.453125 48.054688 299.28125 47.476562 298.9375 47.117188 C 298.597656 46.757812 298.109375 46.574219 297.484375 46.574219 C 297.015625 46.574219 296.574219 46.699219 296.160156 46.941406 C 295.746094 47.183594 295.453125 47.515625 295.277344 47.929688 C 295.101562 48.34375 295.015625 48.921875 295.015625 49.652344 L 295.015625 54.761719 L 293.433594 54.761719 "/>
<path fill-rule="nonzero" fill="rgb(13.729858%, 12.159729%, 12.548828%)" fill-opacity="1" d="M 306.464844 58.546875 C 305.59375 57.449219 304.855469 56.15625 304.253906 54.679688 C 303.648438 53.203125 303.347656 51.675781 303.347656 50.09375 C 303.347656 48.695312 303.570312 47.363281 304.023438 46.082031 C 304.550781 44.601562 305.363281 43.125 306.464844 41.65625 L 307.601562 41.65625 C 306.894531 42.875 306.425781 43.742188 306.195312 44.265625 C 305.835938 45.074219 305.558594 45.917969 305.351562 46.796875 C 305.097656 47.894531 304.972656 48.992188 304.972656 50.101562 C 304.972656 52.921875 305.847656 55.734375 307.601562 58.546875 L 306.464844 58.546875 "/>
<path fill-rule="nonzero" fill="rgb(13.729858%, 12.159729%, 12.548828%)" fill-opacity="1" d="M 309.007812 51.355469 L 310.589844 51.148438 C 310.769531 52.042969 311.078125 52.691406 311.515625 53.085938 C 311.953125 53.480469 312.484375 53.679688 313.113281 53.679688 C 313.855469 53.679688 314.484375 53.421875 314.996094 52.90625 C 315.507812 52.390625 315.765625 51.75 315.765625 50.988281 C 315.765625 50.261719 315.53125 49.664062 315.054688 49.191406 C 314.578125 48.71875 313.976562 48.484375 313.242188 48.484375 C 312.941406 48.484375 312.570312 48.542969 312.128906 48.660156 L 312.304688 47.273438 C 312.410156 47.285156 312.492188 47.289062 312.558594 47.289062 C 313.230469 47.289062 313.839844 47.113281 314.378906 46.761719 C 314.917969 46.410156 315.1875 45.867188 315.1875 45.136719 C 315.1875 44.554688 314.988281 44.074219 314.597656 43.695312 C 314.203125 43.316406 313.695312 43.121094 313.074219 43.121094 C 312.460938 43.121094 311.949219 43.316406 311.539062 43.703125 C 311.128906 44.089844 310.863281 44.671875 310.746094 45.445312 L 309.167969 45.164062 C 309.359375 44.101562 309.800781 43.277344 310.484375 42.695312 C 311.171875 42.113281 312.023438 41.820312 313.042969 41.820312 C 313.746094 41.820312 314.394531 41.972656 314.984375 42.273438 C 315.574219 42.578125 316.027344 42.988281 316.34375 43.511719 C 316.65625 44.03125 316.8125 44.582031 316.8125 45.171875 C 316.8125 45.726562 316.664062 46.234375 316.363281 46.691406 C 316.0625 47.148438 315.621094 47.511719 315.039062 47.78125 C 315.800781 47.957031 316.390625 48.320312 316.8125 48.875 C 317.234375 49.429688 317.441406 50.121094 317.441406 50.953125 C 317.441406 52.078125 317.035156 53.03125 316.214844 53.816406 C 315.394531 54.597656 314.355469 54.988281 313.101562 54.988281 C 311.972656 54.988281 311.03125 54.652344 310.285156 53.976562 C 309.539062 53.304688 309.113281 52.429688 309.007812 51.355469 "/>
<path fill-rule="nonzero" fill="rgb(13.729858%, 12.159729%, 12.548828%)" fill-opacity="1" d="M 320.484375 58.546875 L 319.351562 58.546875 C 321.105469 55.734375 321.980469 52.921875 321.980469 50.101562 C 321.980469 49 321.855469 47.90625 321.601562 46.820312 C 321.402344 45.945312 321.125 45.101562 320.769531 44.292969 C 320.539062 43.765625 320.070312 42.886719 319.351562 41.65625 L 320.484375 41.65625 C 321.585938 43.125 322.402344 44.601562 322.929688 46.082031 C 323.378906 47.363281 323.605469 48.695312 323.605469 50.09375 C 323.605469 51.675781 323.304688 53.203125 322.695312 54.679688 C 322.089844 56.15625 321.351562 57.449219 320.484375 58.546875 "/>
<path fill-rule="nonzero" fill="rgb(13.729858%, 12.159729%, 12.548828%)" fill-opacity="1" d="M 394.609375 54.710938 L 394.609375 41.828125 L 396.191406 41.828125 L 396.191406 46.449219 C 396.929688 45.59375 397.863281 45.164062 398.988281 45.164062 C 399.679688 45.164062 400.277344 45.304688 400.789062 45.578125 C 401.296875 45.847656 401.664062 46.222656 401.882812 46.703125 C 402.101562 47.183594 402.214844 47.882812 402.214844 48.796875 L 402.214844 54.710938 L 400.628906 54.710938 L 400.628906 48.796875 C 400.628906 48.007812 400.457031 47.429688 400.117188 47.070312 C 399.773438 46.710938 399.289062 46.527344 398.660156 46.527344 C 398.191406 46.527344 397.753906 46.652344 397.339844 46.894531 C 396.925781 47.136719 396.628906 47.464844 396.457031 47.882812 C 396.277344 48.296875 396.191406 48.875 396.191406 49.605469 L 396.191406 54.710938 L 394.609375 54.710938 "/>
<path fill-rule="nonzero" fill="rgb(13.729858%, 12.159729%, 12.548828%)" fill-opacity="1" d="M 407.644531 58.5 C 406.769531 57.398438 406.03125 56.109375 405.429688 54.632812 C 404.824219 53.15625 404.523438 51.628906 404.523438 50.042969 C 404.523438 48.648438 404.746094 47.3125 405.199219 46.035156 C 405.730469 44.554688 406.542969 43.078125 407.644531 41.605469 L 408.777344 41.605469 C 408.070312 42.824219 407.601562 43.695312 407.371094 44.21875 C 407.011719 45.023438 406.734375 45.871094 406.527344 46.75 C 406.273438 47.84375 406.148438 48.945312 406.148438 50.050781 C 406.148438 52.871094 407.023438 55.6875 408.777344 58.5 L 407.644531 58.5 "/>
<path fill-rule="nonzero" fill="rgb(13.729858%, 12.159729%, 12.548828%)" fill-opacity="1" d="M 411.0625 54.710938 L 411.0625 52.910156 L 412.867188 52.910156 L 412.867188 54.710938 L 411.0625 54.710938 "/>
<path fill-rule="nonzero" fill="rgb(13.729858%, 12.159729%, 12.548828%)" fill-opacity="1" d="M 416.0625 54.710938 L 416.0625 52.910156 L 417.867188 52.910156 L 417.867188 54.710938 L 416.0625 54.710938 "/>
<path fill-rule="nonzero" fill="rgb(13.729858%, 12.159729%, 12.548828%)" fill-opacity="1" d="M 421.652344 58.5 L 420.519531 58.5 C 422.269531 55.6875 423.148438 52.871094 423.148438 50.050781 C 423.148438 48.953125 423.019531 47.859375 422.769531 46.773438 C 422.570312 45.898438 422.292969 45.050781 421.933594 44.246094 C 421.707031 43.714844 421.234375 42.835938 420.519531 41.605469 L 421.652344 41.605469 C 422.753906 43.078125 423.570312 44.554688 424.097656 46.035156 C 424.546875 47.3125 424.773438 48.648438 424.773438 50.042969 C 424.773438 51.628906 424.46875 53.15625 423.863281 54.632812 C 423.257812 56.109375 422.519531 57.398438 421.652344 58.5 "/>
<path fill-rule="nonzero" fill="rgb(13.729858%, 12.159729%, 12.548828%)" fill-opacity="1" d="M 101.882812 56.003906 L 101.882812 43.121094 L 103.460938 43.121094 L 103.460938 47.742188 C 104.199219 46.886719 105.132812 46.457031 106.257812 46.457031 C 106.949219 46.457031 107.546875 46.597656 108.058594 46.871094 C 108.566406 47.140625 108.933594 47.519531 109.152344 47.996094 C 109.371094 48.476562 109.484375 49.175781 109.484375 50.089844 L 109.484375 56.003906 L 107.898438 56.003906 L 107.898438 50.089844 C 107.898438 49.300781 107.726562 48.722656 107.386719 48.363281 C 107.042969 48.003906 106.558594 47.820312 105.929688 47.820312 C 105.464844 47.820312 105.023438 47.945312 104.609375 48.1875 C 104.195312 48.429688 103.898438 48.761719 103.726562 49.175781 C 103.550781 49.589844 103.460938 50.167969 103.460938 50.898438 L 103.460938 56.003906 L 101.882812 56.003906 "/>
<path fill-rule="nonzero" fill="rgb(13.729858%, 12.159729%, 12.548828%)" fill-opacity="1" d="M 114.914062 59.792969 C 114.039062 58.691406 113.300781 57.402344 112.699219 55.925781 C 112.097656 54.449219 111.792969 52.921875 111.792969 51.335938 C 111.792969 49.941406 112.019531 48.605469 112.472656 47.328125 C 113 45.847656 113.8125 44.371094 114.914062 42.902344 L 116.046875 42.902344 C 115.339844 44.117188 114.871094 44.988281 114.644531 45.511719 C 114.28125 46.316406 114.003906 47.164062 113.796875 48.042969 C 113.546875 49.136719 113.417969 50.238281 113.417969 51.34375 C 113.417969 54.164062 114.296875 56.980469 116.046875 59.792969 L 114.914062 59.792969 "/>
<path fill-rule="nonzero" fill="rgb(13.729858%, 12.159729%, 12.548828%)" fill-opacity="1" d="M 117.445312 49.652344 C 117.445312 48.125 117.601562 46.898438 117.914062 45.972656 C 118.226562 45.042969 118.695312 44.324219 119.3125 43.820312 C 119.933594 43.316406 120.710938 43.066406 121.644531 43.066406 C 122.339844 43.066406 122.945312 43.207031 123.464844 43.484375 C 123.988281 43.761719 124.417969 44.164062 124.757812 44.6875 C 125.097656 45.214844 125.363281 45.851562 125.558594 46.605469 C 125.753906 47.359375 125.847656 48.371094 125.847656 49.652344 C 125.847656 51.164062 125.691406 52.378906 125.382812 53.308594 C 125.070312 54.242188 124.605469 54.957031 123.988281 55.464844 C 123.371094 55.972656 122.589844 56.222656 121.644531 56.222656 C 120.402344 56.222656 119.429688 55.78125 118.71875 54.890625 C 117.871094 53.816406 117.445312 52.070312 117.445312 49.652344 Z M 119.070312 49.652344 C 119.070312 51.765625 119.320312 53.171875 119.816406 53.875 C 120.308594 54.574219 120.917969 54.925781 121.644531 54.925781 C 122.375 54.925781 122.984375 54.570312 123.476562 53.867188 C 123.972656 53.167969 124.222656 51.761719 124.222656 49.652344 C 124.222656 47.53125 123.972656 46.121094 123.476562 45.421875 C 122.984375 44.726562 122.367188 44.375 121.628906 44.375 C 120.902344 44.375 120.320312 44.683594 119.886719 45.300781 C 119.34375 46.082031 119.070312 47.535156 119.070312 49.652344 "/>
<path fill-rule="nonzero" fill="rgb(13.729858%, 12.159729%, 12.548828%)" fill-opacity="1" d="M 128.933594 59.792969 L 127.796875 59.792969 C 129.550781 56.980469 130.425781 54.164062 130.425781 51.34375 C 130.425781 50.246094 130.300781 49.152344 130.046875 48.066406 C 129.851562 47.191406 129.570312 46.34375 129.214844 45.539062 C 128.984375 45.011719 128.515625 44.128906 127.796875 42.902344 L 128.933594 42.902344 C 130.03125 44.371094 130.847656 45.847656 131.378906 47.328125 C 131.828125 48.605469 132.050781 49.941406 132.050781 51.335938 C 132.050781 52.921875 131.75 54.449219 131.144531 55.925781 C 130.535156 57.402344 129.800781 58.691406 128.933594 59.792969 "/>
<path fill="none" stroke-width="20.0013" stroke-linecap="butt" stroke-linejoin="miter" stroke="rgb(13.729858%, 12.159729%, 12.548828%)" stroke-opacity="1" stroke-miterlimit="22.9256" d="M 904.179688 935.117188 L 1030.429688 935.117188 " transform="matrix(0.1, 0, 0, -0.1, 0, 106)"/>
<path fill-rule="nonzero" fill="rgb(13.729858%, 12.159729%, 12.548828%)" fill-opacity="1" d="M 292.675781 19.359375 L 297.65625 1.597656 L 299.34375 1.597656 L 294.375 19.359375 L 292.675781 19.359375 "/>
<path fill-rule="nonzero" fill="rgb(13.729858%, 12.159729%, 12.548828%)" fill-opacity="1" d="M 299.34375 19.359375 L 304.324219 1.597656 L 306.011719 1.597656 L 301.042969 19.359375 L 299.34375 19.359375 "/>
<path fill-rule="nonzero" fill="rgb(13.729858%, 12.159729%, 12.548828%)" fill-opacity="1" d="M 0.761719 19.835938 L 5.308594 13.367188 L 1.101562 7.394531 L 3.738281 7.394531 L 5.648438 10.308594 C 6.007812 10.863281 6.296875 11.328125 6.511719 11.703125 C 6.855469 11.1875 7.175781 10.734375 7.464844 10.332031 L 9.5625 7.394531 L 12.082031 7.394531 L 7.78125 13.253906 L 12.410156 19.835938 L 9.820312 19.835938 L 7.265625 15.96875 L 6.585938 14.925781 L 3.316406 19.835938 L 0.761719 19.835938 "/>
<path fill-rule="nonzero" fill="rgb(13.729858%, 12.159729%, 12.548828%)" fill-opacity="1" d="M 18.199219 24.890625 C 17.035156 23.421875 16.050781 21.699219 15.246094 19.734375 C 14.441406 17.761719 14.039062 15.726562 14.039062 13.613281 C 14.039062 11.753906 14.339844 9.972656 14.941406 8.269531 C 15.644531 6.292969 16.730469 4.324219 18.199219 2.363281 L 19.710938 2.363281 C 18.765625 3.988281 18.140625 5.148438 17.839844 5.84375 C 17.359375 6.921875 16.984375 8.046875 16.710938 9.21875 C 16.375 10.679688 16.207031 12.148438 16.207031 13.625 C 16.207031 17.386719 17.375 21.136719 19.710938 24.890625 L 18.199219 24.890625 "/>
<path fill-rule="nonzero" fill="rgb(13.729858%, 12.159729%, 12.548828%)" fill-opacity="1" d="M 22.160156 19.835938 L 22.160156 7.394531 L 24.058594 7.394531 L 24.058594 9.160156 C 24.972656 7.792969 26.292969 7.109375 28.019531 7.109375 C 28.769531 7.109375 29.457031 7.246094 30.085938 7.511719 C 30.71875 7.785156 31.1875 8.136719 31.496094 8.578125 C 31.8125 9.011719 32.03125 9.53125 32.15625 10.132812 C 32.234375 10.523438 32.273438 11.210938 32.273438 12.183594 L 32.273438 19.835938 L 30.160156 19.835938 L 30.160156 12.265625 C 30.160156 11.410156 30.082031 10.765625 29.917969 10.335938 C 29.753906 9.914062 29.460938 9.574219 29.046875 9.320312 C 28.625 9.066406 28.136719 8.9375 27.574219 8.9375 C 26.671875 8.9375 25.902344 9.226562 25.246094 9.792969 C 24.59375 10.363281 24.269531 11.445312 24.269531 13.039062 L 24.269531 19.835938 L 22.160156 19.835938 "/>
<path fill-rule="nonzero" fill="rgb(13.729858%, 12.159729%, 12.548828%)" fill-opacity="1" d="M 36.890625 24.890625 L 35.378906 24.890625 C 37.714844 21.136719 38.882812 17.386719 38.882812 13.625 C 38.882812 12.15625 38.714844 10.699219 38.378906 9.253906 C 38.113281 8.085938 37.742188 6.957031 37.265625 5.882812 C 36.960938 5.175781 36.335938 4.003906 35.378906 2.363281 L 36.890625 2.363281 C 38.359375 4.324219 39.445312 6.292969 40.148438 8.269531 C 40.75 9.972656 41.050781 11.753906 41.050781 13.613281 C 41.050781 15.726562 40.644531 17.761719 39.839844 19.734375 C 39.03125 21.699219 38.046875 23.421875 36.890625 24.890625 "/>
<path fill-rule="nonzero" fill="rgb(13.729858%, 12.159729%, 12.548828%)" fill-opacity="1" d="M 454.890625 103.546875 L 454.65625 101.566406 C 455.121094 101.6875 455.519531 101.753906 455.863281 101.753906 C 456.332031 101.753906 456.707031 101.671875 456.988281 101.519531 C 457.269531 101.363281 457.5 101.144531 457.679688 100.863281 C 457.816406 100.652344 458.027344 100.128906 458.324219 99.292969 C 458.363281 99.171875 458.429688 99.003906 458.511719 98.777344 L 453.792969 86.308594 L 456.0625 86.308594 L 458.65625 93.511719 C 458.988281 94.429688 459.292969 95.390625 459.554688 96.398438 C 459.800781 95.429688 460.089844 94.484375 460.421875 93.5625 L 463.085938 86.308594 L 465.191406 86.308594 L 460.460938 98.964844 C 459.953125 100.332031 459.554688 101.273438 459.277344 101.789062 C 458.898438 102.484375 458.472656 102.992188 457.988281 103.316406 C 457.5 103.640625 456.925781 103.804688 456.253906 103.804688 C 455.84375 103.804688 455.390625 103.71875 454.890625 103.546875 "/>
<path fill-rule="nonzero" fill="rgb(13.729858%, 12.159729%, 12.548828%)" fill-opacity="1" d="M 471.015625 103.804688 C 469.851562 102.335938 468.867188 100.617188 468.0625 98.648438 C 467.261719 96.675781 466.855469 94.640625 466.855469 92.53125 C 466.855469 90.667969 467.15625 88.890625 467.761719 87.183594 C 468.464844 85.210938 469.546875 83.242188 471.015625 81.28125 L 472.527344 81.28125 C 471.585938 82.90625 470.960938 84.066406 470.65625 84.761719 C 470.175781 85.835938 469.804688 86.964844 469.527344 88.136719 C 469.191406 89.597656 469.023438 91.066406 469.023438 92.542969 C 469.023438 96.300781 470.191406 100.054688 472.527344 103.804688 L 471.015625 103.804688 "/>
<path fill-rule="nonzero" fill="rgb(13.729858%, 12.159729%, 12.548828%)" fill-opacity="1" d="M 474.980469 98.753906 L 474.980469 86.308594 L 476.875 86.308594 L 476.875 88.078125 C 477.792969 86.710938 479.113281 86.027344 480.835938 86.027344 C 481.589844 86.027344 482.277344 86.160156 482.902344 86.429688 C 483.535156 86.703125 484.003906 87.054688 484.316406 87.492188 C 484.632812 87.929688 484.847656 88.449219 484.976562 89.050781 C 485.050781 89.441406 485.09375 90.125 485.09375 91.101562 L 485.09375 98.753906 L 482.980469 98.753906 L 482.980469 91.179688 C 482.980469 90.324219 482.898438 89.679688 482.734375 89.253906 C 482.570312 88.828125 482.28125 88.488281 481.863281 88.238281 C 481.445312 87.980469 480.957031 87.851562 480.390625 87.851562 C 479.492188 87.851562 478.71875 88.140625 478.0625 88.710938 C 477.410156 89.28125 477.089844 90.359375 477.089844 91.957031 L 477.089844 98.753906 L 474.980469 98.753906 "/>
<path fill-rule="nonzero" fill="rgb(13.729858%, 12.159729%, 12.548828%)" fill-opacity="1" d="M 489.707031 103.804688 L 488.195312 103.804688 C 490.53125 100.054688 491.699219 96.300781 491.699219 92.542969 C 491.699219 91.074219 491.53125 89.617188 491.195312 88.167969 C 490.933594 87 490.558594 85.875 490.085938 84.796875 C 489.78125 84.09375 489.152344 82.921875 488.195312 81.28125 L 489.707031 81.28125 C 491.175781 83.242188 492.265625 85.210938 492.96875 87.183594 C 493.566406 88.890625 493.867188 90.667969 493.867188 92.53125 C 493.867188 94.640625 493.464844 96.675781 492.65625 98.648438 C 491.847656 100.617188 490.863281 102.335938 489.707031 103.804688 "/>
</svg>
