<?xml version="1.0" encoding="UTF-8"?>
<svg xmlns="http://www.w3.org/2000/svg" xmlns:xlink="http://www.w3.org/1999/xlink" width="622" height="510" viewBox="0 0 622 510">
<path fill-rule="evenodd" fill="rgb(91.363525%, 91.20636%, 91.246033%)" fill-opacity="1" d="M 249.617188 482.628906 L 219.949219 482.628906 L 219.949219 29.230469 L 249.617188 29.230469 L 249.617188 482.628906 "/>
<path fill="none" stroke-width="19.9984" stroke-linecap="butt" stroke-linejoin="miter" stroke="rgb(13.729858%, 12.159729%, 12.548828%)" stroke-opacity="1" stroke-miterlimit="22.9256" d="M 2496.171875 273.710938 L 2199.492188 273.710938 L 2199.492188 4807.695312 L 2496.171875 4807.695312 Z M 2496.171875 273.710938 " transform="matrix(0.1, 0, 0, -0.1, 0, 510)"/>
<path fill="none" stroke-width="19.9984" stroke-linecap="butt" stroke-linejoin="miter" stroke="rgb(13.729858%, 12.159729%, 12.548828%)" stroke-opacity="1" stroke-miterlimit="22.9256" d="M 2199.492188 5005.664062 L 2199.492188 3238.945312 L 6123.359375 3238.945312 " transform="matrix(0.1, 0, 0, -0.1, 0, 510)"/>
<path fill-rule="evenodd" fill="rgb(13.729858%, 12.159729%, 12.548828%)" fill-opacity="1" d="M 225.179688 10.257812 L 219.949219 0.753906 L 214.722656 10.257812 Z M 225.179688 10.257812 "/>
<path fill-rule="evenodd" fill="rgb(13.729858%, 12.159729%, 12.548828%)" fill-opacity="1" d="M 611.511719 180.875 L 621.015625 186.105469 L 611.511719 191.332031 Z M 611.511719 180.875 "/>
<path fill="none" stroke-width="19.9984" stroke-linecap="butt" stroke-linejoin="miter" stroke="rgb(13.729858%, 12.159729%, 12.548828%)" stroke-opacity="1" stroke-miterlimit="22.9256" d="M 2199.492188 2040.390625 L 2199.492188 273.710938 L 6123.359375 273.710938 " transform="matrix(0.1, 0, 0, -0.1, 0, 510)"/>
<path fill-rule="evenodd" fill="rgb(13.729858%, 12.159729%, 12.548828%)" fill-opacity="1" d="M 225.179688 306.78125 L 219.949219 297.277344 L 214.722656 306.78125 Z M 225.179688 306.78125 "/>
<path fill-rule="evenodd" fill="rgb(13.729858%, 12.159729%, 12.548828%)" fill-opacity="1" d="M 611.511719 477.402344 L 621.015625 482.628906 L 611.511719 487.855469 Z M 611.511719 477.402344 "/>
<path fill="none" stroke-width="39.9997" stroke-linecap="butt" stroke-linejoin="miter" stroke="rgb(13.729858%, 12.159729%, 12.548828%)" stroke-opacity="1" stroke-miterlimit="10" d="M 2199.492188 3240.898438 L 2232.03125 3609.375 L 2264.023438 3934.375 L 2296.523438 4206.367188 L 2328.515625 4417.382812 L 2361.015625 4564.882812 L 2393.007812 4646.367188 L 2425.507812 4664.882812 L 2457.539062 4624.375 L 2490.039062 4530.390625 L 2522.03125 4391.367188 L 2554.53125 4216.40625 L 2586.523438 4015.390625 L 2619.023438 3798.398438 L 2651.015625 3575.898438 L 2683.515625 3356.367188 L 2715.507812 3149.882812 L 2748.007812 2962.890625 L 2780.039062 2801.875 L 2812.539062 2670.898438 L 2845.039062 2573.398438 L 2877.03125 2510.390625 L 2909.53125 2482.382812 L 2941.523438 2486.875 L 2974.023438 2521.875 L 3006.015625 2583.398438 L 3038.515625 2666.875 L 3070.546875 2766.875 L 3103.046875 2878.90625 L 3135.039062 2996.40625 L 3167.539062 3114.882812 L 3199.53125 3229.375 L 3232.03125 3335.390625 L 3264.023438 3429.375 L 3296.523438 3508.398438 L 3328.554688 3570.390625 L 3361.054688 3613.90625 L 3393.046875 3639.375 L 3425.546875 3646.40625 L 3457.539062 3636.40625 L 3490.039062 3610.898438 L 3522.539062 3572.890625 L 3554.53125 3523.90625 L 3587.03125 3467.382812 L 3619.0625 3405.898438 L 3651.5625 3342.382812 L 3683.554688 3279.882812 L 3716.054688 3220.390625 L 3748.046875 3166.914062 L 3780.546875 3119.882812 L 3812.539062 3081.914062 L 3845.039062 3053.398438 L 3877.03125 3034.414062 L 3909.53125 3025.390625 L 3941.5625 3025.390625 L 3974.0625 3034.882812 L 4006.054688 3051.40625 L 4038.554688 3074.882812 L 4070.546875 3102.890625 L 4103.046875 3134.414062 L 4135.546875 3167.890625 L 4167.578125 3201.40625 L 4200.078125 3234.414062 L 4232.070312 3264.921875 L 4264.570312 3291.914062 L 4296.5625 3314.921875 L 4329.0625 3332.890625 L 4361.054688 3345.898438 L 4393.554688 3353.90625 L 4425.585938 3356.40625 L 4458.085938 3353.90625 L 4490.078125 3346.914062 L 4522.578125 3336.40625 L 4554.570312 3322.890625 L 4587.070312 3306.914062 L 4619.0625 3289.414062 L 4651.5625 3271.40625 L 4683.59375 3253.90625 L 4716.09375 3236.914062 L 4748.085938 3221.40625 L 4780.585938 3207.421875 L 4813.085938 3196.40625 L 4845.078125 3187.890625 L 4877.578125 3182.421875 L 4909.570312 3179.414062 L 4942.109375 3179.414062 L 4974.101562 3181.914062 L 5006.601562 3186.40625 L 5038.59375 3192.929688 L 5071.09375 3200.390625 L 5103.085938 3209.414062 L 5135.585938 3218.90625 L 5167.578125 3228.4375 L 5200.078125 3237.929688 L 5232.109375 3246.914062 L 5264.609375 3254.414062 L 5296.601562 3261.40625 L 5329.101562 3266.40625 L 5361.09375 3270.429688 L 5393.59375 3272.929688 " transform="matrix(0.1, 0, 0, -0.1, 0, 510)"/>
<path fill-rule="nonzero" fill="rgb(13.729858%, 12.159729%, 12.548828%)" fill-opacity="1" d="M 620.085938 211.265625 L 620.390625 213.128906 C 619.796875 213.253906 619.265625 213.316406 618.796875 213.316406 C 618.027344 213.316406 617.4375 213.195312 617.011719 212.953125 C 616.59375 212.710938 616.296875 212.394531 616.125 211.996094 C 615.953125 211.605469 615.863281 210.773438 615.863281 209.507812 L 615.863281 202.347656 L 614.316406 202.347656 L 614.316406 200.710938 L 615.863281 200.710938 L 615.863281 197.625 L 617.964844 196.359375 L 617.964844 200.710938 L 620.085938 200.710938 L 620.085938 202.347656 L 617.964844 202.347656 L 617.964844 209.625 C 617.964844 210.230469 618 210.613281 618.074219 210.785156 C 618.148438 210.957031 618.269531 211.09375 618.4375 211.195312 C 618.605469 211.296875 618.84375 211.347656 619.15625 211.347656 C 619.394531 211.347656 619.699219 211.320312 620.085938 211.265625 "/>
<path fill-rule="nonzero" fill="rgb(13.729858%, 12.159729%, 12.548828%)" fill-opacity="1" d="M 621.585938 506.730469 L 621.890625 508.59375 C 621.296875 508.71875 620.765625 508.785156 620.296875 508.785156 C 619.527344 508.785156 618.9375 508.664062 618.511719 508.417969 C 618.09375 508.179688 617.796875 507.859375 617.625 507.464844 C 617.453125 507.070312 617.363281 506.238281 617.363281 504.976562 L 617.363281 497.816406 L 615.816406 497.816406 L 615.816406 496.175781 L 617.363281 496.175781 L 617.363281 493.089844 L 619.464844 491.828125 L 619.464844 496.175781 L 621.585938 496.175781 L 621.585938 497.816406 L 619.464844 497.816406 L 619.464844 505.089844 C 619.464844 505.695312 619.5 506.078125 619.574219 506.25 C 619.648438 506.421875 619.769531 506.558594 619.9375 506.664062 C 620.105469 506.761719 620.34375 506.816406 620.65625 506.816406 C 620.894531 506.816406 621.199219 506.789062 621.585938 506.730469 "/>
<path fill="none" stroke-width="39.9997" stroke-linecap="butt" stroke-linejoin="miter" stroke="rgb(13.729858%, 12.159729%, 12.548828%)" stroke-opacity="1" stroke-miterlimit="22.9256" d="M 2199.492188 3240.898438 L 4.335938 3241.40625 " transform="matrix(0.1, 0, 0, -0.1, 0, 510)"/>
<path fill-rule="nonzero" fill="rgb(13.729858%, 12.159729%, 12.548828%)" fill-opacity="1" d="M 217.386719 198.746094 C 217.386719 196.714844 217.59375 195.078125 218.015625 193.84375 C 218.433594 192.605469 219.054688 191.648438 219.878906 190.976562 C 220.703125 190.304688 221.738281 189.96875 222.988281 189.96875 C 223.910156 189.96875 224.71875 190.15625 225.414062 190.527344 C 226.109375 190.894531 226.683594 191.433594 227.140625 192.132812 C 227.589844 192.832031 227.945312 193.683594 228.203125 194.6875 C 228.464844 195.691406 228.589844 197.042969 228.589844 198.746094 C 228.589844 200.765625 228.382812 202.386719 227.972656 203.628906 C 227.554688 204.867188 226.9375 205.824219 226.109375 206.5 C 225.289062 207.175781 224.246094 207.511719 222.988281 207.511719 C 221.332031 207.511719 220.03125 206.921875 219.089844 205.730469 C 217.953125 204.304688 217.386719 201.972656 217.386719 198.746094 Z M 219.554688 198.746094 C 219.554688 201.566406 219.886719 203.445312 220.546875 204.378906 C 221.207031 205.3125 222.019531 205.78125 222.988281 205.78125 C 223.960938 205.78125 224.769531 205.308594 225.429688 204.371094 C 226.089844 203.4375 226.421875 201.558594 226.421875 198.746094 C 226.421875 195.921875 226.089844 194.039062 225.429688 193.113281 C 224.769531 192.179688 223.953125 191.714844 222.96875 191.714844 C 221.996094 191.714844 221.222656 192.128906 220.644531 192.949219 C 219.921875 193.992188 219.554688 195.925781 219.554688 198.746094 "/>
<path fill-rule="nonzero" fill="rgb(13.729858%, 12.159729%, 12.548828%)" fill-opacity="1" d="M 213.660156 500.3125 C 213.660156 498.28125 213.867188 496.644531 214.289062 495.410156 C 214.703125 494.167969 215.328125 493.214844 216.152344 492.542969 C 216.976562 491.871094 218.011719 491.535156 219.261719 491.535156 C 220.183594 491.535156 220.992188 491.722656 221.6875 492.09375 C 222.382812 492.460938 222.957031 492.996094 223.414062 493.699219 C 223.863281 494.398438 224.21875 495.25 224.476562 496.253906 C 224.738281 497.257812 224.863281 498.609375 224.863281 500.3125 C 224.863281 502.328125 224.65625 503.953125 224.246094 505.195312 C 223.828125 506.433594 223.210938 507.390625 222.382812 508.066406 C 221.5625 508.742188 220.519531 509.078125 219.261719 509.078125 C 217.605469 509.078125 216.304688 508.484375 215.359375 507.296875 C 214.226562 505.871094 213.660156 503.539062 213.660156 500.3125 Z M 215.828125 500.3125 C 215.828125 503.132812 216.160156 505.007812 216.820312 505.945312 C 217.480469 506.878906 218.292969 507.34375 219.261719 507.34375 C 220.230469 507.34375 221.046875 506.875 221.703125 505.9375 C 222.363281 505 222.695312 503.125 222.695312 500.3125 C 222.695312 497.484375 222.363281 495.605469 221.703125 494.675781 C 221.046875 493.746094 220.226562 493.28125 219.242188 493.28125 C 218.269531 493.28125 217.496094 493.695312 216.914062 494.511719 C 216.191406 495.558594 215.828125 497.492188 215.828125 500.3125 "/>
<path fill="none" stroke-width="39.9997" stroke-linecap="butt" stroke-linejoin="miter" stroke="rgb(13.729858%, 12.159729%, 12.548828%)" stroke-opacity="1" stroke-miterlimit="10" d="M 2200.859375 256.132812 L 2233.359375 1197.148438 L 2265.351562 1762.617188 L 2297.851562 2039.648438 L 2330.351562 2105.625 L 2362.34375 2026.640625 L 2394.84375 1855.625 L 2427.34375 1634.648438 L 2459.375 1395.15625 L 2491.875 1159.648438 L 2524.375 941.640625 L 2556.367188 750.625 L 2588.867188 590.15625 L 2621.367188 460.625 L 2653.359375 360.625 L 2685.859375 287.148438 L 2718.359375 235.625 L 2750.351562 202.65625 L 2782.851562 184.140625 L 2815.351562 176.640625 L 2847.34375 177.148438 L 2879.882812 182.65625 L 2912.382812 191.132812 L 2944.375 201.132812 L 2976.875 211.640625 L 3009.375 221.640625 L 3041.367188 230.15625 L 3073.867188 238.164062 L 3106.367188 244.140625 L 3138.359375 249.140625 L 3170.898438 253.164062 L 3203.398438 256.132812 L 3235.390625 257.65625 L 3267.890625 258.632812 L 3300.390625 259.648438 L 3364.882812 259.648438 L 3397.382812 259.140625 L 3429.375 258.632812 L 3461.875 258.164062 L 3494.375 257.65625 L 3526.40625 257.65625 L 3591.40625 256.640625 L 3623.398438 256.640625 L 3655.898438 256.132812 L 5401.953125 256.132812 " transform="matrix(0.1, 0, 0, -0.1, 0, 510)"/>
<path fill="none" stroke-width="39.9997" stroke-linecap="butt" stroke-linejoin="miter" stroke="rgb(13.729858%, 12.159729%, 12.548828%)" stroke-opacity="1" stroke-miterlimit="22.9256" d="M 2199.492188 273.710938 L 75.195312 273.710938 " transform="matrix(0.1, 0, 0, -0.1, 0, 510)"/>
<path fill-rule="nonzero" fill="rgb(13.729858%, 12.159729%, 12.548828%)" fill-opacity="1" d="M 240.992188 507.023438 L 241.296875 508.890625 C 240.703125 509.011719 240.171875 509.078125 239.703125 509.078125 C 238.9375 509.078125 238.34375 508.957031 237.921875 508.714844 C 237.5 508.472656 237.203125 508.152344 237.03125 507.757812 C 236.859375 507.363281 236.773438 506.53125 236.773438 505.269531 L 236.773438 498.109375 L 235.222656 498.109375 L 235.222656 496.46875 L 236.773438 496.46875 L 236.773438 493.386719 L 238.871094 492.121094 L 238.871094 496.46875 L 240.992188 496.46875 L 240.992188 498.109375 L 238.871094 498.109375 L 238.871094 505.386719 C 238.871094 505.988281 238.90625 506.375 238.980469 506.546875 C 239.054688 506.71875 239.175781 506.851562 239.34375 506.957031 C 239.511719 507.058594 239.753906 507.109375 240.0625 507.109375 C 240.300781 507.109375 240.605469 507.082031 240.992188 507.023438 "/>
<path fill-rule="nonzero" fill="rgb(13.729858%, 12.159729%, 12.548828%)" fill-opacity="1" d="M 254.152344 498.8125 L 242.808594 498.8125 L 242.808594 496.839844 L 254.152344 496.839844 Z M 254.152344 504.023438 L 242.808594 504.023438 L 242.808594 502.058594 L 254.152344 502.058594 L 254.152344 504.023438 "/>
<path fill-rule="nonzero" fill="rgb(13.729858%, 12.159729%, 12.548828%)" fill-opacity="1" d="M 264.429688 508.914062 L 262.320312 508.914062 L 262.320312 495.472656 C 261.8125 495.957031 261.148438 496.441406 260.324219 496.925781 C 259.496094 497.410156 258.757812 497.773438 258.101562 498.011719 L 258.101562 495.976562 C 259.28125 495.421875 260.3125 494.75 261.195312 493.960938 C 262.074219 493.167969 262.703125 492.40625 263.070312 491.660156 L 264.429688 491.660156 L 264.429688 508.914062 "/>
<path fill="none" stroke-width="19.9984" stroke-linecap="butt" stroke-linejoin="miter" stroke="rgb(13.729858%, 12.159729%, 12.548828%)" stroke-opacity="1" stroke-miterlimit="22.9256" d="M 2496.171875 3929.609375 L 1681.171875 3929.609375 " transform="matrix(0.1, 0, 0, -0.1, 0, 510)"/>
<path fill-rule="evenodd" fill="rgb(13.729858%, 12.159729%, 12.548828%)" fill-opacity="1" d="M 168.941406 122.269531 L 159.4375 117.039062 L 168.941406 111.8125 Z M 168.941406 122.269531 "/>
<path fill="none" stroke-width="19.9984" stroke-linecap="butt" stroke-linejoin="miter" stroke="rgb(13.729858%, 12.159729%, 12.548828%)" stroke-opacity="1" stroke-miterlimit="22.9256" d="M 2199.492188 1200.46875 L 3002.734375 1200.46875 " transform="matrix(0.1, 0, 0, -0.1, 0, 510)"/>
<path fill-rule="evenodd" fill="rgb(13.729858%, 12.159729%, 12.548828%)" fill-opacity="1" d="M 299.449219 384.726562 L 308.953125 389.953125 L 299.449219 395.183594 Z M 299.449219 384.726562 "/>
<path fill-rule="nonzero" fill="rgb(13.729858%, 12.159729%, 12.548828%)" fill-opacity="1" d="M 53.992188 114.664062 L 53.992188 113.09375 C 53.203125 114.328125 52.042969 114.945312 50.511719 114.945312 C 49.519531 114.945312 48.609375 114.675781 47.777344 114.125 C 46.945312 113.582031 46.300781 112.816406 45.839844 111.835938 C 45.386719 110.855469 45.15625 109.730469 45.15625 108.453125 C 45.15625 107.214844 45.363281 106.085938 45.777344 105.074219 C 46.191406 104.0625 46.8125 103.285156 47.640625 102.75 C 48.46875 102.210938 49.398438 101.9375 50.421875 101.9375 C 51.167969 101.9375 51.835938 102.097656 52.421875 102.414062 C 53.007812 102.730469 53.484375 103.140625 53.851562 103.648438 L 53.851562 97.484375 L 55.949219 97.484375 L 55.949219 114.664062 Z M 47.324219 108.453125 C 47.324219 110.050781 47.660156 111.242188 48.332031 112.03125 C 49.003906 112.816406 49.796875 113.214844 50.714844 113.214844 C 51.632812 113.214844 52.417969 112.835938 53.0625 112.082031 C 53.707031 111.328125 54.027344 110.179688 54.027344 108.628906 C 54.027344 106.925781 53.699219 105.679688 53.042969 104.882812 C 52.390625 104.082031 51.582031 103.6875 50.617188 103.6875 C 49.679688 103.6875 48.898438 104.070312 48.269531 104.835938 C 47.640625 105.597656 47.324219 106.804688 47.324219 108.453125 "/>
<path fill-rule="nonzero" fill="rgb(13.729858%, 12.159729%, 12.548828%)" fill-opacity="1" d="M 59.277344 99.914062 L 59.277344 97.484375 L 61.390625 97.484375 L 61.390625 99.914062 Z M 59.277344 114.664062 L 59.277344 102.222656 L 61.390625 102.222656 L 61.390625 114.664062 L 59.277344 114.664062 "/>
<path fill-rule="nonzero" fill="rgb(13.729858%, 12.159729%, 12.548828%)" fill-opacity="1" d="M 64.578125 114.664062 L 64.578125 102.222656 L 66.472656 102.222656 L 66.472656 104.105469 C 66.957031 103.226562 67.40625 102.640625 67.816406 102.363281 C 68.226562 102.082031 68.675781 101.9375 69.167969 101.9375 C 69.882812 101.9375 70.601562 102.164062 71.335938 102.617188 L 70.609375 104.578125 C 70.097656 104.269531 69.582031 104.117188 69.066406 104.117188 C 68.601562 104.117188 68.1875 104.257812 67.820312 104.535156 C 67.453125 104.8125 67.191406 105.199219 67.035156 105.691406 C 66.800781 106.4375 66.683594 107.257812 66.683594 108.148438 L 66.683594 114.664062 L 64.578125 114.664062 "/>
<path fill-rule="nonzero" fill="rgb(13.729858%, 12.159729%, 12.548828%)" fill-opacity="1" d="M 81.109375 110.65625 L 83.289062 110.925781 C 82.945312 112.203125 82.308594 113.191406 81.382812 113.894531 C 80.449219 114.59375 79.261719 114.945312 77.816406 114.945312 C 75.996094 114.945312 74.550781 114.386719 73.488281 113.265625 C 72.421875 112.144531 71.890625 110.574219 71.890625 108.550781 C 71.890625 106.453125 72.429688 104.828125 73.503906 103.675781 C 74.585938 102.519531 75.980469 101.9375 77.703125 101.9375 C 79.363281 101.9375 80.726562 102.507812 81.777344 103.636719 C 82.832031 104.769531 83.359375 106.367188 83.359375 108.417969 C 83.359375 108.546875 83.355469 108.734375 83.347656 108.980469 L 74.070312 108.980469 C 74.144531 110.351562 74.53125 111.398438 75.230469 112.121094 C 75.925781 112.851562 76.789062 113.214844 77.828125 113.214844 C 78.601562 113.214844 79.261719 113.011719 79.808594 112.601562 C 80.355469 112.199219 80.789062 111.550781 81.109375 110.65625 Z M 74.183594 107.246094 L 81.132812 107.246094 C 81.039062 106.203125 80.773438 105.414062 80.335938 104.894531 C 79.664062 104.082031 78.792969 103.675781 77.726562 103.675781 C 76.757812 103.675781 75.941406 103.996094 75.28125 104.644531 C 74.621094 105.292969 74.257812 106.160156 74.183594 107.246094 "/>
<path fill-rule="nonzero" fill="rgb(13.729858%, 12.159729%, 12.548828%)" fill-opacity="1" d="M 94.0625 110.105469 L 96.132812 110.378906 C 95.910156 111.804688 95.328125 112.925781 94.394531 113.734375 C 93.460938 114.542969 92.3125 114.945312 90.953125 114.945312 C 89.253906 114.945312 87.882812 114.390625 86.847656 113.277344 C 85.8125 112.164062 85.292969 110.570312 85.292969 108.488281 C 85.292969 107.144531 85.515625 105.96875 85.960938 104.960938 C 86.410156 103.953125 87.085938 103.199219 87.996094 102.695312 C 88.90625 102.191406 89.898438 101.9375 90.964844 101.9375 C 92.316406 101.9375 93.425781 102.28125 94.28125 102.964844 C 95.140625 103.648438 95.691406 104.617188 95.9375 105.878906 L 93.886719 106.195312 C 93.6875 105.359375 93.34375 104.730469 92.847656 104.304688 C 92.351562 103.886719 91.753906 103.675781 91.050781 103.675781 C 89.984375 103.675781 89.121094 104.054688 88.457031 104.816406 C 87.792969 105.578125 87.460938 106.78125 87.460938 108.429688 C 87.460938 110.101562 87.78125 111.316406 88.425781 112.078125 C 89.066406 112.835938 89.902344 113.214844 90.933594 113.214844 C 91.761719 113.214844 92.449219 112.957031 93.003906 112.449219 C 93.5625 111.941406 93.914062 111.160156 94.0625 110.105469 "/>
<path fill-rule="nonzero" fill="rgb(13.729858%, 12.159729%, 12.548828%)" fill-opacity="1" d="M 102.546875 112.777344 L 102.847656 114.640625 C 102.257812 114.765625 101.726562 114.828125 101.257812 114.828125 C 100.488281 114.828125 99.898438 114.710938 99.472656 114.464844 C 99.054688 114.226562 98.757812 113.90625 98.585938 113.511719 C 98.414062 113.117188 98.324219 112.285156 98.324219 111.023438 L 98.324219 103.863281 L 96.777344 103.863281 L 96.777344 102.222656 L 98.324219 102.222656 L 98.324219 99.136719 L 100.425781 97.875 L 100.425781 102.222656 L 102.546875 102.222656 L 102.546875 103.863281 L 100.425781 103.863281 L 100.425781 111.136719 C 100.425781 111.742188 100.460938 112.125 100.53125 112.296875 C 100.609375 112.46875 100.730469 112.605469 100.898438 112.710938 C 101.066406 112.808594 101.304688 112.863281 101.617188 112.863281 C 101.855469 112.863281 102.160156 112.835938 102.546875 112.777344 "/>
<path fill-rule="nonzero" fill="rgb(13.729858%, 12.159729%, 12.548828%)" fill-opacity="1" d="M 104.617188 99.914062 L 104.617188 97.484375 L 106.730469 97.484375 L 106.730469 99.914062 Z M 104.617188 114.664062 L 104.617188 102.222656 L 106.730469 102.222656 L 106.730469 114.664062 L 104.617188 114.664062 "/>
<path fill-rule="nonzero" fill="rgb(13.729858%, 12.159729%, 12.548828%)" fill-opacity="1" d="M 109.152344 108.441406 C 109.152344 106.136719 109.792969 104.429688 111.078125 103.320312 C 112.144531 102.402344 113.449219 101.9375 114.988281 101.9375 C 116.699219 101.9375 118.101562 102.496094 119.183594 103.621094 C 120.273438 104.742188 120.8125 106.289062 120.8125 108.265625 C 120.8125 109.871094 120.574219 111.128906 120.09375 112.046875 C 119.613281 112.964844 118.914062 113.679688 117.996094 114.1875 C 117.078125 114.695312 116.078125 114.945312 114.988281 114.945312 C 113.25 114.945312 111.839844 114.390625 110.765625 113.269531 C 109.6875 112.152344 109.152344 110.546875 109.152344 108.441406 Z M 111.320312 108.441406 C 111.320312 110.039062 111.667969 111.230469 112.363281 112.023438 C 113.0625 112.816406 113.9375 113.214844 114.988281 113.214844 C 116.035156 113.214844 116.910156 112.8125 117.605469 112.019531 C 118.296875 111.222656 118.644531 110.007812 118.644531 108.375 C 118.644531 106.835938 118.296875 105.664062 117.597656 104.875 C 116.898438 104.082031 116.027344 103.6875 114.988281 103.6875 C 113.9375 103.6875 113.0625 104.082031 112.363281 104.871094 C 111.667969 105.65625 111.320312 106.851562 111.320312 108.441406 "/>
<path fill-rule="nonzero" fill="rgb(13.729858%, 12.159729%, 12.548828%)" fill-opacity="1" d="M 123.289062 114.664062 L 123.289062 102.222656 L 125.183594 102.222656 L 125.183594 103.988281 C 126.101562 102.621094 127.421875 101.9375 129.144531 101.9375 C 129.898438 101.9375 130.585938 102.074219 131.214844 102.34375 C 131.84375 102.613281 132.3125 102.964844 132.625 103.40625 C 132.941406 103.84375 133.15625 104.363281 133.285156 104.960938 C 133.359375 105.355469 133.402344 106.039062 133.402344 107.015625 L 133.402344 114.664062 L 131.289062 114.664062 L 131.289062 107.09375 C 131.289062 106.238281 131.210938 105.59375 131.046875 105.164062 C 130.882812 104.742188 130.589844 104.402344 130.171875 104.148438 C 129.753906 103.894531 129.265625 103.765625 128.699219 103.765625 C 127.800781 103.765625 127.027344 104.054688 126.371094 104.621094 C 125.722656 105.195312 125.398438 106.273438 125.398438 107.871094 L 125.398438 114.664062 L 123.289062 114.664062 "/>
<path fill-rule="nonzero" fill="rgb(13.729858%, 12.159729%, 12.548828%)" fill-opacity="1" d="M 45.132812 135.253906 C 45.132812 132.949219 45.773438 131.242188 47.058594 130.132812 C 48.125 129.214844 49.429688 128.75 50.96875 128.75 C 52.679688 128.75 54.082031 129.308594 55.164062 130.433594 C 56.253906 131.554688 56.792969 133.101562 56.792969 135.078125 C 56.792969 136.683594 56.554688 137.941406 56.074219 138.859375 C 55.59375 139.777344 54.894531 140.488281 53.976562 140.996094 C 53.058594 141.507812 52.058594 141.757812 50.96875 141.757812 C 49.230469 141.757812 47.820312 141.203125 46.746094 140.082031 C 45.667969 138.964844 45.132812 137.359375 45.132812 135.253906 Z M 47.300781 135.253906 C 47.300781 136.851562 47.648438 138.042969 48.34375 138.835938 C 49.039062 139.628906 49.917969 140.027344 50.96875 140.027344 C 52.015625 140.027344 52.890625 139.628906 53.585938 138.828125 C 54.277344 138.035156 54.625 136.816406 54.625 135.1875 C 54.625 133.644531 54.277344 132.476562 53.578125 131.6875 C 52.878906 130.894531 52.007812 130.496094 50.96875 130.496094 C 49.917969 130.496094 49.039062 130.894531 48.34375 131.683594 C 47.648438 132.46875 47.300781 133.660156 47.300781 135.253906 "/>
<path fill-rule="nonzero" fill="rgb(13.729858%, 12.159729%, 12.548828%)" fill-opacity="1" d="M 59.769531 141.476562 L 59.769531 130.675781 L 57.910156 130.675781 L 57.910156 129.035156 L 59.769531 129.035156 L 59.769531 127.710938 C 59.769531 126.875 59.84375 126.25 59.992188 125.847656 C 60.199219 125.296875 60.554688 124.855469 61.066406 124.515625 C 61.578125 124.175781 62.292969 124.007812 63.21875 124.007812 C 63.808594 124.007812 64.464844 124.074219 65.183594 124.21875 L 64.867188 126.058594 C 64.433594 125.976562 64.015625 125.9375 63.625 125.9375 C 62.984375 125.9375 62.53125 126.074219 62.269531 126.351562 C 62 126.621094 61.867188 127.132812 61.867188 127.886719 L 61.867188 129.035156 L 64.292969 129.035156 L 64.292969 130.675781 L 61.867188 130.675781 L 61.867188 141.476562 L 59.769531 141.476562 "/>
<path fill-rule="nonzero" fill="rgb(13.729858%, 12.159729%, 12.548828%)" fill-opacity="1" d="M 72.613281 126.726562 L 72.613281 124.296875 L 74.726562 124.296875 L 74.726562 126.726562 Z M 72.613281 141.476562 L 72.613281 129.035156 L 74.726562 129.035156 L 74.726562 141.476562 L 72.613281 141.476562 "/>
<path fill-rule="nonzero" fill="rgb(13.729858%, 12.159729%, 12.548828%)" fill-opacity="1" d="M 77.9375 141.476562 L 77.9375 129.035156 L 79.832031 129.035156 L 79.832031 130.800781 C 80.75 129.433594 82.070312 128.75 83.792969 128.75 C 84.542969 128.75 85.234375 128.886719 85.859375 129.152344 C 86.492188 129.425781 86.960938 129.777344 87.273438 130.21875 C 87.589844 130.652344 87.804688 131.175781 87.933594 131.773438 C 88.007812 132.164062 88.046875 132.851562 88.046875 133.824219 L 88.046875 141.476562 L 85.9375 141.476562 L 85.9375 133.90625 C 85.9375 133.050781 85.855469 132.40625 85.691406 131.976562 C 85.527344 131.554688 85.238281 131.214844 84.820312 130.960938 C 84.402344 130.707031 83.914062 130.578125 83.347656 130.578125 C 82.449219 130.578125 81.675781 130.867188 81.019531 131.433594 C 80.367188 132.007812 80.042969 133.085938 80.042969 134.683594 L 80.042969 141.476562 L 77.9375 141.476562 "/>
<path fill-rule="nonzero" fill="rgb(13.729858%, 12.159729%, 12.548828%)" fill-opacity="1" d="M 95.890625 139.589844 L 96.191406 141.453125 C 95.601562 141.578125 95.070312 141.640625 94.601562 141.640625 C 93.832031 141.640625 93.242188 141.523438 92.816406 141.277344 C 92.398438 141.039062 92.101562 140.71875 91.929688 140.320312 C 91.757812 139.929688 91.667969 139.097656 91.667969 137.835938 L 91.667969 130.675781 L 90.121094 130.675781 L 90.121094 129.035156 L 91.667969 129.035156 L 91.667969 125.949219 L 93.769531 124.6875 L 93.769531 129.035156 L 95.890625 129.035156 L 95.890625 130.675781 L 93.769531 130.675781 L 93.769531 137.949219 C 93.769531 138.554688 93.804688 138.9375 93.878906 139.109375 C 93.953125 139.28125 94.074219 139.417969 94.242188 139.523438 C 94.410156 139.621094 94.648438 139.675781 94.960938 139.675781 C 95.195312 139.675781 95.503906 139.644531 95.890625 139.589844 "/>
<path fill-rule="nonzero" fill="rgb(13.729858%, 12.159729%, 12.548828%)" fill-opacity="1" d="M 106.46875 137.46875 L 108.648438 137.738281 C 108.304688 139.015625 107.667969 140.003906 106.742188 140.707031 C 105.808594 141.40625 104.621094 141.757812 103.175781 141.757812 C 101.355469 141.757812 99.914062 141.199219 98.847656 140.078125 C 97.78125 138.957031 97.25 137.386719 97.25 135.363281 C 97.25 133.265625 97.789062 131.640625 98.863281 130.484375 C 99.945312 129.328125 101.339844 128.75 103.0625 128.75 C 104.726562 128.75 106.085938 129.316406 107.136719 130.449219 C 108.191406 131.582031 108.722656 133.179688 108.722656 135.230469 C 108.722656 135.359375 108.71875 135.546875 108.710938 135.792969 L 99.429688 135.792969 C 99.503906 137.160156 99.894531 138.210938 100.589844 138.933594 C 101.285156 139.660156 102.148438 140.027344 103.1875 140.027344 C 103.960938 140.027344 104.621094 139.820312 105.167969 139.414062 C 105.71875 139.011719 106.148438 138.363281 106.46875 137.46875 Z M 99.542969 134.058594 L 106.492188 134.058594 C 106.402344 133.015625 106.132812 132.226562 105.695312 131.707031 C 105.023438 130.894531 104.152344 130.484375 103.085938 130.484375 C 102.117188 130.484375 101.300781 130.808594 100.640625 131.457031 C 99.980469 132.105469 99.617188 132.972656 99.542969 134.058594 "/>
<path fill-rule="nonzero" fill="rgb(13.729858%, 12.159729%, 12.548828%)" fill-opacity="1" d="M 110.914062 142.511719 L 112.964844 142.8125 C 113.050781 143.445312 113.289062 143.90625 113.675781 144.199219 C 114.199219 144.585938 114.917969 144.78125 115.820312 144.78125 C 116.800781 144.78125 117.554688 144.585938 118.085938 144.199219 C 118.617188 143.804688 118.972656 143.257812 119.160156 142.558594 C 119.273438 142.125 119.320312 141.226562 119.3125 139.851562 C 118.394531 140.933594 117.246094 141.476562 115.867188 141.476562 C 114.15625 141.476562 112.832031 140.863281 111.898438 139.628906 C 110.960938 138.394531 110.488281 136.910156 110.488281 135.1875 C 110.488281 133.996094 110.703125 132.902344 111.132812 131.898438 C 111.566406 130.894531 112.1875 130.117188 113.003906 129.570312 C 113.820312 129.027344 114.78125 128.75 115.882812 128.75 C 117.347656 128.75 118.5625 129.347656 119.511719 130.535156 L 119.511719 129.035156 L 121.460938 129.035156 L 121.460938 139.789062 C 121.460938 141.726562 121.261719 143.101562 120.867188 143.910156 C 120.472656 144.71875 119.847656 145.359375 118.992188 145.824219 C 118.136719 146.292969 117.085938 146.53125 115.832031 146.53125 C 114.347656 146.53125 113.148438 146.195312 112.238281 145.527344 C 111.320312 144.859375 110.882812 143.855469 110.914062 142.511719 Z M 112.65625 135.035156 C 112.65625 136.664062 112.980469 137.859375 113.632812 138.605469 C 114.28125 139.359375 115.09375 139.730469 116.070312 139.730469 C 117.035156 139.730469 117.847656 139.359375 118.503906 138.613281 C 119.160156 137.867188 119.488281 136.699219 119.488281 135.101562 C 119.488281 133.578125 119.152344 132.429688 118.476562 131.65625 C 117.800781 130.886719 116.984375 130.496094 116.03125 130.496094 C 115.097656 130.496094 114.300781 130.878906 113.640625 131.640625 C 112.984375 132.402344 112.65625 133.535156 112.65625 135.035156 "/>
<path fill-rule="nonzero" fill="rgb(13.729858%, 12.159729%, 12.548828%)" fill-opacity="1" d="M 124.625 141.476562 L 124.625 129.035156 L 126.519531 129.035156 L 126.519531 130.917969 C 127.003906 130.039062 127.453125 129.453125 127.863281 129.175781 C 128.273438 128.894531 128.726562 128.75 129.21875 128.75 C 129.929688 128.75 130.648438 128.976562 131.386719 129.429688 L 130.65625 131.390625 C 130.144531 131.082031 129.628906 130.929688 129.113281 130.929688 C 128.648438 130.929688 128.238281 131.070312 127.867188 131.347656 C 127.5 131.625 127.242188 132.011719 127.085938 132.503906 C 126.847656 133.25 126.734375 134.070312 126.734375 134.960938 L 126.734375 141.476562 L 124.625 141.476562 "/>
<path fill-rule="nonzero" fill="rgb(13.729858%, 12.159729%, 12.548828%)" fill-opacity="1" d="M 140.761719 139.941406 C 139.976562 140.605469 139.226562 141.074219 138.503906 141.351562 C 137.78125 141.621094 137.003906 141.757812 136.175781 141.757812 C 134.808594 141.757812 133.761719 141.425781 133.023438 140.757812 C 132.292969 140.089844 131.925781 139.234375 131.925781 138.199219 C 131.925781 137.585938 132.0625 137.03125 132.339844 136.527344 C 132.617188 136.023438 132.980469 135.617188 133.429688 135.3125 C 133.882812 135.011719 134.386719 134.777344 134.949219 134.621094 C 135.359375 134.515625 135.984375 134.40625 136.820312 134.304688 C 138.523438 134.101562 139.78125 133.863281 140.585938 133.578125 C 140.59375 133.289062 140.597656 133.105469 140.597656 133.03125 C 140.597656 132.171875 140.398438 131.5625 139.996094 131.214844 C 139.460938 130.734375 138.65625 130.496094 137.597656 130.496094 C 136.605469 130.496094 135.871094 130.671875 135.398438 131.019531 C 134.925781 131.367188 134.578125 131.980469 134.347656 132.867188 L 132.289062 132.582031 C 132.476562 131.703125 132.785156 130.984375 133.214844 130.445312 C 133.640625 129.902344 134.265625 129.480469 135.078125 129.191406 C 135.890625 128.898438 136.828125 128.75 137.902344 128.75 C 138.964844 128.75 139.824219 128.878906 140.488281 129.125 C 141.152344 129.378906 141.640625 129.691406 141.957031 130.070312 C 142.269531 130.449219 142.484375 130.925781 142.613281 131.507812 C 142.679688 131.867188 142.71875 132.515625 142.71875 133.449219 L 142.71875 136.261719 C 142.71875 138.226562 142.761719 139.464844 142.851562 139.980469 C 142.941406 140.503906 143.121094 141.003906 143.386719 141.476562 L 141.179688 141.476562 C 140.964844 141.042969 140.820312 140.53125 140.761719 139.941406 Z M 140.585938 135.230469 C 139.816406 135.546875 138.667969 135.808594 137.140625 136.03125 C 136.273438 136.152344 135.65625 136.292969 135.300781 136.449219 C 134.941406 136.605469 134.660156 136.835938 134.46875 137.136719 C 134.273438 137.4375 134.171875 137.769531 134.171875 138.136719 C 134.171875 138.703125 134.390625 139.171875 134.8125 139.546875 C 135.238281 139.917969 135.859375 140.105469 136.679688 140.105469 C 137.492188 140.105469 138.21875 139.929688 138.847656 139.574219 C 139.480469 139.21875 139.949219 138.730469 140.246094 138.113281 C 140.472656 137.636719 140.585938 136.933594 140.585938 136.007812 L 140.585938 135.230469 "/>
<path fill-rule="nonzero" fill="rgb(13.729858%, 12.159729%, 12.548828%)" fill-opacity="1" d="M 150.59375 139.589844 L 150.898438 141.453125 C 150.304688 141.578125 149.773438 141.640625 149.304688 141.640625 C 148.535156 141.640625 147.945312 141.523438 147.519531 141.277344 C 147.101562 141.039062 146.804688 140.71875 146.632812 140.320312 C 146.460938 139.929688 146.371094 139.097656 146.371094 137.835938 L 146.371094 130.675781 L 144.824219 130.675781 L 144.824219 129.035156 L 146.371094 129.035156 L 146.371094 125.949219 L 148.472656 124.6875 L 148.472656 129.035156 L 150.59375 129.035156 L 150.59375 130.675781 L 148.472656 130.675781 L 148.472656 137.949219 C 148.472656 138.554688 148.507812 138.9375 148.582031 139.109375 C 148.65625 139.28125 148.777344 139.417969 148.945312 139.523438 C 149.113281 139.621094 149.351562 139.675781 149.664062 139.675781 C 149.902344 139.675781 150.210938 139.644531 150.59375 139.589844 "/>
<path fill-rule="nonzero" fill="rgb(13.729858%, 12.159729%, 12.548828%)" fill-opacity="1" d="M 152.664062 126.726562 L 152.664062 124.296875 L 154.777344 124.296875 L 154.777344 126.726562 Z M 152.664062 141.476562 L 152.664062 129.035156 L 154.777344 129.035156 L 154.777344 141.476562 L 152.664062 141.476562 "/>
<path fill-rule="nonzero" fill="rgb(13.729858%, 12.159729%, 12.548828%)" fill-opacity="1" d="M 157.199219 135.253906 C 157.199219 132.949219 157.839844 131.242188 159.125 130.132812 C 160.191406 129.214844 161.496094 128.75 163.035156 128.75 C 164.75 128.75 166.148438 129.308594 167.234375 130.433594 C 168.320312 131.554688 168.859375 133.101562 168.859375 135.078125 C 168.859375 136.683594 168.621094 137.941406 168.140625 138.859375 C 167.660156 139.777344 166.960938 140.488281 166.046875 140.996094 C 165.125 141.507812 164.125 141.757812 163.035156 141.757812 C 161.296875 141.757812 159.890625 141.203125 158.8125 140.082031 C 157.738281 138.964844 157.199219 137.359375 157.199219 135.253906 Z M 159.367188 135.253906 C 159.367188 136.851562 159.71875 138.042969 160.414062 138.835938 C 161.109375 139.628906 161.984375 140.027344 163.035156 140.027344 C 164.085938 140.027344 164.957031 139.628906 165.652344 138.828125 C 166.34375 138.035156 166.691406 136.816406 166.691406 135.1875 C 166.691406 133.644531 166.34375 132.476562 165.644531 131.6875 C 164.945312 130.894531 164.078125 130.496094 163.035156 130.496094 C 161.984375 130.496094 161.109375 130.894531 160.414062 131.683594 C 159.71875 132.46875 159.367188 133.660156 159.367188 135.253906 "/>
<path fill-rule="nonzero" fill="rgb(13.729858%, 12.159729%, 12.548828%)" fill-opacity="1" d="M 171.335938 141.476562 L 171.335938 129.035156 L 173.234375 129.035156 L 173.234375 130.800781 C 174.148438 129.433594 175.46875 128.75 177.191406 128.75 C 177.945312 128.75 178.632812 128.886719 179.261719 129.152344 C 179.894531 129.425781 180.359375 129.777344 180.671875 130.21875 C 180.988281 130.652344 181.203125 131.175781 181.332031 131.773438 C 181.410156 132.164062 181.449219 132.851562 181.449219 133.824219 L 181.449219 141.476562 L 179.335938 141.476562 L 179.335938 133.90625 C 179.335938 133.050781 179.257812 132.40625 179.09375 131.976562 C 178.929688 131.554688 178.636719 131.214844 178.222656 130.960938 C 177.800781 130.707031 177.3125 130.578125 176.75 130.578125 C 175.847656 130.578125 175.078125 130.867188 174.421875 131.433594 C 173.769531 132.007812 173.445312 133.085938 173.445312 134.683594 L 173.445312 141.476562 L 171.335938 141.476562 "/>
<path fill-rule="nonzero" fill="rgb(13.729858%, 12.159729%, 12.548828%)" fill-opacity="1" d="M 328.359375 375.492188 L 328.359375 373.921875 C 327.570312 375.15625 326.410156 375.773438 324.878906 375.773438 C 323.886719 375.773438 322.976562 375.5 322.144531 374.953125 C 321.3125 374.40625 320.667969 373.644531 320.207031 372.660156 C 319.75 371.679688 319.523438 370.554688 319.523438 369.28125 C 319.523438 368.039062 319.730469 366.910156 320.144531 365.898438 C 320.558594 364.886719 321.179688 364.113281 322.007812 363.574219 C 322.835938 363.035156 323.761719 362.765625 324.785156 362.765625 C 325.535156 362.765625 326.203125 362.925781 326.789062 363.238281 C 327.375 363.554688 327.851562 363.96875 328.21875 364.476562 L 328.21875 358.3125 L 330.316406 358.3125 L 330.316406 375.492188 Z M 321.691406 369.28125 C 321.691406 370.875 322.027344 372.066406 322.699219 372.855469 C 323.371094 373.644531 324.164062 374.039062 325.078125 374.039062 C 326 374.039062 326.78125 373.660156 327.425781 372.90625 C 328.070312 372.15625 328.394531 371.003906 328.394531 369.457031 C 328.394531 367.753906 328.066406 366.503906 327.410156 365.707031 C 326.753906 364.90625 325.945312 364.511719 324.984375 364.511719 C 324.046875 364.511719 323.261719 364.894531 322.636719 365.660156 C 322.007812 366.425781 321.691406 367.632812 321.691406 369.28125 "/>
<path fill-rule="nonzero" fill="rgb(13.729858%, 12.159729%, 12.548828%)" fill-opacity="1" d="M 333.644531 360.738281 L 333.644531 358.3125 L 335.753906 358.3125 L 335.753906 360.738281 Z M 333.644531 375.492188 L 333.644531 363.046875 L 335.753906 363.046875 L 335.753906 375.492188 L 333.644531 375.492188 "/>
<path fill-rule="nonzero" fill="rgb(13.729858%, 12.159729%, 12.548828%)" fill-opacity="1" d="M 338.941406 375.492188 L 338.941406 363.046875 L 340.839844 363.046875 L 340.839844 364.933594 C 341.324219 364.050781 341.769531 363.46875 342.183594 363.1875 C 342.589844 362.90625 343.042969 362.765625 343.535156 362.765625 C 344.246094 362.765625 344.96875 362.992188 345.703125 363.445312 L 344.976562 365.402344 C 344.464844 365.097656 343.945312 364.945312 343.429688 364.945312 C 342.96875 364.945312 342.554688 365.085938 342.1875 365.359375 C 341.820312 365.640625 341.558594 366.023438 341.402344 366.515625 C 341.167969 367.265625 341.050781 368.085938 341.050781 368.976562 L 341.050781 375.492188 L 338.941406 375.492188 "/>
<path fill-rule="nonzero" fill="rgb(13.729858%, 12.159729%, 12.548828%)" fill-opacity="1" d="M 355.476562 371.484375 L 357.65625 371.753906 C 357.3125 373.027344 356.675781 374.015625 355.746094 374.71875 C 354.816406 375.421875 353.628906 375.773438 352.183594 375.773438 C 350.363281 375.773438 348.917969 375.210938 347.855469 374.09375 C 346.785156 372.972656 346.253906 371.398438 346.253906 369.375 C 346.253906 367.28125 346.796875 365.65625 347.871094 364.5 C 348.949219 363.34375 350.347656 362.765625 352.066406 362.765625 C 353.730469 362.765625 355.089844 363.332031 356.144531 364.464844 C 357.199219 365.597656 357.726562 367.191406 357.726562 369.242188 C 357.726562 369.371094 357.722656 369.558594 357.714844 369.808594 L 348.433594 369.808594 C 348.511719 371.175781 348.898438 372.222656 349.59375 372.949219 C 350.289062 373.675781 351.15625 374.039062 352.195312 374.039062 C 352.96875 374.039062 353.628906 373.835938 354.175781 373.429688 C 354.722656 373.023438 355.15625 372.375 355.476562 371.484375 Z M 348.550781 368.070312 L 355.5 368.070312 C 355.40625 367.027344 355.140625 366.238281 354.703125 365.71875 C 354.03125 364.90625 353.160156 364.5 352.089844 364.5 C 351.121094 364.5 350.308594 364.824219 349.648438 365.472656 C 348.988281 366.121094 348.621094 366.988281 348.550781 368.070312 "/>
<path fill-rule="nonzero" fill="rgb(13.729858%, 12.159729%, 12.548828%)" fill-opacity="1" d="M 368.425781 370.933594 L 370.5 371.203125 C 370.273438 372.632812 369.695312 373.753906 368.757812 374.558594 C 367.828125 375.367188 366.679688 375.773438 365.320312 375.773438 C 363.617188 375.773438 362.246094 375.214844 361.214844 374.105469 C 360.179688 372.992188 359.660156 371.394531 359.660156 369.316406 C 359.660156 367.972656 359.882812 366.796875 360.328125 365.789062 C 360.773438 364.78125 361.449219 364.023438 362.363281 363.519531 C 363.269531 363.015625 364.261719 362.765625 365.332031 362.765625 C 366.683594 362.765625 367.789062 363.109375 368.648438 363.792969 C 369.507812 364.476562 370.058594 365.445312 370.304688 366.703125 L 368.253906 367.019531 C 368.054688 366.183594 367.710938 365.554688 367.214844 365.132812 C 366.71875 364.710938 366.121094 364.5 365.414062 364.5 C 364.351562 364.5 363.488281 364.878906 362.824219 365.644531 C 362.160156 366.402344 361.828125 367.609375 361.828125 369.257812 C 361.828125 370.929688 362.148438 372.144531 362.789062 372.902344 C 363.429688 373.660156 364.265625 374.039062 365.300781 374.039062 C 366.128906 374.039062 366.816406 373.785156 367.371094 373.277344 C 367.925781 372.769531 368.277344 371.988281 368.425781 370.933594 "/>
<path fill-rule="nonzero" fill="rgb(13.729858%, 12.159729%, 12.548828%)" fill-opacity="1" d="M 376.910156 373.605469 L 377.214844 375.46875 C 376.621094 375.59375 376.089844 375.65625 375.621094 375.65625 C 374.855469 375.65625 374.261719 375.535156 373.839844 375.292969 C 373.421875 375.050781 373.121094 374.730469 372.953125 374.335938 C 372.777344 373.945312 372.691406 373.113281 372.691406 371.847656 L 372.691406 364.6875 L 371.144531 364.6875 L 371.144531 363.046875 L 372.691406 363.046875 L 372.691406 359.964844 L 374.789062 358.699219 L 374.789062 363.046875 L 376.910156 363.046875 L 376.910156 364.6875 L 374.789062 364.6875 L 374.789062 371.964844 C 374.789062 372.566406 374.828125 372.953125 374.898438 373.125 C 374.976562 373.296875 375.097656 373.433594 375.261719 373.535156 C 375.433594 373.636719 375.671875 373.6875 375.984375 373.6875 C 376.21875 373.6875 376.527344 373.660156 376.910156 373.605469 "/>
<path fill-rule="nonzero" fill="rgb(13.729858%, 12.159729%, 12.548828%)" fill-opacity="1" d="M 378.984375 360.738281 L 378.984375 358.3125 L 381.09375 358.3125 L 381.09375 360.738281 Z M 378.984375 375.492188 L 378.984375 363.046875 L 381.09375 363.046875 L 381.09375 375.492188 L 378.984375 375.492188 "/>
<path fill-rule="nonzero" fill="rgb(13.729858%, 12.159729%, 12.548828%)" fill-opacity="1" d="M 383.519531 369.269531 C 383.519531 366.964844 384.160156 365.257812 385.441406 364.148438 C 386.511719 363.226562 387.816406 362.765625 389.355469 362.765625 C 391.066406 362.765625 392.46875 363.324219 393.550781 364.449219 C 394.640625 365.566406 395.179688 367.117188 395.179688 369.09375 C 395.179688 370.695312 394.9375 371.957031 394.460938 372.871094 C 393.980469 373.792969 393.277344 374.503906 392.363281 375.011719 C 391.441406 375.519531 390.441406 375.773438 389.355469 375.773438 C 387.613281 375.773438 386.207031 375.214844 385.132812 374.097656 C 384.054688 372.980469 383.519531 371.371094 383.519531 369.269531 Z M 385.6875 369.269531 C 385.6875 370.863281 386.035156 372.054688 386.730469 372.847656 C 387.425781 373.644531 388.304688 374.039062 389.355469 374.039062 C 390.402344 374.039062 391.273438 373.640625 391.972656 372.84375 C 392.664062 372.046875 393.011719 370.832031 393.011719 369.199219 C 393.011719 367.660156 392.664062 366.492188 391.964844 365.699219 C 391.261719 364.90625 390.394531 364.511719 389.355469 364.511719 C 388.304688 364.511719 387.425781 364.90625 386.730469 365.695312 C 386.035156 366.484375 385.6875 367.675781 385.6875 369.269531 "/>
<path fill-rule="nonzero" fill="rgb(13.729858%, 12.159729%, 12.548828%)" fill-opacity="1" d="M 397.65625 375.492188 L 397.65625 363.046875 L 399.550781 363.046875 L 399.550781 364.816406 C 400.46875 363.449219 401.789062 362.765625 403.511719 362.765625 C 404.265625 362.765625 404.953125 362.898438 405.578125 363.167969 C 406.210938 363.441406 406.679688 363.792969 406.992188 364.230469 C 407.308594 364.667969 407.523438 365.1875 407.652344 365.789062 C 407.726562 366.179688 407.769531 366.863281 407.769531 367.839844 L 407.769531 375.492188 L 405.65625 375.492188 L 405.65625 367.921875 C 405.65625 367.0625 405.574219 366.421875 405.410156 365.992188 C 405.246094 365.566406 404.953125 365.226562 404.539062 364.976562 C 404.121094 364.71875 403.632812 364.59375 403.066406 364.59375 C 402.167969 364.59375 401.394531 364.878906 400.738281 365.449219 C 400.089844 366.019531 399.765625 367.101562 399.765625 368.695312 L 399.765625 375.492188 L 397.65625 375.492188 "/>
<path fill-rule="nonzero" fill="rgb(13.729858%, 12.159729%, 12.548828%)" fill-opacity="1" d="M 319.5 396.078125 C 319.5 393.777344 320.140625 392.066406 321.421875 390.960938 C 322.492188 390.039062 323.796875 389.574219 325.335938 389.574219 C 327.046875 389.574219 328.445312 390.136719 329.53125 391.261719 C 330.617188 392.378906 331.160156 393.929688 331.160156 395.902344 C 331.160156 397.507812 330.921875 398.769531 330.4375 399.683594 C 329.960938 400.605469 329.257812 401.316406 328.34375 401.824219 C 327.421875 402.332031 326.421875 402.585938 325.335938 402.585938 C 323.59375 402.585938 322.1875 402.027344 321.109375 400.90625 C 320.035156 399.792969 319.5 398.183594 319.5 396.078125 Z M 321.667969 396.078125 C 321.667969 397.675781 322.015625 398.867188 322.710938 399.660156 C 323.40625 400.457031 324.28125 400.851562 325.335938 400.851562 C 326.382812 400.851562 327.253906 400.453125 327.949219 399.65625 C 328.644531 398.859375 328.992188 397.644531 328.992188 396.011719 C 328.992188 394.472656 328.644531 393.304688 327.941406 392.511719 C 327.242188 391.71875 326.375 391.324219 325.335938 391.324219 C 324.28125 391.324219 323.40625 391.71875 322.710938 392.507812 C 322.015625 393.296875 321.667969 394.488281 321.667969 396.078125 "/>
<path fill-rule="nonzero" fill="rgb(13.729858%, 12.159729%, 12.548828%)" fill-opacity="1" d="M 334.136719 402.304688 L 334.136719 391.5 L 332.273438 391.5 L 332.273438 389.859375 L 334.136719 389.859375 L 334.136719 388.535156 C 334.136719 387.699219 334.210938 387.074219 334.359375 386.671875 C 334.5625 386.125 334.921875 385.679688 335.429688 385.339844 C 335.941406 385 336.660156 384.832031 337.582031 384.832031 C 338.175781 384.832031 338.832031 384.898438 339.550781 385.042969 L 339.234375 386.882812 C 338.800781 386.804688 338.382812 386.765625 337.992188 386.765625 C 337.351562 386.765625 336.898438 386.898438 336.636719 387.175781 C 336.367188 387.449219 336.234375 387.960938 336.234375 388.710938 L 336.234375 389.859375 L 338.660156 389.859375 L 338.660156 391.5 L 336.234375 391.5 L 336.234375 402.304688 L 334.136719 402.304688 "/>
<path fill-rule="nonzero" fill="rgb(13.729858%, 12.159729%, 12.548828%)" fill-opacity="1" d="M 346.980469 387.550781 L 346.980469 385.125 L 349.089844 385.125 L 349.089844 387.550781 Z M 346.980469 402.304688 L 346.980469 389.859375 L 349.089844 389.859375 L 349.089844 402.304688 L 346.980469 402.304688 "/>
<path fill-rule="nonzero" fill="rgb(13.729858%, 12.159729%, 12.548828%)" fill-opacity="1" d="M 352.304688 402.304688 L 352.304688 389.859375 L 354.199219 389.859375 L 354.199219 391.628906 C 355.113281 390.261719 356.433594 389.574219 358.160156 389.574219 C 358.910156 389.574219 359.597656 389.710938 360.226562 389.980469 C 360.859375 390.253906 361.328125 390.605469 361.640625 391.042969 C 361.953125 391.480469 362.171875 392 362.300781 392.601562 C 362.375 392.992188 362.414062 393.675781 362.414062 394.652344 L 362.414062 402.304688 L 360.304688 402.304688 L 360.304688 394.730469 C 360.304688 393.875 360.222656 393.230469 360.058594 392.804688 C 359.894531 392.378906 359.601562 392.039062 359.1875 391.789062 C 358.765625 391.53125 358.277344 391.402344 357.714844 391.402344 C 356.816406 391.402344 356.042969 391.691406 355.386719 392.261719 C 354.734375 392.832031 354.410156 393.910156 354.410156 395.507812 L 354.410156 402.304688 L 352.304688 402.304688 "/>
<path fill-rule="nonzero" fill="rgb(13.729858%, 12.159729%, 12.548828%)" fill-opacity="1" d="M 370.253906 400.414062 L 370.558594 402.28125 C 369.96875 402.402344 369.433594 402.46875 368.96875 402.46875 C 368.199219 402.46875 367.605469 402.347656 367.183594 402.105469 C 366.761719 401.863281 366.46875 401.542969 366.296875 401.148438 C 366.121094 400.757812 366.035156 399.925781 366.035156 398.660156 L 366.035156 391.5 L 364.488281 391.5 L 364.488281 389.859375 L 366.035156 389.859375 L 366.035156 386.777344 L 368.136719 385.511719 L 368.136719 389.859375 L 370.253906 389.859375 L 370.253906 391.5 L 368.136719 391.5 L 368.136719 398.777344 C 368.136719 399.378906 368.171875 399.765625 368.242188 399.9375 C 368.320312 400.109375 368.4375 400.242188 368.605469 400.347656 C 368.773438 400.449219 369.015625 400.5 369.328125 400.5 C 369.5625 400.5 369.871094 400.472656 370.253906 400.414062 "/>
<path fill-rule="nonzero" fill="rgb(13.729858%, 12.159729%, 12.548828%)" fill-opacity="1" d="M 380.835938 398.296875 L 383.015625 398.5625 C 382.671875 399.839844 382.035156 400.828125 381.105469 401.53125 C 380.175781 402.230469 378.988281 402.585938 377.542969 402.585938 C 375.722656 402.585938 374.277344 402.023438 373.214844 400.902344 C 372.148438 399.785156 371.613281 398.210938 371.613281 396.1875 C 371.613281 394.09375 372.15625 392.46875 373.230469 391.3125 C 374.3125 390.15625 375.707031 389.574219 377.425781 389.574219 C 379.089844 389.574219 380.449219 390.144531 381.503906 391.277344 C 382.558594 392.40625 383.085938 394.003906 383.085938 396.054688 C 383.085938 396.183594 383.082031 396.371094 383.074219 396.621094 L 373.796875 396.621094 C 373.871094 397.988281 374.257812 399.035156 374.953125 399.761719 C 375.652344 400.488281 376.515625 400.851562 377.554688 400.851562 C 378.328125 400.851562 378.988281 400.648438 379.535156 400.238281 C 380.082031 399.835938 380.515625 399.1875 380.835938 398.296875 Z M 373.910156 394.882812 L 380.859375 394.882812 C 380.765625 393.839844 380.5 393.050781 380.0625 392.53125 C 379.390625 391.71875 378.519531 391.3125 377.449219 391.3125 C 376.484375 391.3125 375.667969 391.636719 375.007812 392.285156 C 374.347656 392.933594 373.984375 393.800781 373.910156 394.882812 "/>
<path fill-rule="nonzero" fill="rgb(13.729858%, 12.159729%, 12.548828%)" fill-opacity="1" d="M 385.277344 403.335938 L 387.332031 403.640625 C 387.414062 404.273438 387.65625 404.730469 388.042969 405.023438 C 388.566406 405.410156 389.28125 405.609375 390.1875 405.609375 C 391.167969 405.609375 391.917969 405.410156 392.449219 405.023438 C 392.984375 404.632812 393.339844 404.085938 393.527344 403.382812 C 393.640625 402.953125 393.6875 402.050781 393.679688 400.675781 C 392.757812 401.761719 391.609375 402.304688 390.234375 402.304688 C 388.523438 402.304688 387.199219 401.6875 386.261719 400.453125 C 385.328125 399.21875 384.855469 397.734375 384.855469 396.011719 C 384.855469 394.824219 385.070312 393.726562 385.5 392.722656 C 385.929688 391.71875 386.554688 390.945312 387.371094 390.394531 C 388.1875 389.851562 389.148438 389.574219 390.246094 389.574219 C 391.714844 389.574219 392.925781 390.171875 393.878906 391.359375 L 393.878906 389.859375 L 395.828125 389.859375 L 395.828125 400.617188 C 395.828125 402.550781 395.628906 403.929688 395.234375 404.734375 C 394.839844 405.542969 394.214844 406.183594 393.359375 406.652344 C 392.503906 407.121094 391.449219 407.355469 390.199219 407.355469 C 388.714844 407.355469 387.515625 407.019531 386.601562 406.351562 C 385.6875 405.683594 385.246094 404.679688 385.277344 403.335938 Z M 387.023438 395.859375 C 387.023438 397.492188 387.347656 398.683594 388 399.433594 C 388.648438 400.183594 389.460938 400.554688 390.433594 400.554688 C 391.402344 400.554688 392.214844 400.183594 392.871094 399.441406 C 393.527344 398.691406 393.855469 397.523438 393.855469 395.929688 C 393.855469 394.402344 393.519531 393.257812 392.84375 392.484375 C 392.167969 391.710938 391.351562 391.324219 390.398438 391.324219 C 389.464844 391.324219 388.667969 391.703125 388.007812 392.46875 C 387.351562 393.226562 387.023438 394.359375 387.023438 395.859375 "/>
<path fill-rule="nonzero" fill="rgb(13.729858%, 12.159729%, 12.548828%)" fill-opacity="1" d="M 398.992188 402.304688 L 398.992188 389.859375 L 400.886719 389.859375 L 400.886719 391.742188 C 401.371094 390.863281 401.820312 390.28125 402.230469 390 C 402.640625 389.71875 403.089844 389.574219 403.582031 389.574219 C 404.296875 389.574219 405.015625 389.804688 405.75 390.257812 L 405.023438 392.214844 C 404.511719 391.90625 403.996094 391.757812 403.480469 391.757812 C 403.015625 391.757812 402.601562 391.894531 402.234375 392.171875 C 401.867188 392.453125 401.605469 392.835938 401.449219 393.328125 C 401.214844 394.074219 401.097656 394.894531 401.097656 395.789062 L 401.097656 402.304688 L 398.992188 402.304688 "/>
<path fill-rule="nonzero" fill="rgb(13.729858%, 12.159729%, 12.548828%)" fill-opacity="1" d="M 415.128906 400.769531 C 414.34375 401.433594 413.589844 401.898438 412.871094 402.175781 C 412.148438 402.449219 411.371094 402.585938 410.542969 402.585938 C 409.175781 402.585938 408.128906 402.253906 407.390625 401.585938 C 406.660156 400.914062 406.289062 400.058594 406.289062 399.023438 C 406.289062 398.410156 406.425781 397.855469 406.707031 397.351562 C 406.984375 396.847656 407.347656 396.445312 407.796875 396.140625 C 408.246094 395.835938 408.75 395.605469 409.316406 395.449219 C 409.726562 395.339844 410.351562 395.230469 411.1875 395.132812 C 412.890625 394.929688 414.148438 394.6875 414.949219 394.402344 C 414.960938 394.117188 414.964844 393.933594 414.964844 393.855469 C 414.964844 392.996094 414.761719 392.386719 414.363281 392.039062 C 413.828125 391.558594 413.023438 391.324219 411.964844 391.324219 C 410.972656 391.324219 410.238281 391.496094 409.761719 391.84375 C 409.289062 392.191406 408.941406 392.808594 408.714844 393.691406 L 406.65625 393.40625 C 406.84375 392.527344 407.152344 391.8125 407.578125 391.273438 C 408.007812 390.726562 408.632812 390.308594 409.441406 390.015625 C 410.253906 389.722656 411.195312 389.574219 412.265625 389.574219 C 413.332031 389.574219 414.191406 389.703125 414.855469 389.953125 C 415.519531 390.203125 416.007812 390.515625 416.324219 390.894531 C 416.636719 391.277344 416.851562 391.753906 416.980469 392.332031 C 417.046875 392.691406 417.082031 393.339844 417.082031 394.277344 L 417.082031 397.089844 C 417.082031 399.050781 417.128906 400.292969 417.21875 400.808594 C 417.308594 401.328125 417.488281 401.828125 417.753906 402.304688 L 415.546875 402.304688 C 415.332031 401.867188 415.1875 401.355469 415.128906 400.769531 Z M 414.949219 396.054688 C 414.183594 396.371094 413.035156 396.636719 411.507812 396.855469 C 410.640625 396.980469 410.023438 397.121094 409.667969 397.277344 C 409.308594 397.433594 409.027344 397.660156 408.835938 397.964844 C 408.640625 398.265625 408.539062 398.597656 408.539062 398.964844 C 408.539062 399.527344 408.753906 399.996094 409.179688 400.371094 C 409.601562 400.742188 410.226562 400.933594 411.046875 400.933594 C 411.859375 400.933594 412.582031 400.757812 413.214844 400.398438 C 413.847656 400.042969 414.316406 399.554688 414.609375 398.941406 C 414.839844 398.464844 414.949219 397.761719 414.949219 396.832031 L 414.949219 396.054688 "/>
<path fill-rule="nonzero" fill="rgb(13.729858%, 12.159729%, 12.548828%)" fill-opacity="1" d="M 424.960938 400.414062 L 425.261719 402.28125 C 424.671875 402.402344 424.140625 402.46875 423.671875 402.46875 C 422.902344 402.46875 422.3125 402.347656 421.886719 402.105469 C 421.46875 401.863281 421.171875 401.542969 421 401.148438 C 420.828125 400.757812 420.738281 399.925781 420.738281 398.660156 L 420.738281 391.5 L 419.191406 391.5 L 419.191406 389.859375 L 420.738281 389.859375 L 420.738281 386.777344 L 422.839844 385.511719 L 422.839844 389.859375 L 424.960938 389.859375 L 424.960938 391.5 L 422.839844 391.5 L 422.839844 398.777344 C 422.839844 399.378906 422.875 399.765625 422.945312 399.9375 C 423.023438 400.109375 423.144531 400.242188 423.3125 400.347656 C 423.480469 400.449219 423.71875 400.5 424.03125 400.5 C 424.265625 400.5 424.574219 400.472656 424.960938 400.414062 "/>
<path fill-rule="nonzero" fill="rgb(13.729858%, 12.159729%, 12.548828%)" fill-opacity="1" d="M 427.03125 387.550781 L 427.03125 385.125 L 429.144531 385.125 L 429.144531 387.550781 Z M 427.03125 402.304688 L 427.03125 389.859375 L 429.144531 389.859375 L 429.144531 402.304688 L 427.03125 402.304688 "/>
<path fill-rule="nonzero" fill="rgb(13.729858%, 12.159729%, 12.548828%)" fill-opacity="1" d="M 431.566406 396.078125 C 431.566406 393.777344 432.207031 392.066406 433.492188 390.960938 C 434.558594 390.039062 435.863281 389.574219 437.402344 389.574219 C 439.113281 389.574219 440.515625 390.136719 441.597656 391.261719 C 442.6875 392.378906 443.226562 393.929688 443.226562 395.902344 C 443.226562 397.507812 442.988281 398.769531 442.507812 399.683594 C 442.027344 400.605469 441.328125 401.316406 440.410156 401.824219 C 439.492188 402.332031 438.492188 402.585938 437.402344 402.585938 C 435.664062 402.585938 434.253906 402.027344 433.179688 400.90625 C 432.101562 399.792969 431.566406 398.183594 431.566406 396.078125 Z M 433.734375 396.078125 C 433.734375 397.675781 434.082031 398.867188 434.777344 399.660156 C 435.476562 400.457031 436.351562 400.851562 437.402344 400.851562 C 438.449219 400.851562 439.324219 400.453125 440.019531 399.65625 C 440.710938 398.859375 441.058594 397.644531 441.058594 396.011719 C 441.058594 394.472656 440.710938 393.304688 440.011719 392.511719 C 439.3125 391.71875 438.441406 391.324219 437.402344 391.324219 C 436.351562 391.324219 435.476562 391.71875 434.777344 392.507812 C 434.082031 393.296875 433.734375 394.488281 433.734375 396.078125 "/>
<path fill-rule="nonzero" fill="rgb(13.729858%, 12.159729%, 12.548828%)" fill-opacity="1" d="M 445.703125 402.304688 L 445.703125 389.859375 L 447.597656 389.859375 L 447.597656 391.628906 C 448.515625 390.261719 449.835938 389.574219 451.558594 389.574219 C 452.3125 389.574219 453 389.710938 453.628906 389.980469 C 454.257812 390.253906 454.726562 390.605469 455.039062 391.042969 C 455.355469 391.480469 455.570312 392 455.699219 392.601562 C 455.773438 392.992188 455.816406 393.675781 455.816406 394.652344 L 455.816406 402.304688 L 453.703125 402.304688 L 453.703125 394.730469 C 453.703125 393.875 453.621094 393.230469 453.460938 392.804688 C 453.296875 392.378906 453.003906 392.039062 452.585938 391.789062 C 452.167969 391.53125 451.679688 391.402344 451.113281 391.402344 C 450.214844 391.402344 449.441406 391.691406 448.789062 392.261719 C 448.136719 392.832031 447.8125 393.910156 447.8125 395.507812 L 447.8125 402.304688 L 445.703125 402.304688 "/>
</svg>
