<?xml version="1.0" encoding="UTF-8"?>
<svg xmlns="http://www.w3.org/2000/svg" xmlns:xlink="http://www.w3.org/1999/xlink" width="638" height="247" viewBox="0 0 638 247">
<path fill="none" stroke-width="19.9984" stroke-linecap="butt" stroke-linejoin="miter" stroke="rgb(13.729858%, 12.159729%, 12.548828%)" stroke-opacity="1" stroke-miterlimit="22.9256" d="M 180.46875 1993.984375 L 180.46875 834.882812 L 6287.617188 834.882812 " transform="matrix(0.1, 0, 0, -0.1, 0, 247)"/>
<path fill-rule="evenodd" fill="rgb(13.729858%, 12.159729%, 12.548828%)" fill-opacity="1" d="M 23.273438 48.425781 L 18.046875 38.921875 L 12.816406 48.425781 Z M 23.273438 48.425781 "/>
<path fill-rule="evenodd" fill="rgb(13.729858%, 12.159729%, 12.548828%)" fill-opacity="1" d="M 627.9375 158.285156 L 637.441406 163.511719 L 627.9375 168.742188 Z M 627.9375 158.285156 "/>
<path fill-rule="nonzero" fill="rgb(13.729858%, 12.159729%, 12.548828%)" fill-opacity="1" d="M 0.730469 17.839844 L 5.28125 11.371094 L 1.070312 5.394531 L 3.707031 5.394531 L 5.621094 8.3125 C 5.976562 8.867188 6.269531 9.332031 6.484375 9.710938 C 6.828125 9.191406 7.144531 8.738281 7.4375 8.335938 L 9.53125 5.394531 L 12.050781 5.394531 L 7.75 11.257812 L 12.378906 17.839844 L 9.792969 17.839844 L 7.234375 13.972656 L 6.554688 12.929688 L 3.289062 17.839844 L 0.730469 17.839844 "/>
<path fill-rule="nonzero" fill="rgb(13.729858%, 12.159729%, 12.548828%)" fill-opacity="1" d="M 18.167969 22.894531 C 17.003906 21.425781 16.019531 19.703125 15.214844 17.738281 C 14.410156 15.765625 14.007812 13.730469 14.007812 11.617188 C 14.007812 9.757812 14.308594 7.976562 14.910156 6.273438 C 15.617188 4.296875 16.699219 2.328125 18.167969 0.367188 L 19.679688 0.367188 C 18.734375 1.992188 18.113281 3.152344 17.808594 3.847656 C 17.328125 4.925781 16.957031 6.050781 16.679688 7.226562 C 16.34375 8.683594 16.175781 10.152344 16.175781 11.628906 C 16.175781 15.390625 17.34375 19.140625 19.679688 22.894531 L 18.167969 22.894531 "/>
<path fill-rule="nonzero" fill="rgb(13.729858%, 12.159729%, 12.548828%)" fill-opacity="1" d="M 22.132812 17.839844 L 22.132812 5.394531 L 24.027344 5.394531 L 24.027344 7.164062 C 24.945312 5.796875 26.265625 5.113281 27.988281 5.113281 C 28.738281 5.113281 29.429688 5.246094 30.054688 5.515625 C 30.6875 5.789062 31.15625 6.140625 31.46875 6.578125 C 31.785156 7.015625 32 7.535156 32.128906 8.136719 C 32.203125 8.527344 32.242188 9.210938 32.242188 10.1875 L 32.242188 17.839844 L 30.132812 17.839844 L 30.132812 10.269531 C 30.132812 9.414062 30.050781 8.769531 29.886719 8.339844 C 29.722656 7.914062 29.433594 7.578125 29.015625 7.324219 C 28.597656 7.070312 28.109375 6.941406 27.542969 6.941406 C 26.644531 6.941406 25.871094 7.230469 25.214844 7.796875 C 24.5625 8.367188 24.238281 9.449219 24.238281 11.046875 L 24.238281 17.839844 L 22.132812 17.839844 "/>
<path fill-rule="nonzero" fill="rgb(13.729858%, 12.159729%, 12.548828%)" fill-opacity="1" d="M 36.859375 22.894531 L 35.347656 22.894531 C 37.683594 19.140625 38.851562 15.390625 38.851562 11.628906 C 38.851562 10.160156 38.683594 8.703125 38.347656 7.257812 C 38.085938 6.089844 37.710938 4.960938 37.234375 3.886719 C 36.933594 3.179688 36.304688 2.007812 35.347656 0.367188 L 36.859375 0.367188 C 38.328125 2.328125 39.414062 4.296875 40.121094 6.273438 C 40.71875 7.976562 41.019531 9.757812 41.019531 11.617188 C 41.019531 13.730469 40.617188 15.765625 39.808594 17.738281 C 39 19.703125 38.015625 21.425781 36.859375 22.894531 "/>
<path fill-rule="nonzero" fill="rgb(13.729858%, 12.159729%, 12.548828%)" fill-opacity="1" d="M 624.785156 187.246094 L 624.785156 174.800781 L 626.683594 174.800781 L 626.683594 176.570312 C 627.597656 175.199219 628.917969 174.515625 630.644531 174.515625 C 631.394531 174.515625 632.082031 174.652344 632.710938 174.921875 C 633.34375 175.191406 633.8125 175.542969 634.121094 175.984375 C 634.4375 176.421875 634.65625 176.941406 634.78125 177.539062 C 634.859375 177.933594 634.898438 178.617188 634.898438 179.59375 L 634.898438 187.246094 L 632.785156 187.246094 L 632.785156 179.671875 C 632.785156 178.816406 632.707031 178.171875 632.542969 177.746094 C 632.378906 177.320312 632.085938 176.980469 631.671875 176.730469 C 631.25 176.472656 630.761719 176.34375 630.199219 176.34375 C 629.296875 176.34375 628.527344 176.632812 627.871094 177.199219 C 627.21875 177.773438 626.894531 178.851562 626.894531 180.449219 L 626.894531 187.246094 L 624.785156 187.246094 "/>
<path fill="none" stroke-width="19.9984" stroke-linecap="butt" stroke-linejoin="miter" stroke="rgb(13.729858%, 12.159729%, 12.548828%)" stroke-opacity="1" stroke-miterlimit="22.9256" d="M 560.15625 828.945312 L 560.15625 1572.578125 " transform="matrix(0.1, 0, 0, -0.1, 0, 247)"/>
<path fill="none" stroke-width="20.0013" stroke-linecap="butt" stroke-linejoin="miter" stroke="rgb(13.729858%, 12.159729%, 12.548828%)" stroke-opacity="1" stroke-miterlimit="22.9256" d="M 560.15625 1570.195312 C 543.59375 1570.195312 530.15625 1583.710938 530.15625 1600.195312 C 530.15625 1616.71875 543.59375 1630.195312 560.15625 1630.195312 C 576.71875 1630.195312 590.15625 1616.71875 590.15625 1600.195312 C 590.15625 1583.710938 576.71875 1570.195312 560.15625 1570.195312 " transform="matrix(0.1, 0, 0, -0.1, 0, 247)"/>
<path fill="none" stroke-width="19.9984" stroke-linecap="butt" stroke-linejoin="miter" stroke="rgb(13.729858%, 12.159729%, 12.548828%)" stroke-opacity="1" stroke-miterlimit="22.9256" d="M 2846.367188 825 L 2846.367188 1568.632812 " transform="matrix(0.1, 0, 0, -0.1, 0, 247)"/>
<path fill="none" stroke-width="20.0013" stroke-linecap="butt" stroke-linejoin="miter" stroke="rgb(13.729858%, 12.159729%, 12.548828%)" stroke-opacity="1" stroke-miterlimit="22.9256" d="M 2846.367188 1566.289062 C 2829.804688 1566.289062 2816.328125 1579.765625 2816.328125 1596.289062 C 2816.328125 1612.8125 2829.804688 1626.289062 2846.367188 1626.289062 C 2862.890625 1626.289062 2876.367188 1612.8125 2876.367188 1596.289062 C 2876.367188 1579.765625 2862.890625 1566.289062 2846.367188 1566.289062 " transform="matrix(0.1, 0, 0, -0.1, 0, 247)"/>
<path fill="none" stroke-width="19.9984" stroke-linecap="butt" stroke-linejoin="miter" stroke="rgb(13.729858%, 12.159729%, 12.548828%)" stroke-opacity="1" stroke-miterlimit="22.9256" d="M 5091.015625 832.96875 L 5091.015625 1576.601562 " transform="matrix(0.1, 0, 0, -0.1, 0, 247)"/>
<path fill="none" stroke-width="20.0013" stroke-linecap="butt" stroke-linejoin="miter" stroke="rgb(13.729858%, 12.159729%, 12.548828%)" stroke-opacity="1" stroke-miterlimit="22.9256" d="M 5091.015625 1574.257812 C 5074.453125 1574.257812 5061.015625 1587.734375 5061.015625 1604.257812 C 5061.015625 1620.742188 5074.453125 1634.257812 5091.015625 1634.257812 C 5107.578125 1634.257812 5121.015625 1620.742188 5121.015625 1604.257812 C 5121.015625 1587.734375 5107.578125 1574.257812 5091.015625 1574.257812 " transform="matrix(0.1, 0, 0, -0.1, 0, 247)"/>
<path fill="none" stroke-width="19.9984" stroke-linecap="butt" stroke-linejoin="miter" stroke="rgb(13.729858%, 12.159729%, 12.548828%)" stroke-opacity="1" stroke-miterlimit="22.9256" d="M 1593.710938 842.8125 L 1593.710938 1586.445312 " transform="matrix(0.1, 0, 0, -0.1, 0, 247)"/>
<path fill="none" stroke-width="20.0013" stroke-linecap="butt" stroke-linejoin="miter" stroke="rgb(13.729858%, 12.159729%, 12.548828%)" stroke-opacity="1" stroke-miterlimit="22.9256" d="M 1593.710938 1584.101562 C 1577.148438 1584.101562 1563.710938 1597.578125 1563.710938 1614.101562 C 1563.710938 1630.625 1577.148438 1644.101562 1593.710938 1644.101562 C 1610.273438 1644.101562 1623.710938 1630.625 1623.710938 1614.101562 C 1623.710938 1597.578125 1610.273438 1584.101562 1593.710938 1584.101562 " transform="matrix(0.1, 0, 0, -0.1, 0, 247)"/>
<path fill="none" stroke-width="19.9984" stroke-linecap="butt" stroke-linejoin="miter" stroke="rgb(13.729858%, 12.159729%, 12.548828%)" stroke-opacity="1" stroke-miterlimit="22.9256" d="M 3879.882812 838.90625 L 3879.882812 1582.539062 " transform="matrix(0.1, 0, 0, -0.1, 0, 247)"/>
<path fill="none" stroke-width="20.0013" stroke-linecap="butt" stroke-linejoin="miter" stroke="rgb(13.729858%, 12.159729%, 12.548828%)" stroke-opacity="1" stroke-miterlimit="22.9256" d="M 3879.882812 1580.15625 C 3863.320312 1580.15625 3849.882812 1593.632812 3849.882812 1610.15625 C 3849.882812 1626.679688 3863.320312 1640.195312 3879.882812 1640.195312 C 3896.445312 1640.195312 3909.882812 1626.679688 3909.882812 1610.15625 C 3909.882812 1593.632812 3896.445312 1580.15625 3879.882812 1580.15625 " transform="matrix(0.1, 0, 0, -0.1, 0, 247)"/>
<path fill="none" stroke-width="19.9984" stroke-linecap="butt" stroke-linejoin="miter" stroke="rgb(13.729858%, 12.159729%, 12.548828%)" stroke-opacity="1" stroke-miterlimit="22.9256" d="M 1071.210938 835.351562 L 1071.210938 78.867188 " transform="matrix(0.1, 0, 0, -0.1, 0, 247)"/>
<path fill="none" stroke-width="20.0013" stroke-linecap="butt" stroke-linejoin="miter" stroke="rgb(13.729858%, 12.159729%, 12.548828%)" stroke-opacity="1" stroke-miterlimit="22.9256" d="M 1071.210938 81.210938 C 1087.773438 81.210938 1101.210938 67.734375 1101.210938 51.210938 C 1101.210938 34.6875 1087.773438 21.210938 1071.210938 21.210938 C 1054.648438 21.210938 1041.210938 34.6875 1041.210938 51.210938 C 1041.210938 67.734375 1054.648438 81.210938 1071.210938 81.210938 " transform="matrix(0.1, 0, 0, -0.1, 0, 247)"/>
<path fill="none" stroke-width="19.9984" stroke-linecap="butt" stroke-linejoin="miter" stroke="rgb(13.729858%, 12.159729%, 12.548828%)" stroke-opacity="1" stroke-miterlimit="22.9256" d="M 3357.382812 831.445312 L 3357.382812 74.921875 " transform="matrix(0.1, 0, 0, -0.1, 0, 247)"/>
<path fill="none" stroke-width="20.0013" stroke-linecap="butt" stroke-linejoin="miter" stroke="rgb(13.729858%, 12.159729%, 12.548828%)" stroke-opacity="1" stroke-miterlimit="22.9256" d="M 3357.382812 77.304688 C 3373.945312 77.304688 3387.382812 63.828125 3387.382812 47.304688 C 3387.382812 30.78125 3373.945312 17.304688 3357.382812 17.304688 C 3340.820312 17.304688 3327.382812 30.78125 3327.382812 47.304688 C 3327.382812 63.828125 3340.820312 77.304688 3357.382812 77.304688 " transform="matrix(0.1, 0, 0, -0.1, 0, 247)"/>
<path fill="none" stroke-width="19.9984" stroke-linecap="butt" stroke-linejoin="miter" stroke="rgb(13.729858%, 12.159729%, 12.548828%)" stroke-opacity="1" stroke-miterlimit="22.9256" d="M 5602.03125 839.414062 L 5602.03125 82.890625 " transform="matrix(0.1, 0, 0, -0.1, 0, 247)"/>
<path fill="none" stroke-width="20.0013" stroke-linecap="butt" stroke-linejoin="miter" stroke="rgb(13.729858%, 12.159729%, 12.548828%)" stroke-opacity="1" stroke-miterlimit="22.9256" d="M 5602.03125 85.234375 C 5618.59375 85.234375 5632.03125 71.757812 5632.03125 55.234375 C 5632.03125 38.710938 5618.59375 25.234375 5602.03125 25.234375 C 5585.46875 25.234375 5572.03125 38.710938 5572.03125 55.234375 C 5572.03125 71.757812 5585.46875 85.234375 5602.03125 85.234375 " transform="matrix(0.1, 0, 0, -0.1, 0, 247)"/>
<path fill="none" stroke-width="19.9984" stroke-linecap="butt" stroke-linejoin="miter" stroke="rgb(13.729858%, 12.159729%, 12.548828%)" stroke-opacity="1" stroke-miterlimit="22.9256" d="M 2104.726562 849.257812 L 2104.726562 92.734375 " transform="matrix(0.1, 0, 0, -0.1, 0, 247)"/>
<path fill="none" stroke-width="20.0013" stroke-linecap="butt" stroke-linejoin="miter" stroke="rgb(13.729858%, 12.159729%, 12.548828%)" stroke-opacity="1" stroke-miterlimit="22.9256" d="M 2104.726562 95.117188 C 2121.289062 95.117188 2134.726562 81.601562 2134.726562 65.117188 C 2134.726562 48.59375 2121.289062 35.117188 2104.726562 35.117188 C 2088.164062 35.117188 2074.726562 48.59375 2074.726562 65.117188 C 2074.726562 81.601562 2088.164062 95.117188 2104.726562 95.117188 " transform="matrix(0.1, 0, 0, -0.1, 0, 247)"/>
<path fill="none" stroke-width="19.9984" stroke-linecap="butt" stroke-linejoin="miter" stroke="rgb(13.729858%, 12.159729%, 12.548828%)" stroke-opacity="1" stroke-miterlimit="22.9256" d="M 4390.9375 845.3125 L 4390.9375 88.828125 " transform="matrix(0.1, 0, 0, -0.1, 0, 247)"/>
<path fill="none" stroke-width="20.0013" stroke-linecap="butt" stroke-linejoin="miter" stroke="rgb(13.729858%, 12.159729%, 12.548828%)" stroke-opacity="1" stroke-miterlimit="22.9256" d="M 4390.9375 91.171875 C 4407.460938 91.171875 4420.9375 77.695312 4420.9375 61.171875 C 4420.9375 44.648438 4407.460938 31.171875 4390.9375 31.171875 C 4374.375 31.171875 4360.898438 44.648438 4360.898438 61.171875 C 4360.898438 77.695312 4374.375 91.171875 4390.9375 91.171875 " transform="matrix(0.1, 0, 0, -0.1, 0, 247)"/>
</svg>
