<?xml version="1.0" encoding="UTF-8"?>
<svg xmlns="http://www.w3.org/2000/svg" xmlns:xlink="http://www.w3.org/1999/xlink" width="272" height="49" viewBox="0 0 272 49">
<defs>
<clipPath id="clip-0">
<path clip-rule="nonzero" d="M 75 0.796875 L 83 0.796875 L 83 20 L 75 20 Z M 75 0.796875 "/>
</clipPath>
<clipPath id="clip-1">
<path clip-rule="nonzero" d="M 126 0.796875 L 134 0.796875 L 134 20 L 126 20 Z M 126 0.796875 "/>
</clipPath>
<clipPath id="clip-2">
<path clip-rule="nonzero" d="M 261 31 L 271.207031 31 L 271.207031 47 L 261 47 Z M 261 31 "/>
</clipPath>
</defs>
<path fill-rule="nonzero" fill="rgb(13.729858%, 12.159729%, 12.548828%)" fill-opacity="1" d="M 60.859375 1.242188 L 60.859375 1.800781 C 58.867188 1.835938 58.15625 2.640625 58.15625 4.539062 L 58.15625 12.5625 C 58.15625 16.246094 55.808594 20.199219 49.359375 20.199219 C 43.683594 20.199219 40.773438 16.960938 40.773438 12.710938 L 40.773438 4.035156 C 40.773438 2.132812 40.238281 1.835938 38.21875 1.800781 L 38.21875 1.242188 L 45.855469 1.242188 L 45.855469 1.800781 L 45.585938 1.800781 C 43.957031 1.800781 43.242188 2.253906 43.242188 3.976562 L 43.242188 12.234375 C 43.242188 16.246094 45.585938 18.652344 50.015625 18.652344 C 53.375 18.652344 56.789062 17.257812 56.789062 12.210938 L 56.789062 5.28125 C 56.789062 2.429688 56.34375 1.925781 53.878906 1.800781 L 53.878906 1.242188 L 60.859375 1.242188 "/>
<path fill-rule="nonzero" fill="rgb(13.729858%, 12.159729%, 12.548828%)" fill-opacity="1" d="M 64.21875 17.140625 C 64.21875 18.773438 64.605469 19.160156 66.210938 19.160156 L 66.210938 19.726562 L 60.234375 19.726562 L 60.234375 19.160156 C 61.542969 19.160156 62.226562 18.449219 62.226562 17.289062 L 62.226562 11.046875 C 62.226562 9.949219 62.105469 9.742188 61.335938 9.59375 L 60.324219 9.382812 L 60.324219 8.910156 L 63.742188 7.660156 L 64.21875 7.660156 L 64.21875 9.976562 C 66.210938 8.730469 67.871094 7.632812 69.328125 7.632812 C 71.351562 7.632812 72.507812 9.117188 72.507812 12.085938 C 72.507812 16.039062 72.300781 16.808594 72.273438 17.972656 C 72.238281 18.773438 72.714844 19.160156 73.933594 19.160156 L 74.589844 19.160156 L 74.589844 19.726562 L 68.203125 19.726562 L 68.203125 19.160156 C 69.058594 19.128906 69.566406 18.921875 69.894531 18.597656 C 70.457031 18.03125 70.515625 15.859375 70.515625 11.910156 C 70.515625 9.53125 69.359375 8.789062 68.167969 8.789062 C 67.21875 8.789062 65.765625 9.621094 64.21875 10.691406 L 64.21875 17.140625 "/>
<g clip-path="url(#clip-0)">
<path fill-rule="nonzero" fill="rgb(13.729858%, 12.159729%, 12.548828%)" fill-opacity="1" d="M 78.679688 0.796875 C 79.394531 0.796875 79.984375 1.300781 79.984375 1.925781 C 79.984375 2.546875 79.394531 3.054688 78.679688 3.054688 C 77.964844 3.054688 77.402344 2.546875 77.402344 1.925781 C 77.402344 1.300781 77.964844 0.796875 78.679688 0.796875 Z M 79.898438 17.464844 C 79.898438 18.507812 80.460938 19.160156 82.039062 19.160156 L 82.039062 19.726562 L 75.441406 19.726562 L 75.441406 19.160156 C 77.253906 19.160156 77.90625 18.566406 77.90625 16.988281 L 77.90625 11.019531 C 77.90625 9.859375 77.757812 9.710938 76.984375 9.5625 L 75.589844 9.292969 L 75.589844 8.820312 L 79.453125 7.480469 L 79.898438 7.480469 L 79.898438 17.464844 "/>
</g>
<path fill-rule="nonzero" fill="rgb(13.729858%, 12.159729%, 12.548828%)" fill-opacity="1" d="M 88.089844 19.992188 L 83.78125 10.128906 C 83.335938 9.085938 82.949219 8.730469 82.472656 8.640625 L 81.550781 8.492188 L 81.550781 7.957031 L 87.613281 7.957031 L 87.613281 8.492188 C 85.800781 8.550781 85.234375 8.789062 85.949219 10.183594 L 89.101562 17.585938 L 92.128906 10.722656 C 92.667969 9.5 92.398438 8.640625 90.230469 8.492188 L 90.230469 7.957031 L 95.402344 7.957031 L 95.402344 8.492188 C 94.273438 8.699219 93.617188 9.351562 93.050781 10.660156 L 88.953125 19.992188 L 88.089844 19.992188 "/>
<path fill-rule="nonzero" fill="rgb(13.729858%, 12.159729%, 12.548828%)" fill-opacity="1" d="M 103.382812 11.402344 C 103.058594 9.472656 101.867188 8.195312 100.441406 8.195312 C 99.460938 8.195312 97.976562 8.640625 97.289062 11.402344 Z M 97.199219 12.175781 C 97.144531 12.625 97.085938 13.039062 97.085938 13.421875 C 97.085938 16.515625 99.253906 18.597656 101.597656 18.597656 C 103.085938 18.597656 104.246094 18.003906 105.375 16.664062 L 105.699219 17.019531 C 104.453125 18.597656 102.582031 20.082031 100.410156 20.082031 C 97.5 20.082031 95.242188 17.4375 95.242188 13.988281 C 95.242188 10.839844 97.351562 7.632812 100.976562 7.632812 C 104.984375 7.632812 104.898438 10.511719 105.878906 11.492188 L 105.878906 12.175781 L 97.199219 12.175781 "/>
<path fill-rule="nonzero" fill="rgb(13.729858%, 12.159729%, 12.548828%)" fill-opacity="1" d="M 111.289062 17.554688 C 111.289062 18.773438 111.734375 19.160156 113.21875 19.160156 L 114.347656 19.160156 L 114.347656 19.726562 L 107.304688 19.726562 L 107.304688 19.160156 C 108.820312 19.128906 109.296875 18.507812 109.296875 16.929688 L 109.296875 10.066406 L 107.304688 9.351562 L 107.304688 8.847656 L 110.691406 7.660156 L 111.289062 7.660156 L 111.289062 10.808594 L 111.347656 10.808594 C 112.832031 8.371094 113.1875 7.808594 114.167969 7.808594 C 114.527344 7.808594 114.613281 7.839844 115.179688 8.078125 C 115.476562 8.195312 116.011719 8.316406 116.722656 8.519531 L 116.011719 10.304688 C 115.566406 10.246094 115 10.097656 114.4375 9.828125 C 114.109375 9.679688 113.753906 9.53125 113.394531 9.53125 C 112.863281 9.53125 112.535156 9.894531 112.238281 10.304688 C 111.851562 10.839844 111.527344 11.347656 111.289062 11.789062 L 111.289062 17.554688 "/>
<path fill-rule="nonzero" fill="rgb(13.729858%, 12.159729%, 12.548828%)" fill-opacity="1" d="M 118.394531 16.722656 C 118.75 18.507812 119.882812 19.515625 121.21875 19.515625 C 122.40625 19.515625 123.328125 18.625 123.328125 17.554688 C 123.328125 16.929688 123.179688 16.542969 122.375 15.742188 C 120.265625 13.632812 117.921875 13.421875 117.921875 10.957031 C 117.921875 8.996094 119.46875 7.632812 121.722656 7.632812 C 122.523438 7.632812 123.359375 7.808594 124.101562 8.105469 L 124.160156 10.808594 L 123.652344 10.808594 C 123.445312 9.292969 122.46875 8.34375 121.277344 8.34375 C 120.300781 8.34375 119.46875 9.027344 119.46875 10.007812 C 119.46875 12.625 124.992188 13.070312 124.992188 16.691406 C 124.992188 18.625 123.386719 20.082031 121.308594 20.082031 C 120.742188 20.082031 120.328125 19.992188 120 19.875 C 119.675781 19.78125 119.433594 19.695312 119.199219 19.695312 C 119.019531 19.695312 118.84375 19.8125 118.691406 20.050781 L 118.246094 20.050781 L 117.921875 16.722656 L 118.394531 16.722656 "/>
<g clip-path="url(#clip-1)">
<path fill-rule="nonzero" fill="rgb(13.729858%, 12.159729%, 12.548828%)" fill-opacity="1" d="M 129.664062 0.796875 C 130.378906 0.796875 130.972656 1.300781 130.972656 1.925781 C 130.972656 2.546875 130.378906 3.054688 129.664062 3.054688 C 128.953125 3.054688 128.390625 2.546875 128.390625 1.925781 C 128.390625 1.300781 128.953125 0.796875 129.664062 0.796875 Z M 130.882812 17.464844 C 130.882812 18.507812 131.449219 19.160156 133.023438 19.160156 L 133.023438 19.726562 L 126.425781 19.726562 L 126.425781 19.160156 C 128.238281 19.160156 128.894531 18.566406 128.894531 16.988281 L 128.894531 11.019531 C 128.894531 9.859375 128.742188 9.710938 127.972656 9.5625 L 126.574219 9.292969 L 126.574219 8.820312 L 130.4375 7.480469 L 130.882812 7.480469 L 130.882812 17.464844 "/>
</g>
<path fill-rule="nonzero" fill="rgb(13.729858%, 12.159729%, 12.548828%)" fill-opacity="1" d="M 140.800781 7.957031 L 140.328125 9.265625 L 137.128906 9.265625 L 137.128906 16.1875 C 137.128906 18.058594 138.46875 18.6875 139.089844 18.6875 C 139.746094 18.6875 140.335938 18.179688 140.902344 17.195312 L 141.378906 17.644531 C 140.664062 19.191406 139.503906 20.082031 138.136719 20.082031 C 136.386719 20.082031 135.140625 18.625 135.140625 16.636719 L 135.140625 9.265625 L 133.769531 9.265625 L 133.769531 8.789062 C 134.929688 8.226562 135.941406 6.859375 136.621094 5.015625 L 137.128906 5.015625 L 137.128906 7.957031 L 140.800781 7.957031 "/>
<path fill-rule="nonzero" fill="rgb(13.729858%, 12.159729%, 12.548828%)" fill-opacity="1" d="M 151.894531 11.253906 C 152.785156 8.996094 152.222656 8.550781 150.46875 8.492188 L 150.46875 7.957031 L 155.402344 7.957031 L 155.402344 8.492188 C 154.183594 8.640625 153.503906 9.472656 152.9375 10.871094 L 147.882812 23.46875 C 146.996094 25.667969 146.308594 26.648438 145.269531 26.648438 C 144.558594 26.648438 144.054688 26.203125 144.054688 25.605469 C 144.054688 24.390625 145.773438 24.6875 146.519531 23.945312 C 146.84375 23.613281 147.289062 22.84375 147.527344 22.25 L 148.417969 20.019531 L 143.8125 10.246094 C 143.25 9.027344 142.714844 8.519531 141.464844 8.492188 L 141.464844 7.957031 L 147.441406 7.957031 L 147.441406 8.492188 C 145.628906 8.519531 145.417969 9.054688 146.015625 10.304688 L 149.371094 17.554688 L 151.894531 11.253906 "/>
<path fill-rule="nonzero" fill="rgb(13.729858%, 12.159729%, 12.548828%)" fill-opacity="1" d="M 44.667969 30.871094 C 42.792969 30.871094 41.132812 34.464844 41.132812 37.4375 C 41.132812 39.929688 42.199219 41.148438 43.210938 41.148438 C 45.585938 41.148438 46.984375 37.289062 46.984375 34.554688 C 46.984375 32.472656 45.972656 30.871094 44.667969 30.871094 Z M 46.183594 29.769531 C 47.042969 29.769531 48.886719 30.957031 48.886719 34.140625 C 48.886719 39.785156 43.269531 42.25 41.875 42.25 C 40.476562 42.25 39.230469 40.023438 39.230469 37.554688 C 39.230469 32.742188 44.398438 29.769531 46.183594 29.769531 "/>
<path fill-rule="nonzero" fill="rgb(13.729858%, 12.159729%, 12.548828%)" fill-opacity="1" d="M 49.945312 31.105469 L 50.035156 30.542969 C 50.75 30.453125 51.464844 30.332031 52.207031 30.15625 C 52.652344 27.71875 53.542969 25.164062 55.207031 23.5 C 56.246094 22.460938 57.554688 21.894531 58.714844 21.894531 C 59.875 21.894531 60.820312 22.546875 60.820312 23.320312 C 60.820312 23.796875 60.464844 24.183594 59.988281 24.183594 C 59.011719 24.183594 58.207031 22.964844 57.347656 22.964844 C 56.1875 22.964844 55.238281 24.273438 54.820312 26.234375 L 54.019531 30.128906 L 56.574219 30.128906 L 56.277344 31.105469 L 53.839844 31.105469 L 52.324219 39.785156 C 51.164062 46.441406 47.777344 48.816406 44.984375 48.816406 C 43.738281 48.816406 42.699219 48.191406 42.699219 47.449219 C 42.699219 46.972656 43.171875 46.558594 43.679688 46.558594 C 44.777344 46.558594 45.371094 47.867188 46.5 47.867188 C 47.183594 47.867188 47.777344 47.539062 48.316406 47.003906 C 49.796875 45.519531 50.363281 40.441406 50.480469 39.726562 L 51.996094 31.105469 L 49.945312 31.105469 "/>
<path fill-rule="nonzero" fill="rgb(13.729858%, 12.159729%, 12.548828%)" fill-opacity="1" d="M 78.320312 40.496094 C 75.378906 42.011719 71.605469 42.367188 70.355469 42.367188 C 63.851562 42.367188 60.820312 37.347656 60.820312 33.007812 C 60.820312 28.550781 63.941406 22.964844 71.191406 22.964844 C 74.367188 22.964844 76.476562 23.976562 77.101562 23.976562 C 77.367188 23.976562 77.609375 23.917969 77.785156 23.769531 L 78.203125 23.769531 L 78.203125 28.582031 L 77.609375 28.582031 C 76.804688 24.867188 74.277344 23.707031 71.515625 23.707031 C 66.285156 23.707031 63.609375 28.046875 63.609375 32.832031 C 63.609375 38.921875 67.890625 41.625 71.308594 41.625 C 72.675781 41.625 74.191406 41.328125 75.855469 40.496094 L 75.855469 36.753906 C 75.855469 35.0625 75.261719 34.492188 73.476562 34.492188 L 72.378906 34.492188 L 72.378906 33.960938 L 80.398438 33.960938 L 80.398438 34.492188 C 78.914062 34.585938 78.320312 35.089844 78.320312 36.367188 L 78.320312 40.496094 "/>
<path fill-rule="nonzero" fill="rgb(13.729858%, 12.159729%, 12.548828%)" fill-opacity="1" d="M 84.867188 39.546875 C 84.867188 40.765625 85.433594 41.328125 86.59375 41.328125 L 87.097656 41.328125 L 87.097656 41.894531 L 80.414062 41.894531 L 80.414062 41.328125 C 82.316406 41.328125 82.878906 40.765625 82.878906 39.335938 L 82.878906 24.984375 C 82.878906 24.152344 82.789062 23.886719 81.957031 23.796875 L 80.621094 23.648438 L 80.621094 23.144531 L 84.425781 21.925781 L 84.867188 21.925781 L 84.867188 39.546875 "/>
<path fill-rule="nonzero" fill="rgb(13.729858%, 12.159729%, 12.548828%)" fill-opacity="1" d="M 94.445312 36.367188 C 93.882812 36.695312 93.40625 36.902344 92.691406 37.199219 C 90.878906 37.941406 90.195312 38.238281 90.195312 39.460938 C 90.195312 40.527344 91.058594 41.210938 91.953125 41.210938 C 92.425781 41.210938 92.78125 41.0625 94.445312 39.902344 Z M 88.5625 33.664062 C 88.503906 33.484375 88.472656 33.394531 88.472656 33.246094 C 88.472656 32.207031 90.9375 29.796875 92.871094 29.796875 C 93.765625 29.796875 95.15625 30.214844 95.988281 31.375 C 96.4375 32 96.4375 32.386719 96.4375 33.929688 L 96.4375 37.910156 C 96.4375 40.289062 96.4375 40.824219 97.210938 40.824219 C 97.535156 40.824219 97.921875 40.792969 98.664062 40.171875 L 98.8125 40.617188 C 97.210938 41.921875 96.375 42.25 95.871094 42.25 C 94.652344 42.25 94.535156 40.914062 94.503906 40.441406 C 92.457031 42.128906 91.863281 42.25 91.058594 42.25 C 89.335938 42.25 88.292969 41.269531 88.292969 39.8125 C 88.292969 38.003906 89.898438 37.378906 91.800781 36.902344 C 92.425781 36.753906 93.40625 36.398438 94.445312 35.773438 L 94.445312 33.421875 C 94.445312 32.59375 94.445312 32.113281 93.941406 31.523438 C 93.554688 31.046875 92.929688 30.660156 92.277344 30.660156 C 91.296875 30.660156 90.433594 31.492188 90.433594 32.113281 C 90.433594 32.296875 90.464844 32.414062 90.582031 32.679688 L 88.5625 33.664062 "/>
<path fill-rule="nonzero" fill="rgb(13.729858%, 12.159729%, 12.548828%)" fill-opacity="1" d="M 100.277344 38.890625 C 100.636719 40.675781 101.761719 41.6875 103.101562 41.6875 C 104.289062 41.6875 105.210938 40.792969 105.210938 39.726562 C 105.210938 39.101562 105.0625 38.714844 104.261719 37.910156 C 102.152344 35.804688 99.804688 35.59375 99.804688 33.128906 C 99.804688 31.164062 101.347656 29.796875 103.605469 29.796875 C 104.40625 29.796875 105.238281 29.980469 105.984375 30.273438 L 106.042969 32.980469 L 105.539062 32.980469 C 105.328125 31.464844 104.351562 30.511719 103.160156 30.511719 C 102.179688 30.511719 101.347656 31.195312 101.347656 32.175781 C 101.347656 34.789062 106.875 35.238281 106.875 38.863281 C 106.875 40.792969 105.269531 42.25 103.191406 42.25 C 102.628906 42.25 102.210938 42.164062 101.882812 42.042969 C 101.558594 41.953125 101.316406 41.867188 101.082031 41.867188 C 100.902344 41.867188 100.726562 41.980469 100.578125 42.222656 L 100.128906 42.222656 L 99.804688 38.890625 L 100.277344 38.890625 "/>
<path fill-rule="nonzero" fill="rgb(13.729858%, 12.159729%, 12.548828%)" fill-opacity="1" d="M 113.558594 30.363281 C 112.429688 30.363281 110.675781 30.988281 110.675781 33.753906 C 110.675781 35.503906 111.566406 37.855469 113.824219 37.855469 C 115.550781 37.855469 116.675781 36.425781 116.675781 34.375 C 116.675781 31.820312 115.371094 30.363281 113.558594 30.363281 Z M 114.390625 47.984375 C 116.914062 47.984375 119.292969 46.320312 119.292969 44.449219 C 119.292969 43.351562 118.371094 42.785156 117.300781 42.699219 C 116.527344 42.605469 112.785156 42.574219 111.925781 42.457031 C 111.09375 43.4375 109.992188 43.855469 109.992188 45.011719 C 109.992188 46.410156 111.953125 47.984375 114.390625 47.984375 Z M 121.136719 32.566406 C 120.691406 32.535156 119.292969 32.414062 118.164062 32.207031 C 118.339844 32.535156 118.667969 33.15625 118.667969 34.109375 C 118.667969 36.308594 116.769531 38.417969 113.46875 38.417969 C 112.90625 38.417969 112.636719 38.359375 112.101562 38.179688 C 111.628906 38.683594 110.289062 39.011719 110.289062 39.695312 C 110.289062 40.441406 111.566406 40.734375 114.539062 40.765625 C 117.898438 40.792969 119.054688 40.945312 119.945312 41.835938 C 120.660156 42.550781 120.835938 43.289062 120.835938 43.914062 C 120.835938 45.84375 118.222656 48.816406 112.726562 48.816406 C 109.636719 48.816406 108.152344 47.449219 108.152344 45.992188 C 108.152344 44.273438 109.964844 44.003906 111.328125 42.34375 C 109.726562 42.191406 108.507812 41.183594 108.507812 40.230469 C 108.507812 38.863281 110.5 38.804688 111.539062 38.03125 C 109.726562 37.316406 108.683594 36.042969 108.683594 34.347656 C 108.683594 31.789062 110.972656 29.796875 113.914062 29.796875 C 115.28125 29.796875 116.441406 30.214844 117.242188 30.988281 C 118.578125 30.988281 119.828125 30.835938 121.136719 30.691406 L 121.136719 32.566406 "/>
<path fill-rule="nonzero" fill="rgb(13.729858%, 12.159729%, 12.548828%)" fill-opacity="1" d="M 128.574219 41.539062 C 130.324219 41.539062 132.3125 39.753906 132.3125 36.78125 C 132.3125 33.394531 130.234375 30.511719 127.738281 30.511719 C 125.777344 30.511719 123.964844 32.535156 123.964844 35.089844 C 123.964844 38.683594 126.019531 41.539062 128.574219 41.539062 Z M 128.15625 29.796875 C 131.78125 29.796875 134.542969 32.503906 134.542969 36.042969 C 134.542969 39.546875 131.78125 42.25 128.246094 42.25 C 124.5625 42.25 121.738281 39.574219 121.738281 36.101562 C 121.738281 32 125.066406 29.796875 128.15625 29.796875 "/>
<path fill-rule="nonzero" fill="rgb(13.729858%, 12.159729%, 12.548828%)" fill-opacity="1" d="M 148.332031 42.164062 L 144.796875 33.78125 L 141.230469 42.164062 L 140.398438 42.164062 L 135.96875 32.175781 C 135.554688 31.253906 135.136719 30.808594 133.769531 30.660156 L 133.769531 30.128906 L 139.535156 30.128906 L 139.535156 30.660156 C 137.78125 30.75 137.664062 31.253906 138.289062 32.652344 L 141.496094 39.8125 L 144.410156 32.917969 C 143.753906 31.40625 143.25 30.871094 142.210938 30.75 L 141.496094 30.660156 L 141.496094 30.128906 L 147.644531 30.128906 L 147.644531 30.660156 C 146.191406 30.691406 145.746094 31.136719 146.367188 32.621094 L 149.28125 39.695312 L 152.132812 32.742188 C 152.785156 31.164062 152.285156 30.660156 150.410156 30.660156 L 150.410156 30.128906 L 155.402344 30.128906 L 155.402344 30.660156 C 154.273438 30.777344 153.558594 31.34375 152.964844 32.800781 L 149.132812 42.164062 L 148.332031 42.164062 "/>
<path fill-rule="nonzero" fill="rgb(13.729858%, 12.159729%, 12.548828%)" fill-opacity="1" d="M 0.00390625 1.246094 L 31.085938 1.242188 C 31.085938 1.242188 31.121094 15.96875 31.085938 26.664062 C 31.089844 34.539062 21.359375 43.226562 15.535156 43.527344 C 9.082031 43.011719 0.00390625 33.980469 0.00390625 26.757812 L 0.00390625 1.246094 "/>
<path fill-rule="nonzero" fill="rgb(13.729858%, 12.159729%, 12.548828%)" fill-opacity="1" d="M 15.316406 11.960938 L 15.316406 39.339844 L 16.304688 39.339844 L 16.304688 11.960938 L 15.316406 11.960938 "/>
<path fill-rule="nonzero" fill="rgb(100%, 100%, 100%)" fill-opacity="1" d="M 22.335938 11.789062 C 23.21875 11.785156 24.644531 11.792969 25.570312 11.792969 C 25.855469 11.792969 26.328125 11.710938 26.0625 12.34375 C 25.828125 12.90625 25.492188 13.6875 25.347656 14.023438 C 24.859375 14.023438 22.882812 14.023438 22.875 14.015625 C 22.71875 13.648438 22.492188 13.125 22.207031 12.464844 C 22.050781 12.109375 21.976562 11.789062 22.335938 11.789062 Z M 21.886719 21.386719 L 26.769531 21.386719 C 28.207031 21.386719 28.339844 21.585938 28.441406 21.894531 C 28.378906 21.414062 28.070312 18.957031 27.851562 17.175781 C 27.796875 16.714844 27.632812 15.4375 26.988281 14.675781 C 26.785156 14.429688 26.6875 14.308594 26.25 14.121094 C 26.285156 14.023438 26.683594 13.035156 26.976562 12.234375 C 27.128906 11.828125 26.964844 11.421875 26.65625 11.230469 C 26.382812 11.066406 26.03125 11.058594 25.785156 11.058594 C 24.113281 11.058594 22.820312 11.0625 22.304688 11.0625 C 21.410156 11.0625 20.996094 11.632812 21.269531 12.316406 C 21.476562 12.835938 21.820312 13.722656 21.976562 14.128906 C 20.878906 14.496094 20.515625 15.996094 20.355469 17.296875 C 20.089844 19.488281 19.730469 22.410156 19.707031 22.585938 C 19.667969 22.863281 19.621094 23.09375 20.078125 23.117188 C 20.945312 23.171875 21.957031 23.179688 23.660156 23.132812 C 23.828125 23.226562 24.039062 23.285156 24.320312 23.273438 C 24.59375 23.269531 24.796875 23.199219 24.941406 23.09375 C 25.636719 23.070312 26.429688 23.039062 27.332031 23 C 26.539062 22.984375 25.792969 22.960938 25.105469 22.941406 C 25.351562 22.632812 25.328125 22.210938 25.304688 22.128906 C 25.203125 23.269531 23.71875 23.160156 24.085938 21.949219 C 23.925781 21.949219 23.511719 21.949219 23.25 22.164062 C 23.179688 22.34375 23.203125 22.636719 23.371094 22.882812 C 22.410156 22.839844 21.617188 22.804688 21.042969 22.773438 C 20.746094 22.757812 20.605469 22.542969 20.753906 22.347656 C 21.375 21.535156 21.414062 21.386719 21.886719 21.386719 "/>
<path fill-rule="nonzero" fill="rgb(100%, 100%, 100%)" fill-opacity="1" d="M 15.578125 39.21875 C 15.578125 39.542969 15.363281 39.804688 15.097656 39.804688 C 14.832031 39.804688 14.617188 39.542969 14.617188 39.21875 L 14.617188 36.503906 C 14.617188 36.183594 14.832031 35.921875 15.097656 35.921875 C 15.363281 35.921875 15.578125 36.183594 15.578125 36.503906 L 15.578125 39.21875 "/>
<path fill-rule="nonzero" fill="rgb(100%, 100%, 100%)" fill-opacity="1" d="M 8.878906 6.957031 C 9.03125 6.894531 9.253906 6.910156 9.457031 6.910156 C 9.230469 6.722656 9.027344 6.652344 8.90625 6.617188 C 8.617188 5.53125 7.042969 5.828125 6.886719 6.789062 C 6.832031 7.136719 5.597656 7.289062 4.179688 9.183594 C 3.527344 10.054688 2.625 10.808594 2.355469 10.980469 C 2.078125 11.152344 2.75 11.101562 3.058594 10.773438 C 3.347656 11.066406 3.917969 10.191406 4.773438 10.042969 C 5 10.007812 7.851562 9.488281 7.097656 7.859375 C 8.101562 9.148438 6.429688 10.078125 5.375 10.179688 C 5.46875 10.230469 6.015625 10.269531 6.078125 10.296875 C 6.238281 10.351562 6.03125 10.542969 6.160156 10.617188 C 6.46875 10.785156 7.074219 11.359375 7.074219 11.359375 C 7.074219 11.359375 7.421875 11.242188 7.265625 11.085938 C 6.796875 10.773438 6.667969 10.679688 6.546875 10.488281 C 6.539062 10.476562 6.390625 10.191406 6.699219 10.109375 C 7.144531 10.074219 8.605469 9.554688 8.355469 7.722656 C 8.316406 7.433594 8.519531 7.121094 8.878906 6.957031 "/>
<path fill-rule="nonzero" fill="rgb(13.729858%, 12.159729%, 12.548828%)" fill-opacity="1" d="M 8.664062 6.65625 C 8.664062 6.75 8.59375 6.824219 8.507812 6.824219 C 8.421875 6.824219 8.351562 6.75 8.351562 6.65625 C 8.351562 6.558594 8.421875 6.480469 8.507812 6.480469 C 8.59375 6.480469 8.664062 6.558594 8.664062 6.65625 "/>
<path fill-rule="nonzero" fill="rgb(100%, 100%, 100%)" fill-opacity="1" d="M 16.023438 35.820312 L 16.023438 39.667969 L 16.550781 39.667969 L 16.550781 35.820312 L 16.023438 35.820312 "/>
<path fill-rule="nonzero" fill="rgb(100%, 100%, 100%)" fill-opacity="1" d="M 17.019531 40.265625 C 17.175781 40.101562 17.269531 39.882812 17.269531 39.636719 C 17.269531 39.132812 16.863281 38.722656 16.355469 38.722656 L 14.800781 38.722656 C 14.292969 38.722656 13.882812 39.132812 13.882812 39.636719 C 13.882812 39.875 13.972656 40.085938 14.117188 40.246094 C 13.929688 40.417969 13.59375 40.742188 13.5 40.851562 C 14.546875 41.3125 16.53125 41.277344 17.652344 40.847656 C 17.546875 40.757812 17.1875 40.425781 17.019531 40.265625 "/>
<path fill-rule="nonzero" fill="rgb(100%, 100%, 100%)" fill-opacity="1" d="M 15.554688 8.695312 C 15.554688 8.71875 15.550781 8.710938 15.550781 8.6875 C 14.875 8.082031 12.707031 7.824219 11.308594 8.179688 C 11.402344 8.351562 11.515625 8.894531 11.574219 9.109375 C 13.632812 8.425781 15.550781 9.425781 15.550781 9.425781 C 15.550781 9.421875 15.550781 9.410156 15.550781 9.40625 C 15.550781 9.410156 15.550781 9.421875 15.554688 9.429688 C 15.554688 9.429688 17.472656 8.429688 19.535156 9.113281 C 19.589844 8.898438 19.707031 8.359375 19.796875 8.191406 C 18.402344 7.832031 16.230469 8.085938 15.554688 8.695312 "/>
<path fill-rule="nonzero" fill="rgb(100%, 100%, 100%)" fill-opacity="1" d="M 16.179688 11.957031 L 16.179688 33.171875 L 16.484375 33.171875 L 16.484375 11.957031 L 16.179688 11.957031 "/>
<path fill-rule="nonzero" fill="rgb(100%, 100%, 100%)" fill-opacity="1" d="M 14.632812 11.953125 L 14.632812 31.644531 L 15.617188 31.644531 L 15.617188 11.953125 L 14.632812 11.953125 "/>
<path fill-rule="nonzero" fill="rgb(13.729858%, 12.159729%, 12.548828%)" fill-opacity="1" d="M 16.554688 19.53125 C 16.621094 19.300781 16.648438 18.730469 16.554688 18.550781 C 16.09375 18.550781 15.378906 18.554688 14.957031 18.546875 C 15.914062 18.894531 16.554688 19.53125 16.554688 19.53125 "/>
<path fill-rule="nonzero" fill="rgb(13.729858%, 12.159729%, 12.548828%)" fill-opacity="1" d="M 13.105469 37.058594 C 13.65625 37.140625 16.609375 37.28125 16.609375 37.28125 L 17.089844 38.53125 C 17.089844 38.53125 14.511719 38.464844 13.105469 37.058594 "/>
<path fill-rule="nonzero" fill="rgb(100%, 100%, 100%)" fill-opacity="1" d="M 25.191406 28.078125 C 24.265625 27.480469 23.144531 27.941406 21.933594 26.921875 C 21.9375 30.082031 24.238281 30.714844 22.945312 31.558594 C 21.789062 32.3125 20.671875 32.5 19.511719 32.402344 C 19.609375 32.246094 19.785156 31.957031 19.921875 31.816406 C 18.5 31.632812 17.257812 31.734375 16.738281 31.796875 C 14.96875 31.277344 13.003906 30.621094 10.636719 30.582031 C 11.066406 30.933594 11.488281 31.539062 11.488281 32.589844 C 11.132812 31.175781 9.660156 30.4375 8.941406 30.15625 C 8.722656 30.074219 8.519531 30.035156 8.3125 30 C 8.207031 30.144531 7.976562 30.386719 7.59375 30.53125 C 7.375 30.414062 7.195312 30.621094 7.226562 30.6875 C 7.238281 30.722656 7.234375 30.757812 7.207031 30.789062 C 6.996094 31.0625 6.304688 30.933594 5.789062 30.753906 C 5.191406 30.550781 5.21875 30.960938 5.332031 31.164062 C 5.519531 31.496094 5.699219 31.707031 5.789062 31.894531 C 6.578125 33.507812 7.164062 34.566406 8.914062 35.566406 C 10.578125 36.796875 12.671875 37.429688 14.800781 37.5 C 15.578125 37.78125 17.359375 38.269531 19.59375 37.914062 C 19.160156 37.621094 18.726562 37.332031 18.582031 37.042969 C 21.425781 36.21875 23.882812 34.351562 24.886719 31.535156 C 24.898438 31.503906 24.910156 31.472656 24.921875 31.441406 C 25.101562 30.824219 24.503906 30.003906 23.652344 30.8125 C 24.390625 29.046875 25.605469 29.808594 25.347656 30.855469 C 26.320312 29.546875 27.617188 28.144531 29.351562 27.609375 C 27.769531 26.878906 26.210938 27.511719 25.191406 28.078125 "/>
<path fill-rule="nonzero" fill="rgb(13.729858%, 12.159729%, 12.548828%)" fill-opacity="1" d="M 16.585938 25.320312 C 16.652344 25.089844 16.679688 24.519531 16.585938 24.34375 C 16.125 24.34375 15.410156 24.347656 14.992188 24.335938 C 15.945312 24.6875 16.585938 25.320312 16.585938 25.320312 "/>
<path fill-rule="nonzero" fill="rgb(100%, 100%, 100%)" fill-opacity="1" d="M 17.257812 23.460938 C 17.257812 23.96875 16.839844 24.378906 16.328125 24.378906 L 14.75 24.378906 C 14.238281 24.378906 13.824219 23.96875 13.824219 23.460938 C 13.824219 22.953125 14.238281 22.546875 14.75 22.546875 L 16.328125 22.546875 C 16.839844 22.546875 17.257812 22.953125 17.257812 23.460938 "/>
<path fill-rule="nonzero" fill="rgb(13.729858%, 12.159729%, 12.548828%)" fill-opacity="1" d="M 16.300781 24.066406 C 15.375 24.074219 14.582031 24.066406 14.582031 24.066406 C 14.582031 24.066406 15.886719 23.988281 16.710938 23.105469 C 16.929688 23.25 16.96875 24.066406 16.300781 24.066406 "/>
<path fill-rule="nonzero" fill="rgb(13.729858%, 12.159729%, 12.548828%)" fill-opacity="1" d="M 16.601562 31.191406 C 16.664062 30.964844 16.691406 30.390625 16.601562 30.214844 C 16.140625 30.214844 15.425781 30.222656 15.007812 30.207031 C 15.960938 30.558594 16.601562 31.191406 16.601562 31.191406 "/>
<path fill-rule="nonzero" fill="rgb(100%, 100%, 100%)" fill-opacity="1" d="M 17.269531 29.304688 C 17.269531 29.8125 16.855469 30.222656 16.34375 30.222656 L 14.765625 30.222656 C 14.253906 30.222656 13.839844 29.8125 13.839844 29.304688 C 13.839844 28.800781 14.253906 28.394531 14.765625 28.394531 L 16.34375 28.394531 C 16.855469 28.394531 17.269531 28.800781 17.269531 29.304688 "/>
<path fill-rule="nonzero" fill="rgb(13.729858%, 12.159729%, 12.548828%)" fill-opacity="1" d="M 16.3125 29.910156 C 15.386719 29.917969 14.59375 29.910156 14.59375 29.910156 C 14.59375 29.910156 15.894531 29.835938 16.722656 28.949219 C 16.941406 29.097656 16.984375 29.90625 16.3125 29.910156 "/>
<path fill-rule="nonzero" fill="rgb(100%, 100%, 100%)" fill-opacity="1" d="M 14.15625 13.445312 L 14.15625 16.183594 L 16.945312 16.183594 L 16.945312 13.445312 L 14.15625 13.445312 "/>
<path fill-rule="nonzero" fill="rgb(100%, 100%, 100%)" fill-opacity="1" d="M 16.945312 16.179688 C 16.472656 16.292969 16.503906 16.691406 16.484375 16.835938 C 16.484375 16.835938 15.359375 16.84375 14.621094 16.835938 C 14.628906 16.792969 14.644531 16.253906 14.15625 16.179688 C 14.15625 16.179688 16.765625 16.183594 16.945312 16.179688 "/>
<path fill-rule="nonzero" fill="rgb(13.729858%, 12.159729%, 12.548828%)" fill-opacity="1" d="M 15.785156 13.445312 L 15.785156 16.21875 L 16.539062 16.21875 L 16.539062 13.445312 L 15.785156 13.445312 "/>
<path fill-rule="nonzero" fill="rgb(100%, 100%, 100%)" fill-opacity="1" d="M 6.714844 30.46875 C 6.574219 30.417969 6.5 30.300781 6.460938 30.210938 C 6.371094 30.011719 6.375 29.742188 6.472656 29.488281 C 6.570312 29.242188 6.742188 29.039062 6.949219 28.949219 C 7.039062 28.910156 7.175781 28.878906 7.3125 28.929688 C 7.519531 29.011719 7.636719 29.238281 7.636719 29.515625 C 7.636719 29.644531 7.609375 29.777344 7.558594 29.910156 C 7.464844 30.160156 7.285156 30.363281 7.082031 30.453125 C 6.992188 30.492188 6.859375 30.527344 6.714844 30.46875 Z M 6.800781 28.617188 C 6.507812 28.746094 6.261719 29.015625 6.132812 29.359375 C 5.996094 29.703125 5.996094 30.066406 6.125 30.363281 C 6.21875 30.574219 6.382812 30.738281 6.582031 30.816406 C 6.785156 30.890625 7.015625 30.878906 7.230469 30.785156 C 7.523438 30.65625 7.769531 30.386719 7.898438 30.046875 C 8.140625 29.429688 7.933594 28.78125 7.445312 28.589844 C 7.246094 28.511719 7.015625 28.519531 6.800781 28.617188 "/>
<path fill-rule="nonzero" fill="rgb(100%, 100%, 100%)" fill-opacity="1" d="M 7.214844 30.375 C 7.054688 30.324219 6.667969 30.210938 6.203125 30.195312 C 5.871094 30.183594 5.550781 29.992188 5.570312 29.898438 C 5.585938 29.828125 5.671875 29.789062 5.8125 29.769531 C 6.132812 29.722656 6.824219 29.761719 7.570312 29.882812 C 7.507812 30.0625 7.40625 30.230469 7.214844 30.375 "/>
<path fill-rule="nonzero" fill="rgb(100%, 100%, 100%)" fill-opacity="1" d="M 17.28125 17.644531 C 17.28125 18.15625 16.867188 18.566406 16.351562 18.566406 L 14.773438 18.566406 C 14.261719 18.566406 13.847656 18.15625 13.847656 17.644531 C 13.847656 17.144531 14.261719 16.734375 14.773438 16.734375 L 16.351562 16.734375 C 16.867188 16.734375 17.28125 17.144531 17.28125 17.644531 "/>
<path fill-rule="nonzero" fill="rgb(13.729858%, 12.159729%, 12.548828%)" fill-opacity="1" d="M 16.328125 18.253906 C 15.398438 18.261719 14.605469 18.253906 14.605469 18.253906 C 14.605469 18.253906 15.90625 18.175781 16.734375 17.289062 C 16.953125 17.4375 16.992188 18.25 16.328125 18.253906 "/>
<path fill-rule="nonzero" fill="rgb(100%, 100%, 100%)" fill-opacity="1" d="M 10.144531 30.925781 C 11.152344 31.597656 11.488281 32.589844 11.488281 32.589844 C 11.488281 32.589844 11.824219 31.761719 11.367188 31.117188 C 12.28125 30.851562 13.871094 31.269531 15.304688 31.828125 C 17.40625 32.652344 18.980469 32.925781 20.582031 32.652344 C 22.183594 32.378906 23.027344 32.046875 23.542969 31.25 C 23.816406 30.820312 24.628906 30.910156 24.398438 31.550781 C 24.167969 32.195312 23.175781 34.023438 21.300781 34.53125 C 19.421875 35.03125 16.328125 35.875 11.746094 34.726562 C 10.523438 34.421875 7.644531 33.65625 6.46875 32.144531 C 6.230469 31.84375 6.171875 31.277344 6.160156 31.191406 C 6.144531 31.082031 6.21875 31.023438 6.476562 31.070312 C 7.28125 31.210938 7.4375 30.902344 7.734375 30.5625 C 8.066406 30.519531 9.230469 30.316406 10.144531 30.925781 "/>
<path fill-rule="nonzero" fill="rgb(13.729858%, 12.159729%, 12.548828%)" fill-opacity="1" d="M 24.0625 31.421875 C 22.660156 34.085938 19.957031 34.496094 17.125 34.582031 C 15.976562 34.617188 14.828125 34.472656 13.839844 34.21875 C 14.671875 34.304688 15.53125 34.234375 16.058594 34.054688 C 15.851562 32.988281 14.03125 32.210938 12.761719 32.140625 C 12.519531 31.867188 12.453125 31.511719 11.867188 31.304688 C 12.28125 31.683594 12.246094 32.210938 12.453125 32.484375 C 13.492188 32.695312 14.761719 32.960938 15.371094 33.777344 C 15.15625 34.054688 13.273438 33.902344 12.25 33.667969 C 11.804688 33.507812 11.347656 33.238281 11.101562 32.761719 C 10.613281 33.308594 9.835938 33.113281 9.035156 32.714844 C 9.023438 32.402344 8.832031 32.128906 8.417969 32.050781 C 8.507812 32.183594 8.53125 32.328125 8.53125 32.441406 C 7.628906 31.921875 6.769531 31.285156 6.335938 31.316406 C 5.722656 31.363281 7.675781 34.789062 9.324219 35.15625 C 14.21875 37.976562 22.402344 36.738281 24.339844 31.972656 C 24.613281 31.285156 24.371094 30.839844 24.0625 31.421875 "/>
<path fill-rule="nonzero" fill="rgb(100%, 100%, 100%)" fill-opacity="1" d="M 8.597656 32.394531 C 8.625 32.695312 8.390625 32.960938 8.074219 32.992188 C 7.757812 33.027344 7.476562 32.808594 7.445312 32.507812 C 7.417969 32.207031 7.648438 31.941406 7.96875 31.910156 C 8.285156 31.878906 8.566406 32.09375 8.597656 32.394531 "/>
<path fill-rule="nonzero" fill="rgb(13.729858%, 12.159729%, 12.548828%)" fill-opacity="1" d="M 8.324219 32.453125 C 8.324219 32.597656 8.1875 32.71875 8.019531 32.71875 C 7.855469 32.71875 7.71875 32.597656 7.71875 32.453125 C 7.71875 32.304688 7.855469 32.183594 8.019531 32.183594 C 8.1875 32.183594 8.324219 32.304688 8.324219 32.453125 "/>
<path fill-rule="nonzero" fill="rgb(100%, 100%, 100%)" fill-opacity="1" d="M 22.351562 27.570312 C 22.015625 28.730469 23.453125 30.292969 23.453125 30.292969 C 23.453125 30.292969 22.800781 28.265625 22.351562 27.570312 "/>
<path fill-rule="nonzero" fill="rgb(100%, 100%, 100%)" fill-opacity="1" d="M 23.359375 27.820312 C 22.867188 28.5 23.792969 30.042969 23.792969 30.042969 C 23.792969 30.042969 23.742188 28.808594 23.359375 27.820312 "/>
<path fill-rule="nonzero" fill="rgb(100%, 100%, 100%)" fill-opacity="1" d="M 24.914062 29.585938 C 25.304688 28.738281 26.085938 27.890625 26.910156 27.59375 C 25.191406 27.800781 24.800781 28.941406 24.914062 29.585938 "/>
<path fill-rule="nonzero" fill="rgb(100%, 100%, 100%)" fill-opacity="1" d="M 15.550781 3.894531 C 14.824219 2.488281 13.789062 3.570312 11.972656 3.007812 C 11.652344 4.492188 11.332031 7.152344 11.238281 7.609375 C 12.480469 7.984375 13.570312 6.824219 15.054688 7.789062 C 14.894531 5.871094 15.511719 4.277344 15.511719 4.277344 C 15.511719 4.277344 15.53125 4.042969 15.550781 3.894531 "/>
<path fill-rule="nonzero" fill="rgb(100%, 100%, 100%)" fill-opacity="1" d="M 19.132812 3.003906 C 17.316406 3.5625 16.277344 2.480469 15.554688 3.886719 C 15.554688 4.367188 15.550781 7.910156 15.558594 8.171875 C 17.300781 6.546875 18.492188 8.015625 19.867188 7.601562 C 19.773438 7.148438 19.453125 4.488281 19.132812 3.003906 "/>
<path fill-rule="nonzero" fill="rgb(100%, 100%, 100%)" fill-opacity="1" d="M 15.050781 10.785156 L 15.050781 11.960938 L 16.058594 11.960938 L 16.058594 10.785156 L 15.050781 10.785156 "/>
<path fill-rule="nonzero" fill="rgb(100%, 100%, 100%)" fill-opacity="1" d="M 15.558594 9.660156 L 16.0625 10.539062 L 15.042969 10.542969 Z M 15.558594 9.660156 "/>
<path fill-rule="nonzero" fill="rgb(9.893799%, 58.227539%, 27.085876%)" fill-opacity="1" d="M 7.0625 13.125 L 7.0625 13.121094 C 7.054688 13.117188 7.054688 13.121094 7.0625 13.125 "/>
<path fill-rule="nonzero" fill="rgb(100%, 100%, 100%)" fill-opacity="1" d="M 11.128906 18.878906 C 11.128906 18.878906 12.511719 18.195312 12.648438 17.488281 C 12.222656 17.078125 11.136719 17.03125 11.136719 17.03125 C 11.136719 17.03125 12.382812 16.085938 12.328125 15.398438 C 11.707031 15.109375 10.601562 15.277344 10.601562 15.277344 C 11.117188 14.570312 11.261719 14.003906 11.242188 13.507812 C 10.59375 13.402344 9.597656 13.785156 9.597656 13.785156 C 9.597656 13.785156 9.933594 12.589844 9.605469 11.972656 C 9.003906 11.8125 8.160156 12.867188 8.160156 12.867188 C 8.160156 12.867188 7.863281 11.5625 7.164062 10.871094 C 6.460938 11.5625 6.152344 12.867188 6.152344 12.867188 C 6.152344 12.867188 5.3125 11.8125 4.710938 11.972656 C 4.386719 12.589844 4.71875 13.785156 4.71875 13.785156 C 4.71875 13.785156 3.722656 13.402344 3.070312 13.507812 C 3.054688 14.003906 3.199219 14.570312 3.714844 15.277344 C 3.714844 15.277344 2.605469 15.109375 1.988281 15.398438 C 1.933594 16.085938 3.179688 17.03125 3.179688 17.03125 C 3.179688 17.03125 2.09375 17.078125 1.667969 17.488281 C 1.804688 18.195312 3.191406 18.878906 3.191406 18.878906 C 3.191406 18.878906 2.367188 19.046875 1.863281 19.617188 C 2.183594 20.042969 2.90625 20.453125 3.46875 20.542969 C 2.980469 20.9375 2.707031 21.242188 2.585938 21.472656 C 3.378906 22.117188 5.042969 22.207031 6.703125 21.6875 C 6.703125 22.007812 6.710938 24.574219 6.320312 25.75 L 7.996094 25.75 C 7.609375 24.574219 7.613281 22.007812 7.613281 21.6875 C 9.273438 22.207031 10.941406 22.117188 11.730469 21.472656 C 11.605469 21.242188 11.335938 20.9375 10.847656 20.542969 C 11.414062 20.453125 12.132812 20.042969 12.453125 19.617188 C 11.949219 19.046875 11.128906 18.878906 11.128906 18.878906 "/>
<path fill-rule="nonzero" fill="rgb(13.729858%, 12.159729%, 12.548828%)" fill-opacity="1" d="M 9.613281 18.921875 C 9.769531 18.835938 10.574219 18.589844 10.984375 17.875 C 10.574219 17.476562 9.613281 17.460938 9.613281 17.460938 C 9.613281 17.460938 10.46875 16.898438 10.757812 16.054688 C 10.023438 15.839844 9.261719 16.054688 9.261719 16.054688 C 9.261719 16.054688 9.886719 15.167969 9.964844 14.421875 C 9.261719 14.5 8.515625 14.867188 8.515625 14.867188 C 8.726562 14.40625 8.832031 13.753906 8.742188 13.1875 C 8.390625 13.253906 8.066406 13.636719 7.878906 13.90625 C 7.699219 13.335938 7.398438 13.15625 7.191406 13.042969 C 6.851562 13.546875 6.761719 13.878906 6.824219 14.558594 C 6.941406 14.445312 7.125 14.265625 7.421875 14.09375 C 7.601562 15.074219 7.253906 15.789062 7.253906 15.789062 C 7.253906 15.789062 7.6875 15.507812 8.257812 15.441406 C 8.28125 15.980469 8.085938 16.542969 7.511719 17.207031 C 7.511719 17.207031 8.015625 16.902344 8.597656 16.855469 C 8.503906 17.621094 8.039062 18.132812 7.554688 18.566406 C 7.878906 18.414062 8.429688 18.429688 8.808594 18.550781 C 8.613281 19.132812 8.160156 19.421875 7.5 19.789062 C 7.90625 19.789062 8.328125 19.84375 8.5625 20 C 8.296875 20.5 7.648438 20.734375 7.199219 20.863281 C 8.238281 21.257812 9.246094 21.421875 10.230469 21.183594 C 10.160156 20.890625 9.789062 20.535156 9.351562 20.285156 C 9.75 20.195312 10.34375 20.070312 10.863281 19.625 C 10.527344 19.289062 10.113281 19.0625 9.613281 18.921875 "/>
<path fill-rule="nonzero" fill="rgb(100%, 100%, 100%)" fill-opacity="1" d="M 4.046875 41.425781 C 4.28125 42.210938 3.65625 43.730469 4.101562 44.609375 C 3.71875 44.597656 1.296875 45.042969 0.9375 44.726562 C 0.585938 44.414062 -0.355469 43.746094 0.585938 43.230469 C 1.53125 42.722656 3.917969 41.804688 4.046875 41.425781 "/>
<path fill-rule="nonzero" fill="rgb(100%, 100%, 100%)" fill-opacity="1" d="M 27.171875 41.347656 C 27.449219 43.863281 27.027344 44.144531 27.050781 44.867188 C 27.289062 44.929688 29.214844 45.332031 29.894531 44.964844 C 30.578125 44.597656 31.046875 43.707031 30.734375 43.339844 C 30.417969 42.972656 28.847656 41.976562 28.21875 41.871094 C 27.59375 41.765625 27.34375 41.53125 27.171875 41.347656 "/>
<path fill-rule="nonzero" fill="rgb(13.729858%, 12.159729%, 12.548828%)" fill-opacity="1" d="M 30.179688 42.5625 C 29.132812 42 27.578125 41.660156 26.699219 40.460938 C 26.371094 41.667969 27.167969 42.363281 27.136719 44.140625 C 27.878906 42.761719 27.269531 42.421875 27.394531 41.765625 C 27.988281 42.523438 28.882812 42.636719 29.507812 42.957031 C 30.300781 43.375 30.789062 44.292969 29.144531 44.289062 C 25.925781 44.28125 5.277344 44.292969 1.988281 44.292969 C 0.289062 44.292969 0.789062 43.378906 1.582031 42.964844 C 2.207031 42.640625 3.113281 42.53125 3.707031 41.75 C 3.832031 42.40625 3.214844 42.738281 3.957031 44.121094 C 3.925781 42.34375 4.714844 41.679688 4.402344 40.460938 C 3.523438 41.660156 1.945312 42 0.898438 42.5625 C 0.0078125 43.035156 0.00390625 43.351562 0.00390625 44.875 C 0.00390625 45.898438 0.0078125 47.191406 0 48.054688 C -0.0078125 48.664062 0.703125 49.023438 1.546875 49 C 5.414062 49 25.660156 49 29.53125 49 C 30.371094 49.023438 31.089844 48.671875 31.089844 48.0625 C 31.097656 47.195312 31.082031 45.890625 31.089844 44.867188 C 31.105469 43.300781 31.070312 43.035156 30.179688 42.5625 "/>
<path fill-rule="nonzero" fill="rgb(100%, 100%, 100%)" fill-opacity="1" d="M 1.558594 45.609375 L 2.160156 45.609375 L 2.574219 46.769531 C 2.582031 46.792969 2.605469 46.886719 2.640625 47.050781 C 2.683594 46.886719 2.707031 46.792969 2.71875 46.769531 L 3.125 45.609375 L 3.726562 45.609375 L 2.859375 47.683594 L 2.429688 47.683594 L 1.558594 45.609375 "/>
<path fill-rule="nonzero" fill="rgb(100%, 100%, 100%)" fill-opacity="1" d="M 4.054688 45.609375 L 4.054688 47.683594 L 4.625 47.683594 L 4.625 45.609375 L 4.054688 45.609375 "/>
<path fill-rule="nonzero" fill="rgb(100%, 100%, 100%)" fill-opacity="1" d="M 6.335938 46.914062 L 6.125 46.226562 C 6.113281 46.195312 6.089844 46.101562 6.050781 45.949219 C 6.015625 46.101562 5.988281 46.195312 5.980469 46.226562 L 5.773438 46.914062 Z M 5.699219 45.609375 L 6.40625 45.609375 L 7.121094 47.683594 L 6.554688 47.683594 L 6.453125 47.3125 L 5.652344 47.3125 L 5.542969 47.683594 L 4.980469 47.683594 L 5.699219 45.609375 "/>
<path fill-rule="nonzero" fill="rgb(100%, 100%, 100%)" fill-opacity="1" d="M 8.238281 45.609375 L 8.839844 45.609375 L 9.253906 46.769531 C 9.261719 46.792969 9.285156 46.886719 9.320312 47.050781 C 9.359375 46.886719 9.386719 46.792969 9.394531 46.769531 L 9.804688 45.609375 L 10.40625 45.609375 L 9.539062 47.683594 L 9.109375 47.683594 L 8.238281 45.609375 "/>
<path fill-rule="nonzero" fill="rgb(100%, 100%, 100%)" fill-opacity="1" d="M 10.71875 45.609375 L 11.988281 45.609375 L 11.988281 46.066406 L 11.269531 46.066406 L 11.269531 46.425781 L 11.945312 46.425781 L 11.945312 46.871094 L 11.269531 46.871094 L 11.269531 47.21875 L 11.988281 47.21875 L 11.988281 47.683594 L 10.71875 47.683594 L 10.71875 45.609375 "/>
<path fill-rule="nonzero" fill="rgb(100%, 100%, 100%)" fill-opacity="1" d="M 13.140625 46.59375 C 13.375 46.59375 13.492188 46.515625 13.492188 46.332031 C 13.492188 46.117188 13.382812 46.046875 13.148438 46.046875 L 13.035156 46.046875 L 13.035156 46.59375 Z M 12.503906 45.609375 L 13.097656 45.609375 C 13.109375 45.609375 13.117188 45.609375 13.132812 45.609375 C 13.417969 45.609375 13.636719 45.613281 13.816406 45.75 C 13.964844 45.867188 14.046875 46.042969 14.046875 46.261719 C 14.046875 46.578125 13.882812 46.785156 13.585938 46.851562 L 14.148438 47.683594 L 13.511719 47.683594 L 13.035156 46.871094 L 13.035156 47.683594 L 12.503906 47.683594 L 12.503906 45.609375 "/>
<path fill-rule="nonzero" fill="rgb(100%, 100%, 100%)" fill-opacity="1" d="M 14.519531 45.609375 L 14.519531 47.683594 L 15.09375 47.683594 L 15.09375 45.609375 L 14.519531 45.609375 "/>
<path fill-rule="nonzero" fill="rgb(100%, 100%, 100%)" fill-opacity="1" d="M 15.992188 46.101562 L 15.53125 46.101562 L 15.53125 45.609375 L 17.019531 45.609375 L 17.019531 46.101562 L 16.554688 46.101562 L 16.554688 47.683594 L 15.992188 47.683594 L 15.992188 46.101562 "/>
<path fill-rule="nonzero" fill="rgb(100%, 100%, 100%)" fill-opacity="1" d="M 18.546875 46.914062 L 18.335938 46.226562 C 18.328125 46.195312 18.304688 46.101562 18.265625 45.949219 C 18.230469 46.101562 18.203125 46.195312 18.195312 46.226562 L 17.984375 46.914062 Z M 17.910156 45.609375 L 18.617188 45.609375 L 19.332031 47.683594 L 18.773438 47.683594 L 18.667969 47.3125 L 17.863281 47.3125 L 17.757812 47.683594 L 17.195312 47.683594 L 17.910156 45.609375 "/>
<path fill-rule="nonzero" fill="rgb(100%, 100%, 100%)" fill-opacity="1" d="M 20.261719 47.296875 C 20.417969 47.296875 20.519531 47.207031 20.519531 47.085938 C 20.519531 46.917969 20.40625 46.871094 20.171875 46.808594 C 19.796875 46.710938 19.617188 46.5625 19.617188 46.238281 C 19.617188 45.851562 19.894531 45.5625 20.332031 45.5625 C 20.5625 45.5625 20.765625 45.625 20.945312 45.75 L 20.769531 46.152344 C 20.636719 46.042969 20.5 45.988281 20.371094 45.988281 C 20.230469 45.988281 20.140625 46.0625 20.140625 46.164062 C 20.140625 46.308594 20.285156 46.34375 20.472656 46.394531 C 20.839844 46.488281 21.042969 46.625 21.042969 47.011719 C 21.042969 47.4375 20.734375 47.738281 20.25 47.738281 C 19.957031 47.738281 19.734375 47.644531 19.515625 47.433594 L 19.769531 47.015625 C 19.933594 47.203125 20.097656 47.296875 20.261719 47.296875 "/>
<path fill-rule="nonzero" fill="rgb(100%, 100%, 100%)" fill-opacity="1" d="M 22.277344 45.609375 L 22.878906 45.609375 L 23.292969 46.769531 C 23.300781 46.792969 23.328125 46.886719 23.363281 47.050781 C 23.402344 46.886719 23.425781 46.792969 23.433594 46.769531 L 23.84375 45.609375 L 24.445312 45.609375 L 23.578125 47.683594 L 23.148438 47.683594 L 22.277344 45.609375 "/>
<path fill-rule="nonzero" fill="rgb(100%, 100%, 100%)" fill-opacity="1" d="M 24.773438 45.609375 L 24.773438 47.683594 L 25.34375 47.683594 L 25.34375 45.609375 L 24.773438 45.609375 "/>
<path fill-rule="nonzero" fill="rgb(100%, 100%, 100%)" fill-opacity="1" d="M 26.242188 46.101562 L 25.78125 46.101562 L 25.78125 45.609375 L 27.273438 45.609375 L 27.273438 46.101562 L 26.808594 46.101562 L 26.808594 47.683594 L 26.242188 47.683594 L 26.242188 46.101562 "/>
<path fill-rule="nonzero" fill="rgb(100%, 100%, 100%)" fill-opacity="1" d="M 28.800781 46.914062 L 28.589844 46.226562 C 28.582031 46.195312 28.558594 46.101562 28.519531 45.949219 C 28.480469 46.101562 28.457031 46.195312 28.445312 46.226562 L 28.238281 46.914062 Z M 28.164062 45.609375 L 28.871094 45.609375 L 29.585938 47.683594 L 29.023438 47.683594 L 28.917969 47.3125 L 28.117188 47.3125 L 28.007812 47.683594 L 27.449219 47.683594 L 28.164062 45.609375 "/>
<path fill-rule="nonzero" fill="rgb(13.729858%, 12.159729%, 12.548828%)" fill-opacity="1" d="M 16.679688 39.128906 C 16.816406 39.292969 16.910156 40.058594 16.242188 40.113281 C 15.097656 40.203125 14.546875 40.089844 14.546875 40.089844 C 14.546875 40.089844 16.082031 39.90625 16.679688 39.128906 "/>
<path fill-rule="nonzero" fill="rgb(13.729858%, 12.159729%, 12.548828%)" fill-opacity="1" d="M 21.84375 15.605469 C 21.910156 14.664062 22.355469 14.445312 22.964844 14.460938 C 23.308594 14.46875 23.824219 14.472656 25.074219 14.460938 C 24.371094 14.523438 23.492188 14.894531 23.378906 15.8125 C 23.269531 16.664062 23.265625 19.613281 23.242188 20.871094 C 22.625 20.894531 21.796875 20.871094 21.613281 20.917969 C 21.707031 19.613281 21.773438 16.542969 21.84375 15.605469 "/>
<path fill="none" stroke-width="5" stroke-linecap="butt" stroke-linejoin="miter" stroke="rgb(13.729858%, 12.159729%, 12.548828%)" stroke-opacity="1" stroke-miterlimit="4" d="M 1623.359375 409.804688 L 1623.359375 68.28125 " transform="matrix(0.1, 0, 0, -0.1, 0, 49)"/>
<path fill-rule="nonzero" fill="rgb(13.729858%, 12.159729%, 12.548828%)" fill-opacity="1" d="M 172.074219 17.855469 C 172.074219 20.105469 173.527344 21.417969 176.078125 21.417969 C 178.347656 21.417969 179.640625 20.324219 179.640625 18.589844 C 179.640625 16.738281 178.644531 16.160156 176.316406 15.5625 L 174.960938 15.226562 C 172.332031 14.546875 171.058594 13.671875 171.058594 11.34375 C 171.058594 9.074219 172.851562 7.5 175.757812 7.5 C 178.765625 7.5 180.535156 9.113281 180.578125 11.859375 L 179.222656 11.859375 C 179.203125 9.808594 177.929688 8.675781 175.699219 8.675781 C 173.589844 8.675781 172.414062 9.667969 172.414062 11.382812 C 172.414062 12.734375 173.148438 13.414062 174.820312 13.832031 L 176.496094 14.25 C 179.601562 15.027344 180.996094 16.082031 180.996094 18.453125 C 180.996094 21 179.125 22.59375 176.058594 22.59375 C 172.632812 22.59375 170.71875 20.921875 170.71875 17.953125 L 170.71875 17.855469 L 172.074219 17.855469 "/>
<path fill-rule="nonzero" fill="rgb(13.729858%, 12.159729%, 12.548828%)" fill-opacity="1" d="M 191.527344 18.628906 C 191.308594 21 189.675781 22.453125 187.226562 22.453125 C 184.480469 22.453125 182.707031 20.460938 182.707031 17.097656 C 182.707031 13.632812 184.496094 11.601562 187.304688 11.601562 C 189.636719 11.601562 191.269531 13.035156 191.386719 15.144531 L 190.234375 15.144531 C 190.035156 13.632812 188.859375 12.65625 187.304688 12.65625 C 185.3125 12.65625 183.941406 14.230469 183.941406 16.996094 C 183.941406 19.804688 185.3125 21.398438 187.324219 21.398438 C 188.917969 21.398438 190.074219 20.382812 190.332031 18.628906 L 191.527344 18.628906 "/>
<path fill-rule="nonzero" fill="rgb(13.729858%, 12.159729%, 12.548828%)" fill-opacity="1" d="M 193.496094 7.878906 L 194.691406 7.878906 L 194.691406 13.472656 C 195.46875 12.238281 196.625 11.601562 198.117188 11.601562 C 199.511719 11.601562 200.644531 12.160156 201.203125 13.054688 C 201.621094 13.730469 201.621094 14.648438 201.621094 15.902344 L 201.621094 22.195312 L 200.425781 22.195312 L 200.425781 15.921875 C 200.425781 13.710938 200.046875 12.65625 197.878906 12.65625 C 195.984375 12.65625 194.691406 13.96875 194.691406 16.101562 L 194.691406 22.195312 L 193.496094 22.195312 L 193.496094 7.878906 "/>
<path fill-rule="nonzero" fill="rgb(13.729858%, 12.159729%, 12.548828%)" fill-opacity="1" d="M 208.488281 21.398438 C 210.699219 21.398438 212.015625 19.863281 212.015625 17.039062 C 212.015625 14.210938 210.699219 12.65625 208.488281 12.65625 C 206.300781 12.65625 204.984375 14.210938 204.984375 17.039062 C 204.984375 19.863281 206.300781 21.398438 208.488281 21.398438 Z M 208.488281 11.601562 C 211.496094 11.601562 213.25 13.574219 213.25 17.039062 C 213.25 20.503906 211.496094 22.453125 208.488281 22.453125 C 205.484375 22.453125 203.75 20.503906 203.75 17.039062 C 203.75 13.574219 205.484375 11.601562 208.488281 11.601562 "/>
<path fill-rule="nonzero" fill="rgb(13.729858%, 12.159729%, 12.548828%)" fill-opacity="1" d="M 219.601562 21.398438 C 221.808594 21.398438 223.125 19.863281 223.125 17.039062 C 223.125 14.210938 221.808594 12.65625 219.601562 12.65625 C 217.410156 12.65625 216.09375 14.210938 216.09375 17.039062 C 216.09375 19.863281 217.410156 21.398438 219.601562 21.398438 Z M 219.601562 11.601562 C 222.605469 11.601562 224.359375 13.574219 224.359375 17.039062 C 224.359375 20.503906 222.605469 22.453125 219.601562 22.453125 C 216.59375 22.453125 214.859375 20.503906 214.859375 17.039062 C 214.859375 13.574219 216.59375 11.601562 219.601562 11.601562 "/>
<path fill-rule="nonzero" fill="rgb(13.729858%, 12.159729%, 12.548828%)" fill-opacity="1" d="M 226.605469 7.878906 L 227.800781 7.878906 L 227.800781 22.195312 L 226.605469 22.195312 L 226.605469 7.878906 "/>
<path fill-rule="nonzero" fill="rgb(13.729858%, 12.159729%, 12.548828%)" fill-opacity="1" d="M 240.105469 21.398438 C 242.316406 21.398438 243.632812 19.863281 243.632812 17.039062 C 243.632812 14.210938 242.316406 12.65625 240.105469 12.65625 C 237.917969 12.65625 236.601562 14.210938 236.601562 17.039062 C 236.601562 19.863281 237.917969 21.398438 240.105469 21.398438 Z M 240.105469 11.601562 C 243.113281 11.601562 244.867188 13.574219 244.867188 17.039062 C 244.867188 20.503906 243.113281 22.453125 240.105469 22.453125 C 237.101562 22.453125 235.367188 20.503906 235.367188 17.039062 C 235.367188 13.574219 237.101562 11.601562 240.105469 11.601562 "/>
<path fill-rule="nonzero" fill="rgb(13.729858%, 12.159729%, 12.548828%)" fill-opacity="1" d="M 247.574219 12.835938 L 246.058594 12.835938 L 246.058594 11.859375 L 247.574219 11.859375 L 247.574219 9.96875 C 247.574219 8.394531 248.347656 7.738281 250.023438 7.738281 C 250.222656 7.738281 250.421875 7.757812 250.640625 7.796875 L 250.640625 8.871094 C 250.378906 8.851562 250.160156 8.792969 249.984375 8.792969 C 249.066406 8.792969 248.769531 9.171875 248.769531 10.089844 L 248.769531 11.859375 L 250.640625 11.859375 L 250.640625 12.835938 L 248.769531 12.835938 L 248.769531 22.195312 L 247.574219 22.195312 L 247.574219 12.835938 "/>
<path fill-rule="nonzero" fill="rgb(13.729858%, 12.159729%, 12.548828%)" fill-opacity="1" d="M 171.417969 27.789062 L 180.796875 27.789062 L 180.796875 28.960938 L 172.730469 28.960938 L 172.730469 34.160156 L 180.097656 34.160156 L 180.097656 35.335938 L 172.730469 35.335938 L 172.730469 40.929688 L 181.035156 40.929688 L 181.035156 42.105469 L 171.417969 42.105469 L 171.417969 27.789062 "/>
<path fill-rule="nonzero" fill="rgb(13.729858%, 12.159729%, 12.548828%)" fill-opacity="1" d="M 183.203125 31.769531 L 184.359375 31.769531 L 184.359375 33.421875 C 185.136719 32.148438 186.269531 31.511719 187.785156 31.511719 C 189.21875 31.511719 190.332031 32.046875 190.890625 32.964844 C 191.289062 33.601562 191.308594 34.417969 191.308594 35.515625 L 191.308594 42.105469 L 190.113281 42.105469 L 190.113281 35.652344 C 190.113281 33.5625 189.65625 32.566406 187.546875 32.566406 C 185.652344 32.566406 184.398438 33.859375 184.398438 36.011719 L 184.398438 42.105469 L 183.203125 42.105469 L 183.203125 31.769531 "/>
<path fill-rule="nonzero" fill="rgb(13.729858%, 12.159729%, 12.548828%)" fill-opacity="1" d="M 198.195312 41.328125 C 200.367188 41.328125 201.699219 39.773438 201.699219 36.949219 C 201.699219 34.121094 200.386719 32.566406 198.195312 32.566406 C 195.984375 32.566406 194.671875 34.101562 194.671875 36.949219 C 194.671875 39.734375 196.066406 41.328125 198.195312 41.328125 Z M 202.796875 41.566406 C 202.796875 44.734375 201.125 46.347656 197.898438 46.347656 C 195.449219 46.347656 193.894531 45.152344 193.757812 43.320312 L 194.992188 43.320312 C 195.109375 44.554688 196.125 45.292969 197.878906 45.292969 C 200.367188 45.292969 201.601562 44.035156 201.601562 41.605469 L 201.601562 40.332031 C 200.785156 41.707031 199.589844 42.382812 198.015625 42.382812 C 195.230469 42.382812 193.4375 40.371094 193.4375 36.949219 C 193.4375 33.542969 195.269531 31.511719 198.015625 31.511719 C 199.609375 31.511719 200.804688 32.1875 201.601562 33.5625 L 201.601562 31.769531 L 202.796875 31.769531 L 202.796875 41.566406 "/>
<path fill-rule="nonzero" fill="rgb(13.729858%, 12.159729%, 12.548828%)" fill-opacity="1" d="M 205.582031 31.769531 L 206.777344 31.769531 L 206.777344 42.105469 L 205.582031 42.105469 Z M 205.582031 27.789062 L 206.777344 27.789062 L 206.777344 29.582031 L 205.582031 29.582031 L 205.582031 27.789062 "/>
<path fill-rule="nonzero" fill="rgb(13.729858%, 12.159729%, 12.548828%)" fill-opacity="1" d="M 209.5625 31.769531 L 210.71875 31.769531 L 210.71875 33.421875 C 211.496094 32.148438 212.632812 31.511719 214.144531 31.511719 C 215.578125 31.511719 216.691406 32.046875 217.25 32.964844 C 217.648438 33.601562 217.667969 34.417969 217.667969 35.515625 L 217.667969 42.105469 L 216.472656 42.105469 L 216.472656 35.652344 C 216.472656 33.5625 216.015625 32.566406 213.90625 32.566406 C 212.015625 32.566406 210.757812 33.859375 210.757812 36.011719 L 210.757812 42.105469 L 209.5625 42.105469 L 209.5625 31.769531 "/>
<path fill-rule="nonzero" fill="rgb(13.729858%, 12.159729%, 12.548828%)" fill-opacity="1" d="M 227.484375 36.191406 C 227.386719 33.902344 226.148438 32.566406 224.296875 32.566406 C 222.445312 32.566406 221.132812 33.921875 221.011719 36.191406 Z M 221.011719 37.226562 C 221.011719 39.816406 222.367188 41.328125 224.359375 41.328125 C 225.972656 41.328125 227.144531 40.433594 227.386719 38.917969 L 228.578125 38.917969 C 228.320312 41.011719 226.648438 42.382812 224.277344 42.382812 C 221.492188 42.382812 219.777344 40.414062 219.777344 36.988281 C 219.777344 33.503906 221.511719 31.511719 224.316406 31.511719 C 227.066406 31.511719 228.71875 33.402344 228.71875 36.769531 L 228.71875 37.167969 L 221.011719 37.167969 L 221.011719 37.226562 "/>
<path fill-rule="nonzero" fill="rgb(13.729858%, 12.159729%, 12.548828%)" fill-opacity="1" d="M 238.035156 36.191406 C 237.9375 33.902344 236.703125 32.566406 234.851562 32.566406 C 233 32.566406 231.683594 33.921875 231.566406 36.191406 Z M 231.566406 37.226562 C 231.566406 39.816406 232.917969 41.328125 234.910156 41.328125 C 236.523438 41.328125 237.699219 40.433594 237.9375 38.917969 L 239.132812 38.917969 C 238.875 41.011719 237.199219 42.382812 234.832031 42.382812 C 232.042969 42.382812 230.332031 40.414062 230.332031 36.988281 C 230.332031 33.503906 232.0625 31.511719 234.871094 31.511719 C 237.617188 31.511719 239.273438 33.402344 239.273438 36.769531 L 239.273438 37.167969 L 231.566406 37.167969 L 231.566406 37.226562 "/>
<path fill-rule="nonzero" fill="rgb(13.729858%, 12.159729%, 12.548828%)" fill-opacity="1" d="M 241.402344 31.769531 L 242.554688 31.769531 L 242.554688 33.582031 C 243.171875 32.148438 244.25 31.511719 245.742188 31.511719 L 245.882812 31.511719 L 245.882812 32.746094 L 245.722656 32.746094 C 243.671875 32.746094 242.59375 33.980469 242.59375 36.371094 L 242.59375 42.105469 L 241.402344 42.105469 L 241.402344 31.769531 "/>
<path fill-rule="nonzero" fill="rgb(13.729858%, 12.159729%, 12.548828%)" fill-opacity="1" d="M 247.632812 31.769531 L 248.828125 31.769531 L 248.828125 42.105469 L 247.632812 42.105469 Z M 247.632812 27.789062 L 248.828125 27.789062 L 248.828125 29.582031 L 247.632812 29.582031 L 247.632812 27.789062 "/>
<path fill-rule="nonzero" fill="rgb(13.729858%, 12.159729%, 12.548828%)" fill-opacity="1" d="M 251.613281 31.769531 L 252.769531 31.769531 L 252.769531 33.421875 C 253.546875 32.148438 254.679688 31.511719 256.195312 31.511719 C 257.628906 31.511719 258.742188 32.046875 259.300781 32.964844 C 259.699219 33.601562 259.71875 34.417969 259.71875 35.515625 L 259.71875 42.105469 L 258.523438 42.105469 L 258.523438 35.652344 C 258.523438 33.5625 258.066406 32.566406 255.957031 32.566406 C 254.0625 32.566406 252.808594 33.859375 252.808594 36.011719 L 252.808594 42.105469 L 251.613281 42.105469 L 251.613281 31.769531 "/>
<g clip-path="url(#clip-2)">
<path fill-rule="nonzero" fill="rgb(13.729858%, 12.159729%, 12.548828%)" fill-opacity="1" d="M 266.605469 41.328125 C 268.777344 41.328125 270.113281 39.773438 270.113281 36.949219 C 270.113281 34.121094 268.796875 32.566406 266.605469 32.566406 C 264.394531 32.566406 263.082031 34.101562 263.082031 36.949219 C 263.082031 39.734375 264.476562 41.328125 266.605469 41.328125 Z M 271.207031 41.566406 C 271.207031 44.734375 269.535156 46.347656 266.308594 46.347656 C 263.859375 46.347656 262.304688 45.152344 262.167969 43.320312 L 263.402344 43.320312 C 263.519531 44.554688 264.535156 45.292969 266.289062 45.292969 C 268.777344 45.292969 270.011719 44.035156 270.011719 41.605469 L 270.011719 40.332031 C 269.195312 41.707031 268 42.382812 266.425781 42.382812 C 263.640625 42.382812 261.847656 40.371094 261.847656 36.949219 C 261.847656 33.542969 263.679688 31.511719 266.425781 31.511719 C 268.019531 31.511719 269.214844 32.1875 270.011719 33.5625 L 270.011719 31.769531 L 271.207031 31.769531 L 271.207031 41.566406 "/>
</g>
</svg>
