<?xml version="1.0" encoding="UTF-8"?>
<svg xmlns="http://www.w3.org/2000/svg" xmlns:xlink="http://www.w3.org/1999/xlink" width="284" height="104" viewBox="0 0 284 104">
<path fill="none" stroke-width="21.6" stroke-linecap="butt" stroke-linejoin="miter" stroke="rgb(13.729858%, 12.159729%, 12.548828%)" stroke-opacity="1" stroke-miterlimit="2.6131" d="M 1492.890625 1024.84375 L 1492.890625 836.210938 L 1284.0625 836.210938 L 1284.0625 1024.84375 Z M 1492.890625 1024.84375 " transform="matrix(0.1, 0, 0, -0.1, 0, 104)"/>
<path fill="none" stroke-width="29.6167" stroke-linecap="butt" stroke-linejoin="miter" stroke="rgb(13.729858%, 12.159729%, 12.548828%)" stroke-opacity="1" stroke-miterlimit="2.6131" d="M 928.414457 720.609487 L 928.414457 527.092285 " transform="matrix(0.0729318, 0, 0, -0.127068, 0, 104)"/>
<path fill="none" stroke-width="19.9473" stroke-linecap="butt" stroke-linejoin="miter" stroke="rgb(13.729858%, 12.159729%, 12.548828%)" stroke-opacity="1" stroke-miterlimit="2.6131" d="M -698.53155 1190.874293 L -934.48277 1190.874293 L -934.48277 1280.592095 " transform="matrix(0, 0.0997293, 0.100271, 0, 0, 104)"/>
<path fill-rule="evenodd" fill="rgb(13.729858%, 12.159729%, 12.548828%)" fill-opacity="1" d="M 142.015625 6.699219 L 142.015625 7.78125 L 139.0625 7.78125 L 139.0625 15.339844 L 137.910156 15.339844 L 137.910156 7.78125 L 134.960938 7.78125 L 134.960938 6.699219 L 142.015625 6.699219 "/>
<path fill-rule="evenodd" fill="rgb(13.729858%, 12.159729%, 12.548828%)" fill-opacity="1" d="M 1.011719 8.148438 L 3.464844 11.585938 L 0.929688 15.269531 L 2.402344 15.269531 L 4.121094 12.566406 L 5.921875 15.269531 L 7.476562 15.269531 L 4.941406 11.585938 L 7.394531 8.148438 L 5.839844 8.148438 L 4.203125 10.601562 L 2.566406 8.148438 L 1.011719 8.148438 "/>
<path fill-rule="evenodd" fill="rgb(13.729858%, 12.159729%, 12.548828%)" fill-opacity="1" d="M 11.652344 5.28125 L 10.832031 5.28125 L 10.75 5.363281 C 10.015625 6.429688 9.851562 6.757812 9.523438 7.410156 C 8.867188 8.882812 8.542969 10.113281 8.542969 11.667969 C 8.542969 12.566406 8.621094 13.386719 8.867188 14.203125 C 9.195312 15.269531 9.605469 16.167969 10.667969 17.804688 L 10.832031 18.050781 L 11.734375 18.050781 L 11.40625 17.476562 C 11.160156 17.070312 10.996094 16.578125 10.75 16.167969 C 10.097656 14.695312 9.851562 13.46875 9.851562 11.832031 C 9.851562 10.765625 9.933594 9.621094 10.175781 8.800781 C 10.339844 8.148438 10.503906 7.492188 10.832031 6.917969 C 10.914062 6.675781 11.160156 6.183594 11.488281 5.527344 C 11.570312 5.445312 11.570312 5.363281 11.652344 5.28125 "/>
<path fill-rule="evenodd" fill="rgb(13.729858%, 12.159729%, 12.548828%)" fill-opacity="1" d="M 13.289062 6.101562 L 13.289062 8.148438 L 12.304688 8.148438 L 12.304688 9.128906 L 13.289062 9.128906 L 13.289062 13.957031 C 13.289062 14.859375 13.777344 15.351562 14.679688 15.351562 C 15.089844 15.351562 15.171875 15.351562 15.660156 15.269531 L 15.660156 14.285156 C 15.496094 14.285156 15.335938 14.285156 15.171875 14.285156 C 14.761719 14.285156 14.515625 14.203125 14.515625 13.957031 L 14.515625 9.128906 L 15.660156 9.128906 L 15.660156 8.148438 L 14.515625 8.148438 L 14.515625 6.101562 L 13.289062 6.101562 "/>
<path fill-rule="evenodd" fill="rgb(13.729858%, 12.159729%, 12.548828%)" fill-opacity="1" d="M 17.214844 5.28125 L 16.398438 5.28125 C 16.5625 5.527344 16.644531 5.691406 16.726562 5.855469 C 17.132812 6.675781 17.460938 7.410156 17.625 7.902344 C 17.789062 8.230469 17.871094 8.558594 17.953125 8.964844 C 18.199219 9.867188 18.28125 10.441406 18.28125 11.421875 C 18.28125 12.566406 18.117188 13.792969 17.953125 14.613281 C 17.707031 15.59375 17.214844 16.742188 16.480469 17.96875 L 16.398438 18.050781 L 17.296875 18.050781 L 17.378906 17.96875 C 18.933594 15.757812 19.589844 13.792969 19.589844 11.585938 C 19.589844 10.765625 19.425781 9.867188 19.261719 9.128906 C 19.015625 8.3125 18.363281 7.003906 17.871094 6.265625 L 17.296875 5.363281 L 17.214844 5.28125 "/>
<path fill-rule="evenodd" fill="rgb(13.729858%, 12.159729%, 12.548828%)" fill-opacity="1" d="M 262.054688 87.5 L 265.027344 95.773438 C 264.933594 96.144531 264.839844 96.332031 264.746094 96.515625 L 264.5625 96.886719 C 264.285156 97.539062 264.097656 97.722656 263.539062 97.722656 C 263.261719 97.722656 263.074219 97.632812 262.796875 97.539062 L 262.796875 98.746094 C 263.167969 98.933594 263.261719 98.933594 263.632812 98.933594 C 264.003906 98.933594 264.378906 98.839844 264.65625 98.746094 C 265.214844 98.5625 265.585938 97.816406 266.234375 96.144531 C 266.421875 95.679688 266.605469 95.308594 266.699219 94.9375 C 266.980469 94.378906 267.070312 94.007812 267.164062 93.914062 L 269.488281 87.5 L 267.90625 87.5 L 265.769531 94.101562 L 263.632812 87.5 L 262.054688 87.5 "/>
<path fill-rule="evenodd" fill="rgb(13.729858%, 12.159729%, 12.548828%)" fill-opacity="1" d="M 274.226562 85.117188 L 273.296875 85.117188 L 273.203125 85.210938 C 272.367188 86.417969 272.183594 86.789062 271.8125 87.53125 C 271.066406 89.207031 270.695312 90.597656 270.695312 92.363281 C 270.695312 93.386719 270.789062 94.316406 271.066406 95.246094 C 271.4375 96.453125 271.902344 97.476562 273.113281 99.335938 L 273.296875 99.613281 L 274.320312 99.613281 L 273.949219 98.964844 C 273.671875 98.5 273.484375 97.941406 273.203125 97.476562 C 272.460938 95.804688 272.183594 94.410156 272.183594 92.550781 C 272.183594 91.34375 272.277344 90.042969 272.554688 89.113281 C 272.742188 88.367188 272.925781 87.625 273.296875 86.976562 C 273.390625 86.695312 273.671875 86.136719 274.042969 85.394531 C 274.136719 85.300781 274.136719 85.210938 274.226562 85.117188 "/>
<path fill-rule="evenodd" fill="rgb(13.729858%, 12.159729%, 12.548828%)" fill-opacity="1" d="M 276.085938 86.046875 L 276.085938 88.367188 L 274.972656 88.367188 L 274.972656 89.484375 L 276.085938 89.484375 L 276.085938 94.96875 C 276.085938 95.988281 276.644531 96.546875 277.664062 96.546875 C 278.132812 96.546875 278.222656 96.546875 278.78125 96.453125 L 278.78125 95.339844 C 278.597656 95.339844 278.410156 95.339844 278.222656 95.339844 C 277.757812 95.339844 277.480469 95.246094 277.480469 94.96875 L 277.480469 89.484375 L 278.78125 89.484375 L 278.78125 88.367188 L 277.480469 88.367188 L 277.480469 86.046875 L 276.085938 86.046875 "/>
<path fill-rule="evenodd" fill="rgb(13.729858%, 12.159729%, 12.548828%)" fill-opacity="1" d="M 280.546875 85.117188 L 279.617188 85.117188 C 279.804688 85.394531 279.894531 85.582031 279.988281 85.765625 C 280.453125 86.695312 280.824219 87.53125 281.011719 88.089844 C 281.199219 88.460938 281.289062 88.832031 281.382812 89.296875 C 281.664062 90.320312 281.753906 90.96875 281.753906 92.085938 C 281.753906 93.386719 281.570312 94.78125 281.382812 95.710938 C 281.105469 96.824219 280.546875 98.125 279.710938 99.519531 L 279.617188 99.613281 L 280.640625 99.613281 L 280.734375 99.519531 C 282.496094 97.011719 283.242188 94.78125 283.242188 92.273438 C 283.242188 91.34375 283.054688 90.320312 282.871094 89.484375 C 282.589844 88.554688 281.847656 87.066406 281.289062 86.230469 L 280.640625 85.210938 L 280.546875 85.117188 "/>
<path fill="none" stroke-width="20.0364" stroke-linecap="butt" stroke-linejoin="miter" stroke="rgb(13.729858%, 12.159729%, 12.548828%)" stroke-opacity="1" stroke-miterlimit="2.6131" d="M 229.871163 924.469384 L 686.688919 924.469384 " transform="matrix(0.100175, 0, 0, -0.099825, 0, 104)"/>
<path fill="none" stroke-width="20.0013" stroke-linecap="butt" stroke-linejoin="miter" stroke="rgb(13.729858%, 12.159729%, 12.548828%)" stroke-opacity="1" stroke-miterlimit="2.6131" d="M 541.523438 234.84375 L 1462.304688 234.84375 L 1462.304688 13.046875 L 541.523438 13.046875 Z M 541.523438 234.84375 " transform="matrix(0.1, 0, 0, -0.1, 0, 104)"/>
<path fill-rule="nonzero" fill="rgb(13.729858%, 12.159729%, 12.548828%)" fill-opacity="1" d="M 100.53125 97.382812 L 91.566406 97.382812 L 91.566406 97.058594 L 96.164062 91.546875 L 91.566406 85.78125 L 91.566406 85.460938 L 100.261719 85.460938 L 100.53125 88.433594 L 100.171875 88.433594 C 100.085938 87.625 99.859375 87.050781 99.5 86.699219 C 99.140625 86.355469 98.621094 86.183594 97.941406 86.183594 L 93.84375 86.183594 L 97.597656 90.90625 L 93.371094 95.992188 L 98.027344 95.992188 C 98.804688 95.992188 99.390625 95.84375 99.78125 95.554688 C 100.171875 95.261719 100.496094 94.707031 100.753906 93.902344 L 101.078125 93.96875 L 100.53125 97.382812 "/>
<path fill="none" stroke-width="20.0013" stroke-linecap="butt" stroke-linejoin="miter" stroke="rgb(13.729858%, 12.159729%, 12.548828%)" stroke-opacity="1" stroke-miterlimit="2.6131" d="M 675.9375 451.523438 L 806.757812 678.085938 L 545.15625 678.085938 Z M 675.9375 451.523438 " transform="matrix(0.1, 0, 0, -0.1, 0, 104)"/>
<path fill="none" stroke-width="20.0013" stroke-linecap="butt" stroke-linejoin="miter" stroke="rgb(13.729858%, 12.159729%, 12.548828%)" stroke-opacity="1" stroke-miterlimit="2.6131" d="M 1191.992188 463.476562 L 1322.8125 690.078125 L 1061.171875 690.078125 Z M 1191.992188 463.476562 " transform="matrix(0.1, 0, 0, -0.1, 0, 104)"/>
<path fill="none" stroke-width="20.0013" stroke-linecap="butt" stroke-linejoin="miter" stroke="rgb(13.729858%, 12.159729%, 12.548828%)" stroke-opacity="1" stroke-miterlimit="2.6131" d="M 675.9375 447.96875 L 675.9375 319.726562 " transform="matrix(0.1, 0, 0, -0.1, 0, 104)"/>
<path fill-rule="evenodd" fill="rgb(13.729858%, 12.159729%, 12.548828%)" fill-opacity="1" d="M 72.824219 71.203125 L 67.59375 80.707031 L 62.367188 71.203125 Z M 72.824219 71.203125 "/>
<path fill="none" stroke-width="20.0013" stroke-linecap="butt" stroke-linejoin="miter" stroke="rgb(13.729858%, 12.159729%, 12.548828%)" stroke-opacity="1" stroke-miterlimit="2.6131" d="M 1193.476562 461.445312 L 1193.476562 319.726562 " transform="matrix(0.1, 0, 0, -0.1, 0, 104)"/>
<path fill-rule="evenodd" fill="rgb(13.729858%, 12.159729%, 12.548828%)" fill-opacity="1" d="M 124.574219 71.203125 L 119.347656 80.707031 L 114.117188 71.203125 Z M 124.574219 71.203125 "/>
<path fill="none" stroke-width="20.0013" stroke-linecap="butt" stroke-linejoin="miter" stroke="rgb(13.729858%, 12.159729%, 12.548828%)" stroke-opacity="1" stroke-miterlimit="2.6131" d="M 1455.585938 125.390625 L 2504.609375 125.390625 " transform="matrix(0.1, 0, 0, -0.1, 0, 104)"/>
<path fill-rule="evenodd" fill="rgb(13.729858%, 12.159729%, 12.548828%)" fill-opacity="1" d="M 249.636719 86.234375 L 259.144531 91.460938 L 249.636719 96.691406 Z M 249.636719 86.234375 "/>
<path fill="none" stroke-width="20.0013" stroke-linecap="butt" stroke-linejoin="miter" stroke="rgb(13.729858%, 12.159729%, 12.548828%)" stroke-opacity="1" stroke-miterlimit="2.6131" d="M 1582.695312 931.875 L 1999.960938 931.875 L 1999.960938 125.390625 " transform="matrix(0.1, 0, 0, -0.1, 0, 104)"/>
<path fill-rule="evenodd" fill="rgb(13.729858%, 12.159729%, 12.548828%)" fill-opacity="1" d="M 159.097656 5.582031 L 149.589844 10.8125 L 159.097656 16.039062 Z M 159.097656 5.582031 "/>
<path fill-rule="nonzero" fill="rgb(13.729858%, 12.159729%, 12.548828%)" fill-opacity="1" d="M 68.636719 49.53125 L 67.582031 49.53125 L 67.582031 42.8125 C 67.328125 43.054688 66.996094 43.296875 66.585938 43.539062 C 66.171875 43.78125 65.800781 43.960938 65.472656 44.082031 L 65.472656 43.0625 C 66.0625 42.785156 66.578125 42.449219 67.019531 42.054688 C 67.460938 41.660156 67.777344 41.277344 67.960938 40.90625 L 68.636719 40.90625 L 68.636719 49.53125 "/>
<path fill-rule="evenodd" fill="rgb(13.729858%, 12.159729%, 12.548828%)" fill-opacity="1" d="M 199.75 87.449219 C 201.726562 87.449219 203.328125 89.203125 203.328125 91.359375 C 203.328125 93.519531 201.726562 95.269531 199.75 95.269531 C 197.773438 95.269531 196.171875 93.519531 196.171875 91.359375 C 196.171875 89.203125 197.773438 87.449219 199.75 87.449219 "/>
<path fill="none" stroke-width="20.0013" stroke-linecap="butt" stroke-linejoin="miter" stroke="rgb(13.729858%, 12.159729%, 12.548828%)" stroke-opacity="1" stroke-miterlimit="2.6131" d="M 1997.5 165.507812 C 2017.265625 165.507812 2033.28125 147.96875 2033.28125 126.40625 C 2033.28125 104.804688 2017.265625 87.304688 1997.5 87.304688 C 1977.734375 87.304688 1961.71875 104.804688 1961.71875 126.40625 C 1961.71875 147.96875 1977.734375 165.507812 1997.5 165.507812 Z M 1997.5 165.507812 " transform="matrix(0.1, 0, 0, -0.1, 0, 104)"/>
<path fill-rule="nonzero" fill="rgb(13.729858%, 12.159729%, 12.548828%)" fill-opacity="1" d="M 137.566406 50.816406 L 139.199219 51.019531 C 138.941406 51.976562 138.464844 52.71875 137.769531 53.246094 C 137.070312 53.769531 136.179688 54.035156 135.097656 54.035156 C 133.730469 54.035156 132.648438 53.613281 131.851562 52.773438 C 131.050781 51.933594 130.648438 50.753906 130.648438 49.238281 C 130.648438 47.664062 131.054688 46.449219 131.863281 45.582031 C 132.671875 44.714844 133.71875 44.277344 135.007812 44.277344 C 136.257812 44.277344 137.277344 44.703125 138.066406 45.554688 C 138.859375 46.402344 139.253906 47.597656 139.253906 49.136719 C 139.253906 49.234375 139.25 49.375 139.246094 49.5625 L 132.285156 49.5625 C 132.34375 50.585938 132.632812 51.371094 133.15625 51.914062 C 133.675781 52.460938 134.324219 52.734375 135.105469 52.734375 C 135.683594 52.734375 136.179688 52.582031 136.589844 52.277344 C 137 51.972656 137.324219 51.488281 137.566406 50.816406 Z M 132.371094 48.257812 L 137.582031 48.257812 C 137.515625 47.476562 137.3125 46.886719 136.984375 46.496094 C 136.480469 45.886719 135.828125 45.582031 135.027344 45.582031 C 134.300781 45.582031 133.6875 45.824219 133.195312 46.308594 C 132.699219 46.792969 132.425781 47.445312 132.371094 48.257812 "/>
<path fill-rule="nonzero" fill="rgb(13.729858%, 12.159729%, 12.548828%)" fill-opacity="1" d="M 139.671875 42.660156 L 139.671875 41.601562 L 142.914062 41.601562 L 142.914062 42.660156 L 139.671875 42.660156 "/>
<path fill-rule="nonzero" fill="rgb(13.729858%, 12.159729%, 12.548828%)" fill-opacity="1" d="M 145.050781 45.238281 L 144.074219 45.238281 L 144.074219 36.648438 L 145.128906 36.648438 L 145.128906 39.710938 C 145.574219 39.15625 146.140625 38.875 146.832031 38.875 C 147.214844 38.875 147.578125 38.953125 147.917969 39.105469 C 148.261719 39.261719 148.539062 39.476562 148.761719 39.757812 C 148.984375 40.035156 149.15625 40.371094 149.28125 40.769531 C 149.40625 41.164062 149.46875 41.585938 149.46875 42.03125 C 149.46875 43.101562 149.203125 43.925781 148.675781 44.507812 C 148.152344 45.089844 147.515625 45.378906 146.777344 45.378906 C 146.046875 45.378906 145.46875 45.074219 145.050781 44.457031 Z M 145.039062 42.082031 C 145.039062 42.828125 145.140625 43.363281 145.34375 43.695312 C 145.675781 44.238281 146.125 44.511719 146.691406 44.511719 C 147.152344 44.511719 147.550781 44.3125 147.886719 43.910156 C 148.222656 43.511719 148.390625 42.914062 148.390625 42.121094 C 148.390625 41.308594 148.230469 40.707031 147.90625 40.324219 C 147.585938 39.9375 147.195312 39.742188 146.738281 39.742188 C 146.277344 39.742188 145.878906 39.941406 145.542969 40.34375 C 145.207031 40.742188 145.039062 41.324219 145.039062 42.082031 "/>
<path fill-rule="nonzero" fill="rgb(13.729858%, 12.159729%, 12.548828%)" fill-opacity="1" d="M 153.074219 45.238281 L 153.074219 37.664062 L 150.242188 37.664062 L 150.242188 36.648438 L 157.050781 36.648438 L 157.050781 37.664062 L 154.210938 37.664062 L 154.210938 45.238281 L 153.074219 45.238281 "/>
</svg>
