<?xml version="1.0" encoding="UTF-8"?>
<svg xmlns="http://www.w3.org/2000/svg" xmlns:xlink="http://www.w3.org/1999/xlink" width="430" height="198" viewBox="0 0 430 198">
<path fill-rule="nonzero" fill="rgb(13.729858%, 12.159729%, 12.548828%)" fill-opacity="1" d="M 94.542969 94.117188 L 94.542969 78.964844 L 88.882812 78.964844 L 88.882812 76.9375 L 102.5 76.9375 L 102.5 78.964844 L 96.816406 78.964844 L 96.816406 94.117188 L 94.542969 94.117188 "/>
<path fill="none" stroke-width="19.9984" stroke-linecap="butt" stroke-linejoin="miter" stroke="rgb(13.729858%, 12.159729%, 12.548828%)" stroke-opacity="1" stroke-miterlimit="22.9256" d="M 794.335938 1305.820312 L 1118.515625 1305.820312 L 1118.515625 943.90625 L 794.335938 943.90625 Z M 794.335938 1305.820312 " transform="matrix(0.1, 0, 0, -0.1, 0, 198)"/>
<path fill-rule="nonzero" fill="rgb(13.729858%, 12.159729%, 12.548828%)" fill-opacity="1" d="M 308.777344 94.953125 L 308.777344 79.800781 L 303.117188 79.800781 L 303.117188 77.773438 L 316.734375 77.773438 L 316.734375 79.800781 L 311.050781 79.800781 L 311.050781 94.953125 L 308.777344 94.953125 "/>
<path fill="none" stroke-width="19.9984" stroke-linecap="butt" stroke-linejoin="miter" stroke="rgb(13.729858%, 12.159729%, 12.548828%)" stroke-opacity="1" stroke-miterlimit="22.9256" d="M 2936.679688 1297.460938 L 3260.898438 1297.460938 L 3260.898438 935.546875 L 2936.679688 935.546875 Z M 2936.679688 1297.460938 " transform="matrix(0.1, 0, 0, -0.1, 0, 198)"/>
<path fill-rule="nonzero" fill="rgb(13.729858%, 12.159729%, 12.548828%)" fill-opacity="1" d="M 95.132812 162.800781 L 95.132812 147.648438 L 89.472656 147.648438 L 89.472656 145.621094 L 103.089844 145.621094 L 103.089844 147.648438 L 97.40625 147.648438 L 97.40625 162.800781 L 95.132812 162.800781 "/>
<path fill="none" stroke-width="19.9984" stroke-linecap="butt" stroke-linejoin="miter" stroke="rgb(13.729858%, 12.159729%, 12.548828%)" stroke-opacity="1" stroke-miterlimit="22.9256" d="M 800.234375 618.984375 L 1124.414062 618.984375 L 1124.414062 257.070312 L 800.234375 257.070312 Z M 800.234375 618.984375 " transform="matrix(0.1, 0, 0, -0.1, 0, 198)"/>
<path fill-rule="nonzero" fill="rgb(13.729858%, 12.159729%, 12.548828%)" fill-opacity="1" d="M 309.367188 163.636719 L 309.367188 148.484375 L 303.707031 148.484375 L 303.707031 146.457031 L 317.324219 146.457031 L 317.324219 148.484375 L 311.640625 148.484375 L 311.640625 163.636719 L 309.367188 163.636719 "/>
<path fill="none" stroke-width="19.9984" stroke-linecap="butt" stroke-linejoin="miter" stroke="rgb(13.729858%, 12.159729%, 12.548828%)" stroke-opacity="1" stroke-miterlimit="22.9256" d="M 2942.578125 610.625 L 3266.757812 610.625 L 3266.757812 248.710938 L 2942.578125 248.710938 Z M 2942.578125 610.625 " transform="matrix(0.1, 0, 0, -0.1, 0, 198)"/>
<path fill="none" stroke-width="19.9984" stroke-linecap="butt" stroke-linejoin="miter" stroke="rgb(13.729858%, 12.159729%, 12.548828%)" stroke-opacity="1" stroke-miterlimit="22.9256" d="M 2330.898438 1842.65625 L 2655.117188 1842.65625 L 2655.117188 1480.742188 L 2330.898438 1480.742188 Z M 2330.898438 1842.65625 " transform="matrix(0.1, 0, 0, -0.1, 0, 198)"/>
<path fill="none" stroke-width="19.9984" stroke-linecap="butt" stroke-linejoin="miter" stroke="rgb(13.729858%, 12.159729%, 12.548828%)" stroke-opacity="1" stroke-miterlimit="22.9256" d="M 1830.898438 1853.515625 C 1939.023438 1853.515625 2026.679688 1765.859375 2026.679688 1657.734375 C 2026.679688 1549.648438 1939.023438 1461.953125 1830.898438 1461.953125 C 1722.8125 1461.953125 1635.117188 1549.648438 1635.117188 1657.734375 C 1635.117188 1765.859375 1722.8125 1853.515625 1830.898438 1853.515625 Z M 1830.898438 1853.515625 " transform="matrix(0.1, 0, 0, -0.1, 0, 198)"/>
<path fill-rule="nonzero" fill="rgb(13.729858%, 12.159729%, 12.548828%)" fill-opacity="1" d="M 190.953125 39.9375 L 179 39.9375 L 179 39.507812 L 185.128906 32.160156 L 179 24.472656 L 179 24.046875 L 190.59375 24.046875 L 190.953125 28.011719 L 190.472656 28.011719 C 190.355469 26.929688 190.054688 26.160156 189.578125 25.699219 C 189.097656 25.238281 188.40625 25.011719 187.496094 25.011719 L 182.035156 25.011719 L 187.039062 31.304688 L 181.402344 38.085938 L 187.613281 38.085938 C 188.652344 38.085938 189.433594 37.890625 189.953125 37.503906 C 190.472656 37.109375 190.902344 36.375 191.246094 35.300781 L 191.679688 35.390625 L 190.953125 39.9375 "/>
<path fill="none" stroke-width="19.9984" stroke-linecap="butt" stroke-linejoin="miter" stroke="rgb(13.729858%, 12.159729%, 12.548828%)" stroke-opacity="1" stroke-miterlimit="22.9256" d="M 503.90625 1663.671875 L 1542.382812 1663.671875 " transform="matrix(0.1, 0, 0, -0.1, 0, 198)"/>
<path fill-rule="evenodd" fill="rgb(13.729858%, 12.159729%, 12.548828%)" fill-opacity="1" d="M 153.414062 26.40625 L 162.917969 31.632812 L 153.414062 36.863281 Z M 153.414062 26.40625 "/>
<path fill="none" stroke-width="19.9984" stroke-linecap="butt" stroke-linejoin="miter" stroke="rgb(13.729858%, 12.159729%, 12.548828%)" stroke-opacity="1" stroke-miterlimit="22.9256" d="M 2040.9375 1662.8125 L 2234.726562 1662.8125 " transform="matrix(0.1, 0, 0, -0.1, 0, 198)"/>
<path fill-rule="evenodd" fill="rgb(13.729858%, 12.159729%, 12.548828%)" fill-opacity="1" d="M 222.648438 26.488281 L 232.152344 31.71875 L 222.648438 36.945312 Z M 222.648438 26.488281 "/>
<path fill="none" stroke-width="19.9984" stroke-linecap="butt" stroke-linejoin="miter" stroke="rgb(13.729858%, 12.159729%, 12.548828%)" stroke-opacity="1" stroke-miterlimit="22.9256" d="M 2653.789062 1655.3125 L 3692.265625 1655.3125 " transform="matrix(0.1, 0, 0, -0.1, 0, 198)"/>
<path fill-rule="evenodd" fill="rgb(13.729858%, 12.159729%, 12.548828%)" fill-opacity="1" d="M 368.402344 27.242188 L 377.90625 32.46875 L 368.402344 37.699219 Z M 368.402344 27.242188 "/>
<path fill="none" stroke-width="19.9984" stroke-linecap="butt" stroke-linejoin="miter" stroke="rgb(13.729858%, 12.159729%, 12.548828%)" stroke-opacity="1" stroke-miterlimit="22.9256" d="M 948.710938 1656.25 L 947.890625 1390.625 " transform="matrix(0.1, 0, 0, -0.1, 0, 198)"/>
<path fill-rule="evenodd" fill="rgb(13.729858%, 12.159729%, 12.548828%)" fill-opacity="1" d="M 100.019531 58.128906 L 94.765625 67.617188 L 89.566406 58.097656 Z M 100.019531 58.128906 "/>
<path fill="none" stroke-width="19.9984" stroke-linecap="butt" stroke-linejoin="miter" stroke="rgb(13.729858%, 12.159729%, 12.548828%)" stroke-opacity="1" stroke-miterlimit="22.9256" d="M 3091.054688 1647.890625 L 3090.234375 1382.265625 " transform="matrix(0.1, 0, 0, -0.1, 0, 198)"/>
<path fill-rule="evenodd" fill="rgb(13.729858%, 12.159729%, 12.548828%)" fill-opacity="1" d="M 314.257812 58.964844 L 308.996094 68.453125 L 303.800781 58.933594 Z M 314.257812 58.964844 "/>
<path fill="none" stroke-width="19.9984" stroke-linecap="butt" stroke-linejoin="miter" stroke="rgb(13.729858%, 12.159729%, 12.548828%)" stroke-opacity="1" stroke-miterlimit="22.9256" d="M 947.890625 932.109375 L 947.109375 689.453125 " transform="matrix(0.1, 0, 0, -0.1, 0, 198)"/>
<path fill-rule="evenodd" fill="rgb(13.729858%, 12.159729%, 12.548828%)" fill-opacity="1" d="M 99.941406 128.246094 L 94.679688 137.734375 L 89.484375 128.214844 Z M 99.941406 128.246094 "/>
<path fill="none" stroke-width="19.9984" stroke-linecap="butt" stroke-linejoin="miter" stroke="rgb(13.729858%, 12.159729%, 12.548828%)" stroke-opacity="1" stroke-miterlimit="22.9256" d="M 3090.234375 923.75 L 3089.453125 681.09375 " transform="matrix(0.1, 0, 0, -0.1, 0, 198)"/>
<path fill-rule="evenodd" fill="rgb(13.729858%, 12.159729%, 12.548828%)" fill-opacity="1" d="M 314.175781 129.082031 L 308.914062 138.570312 L 303.71875 129.050781 Z M 314.175781 129.082031 "/>
<path fill-rule="nonzero" fill="rgb(13.729858%, 12.159729%, 12.548828%)" fill-opacity="1" d="M 0.21875 37.089844 L 4.765625 30.621094 L 0.558594 24.644531 L 3.195312 24.644531 L 5.105469 27.5625 C 5.460938 28.117188 5.753906 28.582031 5.96875 28.957031 C 6.3125 28.441406 6.628906 27.984375 6.921875 27.585938 L 9.019531 24.644531 L 11.539062 24.644531 L 7.238281 30.503906 L 11.867188 37.089844 L 9.277344 37.089844 L 6.722656 33.222656 L 6.042969 32.175781 L 2.773438 37.089844 L 0.21875 37.089844 "/>
<path fill-rule="nonzero" fill="rgb(13.729858%, 12.159729%, 12.548828%)" fill-opacity="1" d="M 17.652344 42.140625 C 16.488281 40.671875 15.507812 38.953125 14.703125 36.984375 C 13.898438 35.011719 13.492188 32.976562 13.492188 30.863281 C 13.492188 29.003906 13.792969 27.226562 14.398438 25.519531 C 15.101562 23.546875 16.1875 21.578125 17.652344 19.617188 L 19.164062 19.617188 C 18.222656 21.242188 17.597656 22.402344 17.292969 23.097656 C 16.8125 24.171875 16.441406 25.300781 16.164062 26.472656 C 15.832031 27.933594 15.660156 29.402344 15.660156 30.878906 C 15.660156 34.636719 16.832031 38.390625 19.164062 42.140625 L 17.652344 42.140625 "/>
<path fill-rule="nonzero" fill="rgb(13.729858%, 12.159729%, 12.548828%)" fill-opacity="1" d="M 21.617188 37.089844 L 21.617188 24.644531 L 23.515625 24.644531 L 23.515625 26.414062 C 24.429688 25.046875 25.75 24.359375 27.472656 24.359375 C 28.226562 24.359375 28.914062 24.496094 29.542969 24.765625 C 30.175781 25.035156 30.640625 25.390625 30.953125 25.828125 C 31.269531 26.265625 31.484375 26.785156 31.613281 27.386719 C 31.691406 27.777344 31.730469 28.460938 31.730469 29.4375 L 31.730469 37.089844 L 29.617188 37.089844 L 29.617188 29.519531 C 29.617188 28.660156 29.539062 28.015625 29.375 27.589844 C 29.210938 27.164062 28.917969 26.824219 28.503906 26.574219 C 28.082031 26.316406 27.59375 26.1875 27.03125 26.1875 C 26.128906 26.1875 25.359375 26.476562 24.703125 27.046875 C 24.050781 27.617188 23.726562 28.695312 23.726562 30.292969 L 23.726562 37.089844 L 21.617188 37.089844 "/>
<path fill-rule="nonzero" fill="rgb(13.729858%, 12.159729%, 12.548828%)" fill-opacity="1" d="M 36.347656 42.140625 L 34.835938 42.140625 C 37.167969 38.390625 38.339844 34.636719 38.339844 30.878906 C 38.339844 29.410156 38.167969 27.953125 37.835938 26.503906 C 37.570312 25.335938 37.199219 24.210938 36.722656 23.132812 C 36.417969 22.429688 35.789062 21.257812 34.835938 19.617188 L 36.347656 19.617188 C 37.8125 21.578125 38.902344 23.546875 39.605469 25.519531 C 40.207031 27.226562 40.507812 29.003906 40.507812 30.863281 C 40.507812 32.976562 40.101562 35.011719 39.292969 36.984375 C 38.484375 38.953125 37.503906 40.671875 36.347656 42.140625 "/>
<path fill-rule="nonzero" fill="rgb(13.729858%, 12.159729%, 12.548828%)" fill-opacity="1" d="M 390.8125 42.59375 L 390.574219 40.613281 C 391.039062 40.734375 391.4375 40.800781 391.78125 40.800781 C 392.25 40.800781 392.628906 40.71875 392.90625 40.5625 C 393.191406 40.40625 393.421875 40.191406 393.601562 39.90625 C 393.734375 39.699219 393.949219 39.175781 394.242188 38.339844 C 394.285156 38.21875 394.347656 38.050781 394.429688 37.824219 L 389.710938 25.355469 L 391.984375 25.355469 L 394.574219 32.558594 C 394.90625 33.476562 395.210938 34.4375 395.476562 35.445312 C 395.71875 34.476562 396.007812 33.53125 396.34375 32.609375 L 399.003906 25.355469 L 401.113281 25.355469 L 396.378906 38.011719 C 395.871094 39.378906 395.476562 40.320312 395.195312 40.835938 C 394.820312 41.53125 394.390625 42.039062 393.90625 42.363281 C 393.421875 42.6875 392.84375 42.851562 392.171875 42.851562 C 391.761719 42.851562 391.3125 42.765625 390.8125 42.59375 "/>
<path fill-rule="nonzero" fill="rgb(13.729858%, 12.159729%, 12.548828%)" fill-opacity="1" d="M 406.9375 42.851562 C 405.773438 41.382812 404.789062 39.664062 403.984375 37.695312 C 403.179688 35.722656 402.773438 33.6875 402.773438 31.574219 C 402.773438 29.714844 403.074219 27.9375 403.679688 26.230469 C 404.382812 24.257812 405.46875 22.289062 406.9375 20.328125 L 408.449219 20.328125 C 407.503906 21.953125 406.878906 23.113281 406.574219 23.808594 C 406.097656 24.882812 405.722656 26.011719 405.449219 27.183594 C 405.113281 28.644531 404.945312 30.113281 404.945312 31.589844 C 404.945312 35.347656 406.113281 39.101562 408.449219 42.851562 L 406.9375 42.851562 "/>
<path fill-rule="nonzero" fill="rgb(13.729858%, 12.159729%, 12.548828%)" fill-opacity="1" d="M 410.898438 37.800781 L 410.898438 25.355469 L 412.796875 25.355469 L 412.796875 27.125 C 413.710938 25.757812 415.03125 25.070312 416.757812 25.070312 C 417.507812 25.070312 418.195312 25.207031 418.824219 25.476562 C 419.453125 25.746094 419.925781 26.101562 420.234375 26.539062 C 420.550781 26.976562 420.769531 27.496094 420.894531 28.097656 C 420.972656 28.488281 421.011719 29.171875 421.011719 30.148438 L 421.011719 37.800781 L 418.898438 37.800781 L 418.898438 30.226562 C 418.898438 29.371094 418.820312 28.726562 418.65625 28.300781 C 418.492188 27.875 418.199219 27.535156 417.785156 27.285156 C 417.363281 27.027344 416.875 26.898438 416.3125 26.898438 C 415.410156 26.898438 414.640625 27.1875 413.984375 27.757812 C 413.332031 28.328125 413.007812 29.40625 413.007812 31.003906 L 413.007812 37.800781 L 410.898438 37.800781 "/>
<path fill-rule="nonzero" fill="rgb(13.729858%, 12.159729%, 12.548828%)" fill-opacity="1" d="M 425.628906 42.851562 L 424.117188 42.851562 C 426.453125 39.101562 427.621094 35.347656 427.621094 31.589844 C 427.621094 30.121094 427.453125 28.664062 427.117188 27.214844 C 426.851562 26.046875 426.480469 24.921875 426.003906 23.84375 C 425.699219 23.140625 425.070312 21.96875 424.117188 20.328125 L 425.628906 20.328125 C 427.097656 22.289062 428.183594 24.257812 428.886719 26.230469 C 429.488281 27.9375 429.789062 29.714844 429.789062 31.574219 C 429.789062 33.6875 429.382812 35.722656 428.574219 37.695312 C 427.769531 39.664062 426.785156 41.382812 425.628906 42.851562 "/>
<path fill-rule="nonzero" fill="rgb(13.729858%, 12.159729%, 12.548828%)" fill-opacity="1" d="M 238 38.527344 L 241.800781 24.96875 L 243.089844 24.96875 L 239.296875 38.527344 L 238 38.527344 "/>
<path fill-rule="nonzero" fill="rgb(13.729858%, 12.159729%, 12.548828%)" fill-opacity="1" d="M 252.308594 36.757812 L 252.308594 38.304688 L 243.644531 38.304688 C 243.632812 37.914062 243.691406 37.542969 243.828125 37.1875 C 244.050781 36.59375 244.402344 36.015625 244.890625 35.441406 C 245.378906 34.871094 246.078125 34.207031 246.996094 33.457031 C 248.421875 32.285156 249.386719 31.363281 249.886719 30.679688 C 250.386719 29.996094 250.636719 29.351562 250.636719 28.742188 C 250.636719 28.105469 250.410156 27.566406 249.953125 27.128906 C 249.496094 26.691406 248.898438 26.472656 248.167969 26.472656 C 247.394531 26.472656 246.773438 26.703125 246.308594 27.171875 C 245.84375 27.636719 245.605469 28.277344 245.601562 29.101562 L 243.945312 28.933594 C 244.058594 27.695312 244.488281 26.757812 245.226562 26.109375 C 245.964844 25.460938 246.960938 25.136719 248.203125 25.136719 C 249.460938 25.136719 250.457031 25.488281 251.191406 26.183594 C 251.925781 26.882812 252.292969 27.746094 252.292969 28.78125 C 252.292969 29.304688 252.183594 29.820312 251.96875 30.328125 C 251.753906 30.835938 251.398438 31.367188 250.898438 31.925781 C 250.402344 32.488281 249.574219 33.257812 248.417969 34.234375 C 247.453125 35.046875 246.835938 35.597656 246.558594 35.886719 C 246.285156 36.171875 246.058594 36.464844 245.878906 36.757812 L 252.308594 36.757812 "/>
<path fill-rule="nonzero" fill="rgb(13.729858%, 12.159729%, 12.548828%)" fill-opacity="1" d="M 255.191406 28.53125 L 252.992188 21.332031 L 254.253906 21.332031 L 255.398438 25.488281 L 255.820312 27.03125 C 255.839844 26.953125 255.964844 26.460938 256.195312 25.546875 L 257.339844 21.332031 L 258.59375 21.332031 L 259.671875 25.507812 L 260.03125 26.882812 L 260.445312 25.492188 L 261.675781 21.332031 L 262.863281 21.332031 L 260.613281 28.53125 L 259.347656 28.53125 L 258.203125 24.21875 L 257.921875 22.992188 L 256.46875 28.53125 L 255.191406 28.53125 "/>
<path fill="none" stroke-width="19.9984" stroke-linecap="butt" stroke-linejoin="miter" stroke="rgb(13.729858%, 12.159729%, 12.548828%)" stroke-opacity="1" stroke-miterlimit="22.9256" d="M 948.4375 806.523438 L 1370.46875 806.523438 L 1691.328125 1390.664062 " transform="matrix(0.1, 0, 0, -0.1, 0, 198)"/>
<path fill-rule="evenodd" fill="rgb(13.729858%, 12.159729%, 12.548828%)" fill-opacity="1" d="M 174.710938 48.78125 L 163.472656 56.554688 L 174.183594 62.4375 Z M 174.710938 48.78125 "/>
<path fill="none" stroke-width="19.9984" stroke-linecap="butt" stroke-linejoin="miter" stroke="rgb(13.729858%, 12.159729%, 12.548828%)" stroke-opacity="1" stroke-miterlimit="22.9256" d="M 955.976562 271.601562 L 955.976562 15.3125 L 1475.9375 15.3125 L 1788.75 1364.335938 " transform="matrix(0.1, 0, 0, -0.1, 0, 198)"/>
<path fill-rule="evenodd" fill="rgb(13.729858%, 12.159729%, 12.548828%)" fill-opacity="1" d="M 181.492188 50.289062 L 172.785156 60.808594 L 184.683594 63.570312 Z M 181.492188 50.289062 "/>
<path fill="none" stroke-width="19.9984" stroke-linecap="butt" stroke-linejoin="miter" stroke="rgb(13.729858%, 12.159729%, 12.548828%)" stroke-opacity="1" stroke-miterlimit="22.9256" d="M 3103.320312 814.0625 L 2424.84375 814.0625 L 2035.273438 1424.882812 " transform="matrix(0.1, 0, 0, -0.1, 0, 198)"/>
<path fill-rule="evenodd" fill="rgb(13.729858%, 12.159729%, 12.548828%)" fill-opacity="1" d="M 197.3125 45.769531 L 198.730469 59.328125 L 209.011719 52.769531 Z M 197.3125 45.769531 "/>
<path fill="none" stroke-width="19.9984" stroke-linecap="butt" stroke-linejoin="miter" stroke="rgb(13.729858%, 12.159729%, 12.548828%)" stroke-opacity="1" stroke-miterlimit="22.9256" d="M 3095.78125 248.984375 L 3095.78125 14.921875 L 2244.257812 14.921875 L 1924.257812 1379.335938 " transform="matrix(0.1, 0, 0, -0.1, 0, 198)"/>
<path fill-rule="evenodd" fill="rgb(13.729858%, 12.159729%, 12.548828%)" fill-opacity="1" d="M 189.777344 48.78125 L 186.621094 62.082031 L 198.523438 59.289062 Z M 189.777344 48.78125 "/>
<path fill-rule="nonzero" fill="rgb(13.729858%, 12.159729%, 12.548828%)" fill-opacity="1" d="M 117.695312 17.890625 L 117.695312 0.710938 L 124.144531 0.710938 C 125.457031 0.710938 126.507812 0.886719 127.300781 1.230469 C 128.097656 1.578125 128.71875 2.113281 129.164062 2.839844 C 129.613281 3.558594 129.839844 4.316406 129.839844 5.105469 C 129.839844 5.839844 129.640625 6.53125 129.242188 7.179688 C 128.847656 7.828125 128.242188 8.351562 127.4375 8.75 C 128.476562 9.054688 129.273438 9.574219 129.835938 10.308594 C 130.394531 11.042969 130.671875 11.910156 130.671875 12.910156 C 130.671875 13.714844 130.503906 14.464844 130.160156 15.15625 C 129.820312 15.847656 129.402344 16.378906 128.902344 16.753906 C 128.402344 17.132812 127.773438 17.410156 127.019531 17.605469 C 126.269531 17.796875 125.34375 17.890625 124.25 17.890625 Z M 119.972656 7.929688 L 123.6875 7.929688 C 124.691406 7.929688 125.417969 7.863281 125.855469 7.730469 C 126.433594 7.558594 126.871094 7.273438 127.160156 6.875 C 127.453125 6.476562 127.601562 5.976562 127.601562 5.375 C 127.601562 4.808594 127.464844 4.304688 127.191406 3.871094 C 126.917969 3.433594 126.523438 3.140625 126.019531 2.980469 C 125.511719 2.820312 124.640625 2.738281 123.40625 2.738281 L 119.972656 2.738281 Z M 119.972656 15.863281 L 124.25 15.863281 C 124.984375 15.863281 125.503906 15.835938 125.796875 15.78125 C 126.320312 15.6875 126.757812 15.53125 127.109375 15.3125 C 127.460938 15.09375 127.75 14.773438 127.976562 14.359375 C 128.203125 13.9375 128.316406 13.460938 128.316406 12.910156 C 128.316406 12.269531 128.152344 11.714844 127.824219 11.238281 C 127.496094 10.765625 127.039062 10.4375 126.457031 10.242188 C 125.878906 10.054688 125.039062 9.960938 123.945312 9.960938 L 119.972656 9.960938 L 119.972656 15.863281 "/>
<path fill-rule="nonzero" fill="rgb(13.729858%, 12.159729%, 12.548828%)" fill-opacity="1" d="M 129.496094 20.578125 C 129.496094 19.054688 129.652344 17.828125 129.96875 16.902344 C 130.28125 15.972656 130.746094 15.253906 131.367188 14.75 C 131.984375 14.246094 132.761719 13.992188 133.695312 13.992188 C 134.390625 13.992188 134.996094 14.136719 135.519531 14.414062 C 136.039062 14.6875 136.46875 15.09375 136.8125 15.617188 C 137.148438 16.140625 137.417969 16.78125 137.609375 17.535156 C 137.804688 18.285156 137.898438 19.300781 137.898438 20.578125 C 137.898438 22.089844 137.742188 23.308594 137.433594 24.238281 C 137.121094 25.167969 136.65625 25.886719 136.039062 26.394531 C 135.421875 26.898438 134.640625 27.152344 133.695312 27.152344 C 132.453125 27.152344 131.480469 26.707031 130.773438 25.816406 C 129.921875 24.746094 129.496094 22.996094 129.496094 20.578125 Z M 131.121094 20.578125 C 131.121094 22.695312 131.371094 24.101562 131.867188 24.804688 C 132.363281 25.503906 132.972656 25.851562 133.695312 25.851562 C 134.425781 25.851562 135.035156 25.5 135.53125 24.796875 C 136.023438 24.09375 136.273438 22.6875 136.273438 20.578125 C 136.273438 18.457031 136.023438 17.046875 135.53125 16.351562 C 135.035156 15.652344 134.421875 15.304688 133.683594 15.304688 C 132.953125 15.304688 132.375 15.613281 131.9375 16.230469 C 131.394531 17.011719 131.121094 18.464844 131.121094 20.578125 "/>
<path fill-rule="nonzero" fill="rgb(13.729858%, 12.159729%, 12.548828%)" fill-opacity="1" d="M 132.601562 75.320312 L 132.601562 58.140625 L 139.050781 58.140625 C 140.359375 58.140625 141.414062 58.316406 142.203125 58.660156 C 143 59.007812 143.621094 59.542969 144.070312 60.265625 C 144.515625 60.988281 144.746094 61.742188 144.746094 62.535156 C 144.746094 63.265625 144.546875 63.960938 144.144531 64.605469 C 143.75 65.253906 143.144531 65.777344 142.339844 66.179688 C 143.382812 66.484375 144.175781 67.003906 144.738281 67.734375 C 145.296875 68.472656 145.578125 69.339844 145.578125 70.339844 C 145.578125 71.144531 145.40625 71.890625 145.066406 72.582031 C 144.726562 73.273438 144.304688 73.808594 143.804688 74.183594 C 143.304688 74.558594 142.675781 74.839844 141.925781 75.03125 C 141.171875 75.222656 140.25 75.320312 139.152344 75.320312 Z M 134.878906 65.359375 L 138.59375 65.359375 C 139.597656 65.359375 140.320312 65.289062 140.761719 65.160156 C 141.335938 64.988281 141.773438 64.703125 142.066406 64.304688 C 142.355469 63.902344 142.503906 63.402344 142.503906 62.804688 C 142.503906 62.234375 142.367188 61.730469 142.097656 61.300781 C 141.820312 60.863281 141.429688 60.566406 140.925781 60.40625 C 140.417969 60.246094 139.546875 60.167969 138.308594 60.167969 L 134.878906 60.167969 Z M 134.878906 73.289062 L 139.152344 73.289062 C 139.890625 73.289062 140.40625 73.261719 140.699219 73.210938 C 141.226562 73.113281 141.660156 72.960938 142.011719 72.738281 C 142.363281 72.523438 142.652344 72.203125 142.882812 71.785156 C 143.105469 71.367188 143.222656 70.886719 143.222656 70.339844 C 143.222656 69.699219 143.058594 69.144531 142.730469 68.667969 C 142.402344 68.195312 141.945312 67.863281 141.359375 67.671875 C 140.78125 67.484375 139.941406 67.386719 138.847656 67.386719 L 134.878906 67.386719 L 134.878906 73.289062 "/>
<path fill-rule="nonzero" fill="rgb(13.729858%, 12.159729%, 12.548828%)" fill-opacity="1" d="M 151.277344 81.933594 L 149.695312 81.933594 L 149.695312 71.855469 C 149.316406 72.21875 148.816406 72.578125 148.199219 72.945312 C 147.578125 73.304688 147.023438 73.578125 146.53125 73.757812 L 146.53125 72.230469 C 147.414062 71.816406 148.191406 71.3125 148.851562 70.71875 C 149.515625 70.128906 149.984375 69.554688 150.261719 68.996094 L 151.277344 68.996094 L 151.277344 81.933594 "/>
<path fill-rule="nonzero" fill="rgb(13.729858%, 12.159729%, 12.548828%)" fill-opacity="1" d="M 220.675781 71.503906 L 220.675781 69.382812 L 227.160156 69.382812 L 227.160156 71.503906 L 220.675781 71.503906 "/>
<path fill-rule="nonzero" fill="rgb(13.729858%, 12.159729%, 12.548828%)" fill-opacity="1" d="M 227.871094 76.660156 L 234.472656 59.480469 L 236.921875 59.480469 L 243.953125 76.660156 L 241.359375 76.660156 L 239.355469 71.457031 L 232.171875 71.457031 L 230.289062 76.660156 Z M 232.828125 69.605469 L 238.65625 69.605469 L 236.859375 64.847656 C 236.316406 63.402344 235.910156 62.214844 235.644531 61.285156 C 235.425781 62.386719 235.117188 63.480469 234.71875 64.566406 L 232.828125 69.605469 "/>
<path fill-rule="nonzero" fill="rgb(13.729858%, 12.159729%, 12.548828%)" fill-opacity="1" d="M 248.808594 81.683594 L 247.226562 81.683594 L 247.226562 71.601562 C 246.847656 71.964844 246.347656 72.328125 245.730469 72.691406 C 245.109375 73.054688 244.554688 73.328125 244.0625 73.507812 L 244.0625 71.980469 C 244.949219 71.5625 245.722656 71.058594 246.382812 70.46875 C 247.046875 69.875 247.515625 69.300781 247.789062 68.742188 L 248.808594 68.742188 L 248.808594 81.683594 "/>
<path fill-rule="nonzero" fill="rgb(13.729858%, 12.159729%, 12.548828%)" fill-opacity="1" d="M 134.191406 145.308594 L 134.191406 128.128906 L 140.640625 128.128906 C 141.949219 128.128906 143.003906 128.300781 143.796875 128.648438 C 144.589844 128.996094 145.210938 129.53125 145.660156 130.253906 C 146.105469 130.976562 146.335938 131.730469 146.335938 132.523438 C 146.335938 133.253906 146.136719 133.945312 145.734375 134.59375 C 145.339844 135.242188 144.734375 135.765625 143.929688 136.167969 C 144.96875 136.46875 145.765625 136.992188 146.328125 137.722656 C 146.886719 138.460938 147.164062 139.328125 147.164062 140.328125 C 147.164062 141.132812 146.996094 141.878906 146.652344 142.570312 C 146.3125 143.261719 145.894531 143.792969 145.394531 144.171875 C 144.894531 144.546875 144.265625 144.828125 143.515625 145.019531 C 142.761719 145.210938 141.839844 145.308594 140.742188 145.308594 Z M 136.464844 135.347656 L 140.183594 135.347656 C 141.1875 135.347656 141.910156 135.277344 142.351562 135.148438 C 142.925781 134.976562 143.363281 134.691406 143.65625 134.289062 C 143.945312 133.890625 144.09375 133.390625 144.09375 132.789062 C 144.09375 132.222656 143.960938 131.71875 143.6875 131.285156 C 143.410156 130.851562 143.019531 130.554688 142.515625 130.394531 C 142.007812 130.234375 141.132812 130.15625 139.898438 130.15625 L 136.464844 130.15625 Z M 136.464844 143.277344 L 140.742188 143.277344 C 141.480469 143.277344 141.996094 143.25 142.289062 143.199219 C 142.8125 143.101562 143.25 142.945312 143.601562 142.726562 C 143.953125 142.511719 144.242188 142.191406 144.472656 141.773438 C 144.695312 141.355469 144.8125 140.875 144.8125 140.328125 C 144.8125 139.6875 144.644531 139.132812 144.316406 138.65625 C 143.992188 138.183594 143.535156 137.851562 142.949219 137.660156 C 142.371094 137.472656 141.53125 137.375 140.4375 137.375 L 136.464844 137.375 L 136.464844 143.277344 "/>
<path fill-rule="nonzero" fill="rgb(13.729858%, 12.159729%, 12.548828%)" fill-opacity="1" d="M 155.140625 153.496094 L 155.140625 155.019531 L 146.625 155.019531 C 146.613281 154.636719 146.671875 154.273438 146.808594 153.921875 C 147.023438 153.339844 147.371094 152.769531 147.847656 152.207031 C 148.328125 151.644531 149.019531 150.992188 149.921875 150.253906 C 151.320312 149.105469 152.269531 148.195312 152.761719 147.523438 C 153.253906 146.855469 153.496094 146.21875 153.496094 145.621094 C 153.496094 144.996094 153.273438 144.46875 152.824219 144.035156 C 152.375 143.605469 151.789062 143.390625 151.070312 143.390625 C 150.308594 143.390625 149.699219 143.617188 149.242188 144.078125 C 148.785156 144.535156 148.554688 145.167969 148.546875 145.972656 L 146.921875 145.808594 C 147.035156 144.59375 147.453125 143.667969 148.179688 143.035156 C 148.90625 142.398438 149.882812 142.082031 151.105469 142.082031 C 152.34375 142.082031 153.320312 142.425781 154.039062 143.109375 C 154.765625 143.796875 155.125 144.644531 155.125 145.660156 C 155.125 146.175781 155.019531 146.683594 154.804688 147.179688 C 154.597656 147.679688 154.246094 148.203125 153.757812 148.753906 C 153.269531 149.304688 152.453125 150.058594 151.316406 151.019531 C 150.367188 151.820312 149.761719 152.359375 149.488281 152.644531 C 149.21875 152.925781 148.996094 153.210938 148.820312 153.496094 L 155.140625 153.496094 "/>
<path fill-rule="nonzero" fill="rgb(13.729858%, 12.159729%, 12.548828%)" fill-opacity="1" d="M 215.320312 134.125 L 215.320312 132.003906 L 221.804688 132.003906 L 221.804688 134.125 L 215.320312 134.125 "/>
<path fill-rule="nonzero" fill="rgb(13.729858%, 12.159729%, 12.548828%)" fill-opacity="1" d="M 222.515625 139.28125 L 229.117188 122.097656 L 231.5625 122.097656 L 238.597656 139.28125 L 236.003906 139.28125 L 234 134.074219 L 226.816406 134.074219 L 224.933594 139.28125 Z M 227.472656 132.222656 L 233.300781 132.222656 L 231.503906 127.46875 C 230.960938 126.023438 230.550781 124.835938 230.289062 123.902344 C 230.066406 125.007812 229.761719 126.097656 229.359375 127.1875 L 227.472656 132.222656 "/>
<path fill-rule="nonzero" fill="rgb(13.729858%, 12.159729%, 12.548828%)" fill-opacity="1" d="M 247.398438 143.785156 L 247.398438 145.308594 L 238.882812 145.308594 C 238.871094 144.925781 238.929688 144.558594 239.066406 144.210938 C 239.28125 143.628906 239.628906 143.058594 240.105469 142.492188 C 240.585938 141.933594 241.277344 141.28125 242.175781 140.542969 C 243.578125 139.394531 244.523438 138.484375 245.015625 137.8125 C 245.507812 137.144531 245.753906 136.507812 245.753906 135.910156 C 245.753906 135.285156 245.53125 134.757812 245.082031 134.324219 C 244.632812 133.894531 244.046875 133.679688 243.328125 133.679688 C 242.566406 133.679688 241.957031 133.90625 241.5 134.367188 C 241.042969 134.820312 240.8125 135.457031 240.804688 136.261719 L 239.179688 136.097656 C 239.289062 134.882812 239.710938 133.957031 240.4375 133.324219 C 241.164062 132.6875 242.140625 132.367188 243.363281 132.367188 C 244.601562 132.367188 245.578125 132.714844 246.296875 133.398438 C 247.019531 134.085938 247.382812 134.933594 247.382812 135.945312 C 247.382812 136.464844 247.277344 136.96875 247.0625 137.46875 C 246.851562 137.964844 246.503906 138.492188 246.011719 139.039062 C 245.523438 139.59375 244.710938 140.347656 243.574219 141.308594 C 242.625 142.105469 242.015625 142.644531 241.746094 142.929688 C 241.476562 143.214844 241.253906 143.496094 241.078125 143.785156 L 247.398438 143.785156 "/>
</svg>
