<?xml version="1.0" encoding="UTF-8"?>
<svg xmlns="http://www.w3.org/2000/svg" xmlns:xlink="http://www.w3.org/1999/xlink" width="443" height="149" viewBox="0 0 443 149">
<path fill-rule="nonzero" fill="rgb(13.729858%, 12.159729%, 12.548828%)" fill-opacity="1" d="M 116.832031 36.757812 L 116.832031 21.605469 L 111.171875 21.605469 L 111.171875 19.578125 L 124.789062 19.578125 L 124.789062 21.605469 L 119.105469 21.605469 L 119.105469 36.757812 L 116.832031 36.757812 "/>
<path fill="none" stroke-width="19.9984" stroke-linecap="butt" stroke-linejoin="miter" stroke="rgb(13.729858%, 12.159729%, 12.548828%)" stroke-opacity="1" stroke-miterlimit="22.9256" d="M 1017.1875 1389.414062 L 1341.40625 1389.414062 L 1341.40625 1027.5 L 1017.1875 1027.5 Z M 1017.1875 1389.414062 " transform="matrix(0.1, 0, 0, -0.1, 0, 149)"/>
<path fill-rule="nonzero" fill="rgb(13.729858%, 12.159729%, 12.548828%)" fill-opacity="1" d="M 195.777344 35.367188 L 195.777344 20.214844 L 190.121094 20.214844 L 190.121094 18.1875 L 203.734375 18.1875 L 203.734375 20.214844 L 198.050781 20.214844 L 198.050781 35.367188 L 195.777344 35.367188 "/>
<path fill="none" stroke-width="19.9984" stroke-linecap="butt" stroke-linejoin="miter" stroke="rgb(13.729858%, 12.159729%, 12.548828%)" stroke-opacity="1" stroke-miterlimit="22.9256" d="M 1806.679688 1403.28125 L 2130.898438 1403.28125 L 2130.898438 1041.40625 L 1806.679688 1041.40625 Z M 1806.679688 1403.28125 " transform="matrix(0.1, 0, 0, -0.1, 0, 149)"/>
<path fill="none" stroke-width="19.9984" stroke-linecap="butt" stroke-linejoin="miter" stroke="rgb(13.729858%, 12.159729%, 12.548828%)" stroke-opacity="1" stroke-miterlimit="22.9256" d="M 441.601562 1211.445312 L 1011.171875 1211.445312 " transform="matrix(0.1, 0, 0, -0.1, 0, 149)"/>
<path fill="none" stroke-width="19.9984" stroke-linecap="butt" stroke-linejoin="miter" stroke="rgb(13.729858%, 12.159729%, 12.548828%)" stroke-opacity="1" stroke-miterlimit="22.9256" d="M 1349.335938 1217.34375 L 1806.171875 1217.34375 " transform="matrix(0.1, 0, 0, -0.1, 0, 149)"/>
<path fill="none" stroke-width="19.9984" stroke-linecap="butt" stroke-linejoin="miter" stroke="rgb(13.729858%, 12.159729%, 12.548828%)" stroke-opacity="1" stroke-miterlimit="22.9256" d="M 2130.898438 1229.21875 L 2953.398438 1229.21875 " transform="matrix(0.1, 0, 0, -0.1, 0, 149)"/>
<path fill-rule="evenodd" fill="rgb(13.729858%, 12.159729%, 12.548828%)" fill-opacity="1" d="M 294.515625 20.847656 L 304.019531 26.078125 L 294.515625 31.304688 Z M 294.515625 20.847656 "/>
<path fill="none" stroke-width="19.9984" stroke-linecap="butt" stroke-linejoin="miter" stroke="rgb(13.729858%, 12.159729%, 12.548828%)" stroke-opacity="1" stroke-miterlimit="22.9256" d="M 3230.078125 1419.0625 C 3338.164062 1419.0625 3425.859375 1331.40625 3425.859375 1223.28125 C 3425.859375 1115.195312 3338.164062 1027.5 3230.078125 1027.5 C 3121.953125 1027.5 3034.257812 1115.195312 3034.257812 1223.28125 C 3034.257812 1331.40625 3121.953125 1419.0625 3230.078125 1419.0625 Z M 3230.078125 1419.0625 " transform="matrix(0.1, 0, 0, -0.1, 0, 149)"/>
<path fill-rule="nonzero" fill="rgb(13.729858%, 12.159729%, 12.548828%)" fill-opacity="1" d="M 330.867188 34.382812 L 318.914062 34.382812 L 318.914062 33.949219 L 325.042969 26.601562 L 318.914062 18.914062 L 318.914062 18.492188 L 330.507812 18.492188 L 330.867188 22.453125 L 330.386719 22.453125 C 330.269531 21.375 329.972656 20.605469 329.492188 20.144531 C 329.011719 19.683594 328.320312 19.453125 327.410156 19.453125 L 321.953125 19.453125 L 326.953125 25.746094 L 321.320312 32.53125 L 327.527344 32.53125 C 328.566406 32.53125 329.347656 32.335938 329.867188 31.945312 C 330.386719 31.554688 330.820312 30.820312 331.164062 29.742188 L 331.597656 29.835938 L 330.867188 34.382812 "/>
<path fill="none" stroke-width="19.9984" stroke-linecap="butt" stroke-linejoin="miter" stroke="rgb(13.729858%, 12.159729%, 12.548828%)" stroke-opacity="1" stroke-miterlimit="22.9256" d="M 1577.734375 1217.34375 L 1580.703125 493.554688 L 2779.21875 493.554688 L 3075.039062 987.460938 " transform="matrix(0.1, 0, 0, -0.1, 0, 149)"/>
<path fill-rule="evenodd" fill="rgb(13.729858%, 12.159729%, 12.548828%)" fill-opacity="1" d="M 302.613281 48.28125 L 311.949219 42.828125 L 311.554688 53.636719 Z M 302.613281 48.28125 "/>
<path fill="none" stroke-width="19.9984" stroke-linecap="butt" stroke-linejoin="miter" stroke="rgb(13.729858%, 12.159729%, 12.548828%)" stroke-opacity="1" stroke-miterlimit="22.9256" d="M 696.71875 1211.445312 L 696.71875 18.90625 L 3239.375 18.90625 L 3230.859375 941.054688 " transform="matrix(0.1, 0, 0, -0.1, 0, 149)"/>
<path fill-rule="evenodd" fill="rgb(13.729858%, 12.159729%, 12.548828%)" fill-opacity="1" d="M 317.886719 55.761719 L 323.007812 46.25 L 328.300781 55.667969 Z M 317.886719 55.761719 "/>
<path fill="none" stroke-width="19.9984" stroke-linecap="butt" stroke-linejoin="miter" stroke="rgb(13.729858%, 12.159729%, 12.548828%)" stroke-opacity="1" stroke-miterlimit="22.9256" d="M 3425.859375 1223.28125 L 3908.59375 1223.28125 " transform="matrix(0.1, 0, 0, -0.1, 0, 149)"/>
<path fill-rule="evenodd" fill="rgb(13.729858%, 12.159729%, 12.548828%)" fill-opacity="1" d="M 390.035156 21.441406 L 399.539062 26.671875 L 390.035156 31.898438 Z M 390.035156 21.441406 "/>
<path fill-rule="evenodd" fill="rgb(13.729858%, 12.159729%, 12.548828%)" fill-opacity="1" d="M 157.773438 23.40625 C 159.902344 23.40625 161.632812 25.132812 161.632812 27.265625 C 161.632812 29.394531 159.902344 31.121094 157.773438 31.121094 C 155.644531 31.121094 153.917969 29.394531 153.917969 27.265625 C 153.917969 25.132812 155.644531 23.40625 157.773438 23.40625 "/>
<path fill="none" stroke-width="19.9984" stroke-linecap="butt" stroke-linejoin="miter" stroke="rgb(13.729858%, 12.159729%, 12.548828%)" stroke-opacity="1" stroke-miterlimit="22.9256" d="M 1577.734375 1255.9375 C 1599.023438 1255.9375 1616.328125 1238.671875 1616.328125 1217.34375 C 1616.328125 1196.054688 1599.023438 1178.789062 1577.734375 1178.789062 C 1556.445312 1178.789062 1539.179688 1196.054688 1539.179688 1217.34375 C 1539.179688 1238.671875 1556.445312 1255.9375 1577.734375 1255.9375 Z M 1577.734375 1255.9375 " transform="matrix(0.1, 0, 0, -0.1, 0, 149)"/>
<path fill-rule="evenodd" fill="rgb(13.729858%, 12.159729%, 12.548828%)" fill-opacity="1" d="M 69.671875 24 C 71.800781 24 73.527344 25.726562 73.527344 27.855469 C 73.527344 29.988281 71.800781 31.714844 69.671875 31.714844 C 67.539062 31.714844 65.8125 29.988281 65.8125 27.855469 C 65.8125 25.726562 67.539062 24 69.671875 24 "/>
<path fill="none" stroke-width="19.9984" stroke-linecap="butt" stroke-linejoin="miter" stroke="rgb(13.729858%, 12.159729%, 12.548828%)" stroke-opacity="1" stroke-miterlimit="22.9256" d="M 696.71875 1250 C 718.007812 1250 735.273438 1232.734375 735.273438 1211.445312 C 735.273438 1190.117188 718.007812 1172.851562 696.71875 1172.851562 C 675.390625 1172.851562 658.125 1190.117188 658.125 1211.445312 C 658.125 1232.734375 675.390625 1250 696.71875 1250 Z M 696.71875 1250 " transform="matrix(0.1, 0, 0, -0.1, 0, 149)"/>
<path fill-rule="nonzero" fill="rgb(13.729858%, 12.159729%, 12.548828%)" fill-opacity="1" d="M 219.621094 50.722656 L 219.621094 48.605469 L 226.105469 48.605469 L 226.105469 50.722656 L 219.621094 50.722656 "/>
<path fill-rule="nonzero" fill="rgb(13.729858%, 12.159729%, 12.548828%)" fill-opacity="1" d="M 238.9375 53.851562 L 238.9375 55.878906 L 227.582031 55.878906 C 227.566406 55.371094 227.644531 54.882812 227.824219 54.414062 C 228.113281 53.640625 228.578125 52.878906 229.214844 52.128906 C 229.851562 51.378906 230.773438 50.511719 231.972656 49.527344 C 233.839844 47.996094 235.105469 46.78125 235.761719 45.886719 C 236.417969 44.996094 236.746094 44.148438 236.746094 43.351562 C 236.746094 42.515625 236.445312 41.8125 235.851562 41.234375 C 235.25 40.664062 234.46875 40.375 233.507812 40.375 C 232.492188 40.375 231.679688 40.679688 231.074219 41.289062 C 230.460938 41.898438 230.152344 42.742188 230.144531 43.820312 L 227.976562 43.601562 C 228.125 41.980469 228.6875 40.746094 229.652344 39.898438 C 230.621094 39.050781 231.925781 38.628906 233.558594 38.628906 C 235.203125 38.628906 236.507812 39.085938 237.46875 40 C 238.433594 40.914062 238.914062 42.046875 238.914062 43.398438 C 238.914062 44.085938 238.773438 44.761719 238.488281 45.425781 C 238.210938 46.089844 237.742188 46.789062 237.089844 47.523438 C 236.4375 48.257812 235.355469 49.265625 233.839844 50.546875 C 232.574219 51.609375 231.761719 52.332031 231.402344 52.710938 C 231.039062 53.085938 230.746094 53.46875 230.507812 53.851562 L 238.9375 53.851562 "/>
<path fill-rule="nonzero" fill="rgb(13.729858%, 12.159729%, 12.548828%)" fill-opacity="1" d="M 249.90625 51.320312 L 251.976562 51.589844 C 251.753906 53.019531 251.171875 54.140625 250.238281 54.949219 C 249.304688 55.753906 248.15625 56.160156 246.796875 56.160156 C 245.097656 56.160156 243.726562 55.601562 242.691406 54.492188 C 241.65625 53.378906 241.136719 51.78125 241.136719 49.703125 C 241.136719 48.359375 241.359375 47.183594 241.804688 46.175781 C 242.253906 45.167969 242.929688 44.410156 243.839844 43.90625 C 244.75 43.402344 245.742188 43.152344 246.808594 43.152344 C 248.160156 43.152344 249.269531 43.496094 250.125 44.179688 C 250.984375 44.863281 251.539062 45.832031 251.78125 47.089844 L 249.730469 47.40625 C 249.53125 46.570312 249.1875 45.941406 248.691406 45.519531 C 248.195312 45.097656 247.597656 44.886719 246.894531 44.886719 C 245.828125 44.886719 244.964844 45.265625 244.300781 46.03125 C 243.636719 46.789062 243.304688 47.996094 243.304688 49.644531 C 243.304688 51.316406 243.625 52.53125 244.269531 53.292969 C 244.910156 54.046875 245.746094 54.425781 246.777344 54.425781 C 247.605469 54.425781 248.292969 54.171875 248.847656 53.664062 C 249.40625 53.15625 249.757812 52.375 249.90625 51.320312 "/>
<path fill-rule="nonzero" fill="rgb(13.729858%, 12.159729%, 12.548828%)" fill-opacity="1" d="M 252.996094 49.65625 C 252.996094 47.351562 253.636719 45.644531 254.921875 44.535156 C 255.988281 43.613281 257.292969 43.152344 258.835938 43.152344 C 260.546875 43.152344 261.945312 43.710938 263.03125 44.835938 C 264.117188 45.953125 264.65625 47.503906 264.65625 49.480469 C 264.65625 51.082031 264.417969 52.34375 263.9375 53.257812 C 263.457031 54.179688 262.757812 54.890625 261.84375 55.398438 C 260.921875 55.90625 259.921875 56.160156 258.835938 56.160156 C 257.09375 56.160156 255.6875 55.601562 254.609375 54.484375 C 253.535156 53.367188 252.996094 51.757812 252.996094 49.65625 Z M 255.164062 49.65625 C 255.164062 51.25 255.515625 52.445312 256.210938 53.234375 C 256.90625 54.03125 257.78125 54.425781 258.835938 54.425781 C 259.882812 54.425781 260.753906 54.027344 261.449219 53.230469 C 262.140625 52.433594 262.488281 51.21875 262.488281 49.585938 C 262.488281 48.046875 262.140625 46.878906 261.441406 46.085938 C 260.742188 45.296875 259.871094 44.898438 258.835938 44.898438 C 257.78125 44.898438 256.90625 45.296875 256.210938 46.085938 C 255.515625 46.871094 255.164062 48.0625 255.164062 49.65625 "/>
<path fill-rule="nonzero" fill="rgb(13.729858%, 12.159729%, 12.548828%)" fill-opacity="1" d="M 266.289062 52.164062 L 268.371094 51.835938 C 268.488281 52.671875 268.816406 53.3125 269.355469 53.757812 C 269.886719 54.203125 270.632812 54.425781 271.597656 54.425781 C 272.566406 54.425781 273.285156 54.226562 273.753906 53.835938 C 274.222656 53.441406 274.457031 52.976562 274.457031 52.449219 C 274.457031 51.96875 274.25 51.59375 273.835938 51.320312 C 273.546875 51.132812 272.824219 50.894531 271.679688 50.605469 C 270.132812 50.214844 269.058594 49.878906 268.460938 49.589844 C 267.867188 49.308594 267.410156 48.910156 267.101562 48.40625 C 266.792969 47.902344 266.636719 47.347656 266.636719 46.738281 C 266.636719 46.183594 266.765625 45.671875 267.023438 45.199219 C 267.273438 44.722656 267.621094 44.332031 268.058594 44.019531 C 268.386719 43.777344 268.835938 43.570312 269.398438 43.402344 C 269.964844 43.234375 270.574219 43.152344 271.222656 43.152344 C 272.199219 43.152344 273.054688 43.296875 273.792969 43.574219 C 274.535156 43.855469 275.078125 44.234375 275.429688 44.714844 C 275.78125 45.199219 276.023438 45.839844 276.152344 46.644531 L 274.09375 46.925781 C 273.996094 46.285156 273.726562 45.785156 273.277344 45.425781 C 272.828125 45.066406 272.195312 44.886719 271.375 44.886719 C 270.40625 44.886719 269.714844 45.046875 269.300781 45.367188 C 268.886719 45.6875 268.679688 46.0625 268.679688 46.492188 C 268.679688 46.769531 268.765625 47.011719 268.9375 47.230469 C 269.109375 47.460938 269.378906 47.644531 269.746094 47.796875 C 269.957031 47.871094 270.578125 48.050781 271.609375 48.332031 C 273.101562 48.730469 274.140625 49.054688 274.730469 49.3125 C 275.320312 49.5625 275.785156 49.933594 276.121094 50.417969 C 276.457031 50.902344 276.625 51.503906 276.625 52.222656 C 276.625 52.925781 276.417969 53.585938 276.011719 54.210938 C 275.597656 54.832031 275.007812 55.3125 274.234375 55.652344 C 273.460938 55.992188 272.585938 56.160156 271.609375 56.160156 C 269.988281 56.160156 268.757812 55.824219 267.910156 55.152344 C 267.0625 54.480469 266.523438 53.484375 266.289062 52.164062 "/>
<path fill-rule="nonzero" fill="rgb(13.729858%, 12.159729%, 12.548828%)" fill-opacity="1" d="M 287.042969 45.253906 L 287.042969 44.828125 C 288.363281 44.828125 289.441406 45.050781 290.277344 45.503906 C 291.113281 45.949219 291.785156 46.675781 292.296875 47.671875 C 292.808594 48.667969 293.066406 49.757812 293.066406 50.949219 C 293.066406 51.957031 292.867188 52.875 292.464844 53.710938 C 292.070312 54.546875 291.527344 55.179688 290.835938 55.601562 C 290.140625 56.03125 289.480469 56.242188 288.859375 56.242188 C 288.171875 56.242188 287.585938 56.046875 287.101562 55.65625 C 286.617188 55.269531 286.183594 54.660156 285.800781 53.839844 C 285.371094 54.667969 284.886719 55.277344 284.34375 55.664062 C 283.796875 56.046875 283.191406 56.242188 282.519531 56.242188 C 281.933594 56.242188 281.3125 56.035156 280.660156 55.617188 C 280.011719 55.199219 279.480469 54.550781 279.085938 53.683594 C 278.6875 52.8125 278.484375 51.867188 278.484375 50.851562 C 278.484375 49.75 278.710938 48.746094 279.152344 47.839844 C 279.496094 47.136719 279.9375 46.554688 280.472656 46.09375 C 281.011719 45.632812 281.578125 45.308594 282.179688 45.113281 C 282.78125 44.921875 283.546875 44.828125 284.472656 44.828125 L 284.472656 45.253906 C 283.390625 45.359375 282.492188 45.875 281.785156 46.789062 C 281.078125 47.710938 280.726562 49.058594 280.726562 50.839844 C 280.726562 52.597656 280.992188 53.886719 281.535156 54.707031 C 281.863281 55.199219 282.320312 55.449219 282.917969 55.449219 C 283.410156 55.449219 283.878906 55.242188 284.316406 54.835938 C 284.757812 54.429688 285.132812 53.695312 285.449219 52.632812 C 285.105469 51.71875 284.882812 51.039062 284.773438 50.59375 C 284.671875 50.148438 284.617188 49.722656 284.617188 49.316406 C 284.617188 48.558594 284.792969 47.90625 285.140625 47.359375 C 285.3125 47.085938 285.519531 46.953125 285.753906 46.953125 C 285.992188 46.953125 286.203125 47.085938 286.375 47.359375 C 286.710938 47.875 286.878906 48.503906 286.878906 49.246094 C 286.878906 50.152344 286.625 51.28125 286.117188 52.632812 C 286.421875 53.703125 286.777344 54.421875 287.191406 54.796875 C 287.597656 55.167969 288.0625 55.351562 288.578125 55.351562 C 289.1875 55.351562 289.679688 55.117188 290.054688 54.636719 C 290.5625 53.996094 290.8125 52.796875 290.8125 51.039062 C 290.8125 48.90625 290.34375 47.332031 289.398438 46.316406 C 288.824219 45.699219 288.042969 45.34375 287.042969 45.253906 "/>
<path fill-rule="nonzero" fill="rgb(13.729858%, 12.159729%, 12.548828%)" fill-opacity="1" d="M 290.988281 59.289062 C 290.988281 58.175781 291.105469 57.277344 291.335938 56.601562 C 291.5625 55.921875 291.90625 55.394531 292.355469 55.027344 C 292.808594 54.660156 293.378906 54.472656 294.0625 54.472656 C 294.570312 54.472656 295.011719 54.578125 295.394531 54.78125 C 295.777344 54.984375 296.089844 55.277344 296.339844 55.660156 C 296.589844 56.046875 296.785156 56.511719 296.925781 57.0625 C 297.066406 57.613281 297.136719 58.355469 297.136719 59.289062 C 297.136719 60.398438 297.023438 61.289062 296.796875 61.96875 C 296.566406 62.648438 296.226562 63.171875 295.777344 63.542969 C 295.324219 63.914062 294.753906 64.097656 294.0625 64.097656 C 293.152344 64.097656 292.441406 63.773438 291.921875 63.121094 C 291.300781 62.339844 290.988281 61.058594 290.988281 59.289062 Z M 292.179688 59.289062 C 292.179688 60.839844 292.359375 61.867188 292.722656 62.382812 C 293.085938 62.894531 293.53125 63.148438 294.0625 63.148438 C 294.59375 63.148438 295.039062 62.890625 295.402344 62.378906 C 295.765625 61.863281 295.945312 60.835938 295.945312 59.289062 C 295.945312 57.738281 295.765625 56.707031 295.402344 56.199219 C 295.039062 55.6875 294.589844 55.433594 294.050781 55.433594 C 293.519531 55.433594 293.09375 55.660156 292.777344 56.109375 C 292.378906 56.683594 292.179688 57.742188 292.179688 59.289062 "/>
<path fill-rule="nonzero" fill="rgb(13.729858%, 12.159729%, 12.548828%)" fill-opacity="1" d="M 287.449219 17.769531 L 285.339844 17.769531 L 285.339844 4.332031 C 284.832031 4.816406 284.167969 5.300781 283.34375 5.78125 C 282.515625 6.265625 281.777344 6.632812 281.121094 6.871094 L 281.121094 4.835938 C 282.300781 4.277344 283.332031 3.605469 284.21875 2.820312 C 285.097656 2.027344 285.726562 1.261719 286.09375 0.519531 L 287.449219 0.519531 L 287.449219 17.769531 "/>
<path fill-rule="nonzero" fill="rgb(13.729858%, 12.159729%, 12.548828%)" fill-opacity="1" d="M 316.796875 78.011719 L 314.6875 78.011719 L 314.6875 64.574219 C 314.179688 65.058594 313.515625 65.539062 312.691406 66.023438 C 311.863281 66.507812 311.125 66.871094 310.46875 67.113281 L 310.46875 65.078125 C 311.648438 64.519531 312.679688 63.847656 313.5625 63.0625 C 314.445312 62.269531 315.074219 61.503906 315.441406 60.761719 L 316.796875 60.761719 L 316.796875 78.011719 "/>
<path fill-rule="nonzero" fill="rgb(13.729858%, 12.159729%, 12.548828%)" fill-opacity="1" d="M 0.964844 32.878906 L 5.511719 26.410156 L 1.304688 20.4375 L 3.941406 20.4375 L 5.851562 23.351562 C 6.207031 23.910156 6.5 24.371094 6.714844 24.746094 C 7.058594 24.230469 7.375 23.777344 7.667969 23.378906 L 9.765625 20.4375 L 12.285156 20.4375 L 7.984375 26.296875 L 12.613281 32.878906 L 10.023438 32.878906 L 7.46875 29.011719 L 6.789062 27.96875 L 3.519531 32.878906 L 0.964844 32.878906 "/>
<path fill-rule="nonzero" fill="rgb(13.729858%, 12.159729%, 12.548828%)" fill-opacity="1" d="M 18.402344 37.933594 C 17.234375 36.464844 16.253906 34.746094 15.449219 32.777344 C 14.644531 30.804688 14.238281 28.769531 14.238281 26.65625 C 14.238281 24.796875 14.539062 23.015625 15.144531 21.3125 C 15.847656 19.335938 16.933594 17.367188 18.402344 15.40625 L 19.914062 15.40625 C 18.96875 17.03125 18.34375 18.191406 18.039062 18.886719 C 17.558594 19.964844 17.1875 21.09375 16.914062 22.265625 C 16.578125 23.726562 16.410156 25.191406 16.410156 26.667969 C 16.410156 30.429688 17.578125 34.179688 19.914062 37.933594 L 18.402344 37.933594 "/>
<path fill-rule="nonzero" fill="rgb(13.729858%, 12.159729%, 12.548828%)" fill-opacity="1" d="M 22.363281 32.878906 L 22.363281 20.4375 L 24.261719 20.4375 L 24.261719 22.203125 C 25.175781 20.835938 26.496094 20.152344 28.21875 20.152344 C 28.972656 20.152344 29.660156 20.289062 30.289062 20.554688 C 30.921875 20.828125 31.386719 21.179688 31.699219 21.621094 C 32.015625 22.054688 32.230469 22.578125 32.359375 23.175781 C 32.4375 23.566406 32.476562 24.253906 32.476562 25.230469 L 32.476562 32.878906 L 30.363281 32.878906 L 30.363281 25.308594 C 30.363281 24.453125 30.285156 23.808594 30.121094 23.378906 C 29.957031 22.957031 29.664062 22.617188 29.246094 22.363281 C 28.828125 22.109375 28.339844 21.980469 27.777344 21.980469 C 26.875 21.980469 26.105469 22.269531 25.449219 22.835938 C 24.796875 23.410156 24.472656 24.488281 24.472656 26.085938 L 24.472656 32.878906 L 22.363281 32.878906 "/>
<path fill-rule="nonzero" fill="rgb(13.729858%, 12.159729%, 12.548828%)" fill-opacity="1" d="M 37.09375 37.933594 L 35.582031 37.933594 C 37.917969 34.179688 39.085938 30.429688 39.085938 26.667969 C 39.085938 25.199219 38.917969 23.746094 38.582031 22.296875 C 38.316406 21.128906 37.945312 20 37.46875 18.925781 C 37.164062 18.222656 36.535156 17.046875 35.582031 15.40625 L 37.09375 15.40625 C 38.558594 17.367188 39.648438 19.335938 40.351562 21.3125 C 40.953125 23.015625 41.253906 24.796875 41.253906 26.65625 C 41.253906 28.769531 40.847656 30.804688 40.039062 32.777344 C 39.230469 34.746094 38.25 36.464844 37.09375 37.933594 "/>
<path fill-rule="nonzero" fill="rgb(13.729858%, 12.159729%, 12.548828%)" fill-opacity="1" d="M 403.339844 37.078125 L 403.105469 35.097656 C 403.570312 35.222656 403.96875 35.285156 404.3125 35.285156 C 404.78125 35.285156 405.15625 35.207031 405.4375 35.050781 C 405.722656 34.894531 405.949219 34.679688 406.128906 34.394531 C 406.265625 34.1875 406.476562 33.664062 406.773438 32.828125 C 406.8125 32.707031 406.878906 32.539062 406.960938 32.3125 L 402.242188 19.84375 L 404.511719 19.84375 L 407.105469 27.046875 C 407.4375 27.964844 407.742188 28.921875 408.003906 29.929688 C 408.25 28.964844 408.539062 28.019531 408.871094 27.09375 L 411.53125 19.84375 L 413.640625 19.84375 L 408.910156 32.5 C 408.402344 33.867188 408.003906 34.808594 407.726562 35.324219 C 407.351562 36.019531 406.921875 36.527344 406.4375 36.851562 C 405.949219 37.175781 405.371094 37.339844 404.699219 37.339844 C 404.292969 37.339844 403.839844 37.25 403.339844 37.078125 "/>
<path fill-rule="nonzero" fill="rgb(13.729858%, 12.159729%, 12.548828%)" fill-opacity="1" d="M 419.464844 37.339844 C 418.300781 35.871094 417.316406 34.152344 416.515625 32.183594 C 415.710938 30.210938 415.304688 28.175781 415.304688 26.0625 C 415.304688 24.203125 415.605469 22.421875 416.210938 20.71875 C 416.914062 18.742188 417.996094 16.773438 419.464844 14.816406 L 420.976562 14.816406 C 420.035156 16.4375 419.410156 17.597656 419.105469 18.296875 C 418.625 19.371094 418.253906 20.5 417.976562 21.671875 C 417.640625 23.132812 417.472656 24.597656 417.472656 26.074219 C 417.472656 29.835938 418.640625 33.585938 420.976562 37.339844 L 419.464844 37.339844 "/>
<path fill-rule="nonzero" fill="rgb(13.729858%, 12.159729%, 12.548828%)" fill-opacity="1" d="M 423.429688 32.285156 L 423.429688 19.84375 L 425.324219 19.84375 L 425.324219 21.609375 C 426.242188 20.242188 427.5625 19.558594 429.285156 19.558594 C 430.039062 19.558594 430.726562 19.695312 431.355469 19.964844 C 431.984375 20.234375 432.453125 20.585938 432.765625 21.027344 C 433.082031 21.464844 433.296875 21.984375 433.425781 22.582031 C 433.503906 22.976562 433.539062 23.660156 433.539062 24.636719 L 433.539062 32.285156 L 431.429688 32.285156 L 431.429688 24.714844 C 431.429688 23.859375 431.351562 23.214844 431.1875 22.785156 C 431.019531 22.363281 430.730469 22.023438 430.3125 21.769531 C 429.894531 21.515625 429.40625 21.386719 428.839844 21.386719 C 427.941406 21.386719 427.171875 21.675781 426.515625 22.242188 C 425.863281 22.816406 425.539062 23.894531 425.539062 25.492188 L 425.539062 32.285156 L 423.429688 32.285156 "/>
<path fill-rule="nonzero" fill="rgb(13.729858%, 12.159729%, 12.548828%)" fill-opacity="1" d="M 438.15625 37.339844 L 436.644531 37.339844 C 438.980469 33.585938 440.148438 29.835938 440.148438 26.074219 C 440.148438 24.605469 439.980469 23.152344 439.644531 21.703125 C 439.382812 20.535156 439.011719 19.40625 438.535156 18.332031 C 438.230469 17.628906 437.601562 16.453125 436.644531 14.816406 L 438.15625 14.816406 C 439.625 16.773438 440.714844 18.742188 441.417969 20.71875 C 442.019531 22.421875 442.316406 24.203125 442.316406 26.0625 C 442.316406 28.175781 441.914062 30.210938 441.105469 32.183594 C 440.296875 34.152344 439.3125 35.871094 438.15625 37.339844 "/>
</svg>
