<?xml version="1.0" encoding="UTF-8"?>
<svg xmlns="http://www.w3.org/2000/svg" xmlns:xlink="http://www.w3.org/1999/xlink" width="718" height="157" viewBox="0 0 718 157">
<path fill="none" stroke-width="27.7054" stroke-linecap="butt" stroke-linejoin="miter" stroke="rgb(13.729858%, 12.159729%, 12.548828%)" stroke-opacity="1" stroke-miterlimit="22.9256" d="M 1469.414062 1318.203125 L 1469.414062 1076.210938 L 1201.601562 1076.210938 L 1201.601562 1318.203125 Z M 1469.414062 1318.203125 " transform="matrix(0.1, 0, 0, -0.1, 0, 157)"/>
<path fill="none" stroke-width="27.7054" stroke-linecap="butt" stroke-linejoin="miter" stroke="rgb(13.729858%, 12.159729%, 12.548828%)" stroke-opacity="1" stroke-miterlimit="22.9256" d="M 2252.929688 1326.484375 L 2252.929688 1084.53125 L 1985.117188 1084.53125 L 1985.117188 1326.484375 Z M 2252.929688 1326.484375 " transform="matrix(0.1, 0, 0, -0.1, 0, 157)"/>
<path fill="none" stroke-width="27.7054" stroke-linecap="butt" stroke-linejoin="miter" stroke="rgb(13.729858%, 12.159729%, 12.548828%)" stroke-opacity="1" stroke-miterlimit="22.9256" d="M 3166.914062 1327.109375 L 3166.914062 1085.15625 L 2899.101562 1085.15625 L 2899.101562 1327.109375 Z M 3166.914062 1327.109375 " transform="matrix(0.1, 0, 0, -0.1, 0, 157)"/>
<path fill="none" stroke-width="27.7054" stroke-linecap="butt" stroke-linejoin="miter" stroke="rgb(13.729858%, 12.159729%, 12.548828%)" stroke-opacity="1" stroke-miterlimit="22.9256" d="M 4464.648438 1327.734375 L 4464.648438 1085.78125 L 4196.835938 1085.78125 L 4196.835938 1327.734375 Z M 4464.648438 1327.734375 " transform="matrix(0.1, 0, 0, -0.1, 0, 157)"/>
<path fill="none" stroke-width="37.9881" stroke-linecap="butt" stroke-linejoin="miter" stroke="rgb(13.729858%, 12.159729%, 12.548828%)" stroke-opacity="1" stroke-miterlimit="22.9256" d="M 1421.972737 921.13573 L 1421.972737 672.929553 " transform="matrix(0.0729318, 0, 0, -0.127068, 0, 157)"/>
<path fill="none" stroke-width="25.6867" stroke-linecap="butt" stroke-linejoin="miter" stroke="rgb(13.729858%, 12.159729%, 12.548828%)" stroke-opacity="1" stroke-miterlimit="22.9256" d="M -1789.872153 890.902211 L -1789.872153 1193.150948 L -1468.671055 1193.150948 " transform="matrix(-0.100149, 0, 0, -0.0998505, 0, 157)"/>
<path fill="none" stroke-width="25.6867" stroke-linecap="butt" stroke-linejoin="miter" stroke="rgb(13.729858%, 12.159729%, 12.548828%)" stroke-opacity="1" stroke-miterlimit="22.9256" d="M -2572.222077 899.19586 L -2572.222077 1201.483718 L -2251.020979 1201.483718 " transform="matrix(-0.100149, 0, 0, -0.0998505, 0, 157)"/>
<path fill="none" stroke-width="25.6867" stroke-linecap="butt" stroke-linejoin="miter" stroke="rgb(13.729858%, 12.159729%, 12.548828%)" stroke-opacity="1" stroke-miterlimit="22.9256" d="M -3484.846641 899.821796 L -3484.846641 1202.109654 L -3163.645543 1202.109654 " transform="matrix(-0.100149, 0, 0, -0.0998505, 0, 157)"/>
<path fill="none" stroke-width="25.6867" stroke-linecap="butt" stroke-linejoin="miter" stroke="rgb(13.729858%, 12.159729%, 12.548828%)" stroke-opacity="1" stroke-miterlimit="22.9256" d="M -4780.650269 900.447732 L -4780.650269 1202.73559 L -4459.449171 1202.73559 " transform="matrix(-0.100149, 0, 0, -0.0998505, 0, 157)"/>
<path fill-rule="evenodd" fill="rgb(13.729858%, 12.159729%, 12.548828%)" fill-opacity="1" d="M 137.617188 31.828125 L 137.617188 33.214844 L 133.828125 33.214844 L 133.828125 42.910156 L 132.351562 42.910156 L 132.351562 33.214844 L 128.566406 33.214844 L 128.566406 31.828125 L 137.617188 31.828125 "/>
<path fill-rule="evenodd" fill="rgb(13.729858%, 12.159729%, 12.548828%)" fill-opacity="1" d="M 215.964844 31 L 215.964844 32.386719 L 212.179688 32.386719 L 212.179688 42.082031 L 210.703125 42.082031 L 210.703125 32.386719 L 206.914062 32.386719 L 206.914062 31 L 215.964844 31 "/>
<path fill-rule="evenodd" fill="rgb(13.729858%, 12.159729%, 12.548828%)" fill-opacity="1" d="M 307.363281 30.9375 L 307.363281 32.324219 L 303.578125 32.324219 L 303.578125 42.019531 L 302.101562 42.019531 L 302.101562 32.324219 L 298.3125 32.324219 L 298.3125 30.9375 L 307.363281 30.9375 "/>
<path fill-rule="evenodd" fill="rgb(13.729858%, 12.159729%, 12.548828%)" fill-opacity="1" d="M 437.140625 30.875 L 437.140625 32.261719 L 433.351562 32.261719 L 433.351562 41.957031 L 431.875 41.957031 L 431.875 32.261719 L 428.089844 32.261719 L 428.089844 30.875 L 437.140625 30.875 "/>
<path fill="none" stroke-width="25.6998" stroke-linecap="butt" stroke-linejoin="miter" stroke="rgb(13.729858%, 12.159729%, 12.548828%)" stroke-opacity="1" stroke-miterlimit="22.9256" d="M 463.134827 1181.754388 L 1049.101572 1181.754388 " transform="matrix(0.100175, 0, 0, -0.0998251, 0, 157)"/>
<path fill="none" stroke-width="21.7305" stroke-linecap="butt" stroke-linejoin="miter" stroke="rgb(13.729858%, 12.159729%, 12.548828%)" stroke-opacity="1" stroke-miterlimit="22.9256" d="M 4628.27682 1025.771542 L 5123.726067 1025.771542 " transform="matrix(0.0819411, 0, 0, -0.118059, 0, 157)"/>
<path fill="none" stroke-width="15.9551" stroke-linecap="butt" stroke-linejoin="miter" stroke="rgb(13.729858%, 12.159729%, 12.548828%)" stroke-opacity="1" stroke-miterlimit="22.9256" d="M 8878.728562 748.361452 L 9242.494095 748.361452 " transform="matrix(0.0392058, 0, 0, -0.160794, 0, 157)"/>
<path fill="none" stroke-width="17.1859" stroke-linecap="butt" stroke-linejoin="miter" stroke="rgb(13.729858%, 12.159729%, 12.548828%)" stroke-opacity="1" stroke-miterlimit="22.9256" d="M 3527.430336 800.964685 L 3919.272913 800.964685 " transform="matrix(0.0507219, 0, 0, -0.149278, 0, 157)"/>
<path fill="none" stroke-width="19.21" stroke-linecap="butt" stroke-linejoin="miter" stroke="rgb(13.729858%, 12.159729%, 12.548828%)" stroke-opacity="1" stroke-miterlimit="22.9256" d="M 3906.279392 895.767892 L 4344.222861 895.767892 " transform="matrix(0.0664505, 0, 0, -0.133549, 0, 157)"/>
<path fill="none" stroke-width="20.0013" stroke-linecap="butt" stroke-linejoin="miter" stroke="rgb(13.729858%, 12.159729%, 12.548828%)" stroke-opacity="1" stroke-miterlimit="22.9256" d="M 863.203125 297.226562 L 5381.25 297.226562 L 5381.25 12.734375 L 863.203125 12.734375 Z M 863.203125 297.226562 " transform="matrix(0.1, 0, 0, -0.1, 0, 157)"/>
<path fill-rule="nonzero" fill="rgb(13.729858%, 12.159729%, 12.548828%)" fill-opacity="1" d="M 312.363281 148.144531 L 300.867188 148.144531 L 300.867188 147.726562 L 306.761719 140.660156 L 300.867188 133.261719 L 300.867188 132.855469 L 312.015625 132.855469 L 312.363281 136.667969 L 311.902344 136.667969 C 311.789062 135.628906 311.503906 134.890625 311.039062 134.445312 C 310.578125 134.003906 309.910156 133.78125 309.039062 133.78125 L 303.785156 133.78125 L 308.601562 139.835938 L 303.179688 146.363281 L 309.148438 146.363281 C 310.152344 146.363281 310.902344 146.171875 311.402344 145.800781 C 311.902344 145.421875 312.316406 144.714844 312.648438 143.679688 L 313.0625 143.769531 L 312.363281 148.144531 "/>
<path fill="none" stroke-width="20.0013" stroke-linecap="butt" stroke-linejoin="miter" stroke="rgb(13.729858%, 12.159729%, 12.548828%)" stroke-opacity="1" stroke-miterlimit="22.9256" d="M 1035.625 575.117188 L 1203.4375 865.742188 L 867.8125 865.742188 Z M 1035.625 575.117188 " transform="matrix(0.1, 0, 0, -0.1, 0, 157)"/>
<path fill="none" stroke-width="20.0013" stroke-linecap="butt" stroke-linejoin="miter" stroke="rgb(13.729858%, 12.159729%, 12.548828%)" stroke-opacity="1" stroke-miterlimit="22.9256" d="M 1789.882812 590.46875 L 1957.695312 881.09375 L 1622.109375 881.09375 Z M 1789.882812 590.46875 " transform="matrix(0.1, 0, 0, -0.1, 0, 157)"/>
<path fill="none" stroke-width="20.0013" stroke-linecap="butt" stroke-linejoin="miter" stroke="rgb(13.729858%, 12.159729%, 12.548828%)" stroke-opacity="1" stroke-miterlimit="22.9256" d="M 2573.398438 598.789062 L 2741.171875 889.414062 L 2405.585938 889.414062 Z M 2573.398438 598.789062 " transform="matrix(0.1, 0, 0, -0.1, 0, 157)"/>
<path fill="none" stroke-width="20.0013" stroke-linecap="butt" stroke-linejoin="miter" stroke="rgb(13.729858%, 12.159729%, 12.548828%)" stroke-opacity="1" stroke-miterlimit="22.9256" d="M 3487.382812 599.414062 L 3655.15625 890.039062 L 3319.570312 890.039062 Z M 3487.382812 599.414062 " transform="matrix(0.1, 0, 0, -0.1, 0, 157)"/>
<path fill="none" stroke-width="20.0013" stroke-linecap="butt" stroke-linejoin="miter" stroke="rgb(13.729858%, 12.159729%, 12.548828%)" stroke-opacity="1" stroke-miterlimit="22.9256" d="M 4785.117188 600 L 4952.929688 890.625 L 4617.34375 890.625 Z M 4785.117188 600 " transform="matrix(0.1, 0, 0, -0.1, 0, 157)"/>
<path fill="none" stroke-width="20.0013" stroke-linecap="butt" stroke-linejoin="miter" stroke="rgb(13.729858%, 12.159729%, 12.548828%)" stroke-opacity="1" stroke-miterlimit="22.9256" d="M 1035.625 570.585938 L 1035.625 381.5625 " transform="matrix(0.1, 0, 0, -0.1, 0, 157)"/>
<path fill-rule="evenodd" fill="rgb(13.729858%, 12.159729%, 12.548828%)" fill-opacity="1" d="M 108.789062 118.023438 L 103.5625 127.527344 L 98.335938 118.023438 Z M 108.789062 118.023438 "/>
<path fill="none" stroke-width="20.0013" stroke-linecap="butt" stroke-linejoin="miter" stroke="rgb(13.729858%, 12.159729%, 12.548828%)" stroke-opacity="1" stroke-miterlimit="22.9256" d="M 1791.757812 587.851562 L 1791.757812 381.5625 " transform="matrix(0.1, 0, 0, -0.1, 0, 157)"/>
<path fill-rule="evenodd" fill="rgb(13.729858%, 12.159729%, 12.548828%)" fill-opacity="1" d="M 184.40625 118.023438 L 179.175781 127.527344 L 173.949219 118.023438 Z M 184.40625 118.023438 "/>
<path fill="none" stroke-width="20.0013" stroke-linecap="butt" stroke-linejoin="miter" stroke="rgb(13.729858%, 12.159729%, 12.548828%)" stroke-opacity="1" stroke-miterlimit="22.9256" d="M 2575.273438 596.132812 L 2575.273438 389.84375 " transform="matrix(0.1, 0, 0, -0.1, 0, 157)"/>
<path fill-rule="evenodd" fill="rgb(13.729858%, 12.159729%, 12.548828%)" fill-opacity="1" d="M 262.753906 117.191406 L 257.527344 126.695312 L 252.300781 117.191406 Z M 262.753906 117.191406 "/>
<path fill="none" stroke-width="20.0013" stroke-linecap="butt" stroke-linejoin="miter" stroke="rgb(13.729858%, 12.159729%, 12.548828%)" stroke-opacity="1" stroke-miterlimit="22.9256" d="M 3489.257812 596.757812 L 3489.257812 390.46875 " transform="matrix(0.1, 0, 0, -0.1, 0, 157)"/>
<path fill-rule="evenodd" fill="rgb(13.729858%, 12.159729%, 12.548828%)" fill-opacity="1" d="M 354.152344 117.128906 L 348.925781 126.636719 L 343.699219 117.128906 Z M 354.152344 117.128906 "/>
<path fill="none" stroke-width="20.0013" stroke-linecap="butt" stroke-linejoin="miter" stroke="rgb(13.729858%, 12.159729%, 12.548828%)" stroke-opacity="1" stroke-miterlimit="22.9256" d="M 4786.992188 597.382812 L 4786.992188 391.054688 " transform="matrix(0.1, 0, 0, -0.1, 0, 157)"/>
<path fill-rule="evenodd" fill="rgb(13.729858%, 12.159729%, 12.548828%)" fill-opacity="1" d="M 483.929688 117.070312 L 478.699219 126.574219 L 473.472656 117.070312 Z M 483.929688 117.070312 "/>
<path fill="none" stroke-width="20.0013" stroke-linecap="butt" stroke-linejoin="miter" stroke="rgb(13.729858%, 12.159729%, 12.548828%)" stroke-opacity="1" stroke-miterlimit="22.9256" d="M 5383.242188 156.796875 L 5556.796875 156.796875 " transform="matrix(0.1, 0, 0, -0.1, 0, 157)"/>
<path fill-rule="evenodd" fill="rgb(13.729858%, 12.159729%, 12.548828%)" fill-opacity="1" d="M 554.855469 136.089844 L 564.359375 141.320312 L 554.855469 146.546875 Z M 554.855469 136.089844 "/>
<path fill="none" stroke-width="20.0013" stroke-linecap="butt" stroke-linejoin="miter" stroke="rgb(13.729858%, 12.159729%, 12.548828%)" stroke-opacity="1" stroke-miterlimit="22.9256" d="M 6130.9375 161.289062 L 6304.492188 161.289062 " transform="matrix(0.1, 0, 0, -0.1, 0, 157)"/>
<path fill-rule="evenodd" fill="rgb(13.729858%, 12.159729%, 12.548828%)" fill-opacity="1" d="M 629.625 135.644531 L 639.128906 140.871094 L 629.625 146.101562 Z M 629.625 135.644531 "/>
<path fill-rule="evenodd" fill="rgb(13.729858%, 12.159729%, 12.548828%)" fill-opacity="1" d="M 104.214844 33.324219 C 106.746094 33.324219 108.800781 35.570312 108.800781 38.339844 C 108.800781 41.109375 106.746094 43.355469 104.214844 43.355469 C 101.679688 43.355469 99.625 41.109375 99.625 38.339844 C 99.625 35.570312 101.679688 33.324219 104.214844 33.324219 "/>
<path fill="none" stroke-width="20.0013" stroke-linecap="butt" stroke-linejoin="miter" stroke="rgb(13.729858%, 12.159729%, 12.548828%)" stroke-opacity="1" stroke-miterlimit="22.9256" d="M 1042.148438 1236.757812 C 1067.460938 1236.757812 1088.007812 1214.296875 1088.007812 1186.601562 C 1088.007812 1158.90625 1067.460938 1136.445312 1042.148438 1136.445312 C 1016.796875 1136.445312 996.25 1158.90625 996.25 1186.601562 C 996.25 1214.296875 1016.796875 1236.757812 1042.148438 1236.757812 Z M 1042.148438 1236.757812 " transform="matrix(0.1, 0, 0, -0.1, 0, 157)"/>
<path fill-rule="evenodd" fill="rgb(13.729858%, 12.159729%, 12.548828%)" fill-opacity="1" d="M 178.726562 31.726562 C 181.261719 31.726562 183.3125 33.972656 183.3125 36.742188 C 183.3125 39.511719 181.261719 41.757812 178.726562 41.757812 C 176.191406 41.757812 174.136719 39.511719 174.136719 36.742188 C 174.136719 33.972656 176.191406 31.726562 178.726562 31.726562 "/>
<path fill="none" stroke-width="20.0013" stroke-linecap="butt" stroke-linejoin="miter" stroke="rgb(13.729858%, 12.159729%, 12.548828%)" stroke-opacity="1" stroke-miterlimit="22.9256" d="M 1787.265625 1252.734375 C 1812.617188 1252.734375 1833.125 1230.273438 1833.125 1202.578125 C 1833.125 1174.882812 1812.617188 1152.421875 1787.265625 1152.421875 C 1761.914062 1152.421875 1741.367188 1174.882812 1741.367188 1202.578125 C 1741.367188 1230.273438 1761.914062 1252.734375 1787.265625 1252.734375 Z M 1787.265625 1252.734375 " transform="matrix(0.1, 0, 0, -0.1, 0, 157)"/>
<path fill-rule="evenodd" fill="rgb(13.729858%, 12.159729%, 12.548828%)" fill-opacity="1" d="M 257.84375 31.664062 C 260.378906 31.664062 262.433594 33.910156 262.433594 36.679688 C 262.433594 39.449219 260.378906 41.695312 257.84375 41.695312 C 255.308594 41.695312 253.253906 39.449219 253.253906 36.679688 C 253.253906 33.910156 255.308594 31.664062 257.84375 31.664062 "/>
<path fill="none" stroke-width="20.0013" stroke-linecap="butt" stroke-linejoin="miter" stroke="rgb(13.729858%, 12.159729%, 12.548828%)" stroke-opacity="1" stroke-miterlimit="22.9256" d="M 2578.4375 1253.359375 C 2603.789062 1253.359375 2624.335938 1230.898438 2624.335938 1203.203125 C 2624.335938 1175.507812 2603.789062 1153.046875 2578.4375 1153.046875 C 2553.085938 1153.046875 2532.539062 1175.507812 2532.539062 1203.203125 C 2532.539062 1230.898438 2553.085938 1253.359375 2578.4375 1253.359375 Z M 2578.4375 1253.359375 " transform="matrix(0.1, 0, 0, -0.1, 0, 157)"/>
<path fill-rule="evenodd" fill="rgb(13.729858%, 12.159729%, 12.548828%)" fill-opacity="1" d="M 350.011719 30.835938 C 352.542969 30.835938 354.597656 33.082031 354.597656 35.851562 C 354.597656 38.621094 352.542969 40.867188 350.011719 40.867188 C 347.476562 40.867188 345.421875 38.621094 345.421875 35.851562 C 345.421875 33.082031 347.476562 30.835938 350.011719 30.835938 "/>
<path fill="none" stroke-width="20.0013" stroke-linecap="butt" stroke-linejoin="miter" stroke="rgb(13.729858%, 12.159729%, 12.548828%)" stroke-opacity="1" stroke-miterlimit="22.9256" d="M 3500.117188 1261.640625 C 3525.429688 1261.640625 3545.976562 1239.179688 3545.976562 1211.484375 C 3545.976562 1183.789062 3525.429688 1161.328125 3500.117188 1161.328125 C 3474.765625 1161.328125 3454.21875 1183.789062 3454.21875 1211.484375 C 3454.21875 1239.179688 3474.765625 1261.640625 3500.117188 1261.640625 Z M 3500.117188 1261.640625 " transform="matrix(0.1, 0, 0, -0.1, 0, 157)"/>
<path fill-rule="nonzero" fill="rgb(13.729858%, 12.159729%, 12.548828%)" fill-opacity="1" d="M 195.886719 94.578125 L 195.886719 78.050781 L 197.914062 78.050781 L 197.914062 83.980469 C 198.863281 82.882812 200.058594 82.332031 201.503906 82.332031 C 202.386719 82.332031 203.15625 82.511719 203.8125 82.859375 C 204.464844 83.207031 204.933594 83.691406 205.214844 84.308594 C 205.496094 84.921875 205.636719 85.820312 205.636719 86.988281 L 205.636719 94.578125 L 203.605469 94.578125 L 203.605469 86.988281 C 203.605469 85.976562 203.386719 85.238281 202.949219 84.777344 C 202.511719 84.316406 201.886719 84.082031 201.082031 84.082031 C 200.480469 84.082031 199.914062 84.238281 199.386719 84.550781 C 198.855469 84.859375 198.476562 85.285156 198.253906 85.820312 C 198.027344 86.351562 197.914062 87.089844 197.914062 88.027344 L 197.914062 94.578125 L 195.886719 94.578125 "/>
<path fill-rule="nonzero" fill="rgb(13.729858%, 12.159729%, 12.548828%)" fill-opacity="1" d="M 212.601562 99.4375 C 211.484375 98.027344 210.535156 96.371094 209.761719 94.476562 C 208.988281 92.582031 208.601562 90.621094 208.601562 88.589844 C 208.601562 86.800781 208.890625 85.089844 209.472656 83.449219 C 210.148438 81.546875 211.191406 79.65625 212.601562 77.769531 L 214.058594 77.769531 C 213.148438 79.332031 212.550781 80.449219 212.257812 81.117188 C 211.796875 82.152344 211.4375 83.238281 211.171875 84.363281 C 210.847656 85.769531 210.6875 87.179688 210.6875 88.601562 C 210.6875 92.21875 211.8125 95.828125 214.058594 99.4375 L 212.601562 99.4375 "/>
<path fill-rule="nonzero" fill="rgb(13.729858%, 12.159729%, 12.548828%)" fill-opacity="1" d="M 223.492188 94.578125 L 221.464844 94.578125 L 221.464844 81.648438 C 220.976562 82.113281 220.339844 82.578125 219.546875 83.046875 C 218.746094 83.511719 218.035156 83.859375 217.40625 84.09375 L 217.40625 82.132812 C 218.539062 81.597656 219.53125 80.953125 220.382812 80.195312 C 221.230469 79.433594 221.835938 78.695312 222.1875 77.980469 L 223.492188 77.980469 L 223.492188 94.578125 "/>
<path fill-rule="nonzero" fill="rgb(13.729858%, 12.159729%, 12.548828%)" fill-opacity="1" d="M 230.585938 99.4375 L 229.128906 99.4375 C 231.378906 95.828125 232.5 92.21875 232.5 88.601562 C 232.5 87.191406 232.339844 85.789062 232.015625 84.394531 C 231.761719 83.273438 231.402344 82.1875 230.945312 81.152344 C 230.652344 80.472656 230.050781 79.347656 229.128906 77.769531 L 230.585938 77.769531 C 231.996094 79.65625 233.042969 81.546875 233.722656 83.449219 C 234.296875 85.089844 234.585938 86.800781 234.585938 88.589844 C 234.585938 90.621094 234.199219 92.582031 233.421875 94.476562 C 232.644531 96.371094 231.695312 98.027344 230.585938 99.4375 "/>
<path fill-rule="nonzero" fill="rgb(13.729858%, 12.159729%, 12.548828%)" fill-opacity="1" d="M 272.703125 92.214844 L 272.703125 75.6875 L 274.730469 75.6875 L 274.730469 81.617188 C 275.675781 80.519531 276.875 79.96875 278.316406 79.96875 C 279.203125 79.96875 279.972656 80.144531 280.625 80.496094 C 281.28125 80.84375 281.75 81.328125 282.03125 81.941406 C 282.3125 82.558594 282.453125 83.457031 282.453125 84.625 L 282.453125 92.214844 L 280.421875 92.214844 L 280.421875 84.625 C 280.421875 83.613281 280.203125 82.875 279.765625 82.410156 C 279.324219 81.949219 278.703125 81.714844 277.898438 81.714844 C 277.296875 81.714844 276.730469 81.875 276.199219 82.183594 C 275.671875 82.496094 275.292969 82.921875 275.070312 83.457031 C 274.84375 83.984375 274.730469 84.726562 274.730469 85.664062 L 274.730469 92.214844 L 272.703125 92.214844 "/>
<path fill-rule="nonzero" fill="rgb(13.729858%, 12.159729%, 12.548828%)" fill-opacity="1" d="M 289.417969 97.074219 C 288.300781 95.660156 287.351562 94.007812 286.578125 92.113281 C 285.804688 90.214844 285.417969 88.257812 285.417969 86.226562 C 285.417969 84.4375 285.703125 82.722656 286.285156 81.085938 C 286.964844 79.183594 288.007812 77.289062 289.417969 75.40625 L 290.871094 75.40625 C 289.964844 76.96875 289.363281 78.082031 289.070312 78.753906 C 288.609375 79.789062 288.253906 80.871094 287.988281 82 C 287.664062 83.40625 287.503906 84.816406 287.503906 86.238281 C 287.503906 89.855469 288.625 93.464844 290.871094 97.074219 L 289.417969 97.074219 "/>
<path fill-rule="nonzero" fill="rgb(13.729858%, 12.159729%, 12.548828%)" fill-opacity="1" d="M 303.332031 90.261719 L 303.332031 92.214844 L 292.410156 92.214844 C 292.394531 91.722656 292.46875 91.253906 292.644531 90.804688 C 292.921875 90.058594 293.367188 89.328125 293.976562 88.605469 C 294.59375 87.882812 295.480469 87.050781 296.632812 86.101562 C 298.429688 84.628906 299.644531 83.464844 300.277344 82.601562 C 300.90625 81.742188 301.222656 80.925781 301.222656 80.160156 C 301.222656 79.355469 300.933594 78.679688 300.363281 78.125 C 299.785156 77.574219 299.035156 77.296875 298.109375 77.296875 C 297.132812 77.296875 296.351562 77.589844 295.769531 78.179688 C 295.179688 78.765625 294.882812 79.578125 294.875 80.609375 L 292.789062 80.398438 C 292.933594 78.839844 293.46875 77.65625 294.402344 76.839844 C 295.332031 76.023438 296.585938 75.617188 298.15625 75.617188 C 299.742188 75.617188 300.996094 76.058594 301.921875 76.9375 C 302.847656 77.816406 303.308594 78.90625 303.308594 80.207031 C 303.308594 80.871094 303.175781 81.519531 302.902344 82.15625 C 302.632812 82.796875 302.183594 83.46875 301.554688 84.175781 C 300.929688 84.882812 299.886719 85.851562 298.425781 87.082031 C 297.210938 88.105469 296.429688 88.800781 296.082031 89.164062 C 295.738281 89.527344 295.453125 89.894531 295.226562 90.261719 L 303.332031 90.261719 "/>
<path fill-rule="nonzero" fill="rgb(13.729858%, 12.159729%, 12.548828%)" fill-opacity="1" d="M 307.398438 97.074219 L 305.945312 97.074219 C 308.191406 93.464844 309.316406 89.855469 309.316406 86.238281 C 309.316406 84.824219 309.15625 83.425781 308.832031 82.03125 C 308.578125 80.90625 308.21875 79.824219 307.761719 78.789062 C 307.46875 78.109375 306.863281 76.984375 305.945312 75.40625 L 307.398438 75.40625 C 308.8125 77.289062 309.859375 79.183594 310.535156 81.085938 C 311.113281 82.722656 311.402344 84.4375 311.402344 86.226562 C 311.402344 88.257812 311.011719 90.214844 310.234375 92.113281 C 309.460938 94.007812 308.511719 95.660156 307.398438 97.074219 "/>
<path fill-rule="nonzero" fill="rgb(13.729858%, 12.159729%, 12.548828%)" fill-opacity="1" d="M 364.101562 92.152344 L 364.101562 75.625 L 366.128906 75.625 L 366.128906 81.554688 C 367.074219 80.457031 368.273438 79.90625 369.714844 79.90625 C 370.601562 79.90625 371.371094 80.085938 372.023438 80.433594 C 372.679688 80.78125 373.148438 81.265625 373.429688 81.882812 C 373.710938 82.496094 373.851562 83.394531 373.851562 84.5625 L 373.851562 92.152344 L 371.820312 92.152344 L 371.820312 84.5625 C 371.820312 83.550781 371.601562 82.8125 371.160156 82.351562 C 370.722656 81.890625 370.101562 81.652344 369.296875 81.652344 C 368.695312 81.652344 368.128906 81.8125 367.597656 82.125 C 367.066406 82.433594 366.691406 82.859375 366.46875 83.394531 C 366.242188 83.925781 366.128906 84.664062 366.128906 85.601562 L 366.128906 92.152344 L 364.101562 92.152344 "/>
<path fill-rule="nonzero" fill="rgb(13.729858%, 12.159729%, 12.548828%)" fill-opacity="1" d="M 380.816406 97.011719 C 379.695312 95.597656 378.75 93.945312 377.976562 92.050781 C 377.203125 90.15625 376.816406 88.195312 376.816406 86.164062 C 376.816406 84.375 377.105469 82.660156 377.683594 81.023438 C 378.363281 79.121094 379.402344 77.230469 380.816406 75.34375 L 382.269531 75.34375 C 381.363281 76.90625 380.761719 78.023438 380.46875 78.691406 C 380.007812 79.726562 379.648438 80.8125 379.386719 81.9375 C 379.0625 83.34375 378.898438 84.753906 378.898438 86.175781 C 378.898438 89.792969 380.023438 93.402344 382.269531 97.011719 L 380.816406 97.011719 "/>
<path fill-rule="nonzero" fill="rgb(13.729858%, 12.159729%, 12.548828%)" fill-opacity="1" d="M 384.074219 87.789062 L 386.105469 87.519531 C 386.339844 88.667969 386.734375 89.496094 387.292969 90.003906 C 387.855469 90.511719 388.535156 90.765625 389.339844 90.765625 C 390.292969 90.765625 391.101562 90.433594 391.761719 89.773438 C 392.414062 89.109375 392.746094 88.292969 392.746094 87.316406 C 392.746094 86.382812 392.441406 85.613281 391.832031 85.007812 C 391.222656 84.40625 390.449219 84.101562 389.507812 84.101562 C 389.125 84.101562 388.648438 84.179688 388.078125 84.328125 L 388.304688 82.546875 C 388.4375 82.5625 388.546875 82.570312 388.632812 82.570312 C 389.492188 82.570312 390.269531 82.34375 390.964844 81.894531 C 391.65625 81.441406 392.003906 80.746094 392.003906 79.808594 C 392.003906 79.066406 391.746094 78.445312 391.242188 77.960938 C 390.738281 77.472656 390.089844 77.226562 389.292969 77.226562 C 388.503906 77.226562 387.847656 77.476562 387.324219 77.96875 C 386.796875 78.464844 386.457031 79.210938 386.308594 80.203125 L 384.28125 79.84375 C 384.527344 78.480469 385.09375 77.425781 385.96875 76.679688 C 386.851562 75.933594 387.941406 75.554688 389.25 75.554688 C 390.152344 75.554688 390.984375 75.75 391.742188 76.136719 C 392.5 76.523438 393.078125 77.050781 393.484375 77.722656 C 393.882812 78.390625 394.089844 79.097656 394.089844 79.851562 C 394.089844 80.566406 393.894531 81.214844 393.511719 81.804688 C 393.125 82.390625 392.5625 82.855469 391.808594 83.199219 C 392.789062 83.425781 393.546875 83.894531 394.089844 84.605469 C 394.628906 85.3125 394.894531 86.203125 394.894531 87.269531 C 394.894531 88.710938 394.371094 89.933594 393.316406 90.9375 C 392.269531 91.945312 390.9375 92.445312 389.328125 92.445312 C 387.878906 92.445312 386.671875 92.011719 385.714844 91.148438 C 384.757812 90.285156 384.210938 89.164062 384.074219 87.789062 "/>
<path fill-rule="nonzero" fill="rgb(13.729858%, 12.159729%, 12.548828%)" fill-opacity="1" d="M 398.796875 97.011719 L 397.34375 97.011719 C 399.589844 93.402344 400.714844 89.792969 400.714844 86.175781 C 400.714844 84.761719 400.554688 83.363281 400.230469 81.96875 C 399.976562 80.847656 399.617188 79.761719 399.160156 78.726562 C 398.867188 78.046875 398.261719 76.921875 397.34375 75.34375 L 398.796875 75.34375 C 400.210938 77.230469 401.257812 79.121094 401.933594 81.023438 C 402.511719 82.660156 402.800781 84.375 402.800781 86.164062 C 402.800781 88.195312 402.410156 90.15625 401.632812 92.050781 C 400.855469 93.945312 399.910156 95.597656 398.796875 97.011719 "/>
<path fill-rule="nonzero" fill="rgb(13.729858%, 12.159729%, 12.548828%)" fill-opacity="1" d="M 493.875 92.089844 L 493.875 75.5625 L 495.902344 75.5625 L 495.902344 81.492188 C 496.851562 80.394531 498.046875 79.84375 499.488281 79.84375 C 500.375 79.84375 501.144531 80.023438 501.800781 80.371094 C 502.453125 80.71875 502.921875 81.203125 503.203125 81.820312 C 503.484375 82.433594 503.628906 83.332031 503.628906 84.5 L 503.628906 92.089844 L 501.59375 92.089844 L 501.59375 84.5 C 501.59375 83.488281 501.375 82.75 500.9375 82.289062 C 500.496094 81.828125 499.875 81.59375 499.070312 81.59375 C 498.46875 81.59375 497.90625 81.75 497.375 82.0625 C 496.84375 82.375 496.464844 82.796875 496.242188 83.332031 C 496.015625 83.863281 495.902344 84.601562 495.902344 85.539062 L 495.902344 92.089844 L 493.875 92.089844 "/>
<path fill-rule="nonzero" fill="rgb(13.729858%, 12.159729%, 12.548828%)" fill-opacity="1" d="M 510.589844 96.949219 C 509.472656 95.535156 508.523438 93.882812 507.753906 91.988281 C 506.976562 90.09375 506.589844 88.132812 506.589844 86.101562 C 506.589844 84.3125 506.878906 82.601562 507.460938 80.960938 C 508.136719 79.058594 509.179688 77.167969 510.589844 75.28125 L 512.046875 75.28125 C 511.136719 76.84375 510.539062 77.960938 510.246094 78.628906 C 509.785156 79.664062 509.425781 80.75 509.160156 81.878906 C 508.835938 83.28125 508.675781 84.695312 508.675781 86.113281 C 508.675781 89.730469 509.800781 93.339844 512.046875 96.949219 L 510.589844 96.949219 "/>
<path fill-rule="nonzero" fill="rgb(13.729858%, 12.159729%, 12.548828%)" fill-opacity="1" d="M 514.59375 92.089844 L 514.59375 75.5625 L 517.886719 75.5625 L 521.796875 87.265625 C 522.160156 88.351562 522.425781 89.167969 522.585938 89.710938 C 522.773438 89.109375 523.066406 88.226562 523.464844 87.058594 L 527.421875 75.5625 L 530.367188 75.5625 L 530.367188 92.089844 L 528.257812 92.089844 L 528.257812 78.257812 L 523.453125 92.089844 L 521.480469 92.089844 L 516.703125 78.023438 L 516.703125 92.089844 L 514.59375 92.089844 "/>
<path fill-rule="nonzero" fill="rgb(13.729858%, 12.159729%, 12.548828%)" fill-opacity="1" d="M 532.84375 87.128906 L 532.84375 85.089844 L 539.082031 85.089844 L 539.082031 87.128906 L 532.84375 87.128906 "/>
<path fill-rule="nonzero" fill="rgb(13.729858%, 12.159729%, 12.548828%)" fill-opacity="1" d="M 548.402344 92.089844 L 546.371094 92.089844 L 546.371094 79.160156 C 545.886719 79.625 545.246094 80.089844 544.453125 80.558594 C 543.65625 81.023438 542.945312 81.371094 542.3125 81.605469 L 542.3125 79.644531 C 543.449219 79.109375 544.441406 78.464844 545.292969 77.707031 C 546.136719 76.945312 546.742188 76.210938 547.097656 75.492188 L 548.402344 75.492188 L 548.402344 92.089844 "/>
<path fill-rule="nonzero" fill="rgb(13.729858%, 12.159729%, 12.548828%)" fill-opacity="1" d="M 555.492188 96.949219 L 554.039062 96.949219 C 556.285156 93.339844 557.410156 89.730469 557.410156 86.113281 C 557.410156 84.703125 557.246094 83.300781 556.925781 81.90625 C 556.671875 80.785156 556.3125 79.699219 555.855469 78.664062 C 555.5625 77.988281 554.957031 76.859375 554.039062 75.28125 L 555.492188 75.28125 C 556.90625 77.167969 557.953125 79.058594 558.628906 80.960938 C 559.207031 82.601562 559.496094 84.3125 559.496094 86.101562 C 559.496094 88.132812 559.105469 90.09375 558.328125 91.988281 C 557.550781 93.882812 556.605469 95.535156 555.492188 96.949219 "/>
<path fill-rule="nonzero" fill="rgb(13.729858%, 12.159729%, 12.548828%)" fill-opacity="1" d="M 118.402344 93.746094 L 118.402344 77.222656 L 120.433594 77.222656 L 120.433594 83.152344 C 121.378906 82.054688 122.574219 81.503906 124.019531 81.503906 C 124.902344 81.503906 125.671875 81.679688 126.328125 82.03125 C 126.980469 82.378906 127.449219 82.863281 127.730469 83.476562 C 128.011719 84.09375 128.15625 84.988281 128.15625 86.160156 L 128.15625 93.746094 L 126.121094 93.746094 L 126.121094 86.160156 C 126.121094 85.148438 125.902344 84.410156 125.464844 83.949219 C 125.027344 83.484375 124.402344 83.25 123.597656 83.25 C 122.996094 83.25 122.433594 83.410156 121.902344 83.71875 C 121.371094 84.03125 120.992188 84.457031 120.769531 84.988281 C 120.542969 85.519531 120.433594 86.261719 120.433594 87.199219 L 120.433594 93.746094 L 118.402344 93.746094 "/>
<path fill-rule="nonzero" fill="rgb(13.729858%, 12.159729%, 12.548828%)" fill-opacity="1" d="M 135.117188 98.609375 C 134 97.195312 133.054688 95.542969 132.28125 93.648438 C 131.507812 91.75 131.117188 89.792969 131.117188 87.761719 C 131.117188 85.972656 131.40625 84.257812 131.988281 82.621094 C 132.664062 80.71875 133.707031 78.824219 135.117188 76.941406 L 136.574219 76.941406 C 135.664062 78.503906 135.066406 79.617188 134.773438 80.289062 C 134.3125 81.324219 133.953125 82.40625 133.6875 83.535156 C 133.363281 84.941406 133.203125 86.351562 133.203125 87.773438 C 133.203125 91.390625 134.328125 95 136.574219 98.609375 L 135.117188 98.609375 "/>
<path fill-rule="nonzero" fill="rgb(13.729858%, 12.159729%, 12.548828%)" fill-opacity="1" d="M 138.367188 85.597656 C 138.367188 83.644531 138.566406 82.070312 138.972656 80.878906 C 139.371094 79.6875 139.972656 78.769531 140.765625 78.121094 C 141.558594 77.476562 142.554688 77.152344 143.753906 77.152344 C 144.644531 77.152344 145.421875 77.332031 146.089844 77.691406 C 146.757812 78.042969 147.308594 78.558594 147.746094 79.234375 C 148.183594 79.90625 148.523438 80.726562 148.773438 81.691406 C 149.023438 82.65625 149.144531 83.960938 149.144531 85.597656 C 149.144531 87.539062 148.945312 89.097656 148.550781 90.292969 C 148.148438 91.484375 147.550781 92.40625 146.757812 93.054688 C 145.96875 93.707031 144.964844 94.027344 143.753906 94.027344 C 142.160156 94.027344 140.910156 93.460938 140.003906 92.316406 C 138.914062 90.941406 138.367188 88.699219 138.367188 85.597656 Z M 140.453125 85.597656 C 140.453125 88.3125 140.773438 90.117188 141.40625 91.015625 C 142.042969 91.914062 142.824219 92.363281 143.753906 92.363281 C 144.6875 92.363281 145.46875 91.910156 146.105469 91.007812 C 146.738281 90.109375 147.058594 88.304688 147.058594 85.597656 C 147.058594 82.878906 146.738281 81.070312 146.105469 80.175781 C 145.46875 79.28125 144.679688 78.832031 143.734375 78.832031 C 142.800781 78.832031 142.058594 79.230469 141.5 80.019531 C 140.804688 81.023438 140.453125 82.886719 140.453125 85.597656 "/>
<path fill-rule="nonzero" fill="rgb(13.729858%, 12.159729%, 12.548828%)" fill-opacity="1" d="M 153.101562 98.609375 L 151.644531 98.609375 C 153.894531 95 155.015625 91.390625 155.015625 87.773438 C 155.015625 86.359375 154.855469 84.960938 154.53125 83.566406 C 154.277344 82.441406 153.921875 81.359375 153.464844 80.324219 C 153.171875 79.644531 152.566406 78.519531 151.644531 76.941406 L 153.101562 76.941406 C 154.511719 78.824219 155.558594 80.71875 156.238281 82.621094 C 156.8125 84.257812 157.101562 85.972656 157.101562 87.761719 C 157.101562 89.792969 156.714844 91.75 155.9375 93.648438 C 155.160156 95.542969 154.214844 97.195312 153.101562 98.609375 "/>
<path fill="none" stroke-width="20.0013" stroke-linecap="butt" stroke-linejoin="miter" stroke="rgb(13.729858%, 12.159729%, 12.548828%)" stroke-opacity="1" stroke-miterlimit="22.9256" d="M 1037.03125 1190.703125 L 1198.945312 1190.703125 " transform="matrix(0.1, 0, 0, -0.1, 0, 157)"/>
<path fill-rule="nonzero" fill="rgb(13.729858%, 12.159729%, 12.548828%)" fill-opacity="1" d="M 363.128906 46.746094 L 369.515625 23.960938 L 371.679688 23.960938 L 365.308594 46.746094 L 363.128906 46.746094 "/>
<path fill-rule="nonzero" fill="rgb(13.729858%, 12.159729%, 12.548828%)" fill-opacity="1" d="M 371.679688 46.746094 L 378.066406 23.960938 L 380.234375 23.960938 L 373.859375 46.746094 L 371.679688 46.746094 "/>
<path fill-rule="nonzero" fill="rgb(13.729858%, 12.159729%, 12.548828%)" fill-opacity="1" d="M 2.195312 44.167969 L 6.535156 38 L 2.519531 32.300781 L 5.035156 32.300781 L 6.859375 35.078125 C 7.199219 35.609375 7.476562 36.054688 7.683594 36.410156 C 8.011719 35.921875 8.3125 35.484375 8.59375 35.101562 L 10.589844 32.300781 L 12.996094 32.300781 L 8.894531 37.886719 L 13.308594 44.167969 L 10.839844 44.167969 L 8.402344 40.480469 L 7.753906 39.484375 L 4.636719 44.167969 L 2.195312 44.167969 "/>
<path fill-rule="nonzero" fill="rgb(13.729858%, 12.159729%, 12.548828%)" fill-opacity="1" d="M 18.828125 48.988281 C 17.71875 47.585938 16.78125 45.945312 16.011719 44.070312 C 15.246094 42.1875 14.859375 40.246094 14.859375 38.230469 C 14.859375 36.457031 15.148438 34.761719 15.722656 33.132812 C 16.394531 31.25 17.429688 29.371094 18.828125 27.503906 L 20.269531 27.503906 C 19.371094 29.050781 18.777344 30.160156 18.484375 30.820312 C 18.027344 31.847656 17.671875 32.925781 17.410156 34.042969 C 17.089844 35.433594 16.929688 36.835938 16.929688 38.242188 C 16.929688 41.828125 18.042969 45.410156 20.269531 48.988281 L 18.828125 48.988281 "/>
<path fill-rule="nonzero" fill="rgb(13.729858%, 12.159729%, 12.548828%)" fill-opacity="1" d="M 22.609375 44.167969 L 22.609375 32.300781 L 24.417969 32.300781 L 24.417969 33.984375 C 25.292969 32.679688 26.550781 32.027344 28.195312 32.027344 C 28.914062 32.027344 29.570312 32.15625 30.167969 32.414062 C 30.773438 32.671875 31.21875 33.007812 31.515625 33.429688 C 31.816406 33.84375 32.023438 34.339844 32.144531 34.910156 C 32.21875 35.285156 32.253906 35.9375 32.253906 36.871094 L 32.253906 44.167969 L 30.242188 44.167969 L 30.242188 36.945312 C 30.242188 36.128906 30.164062 35.515625 30.007812 35.105469 C 29.851562 34.703125 29.574219 34.378906 29.175781 34.136719 C 28.777344 33.894531 28.308594 33.773438 27.773438 33.773438 C 26.914062 33.773438 26.175781 34.046875 25.550781 34.589844 C 24.929688 35.132812 24.621094 36.164062 24.621094 37.6875 L 24.621094 44.167969 L 22.609375 44.167969 "/>
<path fill-rule="nonzero" fill="rgb(13.729858%, 12.159729%, 12.548828%)" fill-opacity="1" d="M 36.660156 48.988281 L 35.214844 48.988281 C 37.445312 45.410156 38.558594 41.828125 38.558594 38.242188 C 38.558594 36.84375 38.398438 35.453125 38.078125 34.074219 C 37.828125 32.960938 37.472656 31.882812 37.015625 30.855469 C 36.726562 30.183594 36.128906 29.066406 35.214844 27.503906 L 36.660156 27.503906 C 38.058594 29.371094 39.097656 31.25 39.769531 33.132812 C 40.339844 34.761719 40.628906 36.457031 40.628906 38.230469 C 40.628906 40.246094 40.242188 42.1875 39.46875 44.070312 C 38.699219 45.945312 37.761719 47.585938 36.660156 48.988281 "/>
<path fill-rule="nonzero" fill="rgb(13.729858%, 12.159729%, 12.548828%)" fill-opacity="1" d="M 645.785156 148.292969 L 645.558594 146.40625 C 646.003906 146.523438 646.382812 146.585938 646.710938 146.585938 C 647.15625 146.585938 647.515625 146.507812 647.785156 146.359375 C 648.054688 146.210938 648.273438 146.003906 648.445312 145.734375 C 648.574219 145.535156 648.777344 145.035156 649.058594 144.238281 C 649.097656 144.121094 649.15625 143.964844 649.238281 143.746094 L 644.734375 131.851562 L 646.902344 131.851562 L 649.375 138.722656 C 649.691406 139.597656 649.980469 140.515625 650.234375 141.476562 C 650.464844 140.550781 650.742188 139.652344 651.0625 138.769531 L 653.597656 131.851562 L 655.609375 131.851562 L 651.097656 143.925781 C 650.609375 145.230469 650.234375 146.125 649.964844 146.617188 C 649.605469 147.28125 649.199219 147.765625 648.738281 148.074219 C 648.273438 148.386719 647.722656 148.542969 647.082031 148.542969 C 646.691406 148.542969 646.261719 148.457031 645.785156 148.292969 "/>
<path fill-rule="nonzero" fill="rgb(13.729858%, 12.159729%, 12.548828%)" fill-opacity="1" d="M 661.164062 148.542969 C 660.054688 147.140625 659.117188 145.5 658.347656 143.625 C 657.582031 141.742188 657.195312 139.800781 657.195312 137.785156 C 657.195312 136.011719 657.484375 134.3125 658.058594 132.6875 C 658.730469 130.804688 659.765625 128.925781 661.164062 127.054688 L 662.605469 127.054688 C 661.707031 128.605469 661.109375 129.710938 660.820312 130.375 C 660.363281 131.402344 660.007812 132.476562 659.746094 133.597656 C 659.425781 134.988281 659.265625 136.390625 659.265625 137.796875 C 659.265625 141.382812 660.378906 144.960938 662.605469 148.542969 L 661.164062 148.542969 "/>
<path fill-rule="nonzero" fill="rgb(13.729858%, 12.159729%, 12.548828%)" fill-opacity="1" d="M 664.945312 143.722656 L 664.945312 131.851562 L 666.753906 131.851562 L 666.753906 133.539062 C 667.628906 132.234375 668.886719 131.582031 670.53125 131.582031 C 671.25 131.582031 671.90625 131.710938 672.503906 131.96875 C 673.105469 132.226562 673.554688 132.5625 673.851562 132.980469 C 674.152344 133.398438 674.359375 133.894531 674.480469 134.464844 C 674.554688 134.839844 674.59375 135.492188 674.59375 136.421875 L 674.59375 143.722656 L 672.578125 143.722656 L 672.578125 136.5 C 672.578125 135.683594 672.5 135.070312 672.34375 134.660156 C 672.1875 134.257812 671.910156 133.933594 671.511719 133.691406 C 671.113281 133.449219 670.644531 133.324219 670.109375 133.324219 C 669.25 133.324219 668.515625 133.601562 667.886719 134.140625 C 667.265625 134.6875 666.957031 135.71875 666.957031 137.238281 L 666.957031 143.722656 L 664.945312 143.722656 "/>
<path fill-rule="nonzero" fill="rgb(13.729858%, 12.159729%, 12.548828%)" fill-opacity="1" d="M 678.996094 148.542969 L 677.554688 148.542969 C 679.78125 144.960938 680.894531 141.382812 680.894531 137.796875 C 680.894531 136.398438 680.734375 135.007812 680.414062 133.625 C 680.164062 132.511719 679.808594 131.4375 679.355469 130.410156 C 679.0625 129.738281 678.464844 128.621094 677.554688 127.054688 L 678.996094 127.054688 C 680.394531 128.925781 681.433594 130.804688 682.105469 132.6875 C 682.675781 134.3125 682.964844 136.011719 682.964844 137.785156 C 682.964844 139.800781 682.578125 141.742188 681.808594 143.625 C 681.035156 145.5 680.097656 147.140625 678.996094 148.542969 "/>
<path fill="none" stroke-width="20.0013" stroke-linecap="butt" stroke-linejoin="miter" stroke="rgb(13.729858%, 12.159729%, 12.548828%)" stroke-opacity="1" stroke-miterlimit="22.9256" d="M 5628.398438 297.226562 L 6115.46875 297.226562 L 6115.46875 12.734375 L 5628.398438 12.734375 Z M 5628.398438 297.226562 " transform="matrix(0.1, 0, 0, -0.1, 0, 157)"/>
<path fill-rule="nonzero" fill="rgb(13.729858%, 12.159729%, 12.548828%)" fill-opacity="1" d="M 575 148.445312 L 578.863281 134.667969 L 580.171875 134.667969 L 576.320312 148.445312 L 575 148.445312 "/>
<path fill-rule="nonzero" fill="rgb(13.729858%, 12.159729%, 12.548828%)" fill-opacity="1" d="M 589.542969 146.644531 L 589.542969 148.21875 L 580.734375 148.21875 C 580.722656 147.824219 580.785156 147.445312 580.925781 147.082031 C 581.148438 146.480469 581.507812 145.890625 582.003906 145.308594 C 582.496094 144.726562 583.210938 144.054688 584.140625 143.292969 C 585.589844 142.105469 586.570312 141.164062 587.078125 140.46875 C 587.589844 139.777344 587.84375 139.121094 587.84375 138.503906 C 587.84375 137.855469 587.609375 137.308594 587.148438 136.863281 C 586.683594 136.417969 586.078125 136.195312 585.332031 136.195312 C 584.546875 136.195312 583.914062 136.429688 583.445312 136.90625 C 582.96875 137.375 582.730469 138.03125 582.726562 138.867188 L 581.042969 138.695312 C 581.15625 137.4375 581.59375 136.484375 582.34375 135.824219 C 583.09375 135.167969 584.105469 134.839844 585.371094 134.839844 C 586.648438 134.839844 587.660156 135.195312 588.402344 135.902344 C 589.152344 136.613281 589.523438 137.492188 589.523438 138.539062 C 589.523438 139.074219 589.414062 139.597656 589.195312 140.113281 C 588.980469 140.628906 588.617188 141.171875 588.109375 141.738281 C 587.605469 142.308594 586.761719 143.089844 585.589844 144.082031 C 584.605469 144.910156 583.976562 145.46875 583.699219 145.761719 C 583.421875 146.054688 583.191406 146.347656 583.007812 146.644531 L 589.542969 146.644531 "/>
<path fill-rule="nonzero" fill="rgb(13.729858%, 12.159729%, 12.548828%)" fill-opacity="1" d="M 591.523438 138.757812 L 588.570312 129.109375 L 590.261719 129.109375 L 591.796875 134.679688 L 592.367188 136.753906 C 592.390625 136.648438 592.558594 135.980469 592.867188 134.761719 L 594.402344 129.109375 L 596.082031 129.109375 L 597.527344 134.703125 L 598.011719 136.550781 L 598.5625 134.6875 L 600.21875 129.109375 L 601.808594 129.109375 L 598.789062 138.757812 L 597.09375 138.757812 L 595.558594 132.980469 L 595.183594 131.332031 L 593.230469 138.757812 L 591.523438 138.757812 "/>
<path fill-rule="nonzero" fill="rgb(13.729858%, 12.159729%, 12.548828%)" fill-opacity="1" d="M 392.304688 150.5 L 398.902344 133.320312 L 401.351562 133.320312 L 408.382812 150.5 L 405.789062 150.5 L 403.789062 145.292969 L 396.605469 145.292969 L 394.71875 150.5 Z M 397.257812 143.441406 L 403.089844 143.441406 L 401.289062 138.6875 C 400.746094 137.242188 400.339844 136.054688 400.074219 135.121094 C 399.855469 136.226562 399.546875 137.320312 399.148438 138.40625 L 397.257812 143.441406 "/>
<path fill-rule="nonzero" fill="rgb(13.729858%, 12.159729%, 12.548828%)" fill-opacity="1" d="M 417.21875 150.5 L 415.261719 150.5 L 415.261719 133.320312 L 417.371094 133.320312 L 417.371094 139.445312 C 418.261719 138.332031 419.398438 137.769531 420.777344 137.769531 C 421.546875 137.769531 422.269531 137.925781 422.953125 138.234375 C 423.640625 138.542969 424.199219 138.980469 424.644531 139.535156 C 425.085938 140.09375 425.429688 140.765625 425.679688 141.558594 C 425.929688 142.347656 426.054688 143.191406 426.054688 144.085938 C 426.054688 146.222656 425.527344 147.871094 424.472656 149.035156 C 423.417969 150.199219 422.152344 150.777344 420.675781 150.777344 C 419.207031 150.777344 418.054688 150.167969 417.21875 148.9375 Z M 417.195312 144.183594 C 417.195312 145.675781 417.398438 146.75 417.804688 147.414062 C 418.46875 148.503906 419.367188 149.046875 420.5 149.046875 C 421.421875 149.046875 422.21875 148.648438 422.890625 147.84375 C 423.5625 147.042969 423.898438 145.851562 423.898438 144.261719 C 423.898438 142.640625 423.574219 141.4375 422.929688 140.667969 C 422.289062 139.894531 421.507812 139.507812 420.59375 139.507812 C 419.671875 139.507812 418.875 139.90625 418.203125 140.707031 C 417.53125 141.507812 417.195312 142.667969 417.195312 144.183594 "/>
<path fill-rule="nonzero" fill="rgb(13.729858%, 12.159729%, 12.548828%)" fill-opacity="1" d="M 428.632812 135.746094 L 428.632812 133.320312 L 430.742188 133.320312 L 430.742188 135.746094 Z M 428.632812 150.5 L 428.632812 138.054688 L 430.742188 138.054688 L 430.742188 150.5 L 428.632812 150.5 "/>
<path fill-rule="nonzero" fill="rgb(13.729858%, 12.159729%, 12.548828%)" fill-opacity="1" d="M 438.558594 148.613281 L 438.863281 150.476562 C 438.269531 150.597656 437.738281 150.664062 437.269531 150.664062 C 436.503906 150.664062 435.910156 150.542969 435.488281 150.300781 C 435.066406 150.058594 434.769531 149.738281 434.597656 149.34375 C 434.425781 148.949219 434.339844 148.117188 434.339844 146.855469 L 434.339844 139.695312 L 432.789062 139.695312 L 432.789062 138.054688 L 434.339844 138.054688 L 434.339844 134.96875 L 436.4375 133.707031 L 436.4375 138.054688 L 438.558594 138.054688 L 438.558594 139.695312 L 436.4375 139.695312 L 436.4375 146.972656 C 436.4375 147.574219 436.476562 147.957031 436.546875 148.132812 C 436.621094 148.304688 436.742188 148.4375 436.910156 148.542969 C 437.078125 148.644531 437.320312 148.695312 437.632812 148.695312 C 437.867188 148.695312 438.175781 148.667969 438.558594 148.613281 "/>
<path fill-rule="nonzero" fill="rgb(13.729858%, 12.159729%, 12.548828%)" fill-opacity="1" d="M 439.777344 146.78125 L 441.863281 146.457031 C 441.980469 147.292969 442.308594 147.929688 442.84375 148.378906 C 443.375 148.824219 444.121094 149.046875 445.085938 149.046875 C 446.054688 149.046875 446.773438 148.847656 447.242188 148.457031 C 447.710938 148.058594 447.945312 147.59375 447.945312 147.066406 C 447.945312 146.585938 447.738281 146.214844 447.324219 145.9375 C 447.035156 145.75 446.316406 145.515625 445.167969 145.226562 C 443.621094 144.835938 442.546875 144.5 441.949219 144.210938 C 441.355469 143.925781 440.898438 143.53125 440.589844 143.027344 C 440.28125 142.523438 440.128906 141.96875 440.128906 141.359375 C 440.128906 140.804688 440.253906 140.289062 440.511719 139.820312 C 440.761719 139.34375 441.109375 138.949219 441.546875 138.640625 C 441.875 138.398438 442.324219 138.191406 442.886719 138.023438 C 443.453125 137.855469 444.0625 137.769531 444.710938 137.769531 C 445.6875 137.769531 446.542969 137.914062 447.28125 138.195312 C 448.023438 138.476562 448.566406 138.855469 448.921875 139.335938 C 449.269531 139.820312 449.511719 140.460938 449.644531 141.261719 L 447.582031 141.546875 C 447.488281 140.90625 447.214844 140.40625 446.765625 140.046875 C 446.320312 139.6875 445.683594 139.507812 444.863281 139.507812 C 443.894531 139.507812 443.203125 139.667969 442.789062 139.988281 C 442.375 140.308594 442.167969 140.683594 442.167969 141.109375 C 442.167969 141.386719 442.253906 141.632812 442.425781 141.851562 C 442.597656 142.078125 442.867188 142.261719 443.234375 142.414062 C 443.445312 142.492188 444.066406 142.671875 445.097656 142.949219 C 446.589844 143.351562 447.632812 143.675781 448.21875 143.929688 C 448.8125 144.183594 449.273438 144.554688 449.609375 145.039062 C 449.945312 145.523438 450.113281 146.121094 450.113281 146.84375 C 450.113281 147.546875 449.90625 148.207031 449.5 148.832031 C 449.085938 149.449219 448.496094 149.929688 447.722656 150.269531 C 446.949219 150.609375 446.074219 150.777344 445.097656 150.777344 C 443.480469 150.777344 442.246094 150.441406 441.398438 149.769531 C 440.550781 149.097656 440.011719 148.101562 439.777344 146.78125 "/>
<path fill-rule="nonzero" fill="rgb(13.729858%, 12.159729%, 12.548828%)" fill-opacity="1" d="M 699.949219 88.570312 L 699.949219 90.140625 L 691.144531 90.140625 C 691.128906 89.746094 691.191406 89.371094 691.332031 89.007812 C 691.554688 88.40625 691.914062 87.816406 692.40625 87.230469 C 692.902344 86.652344 693.617188 85.980469 694.546875 85.214844 C 695.996094 84.027344 696.976562 83.089844 697.484375 82.394531 C 697.996094 81.703125 698.25 81.042969 698.25 80.425781 C 698.25 79.777344 698.015625 79.230469 697.554688 78.785156 C 697.089844 78.339844 696.484375 78.117188 695.738281 78.117188 C 694.953125 78.117188 694.320312 78.355469 693.851562 78.828125 C 693.375 79.300781 693.136719 79.953125 693.132812 80.789062 L 691.449219 80.617188 C 691.5625 79.363281 691.996094 78.40625 692.75 77.75 C 693.5 77.089844 694.511719 76.761719 695.777344 76.761719 C 697.054688 76.761719 698.066406 77.117188 698.8125 77.828125 C 699.558594 78.535156 699.929688 79.414062 699.929688 80.464844 C 699.929688 80.996094 699.820312 81.523438 699.601562 82.035156 C 699.386719 82.550781 699.023438 83.09375 698.515625 83.660156 C 698.011719 84.230469 697.171875 85.015625 695.992188 86.007812 C 695.015625 86.832031 694.382812 87.390625 694.105469 87.683594 C 693.824219 87.976562 693.597656 88.273438 693.414062 88.570312 L 699.949219 88.570312 "/>
<path fill-rule="nonzero" fill="rgb(13.729858%, 12.159729%, 12.548828%)" fill-opacity="1" d="M 707.101562 80.683594 L 704.148438 71.03125 L 705.839844 71.03125 L 707.371094 76.601562 L 707.945312 78.675781 C 707.96875 78.570312 708.136719 77.90625 708.441406 76.683594 L 709.980469 71.03125 L 711.660156 71.03125 L 713.105469 76.628906 L 713.589844 78.472656 L 714.140625 76.609375 L 715.796875 71.03125 L 717.386719 71.03125 L 714.367188 80.683594 L 712.671875 80.683594 L 711.136719 74.902344 L 710.761719 73.257812 L 708.808594 80.683594 L 707.101562 80.683594 "/>
<path fill-rule="nonzero" fill="rgb(13.729858%, 12.159729%, 12.548828%)" fill-opacity="1" d="M 579.523438 85.796875 L 581.605469 85.46875 C 581.722656 86.304688 582.050781 86.945312 582.585938 87.394531 C 583.117188 87.835938 583.867188 88.0625 584.828125 88.0625 C 585.796875 88.0625 586.519531 87.859375 586.984375 87.46875 C 587.453125 87.074219 587.691406 86.609375 587.691406 86.082031 C 587.691406 85.601562 587.480469 85.230469 587.066406 84.953125 C 586.777344 84.765625 586.058594 84.527344 584.910156 84.242188 C 583.367188 83.847656 582.289062 83.511719 581.695312 83.226562 C 581.097656 82.941406 580.640625 82.542969 580.335938 82.039062 C 580.027344 81.535156 579.871094 80.980469 579.871094 80.371094 C 579.871094 79.816406 579.996094 79.304688 580.253906 78.832031 C 580.507812 78.355469 580.855469 77.964844 581.289062 77.652344 C 581.617188 77.414062 582.066406 77.207031 582.628906 77.035156 C 583.199219 76.867188 583.804688 76.785156 584.453125 76.785156 C 585.429688 76.785156 586.285156 76.929688 587.027344 77.210938 C 587.765625 77.488281 588.308594 77.867188 588.664062 78.347656 C 589.015625 78.832031 589.253906 79.472656 589.386719 80.277344 L 587.324219 80.5625 C 587.230469 79.921875 586.957031 79.421875 586.511719 79.0625 C 586.0625 78.703125 585.425781 78.519531 584.605469 78.519531 C 583.636719 78.519531 582.945312 78.679688 582.535156 79 C 582.117188 79.320312 581.910156 79.695312 581.910156 80.125 C 581.910156 80.402344 581.996094 80.644531 582.171875 80.863281 C 582.34375 81.09375 582.609375 81.277344 582.976562 81.429688 C 583.191406 81.503906 583.808594 81.683594 584.84375 81.964844 C 586.335938 82.363281 587.375 82.6875 587.960938 82.945312 C 588.554688 83.195312 589.019531 83.570312 589.355469 84.054688 C 589.691406 84.535156 589.859375 85.136719 589.859375 85.855469 C 589.859375 86.5625 589.648438 87.222656 589.242188 87.84375 C 588.828125 88.464844 588.238281 88.945312 587.464844 89.285156 C 586.695312 89.625 585.816406 89.792969 584.84375 89.792969 C 583.222656 89.792969 581.988281 89.457031 581.140625 88.785156 C 580.292969 88.113281 579.753906 87.117188 579.523438 85.796875 "/>
<path fill-rule="nonzero" fill="rgb(13.729858%, 12.159729%, 12.548828%)" fill-opacity="1" d="M 600.484375 84.953125 L 602.558594 85.226562 C 602.335938 86.652344 601.753906 87.773438 600.816406 88.582031 C 599.886719 89.390625 598.738281 89.792969 597.378906 89.792969 C 595.679688 89.792969 594.304688 89.238281 593.273438 88.125 C 592.238281 87.011719 591.71875 85.417969 591.71875 83.335938 C 591.71875 81.992188 591.941406 80.816406 592.386719 79.808594 C 592.835938 78.800781 593.511719 78.042969 594.421875 77.539062 C 595.328125 77.035156 596.320312 76.785156 597.390625 76.785156 C 598.742188 76.785156 599.851562 77.128906 600.707031 77.8125 C 601.566406 78.496094 602.117188 79.464844 602.363281 80.726562 L 600.3125 81.039062 C 600.113281 80.207031 599.769531 79.578125 599.273438 79.152344 C 598.777344 78.734375 598.179688 78.519531 597.472656 78.519531 C 596.410156 78.519531 595.546875 78.902344 594.882812 79.664062 C 594.21875 80.425781 593.886719 81.628906 593.886719 83.277344 C 593.886719 84.949219 594.207031 86.164062 594.851562 86.925781 C 595.492188 87.679688 596.328125 88.0625 597.359375 88.0625 C 598.1875 88.0625 598.875 87.804688 599.429688 87.296875 C 599.984375 86.789062 600.339844 86.007812 600.484375 84.953125 "/>
<path fill-rule="nonzero" fill="rgb(13.729858%, 12.159729%, 12.548828%)" fill-opacity="1" d="M 612.488281 87.976562 C 611.703125 88.640625 610.949219 89.109375 610.230469 89.386719 C 609.507812 89.65625 608.730469 89.792969 607.902344 89.792969 C 606.535156 89.792969 605.488281 89.460938 604.75 88.792969 C 604.019531 88.125 603.648438 87.269531 603.648438 86.234375 C 603.648438 85.621094 603.785156 85.066406 604.066406 84.5625 C 604.34375 84.058594 604.707031 83.652344 605.15625 83.347656 C 605.605469 83.042969 606.109375 82.8125 606.675781 82.65625 C 607.085938 82.546875 607.710938 82.441406 608.546875 82.339844 C 610.25 82.136719 611.507812 81.898438 612.3125 81.613281 C 612.320312 81.324219 612.324219 81.140625 612.324219 81.066406 C 612.324219 80.207031 612.121094 79.597656 611.722656 79.25 C 611.1875 78.769531 610.382812 78.53125 609.324219 78.53125 C 608.328125 78.53125 607.597656 78.707031 607.121094 79.054688 C 606.648438 79.402344 606.304688 80.015625 606.074219 80.902344 L 604.015625 80.617188 C 604.203125 79.738281 604.511719 79.019531 604.9375 78.480469 C 605.367188 77.9375 605.992188 77.515625 606.804688 77.226562 C 607.613281 76.933594 608.554688 76.785156 609.628906 76.785156 C 610.691406 76.785156 611.550781 76.914062 612.214844 77.160156 C 612.878906 77.414062 613.367188 77.726562 613.683594 78.105469 C 613.996094 78.484375 614.210938 78.960938 614.339844 79.539062 C 614.40625 79.902344 614.441406 80.550781 614.441406 81.484375 L 614.441406 84.296875 C 614.441406 86.261719 614.488281 87.5 614.578125 88.015625 C 614.664062 88.535156 614.847656 89.035156 615.109375 89.511719 L 612.90625 89.511719 C 612.691406 89.078125 612.546875 88.566406 612.488281 87.976562 Z M 612.3125 83.265625 C 611.542969 83.582031 610.394531 83.84375 608.867188 84.066406 C 607.996094 84.1875 607.382812 84.328125 607.027344 84.484375 C 606.664062 84.640625 606.386719 84.867188 606.195312 85.171875 C 605.996094 85.472656 605.898438 85.804688 605.898438 86.171875 C 605.898438 86.738281 606.113281 87.207031 606.539062 87.582031 C 606.964844 87.953125 607.585938 88.140625 608.40625 88.140625 C 609.21875 88.140625 609.941406 87.964844 610.574219 87.609375 C 611.207031 87.253906 611.675781 86.765625 611.96875 86.148438 C 612.199219 85.671875 612.3125 84.96875 612.3125 84.039062 L 612.3125 83.265625 "/>
<path fill-rule="nonzero" fill="rgb(13.729858%, 12.159729%, 12.548828%)" fill-opacity="1" d="M 617.667969 89.511719 L 617.667969 72.332031 L 619.773438 72.332031 L 619.773438 89.511719 L 617.667969 89.511719 "/>
<path fill-rule="nonzero" fill="rgb(13.729858%, 12.159729%, 12.548828%)" fill-opacity="1" d="M 631.5625 85.503906 L 633.742188 85.773438 C 633.398438 87.050781 632.761719 88.035156 631.835938 88.742188 C 630.902344 89.441406 629.714844 89.792969 628.269531 89.792969 C 626.449219 89.792969 625.007812 89.234375 623.941406 88.113281 C 622.875 86.992188 622.34375 85.421875 622.34375 83.398438 C 622.34375 81.300781 622.882812 79.675781 623.960938 78.519531 C 625.039062 77.363281 626.433594 76.785156 628.15625 76.785156 C 629.820312 76.785156 631.179688 77.351562 632.230469 78.484375 C 633.285156 79.617188 633.8125 81.214844 633.8125 83.265625 C 633.8125 83.394531 633.8125 83.582031 633.804688 83.828125 L 624.523438 83.828125 C 624.597656 85.195312 624.988281 86.246094 625.683594 86.96875 C 626.378906 87.699219 627.242188 88.0625 628.28125 88.0625 C 629.054688 88.0625 629.714844 87.855469 630.261719 87.449219 C 630.8125 87.042969 631.242188 86.398438 631.5625 85.503906 Z M 624.640625 82.09375 L 631.585938 82.09375 C 631.496094 81.050781 631.226562 80.261719 630.789062 79.742188 C 630.117188 78.929688 629.246094 78.519531 628.179688 78.519531 C 627.210938 78.519531 626.394531 78.84375 625.734375 79.492188 C 625.074219 80.140625 624.710938 81.007812 624.640625 82.09375 "/>
<path fill-rule="nonzero" fill="rgb(13.729858%, 12.159729%, 12.548828%)" fill-opacity="1" d="M 644.464844 89.511719 L 644.464844 87.941406 C 643.679688 89.175781 642.519531 89.792969 640.988281 89.792969 C 639.996094 89.792969 639.082031 89.519531 638.25 88.972656 C 637.417969 88.429688 636.773438 87.664062 636.316406 86.679688 C 635.859375 85.703125 635.632812 84.578125 635.632812 83.300781 C 635.632812 82.0625 635.839844 80.933594 636.25 79.921875 C 636.667969 78.910156 637.285156 78.132812 638.113281 77.597656 C 638.941406 77.058594 639.871094 76.785156 640.894531 76.785156 C 641.644531 76.785156 642.3125 76.945312 642.894531 77.261719 C 643.484375 77.578125 643.960938 77.988281 644.328125 78.496094 L 644.328125 72.332031 L 646.421875 72.332031 L 646.421875 89.511719 Z M 637.796875 83.300781 C 637.796875 84.898438 638.132812 86.089844 638.808594 86.878906 C 639.480469 87.664062 640.269531 88.0625 641.1875 88.0625 C 642.105469 88.0625 642.890625 87.679688 643.535156 86.929688 C 644.179688 86.175781 644.503906 85.023438 644.503906 83.476562 C 644.503906 81.773438 644.175781 80.523438 643.519531 79.730469 C 642.863281 78.929688 642.054688 78.53125 641.089844 78.53125 C 640.15625 78.53125 639.371094 78.917969 638.742188 79.679688 C 638.113281 80.445312 637.796875 81.652344 637.796875 83.300781 "/>
<path fill-rule="nonzero" fill="rgb(13.729858%, 12.159729%, 12.548828%)" fill-opacity="1" d="M 658.355469 89.511719 L 656.398438 89.511719 L 656.398438 72.332031 L 658.507812 72.332031 L 658.507812 78.460938 C 659.398438 77.34375 660.535156 76.785156 661.914062 76.785156 C 662.683594 76.785156 663.40625 76.941406 664.089844 77.25 C 664.773438 77.558594 665.335938 77.992188 665.777344 78.546875 C 666.21875 79.109375 666.566406 79.78125 666.816406 80.574219 C 667.066406 81.359375 667.191406 82.207031 667.191406 83.101562 C 667.191406 85.238281 666.664062 86.886719 665.605469 88.046875 C 664.554688 89.214844 663.285156 89.792969 661.8125 89.792969 C 660.34375 89.792969 659.191406 89.179688 658.355469 87.953125 Z M 658.328125 83.195312 C 658.328125 84.6875 658.535156 85.765625 658.9375 86.429688 C 659.601562 87.515625 660.503906 88.0625 661.636719 88.0625 C 662.558594 88.0625 663.355469 87.660156 664.027344 86.855469 C 664.699219 86.058594 665.035156 84.863281 665.035156 83.277344 C 665.035156 81.652344 664.710938 80.453125 664.066406 79.679688 C 663.421875 78.910156 662.644531 78.519531 661.730469 78.519531 C 660.808594 78.519531 660.011719 78.921875 659.339844 79.722656 C 658.667969 80.519531 658.328125 81.679688 658.328125 83.195312 "/>
<path fill-rule="nonzero" fill="rgb(13.729858%, 12.159729%, 12.548828%)" fill-opacity="1" d="M 669.664062 94.304688 L 669.425781 92.324219 C 669.890625 92.449219 670.289062 92.511719 670.636719 92.511719 C 671.101562 92.511719 671.480469 92.433594 671.757812 92.277344 C 672.042969 92.121094 672.269531 91.90625 672.449219 91.621094 C 672.585938 91.414062 672.800781 90.890625 673.09375 90.054688 C 673.136719 89.933594 673.199219 89.765625 673.28125 89.535156 L 668.5625 77.070312 L 670.835938 77.070312 L 673.425781 84.273438 C 673.757812 85.1875 674.0625 86.148438 674.328125 87.15625 C 674.570312 86.1875 674.859375 85.246094 675.195312 84.320312 L 677.855469 77.070312 L 679.964844 77.070312 L 675.230469 89.726562 C 674.722656 91.09375 674.328125 92.03125 674.046875 92.546875 C 673.671875 93.246094 673.242188 93.753906 672.757812 94.078125 C 672.269531 94.402344 671.695312 94.566406 671.023438 94.566406 C 670.613281 94.566406 670.164062 94.476562 669.664062 94.304688 "/>
<path fill-rule="nonzero" fill="rgb(13.729858%, 12.159729%, 12.548828%)" fill-opacity="1" d="M 2.527344 18.070312 L 2.527344 0.890625 L 4.796875 0.890625 L 4.796875 18.070312 L 2.527344 18.070312 "/>
<path fill-rule="nonzero" fill="rgb(13.729858%, 12.159729%, 12.548828%)" fill-opacity="1" d="M 17.152344 18.070312 L 15.195312 18.070312 L 15.195312 0.890625 L 17.300781 0.890625 L 17.300781 7.019531 C 18.195312 5.902344 19.332031 5.34375 20.710938 5.34375 C 21.476562 5.34375 22.203125 5.5 22.886719 5.808594 C 23.570312 6.117188 24.128906 6.550781 24.574219 7.109375 C 25.015625 7.667969 25.363281 8.339844 25.609375 9.132812 C 25.863281 9.921875 25.988281 10.765625 25.988281 11.660156 C 25.988281 13.796875 25.457031 15.445312 24.402344 16.609375 C 23.351562 17.773438 22.082031 18.351562 20.605469 18.351562 C 19.136719 18.351562 17.984375 17.738281 17.152344 16.511719 Z M 17.125 11.757812 C 17.125 13.246094 17.332031 14.324219 17.734375 14.988281 C 18.398438 16.078125 19.296875 16.621094 20.429688 16.621094 C 21.355469 16.621094 22.152344 16.21875 22.824219 15.414062 C 23.492188 14.617188 23.832031 13.425781 23.832031 11.835938 C 23.832031 10.210938 23.507812 9.011719 22.863281 8.238281 C 22.21875 7.46875 21.4375 7.078125 20.527344 7.078125 C 19.601562 7.078125 18.804688 7.480469 18.132812 8.28125 C 17.460938 9.078125 17.125 10.238281 17.125 11.757812 "/>
<path fill-rule="nonzero" fill="rgb(13.729858%, 12.159729%, 12.548828%)" fill-opacity="1" d="M 28.5625 3.320312 L 28.5625 0.890625 L 30.675781 0.890625 L 30.675781 3.320312 Z M 28.5625 18.070312 L 28.5625 5.628906 L 30.675781 5.628906 L 30.675781 18.070312 L 28.5625 18.070312 "/>
<path fill-rule="nonzero" fill="rgb(13.729858%, 12.159729%, 12.548828%)" fill-opacity="1" d="M 38.492188 16.183594 L 38.792969 18.046875 C 38.203125 18.171875 37.671875 18.234375 37.203125 18.234375 C 36.433594 18.234375 35.84375 18.117188 35.417969 17.871094 C 35 17.632812 34.703125 17.3125 34.53125 16.914062 C 34.359375 16.523438 34.269531 15.691406 34.269531 14.429688 L 34.269531 7.269531 L 32.722656 7.269531 L 32.722656 5.628906 L 34.269531 5.628906 L 34.269531 2.542969 L 36.371094 1.28125 L 36.371094 5.628906 L 38.492188 5.628906 L 38.492188 7.269531 L 36.371094 7.269531 L 36.371094 14.542969 C 36.371094 15.148438 36.40625 15.53125 36.476562 15.703125 C 36.554688 15.875 36.675781 16.011719 36.84375 16.117188 C 37.011719 16.214844 37.25 16.269531 37.5625 16.269531 C 37.796875 16.269531 38.105469 16.238281 38.492188 16.183594 "/>
<path fill-rule="nonzero" fill="rgb(13.729858%, 12.159729%, 12.548828%)" fill-opacity="1" d="M 39.710938 14.355469 L 41.792969 14.027344 C 41.910156 14.863281 42.238281 15.503906 42.773438 15.953125 C 43.304688 16.394531 44.054688 16.621094 45.019531 16.621094 C 45.984375 16.621094 46.707031 16.421875 47.175781 16.027344 C 47.644531 15.632812 47.878906 15.167969 47.878906 14.640625 C 47.878906 14.160156 47.671875 13.789062 47.253906 13.511719 C 46.964844 13.324219 46.246094 13.089844 45.097656 12.800781 C 43.554688 12.410156 42.476562 12.070312 41.882812 11.785156 C 41.285156 11.5 40.832031 11.105469 40.523438 10.601562 C 40.214844 10.097656 40.058594 9.539062 40.058594 8.933594 C 40.058594 8.378906 40.1875 7.863281 40.441406 7.390625 C 40.695312 6.914062 41.042969 6.523438 41.476562 6.210938 C 41.804688 5.972656 42.253906 5.765625 42.820312 5.597656 C 43.386719 5.429688 43.996094 5.34375 44.644531 5.34375 C 45.617188 5.34375 46.472656 5.488281 47.214844 5.769531 C 47.953125 6.046875 48.5 6.429688 48.851562 6.90625 C 49.203125 7.390625 49.441406 8.03125 49.574219 8.835938 L 47.515625 9.121094 C 47.417969 8.480469 47.148438 7.980469 46.699219 7.621094 C 46.25 7.261719 45.613281 7.078125 44.792969 7.078125 C 43.828125 7.078125 43.132812 7.238281 42.722656 7.558594 C 42.304688 7.878906 42.097656 8.257812 42.097656 8.683594 C 42.097656 8.960938 42.1875 9.203125 42.359375 9.425781 C 42.53125 9.652344 42.796875 9.835938 43.167969 9.988281 C 43.378906 10.0625 44 10.242188 45.03125 10.523438 C 46.523438 10.925781 47.5625 11.246094 48.152344 11.503906 C 48.742188 11.757812 49.207031 12.128906 49.542969 12.613281 C 49.878906 13.097656 50.046875 13.695312 50.046875 14.414062 C 50.046875 15.121094 49.839844 15.78125 49.429688 16.402344 C 49.019531 17.023438 48.425781 17.503906 47.65625 17.84375 C 46.882812 18.183594 46.007812 18.351562 45.03125 18.351562 C 43.410156 18.351562 42.179688 18.015625 41.332031 17.34375 C 40.480469 16.671875 39.941406 15.675781 39.710938 14.355469 "/>
</svg>
