<?xml version="1.0" encoding="UTF-8"?>
<svg xmlns="http://www.w3.org/2000/svg" xmlns:xlink="http://www.w3.org/1999/xlink" width="490" height="444" viewBox="0 0 490 444">
<path fill="none" stroke-width="19.9984" stroke-linecap="butt" stroke-linejoin="miter" stroke="rgb(13.729858%, 12.159729%, 12.548828%)" stroke-opacity="1" stroke-miterlimit="22.9256" d="M 61.835938 4187.03125 L 61.835938 3079.648438 L 4562.539062 3079.648438 " transform="matrix(0.1, 0, 0, -0.1, 0, 444)"/>
<path fill-rule="evenodd" fill="rgb(13.729858%, 12.159729%, 12.548828%)" fill-opacity="1" d="M 11.410156 26.121094 L 6.183594 16.617188 L 0.953125 26.121094 Z M 11.410156 26.121094 "/>
<path fill-rule="evenodd" fill="rgb(13.729858%, 12.159729%, 12.548828%)" fill-opacity="1" d="M 455.429688 130.808594 L 464.933594 136.035156 L 455.429688 141.265625 Z M 455.429688 130.808594 "/>
<path fill="none" stroke-width="19.9984" stroke-linecap="butt" stroke-linejoin="miter" stroke="rgb(13.729858%, 12.159729%, 12.548828%)" stroke-opacity="1" stroke-miterlimit="22.9256" d="M 61.640625 2118.632812 L 61.640625 1011.25 L 4562.34375 1011.25 " transform="matrix(0.1, 0, 0, -0.1, 0, 444)"/>
<path fill-rule="evenodd" fill="rgb(13.729858%, 12.159729%, 12.548828%)" fill-opacity="1" d="M 11.390625 232.960938 L 6.164062 223.457031 L 0.933594 232.960938 Z M 11.390625 232.960938 "/>
<path fill-rule="evenodd" fill="rgb(13.729858%, 12.159729%, 12.548828%)" fill-opacity="1" d="M 455.410156 337.648438 L 464.914062 342.875 L 455.410156 348.101562 Z M 455.410156 337.648438 "/>
<path fill-rule="nonzero" fill="rgb(13.729858%, 12.159729%, 12.548828%)" fill-opacity="1" d="M 457.179688 160.738281 L 457.179688 148.296875 L 459.074219 148.296875 L 459.074219 150.0625 C 459.992188 148.695312 461.3125 148.011719 463.035156 148.011719 C 463.789062 148.011719 464.476562 148.148438 465.105469 148.414062 C 465.734375 148.6875 466.203125 149.039062 466.515625 149.480469 C 466.832031 149.914062 467.046875 150.4375 467.175781 151.035156 C 467.253906 151.429688 467.292969 152.113281 467.292969 153.089844 L 467.292969 160.738281 L 465.179688 160.738281 L 465.179688 153.167969 C 465.179688 152.3125 465.101562 151.667969 464.9375 151.238281 C 464.773438 150.816406 464.480469 150.476562 464.0625 150.222656 C 463.644531 149.96875 463.15625 149.839844 462.59375 149.839844 C 461.691406 149.839844 460.921875 150.128906 460.265625 150.695312 C 459.613281 151.269531 459.289062 152.347656 459.289062 153.945312 L 459.289062 160.738281 L 457.179688 160.738281 "/>
<path fill-rule="nonzero" fill="rgb(13.729858%, 12.159729%, 12.548828%)" fill-opacity="1" d="M 457.167969 367.582031 L 457.167969 350.398438 L 459.28125 350.398438 L 459.28125 360.195312 L 464.273438 355.136719 L 467 355.136719 L 462.242188 359.753906 L 467.484375 367.582031 L 464.878906 367.582031 L 460.769531 361.214844 L 459.28125 362.648438 L 459.28125 367.582031 L 457.167969 367.582031 "/>
<path fill="none" stroke-width="2.16" stroke-linecap="butt" stroke-linejoin="miter" stroke="rgb(13.729858%, 12.159729%, 12.548828%)" stroke-opacity="1" stroke-miterlimit="22.9256" d="M 3200.039062 3251.015625 L 3200.078125 3079.648438 " transform="matrix(0.1, 0, 0, -0.1, 0, 444)"/>
<path fill="none" stroke-width="2.16" stroke-linecap="butt" stroke-linejoin="miter" stroke="rgb(13.729858%, 12.159729%, 12.548828%)" stroke-opacity="1" stroke-miterlimit="22.9256" d="M 3199.84375 1182.617188 L 3199.84375 1011.25 " transform="matrix(0.1, 0, 0, -0.1, 0, 444)"/>
<path fill-rule="nonzero" fill="rgb(13.729858%, 12.159729%, 12.548828%)" fill-opacity="1" d="M 316.636719 165.390625 L 316.636719 148.210938 L 318.96875 148.210938 L 327.992188 161.695312 L 327.992188 148.210938 L 330.171875 148.210938 L 330.171875 165.390625 L 327.839844 165.390625 L 318.816406 151.890625 L 318.816406 165.390625 L 316.636719 165.390625 "/>
<path fill-rule="nonzero" fill="rgb(13.729858%, 12.159729%, 12.548828%)" fill-opacity="1" d="M 332.898438 160.234375 L 332.898438 158.113281 L 339.382812 158.113281 L 339.382812 160.234375 L 332.898438 160.234375 "/>
<path fill-rule="nonzero" fill="rgb(13.729858%, 12.159729%, 12.548828%)" fill-opacity="1" d="M 349.070312 165.390625 L 346.964844 165.390625 L 346.964844 151.949219 C 346.457031 152.433594 345.792969 152.917969 344.96875 153.402344 C 344.140625 153.886719 343.398438 154.25 342.742188 154.488281 L 342.742188 152.453125 C 343.925781 151.898438 344.957031 151.226562 345.839844 150.4375 C 346.71875 149.644531 347.347656 148.882812 347.714844 148.136719 L 349.070312 148.136719 L 349.070312 165.390625 "/>
<path fill-rule="nonzero" fill="rgb(13.729858%, 12.159729%, 12.548828%)" fill-opacity="1" d="M 316.617188 372.230469 L 316.617188 355.050781 L 318.949219 355.050781 L 327.972656 368.535156 L 327.972656 355.050781 L 330.152344 355.050781 L 330.152344 372.230469 L 327.820312 372.230469 L 318.796875 358.730469 L 318.796875 372.230469 L 316.617188 372.230469 "/>
<path fill-rule="nonzero" fill="rgb(13.729858%, 12.159729%, 12.548828%)" fill-opacity="1" d="M 332.878906 367.074219 L 332.878906 364.953125 L 339.363281 364.953125 L 339.363281 367.074219 L 332.878906 367.074219 "/>
<path fill-rule="nonzero" fill="rgb(13.729858%, 12.159729%, 12.548828%)" fill-opacity="1" d="M 349.050781 372.230469 L 346.945312 372.230469 L 346.945312 358.789062 C 346.4375 359.273438 345.773438 359.757812 344.949219 360.242188 C 344.121094 360.726562 343.378906 361.089844 342.722656 361.328125 L 342.722656 359.292969 C 343.902344 358.738281 344.9375 358.066406 345.820312 357.277344 C 346.699219 356.484375 347.328125 355.722656 347.695312 354.976562 L 349.050781 354.976562 L 349.050781 372.230469 "/>
<path fill="none" stroke-width="19.9984" stroke-linecap="butt" stroke-linejoin="miter" stroke="rgb(13.729858%, 12.159729%, 12.548828%)" stroke-opacity="1" stroke-miterlimit="22.9256" d="M 61.835938 3079.648438 C 316.132812 3148.476562 399.921875 3307.265625 531.914062 3359.492188 C 595.195312 3384.53125 1258.4375 3434.53125 1432.890625 3467.96875 C 1698.4375 3518.90625 1656.054688 3548.4375 1981.289062 3498.984375 C 2121.210938 3477.695312 2161.5625 3583.242188 2294.6875 3498.984375 C 2483.320312 3379.570312 2836.132812 3247.148438 2882.265625 3079.648438 " transform="matrix(0.1, 0, 0, -0.1, 0, 444)"/>
<path fill-rule="nonzero" fill="rgb(13.729858%, 12.159729%, 12.548828%)" fill-opacity="1" d="M 18.671875 18.179688 L 23.21875 11.710938 L 19.011719 5.734375 L 21.644531 5.734375 L 23.558594 8.652344 C 23.914062 9.207031 24.207031 9.671875 24.421875 10.046875 C 24.765625 9.53125 25.082031 9.074219 25.375 8.675781 L 27.46875 5.734375 L 29.988281 5.734375 L 25.691406 11.59375 L 30.320312 18.179688 L 27.730469 18.179688 L 25.175781 14.3125 L 24.492188 13.265625 L 21.226562 18.179688 L 18.671875 18.179688 "/>
<path fill-rule="nonzero" fill="rgb(13.729858%, 12.159729%, 12.548828%)" fill-opacity="1" d="M 36.105469 23.230469 C 34.941406 21.761719 33.957031 20.042969 33.15625 18.074219 C 32.351562 16.101562 31.945312 14.066406 31.945312 11.953125 C 31.945312 10.09375 32.246094 8.316406 32.851562 6.609375 C 33.554688 4.636719 34.636719 2.667969 36.105469 0.707031 L 37.617188 0.707031 C 36.675781 2.332031 36.050781 3.492188 35.746094 4.1875 C 35.265625 5.261719 34.894531 6.390625 34.617188 7.5625 C 34.28125 9.023438 34.113281 10.492188 34.113281 11.96875 C 34.113281 15.726562 35.28125 19.480469 37.617188 23.230469 L 36.105469 23.230469 "/>
<path fill-rule="nonzero" fill="rgb(13.729858%, 12.159729%, 12.548828%)" fill-opacity="1" d="M 40.070312 18.179688 L 40.070312 5.734375 L 41.964844 5.734375 L 41.964844 7.503906 C 42.882812 6.136719 44.203125 5.449219 45.925781 5.449219 C 46.679688 5.449219 47.367188 5.585938 47.992188 5.855469 C 48.625 6.128906 49.09375 6.480469 49.40625 6.917969 C 49.722656 7.355469 49.9375 7.875 50.066406 8.476562 C 50.140625 8.867188 50.183594 9.550781 50.183594 10.527344 L 50.183594 18.179688 L 48.070312 18.179688 L 48.070312 10.605469 C 48.070312 9.75 47.988281 9.105469 47.828125 8.679688 C 47.664062 8.253906 47.371094 7.914062 46.953125 7.664062 C 46.535156 7.40625 46.046875 7.277344 45.480469 7.277344 C 44.582031 7.277344 43.808594 7.566406 43.15625 8.136719 C 42.503906 8.707031 42.179688 9.785156 42.179688 11.382812 L 42.179688 18.179688 L 40.070312 18.179688 "/>
<path fill-rule="nonzero" fill="rgb(13.729858%, 12.159729%, 12.548828%)" fill-opacity="1" d="M 54.796875 23.230469 L 53.285156 23.230469 C 55.621094 19.480469 56.789062 15.726562 56.789062 11.96875 C 56.789062 10.5 56.621094 9.042969 56.285156 7.59375 C 56.023438 6.425781 55.652344 5.300781 55.175781 4.222656 C 54.871094 3.519531 54.242188 2.347656 53.285156 0.707031 L 54.796875 0.707031 C 56.265625 2.667969 57.355469 4.636719 58.058594 6.609375 C 58.660156 8.316406 58.957031 10.09375 58.957031 11.953125 C 58.957031 14.066406 58.554688 16.101562 57.746094 18.074219 C 56.9375 20.042969 55.953125 21.761719 54.796875 23.230469 "/>
<path fill-rule="nonzero" fill="rgb(13.729858%, 12.159729%, 12.548828%)" fill-opacity="1" d="M 18.578125 225.019531 L 25.226562 216.066406 L 19.367188 207.839844 L 22.070312 207.839844 L 25.191406 212.246094 C 25.839844 213.160156 26.296875 213.863281 26.570312 214.355469 C 26.953125 213.730469 27.40625 213.078125 27.929688 212.398438 L 31.390625 207.839844 L 33.863281 207.839844 L 27.828125 215.933594 L 34.332031 225.019531 L 31.519531 225.019531 L 27.195312 218.890625 C 26.949219 218.539062 26.703125 218.15625 26.441406 217.742188 C 26.058594 218.367188 25.785156 218.796875 25.621094 219.03125 L 21.308594 225.019531 L 18.578125 225.019531 "/>
<path fill-rule="nonzero" fill="rgb(13.729858%, 12.159729%, 12.548828%)" fill-opacity="1" d="M 40.09375 230.070312 C 38.929688 228.601562 37.945312 226.882812 37.140625 224.914062 C 36.339844 222.941406 35.933594 220.90625 35.933594 218.796875 C 35.933594 216.933594 36.234375 215.15625 36.839844 213.449219 C 37.542969 211.476562 38.625 209.507812 40.09375 207.546875 L 41.605469 207.546875 C 40.660156 209.171875 40.039062 210.332031 39.734375 211.027344 C 39.253906 212.101562 38.882812 213.230469 38.605469 214.402344 C 38.269531 215.863281 38.101562 217.328125 38.101562 218.808594 C 38.101562 222.566406 39.269531 226.320312 41.605469 230.070312 L 40.09375 230.070312 "/>
<path fill-rule="nonzero" fill="rgb(13.729858%, 12.159729%, 12.548828%)" fill-opacity="1" d="M 44.066406 225.019531 L 44.066406 207.839844 L 46.179688 207.839844 L 46.179688 217.636719 L 51.171875 212.574219 L 53.898438 212.574219 L 49.140625 217.191406 L 54.382812 225.019531 L 51.777344 225.019531 L 47.664062 218.65625 L 46.179688 220.085938 L 46.179688 225.019531 L 44.066406 225.019531 "/>
<path fill-rule="nonzero" fill="rgb(13.729858%, 12.159729%, 12.548828%)" fill-opacity="1" d="M 57.4375 230.070312 L 55.925781 230.070312 C 58.261719 226.320312 59.429688 222.566406 59.429688 218.808594 C 59.429688 217.339844 59.261719 215.882812 58.925781 214.433594 C 58.660156 213.265625 58.289062 212.140625 57.816406 211.0625 C 57.511719 210.359375 56.882812 209.1875 55.925781 207.546875 L 57.4375 207.546875 C 58.90625 209.507812 59.992188 211.476562 60.699219 213.449219 C 61.296875 215.15625 61.597656 216.933594 61.597656 218.796875 C 61.597656 220.90625 61.195312 222.941406 60.386719 224.914062 C 59.578125 226.882812 58.59375 228.601562 57.4375 230.070312 "/>
<path fill="none" stroke-width="2.16" stroke-linecap="butt" stroke-linejoin="miter" stroke="rgb(13.729858%, 12.159729%, 12.548828%)" stroke-opacity="1" stroke-miterlimit="22.9256" d="M 1611.523438 1011.25 L 1611.523438 1174.414062 " transform="matrix(0.1, 0, 0, -0.1, 0, 444)"/>
<path fill-rule="nonzero" fill="rgb(13.729858%, 12.159729%, 12.548828%)" fill-opacity="1" d="M 153.683594 368.398438 L 153.683594 351.21875 L 156.015625 351.21875 L 165.039062 364.707031 L 165.039062 351.21875 L 167.21875 351.21875 L 167.21875 368.398438 L 164.886719 368.398438 L 155.863281 354.898438 L 155.863281 368.398438 L 153.683594 368.398438 "/>
<path fill-rule="nonzero" fill="rgb(13.729858%, 12.159729%, 12.548828%)" fill-opacity="1" d="M 169.1875 368.691406 L 174.167969 350.925781 L 175.855469 350.925781 L 170.886719 368.691406 L 169.1875 368.691406 "/>
<path fill-rule="nonzero" fill="rgb(13.729858%, 12.159729%, 12.548828%)" fill-opacity="1" d="M 187.9375 366.371094 L 187.9375 368.398438 L 176.582031 368.398438 C 176.566406 367.890625 176.644531 367.402344 176.828125 366.9375 C 177.113281 366.160156 177.578125 365.398438 178.214844 364.648438 C 178.855469 363.898438 179.773438 363.03125 180.976562 362.046875 C 182.84375 360.515625 184.105469 359.304688 184.761719 358.40625 C 185.417969 357.515625 185.746094 356.667969 185.746094 355.871094 C 185.746094 355.035156 185.445312 354.332031 184.851562 353.757812 C 184.25 353.183594 183.472656 352.894531 182.511719 352.894531 C 181.496094 352.894531 180.683594 353.199219 180.074219 353.8125 C 179.464844 354.417969 179.15625 355.265625 179.144531 356.339844 L 176.980469 356.121094 C 177.128906 354.5 177.6875 353.269531 178.65625 352.417969 C 179.621094 351.570312 180.925781 351.148438 182.558594 351.148438 C 184.207031 351.148438 185.511719 351.609375 186.472656 352.519531 C 187.433594 353.4375 187.914062 354.566406 187.914062 355.917969 C 187.914062 356.609375 187.773438 357.285156 187.492188 357.949219 C 187.210938 358.613281 186.742188 359.3125 186.089844 360.042969 C 185.4375 360.78125 184.355469 361.789062 182.839844 363.066406 C 181.574219 364.132812 180.761719 364.851562 180.402344 365.230469 C 180.042969 365.609375 179.746094 365.988281 179.511719 366.371094 L 187.9375 366.371094 "/>
<path fill="none" stroke-width="19.9984" stroke-linecap="butt" stroke-linejoin="miter" stroke="rgb(13.729858%, 12.159729%, 12.548828%)" stroke-opacity="1" stroke-miterlimit="22.9256" d="M 61.640625 1732.304688 C 116.054688 1476.210938 24.882812 1738.828125 170.3125 1639.335938 C 439.257812 1455.3125 393.945312 1469.6875 588.710938 1267.382812 C 661.210938 1192.148438 1019.804688 1186.25 1131.132812 1143.4375 C 1186.835938 1121.992188 1388.28125 1053.984375 1425.546875 1011.25 " transform="matrix(0.1, 0, 0, -0.1, 0, 444)"/>
<path fill="none" stroke-width="19.9984" stroke-linecap="butt" stroke-linejoin="miter" stroke="rgb(13.729858%, 12.159729%, 12.548828%)" stroke-opacity="1" stroke-miterlimit="22.9256" d="M 3161.328125 1736.40625 C 3106.875 1480.3125 3198.046875 1742.929688 3052.65625 1643.4375 C 2783.671875 1459.414062 2828.984375 1473.789062 2634.21875 1271.484375 C 2561.757812 1196.210938 2203.164062 1190.351562 2091.835938 1147.539062 C 2036.09375 1126.09375 1834.6875 1058.125 1797.382812 1015.351562 " transform="matrix(0.1, 0, 0, -0.1, 0, 444)"/>
<path fill-rule="nonzero" fill="rgb(13.729858%, 12.159729%, 12.548828%)" fill-opacity="1" d="M 46.777344 255.273438 L 46.777344 238.09375 L 52.695312 238.09375 C 54.03125 238.09375 55.050781 238.175781 55.753906 238.339844 C 56.738281 238.5625 57.578125 238.976562 58.273438 239.566406 C 59.175781 240.335938 59.855469 241.3125 60.304688 242.503906 C 60.757812 243.695312 60.980469 245.054688 60.980469 246.589844 C 60.980469 247.890625 60.828125 249.046875 60.519531 250.054688 C 60.21875 251.0625 59.828125 251.898438 59.347656 252.558594 C 58.875 253.21875 58.351562 253.738281 57.785156 254.117188 C 57.222656 254.496094 56.539062 254.785156 55.738281 254.980469 C 54.933594 255.175781 54.011719 255.273438 52.976562 255.273438 Z M 49.050781 253.242188 L 52.71875 253.242188 C 53.847656 253.242188 54.742188 253.140625 55.386719 252.929688 C 56.03125 252.714844 56.542969 252.421875 56.925781 252.035156 C 57.464844 251.5 57.886719 250.773438 58.183594 249.863281 C 58.484375 248.953125 58.636719 247.851562 58.636719 246.550781 C 58.636719 244.757812 58.339844 243.375 57.753906 242.410156 C 57.160156 241.445312 56.445312 240.800781 55.601562 240.472656 C 54.992188 240.234375 54.007812 240.121094 52.660156 240.121094 L 49.050781 240.121094 L 49.050781 253.242188 "/>
<path fill-rule="nonzero" fill="rgb(13.729858%, 12.159729%, 12.548828%)" fill-opacity="1" d="M 76.363281 249.246094 L 78.640625 249.824219 C 78.164062 251.6875 77.304688 253.113281 76.070312 254.097656 C 74.828125 255.074219 73.316406 255.5625 71.527344 255.5625 C 69.671875 255.5625 68.167969 255.1875 67.007812 254.4375 C 65.847656 253.679688 64.964844 252.589844 64.359375 251.160156 C 63.757812 249.726562 63.453125 248.191406 63.453125 246.550781 C 63.453125 244.765625 63.792969 243.203125 64.476562 241.871094 C 65.160156 240.539062 66.132812 239.527344 67.398438 238.835938 C 68.65625 238.144531 70.046875 237.800781 71.5625 237.800781 C 73.28125 237.800781 74.726562 238.234375 75.898438 239.113281 C 77.070312 239.988281 77.886719 241.214844 78.34375 242.804688 L 76.109375 243.332031 C 75.710938 242.078125 75.132812 241.171875 74.375 240.601562 C 73.617188 240.027344 72.664062 239.742188 71.511719 239.742188 C 70.195312 239.742188 69.09375 240.058594 68.207031 240.691406 C 67.316406 241.328125 66.695312 242.175781 66.335938 243.242188 C 65.976562 244.308594 65.796875 245.40625 65.796875 246.539062 C 65.796875 248.003906 66.007812 249.277344 66.433594 250.367188 C 66.859375 251.457031 67.523438 252.273438 68.421875 252.8125 C 69.320312 253.351562 70.292969 253.621094 71.339844 253.621094 C 72.613281 253.621094 73.691406 253.253906 74.574219 252.519531 C 75.457031 251.785156 76.054688 250.691406 76.363281 249.246094 "/>
<path fill="none" stroke-width="19.9984" stroke-linecap="butt" stroke-linejoin="miter" stroke="rgb(13.729858%, 12.159729%, 12.548828%)" stroke-opacity="1" stroke-miterlimit="22.9256" d="M 449.257812 1887.265625 L 240.898438 1803.984375 " transform="matrix(0.1, 0, 0, -0.1, 0, 444)"/>
<path fill-rule="evenodd" fill="rgb(13.729858%, 12.159729%, 12.548828%)" fill-opacity="1" d="M 26.785156 268.140625 L 16.050781 266.816406 L 22.914062 258.457031 Z M 26.785156 268.140625 "/>
<path fill-rule="nonzero" fill="rgb(13.729858%, 12.159729%, 12.548828%)" fill-opacity="1" d="M 147.484375 245.972656 L 147.484375 228.792969 L 149.816406 228.792969 L 158.839844 242.28125 L 158.839844 228.792969 L 161.019531 228.792969 L 161.019531 245.972656 L 158.6875 245.972656 L 149.664062 232.472656 L 149.664062 245.972656 L 147.484375 245.972656 "/>
<path fill-rule="nonzero" fill="rgb(13.729858%, 12.159729%, 12.548828%)" fill-opacity="1" d="M 164.476562 250.765625 L 164.238281 248.785156 C 164.703125 248.910156 165.105469 248.972656 165.449219 248.972656 C 165.914062 248.972656 166.292969 248.894531 166.570312 248.738281 C 166.855469 248.582031 167.085938 248.367188 167.265625 248.082031 C 167.398438 247.875 167.613281 247.351562 167.90625 246.515625 C 167.949219 246.394531 168.011719 246.226562 168.097656 245.996094 L 163.375 233.53125 L 165.648438 233.53125 L 168.238281 240.734375 C 168.570312 241.648438 168.875 242.609375 169.140625 243.617188 C 169.382812 242.648438 169.671875 241.703125 170.007812 240.78125 L 172.667969 233.53125 L 174.777344 233.53125 L 170.042969 246.1875 C 169.535156 247.554688 169.140625 248.492188 168.859375 249.007812 C 168.484375 249.707031 168.054688 250.214844 167.570312 250.535156 C 167.085938 250.863281 166.507812 251.023438 165.835938 251.023438 C 165.429688 251.023438 164.976562 250.9375 164.476562 250.765625 "/>
<path fill-rule="nonzero" fill="rgb(13.729858%, 12.159729%, 12.548828%)" fill-opacity="1" d="M 184.503906 250.742188 L 184.503906 244.648438 C 184.175781 245.109375 183.714844 245.492188 183.128906 245.796875 C 182.535156 246.101562 181.90625 246.253906 181.242188 246.253906 C 179.769531 246.253906 178.496094 245.664062 177.433594 244.484375 C 176.363281 243.304688 175.832031 241.691406 175.832031 239.632812 C 175.832031 238.386719 176.046875 237.261719 176.484375 236.269531 C 176.914062 235.277344 177.542969 234.527344 178.367188 234.015625 C 179.191406 233.503906 180.097656 233.246094 181.078125 233.246094 C 182.621094 233.246094 183.832031 233.894531 184.714844 235.191406 L 184.714844 233.53125 L 186.613281 233.53125 L 186.613281 250.742188 Z M 178 239.71875 C 178 241.316406 178.335938 242.519531 179.007812 243.316406 C 179.679688 244.121094 180.484375 244.523438 181.421875 244.523438 C 182.320312 244.523438 183.09375 244.140625 183.738281 243.378906 C 184.390625 242.617188 184.714844 241.457031 184.714844 239.902344 C 184.714844 238.246094 184.371094 237.003906 183.6875 236.164062 C 183.003906 235.328125 182.203125 234.910156 181.28125 234.910156 C 180.367188 234.910156 179.59375 235.300781 178.957031 236.078125 C 178.320312 236.855469 178 238.066406 178 239.71875 "/>
<path fill-rule="nonzero" fill="rgb(13.729858%, 12.159729%, 12.548828%)" fill-opacity="1" d="M 198.074219 245.972656 L 198.074219 244.144531 C 197.105469 245.554688 195.789062 246.253906 194.125 246.253906 C 193.390625 246.253906 192.703125 246.113281 192.066406 245.835938 C 191.433594 245.554688 190.960938 245.199219 190.652344 244.773438 C 190.339844 244.347656 190.125 243.824219 190 243.210938 C 189.914062 242.792969 189.871094 242.136719 189.871094 241.238281 L 189.871094 233.53125 L 191.980469 233.53125 L 191.980469 240.429688 C 191.980469 241.535156 192.023438 242.273438 192.109375 242.65625 C 192.242188 243.214844 192.523438 243.644531 192.953125 243.964844 C 193.382812 244.28125 193.914062 244.4375 194.546875 244.4375 C 195.179688 244.4375 195.773438 244.277344 196.328125 243.953125 C 196.882812 243.628906 197.277344 243.1875 197.503906 242.628906 C 197.734375 242.070312 197.851562 241.257812 197.851562 240.199219 L 197.851562 233.53125 L 199.960938 233.53125 L 199.960938 245.972656 L 198.074219 245.972656 "/>
<path fill-rule="nonzero" fill="rgb(13.729858%, 12.159729%, 12.548828%)" fill-opacity="1" d="M 203.277344 231.222656 L 203.277344 228.792969 L 205.386719 228.792969 L 205.386719 231.222656 Z M 203.277344 245.972656 L 203.277344 233.53125 L 205.386719 233.53125 L 205.386719 245.972656 L 203.277344 245.972656 "/>
<path fill-rule="nonzero" fill="rgb(13.729858%, 12.159729%, 12.548828%)" fill-opacity="1" d="M 207.757812 242.257812 L 209.839844 241.929688 C 209.957031 242.765625 210.285156 243.40625 210.820312 243.855469 C 211.351562 244.296875 212.101562 244.523438 213.0625 244.523438 C 214.03125 244.523438 214.753906 244.320312 215.21875 243.929688 C 215.6875 243.535156 215.925781 243.070312 215.925781 242.542969 C 215.925781 242.0625 215.714844 241.691406 215.300781 241.414062 C 215.011719 241.226562 214.292969 240.988281 213.144531 240.703125 C 211.601562 240.308594 210.523438 239.972656 209.929688 239.6875 C 209.332031 239.402344 208.875 239.003906 208.566406 238.503906 C 208.261719 237.996094 208.105469 237.441406 208.105469 236.835938 C 208.105469 236.277344 208.230469 235.765625 208.488281 235.292969 C 208.738281 234.816406 209.089844 234.425781 209.523438 234.113281 C 209.851562 233.875 210.300781 233.664062 210.863281 233.496094 C 211.433594 233.328125 212.039062 233.246094 212.6875 233.246094 C 213.664062 233.246094 214.519531 233.390625 215.261719 233.671875 C 216 233.949219 216.542969 234.328125 216.894531 234.808594 C 217.246094 235.292969 217.488281 235.933594 217.621094 236.738281 L 215.558594 237.019531 C 215.464844 236.382812 215.191406 235.882812 214.742188 235.523438 C 214.296875 235.160156 213.660156 234.980469 212.839844 234.980469 C 211.871094 234.980469 211.179688 235.140625 210.769531 235.460938 C 210.351562 235.78125 210.144531 236.15625 210.144531 236.585938 C 210.144531 236.863281 210.230469 237.105469 210.402344 237.324219 C 210.574219 237.554688 210.84375 237.738281 211.214844 237.890625 C 211.425781 237.964844 212.042969 238.144531 213.074219 238.425781 C 214.566406 238.824219 215.609375 239.148438 216.195312 239.40625 C 216.789062 239.65625 217.253906 240.03125 217.589844 240.515625 C 217.925781 240.996094 218.09375 241.597656 218.09375 242.316406 C 218.09375 243.019531 217.882812 243.683594 217.476562 244.304688 C 217.0625 244.925781 216.472656 245.40625 215.699219 245.746094 C 214.929688 246.085938 214.050781 246.253906 213.074219 246.253906 C 211.457031 246.253906 210.222656 245.917969 209.375 245.246094 C 208.527344 244.574219 207.988281 243.578125 207.757812 242.257812 "/>
<path fill-rule="nonzero" fill="rgb(13.729858%, 12.159729%, 12.548828%)" fill-opacity="1" d="M 225.203125 244.085938 L 225.507812 245.949219 C 224.914062 246.074219 224.382812 246.136719 223.914062 246.136719 C 223.148438 246.136719 222.554688 246.019531 222.132812 245.773438 C 221.714844 245.535156 221.414062 245.214844 221.246094 244.816406 C 221.070312 244.425781 220.984375 243.59375 220.984375 242.328125 L 220.984375 235.171875 L 219.4375 235.171875 L 219.4375 233.53125 L 220.984375 233.53125 L 220.984375 230.445312 L 223.085938 229.183594 L 223.085938 233.53125 L 225.203125 233.53125 L 225.203125 235.171875 L 223.085938 235.171875 L 223.085938 242.445312 C 223.085938 243.050781 223.121094 243.433594 223.191406 243.605469 C 223.269531 243.777344 223.390625 243.914062 223.554688 244.019531 C 223.726562 244.117188 223.964844 244.171875 224.277344 244.171875 C 224.511719 244.171875 224.820312 244.140625 225.203125 244.085938 "/>
<path fill-rule="nonzero" fill="rgb(13.729858%, 12.159729%, 12.548828%)" fill-opacity="1" d="M 147.738281 272.785156 L 147.738281 261.980469 L 145.878906 261.980469 L 145.878906 260.34375 L 147.738281 260.34375 L 147.738281 259.019531 C 147.738281 258.183594 147.816406 257.558594 147.964844 257.152344 C 148.167969 256.605469 148.523438 256.160156 149.035156 255.820312 C 149.546875 255.480469 150.265625 255.3125 151.1875 255.3125 C 151.78125 255.3125 152.4375 255.382812 153.15625 255.523438 L 152.839844 257.367188 C 152.402344 257.285156 151.988281 257.246094 151.597656 257.246094 C 150.957031 257.246094 150.503906 257.382812 150.238281 257.65625 C 149.972656 257.929688 149.839844 258.441406 149.839844 259.195312 L 149.839844 260.34375 L 152.265625 260.34375 L 152.265625 261.980469 L 149.839844 261.980469 L 149.839844 272.785156 L 147.738281 272.785156 "/>
<path fill-rule="nonzero" fill="rgb(13.729858%, 12.159729%, 12.548828%)" fill-opacity="1" d="M 153.882812 272.785156 L 153.882812 260.34375 L 155.78125 260.34375 L 155.78125 262.226562 C 156.265625 261.347656 156.710938 260.761719 157.121094 260.480469 C 157.53125 260.203125 157.984375 260.058594 158.476562 260.058594 C 159.1875 260.058594 159.90625 260.285156 160.644531 260.738281 L 159.914062 262.699219 C 159.402344 262.390625 158.886719 262.238281 158.371094 262.238281 C 157.90625 262.238281 157.496094 262.378906 157.128906 262.652344 C 156.761719 262.933594 156.5 263.316406 156.34375 263.808594 C 156.109375 264.558594 155.992188 265.378906 155.992188 266.269531 L 155.992188 272.785156 L 153.882812 272.785156 "/>
<path fill-rule="nonzero" fill="rgb(13.729858%, 12.159729%, 12.548828%)" fill-opacity="1" d="M 170.414062 268.777344 L 172.597656 269.046875 C 172.253906 270.320312 171.617188 271.308594 170.6875 272.015625 C 169.753906 272.714844 168.566406 273.066406 167.125 273.066406 C 165.304688 273.066406 163.859375 272.503906 162.796875 271.386719 C 161.726562 270.265625 161.195312 268.695312 161.195312 266.671875 C 161.195312 264.574219 161.734375 262.949219 162.8125 261.792969 C 163.890625 260.636719 165.289062 260.058594 167.007812 260.058594 C 168.671875 260.058594 170.03125 260.625 171.085938 261.757812 C 172.140625 262.890625 172.667969 264.484375 172.667969 266.535156 C 172.667969 266.664062 172.664062 266.855469 172.65625 267.101562 L 163.375 267.101562 C 163.453125 268.46875 163.839844 269.519531 164.535156 270.242188 C 165.230469 270.96875 166.097656 271.335938 167.136719 271.335938 C 167.90625 271.335938 168.566406 271.128906 169.117188 270.722656 C 169.664062 270.316406 170.097656 269.671875 170.414062 268.777344 Z M 163.492188 265.367188 L 170.4375 265.367188 C 170.347656 264.320312 170.078125 263.535156 169.644531 263.015625 C 168.972656 262.203125 168.101562 261.792969 167.03125 261.792969 C 166.0625 261.792969 165.246094 262.117188 164.589844 262.765625 C 163.929688 263.414062 163.5625 264.28125 163.492188 265.367188 "/>
<path fill-rule="nonzero" fill="rgb(13.729858%, 12.159729%, 12.548828%)" fill-opacity="1" d="M 183.179688 277.554688 L 183.179688 271.460938 C 182.851562 271.921875 182.390625 272.304688 181.804688 272.609375 C 181.210938 272.914062 180.585938 273.066406 179.921875 273.066406 C 178.445312 273.066406 177.171875 272.476562 176.109375 271.296875 C 175.039062 270.117188 174.507812 268.503906 174.507812 266.445312 C 174.507812 265.199219 174.722656 264.074219 175.160156 263.082031 C 175.59375 262.089844 176.21875 261.339844 177.042969 260.824219 C 177.867188 260.3125 178.773438 260.058594 179.757812 260.058594 C 181.296875 260.058594 182.507812 260.703125 183.390625 262.003906 L 183.390625 260.34375 L 185.289062 260.34375 L 185.289062 277.554688 Z M 176.675781 266.53125 C 176.675781 268.128906 177.011719 269.328125 177.683594 270.128906 C 178.355469 270.933594 179.160156 271.335938 180.097656 271.335938 C 180.996094 271.335938 181.769531 270.953125 182.414062 270.191406 C 183.066406 269.429688 183.390625 268.269531 183.390625 266.714844 C 183.390625 265.058594 183.046875 263.8125 182.363281 262.976562 C 181.679688 262.140625 180.878906 261.722656 179.957031 261.722656 C 179.042969 261.722656 178.269531 262.113281 177.632812 262.890625 C 176.996094 263.664062 176.675781 264.878906 176.675781 266.53125 "/>
<path fill-rule="nonzero" fill="rgb(13.729858%, 12.159729%, 12.548828%)" fill-opacity="1" d="M 196.753906 272.785156 L 196.753906 270.957031 C 195.78125 272.367188 194.464844 273.066406 192.800781 273.066406 C 192.066406 273.066406 191.378906 272.925781 190.742188 272.644531 C 190.109375 272.367188 189.636719 272.011719 189.328125 271.585938 C 189.015625 271.15625 188.800781 270.636719 188.675781 270.019531 C 188.59375 269.605469 188.546875 268.949219 188.546875 268.050781 L 188.546875 260.34375 L 190.65625 260.34375 L 190.65625 267.242188 C 190.65625 268.347656 190.699219 269.085938 190.785156 269.46875 C 190.921875 270.027344 191.199219 270.457031 191.628906 270.777344 C 192.058594 271.09375 192.59375 271.25 193.222656 271.25 C 193.855469 271.25 194.449219 271.089844 195.003906 270.765625 C 195.558594 270.441406 195.953125 269.996094 196.179688 269.441406 C 196.410156 268.882812 196.527344 268.070312 196.527344 267.007812 L 196.527344 260.34375 L 198.636719 260.34375 L 198.636719 272.785156 L 196.753906 272.785156 "/>
<path fill-rule="nonzero" fill="rgb(13.729858%, 12.159729%, 12.548828%)" fill-opacity="1" d="M 202.539062 272.785156 L 202.539062 270.382812 L 204.945312 270.382812 L 204.945312 272.785156 L 202.539062 272.785156 "/>
<path fill="none" stroke-width="19.9984" stroke-linecap="butt" stroke-linejoin="miter" stroke="rgb(13.729858%, 12.159729%, 12.548828%)" stroke-opacity="1" stroke-miterlimit="22.9256" d="M 1611.523438 1608.359375 L 1611.523438 1431.367188 " transform="matrix(0.1, 0, 0, -0.1, 0, 444)"/>
<path fill-rule="evenodd" fill="rgb(13.729858%, 12.159729%, 12.548828%)" fill-opacity="1" d="M 166.359375 300.046875 L 161.152344 309.511719 L 155.945312 300.046875 Z M 166.359375 300.046875 "/>
<path fill="none" stroke-width="39.9997" stroke-linecap="butt" stroke-linejoin="miter" stroke="rgb(13.729858%, 12.159729%, 12.548828%)" stroke-opacity="1" stroke-miterlimit="22.9256" d="M 569.492188 607.578125 C 827.460938 128.476562 1142.109375 155.859375 1762.773438 34.179688 C 2078.007812 -27.617188 2444.648438 363.242188 2444.648438 607.578125 " transform="matrix(0.1, 0, 0, -0.1, 0, 444)"/>
<path fill-rule="evenodd" fill="rgb(13.729858%, 12.159729%, 12.548828%)" fill-opacity="1" d="M 234.007812 384.890625 L 244.464844 365.882812 L 254.921875 384.890625 Z M 234.007812 384.890625 "/>
<path fill-rule="nonzero" fill="rgb(13.729858%, 12.159729%, 12.548828%)" fill-opacity="1" d="M 145.195312 429.539062 L 145.195312 417.09375 L 147.078125 417.09375 L 147.078125 418.839844 C 147.472656 418.230469 147.992188 417.738281 148.640625 417.371094 C 149.289062 417 150.027344 416.8125 150.855469 416.8125 C 151.777344 416.8125 152.53125 417.003906 153.121094 417.386719 C 153.710938 417.773438 154.128906 418.304688 154.367188 418.992188 C 155.355469 417.539062 156.636719 416.8125 158.210938 416.8125 C 159.449219 416.8125 160.394531 417.15625 161.058594 417.839844 C 161.722656 418.523438 162.054688 419.574219 162.054688 420.996094 L 162.054688 429.539062 L 159.960938 429.539062 L 159.960938 421.699219 C 159.960938 420.855469 159.890625 420.246094 159.757812 419.875 C 159.617188 419.507812 159.367188 419.207031 159.011719 418.980469 C 158.652344 418.757812 158.226562 418.640625 157.742188 418.640625 C 156.867188 418.640625 156.144531 418.933594 155.5625 419.515625 C 154.988281 420.097656 154.695312 421.027344 154.695312 422.308594 L 154.695312 429.539062 L 152.589844 429.539062 L 152.589844 421.457031 C 152.589844 420.515625 152.414062 419.8125 152.070312 419.34375 C 151.726562 418.875 151.167969 418.640625 150.382812 418.640625 C 149.792969 418.640625 149.242188 418.796875 148.738281 419.113281 C 148.234375 419.421875 147.867188 419.878906 147.644531 420.480469 C 147.414062 421.085938 147.304688 421.953125 147.304688 423.085938 L 147.304688 429.539062 L 145.195312 429.539062 "/>
<path fill-rule="nonzero" fill="rgb(13.729858%, 12.159729%, 12.548828%)" fill-opacity="1" d="M 165.195312 414.789062 L 165.195312 412.359375 L 167.308594 412.359375 L 167.308594 414.789062 Z M 165.195312 429.539062 L 165.195312 417.09375 L 167.308594 417.09375 L 167.308594 429.539062 L 165.195312 429.539062 "/>
<path fill-rule="nonzero" fill="rgb(13.729858%, 12.159729%, 12.548828%)" fill-opacity="1" d="M 170.496094 429.539062 L 170.496094 417.09375 L 172.390625 417.09375 L 172.390625 418.980469 C 172.875 418.101562 173.324219 417.515625 173.734375 417.234375 C 174.144531 416.957031 174.597656 416.8125 175.089844 416.8125 C 175.800781 416.8125 176.519531 417.039062 177.257812 417.492188 L 176.527344 419.453125 C 176.015625 419.144531 175.5 418.992188 174.984375 418.992188 C 174.519531 418.992188 174.109375 419.132812 173.738281 419.40625 C 173.371094 419.6875 173.113281 420.070312 172.957031 420.5625 C 172.71875 421.3125 172.605469 422.132812 172.605469 423.023438 L 172.605469 429.539062 L 170.496094 429.539062 "/>
<path fill-rule="nonzero" fill="rgb(13.729858%, 12.159729%, 12.548828%)" fill-opacity="1" d="M 178.488281 429.539062 L 178.488281 417.09375 L 180.382812 417.09375 L 180.382812 418.980469 C 180.867188 418.101562 181.316406 417.515625 181.726562 417.234375 C 182.136719 416.957031 182.589844 416.8125 183.078125 416.8125 C 183.792969 416.8125 184.511719 417.039062 185.246094 417.492188 L 184.519531 419.453125 C 184.007812 419.144531 183.492188 418.992188 182.976562 418.992188 C 182.511719 418.992188 182.101562 419.132812 181.730469 419.40625 C 181.363281 419.6875 181.105469 420.070312 180.949219 420.5625 C 180.710938 421.3125 180.597656 422.132812 180.597656 423.023438 L 180.597656 429.539062 L 178.488281 429.539062 "/>
<path fill-rule="nonzero" fill="rgb(13.729858%, 12.159729%, 12.548828%)" fill-opacity="1" d="M 185.714844 423.316406 C 185.714844 421.011719 186.355469 419.304688 187.640625 418.195312 C 188.707031 417.277344 190.011719 416.8125 191.550781 416.8125 C 193.265625 416.8125 194.664062 417.371094 195.746094 418.496094 C 196.835938 419.617188 197.375 421.164062 197.375 423.140625 C 197.375 424.742188 197.136719 426.003906 196.65625 426.917969 C 196.175781 427.839844 195.476562 428.550781 194.558594 429.058594 C 193.640625 429.566406 192.640625 429.820312 191.550781 429.820312 C 189.8125 429.820312 188.402344 429.265625 187.328125 428.144531 C 186.253906 427.027344 185.714844 425.417969 185.714844 423.316406 Z M 187.882812 423.316406 C 187.882812 424.910156 188.230469 426.105469 188.929688 426.894531 C 189.625 427.691406 190.5 428.089844 191.550781 428.089844 C 192.601562 428.089844 193.472656 427.6875 194.167969 426.890625 C 194.859375 426.09375 195.207031 424.878906 195.207031 423.246094 C 195.207031 421.707031 194.859375 420.539062 194.160156 419.746094 C 193.460938 418.957031 192.59375 418.558594 191.550781 418.558594 C 190.5 418.558594 189.625 418.957031 188.929688 419.742188 C 188.230469 420.53125 187.882812 421.722656 187.882812 423.316406 "/>
<path fill-rule="nonzero" fill="rgb(13.729858%, 12.159729%, 12.548828%)" fill-opacity="1" d="M 199.828125 429.539062 L 199.828125 417.09375 L 201.722656 417.09375 L 201.722656 418.980469 C 202.207031 418.101562 202.65625 417.515625 203.066406 417.234375 C 203.476562 416.957031 203.929688 416.8125 204.421875 416.8125 C 205.132812 416.8125 205.851562 417.039062 206.589844 417.492188 L 205.859375 419.453125 C 205.347656 419.144531 204.832031 418.992188 204.316406 418.992188 C 203.851562 418.992188 203.441406 419.132812 203.070312 419.40625 C 202.703125 419.6875 202.445312 420.070312 202.289062 420.5625 C 202.050781 421.3125 201.9375 422.132812 201.9375 423.023438 L 201.9375 429.539062 L 199.828125 429.539062 "/>
<path fill-rule="nonzero" fill="rgb(13.729858%, 12.159729%, 12.548828%)" fill-opacity="1" d="M 164.992188 59.394531 L 167.074219 59.066406 C 167.191406 59.902344 167.519531 60.539062 168.054688 60.988281 C 168.589844 61.433594 169.335938 61.65625 170.300781 61.65625 C 171.269531 61.65625 171.988281 61.457031 172.457031 61.066406 C 172.925781 60.667969 173.160156 60.203125 173.160156 59.675781 C 173.160156 59.195312 172.953125 58.824219 172.535156 58.550781 C 172.246094 58.359375 171.527344 58.125 170.378906 57.835938 C 168.835938 57.445312 167.761719 57.109375 167.164062 56.820312 C 166.566406 56.535156 166.113281 56.140625 165.804688 55.636719 C 165.496094 55.132812 165.339844 54.578125 165.339844 53.96875 C 165.339844 53.414062 165.46875 52.902344 165.722656 52.429688 C 165.976562 51.953125 166.324219 51.5625 166.761719 51.25 C 167.089844 51.007812 167.535156 50.800781 168.101562 50.632812 C 168.667969 50.464844 169.277344 50.382812 169.925781 50.382812 C 170.898438 50.382812 171.757812 50.523438 172.496094 50.804688 C 173.234375 51.085938 173.78125 51.464844 174.132812 51.945312 C 174.484375 52.429688 174.722656 53.070312 174.855469 53.871094 L 172.796875 54.15625 C 172.699219 53.515625 172.429688 53.015625 171.980469 52.65625 C 171.53125 52.296875 170.894531 52.117188 170.074219 52.117188 C 169.109375 52.117188 168.414062 52.277344 168.003906 52.597656 C 167.589844 52.917969 167.378906 53.292969 167.378906 53.722656 C 167.378906 53.996094 167.46875 54.242188 167.640625 54.460938 C 167.8125 54.6875 168.078125 54.871094 168.449219 55.023438 C 168.660156 55.101562 169.28125 55.28125 170.3125 55.5625 C 171.804688 55.960938 172.84375 56.285156 173.433594 56.539062 C 174.023438 56.792969 174.488281 57.164062 174.824219 57.648438 C 175.160156 58.132812 175.328125 58.734375 175.328125 59.453125 C 175.328125 60.15625 175.121094 60.816406 174.710938 61.441406 C 174.300781 62.0625 173.707031 62.539062 172.9375 62.882812 C 172.164062 63.222656 171.289062 63.390625 170.3125 63.390625 C 168.691406 63.390625 167.460938 63.054688 166.613281 62.382812 C 165.765625 61.710938 165.222656 60.714844 164.992188 59.394531 "/>
<path fill-rule="nonzero" fill="rgb(13.729858%, 12.159729%, 12.548828%)" fill-opacity="1" d="M 185.957031 61.574219 C 185.171875 62.238281 184.421875 62.703125 183.699219 62.980469 C 182.976562 63.253906 182.199219 63.390625 181.371094 63.390625 C 180.003906 63.390625 178.957031 63.058594 178.21875 62.390625 C 177.488281 61.722656 177.121094 60.863281 177.121094 59.828125 C 177.121094 59.21875 177.257812 58.660156 177.535156 58.15625 C 177.8125 57.652344 178.175781 57.25 178.625 56.945312 C 179.074219 56.640625 179.578125 56.410156 180.144531 56.253906 C 180.558594 56.144531 181.179688 56.035156 182.015625 55.9375 C 183.722656 55.734375 184.976562 55.492188 185.78125 55.210938 C 185.789062 54.921875 185.792969 54.738281 185.792969 54.660156 C 185.792969 53.800781 185.59375 53.191406 185.191406 52.84375 C 184.65625 52.363281 183.851562 52.128906 182.792969 52.128906 C 181.800781 52.128906 181.066406 52.300781 180.59375 52.648438 C 180.121094 52.996094 179.773438 53.613281 179.542969 54.496094 L 177.484375 54.214844 C 177.671875 53.332031 177.980469 52.617188 178.410156 52.078125 C 178.835938 51.53125 179.460938 51.113281 180.273438 50.820312 C 181.085938 50.527344 182.023438 50.382812 183.097656 50.382812 C 184.160156 50.382812 185.019531 50.507812 185.683594 50.757812 C 186.347656 51.007812 186.835938 51.320312 187.152344 51.699219 C 187.464844 52.082031 187.679688 52.558594 187.808594 53.136719 C 187.878906 53.496094 187.914062 54.144531 187.914062 55.082031 L 187.914062 57.894531 C 187.914062 59.855469 187.957031 61.097656 188.046875 61.613281 C 188.136719 62.132812 188.316406 62.632812 188.578125 63.109375 L 186.375 63.109375 C 186.160156 62.671875 186.015625 62.160156 185.957031 61.574219 Z M 185.78125 56.859375 C 185.011719 57.175781 183.863281 57.441406 182.335938 57.660156 C 181.46875 57.785156 180.851562 57.925781 180.496094 58.082031 C 180.136719 58.238281 179.855469 58.464844 179.664062 58.769531 C 179.46875 59.070312 179.367188 59.402344 179.367188 59.769531 C 179.367188 60.332031 179.585938 60.800781 180.007812 61.175781 C 180.433594 61.550781 181.058594 61.738281 181.875 61.738281 C 182.6875 61.738281 183.414062 61.5625 184.046875 61.203125 C 184.675781 60.847656 185.144531 60.359375 185.441406 59.746094 C 185.667969 59.269531 185.78125 58.566406 185.78125 57.636719 L 185.78125 56.859375 "/>
<path fill-rule="nonzero" fill="rgb(13.729858%, 12.159729%, 12.548828%)" fill-opacity="1" d="M 191.183594 63.109375 L 191.183594 50.664062 L 193.066406 50.664062 L 193.066406 52.410156 C 193.460938 51.800781 193.980469 51.308594 194.628906 50.941406 C 195.277344 50.570312 196.015625 50.382812 196.84375 50.382812 C 197.765625 50.382812 198.519531 50.574219 199.109375 50.957031 C 199.699219 51.339844 200.117188 51.871094 200.355469 52.5625 C 201.34375 51.109375 202.625 50.382812 204.199219 50.382812 C 205.4375 50.382812 206.382812 50.726562 207.046875 51.410156 C 207.714844 52.09375 208.046875 53.144531 208.046875 54.566406 L 208.046875 63.109375 L 205.949219 63.109375 L 205.949219 55.269531 C 205.949219 54.425781 205.878906 53.816406 205.746094 53.445312 C 205.605469 53.078125 205.355469 52.777344 205 52.550781 C 204.640625 52.324219 204.214844 52.210938 203.730469 52.210938 C 202.855469 52.210938 202.132812 52.5 201.550781 53.085938 C 200.976562 53.664062 200.683594 54.597656 200.683594 55.878906 L 200.683594 63.109375 L 198.574219 63.109375 L 198.574219 55.023438 C 198.574219 54.085938 198.40625 53.382812 198.0625 52.914062 C 197.714844 52.445312 197.15625 52.210938 196.371094 52.210938 C 195.78125 52.210938 195.230469 52.363281 194.730469 52.679688 C 194.226562 52.992188 193.855469 53.449219 193.632812 54.050781 C 193.40625 54.652344 193.292969 55.519531 193.292969 56.652344 L 193.292969 63.109375 L 191.183594 63.109375 "/>
<path fill-rule="nonzero" fill="rgb(13.729858%, 12.159729%, 12.548828%)" fill-opacity="1" d="M 211.175781 67.878906 L 211.175781 50.664062 L 213.097656 50.664062 L 213.097656 52.28125 C 213.550781 51.648438 214.0625 51.171875 214.632812 50.855469 C 215.199219 50.539062 215.894531 50.382812 216.703125 50.382812 C 217.769531 50.382812 218.703125 50.65625 219.515625 51.199219 C 220.332031 51.75 220.945312 52.519531 221.355469 53.515625 C 221.773438 54.511719 221.980469 55.605469 221.980469 56.792969 C 221.980469 58.066406 221.753906 59.214844 221.292969 60.234375 C 220.835938 61.253906 220.171875 62.03125 219.300781 62.578125 C 218.429688 63.117188 217.511719 63.390625 216.550781 63.390625 C 215.847656 63.390625 215.21875 63.242188 214.660156 62.945312 C 214.101562 62.648438 213.644531 62.273438 213.285156 61.820312 L 213.285156 67.878906 Z M 213.085938 56.957031 C 213.085938 58.558594 213.410156 59.742188 214.058594 60.507812 C 214.703125 61.273438 215.492188 61.65625 216.414062 61.65625 C 217.347656 61.65625 218.152344 61.261719 218.820312 60.464844 C 219.488281 59.671875 219.824219 58.445312 219.824219 56.78125 C 219.824219 55.191406 219.496094 54.007812 218.84375 53.21875 C 218.191406 52.429688 217.414062 52.03125 216.507812 52.03125 C 215.609375 52.03125 214.8125 52.453125 214.121094 53.292969 C 213.429688 54.132812 213.085938 55.355469 213.085938 56.957031 "/>
<path fill-rule="nonzero" fill="rgb(13.729858%, 12.159729%, 12.548828%)" fill-opacity="1" d="M 224.476562 63.109375 L 224.476562 45.929688 L 226.585938 45.929688 L 226.585938 63.109375 L 224.476562 63.109375 "/>
<path fill-rule="nonzero" fill="rgb(13.729858%, 12.159729%, 12.548828%)" fill-opacity="1" d="M 238.371094 59.101562 L 240.554688 59.367188 C 240.210938 60.644531 239.574219 61.632812 238.644531 62.335938 C 237.714844 63.035156 236.523438 63.390625 235.078125 63.390625 C 233.261719 63.390625 231.816406 62.828125 230.753906 61.710938 C 229.683594 60.589844 229.152344 59.015625 229.152344 56.992188 C 229.152344 54.898438 229.691406 53.273438 230.769531 52.117188 C 231.847656 50.960938 233.246094 50.382812 234.964844 50.382812 C 236.628906 50.382812 237.988281 50.949219 239.039062 52.082031 C 240.097656 53.214844 240.625 54.808594 240.625 56.859375 C 240.625 56.988281 240.621094 57.175781 240.613281 57.425781 L 231.332031 57.425781 C 231.410156 58.792969 231.796875 59.839844 232.492188 60.566406 C 233.1875 61.292969 234.054688 61.65625 235.09375 61.65625 C 235.863281 61.65625 236.523438 61.453125 237.074219 61.046875 C 237.621094 60.640625 238.054688 59.992188 238.371094 59.101562 Z M 231.449219 55.6875 L 238.394531 55.6875 C 238.304688 54.644531 238.035156 53.855469 237.601562 53.335938 C 236.929688 52.523438 236.058594 52.117188 234.988281 52.117188 C 234.019531 52.117188 233.203125 52.441406 232.546875 53.089844 C 231.882812 53.738281 231.519531 54.605469 231.449219 55.6875 "/>
<path fill-rule="nonzero" fill="rgb(13.729858%, 12.159729%, 12.548828%)" fill-opacity="1" d="M 251.277344 63.109375 L 251.277344 61.535156 C 250.488281 62.773438 249.328125 63.390625 247.796875 63.390625 C 246.804688 63.390625 245.894531 63.117188 245.0625 62.570312 C 244.230469 62.023438 243.585938 61.261719 243.125 60.277344 C 242.667969 59.296875 242.441406 58.171875 242.441406 56.898438 C 242.441406 55.65625 242.648438 54.527344 243.0625 53.515625 C 243.476562 52.503906 244.097656 51.730469 244.925781 51.191406 C 245.753906 50.652344 246.679688 50.382812 247.703125 50.382812 C 248.453125 50.382812 249.121094 50.539062 249.703125 50.855469 C 250.292969 51.171875 250.769531 51.585938 251.136719 52.09375 L 251.136719 45.929688 L 253.234375 45.929688 L 253.234375 63.109375 Z M 244.609375 56.898438 C 244.609375 58.492188 244.945312 59.683594 245.617188 60.472656 C 246.289062 61.261719 247.082031 61.65625 247.996094 61.65625 C 248.917969 61.65625 249.699219 61.277344 250.34375 60.523438 C 250.988281 59.773438 251.3125 58.621094 251.3125 57.074219 C 251.3125 55.367188 250.984375 54.121094 250.328125 53.324219 C 249.671875 52.523438 248.863281 52.128906 247.902344 52.128906 C 246.964844 52.128906 246.179688 52.511719 245.554688 53.277344 C 244.925781 54.039062 244.609375 55.25 244.609375 56.898438 "/>
<path fill-rule="nonzero" fill="rgb(13.729858%, 12.159729%, 12.548828%)" fill-opacity="1" d="M 262.378906 59.394531 L 264.460938 59.066406 C 264.578125 59.902344 264.90625 60.539062 265.441406 60.988281 C 265.972656 61.433594 266.722656 61.65625 267.683594 61.65625 C 268.652344 61.65625 269.371094 61.457031 269.839844 61.066406 C 270.308594 60.667969 270.546875 60.203125 270.546875 59.675781 C 270.546875 59.195312 270.335938 58.824219 269.921875 58.550781 C 269.632812 58.359375 268.914062 58.125 267.765625 57.835938 C 266.222656 57.445312 265.144531 57.109375 264.550781 56.820312 C 263.953125 56.535156 263.496094 56.140625 263.1875 55.636719 C 262.882812 55.132812 262.726562 54.578125 262.726562 53.96875 C 262.726562 53.414062 262.851562 52.902344 263.109375 52.429688 C 263.359375 51.953125 263.710938 51.5625 264.144531 51.25 C 264.472656 51.007812 264.921875 50.800781 265.484375 50.632812 C 266.054688 50.464844 266.660156 50.382812 267.308594 50.382812 C 268.285156 50.382812 269.140625 50.523438 269.882812 50.804688 C 270.621094 51.085938 271.164062 51.464844 271.515625 51.945312 C 271.867188 52.429688 272.109375 53.070312 272.242188 53.871094 L 270.179688 54.15625 C 270.085938 53.515625 269.8125 53.015625 269.363281 52.65625 C 268.917969 52.296875 268.28125 52.117188 267.460938 52.117188 C 266.492188 52.117188 265.800781 52.277344 265.390625 52.597656 C 264.972656 52.917969 264.765625 53.292969 264.765625 53.722656 C 264.765625 53.996094 264.851562 54.242188 265.023438 54.460938 C 265.195312 54.6875 265.464844 54.871094 265.832031 55.023438 C 266.046875 55.101562 266.664062 55.28125 267.695312 55.5625 C 269.1875 55.960938 270.230469 56.285156 270.816406 56.539062 C 271.410156 56.792969 271.871094 57.164062 272.210938 57.648438 C 272.546875 58.132812 272.714844 58.734375 272.714844 59.453125 C 272.714844 60.15625 272.503906 60.816406 272.097656 61.441406 C 271.683594 62.0625 271.09375 62.539062 270.320312 62.882812 C 269.550781 63.222656 268.671875 63.390625 267.695312 63.390625 C 266.078125 63.390625 264.84375 63.054688 263.996094 62.382812 C 263.148438 61.710938 262.609375 60.714844 262.378906 59.394531 "/>
<path fill-rule="nonzero" fill="rgb(13.729858%, 12.159729%, 12.548828%)" fill-opacity="1" d="M 275.230469 48.355469 L 275.230469 45.929688 L 277.339844 45.929688 L 277.339844 48.355469 Z M 275.230469 63.109375 L 275.230469 50.664062 L 277.339844 50.664062 L 277.339844 63.109375 L 275.230469 63.109375 "/>
<path fill-rule="nonzero" fill="rgb(13.729858%, 12.159729%, 12.548828%)" fill-opacity="1" d="M 280.164062 64.140625 L 282.21875 64.445312 C 282.300781 65.078125 282.539062 65.535156 282.929688 65.828125 C 283.453125 66.21875 284.167969 66.414062 285.074219 66.414062 C 286.054688 66.414062 286.804688 66.21875 287.335938 65.828125 C 287.867188 65.4375 288.226562 64.890625 288.414062 64.1875 C 288.523438 63.757812 288.574219 62.855469 288.566406 61.480469 C 287.644531 62.566406 286.496094 63.109375 285.121094 63.109375 C 283.410156 63.109375 282.085938 62.492188 281.148438 61.257812 C 280.214844 60.023438 279.742188 58.539062 279.742188 56.816406 C 279.742188 55.628906 279.957031 54.53125 280.386719 53.527344 C 280.816406 52.523438 281.441406 51.75 282.257812 51.199219 C 283.074219 50.65625 284.03125 50.382812 285.132812 50.382812 C 286.601562 50.382812 287.8125 50.976562 288.765625 52.164062 L 288.765625 50.664062 L 290.714844 50.664062 L 290.714844 61.421875 C 290.714844 63.355469 290.511719 64.734375 290.121094 65.539062 C 289.726562 66.347656 289.101562 66.988281 288.246094 67.457031 C 287.390625 67.925781 286.335938 68.160156 285.085938 68.160156 C 283.601562 68.160156 282.402344 67.824219 281.488281 67.15625 C 280.574219 66.488281 280.132812 65.484375 280.164062 64.140625 Z M 281.910156 56.664062 C 281.910156 58.296875 282.234375 59.488281 282.886719 60.238281 C 283.53125 60.988281 284.34375 61.359375 285.320312 61.359375 C 286.289062 61.359375 287.101562 60.988281 287.757812 60.246094 C 288.414062 59.496094 288.742188 58.328125 288.742188 56.734375 C 288.742188 55.210938 288.40625 54.0625 287.730469 53.289062 C 287.054688 52.515625 286.238281 52.128906 285.285156 52.128906 C 284.347656 52.128906 283.554688 52.507812 282.894531 53.273438 C 282.238281 54.03125 281.910156 55.164062 281.910156 56.664062 "/>
<path fill-rule="nonzero" fill="rgb(13.729858%, 12.159729%, 12.548828%)" fill-opacity="1" d="M 293.902344 63.109375 L 293.902344 50.664062 L 295.796875 50.664062 L 295.796875 52.433594 C 296.714844 51.066406 298.03125 50.382812 299.757812 50.382812 C 300.507812 50.382812 301.195312 50.515625 301.824219 50.785156 C 302.457031 51.058594 302.925781 51.410156 303.238281 51.847656 C 303.554688 52.285156 303.769531 52.804688 303.898438 53.40625 C 303.972656 53.796875 304.011719 54.480469 304.011719 55.457031 L 304.011719 63.109375 L 301.902344 63.109375 L 301.902344 55.535156 C 301.902344 54.679688 301.820312 54.035156 301.65625 53.609375 C 301.492188 53.183594 301.199219 52.84375 300.785156 52.59375 C 300.363281 52.335938 299.878906 52.210938 299.3125 52.210938 C 298.414062 52.210938 297.640625 52.496094 296.984375 53.066406 C 296.332031 53.636719 296.007812 54.71875 296.007812 56.3125 L 296.007812 63.109375 L 293.902344 63.109375 "/>
<path fill-rule="nonzero" fill="rgb(13.729858%, 12.159729%, 12.548828%)" fill-opacity="1" d="M 315.367188 61.574219 C 314.585938 62.238281 313.832031 62.703125 313.113281 62.980469 C 312.390625 63.253906 311.613281 63.390625 310.785156 63.390625 C 309.417969 63.390625 308.367188 63.058594 307.632812 62.390625 C 306.902344 61.722656 306.53125 60.863281 306.53125 59.828125 C 306.53125 59.21875 306.667969 58.660156 306.949219 58.15625 C 307.226562 57.652344 307.589844 57.25 308.035156 56.945312 C 308.488281 56.640625 308.992188 56.410156 309.558594 56.253906 C 309.96875 56.144531 310.59375 56.035156 311.429688 55.9375 C 313.132812 55.734375 314.390625 55.492188 315.191406 55.210938 C 315.199219 54.921875 315.203125 54.738281 315.203125 54.660156 C 315.203125 53.800781 315.003906 53.191406 314.605469 52.84375 C 314.070312 52.363281 313.265625 52.128906 312.203125 52.128906 C 311.214844 52.128906 310.480469 52.300781 310.003906 52.648438 C 309.53125 52.996094 309.183594 53.613281 308.957031 54.496094 L 306.898438 54.214844 C 307.085938 53.332031 307.394531 52.617188 307.820312 52.078125 C 308.25 51.53125 308.871094 51.113281 309.683594 50.820312 C 310.496094 50.527344 311.4375 50.382812 312.507812 50.382812 C 313.574219 50.382812 314.433594 50.507812 315.097656 50.757812 C 315.761719 51.007812 316.25 51.320312 316.566406 51.699219 C 316.878906 52.082031 317.09375 52.558594 317.222656 53.136719 C 317.289062 53.496094 317.324219 54.144531 317.324219 55.082031 L 317.324219 57.894531 C 317.324219 59.855469 317.367188 61.097656 317.460938 61.613281 C 317.550781 62.132812 317.730469 62.632812 317.992188 63.109375 L 315.789062 63.109375 C 315.574219 62.671875 315.429688 62.160156 315.367188 61.574219 Z M 315.191406 56.859375 C 314.425781 57.175781 313.277344 57.441406 311.75 57.660156 C 310.882812 57.785156 310.265625 57.925781 309.910156 58.082031 C 309.550781 58.238281 309.269531 58.464844 309.078125 58.769531 C 308.882812 59.070312 308.78125 59.402344 308.78125 59.769531 C 308.78125 60.332031 308.996094 60.800781 309.421875 61.175781 C 309.84375 61.550781 310.46875 61.738281 311.289062 61.738281 C 312.101562 61.738281 312.824219 61.5625 313.457031 61.203125 C 314.089844 60.847656 314.558594 60.359375 314.851562 59.746094 C 315.082031 59.269531 315.191406 58.566406 315.191406 57.636719 L 315.191406 56.859375 "/>
<path fill-rule="nonzero" fill="rgb(13.729858%, 12.159729%, 12.548828%)" fill-opacity="1" d="M 320.550781 63.109375 L 320.550781 45.929688 L 322.65625 45.929688 L 322.65625 63.109375 L 320.550781 63.109375 "/>
<path fill-rule="nonzero" fill="rgb(13.729858%, 12.159729%, 12.548828%)" fill-opacity="1" d="M 282.5625 241.324219 L 282.5625 230.519531 L 280.703125 230.519531 L 280.703125 228.878906 L 282.5625 228.878906 L 282.5625 227.554688 C 282.5625 226.71875 282.640625 226.097656 282.789062 225.691406 C 282.992188 225.144531 283.347656 224.699219 283.859375 224.359375 C 284.371094 224.019531 285.089844 223.851562 286.011719 223.851562 C 286.605469 223.851562 287.261719 223.921875 287.980469 224.0625 L 287.664062 225.902344 C 287.226562 225.824219 286.8125 225.785156 286.421875 225.785156 C 285.78125 225.785156 285.328125 225.921875 285.0625 226.195312 C 284.796875 226.46875 284.664062 226.980469 284.664062 227.730469 L 284.664062 228.878906 L 287.089844 228.878906 L 287.089844 230.519531 L 284.664062 230.519531 L 284.664062 241.324219 L 282.5625 241.324219 "/>
<path fill-rule="nonzero" fill="rgb(13.729858%, 12.159729%, 12.548828%)" fill-opacity="1" d="M 288.707031 241.324219 L 288.707031 228.878906 L 290.605469 228.878906 L 290.605469 230.765625 C 291.089844 229.882812 291.535156 229.300781 291.949219 229.019531 C 292.355469 228.738281 292.808594 228.597656 293.300781 228.597656 C 294.011719 228.597656 294.730469 228.824219 295.46875 229.277344 L 294.738281 231.238281 C 294.226562 230.929688 293.710938 230.777344 293.195312 230.777344 C 292.730469 230.777344 292.320312 230.914062 291.953125 231.191406 C 291.585938 231.472656 291.324219 231.855469 291.167969 232.347656 C 290.933594 233.097656 290.816406 233.914062 290.816406 234.808594 L 290.816406 241.324219 L 288.707031 241.324219 "/>
<path fill-rule="nonzero" fill="rgb(13.729858%, 12.159729%, 12.548828%)" fill-opacity="1" d="M 305.238281 237.316406 L 307.421875 237.585938 C 307.074219 238.859375 306.441406 239.847656 305.511719 240.554688 C 304.578125 241.253906 303.390625 241.605469 301.949219 241.605469 C 300.128906 241.605469 298.683594 241.046875 297.621094 239.925781 C 296.550781 238.804688 296.019531 237.230469 296.019531 235.210938 C 296.019531 233.113281 296.558594 231.488281 297.636719 230.332031 C 298.714844 229.175781 300.113281 228.597656 301.832031 228.597656 C 303.496094 228.597656 304.855469 229.164062 305.90625 230.296875 C 306.964844 231.429688 307.492188 233.023438 307.492188 235.078125 C 307.492188 235.203125 307.488281 235.394531 307.480469 235.640625 L 298.199219 235.640625 C 298.277344 237.007812 298.664062 238.058594 299.359375 238.78125 C 300.054688 239.507812 300.921875 239.871094 301.960938 239.871094 C 302.730469 239.871094 303.390625 239.667969 303.941406 239.261719 C 304.488281 238.855469 304.921875 238.210938 305.238281 237.316406 Z M 298.316406 233.90625 L 305.265625 233.90625 C 305.171875 232.859375 304.902344 232.074219 304.46875 231.550781 C 303.796875 230.742188 302.921875 230.332031 301.855469 230.332031 C 300.886719 230.332031 300.070312 230.65625 299.410156 231.304688 C 298.753906 231.953125 298.386719 232.820312 298.316406 233.90625 "/>
<path fill-rule="nonzero" fill="rgb(13.729858%, 12.159729%, 12.548828%)" fill-opacity="1" d="M 318.003906 246.09375 L 318.003906 240 C 317.675781 240.460938 317.214844 240.84375 316.628906 241.148438 C 316.035156 241.453125 315.40625 241.605469 314.742188 241.605469 C 313.269531 241.605469 311.996094 241.015625 310.933594 239.835938 C 309.863281 238.65625 309.332031 237.039062 309.332031 234.984375 C 309.332031 233.734375 309.546875 232.613281 309.984375 231.621094 C 310.414062 230.628906 311.042969 229.878906 311.867188 229.363281 C 312.691406 228.851562 313.597656 228.597656 314.578125 228.597656 C 316.121094 228.597656 317.332031 229.246094 318.214844 230.546875 L 318.214844 228.878906 L 320.113281 228.878906 L 320.113281 246.09375 Z M 311.5 235.066406 C 311.5 236.667969 311.835938 237.867188 312.507812 238.667969 C 313.179688 239.472656 313.984375 239.871094 314.921875 239.871094 C 315.820312 239.871094 316.59375 239.492188 317.238281 238.730469 C 317.890625 237.96875 318.214844 236.808594 318.214844 235.253906 C 318.214844 233.597656 317.871094 232.351562 317.1875 231.515625 C 316.503906 230.679688 315.703125 230.261719 314.78125 230.261719 C 313.867188 230.261719 313.09375 230.652344 312.457031 231.429688 C 311.820312 232.203125 311.5 233.414062 311.5 235.066406 "/>
<path fill-rule="nonzero" fill="rgb(13.729858%, 12.159729%, 12.548828%)" fill-opacity="1" d="M 331.574219 241.324219 L 331.574219 239.496094 C 330.605469 240.902344 329.289062 241.605469 327.625 241.605469 C 326.890625 241.605469 326.203125 241.464844 325.566406 241.183594 C 324.933594 240.902344 324.460938 240.546875 324.152344 240.125 C 323.839844 239.695312 323.625 239.175781 323.5 238.5625 C 323.414062 238.144531 323.371094 237.488281 323.371094 236.589844 L 323.371094 228.878906 L 325.480469 228.878906 L 325.480469 235.78125 C 325.480469 236.886719 325.523438 237.625 325.609375 238.007812 C 325.742188 238.5625 326.023438 238.996094 326.453125 239.316406 C 326.882812 239.632812 327.414062 239.789062 328.046875 239.789062 C 328.679688 239.789062 329.273438 239.628906 329.828125 239.304688 C 330.382812 238.980469 330.777344 238.535156 331.003906 237.980469 C 331.234375 237.421875 331.351562 236.609375 331.351562 235.546875 L 331.351562 228.878906 L 333.460938 228.878906 L 333.460938 241.324219 L 331.574219 241.324219 "/>
<path fill-rule="nonzero" fill="rgb(13.729858%, 12.159729%, 12.548828%)" fill-opacity="1" d="M 345.285156 237.316406 L 347.464844 237.585938 C 347.121094 238.859375 346.484375 239.847656 345.554688 240.554688 C 344.625 241.253906 343.4375 241.605469 341.992188 241.605469 C 340.171875 241.605469 338.726562 241.046875 337.664062 239.925781 C 336.597656 238.804688 336.0625 237.230469 336.0625 235.210938 C 336.0625 233.113281 336.605469 231.488281 337.679688 230.332031 C 338.761719 229.175781 340.15625 228.597656 341.875 228.597656 C 343.539062 228.597656 344.898438 229.164062 345.953125 230.296875 C 347.007812 231.429688 347.535156 233.023438 347.535156 235.078125 C 347.535156 235.203125 347.53125 235.394531 347.523438 235.640625 L 338.242188 235.640625 C 338.320312 237.007812 338.707031 238.058594 339.402344 238.78125 C 340.101562 239.507812 340.964844 239.871094 342.003906 239.871094 C 342.777344 239.871094 343.4375 239.667969 343.984375 239.261719 C 344.53125 238.855469 344.964844 238.210938 345.285156 237.316406 Z M 338.359375 233.90625 L 345.308594 233.90625 C 345.214844 232.859375 344.949219 232.074219 344.511719 231.550781 C 343.839844 230.742188 342.96875 230.332031 341.898438 230.332031 C 340.933594 230.332031 340.117188 230.65625 339.457031 231.304688 C 338.796875 231.953125 338.433594 232.820312 338.359375 233.90625 "/>
<path fill-rule="nonzero" fill="rgb(13.729858%, 12.159729%, 12.548828%)" fill-opacity="1" d="M 350.117188 241.324219 L 350.117188 228.878906 L 352.011719 228.878906 L 352.011719 230.648438 C 352.929688 229.28125 354.246094 228.597656 355.972656 228.597656 C 356.722656 228.597656 357.410156 228.730469 358.039062 229 C 358.671875 229.273438 359.140625 229.625 359.453125 230.0625 C 359.769531 230.5 359.984375 231.019531 360.113281 231.621094 C 360.1875 232.011719 360.226562 232.695312 360.226562 233.671875 L 360.226562 241.324219 L 358.117188 241.324219 L 358.117188 233.753906 C 358.117188 232.894531 358.035156 232.253906 357.871094 231.824219 C 357.707031 231.398438 357.414062 231.0625 357 230.808594 C 356.578125 230.554688 356.09375 230.425781 355.527344 230.425781 C 354.628906 230.425781 353.855469 230.710938 353.199219 231.28125 C 352.546875 231.851562 352.222656 232.933594 352.222656 234.527344 L 352.222656 241.324219 L 350.117188 241.324219 "/>
<path fill-rule="nonzero" fill="rgb(13.729858%, 12.159729%, 12.548828%)" fill-opacity="1" d="M 371.585938 236.765625 L 373.65625 237.035156 C 373.433594 238.464844 372.851562 239.585938 371.914062 240.394531 C 370.984375 241.199219 369.835938 241.605469 368.476562 241.605469 C 366.777344 241.605469 365.402344 241.046875 364.371094 239.9375 C 363.335938 238.824219 362.816406 237.230469 362.816406 235.148438 C 362.816406 233.804688 363.039062 232.628906 363.484375 231.621094 C 363.933594 230.613281 364.609375 229.855469 365.519531 229.351562 C 366.429688 228.847656 367.421875 228.597656 368.488281 228.597656 C 369.839844 228.597656 370.949219 228.941406 371.804688 229.625 C 372.664062 230.308594 373.214844 231.277344 373.460938 232.535156 L 371.40625 232.851562 C 371.210938 232.015625 370.867188 231.390625 370.371094 230.964844 C 369.875 230.546875 369.277344 230.332031 368.570312 230.332031 C 367.507812 230.332031 366.644531 230.710938 365.980469 231.476562 C 365.316406 232.234375 364.984375 233.441406 364.984375 235.089844 C 364.984375 236.761719 365.304688 237.976562 365.949219 238.734375 C 366.589844 239.492188 367.425781 239.871094 368.457031 239.871094 C 369.285156 239.871094 369.972656 239.617188 370.527344 239.109375 C 371.085938 238.601562 371.4375 237.820312 371.585938 236.765625 "/>
<path fill-rule="nonzero" fill="rgb(13.729858%, 12.159729%, 12.548828%)" fill-opacity="1" d="M 375.367188 246.117188 L 375.132812 244.136719 C 375.597656 244.261719 375.996094 244.324219 376.339844 244.324219 C 376.808594 244.324219 377.183594 244.246094 377.464844 244.089844 C 377.746094 243.933594 377.976562 243.714844 378.15625 243.433594 C 378.292969 243.226562 378.503906 242.699219 378.800781 241.863281 C 378.839844 241.746094 378.902344 241.578125 378.988281 241.347656 L 374.269531 228.878906 L 376.539062 228.878906 L 379.132812 236.085938 C 379.464844 237 379.769531 237.960938 380.03125 238.96875 C 380.277344 238 380.5625 237.054688 380.898438 236.132812 L 383.558594 228.878906 L 385.667969 228.878906 L 380.9375 241.535156 C 380.429688 242.90625 380.03125 243.84375 379.753906 244.359375 C 379.375 245.058594 378.949219 245.5625 378.464844 245.890625 C 377.976562 246.210938 377.398438 246.378906 376.726562 246.378906 C 376.320312 246.378906 375.867188 246.289062 375.367188 246.117188 "/>
<path fill-rule="nonzero" fill="rgb(13.729858%, 12.159729%, 12.548828%)" fill-opacity="1" d="M 393.289062 237.609375 L 395.371094 237.28125 C 395.488281 238.117188 395.816406 238.757812 396.351562 239.203125 C 396.882812 239.648438 397.632812 239.871094 398.597656 239.871094 C 399.5625 239.871094 400.285156 239.671875 400.753906 239.28125 C 401.21875 238.882812 401.457031 238.421875 401.457031 237.894531 C 401.457031 237.410156 401.246094 237.039062 400.832031 236.765625 C 400.542969 236.578125 399.824219 236.339844 398.675781 236.050781 C 397.132812 235.660156 396.054688 235.324219 395.460938 235.035156 C 394.863281 234.753906 394.410156 234.355469 394.101562 233.851562 C 393.792969 233.347656 393.636719 232.792969 393.636719 232.183594 C 393.636719 231.628906 393.765625 231.117188 394.019531 230.644531 C 394.273438 230.167969 394.621094 229.777344 395.054688 229.464844 C 395.382812 229.226562 395.832031 229.015625 396.394531 228.847656 C 396.964844 228.679688 397.570312 228.597656 398.21875 228.597656 C 399.195312 228.597656 400.050781 228.738281 400.792969 229.019531 C 401.53125 229.300781 402.078125 229.679688 402.429688 230.160156 C 402.78125 230.644531 403.019531 231.285156 403.152344 232.089844 L 401.09375 232.371094 C 400.996094 231.730469 400.722656 231.234375 400.277344 230.871094 C 399.828125 230.511719 399.191406 230.332031 398.371094 230.332031 C 397.402344 230.332031 396.714844 230.492188 396.300781 230.8125 C 395.882812 231.132812 395.675781 231.507812 395.675781 231.9375 C 395.675781 232.210938 395.765625 232.457031 395.9375 232.675781 C 396.109375 232.90625 396.375 233.089844 396.746094 233.238281 C 396.957031 233.316406 397.578125 233.496094 398.609375 233.777344 C 400.101562 234.175781 401.140625 234.5 401.726562 234.757812 C 402.320312 235.007812 402.785156 235.378906 403.121094 235.863281 C 403.457031 236.347656 403.625 236.949219 403.625 237.667969 C 403.625 238.371094 403.414062 239.03125 403.007812 239.65625 C 402.597656 240.277344 402.003906 240.757812 401.230469 241.097656 C 400.460938 241.4375 399.585938 241.605469 398.609375 241.605469 C 396.988281 241.605469 395.757812 241.269531 394.910156 240.597656 C 394.058594 239.925781 393.519531 238.929688 393.289062 237.609375 "/>
<path fill-rule="nonzero" fill="rgb(13.729858%, 12.159729%, 12.548828%)" fill-opacity="1" d="M 406.132812 246.09375 L 406.132812 228.878906 L 408.050781 228.878906 L 408.050781 230.496094 C 408.503906 229.863281 409.015625 229.386719 409.589844 229.070312 C 410.15625 228.757812 410.847656 228.597656 411.660156 228.597656 C 412.726562 228.597656 413.660156 228.871094 414.472656 229.414062 C 415.289062 229.964844 415.898438 230.738281 416.3125 231.730469 C 416.730469 232.730469 416.9375 233.820312 416.9375 235.007812 C 416.9375 236.28125 416.710938 237.429688 416.246094 238.449219 C 415.792969 239.46875 415.128906 240.246094 414.257812 240.792969 C 413.386719 241.332031 412.46875 241.605469 411.507812 241.605469 C 410.804688 241.605469 410.175781 241.457031 409.617188 241.160156 C 409.054688 240.863281 408.601562 240.488281 408.242188 240.035156 L 408.242188 246.09375 Z M 408.039062 235.171875 C 408.039062 236.773438 408.363281 237.957031 409.011719 238.726562 C 409.660156 239.488281 410.449219 239.871094 411.367188 239.871094 C 412.304688 239.871094 413.109375 239.476562 413.777344 238.679688 C 414.445312 237.890625 414.78125 236.660156 414.78125 234.996094 C 414.78125 233.410156 414.453125 232.226562 413.800781 231.433594 C 413.148438 230.644531 412.367188 230.246094 411.464844 230.246094 C 410.5625 230.246094 409.769531 230.667969 409.078125 231.507812 C 408.386719 232.347656 408.039062 233.574219 408.039062 235.171875 "/>
<path fill-rule="nonzero" fill="rgb(13.729858%, 12.159729%, 12.548828%)" fill-opacity="1" d="M 427.996094 237.316406 L 430.175781 237.585938 C 429.832031 238.859375 429.195312 239.847656 428.269531 240.554688 C 427.335938 241.253906 426.148438 241.605469 424.703125 241.605469 C 422.886719 241.605469 421.441406 241.046875 420.378906 239.925781 C 419.308594 238.804688 418.777344 237.230469 418.777344 235.210938 C 418.777344 233.113281 419.316406 231.488281 420.394531 230.332031 C 421.472656 229.175781 422.867188 228.597656 424.589844 228.597656 C 426.253906 228.597656 427.613281 229.164062 428.664062 230.296875 C 429.722656 231.429688 430.246094 233.023438 430.246094 235.078125 C 430.246094 235.203125 430.246094 235.394531 430.238281 235.640625 L 420.957031 235.640625 C 421.03125 237.007812 421.421875 238.058594 422.117188 238.78125 C 422.8125 239.507812 423.675781 239.871094 424.71875 239.871094 C 425.488281 239.871094 426.148438 239.667969 426.695312 239.261719 C 427.246094 238.855469 427.675781 238.210938 427.996094 237.316406 Z M 421.074219 233.90625 L 428.019531 233.90625 C 427.929688 232.859375 427.660156 232.074219 427.226562 231.550781 C 426.554688 230.742188 425.679688 230.332031 424.613281 230.332031 C 423.644531 230.332031 422.828125 230.65625 422.167969 231.304688 C 421.507812 231.953125 421.144531 232.820312 421.074219 233.90625 "/>
<path fill-rule="nonzero" fill="rgb(13.729858%, 12.159729%, 12.548828%)" fill-opacity="1" d="M 440.949219 236.765625 L 443.019531 237.035156 C 442.796875 238.464844 442.21875 239.585938 441.28125 240.394531 C 440.347656 241.199219 439.199219 241.605469 437.839844 241.605469 C 436.140625 241.605469 434.769531 241.046875 433.738281 239.9375 C 432.699219 238.824219 432.179688 237.230469 432.179688 235.148438 C 432.179688 233.804688 432.40625 232.628906 432.847656 231.621094 C 433.296875 230.613281 433.972656 229.855469 434.886719 229.351562 C 435.792969 228.847656 436.785156 228.597656 437.851562 228.597656 C 439.203125 228.597656 440.3125 228.941406 441.167969 229.625 C 442.027344 230.308594 442.578125 231.277344 442.824219 232.535156 L 440.773438 232.851562 C 440.578125 232.015625 440.234375 231.390625 439.738281 230.964844 C 439.242188 230.546875 438.640625 230.332031 437.9375 230.332031 C 436.871094 230.332031 436.007812 230.710938 435.34375 231.476562 C 434.679688 232.234375 434.347656 233.441406 434.347656 235.089844 C 434.347656 236.761719 434.667969 237.976562 435.3125 238.734375 C 435.953125 239.492188 436.789062 239.871094 437.820312 239.871094 C 438.648438 239.871094 439.335938 239.617188 439.894531 239.109375 C 440.449219 238.601562 440.800781 237.820312 440.949219 236.765625 "/>
<path fill-rule="nonzero" fill="rgb(13.729858%, 12.159729%, 12.548828%)" fill-opacity="1" d="M 449.433594 239.4375 L 449.738281 241.300781 C 449.144531 241.425781 448.613281 241.488281 448.144531 241.488281 C 447.378906 241.488281 446.785156 241.367188 446.359375 241.125 C 445.941406 240.886719 445.644531 240.5625 445.472656 240.167969 C 445.300781 239.777344 445.214844 238.945312 445.214844 237.679688 L 445.214844 230.519531 L 443.664062 230.519531 L 443.664062 228.878906 L 445.214844 228.878906 L 445.214844 225.796875 L 447.3125 224.53125 L 447.3125 228.878906 L 449.433594 228.878906 L 449.433594 230.519531 L 447.3125 230.519531 L 447.3125 237.796875 C 447.3125 238.402344 447.347656 238.785156 447.421875 238.957031 C 447.496094 239.128906 447.617188 239.265625 447.785156 239.367188 C 447.953125 239.46875 448.191406 239.519531 448.503906 239.519531 C 448.742188 239.519531 449.050781 239.492188 449.433594 239.4375 "/>
<path fill-rule="nonzero" fill="rgb(13.729858%, 12.159729%, 12.548828%)" fill-opacity="1" d="M 451.472656 241.324219 L 451.472656 228.878906 L 453.367188 228.878906 L 453.367188 230.765625 C 453.851562 229.882812 454.300781 229.300781 454.714844 229.019531 C 455.121094 228.738281 455.574219 228.597656 456.066406 228.597656 C 456.777344 228.597656 457.496094 228.824219 458.234375 229.277344 L 457.503906 231.238281 C 456.992188 230.929688 456.476562 230.777344 455.960938 230.777344 C 455.496094 230.777344 455.085938 230.914062 454.71875 231.191406 C 454.347656 231.472656 454.089844 231.855469 453.933594 232.347656 C 453.695312 233.097656 453.582031 233.914062 453.582031 234.808594 L 453.582031 241.324219 L 451.472656 241.324219 "/>
<path fill-rule="nonzero" fill="rgb(13.729858%, 12.159729%, 12.548828%)" fill-opacity="1" d="M 467.644531 241.324219 L 467.644531 239.496094 C 466.671875 240.902344 465.355469 241.605469 463.691406 241.605469 C 462.960938 241.605469 462.273438 241.464844 461.636719 241.183594 C 461 240.902344 460.527344 240.546875 460.222656 240.125 C 459.910156 239.695312 459.691406 239.175781 459.570312 238.5625 C 459.484375 238.144531 459.441406 237.488281 459.441406 236.589844 L 459.441406 228.878906 L 461.550781 228.878906 L 461.550781 235.78125 C 461.550781 236.886719 461.59375 237.625 461.675781 238.007812 C 461.8125 238.5625 462.09375 238.996094 462.519531 239.316406 C 462.953125 239.632812 463.484375 239.789062 464.117188 239.789062 C 464.75 239.789062 465.339844 239.628906 465.898438 239.304688 C 466.453125 238.980469 466.84375 238.535156 467.074219 237.980469 C 467.304688 237.421875 467.421875 236.609375 467.421875 235.546875 L 467.421875 228.878906 L 469.527344 228.878906 L 469.527344 241.324219 L 467.644531 241.324219 "/>
<path fill-rule="nonzero" fill="rgb(13.729858%, 12.159729%, 12.548828%)" fill-opacity="1" d="M 472.835938 241.324219 L 472.835938 228.878906 L 474.722656 228.878906 L 474.722656 230.625 C 475.113281 230.015625 475.632812 229.523438 476.28125 229.15625 C 476.929688 228.785156 477.667969 228.597656 478.496094 228.597656 C 479.417969 228.597656 480.171875 228.789062 480.761719 229.171875 C 481.351562 229.558594 481.769531 230.089844 482.007812 230.777344 C 482.996094 229.324219 484.277344 228.597656 485.851562 228.597656 C 487.089844 228.597656 488.035156 228.941406 488.699219 229.625 C 489.363281 230.308594 489.695312 231.359375 489.695312 232.78125 L 489.695312 241.324219 L 487.601562 241.324219 L 487.601562 233.484375 C 487.601562 232.640625 487.53125 232.03125 487.398438 231.660156 C 487.257812 231.292969 487.007812 230.992188 486.652344 230.765625 C 486.292969 230.539062 485.867188 230.425781 485.386719 230.425781 C 484.507812 230.425781 483.785156 230.714844 483.203125 231.300781 C 482.628906 231.878906 482.335938 232.8125 482.335938 234.09375 L 482.335938 241.324219 L 480.230469 241.324219 L 480.230469 233.238281 C 480.230469 232.300781 480.058594 231.597656 479.714844 231.128906 C 479.367188 230.660156 478.808594 230.425781 478.023438 230.425781 C 477.433594 230.425781 476.886719 230.578125 476.382812 230.894531 C 475.878906 231.210938 475.507812 231.664062 475.285156 232.265625 C 475.058594 232.867188 474.945312 233.734375 474.945312 234.867188 L 474.945312 241.324219 L 472.835938 241.324219 "/>
</svg>
