<?xml version="1.0" encoding="UTF-8"?>
<svg xmlns="http://www.w3.org/2000/svg" xmlns:xlink="http://www.w3.org/1999/xlink" width="348.696pt" height="63.64pt" viewBox="0 0 348.696 63.64" version="1.2">
<defs>
<clipPath id="clip1">
  <path d="M 96 1.515625 L 106 1.515625 L 106 26 L 96 26 Z M 96 1.515625 "/>
</clipPath>
<clipPath id="clip2">
  <path d="M 162 1.515625 L 171 1.515625 L 171 26 L 162 26 Z M 162 1.515625 "/>
</clipPath>
<clipPath id="clip3">
  <path d="M 0.5 2 L 41 2 L 41 57 L 0.5 57 Z M 0.5 2 "/>
</clipPath>
<clipPath id="clip4">
  <path d="M 0.5 53 L 6 53 L 6 58 L 0.5 58 Z M 0.5 53 "/>
</clipPath>
<clipPath id="clip5">
  <path d="M 0.5 52 L 41 52 L 41 63.140625 L 0.5 63.140625 Z M 0.5 52 "/>
</clipPath>
<clipPath id="clip6">
  <path d="M 335 40 L 347.207031 40 L 347.207031 60 L 335 60 Z M 335 40 "/>
</clipPath>
</defs>
<g id="surface1">
<path style=" stroke:none;fill-rule:nonzero;fill:rgb(13.729858%,12.159729%,12.548828%);fill-opacity:1;" d="M 78.304688 2.089844 L 78.304688 2.804688 C 75.757812 2.847656 74.847656 3.871094 74.847656 6.300781 L 74.847656 16.558594 C 74.847656 21.265625 71.847656 26.324219 63.601562 26.324219 C 56.347656 26.324219 52.625 22.183594 52.625 16.75 L 52.625 5.65625 C 52.625 3.222656 51.941406 2.847656 49.359375 2.804688 L 49.359375 2.089844 L 59.121094 2.089844 L 59.121094 2.804688 L 58.777344 2.804688 C 56.691406 2.804688 55.777344 3.378906 55.777344 5.582031 L 55.777344 16.140625 C 55.777344 21.265625 58.777344 24.347656 64.4375 24.347656 C 68.730469 24.347656 73.101562 22.558594 73.101562 16.109375 L 73.101562 7.253906 C 73.101562 3.605469 72.527344 2.960938 69.375 2.804688 L 69.375 2.089844 L 78.304688 2.089844 "/>
<path style=" stroke:none;fill-rule:nonzero;fill:rgb(13.729858%,12.159729%,12.548828%);fill-opacity:1;" d="M 82.59375 22.410156 C 82.59375 24.496094 83.089844 24.996094 85.140625 24.996094 L 85.140625 25.714844 L 77.503906 25.714844 L 77.503906 24.996094 C 79.175781 24.996094 80.050781 24.082031 80.050781 22.601562 L 80.050781 14.625 C 80.050781 13.21875 79.894531 12.953125 78.910156 12.761719 L 77.617188 12.496094 L 77.617188 11.886719 L 81.988281 10.292969 L 82.59375 10.292969 L 82.59375 13.253906 C 85.140625 11.660156 87.265625 10.253906 89.128906 10.253906 C 91.710938 10.253906 93.191406 12.152344 93.191406 15.949219 C 93.191406 21 92.929688 21.988281 92.890625 23.472656 C 92.851562 24.496094 93.460938 24.996094 95.019531 24.996094 L 95.851562 24.996094 L 95.851562 25.714844 L 87.6875 25.714844 L 87.6875 24.996094 C 88.785156 24.953125 89.433594 24.6875 89.851562 24.273438 C 90.570312 23.550781 90.648438 20.773438 90.648438 15.726562 C 90.648438 12.683594 89.167969 11.734375 87.644531 11.734375 C 86.429688 11.734375 84.570312 12.796875 82.59375 14.164062 L 82.59375 22.410156 "/>
<g clip-path="url(#clip1)" clip-rule="nonzero">
<path style=" stroke:none;fill-rule:nonzero;fill:rgb(13.729858%,12.159729%,12.548828%);fill-opacity:1;" d="M 101.082031 1.515625 C 101.996094 1.515625 102.753906 2.160156 102.753906 2.960938 C 102.753906 3.757812 101.996094 4.40625 101.082031 4.40625 C 100.167969 4.40625 99.449219 3.757812 99.449219 2.960938 C 99.449219 2.160156 100.167969 1.515625 101.082031 1.515625 Z M 102.640625 22.828125 C 102.640625 24.15625 103.363281 24.996094 105.375 24.996094 L 105.375 25.714844 L 96.941406 25.714844 L 96.941406 24.996094 C 99.257812 24.996094 100.09375 24.234375 100.09375 22.21875 L 100.09375 14.585938 C 100.09375 13.101562 99.90625 12.914062 98.917969 12.722656 L 97.132812 12.378906 L 97.132812 11.773438 L 102.070312 10.0625 L 102.640625 10.0625 L 102.640625 22.828125 "/>
</g>
<path style=" stroke:none;fill-rule:nonzero;fill:rgb(13.729858%,12.159729%,12.548828%);fill-opacity:1;" d="M 113.113281 26.058594 L 107.605469 13.449219 C 107.035156 12.117188 106.539062 11.660156 105.929688 11.542969 L 104.753906 11.355469 L 104.753906 10.671875 L 112.503906 10.671875 L 112.503906 11.355469 C 110.1875 11.429688 109.464844 11.734375 110.378906 13.519531 L 114.40625 22.980469 L 118.277344 14.203125 C 118.960938 12.644531 118.621094 11.542969 115.847656 11.355469 L 115.847656 10.671875 L 122.457031 10.671875 L 122.457031 11.355469 C 121.015625 11.621094 120.175781 12.457031 119.453125 14.128906 L 114.214844 26.058594 L 113.113281 26.058594 "/>
<path style=" stroke:none;fill-rule:nonzero;fill:rgb(13.729858%,12.159729%,12.548828%);fill-opacity:1;" d="M 132.664062 15.078125 C 132.246094 12.609375 130.726562 10.972656 128.902344 10.972656 C 127.648438 10.972656 125.75 11.542969 124.875 15.078125 Z M 124.757812 16.066406 C 124.6875 16.636719 124.609375 17.167969 124.609375 17.660156 C 124.609375 21.609375 127.382812 24.273438 130.382812 24.273438 C 132.28125 24.273438 133.765625 23.511719 135.210938 21.800781 L 135.625 22.253906 C 134.03125 24.273438 131.640625 26.171875 128.863281 26.171875 C 125.140625 26.171875 122.257812 22.789062 122.257812 18.382812 C 122.257812 14.355469 124.953125 10.253906 129.585938 10.253906 C 134.710938 10.253906 134.601562 13.9375 135.855469 15.191406 L 135.855469 16.066406 L 124.757812 16.066406 "/>
<path style=" stroke:none;fill-rule:nonzero;fill:rgb(13.729858%,12.159729%,12.548828%);fill-opacity:1;" d="M 142.769531 22.941406 C 142.769531 24.496094 143.339844 24.996094 145.238281 24.996094 L 146.679688 24.996094 L 146.679688 25.714844 L 137.675781 25.714844 L 137.675781 24.996094 C 139.617188 24.953125 140.222656 24.15625 140.222656 22.140625 L 140.222656 13.371094 L 137.675781 12.457031 L 137.675781 11.808594 L 142.003906 10.292969 L 142.769531 10.292969 L 142.769531 14.316406 L 142.84375 14.316406 C 144.742188 11.203125 145.199219 10.484375 146.453125 10.484375 C 146.910156 10.484375 147.023438 10.519531 147.742188 10.824219 C 148.125 10.972656 148.808594 11.128906 149.71875 11.390625 L 148.808594 13.671875 C 148.238281 13.597656 147.515625 13.40625 146.792969 13.0625 C 146.378906 12.875 145.917969 12.683594 145.464844 12.683594 C 144.78125 12.683594 144.363281 13.144531 143.980469 13.671875 C 143.492188 14.355469 143.074219 15.003906 142.769531 15.570312 L 142.769531 22.941406 "/>
<path style=" stroke:none;fill-rule:nonzero;fill:rgb(13.729858%,12.159729%,12.548828%);fill-opacity:1;" d="M 151.855469 21.875 C 152.308594 24.15625 153.753906 25.449219 155.464844 25.449219 C 156.984375 25.449219 158.160156 24.308594 158.160156 22.941406 C 158.160156 22.140625 157.96875 21.648438 156.941406 20.621094 C 154.246094 17.925781 151.246094 17.660156 151.246094 14.507812 C 151.246094 12 153.226562 10.253906 156.109375 10.253906 C 157.132812 10.253906 158.199219 10.484375 159.148438 10.863281 L 159.222656 14.316406 L 158.578125 14.316406 C 158.3125 12.378906 157.058594 11.167969 155.539062 11.167969 C 154.289062 11.167969 153.226562 12.039062 153.226562 13.292969 C 153.226562 16.636719 160.289062 17.207031 160.289062 21.835938 C 160.289062 24.308594 158.234375 26.171875 155.578125 26.171875 C 154.855469 26.171875 154.328125 26.058594 153.90625 25.90625 C 153.488281 25.789062 153.183594 25.679688 152.882812 25.679688 C 152.652344 25.679688 152.425781 25.828125 152.234375 26.132812 L 151.664062 26.132812 L 151.246094 21.875 L 151.855469 21.875 "/>
<g clip-path="url(#clip2)" clip-rule="nonzero">
<path style=" stroke:none;fill-rule:nonzero;fill:rgb(13.729858%,12.159729%,12.548828%);fill-opacity:1;" d="M 166.261719 1.515625 C 167.175781 1.515625 167.933594 2.160156 167.933594 2.960938 C 167.933594 3.757812 167.175781 4.40625 166.261719 4.40625 C 165.351562 4.40625 164.628906 3.757812 164.628906 2.960938 C 164.628906 2.160156 165.351562 1.515625 166.261719 1.515625 Z M 167.820312 22.828125 C 167.820312 24.15625 168.542969 24.996094 170.554688 24.996094 L 170.554688 25.714844 L 162.121094 25.714844 L 162.121094 24.996094 C 164.4375 24.996094 165.277344 24.234375 165.277344 22.21875 L 165.277344 14.585938 C 165.277344 13.101562 165.082031 12.914062 164.097656 12.722656 L 162.308594 12.378906 L 162.308594 11.773438 L 167.25 10.0625 L 167.820312 10.0625 L 167.820312 22.828125 "/>
</g>
<path style=" stroke:none;fill-rule:nonzero;fill:rgb(13.729858%,12.159729%,12.548828%);fill-opacity:1;" d="M 180.5 10.671875 L 179.890625 12.34375 L 175.800781 12.34375 L 175.800781 21.195312 C 175.800781 23.585938 177.511719 24.386719 178.308594 24.386719 C 179.148438 24.386719 179.902344 23.738281 180.625 22.480469 L 181.234375 23.054688 C 180.324219 25.03125 178.839844 26.171875 177.09375 26.171875 C 174.855469 26.171875 173.257812 24.308594 173.257812 21.765625 L 173.257812 12.34375 L 171.511719 12.34375 L 171.511719 11.734375 C 172.992188 11.015625 174.285156 9.265625 175.15625 6.910156 L 175.800781 6.910156 L 175.800781 10.671875 L 180.5 10.671875 "/>
<path style=" stroke:none;fill-rule:nonzero;fill:rgb(13.729858%,12.159729%,12.548828%);fill-opacity:1;" d="M 194.679688 14.886719 C 195.820312 12 195.097656 11.429688 192.859375 11.355469 L 192.859375 10.671875 L 199.164062 10.671875 L 199.164062 11.355469 C 197.605469 11.542969 196.734375 12.609375 196.011719 14.394531 L 189.550781 30.5 C 188.414062 33.3125 187.539062 34.566406 186.210938 34.566406 C 185.296875 34.566406 184.65625 33.996094 184.65625 33.234375 C 184.65625 31.679688 186.855469 32.058594 187.804688 31.109375 C 188.222656 30.6875 188.792969 29.703125 189.09375 28.945312 L 190.234375 26.09375 L 184.347656 13.597656 C 183.625 12.039062 182.945312 11.390625 181.347656 11.355469 L 181.347656 10.671875 L 188.984375 10.671875 L 188.984375 11.355469 C 186.667969 11.390625 186.402344 12.074219 187.160156 13.671875 L 191.457031 22.941406 L 194.679688 14.886719 "/>
<path style=" stroke:none;fill-rule:nonzero;fill:rgb(13.729858%,12.159729%,12.548828%);fill-opacity:1;" d="M 57.601562 39.960938 C 55.207031 39.960938 53.082031 44.558594 53.082031 48.359375 C 53.082031 51.546875 54.449219 53.105469 55.738281 53.105469 C 58.777344 53.105469 60.5625 48.167969 60.5625 44.671875 C 60.5625 42.011719 59.273438 39.960938 57.601562 39.960938 Z M 59.539062 38.554688 C 60.640625 38.554688 62.996094 40.074219 62.996094 44.144531 C 62.996094 51.359375 55.816406 54.511719 54.03125 54.511719 C 52.246094 54.511719 50.652344 51.664062 50.652344 48.507812 C 50.652344 42.355469 57.261719 38.554688 59.539062 38.554688 "/>
<path style=" stroke:none;fill-rule:nonzero;fill:rgb(13.729858%,12.159729%,12.548828%);fill-opacity:1;" d="M 64.351562 40.265625 L 64.464844 39.542969 C 65.378906 39.429688 66.289062 39.277344 67.242188 39.046875 C 67.808594 35.933594 68.949219 32.667969 71.074219 30.542969 C 72.402344 29.210938 74.078125 28.488281 75.558594 28.488281 C 77.039062 28.488281 78.253906 29.324219 78.253906 30.3125 C 78.253906 30.917969 77.796875 31.414062 77.1875 31.414062 C 75.9375 31.414062 74.910156 29.855469 73.808594 29.855469 C 72.328125 29.855469 71.113281 31.53125 70.582031 34.035156 L 69.554688 39.011719 L 72.820312 39.011719 L 72.441406 40.265625 L 69.328125 40.265625 L 67.390625 51.359375 C 65.910156 59.867188 61.578125 62.90625 58.007812 62.90625 C 56.414062 62.90625 55.082031 62.109375 55.082031 61.160156 C 55.082031 60.550781 55.691406 60.019531 56.335938 60.019531 C 57.742188 60.019531 58.5 61.691406 59.945312 61.691406 C 60.820312 61.691406 61.578125 61.273438 62.265625 60.589844 C 64.160156 58.691406 64.882812 52.199219 65.035156 51.285156 L 66.972656 40.265625 L 64.351562 40.265625 "/>
<path style=" stroke:none;fill-rule:nonzero;fill:rgb(13.729858%,12.159729%,12.548828%);fill-opacity:1;" d="M 100.621094 52.269531 C 96.863281 54.207031 92.039062 54.664062 90.441406 54.664062 C 82.125 54.664062 78.25 48.242188 78.25 42.695312 C 78.25 37 82.242188 29.855469 91.507812 29.855469 C 95.570312 29.855469 98.269531 31.148438 99.066406 31.148438 C 99.40625 31.148438 99.710938 31.074219 99.9375 30.882812 L 100.472656 30.882812 L 100.472656 37.039062 L 99.710938 37.039062 C 98.683594 32.289062 95.457031 30.808594 91.925781 30.808594 C 85.238281 30.808594 81.820312 36.355469 81.820312 42.46875 C 81.820312 50.257812 87.289062 53.710938 91.65625 53.710938 C 93.40625 53.710938 95.34375 53.332031 97.46875 52.269531 L 97.46875 47.480469 C 97.46875 45.320312 96.710938 44.59375 94.433594 44.59375 L 93.023438 44.59375 L 93.023438 43.914062 L 103.28125 43.914062 L 103.28125 44.59375 C 101.382812 44.710938 100.621094 45.359375 100.621094 46.988281 L 100.621094 52.269531 "/>
<path style=" stroke:none;fill-rule:nonzero;fill:rgb(13.729858%,12.159729%,12.548828%);fill-opacity:1;" d="M 108.996094 51.054688 C 108.996094 52.613281 109.71875 53.332031 111.199219 53.332031 L 111.847656 53.332031 L 111.847656 54.058594 L 103.300781 54.058594 L 103.300781 53.332031 C 105.730469 53.332031 106.449219 52.613281 106.449219 50.785156 L 106.449219 32.441406 C 106.449219 31.375 106.335938 31.039062 105.273438 30.917969 L 103.566406 30.730469 L 103.566406 30.085938 L 108.425781 28.527344 L 108.996094 28.527344 L 108.996094 51.054688 "/>
<path style=" stroke:none;fill-rule:nonzero;fill:rgb(13.729858%,12.159729%,12.548828%);fill-opacity:1;" d="M 121.238281 46.988281 C 120.515625 47.40625 119.910156 47.675781 118.996094 48.054688 C 116.679688 49.003906 115.804688 49.386719 115.804688 50.945312 C 115.804688 52.3125 116.90625 53.179688 118.046875 53.179688 C 118.65625 53.179688 119.109375 52.992188 121.238281 51.511719 Z M 113.71875 43.535156 C 113.640625 43.304688 113.601562 43.191406 113.601562 43.003906 C 113.601562 41.671875 116.753906 38.59375 119.222656 38.59375 C 120.367188 38.59375 122.148438 39.125 123.210938 40.609375 C 123.78125 41.40625 123.78125 41.902344 123.78125 43.875 L 123.78125 48.964844 C 123.78125 52.003906 123.78125 52.6875 124.773438 52.6875 C 125.1875 52.6875 125.683594 52.648438 126.628906 51.851562 L 126.820312 52.421875 C 124.773438 54.09375 123.707031 54.511719 123.0625 54.511719 C 121.503906 54.511719 121.351562 52.800781 121.3125 52.199219 C 118.695312 54.359375 117.933594 54.511719 116.90625 54.511719 C 114.707031 54.511719 113.375 53.257812 113.375 51.398438 C 113.375 49.082031 115.425781 48.285156 117.859375 47.675781 C 118.65625 47.480469 119.910156 47.03125 121.238281 46.230469 L 121.238281 43.226562 C 121.238281 42.164062 121.238281 41.554688 120.589844 40.796875 C 120.097656 40.1875 119.300781 39.695312 118.464844 39.695312 C 117.210938 39.695312 116.109375 40.761719 116.109375 41.554688 C 116.109375 41.785156 116.144531 41.9375 116.300781 42.277344 L 113.71875 43.535156 "/>
<path style=" stroke:none;fill-rule:nonzero;fill:rgb(13.729858%,12.159729%,12.548828%);fill-opacity:1;" d="M 128.691406 50.21875 C 129.148438 52.496094 130.589844 53.792969 132.304688 53.792969 C 133.824219 53.792969 135 52.648438 135 51.285156 C 135 50.484375 134.8125 49.992188 133.785156 48.964844 C 131.089844 46.269531 128.085938 46 128.085938 42.847656 C 128.085938 40.339844 130.0625 38.59375 132.949219 38.59375 C 133.972656 38.59375 135.035156 38.824219 135.988281 39.203125 L 136.0625 42.660156 L 135.417969 42.660156 C 135.152344 40.722656 133.898438 39.503906 132.378906 39.503906 C 131.125 39.503906 130.0625 40.378906 130.0625 41.632812 C 130.0625 44.976562 137.125 45.546875 137.125 50.183594 C 137.125 52.648438 135.078125 54.511719 132.417969 54.511719 C 131.695312 54.511719 131.160156 54.398438 130.742188 54.25 C 130.328125 54.128906 130.023438 54.019531 129.71875 54.019531 C 129.488281 54.019531 129.265625 54.167969 129.074219 54.476562 L 128.503906 54.476562 L 128.085938 50.21875 L 128.691406 50.21875 "/>
<path style=" stroke:none;fill-rule:nonzero;fill:rgb(13.729858%,12.159729%,12.548828%);fill-opacity:1;" d="M 145.671875 39.316406 C 144.226562 39.316406 141.984375 40.113281 141.984375 43.648438 C 141.984375 45.886719 143.125 48.894531 146.011719 48.894531 C 148.214844 48.894531 149.65625 47.066406 149.65625 44.445312 C 149.65625 41.179688 147.988281 39.316406 145.671875 39.316406 Z M 146.734375 61.839844 C 149.964844 61.839844 153 59.714844 153 57.320312 C 153 55.917969 151.824219 55.195312 150.453125 55.082031 C 149.46875 54.964844 144.683594 54.925781 143.582031 54.777344 C 142.519531 56.027344 141.109375 56.5625 141.109375 58.039062 C 141.109375 59.832031 143.617188 61.839844 146.734375 61.839844 Z M 155.359375 42.128906 C 154.789062 42.09375 153 41.9375 151.558594 41.671875 C 151.785156 42.09375 152.203125 42.886719 152.203125 44.101562 C 152.203125 46.914062 149.773438 49.613281 145.554688 49.613281 C 144.835938 49.613281 144.496094 49.535156 143.808594 49.308594 C 143.203125 49.953125 141.492188 50.371094 141.492188 51.246094 C 141.492188 52.199219 143.125 52.574219 146.925781 52.613281 C 151.21875 52.648438 152.699219 52.839844 153.835938 53.980469 C 154.75 54.894531 154.976562 55.839844 154.976562 56.636719 C 154.976562 59.109375 151.632812 62.90625 144.605469 62.90625 C 140.65625 62.90625 138.757812 61.160156 138.757812 59.296875 C 138.757812 57.09375 141.078125 56.753906 142.820312 54.628906 C 140.773438 54.433594 139.210938 53.144531 139.210938 51.929688 C 139.210938 50.183594 141.757812 50.105469 143.089844 49.117188 C 140.773438 48.207031 139.441406 46.574219 139.441406 44.40625 C 139.441406 41.136719 142.367188 38.59375 146.125 38.59375 C 147.875 38.59375 149.355469 39.125 150.382812 40.113281 C 152.085938 40.113281 153.6875 39.921875 155.359375 39.734375 L 155.359375 42.128906 "/>
<path style=" stroke:none;fill-rule:nonzero;fill:rgb(13.729858%,12.159729%,12.548828%);fill-opacity:1;" d="M 164.863281 53.597656 C 167.105469 53.597656 169.648438 51.320312 169.648438 47.523438 C 169.648438 43.191406 166.992188 39.503906 163.800781 39.503906 C 161.292969 39.503906 158.972656 42.09375 158.972656 45.359375 C 158.972656 49.953125 161.601562 53.597656 164.863281 53.597656 Z M 164.332031 38.59375 C 168.964844 38.59375 172.5 42.050781 172.5 46.574219 C 172.5 51.054688 168.964844 54.511719 164.445312 54.511719 C 159.734375 54.511719 156.128906 51.09375 156.128906 46.652344 C 156.128906 41.40625 160.382812 38.59375 164.332031 38.59375 "/>
<path style=" stroke:none;fill-rule:nonzero;fill:rgb(13.729858%,12.159729%,12.548828%);fill-opacity:1;" d="M 190.125 54.398438 L 185.605469 43.6875 L 181.042969 54.398438 L 179.984375 54.398438 L 174.320312 41.632812 C 173.792969 40.457031 173.257812 39.886719 171.511719 39.695312 L 171.511719 39.011719 L 178.878906 39.011719 L 178.878906 39.695312 C 176.640625 39.808594 176.488281 40.457031 177.285156 42.238281 L 181.386719 51.398438 L 185.109375 42.582031 C 184.273438 40.648438 183.628906 39.960938 182.296875 39.808594 L 181.386719 39.695312 L 181.386719 39.011719 L 189.246094 39.011719 L 189.246094 39.695312 C 187.386719 39.734375 186.820312 40.300781 187.613281 42.199219 L 191.335938 51.246094 L 194.984375 42.355469 C 195.820312 40.339844 195.175781 39.695312 192.78125 39.695312 L 192.78125 39.011719 L 199.164062 39.011719 L 199.164062 39.695312 C 197.71875 39.84375 196.808594 40.570312 196.046875 42.429688 L 191.148438 54.398438 L 190.125 54.398438 "/>
<g clip-path="url(#clip3)" clip-rule="nonzero">
<path style=" stroke:none;fill-rule:nonzero;fill:rgb(13.729858%,12.159729%,12.548828%);fill-opacity:1;" d="M 0.503906 2.089844 L 40.238281 2.089844 C 40.238281 2.089844 40.285156 20.914062 40.238281 34.585938 C 40.246094 44.652344 27.804688 55.757812 20.359375 56.144531 C 12.109375 55.484375 0.503906 43.9375 0.503906 34.707031 L 0.503906 2.089844 "/>
</g>
<path style=" stroke:none;fill-rule:nonzero;fill:rgb(13.729858%,12.159729%,12.548828%);fill-opacity:1;" d="M 20.078125 15.789062 L 20.078125 50.789062 L 21.339844 50.789062 L 21.339844 15.789062 L 20.078125 15.789062 "/>
<path style=" stroke:none;fill-rule:nonzero;fill:rgb(100%,100%,100%);fill-opacity:1;" d="M 29.054688 15.570312 C 30.179688 15.566406 32.003906 15.578125 33.1875 15.578125 C 33.554688 15.578125 34.15625 15.46875 33.820312 16.277344 C 33.519531 16.996094 33.089844 17.996094 32.902344 18.425781 C 32.28125 18.425781 29.75 18.429688 29.746094 18.414062 C 29.542969 17.945312 29.253906 17.28125 28.886719 16.433594 C 28.691406 15.980469 28.59375 15.570312 29.054688 15.570312 Z M 28.480469 27.839844 L 34.71875 27.839844 C 36.558594 27.839844 36.726562 28.09375 36.855469 28.488281 C 36.78125 27.875 36.382812 24.734375 36.105469 22.460938 C 36.035156 21.867188 35.828125 20.234375 35.003906 19.261719 C 34.742188 18.949219 34.617188 18.792969 34.058594 18.550781 C 34.101562 18.429688 34.609375 17.164062 34.988281 16.140625 C 35.183594 15.617188 34.972656 15.097656 34.574219 14.855469 C 34.226562 14.648438 33.78125 14.636719 33.464844 14.636719 C 31.324219 14.636719 29.671875 14.640625 29.015625 14.640625 C 27.871094 14.640625 27.339844 15.367188 27.691406 16.246094 C 27.957031 16.910156 28.394531 18.042969 28.597656 18.5625 C 27.191406 19.03125 26.730469 20.949219 26.523438 22.613281 C 26.183594 25.414062 25.722656 29.148438 25.691406 29.375 C 25.644531 29.726562 25.582031 30.023438 26.167969 30.050781 C 27.277344 30.121094 28.570312 30.128906 30.75 30.074219 C 30.960938 30.191406 31.230469 30.265625 31.589844 30.253906 C 31.941406 30.25 32.199219 30.15625 32.386719 30.023438 C 33.277344 29.992188 34.285156 29.953125 35.441406 29.902344 C 34.425781 29.878906 33.476562 29.851562 32.59375 29.824219 C 32.910156 29.433594 32.878906 28.894531 32.847656 28.785156 C 32.714844 30.25 30.820312 30.109375 31.289062 28.558594 C 31.085938 28.558594 30.558594 28.558594 30.222656 28.835938 C 30.132812 29.0625 30.164062 29.4375 30.378906 29.75 C 29.148438 29.699219 28.132812 29.652344 27.402344 29.613281 C 27.023438 29.59375 26.839844 29.320312 27.03125 29.070312 C 27.828125 28.03125 27.875 27.839844 28.480469 27.839844 "/>
<path style=" stroke:none;fill-rule:nonzero;fill:rgb(100%,100%,100%);fill-opacity:1;" d="M 20.414062 50.636719 C 20.414062 51.050781 20.140625 51.382812 19.800781 51.382812 C 19.460938 51.382812 19.1875 51.050781 19.1875 50.636719 L 19.1875 47.164062 C 19.1875 46.757812 19.460938 46.421875 19.800781 46.421875 C 20.140625 46.421875 20.414062 46.757812 20.414062 47.164062 L 20.414062 50.636719 "/>
<path style=" stroke:none;fill-rule:nonzero;fill:rgb(100%,100%,100%);fill-opacity:1;" d="M 11.851562 9.394531 C 12.046875 9.3125 12.328125 9.332031 12.585938 9.332031 C 12.300781 9.09375 12.039062 9 11.882812 8.960938 C 11.515625 7.570312 9.503906 7.949219 9.304688 9.179688 C 9.234375 9.625 7.65625 9.820312 5.847656 12.238281 C 5.011719 13.351562 3.859375 14.316406 3.507812 14.539062 C 3.15625 14.757812 4.011719 14.695312 4.410156 14.273438 C 4.777344 14.648438 5.507812 13.527344 6.601562 13.335938 C 6.894531 13.289062 10.535156 12.628906 9.574219 10.542969 C 10.855469 12.195312 8.71875 13.382812 7.371094 13.511719 C 7.492188 13.574219 8.191406 13.628906 8.269531 13.660156 C 8.472656 13.734375 8.210938 13.976562 8.375 14.070312 C 8.765625 14.289062 9.546875 15.019531 9.546875 15.019531 C 9.546875 15.019531 9.988281 14.871094 9.789062 14.667969 C 9.1875 14.273438 9.023438 14.152344 8.871094 13.90625 C 8.863281 13.890625 8.667969 13.527344 9.0625 13.421875 C 9.632812 13.375 11.5 12.714844 11.183594 10.371094 C 11.132812 10.003906 11.390625 9.601562 11.851562 9.394531 "/>
<path style=" stroke:none;fill-rule:nonzero;fill:rgb(13.729858%,12.159729%,12.548828%);fill-opacity:1;" d="M 11.578125 9.007812 C 11.578125 9.128906 11.484375 9.222656 11.375 9.222656 C 11.265625 9.222656 11.175781 9.128906 11.175781 9.007812 C 11.175781 8.886719 11.265625 8.785156 11.375 8.785156 C 11.484375 8.785156 11.578125 8.886719 11.578125 9.007812 "/>
<path style=" stroke:none;fill-rule:nonzero;fill:rgb(100%,100%,100%);fill-opacity:1;" d="M 20.984375 46.292969 L 20.984375 51.210938 L 21.660156 51.210938 L 21.660156 46.292969 L 20.984375 46.292969 "/>
<path style=" stroke:none;fill-rule:nonzero;fill:rgb(100%,100%,100%);fill-opacity:1;" d="M 22.257812 51.976562 C 22.457031 51.765625 22.578125 51.484375 22.578125 51.167969 C 22.578125 50.527344 22.054688 50 21.410156 50 L 19.417969 50 C 18.773438 50 18.246094 50.527344 18.246094 51.167969 C 18.246094 51.472656 18.363281 51.742188 18.550781 51.953125 C 18.308594 52.167969 17.878906 52.582031 17.761719 52.722656 C 19.097656 53.316406 21.632812 53.265625 23.0625 52.71875 C 22.929688 52.601562 22.472656 52.179688 22.257812 51.976562 "/>
<path style=" stroke:none;fill-rule:nonzero;fill:rgb(100%,100%,100%);fill-opacity:1;" d="M 20.382812 11.613281 C 20.382812 11.644531 20.378906 11.636719 20.378906 11.605469 C 19.515625 10.832031 16.742188 10.503906 14.957031 10.957031 C 15.074219 11.175781 15.21875 11.867188 15.296875 12.144531 C 17.929688 11.269531 20.378906 12.550781 20.378906 12.550781 C 20.378906 12.542969 20.378906 12.53125 20.382812 12.523438 C 20.382812 12.53125 20.382812 12.546875 20.382812 12.550781 C 20.382812 12.550781 22.835938 11.273438 25.472656 12.152344 C 25.542969 11.875 25.691406 11.183594 25.808594 10.96875 C 24.023438 10.507812 21.25 10.839844 20.382812 11.613281 "/>
<path style=" stroke:none;fill-rule:nonzero;fill:rgb(100%,100%,100%);fill-opacity:1;" d="M 21.183594 15.785156 L 21.183594 42.902344 L 21.574219 42.902344 L 21.574219 15.785156 L 21.183594 15.785156 "/>
<path style=" stroke:none;fill-rule:nonzero;fill:rgb(100%,100%,100%);fill-opacity:1;" d="M 19.203125 15.78125 L 19.203125 40.949219 L 20.460938 40.949219 L 20.460938 15.78125 L 19.203125 15.78125 "/>
<path style=" stroke:none;fill-rule:nonzero;fill:rgb(13.729858%,12.159729%,12.548828%);fill-opacity:1;" d="M 21.664062 25.46875 C 21.746094 25.171875 21.785156 24.445312 21.664062 24.214844 C 21.074219 24.214844 20.15625 24.222656 19.621094 24.207031 C 20.847656 24.65625 21.664062 25.46875 21.664062 25.46875 "/>
<path style=" stroke:none;fill-rule:nonzero;fill:rgb(13.729858%,12.159729%,12.548828%);fill-opacity:1;" d="M 17.253906 47.871094 C 17.957031 47.980469 21.730469 48.15625 21.730469 48.15625 L 22.347656 49.757812 C 22.347656 49.757812 19.054688 49.671875 17.253906 47.871094 "/>
<path style=" stroke:none;fill-rule:nonzero;fill:rgb(100%,100%,100%);fill-opacity:1;" d="M 32.703125 36.394531 C 31.523438 35.628906 30.089844 36.21875 28.539062 34.917969 C 28.542969 38.957031 31.484375 39.765625 29.832031 40.84375 C 28.355469 41.808594 26.925781 42.046875 25.441406 41.925781 C 25.566406 41.722656 25.792969 41.355469 25.96875 41.171875 C 24.148438 40.9375 22.5625 41.070312 21.898438 41.148438 C 19.636719 40.480469 17.125 39.644531 14.101562 39.597656 C 14.648438 40.042969 15.1875 40.820312 15.1875 42.160156 C 14.730469 40.351562 12.851562 39.410156 11.929688 39.046875 C 11.652344 38.945312 11.394531 38.894531 11.125 38.851562 C 10.988281 39.035156 10.699219 39.347656 10.207031 39.53125 C 9.929688 39.382812 9.699219 39.644531 9.738281 39.730469 C 9.753906 39.777344 9.75 39.816406 9.714844 39.863281 C 9.445312 40.210938 8.558594 40.042969 7.898438 39.816406 C 7.136719 39.554688 7.167969 40.078125 7.316406 40.339844 C 7.554688 40.761719 7.785156 41.035156 7.898438 41.269531 C 8.910156 43.332031 9.65625 44.6875 11.894531 45.96875 C 14.023438 47.539062 16.699219 48.347656 19.417969 48.441406 C 20.414062 48.796875 22.691406 49.425781 25.550781 48.964844 C 24.996094 48.59375 24.441406 48.222656 24.257812 47.851562 C 27.890625 46.804688 31.03125 44.414062 32.316406 40.8125 C 32.328125 40.773438 32.34375 40.734375 32.359375 40.695312 C 32.585938 39.90625 31.824219 38.855469 30.738281 39.890625 C 31.679688 37.628906 33.234375 38.609375 32.90625 39.945312 C 34.148438 38.273438 35.808594 36.476562 38.023438 35.792969 C 36 34.863281 34.007812 35.671875 32.703125 36.394531 "/>
<path style=" stroke:none;fill-rule:nonzero;fill:rgb(13.729858%,12.159729%,12.548828%);fill-opacity:1;" d="M 21.703125 32.871094 C 21.785156 32.574219 21.820312 31.84375 21.703125 31.621094 C 21.113281 31.621094 20.199219 31.625 19.664062 31.609375 C 20.882812 32.058594 21.703125 32.871094 21.703125 32.871094 "/>
<path style=" stroke:none;fill-rule:nonzero;fill:rgb(100%,100%,100%);fill-opacity:1;" d="M 22.558594 30.492188 C 22.558594 31.140625 22.027344 31.664062 21.375 31.664062 L 19.359375 31.664062 C 18.703125 31.664062 18.171875 31.140625 18.171875 30.492188 C 18.171875 29.84375 18.703125 29.324219 19.359375 29.324219 L 21.375 29.324219 C 22.027344 29.324219 22.558594 29.84375 22.558594 30.492188 "/>
<path style=" stroke:none;fill-rule:nonzero;fill:rgb(13.729858%,12.159729%,12.548828%);fill-opacity:1;" d="M 21.339844 31.265625 C 20.15625 31.277344 19.140625 31.265625 19.140625 31.265625 C 19.140625 31.265625 20.808594 31.167969 21.863281 30.039062 C 22.140625 30.222656 22.195312 31.261719 21.339844 31.265625 "/>
<path style=" stroke:none;fill-rule:nonzero;fill:rgb(13.729858%,12.159729%,12.548828%);fill-opacity:1;" d="M 21.722656 40.375 C 21.804688 40.082031 21.839844 39.347656 21.722656 39.125 C 21.132812 39.125 20.21875 39.132812 19.683594 39.117188 C 20.90625 39.5625 21.722656 40.375 21.722656 40.375 "/>
<path style=" stroke:none;fill-rule:nonzero;fill:rgb(100%,100%,100%);fill-opacity:1;" d="M 22.578125 37.964844 C 22.578125 38.613281 22.046875 39.136719 21.390625 39.136719 L 19.375 39.136719 C 18.71875 39.136719 18.191406 38.613281 18.191406 37.964844 C 18.191406 37.316406 18.71875 36.796875 19.375 36.796875 L 21.390625 36.796875 C 22.046875 36.796875 22.578125 37.316406 22.578125 37.964844 "/>
<path style=" stroke:none;fill-rule:nonzero;fill:rgb(13.729858%,12.159729%,12.548828%);fill-opacity:1;" d="M 21.355469 38.738281 C 20.171875 38.746094 19.160156 38.734375 19.160156 38.734375 C 19.160156 38.734375 20.820312 38.644531 21.878906 37.507812 C 22.15625 37.695312 22.210938 38.730469 21.355469 38.738281 "/>
<path style=" stroke:none;fill-rule:nonzero;fill:rgb(100%,100%,100%);fill-opacity:1;" d="M 18.597656 17.6875 L 18.597656 21.1875 L 22.160156 21.1875 L 22.160156 17.6875 L 18.597656 17.6875 "/>
<path style=" stroke:none;fill-rule:nonzero;fill:rgb(100%,100%,100%);fill-opacity:1;" d="M 22.160156 21.183594 C 21.558594 21.328125 21.597656 21.835938 21.574219 22.023438 C 21.574219 22.023438 20.136719 22.03125 19.191406 22.023438 C 19.199219 21.96875 19.222656 21.277344 18.597656 21.183594 C 18.597656 21.183594 21.933594 21.1875 22.160156 21.183594 "/>
<path style=" stroke:none;fill-rule:nonzero;fill:rgb(13.729858%,12.159729%,12.548828%);fill-opacity:1;" d="M 20.679688 17.6875 L 20.679688 21.230469 L 21.644531 21.230469 L 21.644531 17.6875 L 20.679688 17.6875 "/>
<path style=" stroke:none;fill-rule:nonzero;fill:rgb(100%,100%,100%);fill-opacity:1;" d="M 9.085938 39.453125 C 8.90625 39.386719 8.808594 39.234375 8.757812 39.121094 C 8.644531 38.863281 8.648438 38.523438 8.773438 38.199219 C 8.898438 37.882812 9.121094 37.621094 9.382812 37.507812 C 9.496094 37.460938 9.671875 37.414062 9.847656 37.480469 C 10.109375 37.585938 10.261719 37.878906 10.261719 38.230469 C 10.261719 38.394531 10.226562 38.566406 10.164062 38.734375 C 10.042969 39.054688 9.8125 39.3125 9.554688 39.429688 C 9.4375 39.476562 9.269531 39.527344 9.085938 39.453125 Z M 9.195312 37.082031 C 8.820312 37.25 8.503906 37.59375 8.335938 38.03125 C 8.164062 38.472656 8.164062 38.933594 8.328125 39.3125 C 8.453125 39.585938 8.660156 39.792969 8.917969 39.890625 C 9.171875 39.988281 9.464844 39.976562 9.742188 39.855469 C 10.117188 39.691406 10.429688 39.34375 10.601562 38.910156 C 10.90625 38.121094 10.640625 37.289062 10.019531 37.046875 C 9.761719 36.945312 9.46875 36.957031 9.195312 37.082031 "/>
<path style=" stroke:none;fill-rule:nonzero;fill:rgb(100%,100%,100%);fill-opacity:1;" d="M 9.722656 39.328125 C 9.519531 39.265625 9.023438 39.121094 8.429688 39.101562 C 8.007812 39.085938 7.59375 38.84375 7.617188 38.71875 C 7.644531 38.628906 7.75 38.582031 7.929688 38.558594 C 8.335938 38.5 9.222656 38.546875 10.175781 38.699219 C 10.097656 38.933594 9.96875 39.144531 9.722656 39.328125 "/>
<path style=" stroke:none;fill-rule:nonzero;fill:rgb(100%,100%,100%);fill-opacity:1;" d="M 22.589844 23.058594 C 22.589844 23.707031 22.0625 24.234375 21.402344 24.234375 L 19.386719 24.234375 C 18.730469 24.234375 18.203125 23.707031 18.203125 23.058594 C 18.203125 22.414062 18.730469 21.890625 19.386719 21.890625 L 21.402344 21.890625 C 22.0625 21.890625 22.589844 22.414062 22.589844 23.058594 "/>
<path style=" stroke:none;fill-rule:nonzero;fill:rgb(13.729858%,12.159729%,12.548828%);fill-opacity:1;" d="M 21.371094 23.832031 C 20.1875 23.847656 19.167969 23.832031 19.167969 23.832031 C 19.167969 23.832031 20.835938 23.734375 21.894531 22.601562 C 22.171875 22.792969 22.222656 23.828125 21.371094 23.832031 "/>
<path style=" stroke:none;fill-rule:nonzero;fill:rgb(100%,100%,100%);fill-opacity:1;" d="M 13.46875 40.035156 C 14.753906 40.894531 15.1875 42.160156 15.1875 42.160156 C 15.1875 42.160156 15.617188 41.101562 15.03125 40.28125 C 16.199219 39.9375 18.230469 40.472656 20.0625 41.191406 C 22.753906 42.242188 24.765625 42.59375 26.8125 42.242188 C 28.859375 41.894531 29.9375 41.46875 30.597656 40.445312 C 30.949219 39.898438 31.984375 40.015625 31.691406 40.835938 C 31.398438 41.65625 30.128906 43.996094 27.730469 44.640625 C 25.332031 45.285156 21.371094 46.359375 15.515625 44.894531 C 13.949219 44.503906 10.273438 43.523438 8.769531 41.59375 C 8.46875 41.207031 8.386719 40.484375 8.375 40.371094 C 8.355469 40.230469 8.449219 40.160156 8.777344 40.214844 C 9.808594 40.398438 10.003906 40.003906 10.386719 39.566406 C 10.8125 39.515625 12.296875 39.257812 13.46875 40.035156 "/>
<path style=" stroke:none;fill-rule:nonzero;fill:rgb(13.729858%,12.159729%,12.548828%);fill-opacity:1;" d="M 31.261719 40.667969 C 29.472656 44.070312 26.011719 44.597656 22.390625 44.710938 C 20.921875 44.75 19.453125 44.566406 18.191406 44.246094 C 19.257812 44.351562 20.355469 44.265625 21.027344 44.035156 C 20.765625 42.667969 18.4375 41.675781 16.8125 41.589844 C 16.507812 41.238281 16.417969 40.78125 15.671875 40.519531 C 16.199219 41.003906 16.15625 41.675781 16.417969 42.027344 C 17.746094 42.296875 19.367188 42.636719 20.148438 43.683594 C 19.875 44.035156 17.46875 43.839844 16.160156 43.539062 C 15.59375 43.332031 15.003906 42.992188 14.691406 42.378906 C 14.066406 43.082031 13.070312 42.828125 12.050781 42.320312 C 12.035156 41.921875 11.792969 41.574219 11.261719 41.472656 C 11.378906 41.644531 11.40625 41.824219 11.40625 41.972656 C 10.253906 41.304688 9.152344 40.492188 8.601562 40.535156 C 7.816406 40.59375 10.3125 44.972656 12.417969 45.441406 C 18.675781 49.046875 29.136719 47.460938 31.613281 41.371094 C 31.964844 40.492188 31.65625 39.921875 31.261719 40.667969 "/>
<path style=" stroke:none;fill-rule:nonzero;fill:rgb(100%,100%,100%);fill-opacity:1;" d="M 11.492188 41.914062 C 11.527344 42.292969 11.226562 42.636719 10.820312 42.675781 C 10.417969 42.722656 10.058594 42.441406 10.019531 42.058594 C 9.984375 41.671875 10.28125 41.332031 10.683594 41.289062 C 11.089844 41.25 11.449219 41.53125 11.492188 41.914062 "/>
<path style=" stroke:none;fill-rule:nonzero;fill:rgb(13.729858%,12.159729%,12.548828%);fill-opacity:1;" d="M 11.140625 41.984375 C 11.140625 42.175781 10.964844 42.324219 10.753906 42.324219 C 10.542969 42.324219 10.371094 42.175781 10.371094 41.984375 C 10.371094 41.796875 10.542969 41.644531 10.753906 41.644531 C 10.964844 41.644531 11.140625 41.796875 11.140625 41.984375 "/>
<path style=" stroke:none;fill-rule:nonzero;fill:rgb(100%,100%,100%);fill-opacity:1;" d="M 29.078125 35.746094 C 28.644531 37.226562 30.480469 39.226562 30.480469 39.226562 C 30.480469 39.226562 29.648438 36.632812 29.078125 35.746094 "/>
<path style=" stroke:none;fill-rule:nonzero;fill:rgb(100%,100%,100%);fill-opacity:1;" d="M 30.363281 36.0625 C 29.734375 36.933594 30.917969 38.90625 30.917969 38.90625 C 30.917969 38.90625 30.855469 37.328125 30.363281 36.0625 "/>
<path style=" stroke:none;fill-rule:nonzero;fill:rgb(100%,100%,100%);fill-opacity:1;" d="M 32.351562 38.320312 C 32.847656 37.234375 33.847656 36.15625 34.902344 35.773438 C 32.703125 36.039062 32.207031 37.496094 32.351562 38.320312 "/>
<path style=" stroke:none;fill-rule:nonzero;fill:rgb(100%,100%,100%);fill-opacity:1;" d="M 20.378906 5.476562 C 19.453125 3.679688 18.128906 5.0625 15.804688 4.34375 C 15.394531 6.246094 14.984375 9.644531 14.871094 10.226562 C 16.457031 10.703125 17.851562 9.222656 19.746094 10.457031 C 19.542969 8.007812 20.332031 5.964844 20.332031 5.964844 C 20.332031 5.964844 20.355469 5.664062 20.378906 5.476562 "/>
<path style=" stroke:none;fill-rule:nonzero;fill:rgb(100%,100%,100%);fill-opacity:1;" d="M 24.960938 4.335938 C 22.636719 5.054688 21.3125 3.671875 20.386719 5.46875 C 20.382812 6.082031 20.378906 10.609375 20.390625 10.945312 C 22.613281 8.867188 24.140625 10.746094 25.894531 10.21875 C 25.777344 9.636719 25.367188 6.238281 24.960938 4.335938 "/>
<path style=" stroke:none;fill-rule:nonzero;fill:rgb(100%,100%,100%);fill-opacity:1;" d="M 19.738281 14.289062 L 19.738281 15.789062 L 21.027344 15.789062 L 21.027344 14.289062 L 19.738281 14.289062 "/>
<path style=" stroke:none;fill-rule:nonzero;fill:rgb(100%,100%,100%);fill-opacity:1;" d="M 20.390625 12.847656 L 21.035156 13.972656 L 19.734375 13.976562 Z M 20.390625 12.847656 "/>
<path style=" stroke:none;fill-rule:nonzero;fill:rgb(9.893799%,58.227539%,27.085876%);fill-opacity:1;" d="M 9.53125 17.28125 L 9.53125 17.273438 C 9.519531 17.269531 9.519531 17.273438 9.53125 17.28125 "/>
<path style=" stroke:none;fill-rule:nonzero;fill:rgb(100%,100%,100%);fill-opacity:1;" d="M 14.726562 24.632812 C 14.726562 24.632812 16.496094 23.757812 16.671875 22.859375 C 16.125 22.332031 14.738281 22.273438 14.738281 22.273438 C 14.738281 22.273438 16.328125 21.0625 16.261719 20.1875 C 15.46875 19.816406 14.054688 20.03125 14.054688 20.03125 C 14.710938 19.125 14.898438 18.402344 14.871094 17.769531 C 14.042969 17.628906 12.769531 18.121094 12.769531 18.121094 C 12.769531 18.121094 13.195312 16.597656 12.777344 15.804688 C 12.011719 15.601562 10.933594 16.949219 10.933594 16.949219 C 10.933594 16.949219 10.550781 15.28125 9.65625 14.394531 C 8.757812 15.28125 8.367188 16.949219 8.367188 16.949219 C 8.367188 16.949219 7.289062 15.601562 6.519531 15.804688 C 6.105469 16.597656 6.53125 18.121094 6.53125 18.121094 C 6.53125 18.121094 5.257812 17.628906 4.425781 17.769531 C 4.40625 18.402344 4.59375 19.125 5.246094 20.03125 C 5.246094 20.03125 3.832031 19.816406 3.039062 20.1875 C 2.972656 21.0625 4.5625 22.273438 4.5625 22.273438 C 4.5625 22.273438 3.175781 22.332031 2.628906 22.859375 C 2.808594 23.757812 4.578125 24.632812 4.578125 24.632812 C 4.578125 24.632812 3.523438 24.847656 2.882812 25.578125 C 3.289062 26.121094 4.214844 26.644531 4.9375 26.761719 C 4.3125 27.265625 3.964844 27.65625 3.804688 27.953125 C 4.820312 28.773438 6.945312 28.886719 9.070312 28.226562 C 9.070312 28.632812 9.078125 31.914062 8.578125 33.414062 L 10.722656 33.414062 C 10.226562 31.914062 10.230469 28.632812 10.230469 28.226562 C 12.359375 28.886719 14.484375 28.773438 15.496094 27.953125 C 15.339844 27.65625 14.992188 27.265625 14.371094 26.761719 C 15.089844 26.644531 16.011719 26.121094 16.421875 25.578125 C 15.777344 24.847656 14.726562 24.632812 14.726562 24.632812 "/>
<path style=" stroke:none;fill-rule:nonzero;fill:rgb(13.729858%,12.159729%,12.548828%);fill-opacity:1;" d="M 12.789062 24.691406 C 12.988281 24.582031 14.015625 24.265625 14.542969 23.347656 C 14.015625 22.839844 12.789062 22.820312 12.789062 22.820312 C 12.789062 22.820312 13.882812 22.101562 14.25 21.023438 C 13.3125 20.75 12.339844 21.023438 12.339844 21.023438 C 12.339844 21.023438 13.136719 19.890625 13.238281 18.9375 C 12.339844 19.035156 11.382812 19.503906 11.382812 19.503906 C 11.65625 18.917969 11.792969 18.082031 11.675781 17.355469 C 11.226562 17.445312 10.8125 17.929688 10.574219 18.277344 C 10.34375 17.546875 9.960938 17.320312 9.695312 17.171875 C 9.257812 17.816406 9.144531 18.242188 9.222656 19.109375 C 9.371094 18.964844 9.605469 18.734375 9.988281 18.515625 C 10.21875 19.769531 9.773438 20.683594 9.773438 20.683594 C 9.773438 20.683594 10.324219 20.324219 11.058594 20.238281 C 11.089844 20.929688 10.835938 21.648438 10.105469 22.496094 C 10.105469 22.496094 10.746094 22.109375 11.492188 22.050781 C 11.371094 23.027344 10.777344 23.679688 10.160156 24.234375 C 10.570312 24.042969 11.273438 24.058594 11.761719 24.214844 C 11.507812 24.957031 10.929688 25.332031 10.085938 25.796875 C 10.609375 25.796875 11.148438 25.867188 11.449219 26.070312 C 11.109375 26.703125 10.28125 27.003906 9.707031 27.171875 C 11.035156 27.675781 12.320312 27.886719 13.578125 27.582031 C 13.492188 27.207031 13.011719 26.75 12.457031 26.429688 C 12.964844 26.316406 13.722656 26.15625 14.386719 25.589844 C 13.957031 25.160156 13.429688 24.867188 12.789062 24.691406 "/>
<g clip-path="url(#clip4)" clip-rule="nonzero">
<path style=" stroke:none;fill-rule:nonzero;fill:rgb(100%,100%,100%);fill-opacity:1;" d="M 5.671875 53.457031 C 5.972656 54.464844 5.171875 56.40625 5.742188 57.527344 C 5.253906 57.511719 2.160156 58.078125 1.699219 57.675781 C 1.25 57.277344 0.0429688 56.421875 1.25 55.765625 C 2.457031 55.113281 5.507812 53.941406 5.671875 53.457031 "/>
</g>
<path style=" stroke:none;fill-rule:nonzero;fill:rgb(100%,100%,100%);fill-opacity:1;" d="M 35.234375 53.355469 C 35.589844 56.570312 35.050781 56.933594 35.082031 57.859375 C 35.386719 57.9375 37.847656 58.449219 38.71875 57.980469 C 39.589844 57.511719 40.191406 56.375 39.789062 55.902344 C 39.386719 55.433594 37.378906 54.160156 36.578125 54.027344 C 35.773438 53.890625 35.453125 53.59375 35.234375 53.355469 "/>
<g clip-path="url(#clip5)" clip-rule="nonzero">
<path style=" stroke:none;fill-rule:nonzero;fill:rgb(13.729858%,12.159729%,12.548828%);fill-opacity:1;" d="M 39.078125 54.910156 C 37.742188 54.191406 35.753906 53.757812 34.632812 52.222656 C 34.210938 53.765625 35.234375 54.652344 35.191406 56.929688 C 36.136719 55.164062 35.359375 54.730469 35.519531 53.890625 C 36.28125 54.863281 37.421875 55.003906 38.21875 55.417969 C 39.238281 55.949219 39.863281 57.125 37.753906 57.117188 C 33.640625 57.109375 7.246094 57.121094 3.042969 57.121094 C 0.871094 57.121094 1.507812 55.957031 2.523438 55.425781 C 3.324219 55.011719 4.476562 54.871094 5.238281 53.871094 C 5.398438 54.707031 4.609375 55.136719 5.558594 56.902344 C 5.515625 54.628906 6.527344 53.78125 6.125 52.222656 C 5.003906 53.757812 2.988281 54.191406 1.648438 54.910156 C 0.507812 55.511719 0.503906 55.917969 0.503906 57.867188 C 0.503906 59.175781 0.511719 60.828125 0.5 61.933594 C 0.492188 62.707031 1.394531 63.167969 2.476562 63.136719 C 7.421875 63.136719 33.304688 63.136719 38.253906 63.136719 C 39.328125 63.167969 40.246094 62.722656 40.246094 61.945312 C 40.253906 60.835938 40.234375 59.164062 40.246094 57.859375 C 40.261719 55.851562 40.21875 55.511719 39.078125 54.910156 "/>
</g>
<path style=" stroke:none;fill-rule:nonzero;fill:rgb(100%,100%,100%);fill-opacity:1;" d="M 2.492188 58.808594 L 3.257812 58.808594 L 3.792969 60.289062 C 3.804688 60.320312 3.832031 60.441406 3.878906 60.644531 C 3.929688 60.441406 3.960938 60.320312 3.972656 60.289062 L 4.496094 58.808594 L 5.265625 58.808594 L 4.15625 61.457031 L 3.605469 61.457031 L 2.492188 58.808594 "/>
<path style=" stroke:none;fill-rule:nonzero;fill:rgb(100%,100%,100%);fill-opacity:1;" d="M 5.683594 58.808594 L 5.683594 61.457031 L 6.414062 61.457031 L 6.414062 58.808594 L 5.683594 58.808594 "/>
<path style=" stroke:none;fill-rule:nonzero;fill:rgb(100%,100%,100%);fill-opacity:1;" d="M 8.597656 60.472656 L 8.328125 59.59375 C 8.316406 59.550781 8.285156 59.433594 8.238281 59.238281 C 8.191406 59.433594 8.15625 59.550781 8.144531 59.59375 L 7.878906 60.472656 Z M 7.785156 58.808594 L 8.6875 58.808594 L 9.601562 61.457031 L 8.882812 61.457031 L 8.75 60.980469 L 7.726562 60.980469 L 7.585938 61.457031 L 6.867188 61.457031 L 7.785156 58.808594 "/>
<path style=" stroke:none;fill-rule:nonzero;fill:rgb(100%,100%,100%);fill-opacity:1;" d="M 11.03125 58.808594 L 11.796875 58.808594 L 12.328125 60.289062 C 12.339844 60.320312 12.367188 60.441406 12.417969 60.644531 C 12.464844 60.441406 12.496094 60.320312 12.507812 60.289062 L 13.035156 58.808594 L 13.800781 58.808594 L 12.691406 61.457031 L 12.144531 61.457031 L 11.03125 58.808594 "/>
<path style=" stroke:none;fill-rule:nonzero;fill:rgb(100%,100%,100%);fill-opacity:1;" d="M 14.203125 58.808594 L 15.824219 58.808594 L 15.824219 59.390625 L 14.90625 59.390625 L 14.90625 59.851562 L 15.773438 59.851562 L 15.773438 60.417969 L 14.90625 60.417969 L 14.90625 60.867188 L 15.824219 60.867188 L 15.824219 61.457031 L 14.203125 61.457031 L 14.203125 58.808594 "/>
<path style=" stroke:none;fill-rule:nonzero;fill:rgb(100%,100%,100%);fill-opacity:1;" d="M 17.296875 60.0625 C 17.601562 60.0625 17.746094 59.964844 17.746094 59.730469 C 17.746094 59.457031 17.609375 59.367188 17.308594 59.367188 L 17.164062 59.367188 L 17.164062 60.0625 Z M 16.484375 58.808594 L 17.242188 58.808594 C 17.257812 58.808594 17.269531 58.808594 17.285156 58.808594 C 17.652344 58.808594 17.933594 58.8125 18.164062 58.984375 C 18.351562 59.136719 18.457031 59.359375 18.457031 59.636719 C 18.457031 60.042969 18.25 60.304688 17.867188 60.394531 L 18.585938 61.457031 L 17.769531 61.457031 L 17.164062 60.421875 L 17.164062 61.457031 L 16.484375 61.457031 L 16.484375 58.808594 "/>
<path style=" stroke:none;fill-rule:nonzero;fill:rgb(100%,100%,100%);fill-opacity:1;" d="M 19.0625 58.808594 L 19.0625 61.457031 L 19.792969 61.457031 L 19.792969 58.808594 L 19.0625 58.808594 "/>
<path style=" stroke:none;fill-rule:nonzero;fill:rgb(100%,100%,100%);fill-opacity:1;" d="M 20.941406 59.433594 L 20.355469 59.433594 L 20.355469 58.808594 L 22.257812 58.808594 L 22.257812 59.433594 L 21.664062 59.433594 L 21.664062 61.457031 L 20.941406 61.457031 L 20.941406 59.433594 "/>
<path style=" stroke:none;fill-rule:nonzero;fill:rgb(100%,100%,100%);fill-opacity:1;" d="M 24.210938 60.472656 L 23.941406 59.59375 C 23.929688 59.550781 23.902344 59.433594 23.851562 59.238281 C 23.804688 59.433594 23.769531 59.550781 23.757812 59.59375 L 23.492188 60.472656 Z M 23.398438 58.808594 L 24.300781 58.808594 L 25.214844 61.457031 L 24.496094 61.457031 L 24.363281 60.980469 L 23.339844 60.980469 L 23.203125 61.457031 L 22.480469 61.457031 L 23.398438 58.808594 "/>
<path style=" stroke:none;fill-rule:nonzero;fill:rgb(100%,100%,100%);fill-opacity:1;" d="M 26.402344 60.964844 C 26.601562 60.964844 26.730469 60.847656 26.730469 60.691406 C 26.730469 60.480469 26.585938 60.417969 26.285156 60.339844 C 25.808594 60.214844 25.578125 60.023438 25.578125 59.609375 C 25.578125 59.113281 25.933594 58.75 26.492188 58.75 C 26.789062 58.75 27.046875 58.824219 27.273438 58.984375 L 27.050781 59.5 C 26.882812 59.359375 26.707031 59.289062 26.542969 59.289062 C 26.363281 59.289062 26.246094 59.386719 26.246094 59.511719 C 26.246094 59.703125 26.433594 59.742188 26.671875 59.808594 C 27.140625 59.929688 27.402344 60.105469 27.402344 60.597656 C 27.402344 61.144531 27.007812 61.53125 26.386719 61.53125 C 26.011719 61.53125 25.730469 61.410156 25.445312 61.140625 L 25.769531 60.601562 C 25.984375 60.84375 26.191406 60.964844 26.402344 60.964844 "/>
<path style=" stroke:none;fill-rule:nonzero;fill:rgb(100%,100%,100%);fill-opacity:1;" d="M 28.980469 58.808594 L 29.75 58.808594 L 30.277344 60.289062 C 30.289062 60.320312 30.320312 60.441406 30.363281 60.644531 C 30.414062 60.441406 30.449219 60.320312 30.457031 60.289062 L 30.984375 58.808594 L 31.753906 58.808594 L 30.640625 61.457031 L 30.09375 61.457031 L 28.980469 58.808594 "/>
<path style=" stroke:none;fill-rule:nonzero;fill:rgb(100%,100%,100%);fill-opacity:1;" d="M 32.171875 58.808594 L 32.171875 61.457031 L 32.902344 61.457031 L 32.902344 58.808594 L 32.171875 58.808594 "/>
<path style=" stroke:none;fill-rule:nonzero;fill:rgb(100%,100%,100%);fill-opacity:1;" d="M 34.050781 59.433594 L 33.460938 59.433594 L 33.460938 58.808594 L 35.363281 58.808594 L 35.363281 59.433594 L 34.769531 59.433594 L 34.769531 61.457031 L 34.050781 61.457031 L 34.050781 59.433594 "/>
<path style=" stroke:none;fill-rule:nonzero;fill:rgb(100%,100%,100%);fill-opacity:1;" d="M 37.316406 60.472656 L 37.046875 59.59375 C 37.035156 59.550781 37.007812 59.433594 36.960938 59.238281 C 36.910156 59.433594 36.878906 59.550781 36.867188 59.59375 L 36.601562 60.472656 Z M 36.503906 58.808594 L 37.40625 58.808594 L 38.320312 61.457031 L 37.601562 61.457031 L 37.46875 60.980469 L 36.445312 60.980469 L 36.308594 61.457031 L 35.589844 61.457031 L 36.503906 58.808594 "/>
<path style=" stroke:none;fill-rule:nonzero;fill:rgb(13.729858%,12.159729%,12.548828%);fill-opacity:1;" d="M 21.820312 50.519531 C 21.996094 50.730469 22.117188 51.710938 21.265625 51.78125 C 19.800781 51.894531 19.097656 51.75 19.097656 51.75 C 19.097656 51.75 21.058594 51.515625 21.820312 50.519531 "/>
<path style=" stroke:none;fill-rule:nonzero;fill:rgb(13.729858%,12.159729%,12.548828%);fill-opacity:1;" d="M 28.421875 20.449219 C 28.511719 19.246094 29.078125 18.964844 29.859375 18.984375 C 30.296875 18.992188 30.957031 19 32.554688 18.988281 C 31.65625 19.066406 30.53125 19.542969 30.386719 20.714844 C 30.25 21.800781 30.242188 25.574219 30.210938 27.179688 C 29.421875 27.210938 28.363281 27.179688 28.132812 27.242188 C 28.246094 25.574219 28.335938 21.648438 28.421875 20.449219 "/>
<path style="fill:none;stroke-width:5;stroke-linecap:butt;stroke-linejoin:miter;stroke:rgb(13.729858%,12.159729%,12.548828%);stroke-opacity:1;stroke-miterlimit:4;" d="M 1623.331384 409.815548 L 1623.331384 68.288332 " transform="matrix(0.127838,0,0,-0.127838,0.5,63.14)"/>
<path style=" stroke:none;fill-rule:nonzero;fill:rgb(13.729858%,12.159729%,12.548828%);fill-opacity:1;" d="M 220.476562 23.324219 C 220.476562 26.199219 222.335938 27.878906 225.59375 27.878906 C 228.496094 27.878906 230.148438 26.480469 230.148438 24.265625 C 230.148438 21.898438 228.878906 21.160156 225.898438 20.394531 L 224.167969 19.964844 C 220.808594 19.097656 219.179688 17.976562 219.179688 15 C 219.179688 12.097656 221.46875 10.085938 225.183594 10.085938 C 229.03125 10.085938 231.292969 12.148438 231.347656 15.660156 L 229.613281 15.660156 C 229.589844 13.039062 227.960938 11.589844 225.109375 11.589844 C 222.410156 11.589844 220.910156 12.859375 220.910156 15.050781 C 220.910156 16.78125 221.851562 17.648438 223.988281 18.179688 L 226.128906 18.714844 C 230.097656 19.710938 231.878906 21.058594 231.878906 24.085938 C 231.878906 27.34375 229.488281 29.382812 225.566406 29.382812 C 221.1875 29.382812 218.746094 27.242188 218.746094 23.449219 L 218.746094 23.324219 L 220.476562 23.324219 "/>
<path style=" stroke:none;fill-rule:nonzero;fill:rgb(13.729858%,12.159729%,12.548828%);fill-opacity:1;" d="M 245.34375 24.316406 C 245.066406 27.34375 242.976562 29.203125 239.847656 29.203125 C 236.335938 29.203125 234.066406 26.660156 234.066406 22.355469 C 234.066406 17.925781 236.359375 15.332031 239.949219 15.332031 C 242.925781 15.332031 245.015625 17.164062 245.167969 19.859375 L 243.691406 19.859375 C 243.4375 17.925781 241.933594 16.679688 239.949219 16.679688 C 237.402344 16.679688 235.644531 18.691406 235.644531 22.230469 C 235.644531 25.816406 237.402344 27.855469 239.972656 27.855469 C 242.011719 27.855469 243.488281 26.554688 243.816406 24.316406 L 245.34375 24.316406 "/>
<path style=" stroke:none;fill-rule:nonzero;fill:rgb(13.729858%,12.159729%,12.548828%);fill-opacity:1;" d="M 247.863281 10.570312 L 249.390625 10.570312 L 249.390625 17.722656 C 250.382812 16.144531 251.859375 15.332031 253.769531 15.332031 C 255.550781 15.332031 257 16.042969 257.714844 17.1875 C 258.25 18.054688 258.25 19.226562 258.25 20.828125 L 258.25 28.871094 L 256.722656 28.871094 L 256.722656 20.855469 C 256.722656 18.027344 256.238281 16.679688 253.464844 16.679688 C 251.042969 16.679688 249.390625 18.359375 249.390625 21.082031 L 249.390625 28.871094 L 247.863281 28.871094 L 247.863281 10.570312 "/>
<path style=" stroke:none;fill-rule:nonzero;fill:rgb(13.729858%,12.159729%,12.548828%);fill-opacity:1;" d="M 267.03125 27.855469 C 269.855469 27.855469 271.535156 25.894531 271.535156 22.28125 C 271.535156 18.664062 269.855469 16.679688 267.03125 16.679688 C 264.226562 16.679688 262.546875 18.664062 262.546875 22.28125 C 262.546875 25.894531 264.226562 27.855469 267.03125 27.855469 Z M 267.03125 15.332031 C 270.875 15.332031 273.113281 17.851562 273.113281 22.28125 C 273.113281 26.710938 270.875 29.203125 267.03125 29.203125 C 263.183594 29.203125 260.96875 26.710938 260.96875 22.28125 C 260.96875 17.851562 263.183594 15.332031 267.03125 15.332031 "/>
<path style=" stroke:none;fill-rule:nonzero;fill:rgb(13.729858%,12.159729%,12.548828%);fill-opacity:1;" d="M 281.230469 27.855469 C 284.058594 27.855469 285.738281 25.894531 285.738281 22.28125 C 285.738281 18.664062 284.058594 16.679688 281.230469 16.679688 C 278.429688 16.679688 276.75 18.664062 276.75 22.28125 C 276.75 25.894531 278.429688 27.855469 281.230469 27.855469 Z M 281.230469 15.332031 C 285.074219 15.332031 287.316406 17.851562 287.316406 22.28125 C 287.316406 26.710938 285.074219 29.203125 281.230469 29.203125 C 277.386719 29.203125 275.171875 26.710938 275.171875 22.28125 C 275.171875 17.851562 277.386719 15.332031 281.230469 15.332031 "/>
<path style=" stroke:none;fill-rule:nonzero;fill:rgb(13.729858%,12.159729%,12.548828%);fill-opacity:1;" d="M 290.191406 10.570312 L 291.71875 10.570312 L 291.71875 28.871094 L 290.191406 28.871094 L 290.191406 10.570312 "/>
<path style=" stroke:none;fill-rule:nonzero;fill:rgb(13.729858%,12.159729%,12.548828%);fill-opacity:1;" d="M 307.449219 27.855469 C 310.273438 27.855469 311.953125 25.894531 311.953125 22.28125 C 311.953125 18.664062 310.273438 16.679688 307.449219 16.679688 C 304.648438 16.679688 302.96875 18.664062 302.96875 22.28125 C 302.96875 25.894531 304.648438 27.855469 307.449219 27.855469 Z M 307.449219 15.332031 C 311.292969 15.332031 313.53125 17.851562 313.53125 22.28125 C 313.53125 26.710938 311.292969 29.203125 307.449219 29.203125 C 303.605469 29.203125 301.390625 26.710938 301.390625 22.28125 C 301.390625 17.851562 303.605469 15.332031 307.449219 15.332031 "/>
<path style=" stroke:none;fill-rule:nonzero;fill:rgb(13.729858%,12.159729%,12.548828%);fill-opacity:1;" d="M 316.992188 16.910156 L 315.058594 16.910156 L 315.058594 15.660156 L 316.992188 15.660156 L 316.992188 13.242188 C 316.992188 11.230469 317.984375 10.390625 320.125 10.390625 C 320.378906 10.390625 320.632812 10.417969 320.910156 10.46875 L 320.910156 11.84375 C 320.582031 11.816406 320.300781 11.742188 320.074219 11.742188 C 318.902344 11.742188 318.519531 12.222656 318.519531 13.394531 L 318.519531 15.660156 L 320.910156 15.660156 L 320.910156 16.910156 L 318.519531 16.910156 L 318.519531 28.871094 L 316.992188 28.871094 L 316.992188 16.910156 "/>
<path style=" stroke:none;fill-rule:nonzero;fill:rgb(13.729858%,12.159729%,12.548828%);fill-opacity:1;" d="M 219.636719 36.023438 L 231.625 36.023438 L 231.625 37.523438 L 221.316406 37.523438 L 221.316406 44.167969 L 230.734375 44.167969 L 230.734375 45.671875 L 221.316406 45.671875 L 221.316406 52.824219 L 231.929688 52.824219 L 231.929688 54.324219 L 219.636719 54.324219 L 219.636719 36.023438 "/>
<path style=" stroke:none;fill-rule:nonzero;fill:rgb(13.729858%,12.159729%,12.548828%);fill-opacity:1;" d="M 234.703125 41.113281 L 236.179688 41.113281 L 236.179688 43.226562 C 237.171875 41.597656 238.625 40.78125 240.558594 40.78125 C 242.390625 40.78125 243.816406 41.46875 244.53125 42.640625 C 245.039062 43.457031 245.0625 44.5 245.0625 45.898438 L 245.0625 54.324219 L 243.535156 54.324219 L 243.535156 46.078125 C 243.535156 43.40625 242.949219 42.132812 240.253906 42.132812 C 237.835938 42.132812 236.230469 43.785156 236.230469 46.535156 L 236.230469 54.324219 L 234.703125 54.324219 L 234.703125 41.113281 "/>
<path style=" stroke:none;fill-rule:nonzero;fill:rgb(13.729858%,12.159729%,12.548828%);fill-opacity:1;" d="M 253.871094 53.332031 C 256.644531 53.332031 258.351562 51.347656 258.351562 47.734375 C 258.351562 44.117188 256.671875 42.132812 253.871094 42.132812 C 251.042969 42.132812 249.363281 44.09375 249.363281 47.734375 C 249.363281 51.296875 251.148438 53.332031 253.871094 53.332031 Z M 259.75 53.636719 C 259.75 57.683594 257.613281 59.746094 253.488281 59.746094 C 250.359375 59.746094 248.371094 58.222656 248.195312 55.878906 L 249.773438 55.878906 C 249.925781 57.457031 251.222656 58.398438 253.464844 58.398438 C 256.644531 58.398438 258.222656 56.796875 258.222656 53.6875 L 258.222656 52.058594 C 257.179688 53.816406 255.652344 54.683594 253.640625 54.683594 C 250.078125 54.683594 247.789062 52.109375 247.789062 47.734375 C 247.789062 43.378906 250.128906 40.78125 253.640625 40.78125 C 255.675781 40.78125 257.207031 41.648438 258.222656 43.40625 L 258.222656 41.113281 L 259.75 41.113281 L 259.75 53.636719 "/>
<path style=" stroke:none;fill-rule:nonzero;fill:rgb(13.729858%,12.159729%,12.548828%);fill-opacity:1;" d="M 263.3125 41.113281 L 264.839844 41.113281 L 264.839844 54.324219 L 263.3125 54.324219 Z M 263.3125 36.023438 L 264.839844 36.023438 L 264.839844 38.3125 L 263.3125 38.3125 L 263.3125 36.023438 "/>
<path style=" stroke:none;fill-rule:nonzero;fill:rgb(13.729858%,12.159729%,12.548828%);fill-opacity:1;" d="M 268.402344 41.113281 L 269.878906 41.113281 L 269.878906 43.226562 C 270.871094 41.597656 272.324219 40.78125 274.257812 40.78125 C 276.089844 40.78125 277.515625 41.46875 278.230469 42.640625 C 278.738281 43.457031 278.765625 44.5 278.765625 45.898438 L 278.765625 54.324219 L 277.234375 54.324219 L 277.234375 46.078125 C 277.234375 43.40625 276.652344 42.132812 273.953125 42.132812 C 271.535156 42.132812 269.929688 43.785156 269.929688 46.535156 L 269.929688 54.324219 L 268.402344 54.324219 L 268.402344 41.113281 "/>
<path style=" stroke:none;fill-rule:nonzero;fill:rgb(13.729858%,12.159729%,12.548828%);fill-opacity:1;" d="M 291.3125 46.765625 C 291.183594 43.835938 289.605469 42.132812 287.238281 42.132812 C 284.871094 42.132812 283.191406 43.863281 283.039062 46.765625 Z M 283.039062 48.089844 C 283.039062 51.398438 284.769531 53.332031 287.316406 53.332031 C 289.375 53.332031 290.878906 52.1875 291.183594 50.253906 L 292.710938 50.253906 C 292.382812 52.925781 290.242188 54.683594 287.214844 54.683594 C 283.648438 54.683594 281.460938 52.160156 281.460938 47.78125 C 281.460938 43.328125 283.675781 40.78125 287.261719 40.78125 C 290.777344 40.78125 292.890625 43.203125 292.890625 47.503906 L 292.890625 48.011719 L 283.039062 48.011719 L 283.039062 48.089844 "/>
<path style=" stroke:none;fill-rule:nonzero;fill:rgb(13.729858%,12.159729%,12.548828%);fill-opacity:1;" d="M 304.800781 46.765625 C 304.675781 43.835938 303.097656 42.132812 300.730469 42.132812 C 298.359375 42.132812 296.679688 43.863281 296.527344 46.765625 Z M 296.527344 48.089844 C 296.527344 51.398438 298.257812 53.332031 300.804688 53.332031 C 302.867188 53.332031 304.367188 52.1875 304.675781 50.253906 L 306.199219 50.253906 C 305.871094 52.925781 303.734375 54.683594 300.703125 54.683594 C 297.140625 54.683594 294.949219 52.160156 294.949219 47.78125 C 294.949219 43.328125 297.164062 40.78125 300.753906 40.78125 C 304.265625 40.78125 306.378906 43.203125 306.378906 47.503906 L 306.378906 48.011719 L 296.527344 48.011719 L 296.527344 48.089844 "/>
<path style=" stroke:none;fill-rule:nonzero;fill:rgb(13.729858%,12.159729%,12.548828%);fill-opacity:1;" d="M 309.101562 41.113281 L 310.578125 41.113281 L 310.578125 43.429688 C 311.367188 41.597656 312.742188 40.78125 314.652344 40.78125 L 314.828125 40.78125 L 314.828125 42.363281 L 314.625 42.363281 C 312.003906 42.363281 310.628906 43.9375 310.628906 46.992188 L 310.628906 54.324219 L 309.101562 54.324219 L 309.101562 41.113281 "/>
<path style=" stroke:none;fill-rule:nonzero;fill:rgb(13.729858%,12.159729%,12.548828%);fill-opacity:1;" d="M 317.066406 41.113281 L 318.59375 41.113281 L 318.59375 54.324219 L 317.066406 54.324219 Z M 317.066406 36.023438 L 318.59375 36.023438 L 318.59375 38.3125 L 317.066406 38.3125 L 317.066406 36.023438 "/>
<path style=" stroke:none;fill-rule:nonzero;fill:rgb(13.729858%,12.159729%,12.548828%);fill-opacity:1;" d="M 322.160156 41.113281 L 323.636719 41.113281 L 323.636719 43.226562 C 324.625 41.597656 326.078125 40.78125 328.011719 40.78125 C 329.84375 40.78125 331.273438 41.46875 331.984375 42.640625 C 332.492188 43.457031 332.519531 44.5 332.519531 45.898438 L 332.519531 54.324219 L 330.992188 54.324219 L 330.992188 46.078125 C 330.992188 43.40625 330.40625 42.132812 327.710938 42.132812 C 325.289062 42.132812 323.6875 43.785156 323.6875 46.535156 L 323.6875 54.324219 L 322.160156 54.324219 L 322.160156 41.113281 "/>
<g clip-path="url(#clip6)" clip-rule="nonzero">
<path style=" stroke:none;fill-rule:nonzero;fill:rgb(13.729858%,12.159729%,12.548828%);fill-opacity:1;" d="M 341.324219 53.332031 C 344.097656 53.332031 345.804688 51.347656 345.804688 47.734375 C 345.804688 44.117188 344.125 42.132812 341.324219 42.132812 C 338.496094 42.132812 336.820312 44.09375 336.820312 47.734375 C 336.820312 51.296875 338.597656 53.332031 341.324219 53.332031 Z M 347.203125 53.636719 C 347.203125 57.683594 345.066406 59.746094 340.941406 59.746094 C 337.8125 59.746094 335.824219 58.222656 335.648438 55.878906 L 337.226562 55.878906 C 337.378906 57.457031 338.675781 58.398438 340.917969 58.398438 C 344.097656 58.398438 345.679688 56.796875 345.679688 53.6875 L 345.679688 52.058594 C 344.636719 53.816406 343.105469 54.683594 341.09375 54.683594 C 337.53125 54.683594 335.238281 52.109375 335.238281 47.734375 C 335.238281 43.378906 337.582031 40.78125 341.09375 40.78125 C 343.132812 40.78125 344.660156 41.648438 345.679688 43.40625 L 345.679688 41.113281 L 347.203125 41.113281 L 347.203125 53.636719 "/>
</g>
</g>
</svg>
