<?xml version="1.0" encoding="UTF-8"?>
<svg xmlns="http://www.w3.org/2000/svg" xmlns:xlink="http://www.w3.org/1999/xlink" width="261.772pt" height="203.055pt" viewBox="0 0 261.772 203.055" version="1.2">
<defs>
<clipPath id="clip1">
  <path d="M 0.5 62 L 245 62 L 245 64 L 0.5 64 Z M 0.5 62 "/>
</clipPath>
<clipPath id="clip2">
  <path d="M 162 193 L 170 193 L 170 202.554688 L 162 202.554688 Z M 162 193 "/>
</clipPath>
<clipPath id="clip3">
  <path d="M 169 190 L 174 190 L 174 202.554688 L 169 202.554688 Z M 169 190 "/>
</clipPath>
<clipPath id="clip4">
  <path d="M 87 193 L 95 193 L 95 202.554688 L 87 202.554688 Z M 87 193 "/>
</clipPath>
<clipPath id="clip5">
  <path d="M 94 190 L 100 190 L 100 202.554688 L 94 202.554688 Z M 94 190 "/>
</clipPath>
<clipPath id="clip6">
  <path d="M 62 0.5 L 167 0.5 L 167 105 L 62 105 Z M 62 0.5 "/>
</clipPath>
<clipPath id="clip7">
  <path d="M 83 0.5 L 188 0.5 L 188 105 L 83 105 Z M 83 0.5 "/>
</clipPath>
<clipPath id="clip8">
  <path d="M 0.5 109 L 90 109 L 90 202.554688 L 0.5 202.554688 Z M 0.5 109 "/>
</clipPath>
<clipPath id="clip9">
  <path d="M 7 109 L 112 109 L 112 202.554688 L 7 202.554688 Z M 7 109 "/>
</clipPath>
<clipPath id="clip10">
  <path d="M 149 108 L 254 108 L 254 202.554688 L 149 202.554688 Z M 149 108 "/>
</clipPath>
<clipPath id="clip11">
  <path d="M 171 108 L 261.277344 108 L 261.277344 202.554688 L 171 202.554688 Z M 171 108 "/>
</clipPath>
<clipPath id="clip12">
  <path d="M 65 109 L 170 109 L 170 202.554688 L 65 202.554688 Z M 65 109 "/>
</clipPath>
<clipPath id="clip13">
  <path d="M 87 109 L 191 109 L 191 202.554688 L 87 202.554688 Z M 87 109 "/>
</clipPath>
<clipPath id="clip14">
  <path d="M 28 0.5 L 30 0.5 L 30 12 L 28 12 Z M 28 0.5 "/>
</clipPath>
</defs>
<g id="surface1">
<g clip-path="url(#clip1)" clip-rule="nonzero">
<path style="fill:none;stroke-width:19.9984;stroke-linecap:butt;stroke-linejoin:miter;stroke:rgb(13.729858%,12.159729%,12.548828%);stroke-opacity:1;stroke-miterlimit:22.9256;" d="M 4.763569 2204.980441 L 3854.221932 2204.980441 " transform="matrix(0.063142,0,0,-0.063142,0.5,202.555)"/>
</g>
<path style=" stroke:none;fill-rule:evenodd;fill:rgb(13.729858%,12.159729%,12.548828%);fill-opacity:1;" d="M 243.34375 60.027344 L 249.34375 63.328125 L 243.34375 66.628906 Z M 243.34375 60.027344 "/>
<path style="fill:none;stroke-width:19.9984;stroke-linecap:butt;stroke-linejoin:miter;stroke:rgb(13.729858%,12.159729%,12.548828%);stroke-opacity:1;stroke-miterlimit:22.9256;" d="M 35.695832 306.419954 L 3885.216061 306.419954 " transform="matrix(0.063142,0,0,-0.063142,0.5,202.555)"/>
<path style=" stroke:none;fill-rule:evenodd;fill:rgb(13.729858%,12.159729%,12.548828%);fill-opacity:1;" d="M 245.296875 179.902344 L 251.300781 183.207031 L 245.296875 186.507812 Z M 245.296875 179.902344 "/>
<path style="fill:none;stroke-width:19.9984;stroke-linecap:butt;stroke-linejoin:miter;stroke:rgb(13.729858%,12.159729%,12.548828%);stroke-opacity:1;stroke-miterlimit:22.9256;" d="M 1972.859784 2970.492105 L 1972.859784 2204.980441 " transform="matrix(0.063142,0,0,-0.063142,0.5,202.555)"/>
<path style=" stroke:none;fill-rule:evenodd;fill:rgb(13.729858%,12.159729%,12.548828%);fill-opacity:1;" d="M 128.371094 15.511719 L 125.070312 9.507812 L 121.769531 15.511719 Z M 128.371094 15.511719 "/>
<path style="fill:none;stroke-width:19.9984;stroke-linecap:butt;stroke-linejoin:miter;stroke:rgb(13.729858%,12.159729%,12.548828%);stroke-opacity:1;stroke-miterlimit:22.9256;" d="M 2003.853913 1071.993483 L 2003.853913 306.419954 " transform="matrix(0.063142,0,0,-0.063142,0.5,202.555)"/>
<path style=" stroke:none;fill-rule:evenodd;fill:rgb(13.729858%,12.159729%,12.548828%);fill-opacity:1;" d="M 130.328125 135.386719 L 127.027344 129.386719 L 123.726562 135.386719 Z M 130.328125 135.386719 "/>
<path style="fill:none;stroke-width:19.9984;stroke-linecap:butt;stroke-linejoin:miter;stroke:rgb(13.729858%,12.159729%,12.548828%);stroke-opacity:1;stroke-miterlimit:22.9256;" d="M 2577.276219 2328.956954 L 2577.276219 2204.980441 " transform="matrix(0.063142,0,0,-0.063142,0.5,202.555)"/>
<path style="fill:none;stroke-width:19.9984;stroke-linecap:butt;stroke-linejoin:miter;stroke:rgb(13.729858%,12.159729%,12.548828%);stroke-opacity:1;stroke-miterlimit:22.9256;" d="M 2608.208482 430.396467 L 2608.208482 306.419954 " transform="matrix(0.063142,0,0,-0.063142,0.5,202.555)"/>
<path style="fill:none;stroke-width:19.9984;stroke-linecap:butt;stroke-linejoin:miter;stroke:rgb(13.729858%,12.159729%,12.548828%);stroke-opacity:1;stroke-miterlimit:22.9256;" d="M 3313.09291 2336.256968 L 3313.09291 2212.280455 " transform="matrix(0.063142,0,0,-0.063142,0.5,202.555)"/>
<path style="fill:none;stroke-width:19.9984;stroke-linecap:butt;stroke-linejoin:miter;stroke:rgb(13.729858%,12.159729%,12.548828%);stroke-opacity:1;stroke-miterlimit:22.9256;" d="M 3344.087038 437.758346 L 3344.087038 313.781833 " transform="matrix(0.063142,0,0,-0.063142,0.5,202.555)"/>
<path style="fill:none;stroke-width:19.9984;stroke-linecap:butt;stroke-linejoin:miter;stroke:rgb(13.729858%,12.159729%,12.548828%);stroke-opacity:1;stroke-miterlimit:22.9256;" d="M 733.34211 2328.523902 L 733.34211 2204.547389 " transform="matrix(0.063142,0,0,-0.063142,0.5,202.555)"/>
<path style="fill:none;stroke-width:19.9984;stroke-linecap:butt;stroke-linejoin:miter;stroke:rgb(13.729858%,12.159729%,12.548828%);stroke-opacity:1;stroke-miterlimit:22.9256;" d="M 764.274374 429.963416 L 764.274374 305.986903 " transform="matrix(0.063142,0,0,-0.063142,0.5,202.555)"/>
<path style="fill:none;stroke-width:19.9984;stroke-linecap:butt;stroke-linejoin:miter;stroke:rgb(13.729858%,12.159729%,12.548828%);stroke-opacity:1;stroke-miterlimit:22.9256;" d="M 1389.229831 2328.956954 L 1389.229831 2204.980441 " transform="matrix(0.063142,0,0,-0.063142,0.5,202.555)"/>
<path style="fill:none;stroke-width:19.9984;stroke-linecap:butt;stroke-linejoin:miter;stroke:rgb(13.729858%,12.159729%,12.548828%);stroke-opacity:1;stroke-miterlimit:22.9256;" d="M 1420.223959 430.396467 L 1420.223959 306.419954 " transform="matrix(0.063142,0,0,-0.063142,0.5,202.555)"/>
<path style=" stroke:none;fill-rule:nonzero;fill:rgb(13.729858%,12.159729%,12.548828%);fill-opacity:1;" d="M 152.085938 81.984375 L 152.085938 71.136719 L 159.40625 71.136719 L 159.40625 72.417969 L 153.523438 72.417969 L 153.523438 75.777344 L 158.613281 75.777344 L 158.613281 77.058594 L 153.523438 77.058594 L 153.523438 81.984375 L 152.085938 81.984375 "/>
<path style=" stroke:none;fill-rule:nonzero;fill:rgb(13.729858%,12.159729%,12.548828%);fill-opacity:1;" d="M 160.570312 79.640625 L 161.882812 79.433594 C 161.957031 79.960938 162.164062 80.363281 162.503906 80.648438 C 162.839844 80.925781 163.3125 81.070312 163.921875 81.070312 C 164.53125 81.070312 164.984375 80.941406 165.28125 80.695312 C 165.578125 80.445312 165.726562 80.152344 165.726562 79.820312 C 165.726562 79.515625 165.59375 79.28125 165.332031 79.105469 C 165.148438 78.988281 164.695312 78.839844 163.972656 78.65625 C 162.996094 78.410156 162.316406 78.199219 161.941406 78.015625 C 161.5625 77.835938 161.277344 77.585938 161.082031 77.269531 C 160.886719 76.949219 160.789062 76.597656 160.789062 76.214844 C 160.789062 75.863281 160.871094 75.539062 161.03125 75.242188 C 161.191406 74.941406 161.410156 74.695312 161.683594 74.496094 C 161.890625 74.347656 162.175781 74.214844 162.53125 74.109375 C 162.890625 74.003906 163.273438 73.949219 163.683594 73.949219 C 164.300781 73.949219 164.839844 74.039062 165.308594 74.21875 C 165.773438 74.394531 166.117188 74.632812 166.339844 74.9375 C 166.5625 75.242188 166.714844 75.648438 166.796875 76.152344 L 165.496094 76.332031 C 165.4375 75.929688 165.265625 75.613281 164.980469 75.386719 C 164.699219 75.160156 164.296875 75.046875 163.777344 75.046875 C 163.167969 75.046875 162.730469 75.144531 162.46875 75.347656 C 162.207031 75.550781 162.078125 75.789062 162.078125 76.058594 C 162.078125 76.234375 162.132812 76.386719 162.242188 76.527344 C 162.347656 76.667969 162.519531 76.785156 162.75 76.882812 C 162.886719 76.929688 163.277344 77.042969 163.929688 77.21875 C 164.871094 77.472656 165.527344 77.675781 165.898438 77.839844 C 166.273438 77.996094 166.566406 78.234375 166.777344 78.539062 C 166.988281 78.84375 167.09375 79.222656 167.09375 79.675781 C 167.09375 80.121094 166.964844 80.539062 166.707031 80.933594 C 166.445312 81.324219 166.070312 81.628906 165.585938 81.84375 C 165.097656 82.058594 164.542969 82.164062 163.929688 82.164062 C 162.90625 82.164062 162.128906 81.949219 161.589844 81.527344 C 161.054688 81.101562 160.714844 80.472656 160.570312 79.640625 "/>
<path style=" stroke:none;fill-rule:nonzero;fill:rgb(13.729858%,12.159729%,12.548828%);fill-opacity:1;" d="M 167.679688 82.171875 L 170.824219 70.953125 L 171.890625 70.953125 L 168.753906 82.171875 L 167.679688 82.171875 "/>
<path style=" stroke:none;fill-rule:nonzero;fill:rgb(13.729858%,12.159729%,12.548828%);fill-opacity:1;" d="M 179.519531 80.707031 L 179.519531 81.984375 L 172.347656 81.984375 C 172.339844 81.664062 172.390625 81.355469 172.503906 81.0625 C 172.683594 80.570312 172.976562 80.089844 173.378906 79.617188 C 173.78125 79.144531 174.363281 78.597656 175.121094 77.976562 C 176.300781 77.007812 177.097656 76.242188 177.511719 75.675781 C 177.929688 75.113281 178.136719 74.578125 178.136719 74.074219 C 178.136719 73.546875 177.945312 73.101562 177.570312 72.738281 C 177.191406 72.378906 176.699219 72.195312 176.089844 72.195312 C 175.449219 72.195312 174.9375 72.386719 174.554688 72.773438 C 174.167969 73.160156 173.972656 73.691406 173.96875 74.371094 L 172.597656 74.230469 C 172.691406 73.210938 173.046875 72.429688 173.65625 71.894531 C 174.269531 71.359375 175.089844 71.09375 176.121094 71.09375 C 177.164062 71.09375 177.984375 71.382812 178.59375 71.960938 C 179.199219 72.539062 179.503906 73.253906 179.503906 74.105469 C 179.503906 74.539062 179.414062 74.96875 179.234375 75.386719 C 179.058594 75.804688 178.765625 76.246094 178.351562 76.710938 C 177.941406 77.175781 177.257812 77.8125 176.296875 78.621094 C 175.5 79.292969 174.988281 79.746094 174.761719 79.984375 C 174.535156 80.222656 174.347656 80.464844 174.199219 80.707031 L 179.519531 80.707031 "/>
<path style=" stroke:none;fill-rule:nonzero;fill:rgb(13.729858%,12.159729%,12.548828%);fill-opacity:1;" d="M 154.042969 201.863281 L 154.042969 191.015625 L 161.363281 191.015625 L 161.363281 192.296875 L 155.480469 192.296875 L 155.480469 195.65625 L 160.570312 195.65625 L 160.570312 196.9375 L 155.480469 196.9375 L 155.480469 201.863281 L 154.042969 201.863281 "/>
<g clip-path="url(#clip2)" clip-rule="nonzero">
<path style=" stroke:none;fill-rule:nonzero;fill:rgb(13.729858%,12.159729%,12.548828%);fill-opacity:1;" d="M 162.523438 199.515625 L 163.839844 199.308594 C 163.914062 199.839844 164.121094 200.242188 164.460938 200.523438 C 164.796875 200.804688 165.265625 200.945312 165.875 200.945312 C 166.488281 200.945312 166.941406 200.820312 167.238281 200.574219 C 167.535156 200.324219 167.683594 200.03125 167.683594 199.695312 C 167.683594 199.394531 167.550781 199.160156 167.289062 198.984375 C 167.105469 198.867188 166.652344 198.714844 165.925781 198.535156 C 164.953125 198.289062 164.273438 198.074219 163.894531 197.894531 C 163.519531 197.714844 163.230469 197.464844 163.035156 197.144531 C 162.84375 196.828125 162.746094 196.476562 162.746094 196.09375 C 162.746094 195.742188 162.824219 195.417969 162.988281 195.121094 C 163.144531 194.820312 163.367188 194.570312 163.640625 194.375 C 163.847656 194.222656 164.128906 194.09375 164.488281 193.984375 C 164.847656 193.878906 165.230469 193.828125 165.640625 193.828125 C 166.253906 193.828125 166.796875 193.917969 167.261719 194.09375 C 167.730469 194.273438 168.074219 194.511719 168.296875 194.816406 C 168.519531 195.121094 168.667969 195.523438 168.753906 196.03125 L 167.453125 196.210938 C 167.390625 195.808594 167.21875 195.492188 166.9375 195.265625 C 166.652344 195.035156 166.253906 194.921875 165.734375 194.921875 C 165.125 194.921875 164.6875 195.023438 164.425781 195.226562 C 164.164062 195.429688 164.03125 195.664062 164.03125 195.9375 C 164.03125 196.109375 164.085938 196.265625 164.195312 196.402344 C 164.304688 196.546875 164.472656 196.664062 164.707031 196.757812 C 164.839844 196.808594 165.230469 196.921875 165.882812 197.097656 C 166.824219 197.351562 167.480469 197.554688 167.851562 197.714844 C 168.226562 197.875 168.519531 198.109375 168.734375 198.417969 C 168.945312 198.722656 169.050781 199.101562 169.050781 199.554688 C 169.050781 200 168.917969 200.417969 168.660156 200.8125 C 168.402344 201.203125 168.027344 201.503906 167.539062 201.71875 C 167.054688 201.933594 166.5 202.039062 165.882812 202.039062 C 164.859375 202.039062 164.082031 201.828125 163.546875 201.402344 C 163.011719 200.980469 162.671875 200.351562 162.523438 199.515625 "/>
</g>
<g clip-path="url(#clip3)" clip-rule="nonzero">
<path style=" stroke:none;fill-rule:nonzero;fill:rgb(13.729858%,12.159729%,12.548828%);fill-opacity:1;" d="M 169.632812 202.046875 L 172.777344 190.832031 L 173.84375 190.832031 L 170.707031 202.046875 L 169.632812 202.046875 "/>
</g>
<path style=" stroke:none;fill-rule:nonzero;fill:rgb(13.729858%,12.159729%,12.548828%);fill-opacity:1;" d="M 181.476562 200.582031 L 181.476562 201.863281 L 174.304688 201.863281 C 174.292969 201.542969 174.34375 201.234375 174.457031 200.9375 C 174.640625 200.449219 174.933594 199.96875 175.335938 199.496094 C 175.738281 199.023438 176.320312 198.472656 177.078125 197.851562 C 178.257812 196.886719 179.054688 196.121094 179.46875 195.554688 C 179.882812 194.992188 180.089844 194.457031 180.089844 193.953125 C 180.089844 193.425781 179.902344 192.980469 179.523438 192.617188 C 179.144531 192.257812 178.652344 192.074219 178.046875 192.074219 C 177.40625 192.074219 176.894531 192.265625 176.507812 192.652344 C 176.121094 193.035156 175.929688 193.570312 175.921875 194.25 L 174.554688 194.109375 C 174.648438 193.085938 175 192.308594 175.613281 191.773438 C 176.222656 191.238281 177.046875 190.96875 178.078125 190.96875 C 179.117188 190.96875 179.941406 191.261719 180.546875 191.835938 C 181.15625 192.414062 181.460938 193.128906 181.460938 193.984375 C 181.460938 194.417969 181.371094 194.84375 181.191406 195.265625 C 181.015625 195.683594 180.71875 196.125 180.308594 196.585938 C 179.898438 197.050781 179.210938 197.6875 178.253906 198.496094 C 177.457031 199.167969 176.945312 199.625 176.714844 199.863281 C 176.488281 200.101562 176.300781 200.339844 176.152344 200.582031 L 181.476562 200.582031 "/>
<path style=" stroke:none;fill-rule:nonzero;fill:rgb(13.729858%,12.159729%,12.548828%);fill-opacity:1;" d="M 71.511719 78.730469 L 71.511719 77.390625 L 75.605469 77.390625 L 75.605469 78.730469 L 71.511719 78.730469 "/>
<path style=" stroke:none;fill-rule:nonzero;fill:rgb(13.729858%,12.159729%,12.548828%);fill-opacity:1;" d="M 77.324219 81.984375 L 77.324219 71.136719 L 84.640625 71.136719 L 84.640625 72.417969 L 78.757812 72.417969 L 78.757812 75.777344 L 83.847656 75.777344 L 83.847656 77.058594 L 78.757812 77.058594 L 78.757812 81.984375 L 77.324219 81.984375 "/>
<path style=" stroke:none;fill-rule:nonzero;fill:rgb(13.729858%,12.159729%,12.548828%);fill-opacity:1;" d="M 85.804688 79.640625 L 87.121094 79.433594 C 87.191406 79.960938 87.398438 80.363281 87.738281 80.648438 C 88.074219 80.925781 88.546875 81.070312 89.15625 81.070312 C 89.765625 81.070312 90.222656 80.941406 90.515625 80.695312 C 90.8125 80.445312 90.960938 80.152344 90.960938 79.820312 C 90.960938 79.515625 90.828125 79.28125 90.566406 79.105469 C 90.386719 78.988281 89.929688 78.839844 89.207031 78.65625 C 88.230469 78.410156 87.550781 78.199219 87.175781 78.015625 C 86.796875 77.835938 86.511719 77.585938 86.316406 77.269531 C 86.121094 76.949219 86.023438 76.597656 86.023438 76.214844 C 86.023438 75.863281 86.105469 75.539062 86.265625 75.242188 C 86.425781 74.941406 86.644531 74.695312 86.921875 74.496094 C 87.128906 74.347656 87.410156 74.214844 87.765625 74.109375 C 88.125 74.003906 88.507812 73.949219 88.917969 73.949219 C 89.535156 73.949219 90.074219 74.039062 90.542969 74.21875 C 91.007812 74.394531 91.351562 74.632812 91.574219 74.9375 C 91.796875 75.242188 91.949219 75.648438 92.03125 76.152344 L 90.730469 76.332031 C 90.671875 75.929688 90.5 75.613281 90.214844 75.386719 C 89.933594 75.160156 89.53125 75.046875 89.015625 75.046875 C 88.402344 75.046875 87.964844 75.144531 87.707031 75.347656 C 87.441406 75.550781 87.3125 75.789062 87.3125 76.058594 C 87.3125 76.234375 87.367188 76.386719 87.476562 76.527344 C 87.585938 76.667969 87.753906 76.785156 87.984375 76.882812 C 88.121094 76.929688 88.511719 77.042969 89.164062 77.21875 C 90.105469 77.472656 90.761719 77.675781 91.132812 77.839844 C 91.507812 77.996094 91.800781 78.234375 92.011719 78.539062 C 92.222656 78.84375 92.328125 79.222656 92.328125 79.675781 C 92.328125 80.121094 92.199219 80.539062 91.941406 80.933594 C 91.679688 81.324219 91.308594 81.628906 90.820312 81.84375 C 90.332031 82.058594 89.777344 82.164062 89.164062 82.164062 C 88.140625 82.164062 87.363281 81.949219 86.828125 81.527344 C 86.292969 81.101562 85.949219 80.472656 85.804688 79.640625 "/>
<path style=" stroke:none;fill-rule:nonzero;fill:rgb(13.729858%,12.159729%,12.548828%);fill-opacity:1;" d="M 92.914062 82.171875 L 96.058594 70.953125 L 97.125 70.953125 L 93.988281 82.171875 L 92.914062 82.171875 "/>
<path style=" stroke:none;fill-rule:nonzero;fill:rgb(13.729858%,12.159729%,12.548828%);fill-opacity:1;" d="M 104.753906 80.707031 L 104.753906 81.984375 L 97.582031 81.984375 C 97.574219 81.664062 97.625 81.355469 97.738281 81.0625 C 97.917969 80.570312 98.210938 80.089844 98.613281 79.617188 C 99.019531 79.144531 99.597656 78.597656 100.355469 77.976562 C 101.535156 77.007812 102.335938 76.242188 102.75 75.675781 C 103.164062 75.113281 103.371094 74.578125 103.371094 74.074219 C 103.371094 73.546875 103.179688 73.101562 102.804688 72.738281 C 102.425781 72.378906 101.933594 72.195312 101.328125 72.195312 C 100.683594 72.195312 100.171875 72.386719 99.789062 72.773438 C 99.402344 73.160156 99.207031 73.691406 99.203125 74.371094 L 97.832031 74.230469 C 97.925781 73.210938 98.28125 72.429688 98.890625 71.894531 C 99.503906 71.359375 100.328125 71.09375 101.355469 71.09375 C 102.398438 71.09375 103.21875 71.382812 103.828125 71.960938 C 104.433594 72.539062 104.738281 73.253906 104.738281 74.105469 C 104.738281 74.539062 104.648438 74.96875 104.472656 75.386719 C 104.292969 75.804688 104 76.246094 103.585938 76.710938 C 103.175781 77.175781 102.492188 77.8125 101.535156 78.621094 C 100.734375 79.292969 100.222656 79.746094 99.996094 79.984375 C 99.769531 80.222656 99.582031 80.464844 99.433594 80.707031 L 104.753906 80.707031 "/>
<path style=" stroke:none;fill-rule:nonzero;fill:rgb(13.729858%,12.159729%,12.548828%);fill-opacity:1;" d="M 73.46875 198.609375 L 73.46875 197.269531 L 77.5625 197.269531 L 77.5625 198.609375 L 73.46875 198.609375 "/>
<path style=" stroke:none;fill-rule:nonzero;fill:rgb(13.729858%,12.159729%,12.548828%);fill-opacity:1;" d="M 79.277344 201.863281 L 79.277344 191.015625 L 86.597656 191.015625 L 86.597656 192.296875 L 80.714844 192.296875 L 80.714844 195.65625 L 85.804688 195.65625 L 85.804688 196.9375 L 80.714844 196.9375 L 80.714844 201.863281 L 79.277344 201.863281 "/>
<g clip-path="url(#clip4)" clip-rule="nonzero">
<path style=" stroke:none;fill-rule:nonzero;fill:rgb(13.729858%,12.159729%,12.548828%);fill-opacity:1;" d="M 87.757812 199.515625 L 89.074219 199.308594 C 89.148438 199.839844 89.355469 200.242188 89.695312 200.523438 C 90.03125 200.804688 90.503906 200.945312 91.109375 200.945312 C 91.722656 200.945312 92.175781 200.820312 92.472656 200.574219 C 92.765625 200.324219 92.917969 200.03125 92.917969 199.695312 C 92.917969 199.394531 92.785156 199.160156 92.523438 198.984375 C 92.339844 198.867188 91.886719 198.714844 91.160156 198.535156 C 90.1875 198.289062 89.507812 198.074219 89.132812 197.894531 C 88.753906 197.714844 88.46875 197.464844 88.273438 197.144531 C 88.078125 196.828125 87.980469 196.476562 87.980469 196.09375 C 87.980469 195.742188 88.058594 195.417969 88.222656 195.121094 C 88.382812 194.820312 88.601562 194.570312 88.875 194.375 C 89.082031 194.222656 89.367188 194.09375 89.722656 193.984375 C 90.082031 193.878906 90.464844 193.828125 90.875 193.828125 C 91.488281 193.828125 92.03125 193.917969 92.496094 194.09375 C 92.964844 194.273438 93.308594 194.511719 93.53125 194.816406 C 93.753906 195.121094 93.902344 195.523438 93.988281 196.03125 L 92.6875 196.210938 C 92.625 195.808594 92.453125 195.492188 92.171875 195.265625 C 91.890625 195.035156 91.488281 194.921875 90.96875 194.921875 C 90.359375 194.921875 89.921875 195.023438 89.660156 195.226562 C 89.398438 195.429688 89.265625 195.664062 89.265625 195.9375 C 89.265625 196.109375 89.324219 196.265625 89.429688 196.402344 C 89.539062 196.546875 89.707031 196.664062 89.941406 196.757812 C 90.074219 196.808594 90.46875 196.921875 91.117188 197.097656 C 92.058594 197.351562 92.71875 197.554688 93.089844 197.714844 C 93.460938 197.875 93.753906 198.109375 93.96875 198.417969 C 94.179688 198.722656 94.285156 199.101562 94.285156 199.554688 C 94.285156 200 94.152344 200.417969 93.898438 200.8125 C 93.636719 201.203125 93.261719 201.503906 92.773438 201.71875 C 92.289062 201.933594 91.734375 202.039062 91.117188 202.039062 C 90.09375 202.039062 89.316406 201.828125 88.78125 201.402344 C 88.246094 200.980469 87.90625 200.351562 87.757812 199.515625 "/>
</g>
<g clip-path="url(#clip5)" clip-rule="nonzero">
<path style=" stroke:none;fill-rule:nonzero;fill:rgb(13.729858%,12.159729%,12.548828%);fill-opacity:1;" d="M 94.867188 202.046875 L 98.015625 190.832031 L 99.078125 190.832031 L 95.941406 202.046875 L 94.867188 202.046875 "/>
</g>
<path style=" stroke:none;fill-rule:nonzero;fill:rgb(13.729858%,12.159729%,12.548828%);fill-opacity:1;" d="M 106.710938 200.582031 L 106.710938 201.863281 L 99.539062 201.863281 C 99.53125 201.542969 99.578125 201.234375 99.695312 200.9375 C 99.875 200.449219 100.167969 199.96875 100.570312 199.496094 C 100.972656 199.023438 101.554688 198.472656 102.3125 197.851562 C 103.492188 196.886719 104.289062 196.121094 104.703125 195.554688 C 105.117188 194.992188 105.324219 194.457031 105.324219 193.953125 C 105.324219 193.425781 105.136719 192.980469 104.761719 192.617188 C 104.382812 192.257812 103.890625 192.074219 103.28125 192.074219 C 102.640625 192.074219 102.128906 192.265625 101.742188 192.652344 C 101.359375 193.035156 101.164062 193.570312 101.160156 194.25 L 99.789062 194.109375 C 99.882812 193.085938 100.234375 192.308594 100.847656 191.773438 C 101.460938 191.238281 102.28125 190.96875 103.3125 190.96875 C 104.351562 190.96875 105.175781 191.261719 105.78125 191.835938 C 106.390625 192.414062 106.695312 193.128906 106.695312 193.984375 C 106.695312 194.417969 106.605469 194.84375 106.425781 195.265625 C 106.25 195.683594 105.953125 196.125 105.542969 196.585938 C 105.128906 197.050781 104.445312 197.6875 103.488281 198.496094 C 102.691406 199.167969 102.179688 199.625 101.949219 199.863281 C 101.722656 200.101562 101.539062 200.339844 101.386719 200.582031 L 106.710938 200.582031 "/>
<path style=" stroke:none;fill-rule:nonzero;fill:rgb(13.729858%,12.159729%,12.548828%);fill-opacity:1;" d="M 130.867188 11.910156 L 135.066406 6.257812 L 131.367188 1.0625 L 133.074219 1.0625 L 135.042969 3.84375 C 135.453125 4.417969 135.742188 4.863281 135.914062 5.175781 C 136.15625 4.78125 136.441406 4.371094 136.773438 3.941406 L 138.957031 1.0625 L 140.519531 1.0625 L 136.707031 6.171875 L 140.8125 11.910156 L 139.039062 11.910156 L 136.308594 8.039062 C 136.15625 7.816406 136 7.574219 135.832031 7.316406 C 135.589844 7.707031 135.417969 7.980469 135.316406 8.128906 L 132.59375 11.910156 L 130.867188 11.910156 "/>
<path style=" stroke:none;fill-rule:nonzero;fill:rgb(13.729858%,12.159729%,12.548828%);fill-opacity:1;" d="M 147.039062 10.9375 C 146.542969 11.359375 146.066406 11.652344 145.613281 11.828125 C 145.15625 12 144.664062 12.085938 144.144531 12.085938 C 143.277344 12.085938 142.617188 11.875 142.152344 11.453125 C 141.691406 11.03125 141.457031 10.492188 141.457031 9.839844 C 141.457031 9.453125 141.542969 9.101562 141.722656 8.78125 C 141.894531 8.464844 142.125 8.207031 142.410156 8.015625 C 142.691406 7.824219 143.011719 7.679688 143.367188 7.582031 C 143.628906 7.511719 144.023438 7.445312 144.550781 7.378906 C 145.625 7.25 146.417969 7.101562 146.925781 6.921875 C 146.933594 6.738281 146.933594 6.621094 146.933594 6.574219 C 146.933594 6.03125 146.808594 5.648438 146.554688 5.429688 C 146.21875 5.125 145.707031 4.976562 145.039062 4.976562 C 144.414062 4.976562 143.949219 5.085938 143.652344 5.304688 C 143.351562 5.523438 143.132812 5.914062 142.988281 6.472656 L 141.6875 6.292969 C 141.808594 5.734375 142 5.285156 142.273438 4.941406 C 142.542969 4.601562 142.9375 4.335938 143.449219 4.148438 C 143.960938 3.964844 144.554688 3.871094 145.230469 3.871094 C 145.902344 3.871094 146.445312 3.953125 146.867188 4.109375 C 147.285156 4.269531 147.59375 4.464844 147.792969 4.707031 C 147.988281 4.945312 148.125 5.246094 148.207031 5.613281 C 148.25 5.839844 148.273438 6.25 148.273438 6.839844 L 148.273438 8.617188 C 148.273438 9.855469 148.300781 10.640625 148.359375 10.964844 C 148.414062 11.292969 148.527344 11.609375 148.695312 11.910156 L 147.300781 11.910156 C 147.167969 11.632812 147.074219 11.308594 147.039062 10.9375 Z M 146.925781 7.964844 C 146.441406 8.164062 145.714844 8.332031 144.75 8.46875 C 144.203125 8.546875 143.816406 8.636719 143.589844 8.734375 C 143.363281 8.832031 143.1875 8.976562 143.066406 9.167969 C 142.941406 9.359375 142.878906 9.566406 142.878906 9.800781 C 142.878906 10.15625 143.015625 10.453125 143.28125 10.6875 C 143.550781 10.925781 143.945312 11.042969 144.460938 11.042969 C 144.972656 11.042969 145.429688 10.933594 145.832031 10.707031 C 146.230469 10.480469 146.523438 10.175781 146.710938 9.785156 C 146.855469 9.484375 146.925781 9.039062 146.925781 8.453125 L 146.925781 7.964844 "/>
<path style=" stroke:none;fill-rule:nonzero;fill:rgb(13.729858%,12.159729%,12.548828%);fill-opacity:1;" d="M 132.824219 131.785156 L 137.023438 126.132812 L 133.320312 120.9375 L 135.027344 120.9375 L 137 123.722656 C 137.410156 124.296875 137.699219 124.742188 137.871094 125.054688 C 138.113281 124.660156 138.398438 124.246094 138.730469 123.816406 L 140.914062 120.9375 L 142.476562 120.9375 L 138.664062 126.050781 L 142.769531 131.785156 L 140.996094 131.785156 L 138.265625 127.917969 C 138.109375 127.695312 137.953125 127.453125 137.789062 127.191406 C 137.546875 127.585938 137.375 127.855469 137.273438 128.003906 L 134.550781 131.785156 L 132.824219 131.785156 "/>
<path style=" stroke:none;fill-rule:nonzero;fill:rgb(13.729858%,12.159729%,12.548828%);fill-opacity:1;" d="M 251.5625 78.003906 L 251.5625 67.15625 L 258.882812 67.15625 L 258.882812 68.4375 L 253 68.4375 L 253 71.796875 L 258.089844 71.796875 L 258.089844 73.078125 L 253 73.078125 L 253 78.003906 L 251.5625 78.003906 "/>
<path style=" stroke:none;fill-rule:nonzero;fill:rgb(13.729858%,12.159729%,12.548828%);fill-opacity:1;" d="M 253.519531 197.882812 L 253.519531 187.035156 L 260.839844 187.035156 L 260.839844 188.316406 L 254.957031 188.316406 L 254.957031 191.675781 L 260.046875 191.675781 L 260.046875 192.957031 L 254.957031 192.957031 L 254.957031 197.882812 L 253.519531 197.882812 "/>
<g clip-path="url(#clip6)" clip-rule="nonzero">
<path style="fill:none;stroke-width:19.9984;stroke-linecap:butt;stroke-linejoin:miter;stroke:rgb(13.729858%,12.159729%,12.548828%);stroke-opacity:1;stroke-dasharray:19.9984,19.9984;stroke-miterlimit:22.9256;" d="M 1624.253171 2204.980441 C 1655.680351 2412.721525 1626.41843 2493.392868 1779.161948 2646.136387 C 1810.650993 2677.625432 1912.232547 2715.85771 1972.859784 2715.85771 " transform="matrix(0.063142,0,0,-0.063142,0.5,202.555)"/>
</g>
<g clip-path="url(#clip7)" clip-rule="nonzero">
<path style="fill:none;stroke-width:19.9984;stroke-linecap:butt;stroke-linejoin:miter;stroke:rgb(13.729858%,12.159729%,12.548828%);stroke-opacity:1;stroke-dasharray:19.9984,19.9984;stroke-miterlimit:22.9256;" d="M 2319.363003 2204.980441 C 2287.935823 2412.721525 2317.197745 2493.392868 2164.392362 2646.136387 C 2132.903317 2677.625432 2031.383627 2715.85771 1970.75639 2715.85771 " transform="matrix(0.063142,0,0,-0.063142,0.5,202.555)"/>
</g>
<g clip-path="url(#clip8)" clip-rule="nonzero">
<path style="fill:none;stroke-width:19.9984;stroke-linecap:butt;stroke-linejoin:miter;stroke:rgb(13.729858%,12.159729%,12.548828%);stroke-opacity:1;stroke-dasharray:19.9984,19.9984;stroke-miterlimit:22.9256;" d="M 409.91436 316.070821 C 441.34154 523.811904 412.079618 604.421384 564.885001 757.226767 C 596.374046 788.715811 697.893736 826.948089 758.520973 826.948089 " transform="matrix(0.063142,0,0,-0.063142,0.5,202.555)"/>
</g>
<g clip-path="url(#clip9)" clip-rule="nonzero">
<path style="fill:none;stroke-width:19.9984;stroke-linecap:butt;stroke-linejoin:miter;stroke:rgb(13.729858%,12.159729%,12.548828%);stroke-opacity:1;stroke-dasharray:19.9984,19.9984;stroke-miterlimit:22.9256;" d="M 1105.024192 316.070821 C 1073.658876 523.811904 1102.858933 604.421384 950.115414 757.226767 C 918.62637 788.715811 817.044816 826.948089 756.417579 826.948089 " transform="matrix(0.063142,0,0,-0.063142,0.5,202.555)"/>
</g>
<g clip-path="url(#clip10)" clip-rule="nonzero">
<path style="fill:none;stroke-width:19.9984;stroke-linecap:butt;stroke-linejoin:miter;stroke:rgb(13.729858%,12.159729%,12.548828%);stroke-opacity:1;stroke-dasharray:19.9984,19.9984;stroke-miterlimit:22.9256;" d="M 3006.987227 325.597958 C 3038.414407 533.339041 3009.152486 614.010385 3161.957869 766.753904 C 3193.446913 798.304813 3294.966603 836.475226 3355.655705 836.475226 " transform="matrix(0.063142,0,0,-0.063142,0.5,202.555)"/>
</g>
<g clip-path="url(#clip11)" clip-rule="nonzero">
<path style="fill:none;stroke-width:19.9984;stroke-linecap:butt;stroke-linejoin:miter;stroke:rgb(13.729858%,12.159729%,12.548828%);stroke-opacity:1;stroke-dasharray:19.9984,19.9984;stroke-miterlimit:22.9256;" d="M 3702.158924 325.597958 C 3670.731744 533.339041 3699.993665 614.010385 3547.188282 766.753904 C 3515.699237 798.304813 3414.179548 836.475226 3353.490446 836.475226 " transform="matrix(0.063142,0,0,-0.063142,0.5,202.555)"/>
</g>
<g clip-path="url(#clip12)" clip-rule="nonzero">
<path style="fill:none;stroke-width:19.9984;stroke-linecap:butt;stroke-linejoin:miter;stroke:rgb(13.729858%,12.159729%,12.548828%);stroke-opacity:1;stroke-dasharray:19.9984,19.9984;stroke-miterlimit:22.9256;" d="M 1672.507503 316.008956 C 1703.934683 523.75004 1674.672761 604.421384 1827.478144 757.164902 C 1858.967189 788.653947 1960.486879 826.886225 2021.17598 826.886225 " transform="matrix(0.063142,0,0,-0.063142,0.5,202.555)"/>
</g>
<g clip-path="url(#clip13)" clip-rule="nonzero">
<path style="fill:none;stroke-width:19.9984;stroke-linecap:butt;stroke-linejoin:miter;stroke:rgb(13.729858%,12.159729%,12.548828%);stroke-opacity:1;stroke-dasharray:19.9984,19.9984;stroke-miterlimit:22.9256;" d="M 2367.679199 316.008956 C 2336.252019 523.75004 2365.513941 604.421384 2212.708558 757.164902 C 2181.219513 788.653947 2079.699823 826.886225 2019.010722 826.886225 " transform="matrix(0.063142,0,0,-0.063142,0.5,202.555)"/>
</g>
<path style=" stroke:none;fill-rule:nonzero;fill:rgb(13.729858%,12.159729%,12.548828%);fill-opacity:1;" d="M 7.929688 10.53125 C 7.433594 10.953125 6.957031 11.246094 6.503906 11.421875 C 6.046875 11.59375 5.554688 11.679688 5.03125 11.679688 C 4.167969 11.679688 3.507812 11.46875 3.042969 11.046875 C 2.582031 10.625 2.347656 10.085938 2.347656 9.433594 C 2.347656 9.046875 2.433594 8.695312 2.609375 8.375 C 2.785156 8.058594 3.015625 7.800781 3.296875 7.609375 C 3.582031 7.417969 3.902344 7.273438 4.257812 7.171875 C 4.519531 7.105469 4.910156 7.035156 5.441406 6.972656 C 6.515625 6.84375 7.308594 6.695312 7.816406 6.515625 C 7.820312 6.332031 7.824219 6.214844 7.824219 6.167969 C 7.824219 5.625 7.699219 5.242188 7.445312 5.023438 C 7.105469 4.71875 6.597656 4.570312 5.929688 4.570312 C 5.304688 4.570312 4.839844 4.679688 4.539062 4.898438 C 4.242188 5.117188 4.023438 5.507812 3.878906 6.066406 L 2.578125 5.886719 C 2.695312 5.328125 2.890625 4.878906 3.160156 4.535156 C 3.433594 4.191406 3.824219 3.929688 4.339844 3.742188 C 4.851562 3.558594 5.445312 3.464844 6.121094 3.464844 C 6.792969 3.464844 7.335938 3.546875 7.757812 3.703125 C 8.175781 3.863281 8.484375 4.058594 8.683594 4.300781 C 8.878906 4.539062 9.015625 4.839844 9.097656 5.207031 C 9.140625 5.433594 9.164062 5.84375 9.164062 6.433594 L 9.164062 8.210938 C 9.164062 9.449219 9.191406 10.230469 9.25 10.558594 C 9.304688 10.886719 9.417969 11.203125 9.585938 11.503906 L 8.191406 11.503906 C 8.054688 11.226562 7.964844 10.90625 7.929688 10.53125 Z M 7.816406 7.558594 C 7.332031 7.757812 6.605469 7.921875 5.640625 8.0625 C 5.09375 8.140625 4.703125 8.230469 4.480469 8.328125 C 4.253906 8.425781 4.074219 8.570312 3.953125 8.761719 C 3.832031 8.953125 3.769531 9.160156 3.769531 9.394531 C 3.769531 9.75 3.902344 10.046875 4.171875 10.28125 C 4.441406 10.519531 4.832031 10.636719 5.351562 10.636719 C 5.863281 10.636719 6.320312 10.527344 6.71875 10.300781 C 7.121094 10.074219 7.414062 9.769531 7.601562 9.378906 C 7.746094 9.078125 7.816406 8.632812 7.816406 8.046875 L 7.816406 7.558594 "/>
<path style=" stroke:none;fill-rule:nonzero;fill:rgb(13.729858%,12.159729%,12.548828%);fill-opacity:1;" d="M 11.230469 11.503906 L 11.230469 3.644531 L 12.425781 3.644531 L 12.425781 4.761719 C 13.003906 3.898438 13.835938 3.464844 14.925781 3.464844 C 15.402344 3.464844 15.835938 3.550781 16.230469 3.722656 C 16.632812 3.894531 16.925781 4.117188 17.125 4.394531 C 17.324219 4.667969 17.460938 4.996094 17.539062 5.375 C 17.589844 5.621094 17.613281 6.054688 17.613281 6.671875 L 17.613281 11.503906 L 16.28125 11.503906 L 16.28125 6.722656 C 16.28125 6.179688 16.230469 5.773438 16.125 5.503906 C 16.023438 5.234375 15.839844 5.023438 15.574219 4.863281 C 15.308594 4.703125 15.003906 4.621094 14.644531 4.621094 C 14.078125 4.621094 13.589844 4.800781 13.175781 5.160156 C 12.765625 5.523438 12.558594 6.203125 12.558594 7.210938 L 12.558594 11.503906 L 11.230469 11.503906 "/>
<path style=" stroke:none;fill-rule:nonzero;fill:rgb(13.729858%,12.159729%,12.548828%);fill-opacity:1;" d="M 24.785156 10.53125 C 24.289062 10.953125 23.8125 11.246094 23.359375 11.421875 C 22.902344 11.59375 22.414062 11.679688 21.890625 11.679688 C 21.027344 11.679688 20.363281 11.46875 19.898438 11.046875 C 19.4375 10.625 19.203125 10.085938 19.203125 9.433594 C 19.203125 9.046875 19.289062 8.695312 19.46875 8.375 C 19.640625 8.058594 19.871094 7.800781 20.15625 7.609375 C 20.441406 7.417969 20.757812 7.273438 21.113281 7.171875 C 21.375 7.105469 21.769531 7.035156 22.296875 6.972656 C 23.371094 6.84375 24.164062 6.695312 24.671875 6.515625 C 24.679688 6.332031 24.679688 6.214844 24.679688 6.167969 C 24.679688 5.625 24.554688 5.242188 24.300781 5.023438 C 23.964844 4.71875 23.457031 4.570312 22.785156 4.570312 C 22.160156 4.570312 21.699219 4.679688 21.398438 4.898438 C 21.097656 5.117188 20.878906 5.507812 20.734375 6.066406 L 19.433594 5.886719 C 19.554688 5.328125 19.746094 4.878906 20.019531 4.535156 C 20.289062 4.191406 20.683594 3.929688 21.195312 3.742188 C 21.707031 3.558594 22.300781 3.464844 22.976562 3.464844 C 23.648438 3.464844 24.191406 3.546875 24.613281 3.703125 C 25.03125 3.863281 25.339844 4.058594 25.539062 4.300781 C 25.738281 4.539062 25.871094 4.839844 25.953125 5.207031 C 25.996094 5.433594 26.019531 5.84375 26.019531 6.433594 L 26.019531 8.210938 C 26.019531 9.449219 26.046875 10.230469 26.105469 10.558594 C 26.160156 10.886719 26.273438 11.203125 26.441406 11.503906 L 25.050781 11.503906 C 24.914062 11.226562 24.820312 10.90625 24.785156 10.53125 Z M 24.671875 7.558594 C 24.1875 7.757812 23.464844 7.921875 22.5 8.0625 C 21.949219 8.140625 21.5625 8.230469 21.335938 8.328125 C 21.109375 8.425781 20.933594 8.570312 20.8125 8.761719 C 20.6875 8.953125 20.625 9.160156 20.625 9.394531 C 20.625 9.75 20.761719 10.046875 21.027344 10.28125 C 21.296875 10.519531 21.691406 10.636719 22.207031 10.636719 C 22.722656 10.636719 23.179688 10.527344 23.578125 10.300781 C 23.976562 10.074219 24.273438 9.769531 24.457031 9.378906 C 24.601562 9.078125 24.671875 8.632812 24.671875 8.046875 L 24.671875 7.558594 "/>
<g clip-path="url(#clip14)" clip-rule="nonzero">
<path style=" stroke:none;fill-rule:nonzero;fill:rgb(13.729858%,12.159729%,12.548828%);fill-opacity:1;" d="M 28.054688 11.503906 L 28.054688 0.65625 L 29.386719 0.65625 L 29.386719 11.503906 L 28.054688 11.503906 "/>
</g>
<path style=" stroke:none;fill-rule:nonzero;fill:rgb(13.729858%,12.159729%,12.548828%);fill-opacity:1;" d="M 30.953125 7.574219 C 30.953125 6.117188 31.359375 5.039062 32.167969 4.339844 C 32.84375 3.757812 33.667969 3.464844 34.640625 3.464844 C 35.71875 3.464844 36.605469 3.820312 37.289062 4.527344 C 37.976562 5.234375 38.316406 6.214844 38.316406 7.460938 C 38.316406 8.476562 38.164062 9.269531 37.863281 9.847656 C 37.558594 10.429688 37.117188 10.878906 36.539062 11.199219 C 35.957031 11.519531 35.328125 11.679688 34.640625 11.679688 C 33.539062 11.679688 32.652344 11.328125 31.972656 10.621094 C 31.292969 9.917969 30.953125 8.902344 30.953125 7.574219 Z M 32.324219 7.574219 C 32.324219 8.582031 32.542969 9.332031 32.980469 9.832031 C 33.421875 10.335938 33.976562 10.585938 34.640625 10.585938 C 35.300781 10.585938 35.851562 10.332031 36.292969 9.832031 C 36.726562 9.328125 36.949219 8.558594 36.949219 7.53125 C 36.949219 6.558594 36.726562 5.820312 36.285156 5.320312 C 35.84375 4.820312 35.296875 4.570312 34.640625 4.570312 C 33.976562 4.570312 33.421875 4.820312 32.980469 5.316406 C 32.542969 5.816406 32.324219 6.566406 32.324219 7.574219 "/>
<path style=" stroke:none;fill-rule:nonzero;fill:rgb(13.729858%,12.159729%,12.548828%);fill-opacity:1;" d="M 39.636719 12.15625 L 40.929688 12.347656 C 40.984375 12.746094 41.136719 13.035156 41.378906 13.21875 C 41.710938 13.464844 42.164062 13.589844 42.734375 13.589844 C 43.351562 13.589844 43.828125 13.464844 44.164062 13.21875 C 44.5 12.972656 44.722656 12.625 44.84375 12.183594 C 44.914062 11.914062 44.945312 11.34375 44.9375 10.472656 C 44.359375 11.160156 43.632812 11.503906 42.765625 11.503906 C 41.683594 11.503906 40.847656 11.113281 40.257812 10.332031 C 39.664062 9.554688 39.367188 8.617188 39.367188 7.53125 C 39.367188 6.78125 39.503906 6.085938 39.773438 5.453125 C 40.046875 4.820312 40.441406 4.328125 40.957031 3.984375 C 41.472656 3.640625 42.078125 3.464844 42.773438 3.464844 C 43.699219 3.464844 44.464844 3.84375 45.066406 4.59375 L 45.066406 3.644531 L 46.296875 3.644531 L 46.296875 10.4375 C 46.296875 11.660156 46.167969 12.527344 45.921875 13.039062 C 45.671875 13.546875 45.277344 13.953125 44.738281 14.25 C 44.195312 14.542969 43.53125 14.691406 42.742188 14.691406 C 41.804688 14.691406 41.046875 14.480469 40.472656 14.058594 C 39.894531 13.636719 39.613281 13.003906 39.636719 12.15625 Z M 40.738281 7.433594 C 40.738281 8.464844 40.941406 9.214844 41.351562 9.6875 C 41.761719 10.164062 42.273438 10.398438 42.890625 10.398438 C 43.5 10.398438 44.015625 10.164062 44.429688 9.695312 C 44.84375 9.222656 45.050781 8.484375 45.050781 7.476562 C 45.050781 6.515625 44.839844 5.789062 44.410156 5.300781 C 43.984375 4.816406 43.46875 4.570312 42.867188 4.570312 C 42.277344 4.570312 41.773438 4.808594 41.359375 5.292969 C 40.945312 5.773438 40.738281 6.488281 40.738281 7.433594 "/>
<path style=" stroke:none;fill-rule:nonzero;fill:rgb(13.729858%,12.159729%,12.548828%);fill-opacity:1;" d="M 53.457031 11.503906 L 53.457031 10.347656 C 52.84375 11.238281 52.011719 11.679688 50.964844 11.679688 C 50.5 11.679688 50.066406 11.589844 49.664062 11.414062 C 49.261719 11.238281 48.964844 11.011719 48.769531 10.746094 C 48.574219 10.472656 48.4375 10.148438 48.359375 9.757812 C 48.304688 9.496094 48.277344 9.082031 48.277344 8.511719 L 48.277344 3.644531 L 49.609375 3.644531 L 49.609375 8 C 49.609375 8.699219 49.636719 9.167969 49.691406 9.410156 C 49.777344 9.757812 49.953125 10.03125 50.222656 10.234375 C 50.496094 10.433594 50.832031 10.53125 51.230469 10.53125 C 51.628906 10.53125 52.003906 10.433594 52.355469 10.226562 C 52.707031 10.023438 52.953125 9.742188 53.097656 9.390625 C 53.242188 9.039062 53.316406 8.523438 53.316406 7.855469 L 53.316406 3.644531 L 54.648438 3.644531 L 54.648438 11.503906 L 53.457031 11.503906 "/>
<path style=" stroke:none;fill-rule:nonzero;fill:rgb(13.729858%,12.159729%,12.548828%);fill-opacity:1;" d="M 62.113281 8.972656 L 63.492188 9.140625 C 63.273438 9.949219 62.871094 10.570312 62.285156 11.015625 C 61.695312 11.457031 60.945312 11.679688 60.035156 11.679688 C 58.886719 11.679688 57.972656 11.328125 57.300781 10.617188 C 56.628906 9.910156 56.292969 8.917969 56.292969 7.640625 C 56.292969 6.316406 56.632812 5.292969 57.3125 4.5625 C 57.996094 3.832031 58.875 3.464844 59.960938 3.464844 C 61.011719 3.464844 61.871094 3.824219 62.535156 4.539062 C 63.203125 5.253906 63.535156 6.261719 63.535156 7.558594 C 63.535156 7.640625 63.535156 7.757812 63.527344 7.914062 L 57.667969 7.914062 C 57.714844 8.777344 57.960938 9.441406 58.402344 9.894531 C 58.839844 10.355469 59.386719 10.585938 60.042969 10.585938 C 60.53125 10.585938 60.945312 10.457031 61.292969 10.199219 C 61.640625 9.945312 61.910156 9.535156 62.113281 8.972656 Z M 57.742188 6.816406 L 62.128906 6.816406 C 62.070312 6.160156 61.902344 5.660156 61.625 5.332031 C 61.203125 4.820312 60.652344 4.5625 59.976562 4.5625 C 59.367188 4.5625 58.851562 4.765625 58.433594 5.175781 C 58.015625 5.585938 57.789062 6.132812 57.742188 6.816406 "/>
<path style=" stroke:none;fill-rule:nonzero;fill:rgb(13.729858%,12.159729%,12.548828%);fill-opacity:1;" d="M 4.222656 129.035156 L 5.539062 128.828125 C 5.613281 129.355469 5.820312 129.757812 6.15625 130.042969 C 6.492188 130.324219 6.964844 130.464844 7.574219 130.464844 C 8.1875 130.464844 8.640625 130.335938 8.9375 130.089844 C 9.230469 129.839844 9.382812 129.546875 9.382812 129.214844 C 9.382812 128.910156 9.25 128.675781 8.988281 128.5 C 8.804688 128.382812 8.351562 128.234375 7.625 128.050781 C 6.652344 127.804688 5.972656 127.59375 5.59375 127.410156 C 5.21875 127.230469 4.929688 126.980469 4.734375 126.664062 C 4.542969 126.34375 4.441406 125.992188 4.441406 125.609375 C 4.441406 125.257812 4.523438 124.933594 4.6875 124.636719 C 4.84375 124.335938 5.066406 124.089844 5.339844 123.890625 C 5.546875 123.742188 5.828125 123.609375 6.1875 123.503906 C 6.542969 123.398438 6.929688 123.34375 7.335938 123.34375 C 7.953125 123.34375 8.496094 123.433594 8.960938 123.613281 C 9.429688 123.789062 9.773438 124.027344 9.996094 124.332031 C 10.214844 124.636719 10.367188 125.042969 10.453125 125.550781 L 9.152344 125.726562 C 9.089844 125.324219 8.917969 125.007812 8.636719 124.78125 C 8.351562 124.554688 7.953125 124.441406 7.433594 124.441406 C 6.824219 124.441406 6.386719 124.542969 6.125 124.742188 C 5.863281 124.945312 5.730469 125.183594 5.730469 125.453125 C 5.730469 125.628906 5.785156 125.78125 5.894531 125.921875 C 6.003906 126.0625 6.171875 126.179688 6.40625 126.277344 C 6.539062 126.324219 6.929688 126.4375 7.582031 126.613281 C 8.523438 126.867188 9.179688 127.070312 9.550781 127.234375 C 9.925781 127.394531 10.21875 127.628906 10.429688 127.933594 C 10.644531 128.238281 10.75 128.617188 10.75 129.070312 C 10.75 129.515625 10.617188 129.933594 10.359375 130.328125 C 10.101562 130.71875 9.726562 131.023438 9.238281 131.238281 C 8.753906 131.453125 8.199219 131.558594 7.582031 131.558594 C 6.558594 131.558594 5.78125 131.34375 5.246094 130.921875 C 4.710938 130.496094 4.371094 129.867188 4.222656 129.035156 "/>
<path style=" stroke:none;fill-rule:nonzero;fill:rgb(13.729858%,12.159729%,12.548828%);fill-opacity:1;" d="M 17.460938 130.410156 C 16.964844 130.832031 16.492188 131.125 16.035156 131.300781 C 15.578125 131.472656 15.089844 131.558594 14.566406 131.558594 C 13.703125 131.558594 13.039062 131.347656 12.574219 130.925781 C 12.113281 130.503906 11.882812 129.964844 11.882812 129.308594 C 11.882812 128.921875 11.96875 128.570312 12.144531 128.253906 C 12.316406 127.9375 12.546875 127.679688 12.832031 127.488281 C 13.117188 127.296875 13.433594 127.148438 13.789062 127.050781 C 14.050781 126.984375 14.445312 126.914062 14.972656 126.851562 C 16.050781 126.722656 16.839844 126.570312 17.347656 126.390625 C 17.355469 126.210938 17.355469 126.09375 17.355469 126.046875 C 17.355469 125.503906 17.230469 125.121094 16.976562 124.898438 C 16.640625 124.597656 16.132812 124.449219 15.464844 124.449219 C 14.835938 124.449219 14.375 124.554688 14.074219 124.777344 C 13.777344 124.996094 13.554688 125.382812 13.410156 125.941406 L 12.109375 125.761719 C 12.230469 125.207031 12.425781 124.753906 12.695312 124.414062 C 12.964844 124.070312 13.359375 123.804688 13.871094 123.621094 C 14.382812 123.4375 14.976562 123.34375 15.65625 123.34375 C 16.328125 123.34375 16.871094 123.425781 17.289062 123.582031 C 17.707031 123.742188 18.015625 123.9375 18.214844 124.175781 C 18.414062 124.417969 18.550781 124.71875 18.628906 125.085938 C 18.671875 125.3125 18.695312 125.71875 18.695312 126.3125 L 18.695312 128.085938 C 18.695312 129.328125 18.722656 130.109375 18.78125 130.4375 C 18.835938 130.765625 18.949219 131.082031 19.117188 131.378906 L 17.726562 131.378906 C 17.589844 131.105469 17.5 130.78125 17.460938 130.410156 Z M 17.347656 127.4375 C 16.863281 127.636719 16.140625 127.800781 15.175781 127.941406 C 14.625 128.019531 14.238281 128.109375 14.011719 128.207031 C 13.785156 128.304688 13.609375 128.449219 13.488281 128.640625 C 13.363281 128.828125 13.300781 129.039062 13.300781 129.273438 C 13.300781 129.628906 13.4375 129.921875 13.703125 130.160156 C 13.972656 130.394531 14.367188 130.515625 14.882812 130.515625 C 15.398438 130.515625 15.855469 130.402344 16.253906 130.179688 C 16.652344 129.953125 16.949219 129.644531 17.132812 129.257812 C 17.277344 128.957031 17.347656 128.511719 17.347656 127.925781 L 17.347656 127.4375 "/>
<path style=" stroke:none;fill-rule:nonzero;fill:rgb(13.729858%,12.159729%,12.548828%);fill-opacity:1;" d="M 20.761719 131.378906 L 20.761719 123.523438 L 21.953125 123.523438 L 21.953125 124.625 C 22.199219 124.242188 22.527344 123.929688 22.9375 123.699219 C 23.34375 123.460938 23.8125 123.34375 24.335938 123.34375 C 24.917969 123.34375 25.394531 123.464844 25.765625 123.707031 C 26.140625 123.949219 26.402344 124.285156 26.554688 124.71875 C 27.175781 123.804688 27.984375 123.34375 28.980469 123.34375 C 29.761719 123.34375 30.359375 123.5625 30.777344 123.992188 C 31.199219 124.425781 31.40625 125.089844 31.40625 125.984375 L 31.40625 131.378906 L 30.085938 131.378906 L 30.085938 126.429688 C 30.085938 125.898438 30.042969 125.511719 29.957031 125.277344 C 29.867188 125.046875 29.710938 124.855469 29.484375 124.714844 C 29.257812 124.570312 28.992188 124.5 28.683594 124.5 C 28.132812 124.5 27.675781 124.683594 27.308594 125.050781 C 26.945312 125.417969 26.761719 126.007812 26.761719 126.8125 L 26.761719 131.378906 L 25.429688 131.378906 L 25.429688 126.277344 C 25.429688 125.683594 25.320312 125.238281 25.101562 124.941406 C 24.886719 124.648438 24.53125 124.5 24.039062 124.5 C 23.664062 124.5 23.316406 124.597656 23 124.796875 C 22.679688 124.992188 22.449219 125.28125 22.308594 125.660156 C 22.164062 126.042969 22.09375 126.589844 22.09375 127.304688 L 22.09375 131.378906 L 20.761719 131.378906 "/>
<path style=" stroke:none;fill-rule:nonzero;fill:rgb(13.729858%,12.159729%,12.548828%);fill-opacity:1;" d="M 33.386719 134.390625 L 33.386719 123.523438 L 34.597656 123.523438 L 34.597656 124.542969 C 34.882812 124.144531 35.207031 123.84375 35.566406 123.644531 C 35.925781 123.445312 36.363281 123.34375 36.875 123.34375 C 37.546875 123.34375 38.136719 123.519531 38.652344 123.863281 C 39.167969 124.207031 39.554688 124.695312 39.8125 125.324219 C 40.074219 125.953125 40.207031 126.640625 40.207031 127.394531 C 40.207031 128.195312 40.0625 128.921875 39.773438 129.566406 C 39.484375 130.207031 39.066406 130.703125 38.515625 131.042969 C 37.964844 131.386719 37.386719 131.558594 36.78125 131.558594 C 36.335938 131.558594 35.9375 131.464844 35.585938 131.277344 C 35.230469 131.089844 34.945312 130.851562 34.714844 130.566406 L 34.714844 134.390625 Z M 34.589844 127.496094 C 34.589844 128.507812 34.792969 129.253906 35.203125 129.738281 C 35.613281 130.222656 36.109375 130.464844 36.691406 130.464844 C 37.28125 130.464844 37.789062 130.214844 38.210938 129.710938 C 38.632812 129.210938 38.84375 128.4375 38.84375 127.386719 C 38.84375 126.382812 38.636719 125.636719 38.226562 125.132812 C 37.816406 124.636719 37.324219 124.386719 36.75 124.386719 C 36.183594 124.386719 35.679688 124.652344 35.242188 125.183594 C 34.808594 125.714844 34.589844 126.484375 34.589844 127.496094 "/>
<path style=" stroke:none;fill-rule:nonzero;fill:rgb(13.729858%,12.159729%,12.548828%);fill-opacity:1;" d="M 41.785156 131.378906 L 41.785156 120.53125 L 43.113281 120.53125 L 43.113281 131.378906 L 41.785156 131.378906 "/>
<path style=" stroke:none;fill-rule:nonzero;fill:rgb(13.729858%,12.159729%,12.548828%);fill-opacity:1;" d="M 50.558594 128.851562 L 51.933594 129.019531 C 51.71875 129.824219 51.316406 130.449219 50.730469 130.894531 C 50.140625 131.335938 49.390625 131.558594 48.480469 131.558594 C 47.328125 131.558594 46.417969 131.203125 45.746094 130.496094 C 45.070312 129.789062 44.734375 128.796875 44.734375 127.519531 C 44.734375 126.195312 45.078125 125.171875 45.757812 124.441406 C 46.4375 123.710938 47.320312 123.34375 48.40625 123.34375 C 49.457031 123.34375 50.316406 123.703125 50.980469 124.417969 C 51.644531 125.132812 51.980469 126.140625 51.980469 127.4375 C 51.980469 127.515625 51.976562 127.636719 51.972656 127.792969 L 46.113281 127.792969 C 46.160156 128.65625 46.40625 129.316406 46.84375 129.773438 C 47.285156 130.234375 47.828125 130.464844 48.488281 130.464844 C 48.972656 130.464844 49.390625 130.335938 49.738281 130.078125 C 50.082031 129.824219 50.355469 129.414062 50.558594 128.851562 Z M 46.183594 126.695312 L 50.574219 126.695312 C 50.515625 126.035156 50.34375 125.539062 50.070312 125.210938 C 49.644531 124.699219 49.09375 124.441406 48.421875 124.441406 C 47.808594 124.441406 47.292969 124.644531 46.878906 125.054688 C 46.460938 125.464844 46.230469 126.011719 46.183594 126.695312 "/>
<path style=" stroke:none;fill-rule:nonzero;fill:rgb(13.729858%,12.159729%,12.548828%);fill-opacity:1;" d="M 58.707031 131.378906 L 58.707031 130.386719 C 58.207031 131.167969 57.476562 131.558594 56.507812 131.558594 C 55.882812 131.558594 55.304688 131.386719 54.78125 131.039062 C 54.253906 130.695312 53.847656 130.214844 53.558594 129.59375 C 53.269531 128.972656 53.125 128.265625 53.125 127.457031 C 53.125 126.675781 53.257812 125.964844 53.515625 125.324219 C 53.78125 124.683594 54.171875 124.195312 54.695312 123.855469 C 55.21875 123.515625 55.804688 123.34375 56.449219 123.34375 C 56.921875 123.34375 57.34375 123.445312 57.710938 123.644531 C 58.082031 123.84375 58.382812 124.105469 58.617188 124.425781 L 58.617188 120.53125 L 59.941406 120.53125 L 59.941406 131.378906 Z M 54.496094 127.457031 C 54.496094 128.464844 54.707031 129.21875 55.132812 129.714844 C 55.554688 130.214844 56.054688 130.464844 56.632812 130.464844 C 57.214844 130.464844 57.710938 130.222656 58.117188 129.75 C 58.523438 129.273438 58.726562 128.546875 58.726562 127.570312 C 58.726562 126.492188 58.519531 125.707031 58.105469 125.203125 C 57.691406 124.699219 57.183594 124.449219 56.574219 124.449219 C 55.984375 124.449219 55.488281 124.691406 55.089844 125.171875 C 54.695312 125.65625 54.496094 126.417969 54.496094 127.457031 "/>
</g>
</svg>
