<?xml version="1.0" encoding="UTF-8"?>
<svg xmlns="http://www.w3.org/2000/svg" xmlns:xlink="http://www.w3.org/1999/xlink" width="261.772pt" height="131.763pt" viewBox="0 0 261.772 131.763" version="1.2">
<defs>
<clipPath id="clip1">
  <path d="M 257 99 L 261.273438 99 L 261.273438 104 L 257 104 Z M 257 99 "/>
</clipPath>
<clipPath id="clip2">
  <path d="M 88 26 L 252 26 L 252 131.261719 L 88 131.261719 Z M 88 26 "/>
</clipPath>
<clipPath id="clip3">
  <path d="M 0.5 52 L 159 52 L 159 131.261719 L 0.5 131.261719 Z M 0.5 52 "/>
</clipPath>
<clipPath id="clip4">
  <path d="M 1 0.5 L 6 0.5 L 6 8 L 1 8 Z M 1 0.5 "/>
</clipPath>
<clipPath id="clip5">
  <path d="M 11 0.5 L 13 0.5 L 13 8 L 11 8 Z M 11 0.5 "/>
</clipPath>
<clipPath id="clip6">
  <path d="M 13 0.5 L 16 0.5 L 16 8 L 13 8 Z M 13 0.5 "/>
</clipPath>
<clipPath id="clip7">
  <path d="M 52 0.5 L 215 0.5 L 215 118 L 52 118 Z M 52 0.5 "/>
</clipPath>
</defs>
<g id="surface1">
<path style="fill:none;stroke-width:19.9984;stroke-linecap:butt;stroke-linejoin:miter;stroke:rgb(13.729858%,12.159729%,12.548828%);stroke-opacity:1;stroke-miterlimit:22.9256;" d="M 2885.579009 2545.87159 L 2885.579009 779.154705 L 6809.503413 779.154705 " transform="matrix(0.037793,0,0,-0.037793,0.5,131.263)"/>
<path style=" stroke:none;fill-rule:evenodd;fill:rgb(13.729858%,12.159729%,12.548828%);fill-opacity:1;" d="M 111.53125 35.359375 L 109.554688 31.765625 L 107.582031 35.359375 Z M 111.53125 35.359375 "/>
<g clip-path="url(#clip1)" clip-rule="nonzero">
<path style=" stroke:none;fill-rule:evenodd;fill:rgb(13.729858%,12.159729%,12.548828%);fill-opacity:1;" d="M 257.539062 99.839844 L 261.132812 101.816406 L 257.539062 103.792969 Z M 257.539062 99.839844 "/>
</g>
<g clip-path="url(#clip2)" clip-rule="nonzero">
<path style="fill:none;stroke-width:39.9997;stroke-linecap:butt;stroke-linejoin:miter;stroke:rgb(13.729858%,12.159729%,12.548828%);stroke-opacity:1;stroke-miterlimit:10;" d="M 2885.579009 781.118527 L 2918.137122 1149.593675 L 2950.178439 1474.554646 L 2982.633193 1746.595765 L 3014.67451 1957.551663 L 3047.129263 2105.045081 L 3079.170581 2186.595401 L 3111.625334 2205.096678 L 3143.666651 2164.579916 L 3176.121405 2070.626505 L 3208.162722 1931.608532 L 3240.617475 1756.621597 L 3272.658793 1555.588171 L 3305.113546 1338.637446 L 3337.154863 1116.10533 L 3369.609617 896.570628 L 3401.650934 690.059171 L 3434.105688 503.082581 L 3466.147005 342.049123 L 3498.601758 211.093159 L 3531.159871 113.625539 L 3563.097829 50.576496 L 3595.655942 22.566183 L 3627.697259 27.113983 L 3660.152012 62.049354 L 3692.193329 123.548012 L 3724.648083 207.062154 L 3756.6894 307.113751 L 3789.144154 419.051643 L 3821.185471 536.570926 L 3853.640224 655.123799 L 3885.681542 769.645669 L 3918.136295 875.588733 L 3950.177612 969.645503 L 3982.632366 1048.611846 L 4014.673683 1110.627299 L 4047.128436 1154.141475 L 4079.169754 1179.56781 L 4111.624507 1186.596228 L 4143.665824 1176.570397 L 4176.120578 1151.144061 L 4208.67869 1113.107917 L 4240.616649 1064.115709 L 4273.174761 1007.578288 L 4305.216078 946.079631 L 4337.670832 882.617151 L 4369.712149 820.084903 L 4402.166903 760.653428 L 4434.20822 707.11342 L 4466.662973 660.085036 L 4498.70429 622.15225 L 4531.159044 593.625142 L 4563.200361 574.60707 L 4595.655115 565.614829 L 4627.696432 565.614829 L 4660.151185 575.123866 L 4692.192503 591.66132 L 4724.647256 615.123832 L 4756.688573 643.134145 L 4789.143327 674.658667 L 4821.701439 708.147011 L 4853.639398 741.635356 L 4886.19751 774.606905 L 4918.135468 805.097836 L 4950.693581 832.074557 L 4982.734898 855.123634 L 5015.189652 873.108115 L 5047.230969 886.13136 L 5079.685722 894.09001 L 5111.727039 896.570628 L 5144.181793 894.09001 L 5176.22311 887.164951 L 5208.677864 876.622324 L 5240.719181 863.082284 L 5273.173934 847.164984 L 5305.215252 829.593939 L 5337.670005 811.609458 L 5369.711322 794.141772 L 5402.166076 777.087523 L 5434.207393 761.58366 L 5466.662146 747.630183 L 5499.220259 736.67412 L 5531.158217 728.095315 L 5563.71633 722.617284 L 5595.757647 719.61987 L 5628.2124 719.61987 L 5660.253718 722.100488 L 5692.708471 726.648288 L 5724.749788 733.159911 L 5757.204542 740.601765 L 5789.245859 749.594006 L 5821.700613 759.103042 L 5853.74193 768.612078 L 5886.196683 778.121114 L 5918.238 787.113354 L 5950.692754 794.658568 L 5982.734071 801.583627 L 6015.188825 806.648222 L 6047.230142 810.679226 L 6079.684895 813.159844 " transform="matrix(0.037793,0,0,-0.037793,0.5,131.263)"/>
</g>
<path style=" stroke:none;fill-rule:nonzero;fill:rgb(13.729858%,12.159729%,12.548828%);fill-opacity:1;" d="M 260.777344 111.324219 L 260.894531 112.027344 C 260.671875 112.074219 260.46875 112.101562 260.292969 112.101562 C 260.003906 112.101562 259.777344 112.054688 259.617188 111.960938 C 259.460938 111.871094 259.347656 111.75 259.28125 111.601562 C 259.21875 111.453125 259.183594 111.140625 259.183594 110.660156 L 259.183594 107.957031 L 258.597656 107.957031 L 258.597656 107.335938 L 259.183594 107.335938 L 259.183594 106.167969 L 259.976562 105.691406 L 259.976562 107.335938 L 260.777344 107.335938 L 260.777344 107.957031 L 259.976562 107.957031 L 259.976562 110.703125 C 259.976562 110.933594 259.992188 111.078125 260.019531 111.144531 C 260.046875 111.207031 260.09375 111.257812 260.15625 111.300781 C 260.21875 111.335938 260.3125 111.355469 260.429688 111.355469 C 260.519531 111.355469 260.632812 111.347656 260.777344 111.324219 "/>
<g clip-path="url(#clip3)" clip-rule="nonzero">
<path style="fill:none;stroke-width:39.9997;stroke-linecap:butt;stroke-linejoin:miter;stroke:rgb(13.729858%,12.159729%,12.548828%);stroke-opacity:1;stroke-miterlimit:22.9256;" d="M 2885.579009 781.118527 L 690.438706 781.635323 " transform="matrix(0.037793,0,0,-0.037793,0.5,131.263)"/>
</g>
<path style=" stroke:none;fill-rule:nonzero;fill:rgb(13.729858%,12.159729%,12.548828%);fill-opacity:1;" d="M 108.589844 106.59375 C 108.589844 105.828125 108.667969 105.207031 108.824219 104.742188 C 108.984375 104.273438 109.21875 103.910156 109.53125 103.65625 C 109.839844 103.402344 110.234375 103.277344 110.703125 103.277344 C 111.054688 103.277344 111.359375 103.347656 111.621094 103.488281 C 111.882812 103.625 112.101562 103.828125 112.273438 104.09375 C 112.445312 104.359375 112.578125 104.679688 112.675781 105.058594 C 112.773438 105.4375 112.824219 105.949219 112.824219 106.59375 C 112.824219 107.355469 112.742188 107.96875 112.589844 108.4375 C 112.429688 108.90625 112.195312 109.269531 111.882812 109.523438 C 111.574219 109.78125 111.179688 109.90625 110.703125 109.90625 C 110.078125 109.90625 109.585938 109.683594 109.230469 109.234375 C 108.800781 108.695312 108.589844 107.8125 108.589844 106.59375 Z M 109.40625 106.59375 C 109.40625 107.660156 109.53125 108.367188 109.78125 108.722656 C 110.03125 109.074219 110.339844 109.25 110.703125 109.25 C 111.070312 109.25 111.378906 109.074219 111.628906 108.71875 C 111.878906 108.367188 112.003906 107.65625 112.003906 106.59375 C 112.003906 105.527344 111.878906 104.816406 111.628906 104.464844 C 111.378906 104.113281 111.070312 103.9375 110.695312 103.9375 C 110.328125 103.9375 110.039062 104.09375 109.816406 104.402344 C 109.542969 104.796875 109.40625 105.527344 109.40625 106.59375 "/>
<path style=" stroke:none;fill-rule:nonzero;fill:rgb(13.729858%,12.159729%,12.548828%);fill-opacity:1;" d="M 65.203125 97.796875 L 65.203125 97.152344 L 68.199219 93.714844 C 67.859375 93.734375 67.558594 93.742188 67.300781 93.742188 L 65.382812 93.742188 L 65.382812 93.09375 L 69.226562 93.09375 L 69.226562 93.621094 L 66.679688 96.605469 L 66.1875 97.152344 C 66.546875 97.125 66.878906 97.113281 67.191406 97.113281 L 69.367188 97.113281 L 69.367188 97.796875 L 65.203125 97.796875 "/>
<path style=" stroke:none;fill-rule:nonzero;fill:rgb(13.729858%,12.159729%,12.548828%);fill-opacity:1;" d="M 73.378906 96.285156 L 74.203125 96.382812 C 74.074219 96.867188 73.832031 97.242188 73.484375 97.507812 C 73.128906 97.769531 72.679688 97.902344 72.136719 97.902344 C 71.449219 97.902344 70.902344 97.691406 70.5 97.269531 C 70.097656 96.84375 69.894531 96.25 69.894531 95.488281 C 69.894531 94.695312 70.097656 94.082031 70.503906 93.644531 C 70.914062 93.207031 71.441406 92.988281 72.089844 92.988281 C 72.71875 92.988281 73.234375 93.203125 73.632812 93.628906 C 74.03125 94.058594 74.230469 94.660156 74.230469 95.4375 C 74.230469 95.484375 74.230469 95.554688 74.226562 95.648438 L 70.71875 95.648438 C 70.746094 96.167969 70.894531 96.5625 71.15625 96.835938 C 71.421875 97.113281 71.746094 97.25 72.140625 97.25 C 72.433594 97.25 72.679688 97.171875 72.886719 97.019531 C 73.09375 96.867188 73.257812 96.621094 73.378906 96.285156 Z M 70.761719 94.992188 L 73.390625 94.992188 C 73.355469 94.597656 73.253906 94.300781 73.085938 94.105469 C 72.832031 93.796875 72.503906 93.644531 72.101562 93.644531 C 71.734375 93.644531 71.425781 93.765625 71.175781 94.011719 C 70.925781 94.257812 70.789062 94.585938 70.761719 94.992188 "/>
<path style=" stroke:none;fill-rule:nonzero;fill:rgb(13.729858%,12.159729%,12.548828%);fill-opacity:1;" d="M 75.195312 97.796875 L 75.195312 93.09375 L 75.914062 93.09375 L 75.914062 93.808594 C 76.097656 93.472656 76.265625 93.253906 76.421875 93.148438 C 76.574219 93.042969 76.746094 92.988281 76.933594 92.988281 C 77.203125 92.988281 77.472656 93.074219 77.75 93.246094 L 77.476562 93.984375 C 77.28125 93.867188 77.089844 93.8125 76.894531 93.8125 C 76.71875 93.8125 76.5625 93.863281 76.421875 93.96875 C 76.285156 94.074219 76.183594 94.21875 76.125 94.40625 C 76.039062 94.6875 75.992188 95 75.992188 95.335938 L 75.992188 97.796875 L 75.195312 97.796875 "/>
<path style=" stroke:none;fill-rule:nonzero;fill:rgb(13.729858%,12.159729%,12.548828%);fill-opacity:1;" d="M 77.929688 95.445312 C 77.929688 94.574219 78.171875 93.929688 78.65625 93.511719 C 79.058594 93.164062 79.550781 92.988281 80.132812 92.988281 C 80.78125 92.988281 81.308594 93.199219 81.71875 93.625 C 82.132812 94.046875 82.335938 94.632812 82.335938 95.378906 C 82.335938 95.984375 82.246094 96.460938 82.0625 96.808594 C 81.882812 97.15625 81.617188 97.425781 81.269531 97.617188 C 80.921875 97.808594 80.546875 97.902344 80.132812 97.902344 C 79.476562 97.902344 78.945312 97.695312 78.539062 97.269531 C 78.132812 96.847656 77.929688 96.242188 77.929688 95.445312 Z M 78.746094 95.445312 C 78.746094 96.050781 78.878906 96.5 79.140625 96.800781 C 79.40625 97.101562 79.738281 97.25 80.132812 97.25 C 80.53125 97.25 80.859375 97.097656 81.121094 96.796875 C 81.382812 96.496094 81.515625 96.035156 81.515625 95.421875 C 81.515625 94.839844 81.382812 94.398438 81.121094 94.097656 C 80.855469 93.796875 80.527344 93.648438 80.132812 93.648438 C 79.738281 93.648438 79.40625 93.796875 79.140625 94.097656 C 78.878906 94.394531 78.746094 94.84375 78.746094 95.445312 "/>
<path style=" stroke:none;fill-rule:nonzero;fill:rgb(13.729858%,12.159729%,12.548828%);fill-opacity:1;" d="M 83.695312 96.1875 L 83.453125 92.746094 L 83.453125 91.304688 L 84.4375 91.304688 L 84.4375 92.746094 L 84.210938 96.1875 Z M 83.488281 97.796875 L 83.488281 96.890625 L 84.40625 96.890625 L 84.40625 97.796875 L 83.488281 97.796875 "/>
<path style="fill:none;stroke-width:19.9984;stroke-linecap:butt;stroke-linejoin:miter;stroke:rgb(13.729858%,12.159729%,12.548828%);stroke-opacity:1;stroke-miterlimit:22.9256;" d="M 939.637466 3130.987385 L 1983.874329 3130.987385 L 1983.874329 2478.378106 L 939.637466 2478.378106 Z M 939.637466 3130.987385 " transform="matrix(0.037793,0,0,-0.037793,0.5,131.263)"/>
<path style=" stroke:none;fill-rule:nonzero;fill:rgb(13.729858%,12.159729%,12.548828%);fill-opacity:1;" d="M 44.378906 27.28125 L 44.378906 20.789062 L 48.761719 20.789062 L 48.761719 21.554688 L 45.238281 21.554688 L 45.238281 23.566406 L 48.285156 23.566406 L 48.285156 24.332031 L 45.238281 24.332031 L 45.238281 27.28125 L 44.378906 27.28125 "/>
<path style=" stroke:none;fill-rule:nonzero;fill:rgb(13.729858%,12.159729%,12.548828%);fill-opacity:1;" d="M 49.777344 21.707031 L 49.777344 20.789062 L 50.574219 20.789062 L 50.574219 21.707031 Z M 49.777344 27.28125 L 49.777344 22.578125 L 50.574219 22.578125 L 50.574219 27.28125 L 49.777344 27.28125 "/>
<path style=" stroke:none;fill-rule:nonzero;fill:rgb(13.729858%,12.159729%,12.548828%);fill-opacity:1;" d="M 51.773438 27.28125 L 51.773438 20.789062 L 52.566406 20.789062 L 52.566406 27.28125 L 51.773438 27.28125 "/>
<path style=" stroke:none;fill-rule:nonzero;fill:rgb(13.729858%,12.159729%,12.548828%);fill-opacity:1;" d="M 55.542969 26.570312 L 55.660156 27.273438 C 55.4375 27.320312 55.234375 27.34375 55.058594 27.34375 C 54.769531 27.34375 54.542969 27.296875 54.382812 27.207031 C 54.226562 27.117188 54.113281 26.996094 54.046875 26.84375 C 53.984375 26.699219 53.949219 26.382812 53.949219 25.90625 L 53.949219 23.199219 L 53.363281 23.199219 L 53.363281 22.578125 L 53.949219 22.578125 L 53.949219 21.414062 L 54.742188 20.9375 L 54.742188 22.578125 L 55.542969 22.578125 L 55.542969 23.199219 L 54.742188 23.199219 L 54.742188 25.949219 C 54.742188 26.175781 54.757812 26.320312 54.785156 26.386719 C 54.8125 26.453125 54.859375 26.503906 54.921875 26.542969 C 54.984375 26.582031 55.074219 26.601562 55.195312 26.601562 C 55.28125 26.601562 55.398438 26.589844 55.542969 26.570312 "/>
<path style=" stroke:none;fill-rule:nonzero;fill:rgb(13.729858%,12.159729%,12.548828%);fill-opacity:1;" d="M 59.542969 25.765625 L 60.367188 25.867188 C 60.238281 26.351562 59.996094 26.722656 59.644531 26.992188 C 59.292969 27.253906 58.84375 27.386719 58.300781 27.386719 C 57.609375 27.386719 57.066406 27.175781 56.664062 26.753906 C 56.257812 26.328125 56.058594 25.734375 56.058594 24.972656 C 56.058594 24.179688 56.261719 23.566406 56.667969 23.128906 C 57.078125 22.691406 57.605469 22.472656 58.253906 22.472656 C 58.882812 22.472656 59.398438 22.6875 59.796875 23.113281 C 60.195312 23.542969 60.394531 24.144531 60.394531 24.921875 C 60.394531 24.96875 60.390625 25.039062 60.390625 25.132812 L 56.882812 25.132812 C 56.910156 25.652344 57.058594 26.046875 57.320312 26.320312 C 57.585938 26.597656 57.910156 26.734375 58.304688 26.734375 C 58.59375 26.734375 58.84375 26.65625 59.050781 26.503906 C 59.257812 26.347656 59.421875 26.105469 59.542969 25.765625 Z M 56.925781 24.476562 L 59.550781 24.476562 C 59.515625 24.082031 59.414062 23.785156 59.25 23.589844 C 58.996094 23.28125 58.667969 23.128906 58.265625 23.128906 C 57.898438 23.128906 57.589844 23.25 57.339844 23.496094 C 57.089844 23.742188 56.953125 24.070312 56.925781 24.476562 "/>
<path style=" stroke:none;fill-rule:nonzero;fill:rgb(13.729858%,12.159729%,12.548828%);fill-opacity:1;" d="M 61.359375 27.28125 L 61.359375 22.578125 L 62.078125 22.578125 L 62.078125 23.292969 C 62.261719 22.957031 62.429688 22.738281 62.585938 22.632812 C 62.738281 22.527344 62.910156 22.472656 63.097656 22.472656 C 63.363281 22.472656 63.636719 22.558594 63.914062 22.730469 L 63.640625 23.46875 C 63.445312 23.351562 63.25 23.296875 63.054688 23.296875 C 62.878906 23.296875 62.726562 23.347656 62.585938 23.453125 C 62.445312 23.558594 62.347656 23.703125 62.289062 23.890625 C 62.199219 24.171875 62.15625 24.480469 62.15625 24.820312 L 62.15625 27.28125 L 61.359375 27.28125 "/>
<path style="fill:none;stroke-width:19.9984;stroke-linecap:butt;stroke-linejoin:miter;stroke:rgb(13.729858%,12.159729%,12.548828%);stroke-opacity:1;stroke-miterlimit:22.9256;" d="M 476.89883 2786.904982 L 823.978647 2786.904982 " transform="matrix(0.037793,0,0,-0.037793,0.5,131.263)"/>
<path style=" stroke:none;fill-rule:evenodd;fill:rgb(13.729858%,12.159729%,12.548828%);fill-opacity:1;" d="M 36.023438 25.9375 L 31.398438 23.625 L 31.398438 28.25 Z M 36.023438 25.9375 "/>
<path style="fill:none;stroke-width:19.9984;stroke-linecap:butt;stroke-linejoin:miter;stroke:rgb(13.729858%,12.159729%,12.548828%);stroke-opacity:1;stroke-miterlimit:22.9256;" d="M 1983.874329 2804.682745 L 2390.592339 2804.682745 " transform="matrix(0.037793,0,0,-0.037793,0.5,131.263)"/>
<path style=" stroke:none;fill-rule:evenodd;fill:rgb(13.729858%,12.159729%,12.548828%);fill-opacity:1;" d="M 95.21875 25.265625 L 90.609375 22.960938 L 90.609375 27.570312 Z M 95.21875 25.265625 "/>
<path style="fill:none;stroke-width:19.9984;stroke-linecap:butt;stroke-linejoin:miter;stroke:rgb(13.729858%,12.159729%,12.548828%);stroke-opacity:1;stroke-miterlimit:22.9256;" d="M 32.041317 2448.610688 L 245.581192 2448.610688 L 245.581192 2864.114221 L 245.581192 2448.610688 L 455.710218 2448.610688 " transform="matrix(0.037793,0,0,-0.037793,0.5,131.263)"/>
<path style=" stroke:none;fill-rule:evenodd;fill:rgb(13.729858%,12.159729%,12.548828%);fill-opacity:1;" d="M 17.410156 36.746094 L 21.003906 38.722656 L 17.410156 40.695312 Z M 17.410156 36.746094 "/>
<g clip-path="url(#clip4)" clip-rule="nonzero">
<path style=" stroke:none;fill-rule:nonzero;fill:rgb(13.729858%,12.159729%,12.548828%);fill-opacity:1;" d="M 4.460938 7.328125 L 4.460938 6.734375 C 4.164062 7.203125 3.726562 7.433594 3.148438 7.433594 C 2.773438 7.433594 2.429688 7.332031 2.113281 7.125 C 1.800781 6.917969 1.554688 6.632812 1.382812 6.257812 C 1.210938 5.890625 1.125 5.464844 1.125 4.980469 C 1.125 4.511719 1.203125 4.085938 1.359375 3.703125 C 1.515625 3.320312 1.75 3.027344 2.0625 2.824219 C 2.375 2.621094 2.726562 2.519531 3.113281 2.519531 C 3.394531 2.519531 3.648438 2.578125 3.867188 2.699219 C 4.089844 2.820312 4.269531 2.972656 4.410156 3.167969 L 4.410156 0.835938 L 5.203125 0.835938 L 5.203125 7.328125 Z M 1.941406 4.980469 C 1.941406 5.585938 2.070312 6.035156 2.324219 6.332031 C 2.578125 6.632812 2.875 6.78125 3.222656 6.78125 C 3.570312 6.78125 3.867188 6.636719 4.109375 6.351562 C 4.355469 6.070312 4.476562 5.632812 4.476562 5.046875 C 4.476562 4.40625 4.351562 3.933594 4.105469 3.632812 C 3.855469 3.328125 3.550781 3.179688 3.1875 3.179688 C 2.832031 3.179688 2.535156 3.324219 2.300781 3.613281 C 2.0625 3.902344 1.941406 4.359375 1.941406 4.980469 "/>
</g>
<path style=" stroke:none;fill-rule:nonzero;fill:rgb(13.729858%,12.159729%,12.548828%);fill-opacity:1;" d="M 9.675781 5.816406 L 10.5 5.917969 C 10.367188 6.398438 10.128906 6.773438 9.777344 7.039062 C 9.425781 7.300781 8.976562 7.433594 8.429688 7.433594 C 7.742188 7.433594 7.195312 7.222656 6.796875 6.800781 C 6.390625 6.378906 6.191406 5.78125 6.191406 5.019531 C 6.191406 4.226562 6.394531 3.613281 6.800781 3.175781 C 7.210938 2.738281 7.738281 2.519531 8.386719 2.519531 C 9.015625 2.519531 9.53125 2.734375 9.925781 3.160156 C 10.328125 3.589844 10.527344 4.191406 10.527344 4.96875 C 10.527344 5.015625 10.523438 5.085938 10.523438 5.179688 L 7.015625 5.179688 C 7.042969 5.699219 7.191406 6.09375 7.453125 6.367188 C 7.714844 6.644531 8.042969 6.78125 8.433594 6.78125 C 8.726562 6.78125 8.976562 6.703125 9.183594 6.550781 C 9.390625 6.398438 9.554688 6.152344 9.675781 5.816406 Z M 7.058594 4.523438 L 9.683594 4.523438 C 9.648438 4.128906 9.546875 3.832031 9.382812 3.636719 C 9.128906 3.328125 8.800781 3.175781 8.394531 3.175781 C 8.03125 3.175781 7.722656 3.296875 7.472656 3.542969 C 7.222656 3.789062 7.085938 4.117188 7.058594 4.523438 "/>
<g clip-path="url(#clip5)" clip-rule="nonzero">
<path style=" stroke:none;fill-rule:nonzero;fill:rgb(13.729858%,12.159729%,12.548828%);fill-opacity:1;" d="M 11.484375 7.328125 L 11.484375 0.835938 L 12.28125 0.835938 L 12.28125 7.328125 L 11.484375 7.328125 "/>
</g>
<g clip-path="url(#clip6)" clip-rule="nonzero">
<path style=" stroke:none;fill-rule:nonzero;fill:rgb(13.729858%,12.159729%,12.548828%);fill-opacity:1;" d="M 15.257812 6.617188 L 15.371094 7.320312 C 15.148438 7.367188 14.945312 7.390625 14.769531 7.390625 C 14.480469 7.390625 14.253906 7.347656 14.09375 7.253906 C 13.9375 7.164062 13.824219 7.042969 13.757812 6.894531 C 13.695312 6.746094 13.660156 6.429688 13.660156 5.953125 L 13.660156 3.246094 L 13.078125 3.246094 L 13.078125 2.625 L 13.660156 2.625 L 13.660156 1.460938 L 14.453125 0.984375 L 14.453125 2.625 L 15.257812 2.625 L 15.257812 3.246094 L 14.453125 3.246094 L 14.453125 5.996094 C 14.453125 6.222656 14.46875 6.371094 14.496094 6.433594 C 14.523438 6.5 14.570312 6.550781 14.632812 6.589844 C 14.695312 6.628906 14.789062 6.648438 14.90625 6.648438 C 14.996094 6.648438 15.109375 6.636719 15.257812 6.617188 "/>
</g>
<path style=" stroke:none;fill-rule:nonzero;fill:rgb(13.729858%,12.159729%,12.548828%);fill-opacity:1;" d="M 19.105469 6.75 C 18.808594 7 18.523438 7.175781 18.253906 7.28125 C 17.980469 7.382812 17.6875 7.433594 17.371094 7.433594 C 16.855469 7.433594 16.460938 7.308594 16.179688 7.058594 C 15.90625 6.804688 15.765625 6.480469 15.765625 6.089844 C 15.765625 5.859375 15.816406 5.648438 15.921875 5.457031 C 16.027344 5.265625 16.164062 5.113281 16.335938 5 C 16.503906 4.886719 16.695312 4.796875 16.910156 4.738281 C 17.0625 4.699219 17.300781 4.65625 17.617188 4.617188 C 18.261719 4.542969 18.734375 4.453125 19.039062 4.34375 C 19.042969 4.234375 19.042969 4.164062 19.042969 4.136719 C 19.042969 3.8125 18.96875 3.582031 18.816406 3.449219 C 18.613281 3.269531 18.308594 3.179688 17.910156 3.179688 C 17.535156 3.179688 17.257812 3.246094 17.078125 3.375 C 16.898438 3.507812 16.769531 3.742188 16.683594 4.074219 L 15.902344 3.96875 C 15.972656 3.636719 16.089844 3.363281 16.253906 3.160156 C 16.414062 2.953125 16.648438 2.796875 16.957031 2.683594 C 17.265625 2.574219 17.617188 2.519531 18.023438 2.519531 C 18.425781 2.519531 18.75 2.566406 19.003906 2.660156 C 19.253906 2.757812 19.4375 2.875 19.558594 3.019531 C 19.675781 3.160156 19.757812 3.339844 19.804688 3.5625 C 19.832031 3.695312 19.84375 3.941406 19.84375 4.296875 L 19.84375 5.359375 C 19.84375 6.101562 19.859375 6.570312 19.894531 6.765625 C 19.929688 6.960938 19.996094 7.148438 20.097656 7.328125 L 19.265625 7.328125 C 19.183594 7.164062 19.128906 6.972656 19.105469 6.75 Z M 19.039062 4.96875 C 18.75 5.085938 18.316406 5.1875 17.738281 5.269531 C 17.410156 5.316406 17.175781 5.371094 17.042969 5.429688 C 16.90625 5.488281 16.800781 5.574219 16.726562 5.6875 C 16.652344 5.800781 16.617188 5.929688 16.617188 6.066406 C 16.617188 6.28125 16.695312 6.457031 16.855469 6.597656 C 17.015625 6.738281 17.253906 6.8125 17.5625 6.8125 C 17.871094 6.8125 18.144531 6.746094 18.382812 6.609375 C 18.621094 6.476562 18.796875 6.289062 18.910156 6.058594 C 18.996094 5.878906 19.039062 5.613281 19.039062 5.261719 L 19.039062 4.96875 "/>
<path style=" stroke:none;fill-rule:nonzero;fill:rgb(13.729858%,12.159729%,12.548828%);fill-opacity:1;" d="M 1.410156 19.265625 L 1.410156 12.757812 L 2.136719 12.757812 L 2.136719 13.371094 C 2.308594 13.132812 2.5 12.953125 2.71875 12.832031 C 2.933594 12.710938 3.195312 12.652344 3.5 12.652344 C 3.902344 12.652344 4.257812 12.757812 4.5625 12.960938 C 4.871094 13.167969 5.105469 13.460938 5.257812 13.835938 C 5.417969 14.214844 5.496094 14.625 5.496094 15.074219 C 5.496094 15.554688 5.410156 15.988281 5.234375 16.375 C 5.0625 16.761719 4.8125 17.054688 4.480469 17.261719 C 4.152344 17.464844 3.804688 17.570312 3.445312 17.570312 C 3.175781 17.570312 2.941406 17.511719 2.730469 17.402344 C 2.515625 17.289062 2.34375 17.148438 2.207031 16.976562 L 2.207031 19.265625 Z M 2.132812 15.136719 C 2.132812 15.742188 2.253906 16.191406 2.5 16.480469 C 2.746094 16.769531 3.042969 16.914062 3.390625 16.914062 C 3.746094 16.914062 4.046875 16.765625 4.300781 16.464844 C 4.554688 16.164062 4.679688 15.699219 4.679688 15.070312 C 4.679688 14.472656 4.554688 14.023438 4.308594 13.722656 C 4.0625 13.425781 3.769531 13.277344 3.425781 13.277344 C 3.085938 13.277344 2.785156 13.433594 2.523438 13.753906 C 2.261719 14.070312 2.132812 14.53125 2.132812 15.136719 "/>
<path style=" stroke:none;fill-rule:nonzero;fill:rgb(13.729858%,12.159729%,12.548828%);fill-opacity:1;" d="M 9.539062 17.460938 L 9.539062 16.773438 C 9.171875 17.304688 8.675781 17.570312 8.046875 17.570312 C 7.769531 17.570312 7.507812 17.515625 7.269531 17.410156 C 7.027344 17.304688 6.851562 17.167969 6.734375 17.007812 C 6.617188 16.847656 6.535156 16.652344 6.488281 16.417969 C 6.453125 16.261719 6.4375 16.011719 6.4375 15.671875 L 6.4375 12.757812 L 7.234375 12.757812 L 7.234375 15.367188 C 7.234375 15.785156 7.25 16.0625 7.285156 16.210938 C 7.335938 16.417969 7.441406 16.582031 7.601562 16.703125 C 7.765625 16.824219 7.964844 16.882812 8.207031 16.882812 C 8.445312 16.882812 8.667969 16.820312 8.878906 16.699219 C 9.089844 16.578125 9.238281 16.410156 9.324219 16.199219 C 9.410156 15.988281 9.453125 15.679688 9.453125 15.28125 L 9.453125 12.757812 L 10.25 12.757812 L 10.25 17.460938 L 9.539062 17.460938 "/>
<path style=" stroke:none;fill-rule:nonzero;fill:rgb(13.729858%,12.159729%,12.548828%);fill-opacity:1;" d="M 11.484375 17.460938 L 11.484375 10.96875 L 12.28125 10.96875 L 12.28125 17.460938 L 11.484375 17.460938 "/>
<path style=" stroke:none;fill-rule:nonzero;fill:rgb(13.729858%,12.159729%,12.548828%);fill-opacity:1;" d="M 13.199219 16.058594 L 13.984375 15.933594 C 14.027344 16.25 14.152344 16.492188 14.355469 16.660156 C 14.554688 16.828125 14.839844 16.914062 15.203125 16.914062 C 15.570312 16.914062 15.839844 16.839844 16.019531 16.691406 C 16.195312 16.539062 16.285156 16.363281 16.285156 16.164062 C 16.285156 15.984375 16.207031 15.84375 16.046875 15.738281 C 15.941406 15.667969 15.667969 15.578125 15.234375 15.46875 C 14.648438 15.320312 14.242188 15.195312 14.019531 15.085938 C 13.792969 14.980469 13.621094 14.828125 13.503906 14.640625 C 13.386719 14.449219 13.328125 14.238281 13.328125 14.007812 C 13.328125 13.796875 13.378906 13.605469 13.472656 13.425781 C 13.570312 13.246094 13.699219 13.097656 13.867188 12.980469 C 13.988281 12.890625 14.160156 12.8125 14.371094 12.746094 C 14.585938 12.683594 14.816406 12.652344 15.0625 12.652344 C 15.429688 12.652344 15.753906 12.707031 16.035156 12.8125 C 16.3125 12.917969 16.519531 13.0625 16.652344 13.242188 C 16.785156 13.425781 16.875 13.667969 16.925781 13.972656 L 16.148438 14.078125 C 16.109375 13.835938 16.007812 13.648438 15.839844 13.511719 C 15.667969 13.375 15.429688 13.308594 15.117188 13.308594 C 14.753906 13.308594 14.492188 13.367188 14.335938 13.488281 C 14.179688 13.609375 14.101562 13.753906 14.101562 13.914062 C 14.101562 14.019531 14.132812 14.109375 14.199219 14.195312 C 14.261719 14.28125 14.363281 14.351562 14.503906 14.40625 C 14.582031 14.4375 14.816406 14.503906 15.207031 14.609375 C 15.773438 14.761719 16.164062 14.882812 16.386719 14.980469 C 16.609375 15.074219 16.785156 15.214844 16.914062 15.398438 C 17.039062 15.582031 17.105469 15.808594 17.105469 16.082031 C 17.105469 16.347656 17.023438 16.597656 16.871094 16.832031 C 16.714844 17.066406 16.492188 17.246094 16.199219 17.375 C 15.90625 17.503906 15.578125 17.570312 15.207031 17.570312 C 14.59375 17.570312 14.128906 17.441406 13.808594 17.1875 C 13.488281 16.933594 13.285156 16.558594 13.199219 16.058594 "/>
<path style=" stroke:none;fill-rule:nonzero;fill:rgb(13.729858%,12.159729%,12.548828%);fill-opacity:1;" d="M 21.269531 15.949219 L 22.09375 16.050781 C 21.964844 16.53125 21.722656 16.90625 21.371094 17.171875 C 21.019531 17.433594 20.570312 17.570312 20.027344 17.570312 C 19.339844 17.570312 18.792969 17.355469 18.390625 16.933594 C 17.988281 16.511719 17.785156 15.917969 17.785156 15.152344 C 17.785156 14.359375 17.988281 13.746094 18.394531 13.308594 C 18.804688 12.871094 19.332031 12.652344 19.980469 12.652344 C 20.609375 12.652344 21.125 12.867188 21.523438 13.292969 C 21.921875 13.722656 22.121094 14.324219 22.121094 15.101562 C 22.121094 15.148438 22.121094 15.222656 22.117188 15.316406 L 18.609375 15.316406 C 18.636719 15.832031 18.785156 16.226562 19.046875 16.5 C 19.3125 16.777344 19.636719 16.914062 20.03125 16.914062 C 20.320312 16.914062 20.570312 16.835938 20.777344 16.683594 C 20.984375 16.53125 21.148438 16.285156 21.269531 15.949219 Z M 18.652344 14.660156 L 21.277344 14.660156 C 21.246094 14.265625 21.144531 13.964844 20.976562 13.769531 C 20.722656 13.460938 20.394531 13.308594 19.992188 13.308594 C 19.625 13.308594 19.316406 13.429688 19.066406 13.675781 C 18.816406 13.921875 18.679688 14.25 18.652344 14.660156 "/>
<path style=" stroke:none;fill-rule:nonzero;fill:rgb(13.729858%,12.159729%,12.548828%);fill-opacity:1;" d="M 20.140625 48.324219 L 20.253906 49.027344 C 20.03125 49.074219 19.832031 49.101562 19.652344 49.101562 C 19.363281 49.101562 19.140625 49.054688 18.980469 48.960938 C 18.820312 48.871094 18.710938 48.75 18.644531 48.601562 C 18.578125 48.453125 18.546875 48.136719 18.546875 47.660156 L 18.546875 44.953125 L 17.960938 44.953125 L 17.960938 44.335938 L 18.546875 44.335938 L 18.546875 43.167969 L 19.339844 42.691406 L 19.339844 44.335938 L 20.140625 44.335938 L 20.140625 44.953125 L 19.339844 44.953125 L 19.339844 47.703125 C 19.339844 47.933594 19.351562 48.078125 19.378906 48.144531 C 19.410156 48.207031 19.453125 48.257812 19.519531 48.296875 C 19.582031 48.335938 19.671875 48.355469 19.789062 48.355469 C 19.878906 48.355469 19.996094 48.34375 20.140625 48.324219 "/>
<g clip-path="url(#clip7)" clip-rule="nonzero">
<path style="fill:none;stroke-width:39.9997;stroke-linecap:butt;stroke-linejoin:miter;stroke:rgb(13.729858%,12.159729%,12.548828%);stroke-opacity:1;stroke-miterlimit:22.9256;" d="M 2672.039134 2810.677573 C 3092.193826 2810.677573 4205.164482 2723.855939 4273.898275 2276.724526 C 4307.800056 2056.569669 4368.885276 1896.466442 4368.885276 1671.557067 " transform="matrix(0.037793,0,0,-0.037793,0.5,131.263)"/>
</g>
<path style=" stroke:none;fill-rule:evenodd;fill:rgb(13.729858%,12.159729%,12.548828%);fill-opacity:1;" d="M 169.5625 67.46875 L 165.613281 74.652344 L 161.660156 67.46875 Z M 169.5625 67.46875 "/>
</g>
</svg>
