<?xml version="1.0" encoding="UTF-8"?>
<svg xmlns="http://www.w3.org/2000/svg" xmlns:xlink="http://www.w3.org/1999/xlink" width="261.772pt" height="89.821pt" viewBox="0 0 261.772 89.821" version="1.2">
<defs>
<clipPath id="clip1">
  <path d="M 197 0.5 L 201 0.5 L 201 5 L 197 5 Z M 197 0.5 "/>
</clipPath>
<clipPath id="clip2">
  <path d="M 7 0.5 L 12 0.5 L 12 4 L 7 4 Z M 7 0.5 "/>
</clipPath>
<clipPath id="clip3">
  <path d="M 189 0.5 L 261.261719 0.5 L 261.261719 89.320312 L 189 89.320312 Z M 189 0.5 "/>
</clipPath>
<clipPath id="clip4">
  <path d="M 136 19 L 243 19 L 243 89.320312 L 136 89.320312 Z M 136 19 "/>
</clipPath>
</defs>
<g id="surface1">
<path style="fill:none;stroke-width:19.9984;stroke-linecap:butt;stroke-linejoin:miter;stroke:rgb(13.729858%,12.159729%,12.548828%);stroke-opacity:1;stroke-miterlimit:22.9256;" d="M 5923.067026 2549.68281 L 5923.067026 783.088619 L 7663.555062 783.088619 " transform="matrix(0.033517,0,0,-0.033517,0.5,89.321)"/>
<g clip-path="url(#clip1)" clip-rule="nonzero">
<path style=" stroke:none;fill-rule:evenodd;fill:rgb(13.729858%,12.159729%,12.548828%);fill-opacity:1;" d="M 200.777344 4.136719 L 199.023438 0.953125 L 197.269531 4.136719 Z M 200.777344 4.136719 "/>
</g>
<path style=" stroke:none;fill-rule:evenodd;fill:rgb(13.729858%,12.159729%,12.548828%);fill-opacity:1;" d="M 257.085938 61.324219 L 260.269531 63.074219 L 257.085938 64.828125 Z M 257.085938 61.324219 "/>
<path style="fill:none;stroke-width:19.9984;stroke-linecap:butt;stroke-linejoin:miter;stroke:rgb(13.729858%,12.159729%,12.548828%);stroke-opacity:1;stroke-miterlimit:22.9256;" d="M 263.042822 2562.852433 L 263.042822 796.141697 L 2003.647403 796.141697 " transform="matrix(0.033517,0,0,-0.033517,0.5,89.321)"/>
<g clip-path="url(#clip2)" clip-rule="nonzero">
<path style=" stroke:none;fill-rule:evenodd;fill:rgb(13.729858%,12.159729%,12.548828%);fill-opacity:1;" d="M 11.070312 3.699219 L 9.316406 0.511719 L 7.566406 3.699219 Z M 11.070312 3.699219 "/>
</g>
<path style=" stroke:none;fill-rule:evenodd;fill:rgb(13.729858%,12.159729%,12.548828%);fill-opacity:1;" d="M 67.378906 60.886719 L 70.5625 62.636719 L 67.378906 64.390625 Z M 67.378906 60.886719 "/>
<g clip-path="url(#clip3)" clip-rule="nonzero">
<path style="fill:none;stroke-width:29.9998;stroke-linecap:butt;stroke-linejoin:miter;stroke:rgb(13.729858%,12.159729%,12.548828%);stroke-opacity:1;stroke-miterlimit:10;" d="M 8884.596096 588.71648 L 8909.070604 865.104434 L 8933.020659 1108.888748 L 8957.320349 1312.814458 L 8981.445221 1471.112555 L 9005.744912 1581.772628 L 9029.694966 1642.871673 L 9054.169474 1656.769738 L 9078.119529 1626.35133 L 9102.419219 1555.812089 L 9126.544091 1451.620299 L 9150.843781 1320.331651 L 9174.793836 1169.638156 L 9199.268344 1006.882188 L 9223.218398 840.017988 L 9247.518089 675.339017 L 9271.642961 520.449879 L 9295.942651 380.245491 L 9319.892706 259.445949 L 9344.367214 161.197986 L 9368.666904 88.123878 L 9392.616958 40.83549 L 9417.091467 19.857277 L 9441.041521 23.266237 L 9465.516029 49.489003 L 9489.466084 95.641071 L 9513.940592 158.226072 L 9537.890646 233.223183 L 9562.190336 317.223443 L 9586.315209 405.331937 L 9610.614899 494.227113 L 9634.564953 580.150377 L 9659.039461 659.605358 L 9682.989516 730.144598 L 9707.289206 789.32064 L 9731.414078 835.822345 L 9755.713769 868.513393 L 9779.663823 887.656012 L 9804.138331 892.900566 L 9828.088386 885.383373 L 9852.562894 866.240753 L 9876.862584 837.745348 L 9900.812638 800.946066 L 9925.112329 758.640004 L 9949.237201 712.487936 L 9973.536891 664.849911 L 9997.661764 617.998569 L 10021.961454 573.332458 L 10045.911508 533.211626 L 10070.386016 497.98571 L 10094.336071 469.490304 L 10118.810579 448.075045 L 10142.760633 433.827343 L 10167.060324 427.096833 L 10191.185196 427.096833 L 10215.484886 434.264389 L 10239.434941 446.589089 L 10263.909449 464.245751 L 10287.859503 485.223964 L 10312.159193 508.911862 L 10336.633702 533.998309 L 10360.583756 559.084755 L 10385.058264 583.908973 L 10409.008318 606.72278 L 10433.482827 627.001719 L 10457.432881 644.221335 L 10481.732571 657.769764 L 10505.682626 667.472187 L 10530.157134 673.503424 L 10554.107188 675.339017 L 10578.581696 673.503424 L 10602.531751 668.25887 L 10626.831441 660.392041 L 10650.781495 650.252571 L 10675.256004 638.277508 L 10699.206058 625.166125 L 10723.680566 611.617696 L 10747.630621 598.506313 L 10771.930311 585.744567 L 10796.055183 574.11914 L 10820.354873 563.630034 L 10844.829382 555.413567 L 10868.779436 549.032694 L 10893.079126 544.837052 L 10917.029181 542.651821 L 10941.503689 542.651821 L 10965.453743 544.487415 L 10989.928251 547.896375 L 11013.878306 552.791291 L 11038.352814 558.385481 L 11062.302868 565.115991 L 11086.602559 572.283547 L 11110.552613 579.363694 L 11135.027121 586.53125 L 11158.977176 593.26176 L 11183.451684 598.85595 L 11207.401738 604.100503 L 11231.701428 607.859099 L 11255.651483 610.918422 L 11280.125991 612.754016 " transform="matrix(0.0223447,0,0,-0.0446892,0.5,89.321)"/>
</g>
<path style=" stroke:none;fill-rule:nonzero;fill:rgb(13.729858%,12.159729%,12.548828%);fill-opacity:1;" d="M 260.859375 70.714844 L 260.960938 71.339844 C 260.761719 71.382812 260.582031 71.402344 260.425781 71.402344 C 260.167969 71.402344 259.96875 71.363281 259.828125 71.28125 C 259.6875 71.203125 259.589844 71.09375 259.53125 70.960938 C 259.472656 70.828125 259.445312 70.550781 259.445312 70.128906 L 259.445312 67.726562 L 258.925781 67.726562 L 258.925781 67.179688 L 259.445312 67.179688 L 259.445312 66.144531 L 260.148438 65.71875 L 260.148438 67.179688 L 260.859375 67.179688 L 260.859375 67.726562 L 260.148438 67.726562 L 260.148438 70.167969 C 260.148438 70.367188 260.160156 70.496094 260.183594 70.554688 C 260.210938 70.613281 260.25 70.660156 260.304688 70.691406 C 260.363281 70.726562 260.441406 70.742188 260.546875 70.742188 C 260.625 70.742188 260.730469 70.734375 260.859375 70.714844 "/>
<path style=" stroke:none;fill-rule:nonzero;fill:rgb(13.729858%,12.159729%,12.548828%);fill-opacity:1;" d="M 69.628906 72.238281 L 69.730469 72.863281 C 69.53125 72.90625 69.355469 72.925781 69.195312 72.925781 C 68.941406 72.925781 68.742188 72.886719 68.597656 72.804688 C 68.457031 72.722656 68.359375 72.617188 68.300781 72.484375 C 68.242188 72.351562 68.214844 72.074219 68.214844 71.652344 L 68.214844 69.25 L 67.695312 69.25 L 67.695312 68.703125 L 68.214844 68.703125 L 68.214844 67.667969 L 68.917969 67.242188 L 68.917969 68.703125 L 69.628906 68.703125 L 69.628906 69.25 L 68.917969 69.25 L 68.917969 71.691406 C 68.917969 71.890625 68.929688 72.019531 68.953125 72.078125 C 68.980469 72.136719 69.019531 72.183594 69.078125 72.214844 C 69.132812 72.25 69.214844 72.265625 69.316406 72.265625 C 69.398438 72.265625 69.5 72.257812 69.628906 72.238281 "/>
<g clip-path="url(#clip4)" clip-rule="nonzero">
<path style="fill:none;stroke-width:39.9997;stroke-linecap:butt;stroke-linejoin:miter;stroke:rgb(13.729858%,12.159729%,12.548828%);stroke-opacity:1;stroke-miterlimit:22.9256;" d="M 5923.067026 784.953345 L 5341.622348 785.419526 " transform="matrix(0.033517,0,0,-0.033517,0.5,89.321)"/>
</g>
<path style=" stroke:none;fill-rule:nonzero;fill:rgb(13.729858%,12.159729%,12.548828%);fill-opacity:1;" d="M 198.164062 67.3125 C 198.164062 66.632812 198.234375 66.082031 198.375 65.667969 C 198.515625 65.253906 198.722656 64.933594 199 64.707031 C 199.273438 64.484375 199.621094 64.371094 200.039062 64.371094 C 200.351562 64.371094 200.621094 64.433594 200.855469 64.558594 C 201.085938 64.679688 201.28125 64.859375 201.433594 65.097656 C 201.582031 65.332031 201.703125 65.617188 201.789062 65.953125 C 201.875 66.289062 201.917969 66.742188 201.917969 67.3125 C 201.917969 67.988281 201.847656 68.535156 201.710938 68.949219 C 201.570312 69.363281 201.363281 69.683594 201.085938 69.910156 C 200.8125 70.136719 200.464844 70.25 200.039062 70.25 C 199.484375 70.25 199.050781 70.050781 198.734375 69.652344 C 198.355469 69.175781 198.164062 68.394531 198.164062 67.3125 Z M 198.890625 67.3125 C 198.890625 68.257812 199 68.886719 199.222656 69.199219 C 199.445312 69.511719 199.714844 69.671875 200.039062 69.671875 C 200.367188 69.671875 200.640625 69.511719 200.859375 69.199219 C 201.082031 68.882812 201.191406 68.253906 201.191406 67.3125 C 201.191406 66.367188 201.082031 65.734375 200.859375 65.425781 C 200.640625 65.113281 200.363281 64.957031 200.035156 64.957031 C 199.707031 64.957031 199.449219 65.09375 199.253906 65.371094 C 199.011719 65.71875 198.890625 66.367188 198.890625 67.3125 "/>
<path style=" stroke:none;fill-rule:nonzero;fill:rgb(13.729858%,12.159729%,12.548828%);fill-opacity:1;" d="M 6.933594 68.835938 C 6.933594 68.15625 7.003906 67.605469 7.144531 67.191406 C 7.285156 66.777344 7.492188 66.457031 7.769531 66.230469 C 8.046875 66.007812 8.394531 65.894531 8.8125 65.894531 C 9.121094 65.894531 9.390625 65.957031 9.625 66.082031 C 9.859375 66.203125 10.050781 66.382812 10.203125 66.621094 C 10.355469 66.855469 10.472656 67.140625 10.558594 67.476562 C 10.648438 67.8125 10.6875 68.265625 10.6875 68.835938 C 10.6875 69.511719 10.621094 70.058594 10.480469 70.472656 C 10.34375 70.886719 10.132812 71.207031 9.859375 71.433594 C 9.582031 71.660156 9.234375 71.773438 8.8125 71.773438 C 8.257812 71.773438 7.820312 71.574219 7.503906 71.175781 C 7.125 70.699219 6.933594 69.917969 6.933594 68.835938 Z M 7.660156 68.835938 C 7.660156 69.78125 7.773438 70.410156 7.992188 70.722656 C 8.214844 71.035156 8.488281 71.195312 8.8125 71.195312 C 9.136719 71.195312 9.410156 71.035156 9.628906 70.722656 C 9.851562 70.40625 9.960938 69.777344 9.960938 68.835938 C 9.960938 67.890625 9.851562 67.257812 9.628906 66.949219 C 9.410156 66.636719 9.132812 66.480469 8.804688 66.480469 C 8.480469 66.480469 8.21875 66.617188 8.027344 66.894531 C 7.78125 67.242188 7.660156 67.890625 7.660156 68.835938 "/>
<path style="fill:none;stroke-width:19.9984;stroke-linecap:butt;stroke-linejoin:miter;stroke:rgb(13.729858%,12.159729%,12.548828%);stroke-opacity:1;stroke-miterlimit:22.9256;" d="M 2956.638609 2026.743891 L 4499.11612 2026.743891 L 4499.11612 887.629785 L 2956.638609 887.629785 Z M 2956.638609 2026.743891 " transform="matrix(0.033517,0,0,-0.033517,0.5,89.321)"/>
<path style=" stroke:none;fill-rule:nonzero;fill:rgb(13.729858%,12.159729%,12.548828%);fill-opacity:1;" d="M 103.34375 38.019531 L 103.34375 32.261719 L 107.230469 32.261719 L 107.230469 32.941406 L 104.105469 32.941406 L 104.105469 34.722656 L 106.808594 34.722656 L 106.808594 35.402344 L 104.105469 35.402344 L 104.105469 38.019531 L 103.34375 38.019531 "/>
<path style=" stroke:none;fill-rule:nonzero;fill:rgb(13.729858%,12.159729%,12.548828%);fill-opacity:1;" d="M 108.128906 33.074219 L 108.128906 32.261719 L 108.839844 32.261719 L 108.839844 33.074219 Z M 108.128906 38.019531 L 108.128906 33.847656 L 108.839844 33.847656 L 108.839844 38.019531 L 108.128906 38.019531 "/>
<path style=" stroke:none;fill-rule:nonzero;fill:rgb(13.729858%,12.159729%,12.548828%);fill-opacity:1;" d="M 109.898438 38.019531 L 109.898438 32.261719 L 110.605469 32.261719 L 110.605469 38.019531 L 109.898438 38.019531 "/>
<path style=" stroke:none;fill-rule:nonzero;fill:rgb(13.729858%,12.159729%,12.548828%);fill-opacity:1;" d="M 113.246094 37.386719 L 113.347656 38.011719 C 113.148438 38.050781 112.96875 38.074219 112.8125 38.074219 C 112.554688 38.074219 112.359375 38.035156 112.214844 37.953125 C 112.074219 37.871094 111.976562 37.765625 111.917969 37.632812 C 111.859375 37.5 111.832031 37.222656 111.832031 36.796875 L 111.832031 34.398438 L 111.3125 34.398438 L 111.3125 33.847656 L 111.832031 33.847656 L 111.832031 32.8125 L 112.535156 32.390625 L 112.535156 33.847656 L 113.246094 33.847656 L 113.246094 34.398438 L 112.535156 34.398438 L 112.535156 36.835938 C 112.535156 37.039062 112.546875 37.167969 112.570312 37.226562 C 112.597656 37.28125 112.636719 37.328125 112.691406 37.363281 C 112.75 37.398438 112.828125 37.414062 112.933594 37.414062 C 113.011719 37.414062 113.117188 37.40625 113.246094 37.386719 "/>
<path style=" stroke:none;fill-rule:nonzero;fill:rgb(13.729858%,12.159729%,12.548828%);fill-opacity:1;" d="M 116.792969 36.675781 L 117.523438 36.765625 C 117.40625 37.191406 117.195312 37.523438 116.882812 37.761719 C 116.570312 37.996094 116.171875 38.113281 115.6875 38.113281 C 115.078125 38.113281 114.59375 37.925781 114.238281 37.550781 C 113.878906 37.175781 113.703125 36.648438 113.703125 35.96875 C 113.703125 35.265625 113.882812 34.722656 114.242188 34.335938 C 114.605469 33.945312 115.074219 33.753906 115.648438 33.753906 C 116.207031 33.753906 116.664062 33.941406 117.015625 34.324219 C 117.371094 34.703125 117.546875 35.238281 117.546875 35.925781 C 117.546875 35.96875 117.546875 36.03125 117.542969 36.113281 L 114.433594 36.113281 C 114.457031 36.574219 114.585938 36.921875 114.820312 37.167969 C 115.054688 37.410156 115.34375 37.53125 115.691406 37.53125 C 115.949219 37.53125 116.171875 37.464844 116.355469 37.328125 C 116.539062 37.191406 116.683594 36.972656 116.792969 36.675781 Z M 114.472656 35.53125 L 116.800781 35.53125 C 116.769531 35.183594 116.679688 34.917969 116.53125 34.742188 C 116.308594 34.472656 116.015625 34.335938 115.65625 34.335938 C 115.332031 34.335938 115.058594 34.441406 114.839844 34.660156 C 114.617188 34.878906 114.496094 35.167969 114.472656 35.53125 "/>
<path style=" stroke:none;fill-rule:nonzero;fill:rgb(13.729858%,12.159729%,12.548828%);fill-opacity:1;" d="M 118.402344 38.019531 L 118.402344 33.847656 L 119.039062 33.847656 L 119.039062 34.480469 C 119.199219 34.183594 119.351562 33.988281 119.488281 33.894531 C 119.625 33.800781 119.777344 33.753906 119.941406 33.753906 C 120.179688 33.753906 120.421875 33.828125 120.667969 33.980469 L 120.425781 34.636719 C 120.253906 34.535156 120.082031 34.484375 119.90625 34.484375 C 119.75 34.484375 119.613281 34.53125 119.492188 34.621094 C 119.367188 34.714844 119.28125 34.84375 119.226562 35.011719 C 119.148438 35.261719 119.109375 35.535156 119.109375 35.835938 L 119.109375 38.019531 L 118.402344 38.019531 "/>
<path style=" stroke:none;fill-rule:nonzero;fill:rgb(13.729858%,12.159729%,12.548828%);fill-opacity:1;" d="M 103.214844 47.003906 L 103.214844 41.246094 L 103.921875 41.246094 L 103.921875 43.3125 C 104.25 42.929688 104.667969 42.738281 105.171875 42.738281 C 105.480469 42.738281 105.746094 42.800781 105.976562 42.921875 C 106.203125 43.042969 106.367188 43.210938 106.464844 43.425781 C 106.5625 43.640625 106.613281 43.953125 106.613281 44.363281 L 106.613281 47.003906 L 105.902344 47.003906 L 105.902344 44.363281 C 105.902344 44.007812 105.828125 43.75 105.675781 43.589844 C 105.523438 43.429688 105.304688 43.347656 105.023438 43.347656 C 104.816406 43.347656 104.617188 43.402344 104.433594 43.511719 C 104.25 43.621094 104.117188 43.769531 104.039062 43.953125 C 103.960938 44.140625 103.921875 44.398438 103.921875 44.722656 L 103.921875 47.003906 L 103.214844 47.003906 "/>
<path style=" stroke:none;fill-rule:nonzero;fill:rgb(13.729858%,12.159729%,12.548828%);fill-opacity:1;" d="M 109.039062 48.699219 C 108.648438 48.207031 108.320312 47.628906 108.050781 46.96875 C 107.78125 46.308594 107.644531 45.628906 107.644531 44.917969 C 107.644531 44.296875 107.746094 43.699219 107.945312 43.128906 C 108.183594 42.464844 108.546875 41.804688 109.039062 41.148438 L 109.546875 41.148438 C 109.230469 41.695312 109.019531 42.082031 108.917969 42.316406 C 108.757812 42.675781 108.632812 43.054688 108.539062 43.449219 C 108.425781 43.9375 108.371094 44.429688 108.371094 44.921875 C 108.371094 46.183594 108.761719 47.441406 109.546875 48.699219 L 109.039062 48.699219 "/>
<path style=" stroke:none;fill-rule:nonzero;fill:rgb(13.729858%,12.159729%,12.548828%);fill-opacity:1;" d="M 111.910156 46.371094 L 112.011719 46.996094 C 111.8125 47.039062 111.636719 47.058594 111.476562 47.058594 C 111.222656 47.058594 111.023438 47.019531 110.878906 46.9375 C 110.738281 46.859375 110.640625 46.75 110.582031 46.617188 C 110.523438 46.488281 110.496094 46.207031 110.496094 45.785156 L 110.496094 43.382812 L 109.976562 43.382812 L 109.976562 42.835938 L 110.496094 42.835938 L 110.496094 41.800781 L 111.199219 41.378906 L 111.199219 42.835938 L 111.910156 42.835938 L 111.910156 43.382812 L 111.199219 43.382812 L 111.199219 45.824219 C 111.199219 46.027344 111.210938 46.152344 111.234375 46.210938 C 111.261719 46.269531 111.300781 46.316406 111.359375 46.351562 C 111.414062 46.382812 111.496094 46.402344 111.597656 46.402344 C 111.679688 46.402344 111.78125 46.390625 111.910156 46.371094 "/>
<path style=" stroke:none;fill-rule:nonzero;fill:rgb(13.729858%,12.159729%,12.548828%);fill-opacity:1;" d="M 113.066406 48.699219 L 112.558594 48.699219 C 113.339844 47.441406 113.730469 46.183594 113.730469 44.921875 C 113.730469 44.429688 113.675781 43.941406 113.5625 43.457031 C 113.476562 43.066406 113.351562 42.6875 113.191406 42.328125 C 113.089844 42.09375 112.878906 41.699219 112.558594 41.148438 L 113.066406 41.148438 C 113.554688 41.804688 113.921875 42.464844 114.15625 43.128906 C 114.359375 43.699219 114.457031 44.296875 114.457031 44.917969 C 114.457031 45.628906 114.324219 46.308594 114.050781 46.96875 C 113.78125 47.628906 113.453125 48.207031 113.066406 48.699219 "/>
<path style=" stroke:none;fill-rule:nonzero;fill:rgb(13.729858%,12.159729%,12.548828%);fill-opacity:1;" d="M 117.425781 44.488281 L 117.425781 43.828125 L 121.238281 42.21875 L 121.238281 42.921875 L 118.214844 44.160156 L 121.238281 45.414062 L 121.238281 46.117188 L 117.425781 44.488281 "/>
<path style=" stroke:none;fill-rule:nonzero;fill:rgb(13.729858%,12.159729%,12.548828%);fill-opacity:1;" d="M 125.933594 43.621094 L 122.128906 43.621094 L 122.128906 42.960938 L 125.933594 42.960938 Z M 125.933594 45.367188 L 122.128906 45.367188 L 122.128906 44.707031 L 125.933594 44.707031 L 125.933594 45.367188 "/>
<path style=" stroke:none;fill-rule:nonzero;fill:rgb(13.729858%,12.159729%,12.548828%);fill-opacity:1;" d="M 130.632812 44.488281 L 126.820312 46.117188 L 126.820312 45.414062 L 129.839844 44.160156 L 126.820312 42.921875 L 126.820312 42.21875 L 130.632812 43.828125 L 130.632812 44.488281 "/>
<path style=" stroke:none;fill-rule:nonzero;fill:rgb(13.729858%,12.159729%,12.548828%);fill-opacity:1;" d="M 133.957031 47.003906 L 133.957031 41.246094 L 134.71875 41.246094 L 134.71875 43.613281 L 137.710938 43.613281 L 137.710938 41.246094 L 138.476562 41.246094 L 138.476562 47.003906 L 137.710938 47.003906 L 137.710938 44.292969 L 134.71875 44.292969 L 134.71875 47.003906 L 133.957031 47.003906 "/>
<path style=" stroke:none;fill-rule:nonzero;fill:rgb(13.729858%,12.159729%,12.548828%);fill-opacity:1;" d="M 141.003906 48.699219 C 140.613281 48.207031 140.285156 47.628906 140.015625 46.96875 C 139.746094 46.308594 139.609375 45.628906 139.609375 44.917969 C 139.609375 44.296875 139.710938 43.699219 139.910156 43.128906 C 140.148438 42.464844 140.511719 41.804688 141.003906 41.148438 L 141.511719 41.148438 C 141.195312 41.695312 140.984375 42.082031 140.882812 42.316406 C 140.722656 42.675781 140.597656 43.054688 140.503906 43.449219 C 140.390625 43.9375 140.335938 44.429688 140.335938 44.921875 C 140.335938 46.183594 140.726562 47.441406 141.511719 48.699219 L 141.003906 48.699219 "/>
<path style=" stroke:none;fill-rule:nonzero;fill:rgb(13.729858%,12.159729%,12.548828%);fill-opacity:1;" d="M 142.050781 45.761719 L 142.746094 45.648438 C 142.785156 45.929688 142.894531 46.144531 143.074219 46.292969 C 143.253906 46.445312 143.503906 46.519531 143.828125 46.519531 C 144.152344 46.519531 144.394531 46.453125 144.550781 46.320312 C 144.707031 46.1875 144.785156 46.03125 144.785156 45.855469 C 144.785156 45.695312 144.71875 45.570312 144.578125 45.476562 C 144.480469 45.414062 144.238281 45.335938 143.855469 45.238281 C 143.335938 45.105469 142.976562 44.996094 142.777344 44.898438 C 142.578125 44.800781 142.425781 44.671875 142.320312 44.5 C 142.21875 44.332031 142.164062 44.144531 142.164062 43.941406 C 142.164062 43.753906 142.207031 43.585938 142.292969 43.425781 C 142.378906 43.265625 142.496094 43.136719 142.640625 43.03125 C 142.75 42.949219 142.902344 42.878906 143.089844 42.824219 C 143.28125 42.765625 143.484375 42.738281 143.703125 42.738281 C 144.027344 42.738281 144.316406 42.789062 144.5625 42.882812 C 144.8125 42.976562 144.996094 43.101562 145.113281 43.261719 C 145.230469 43.425781 145.3125 43.640625 145.355469 43.910156 L 144.664062 44.003906 C 144.632812 43.789062 144.542969 43.621094 144.390625 43.503906 C 144.242188 43.382812 144.027344 43.320312 143.753906 43.320312 C 143.429688 43.320312 143.195312 43.375 143.058594 43.480469 C 142.917969 43.589844 142.847656 43.714844 142.847656 43.859375 C 142.847656 43.953125 142.878906 44.03125 142.9375 44.105469 C 142.996094 44.183594 143.085938 44.246094 143.207031 44.296875 C 143.277344 44.320312 143.484375 44.382812 143.832031 44.476562 C 144.332031 44.609375 144.679688 44.71875 144.878906 44.804688 C 145.078125 44.886719 145.230469 45.011719 145.34375 45.175781 C 145.457031 45.335938 145.511719 45.539062 145.511719 45.78125 C 145.511719 46.015625 145.445312 46.238281 145.308594 46.445312 C 145.167969 46.652344 144.96875 46.816406 144.710938 46.929688 C 144.453125 47.042969 144.160156 47.097656 143.832031 47.097656 C 143.289062 47.097656 142.875 46.988281 142.59375 46.761719 C 142.308594 46.535156 142.125 46.203125 142.050781 45.761719 "/>
<path style=" stroke:none;fill-rule:nonzero;fill:rgb(13.729858%,12.159729%,12.548828%);fill-opacity:1;" d="M 146.816406 48.699219 L 146.308594 48.699219 C 147.09375 47.441406 147.484375 46.183594 147.484375 44.921875 C 147.484375 44.429688 147.429688 43.941406 147.316406 43.457031 C 147.226562 43.066406 147.101562 42.6875 146.941406 42.328125 C 146.839844 42.09375 146.628906 41.699219 146.308594 41.148438 L 146.816406 41.148438 C 147.308594 41.804688 147.671875 42.464844 147.910156 43.128906 C 148.109375 43.699219 148.210938 44.296875 148.210938 44.917969 C 148.210938 45.628906 148.074219 46.308594 147.804688 46.96875 C 147.535156 47.628906 147.203125 48.207031 146.816406 48.699219 "/>
<path style="fill:none;stroke-width:39.9997;stroke-linecap:butt;stroke-linejoin:miter;stroke:rgb(13.729858%,12.159729%,12.548828%);stroke-opacity:1;stroke-miterlimit:22.9256;" d="M 263.042822 796.141697 L 263.042822 1549.257653 " transform="matrix(0.033517,0,0,-0.033517,0.5,89.321)"/>
<path style=" stroke:none;fill-rule:evenodd;fill:rgb(13.729858%,12.159729%,12.548828%);fill-opacity:1;" d="M 5.8125 37.945312 L 9.316406 31.574219 L 12.820312 37.945312 Z M 5.8125 37.945312 "/>
<path style=" stroke:none;fill-rule:nonzero;fill:rgb(13.729858%,12.159729%,12.548828%);fill-opacity:1;" d="M 19.011719 29.160156 L 19.011719 28.636719 C 18.75 29.050781 18.359375 29.253906 17.847656 29.253906 C 17.515625 29.253906 17.207031 29.164062 16.929688 28.980469 C 16.652344 28.796875 16.433594 28.542969 16.28125 28.210938 C 16.128906 27.882812 16.050781 27.507812 16.050781 27.078125 C 16.050781 26.664062 16.121094 26.285156 16.257812 25.945312 C 16.398438 25.609375 16.605469 25.347656 16.882812 25.167969 C 17.160156 24.988281 17.472656 24.894531 17.816406 24.894531 C 18.066406 24.894531 18.289062 24.949219 18.484375 25.054688 C 18.683594 25.160156 18.84375 25.300781 18.964844 25.46875 L 18.964844 23.402344 L 19.667969 23.402344 L 19.667969 29.160156 Z M 16.777344 27.078125 C 16.777344 27.613281 16.890625 28.015625 17.117188 28.277344 C 17.339844 28.542969 17.605469 28.675781 17.914062 28.675781 C 18.222656 28.675781 18.484375 28.546875 18.699219 28.296875 C 18.917969 28.042969 19.023438 27.65625 19.023438 27.140625 C 19.023438 26.566406 18.914062 26.148438 18.695312 25.882812 C 18.476562 25.613281 18.203125 25.480469 17.882812 25.480469 C 17.566406 25.480469 17.304688 25.609375 17.09375 25.867188 C 16.882812 26.121094 16.777344 26.527344 16.777344 27.078125 "/>
<path style=" stroke:none;fill-rule:nonzero;fill:rgb(13.729858%,12.159729%,12.548828%);fill-opacity:1;" d="M 23.636719 27.820312 L 24.367188 27.910156 C 24.25 28.335938 24.039062 28.667969 23.726562 28.902344 C 23.414062 29.136719 23.015625 29.253906 22.53125 29.253906 C 21.921875 29.253906 21.4375 29.066406 21.082031 28.691406 C 20.722656 28.316406 20.546875 27.789062 20.546875 27.113281 C 20.546875 26.410156 20.726562 25.867188 21.085938 25.476562 C 21.449219 25.089844 21.917969 24.894531 22.492188 24.894531 C 23.050781 24.894531 23.507812 25.085938 23.859375 25.464844 C 24.214844 25.84375 24.390625 26.378906 24.390625 27.066406 C 24.390625 27.109375 24.390625 27.171875 24.386719 27.257812 L 21.277344 27.257812 C 21.300781 27.714844 21.429688 28.066406 21.664062 28.308594 C 21.898438 28.554688 22.1875 28.675781 22.535156 28.675781 C 22.796875 28.675781 23.015625 28.605469 23.199219 28.46875 C 23.382812 28.335938 23.527344 28.117188 23.636719 27.820312 Z M 21.316406 26.675781 L 23.644531 26.675781 C 23.613281 26.324219 23.523438 26.0625 23.375 25.886719 C 23.152344 25.613281 22.859375 25.476562 22.5 25.476562 C 22.175781 25.476562 21.902344 25.585938 21.683594 25.804688 C 21.460938 26.019531 21.339844 26.3125 21.316406 26.675781 "/>
<path style=" stroke:none;fill-rule:nonzero;fill:rgb(13.729858%,12.159729%,12.548828%);fill-opacity:1;" d="M 25.238281 29.160156 L 25.238281 23.402344 L 25.945312 23.402344 L 25.945312 29.160156 L 25.238281 29.160156 "/>
<path style=" stroke:none;fill-rule:nonzero;fill:rgb(13.729858%,12.159729%,12.548828%);fill-opacity:1;" d="M 28.585938 28.527344 L 28.6875 29.152344 C 28.488281 29.195312 28.3125 29.21875 28.152344 29.21875 C 27.894531 29.21875 27.699219 29.175781 27.554688 29.09375 C 27.414062 29.015625 27.316406 28.90625 27.257812 28.773438 C 27.199219 28.644531 27.171875 28.363281 27.171875 27.941406 L 27.171875 25.539062 L 26.652344 25.539062 L 26.652344 24.992188 L 27.171875 24.992188 L 27.171875 23.957031 L 27.875 23.535156 L 27.875 24.992188 L 28.585938 24.992188 L 28.585938 25.539062 L 27.875 25.539062 L 27.875 27.980469 C 27.875 28.183594 27.886719 28.3125 27.910156 28.367188 C 27.9375 28.425781 27.976562 28.472656 28.03125 28.507812 C 28.089844 28.539062 28.167969 28.558594 28.273438 28.558594 C 28.355469 28.558594 28.457031 28.546875 28.585938 28.527344 "/>
<path style=" stroke:none;fill-rule:nonzero;fill:rgb(13.729858%,12.159729%,12.548828%);fill-opacity:1;" d="M 32 28.648438 C 31.734375 28.871094 31.484375 29.027344 31.242188 29.117188 C 31 29.210938 30.738281 29.253906 30.460938 29.253906 C 30.003906 29.253906 29.652344 29.144531 29.40625 28.921875 C 29.160156 28.695312 29.039062 28.410156 29.039062 28.0625 C 29.039062 27.859375 29.082031 27.671875 29.175781 27.503906 C 29.269531 27.332031 29.390625 27.199219 29.542969 27.097656 C 29.691406 26.992188 29.863281 26.917969 30.050781 26.863281 C 30.1875 26.828125 30.398438 26.792969 30.679688 26.757812 C 31.25 26.691406 31.671875 26.609375 31.941406 26.515625 C 31.941406 26.417969 31.945312 26.355469 31.945312 26.332031 C 31.945312 26.042969 31.875 25.839844 31.742188 25.722656 C 31.5625 25.5625 31.292969 25.480469 30.9375 25.480469 C 30.605469 25.480469 30.359375 25.539062 30.199219 25.65625 C 30.042969 25.773438 29.925781 25.980469 29.851562 26.277344 L 29.160156 26.179688 C 29.222656 25.886719 29.324219 25.644531 29.46875 25.464844 C 29.613281 25.28125 29.820312 25.140625 30.09375 25.042969 C 30.367188 24.945312 30.679688 24.894531 31.039062 24.894531 C 31.398438 24.894531 31.683594 24.9375 31.90625 25.023438 C 32.128906 25.105469 32.292969 25.210938 32.398438 25.339844 C 32.503906 25.464844 32.578125 25.625 32.621094 25.820312 C 32.640625 25.941406 32.65625 26.15625 32.65625 26.472656 L 32.65625 27.414062 C 32.65625 28.070312 32.667969 28.488281 32.699219 28.660156 C 32.730469 28.835938 32.789062 29.003906 32.878906 29.160156 L 32.140625 29.160156 C 32.066406 29.015625 32.019531 28.84375 32 28.648438 Z M 31.941406 27.066406 C 31.683594 27.171875 31.296875 27.261719 30.785156 27.335938 C 30.496094 27.378906 30.289062 27.425781 30.167969 27.476562 C 30.046875 27.527344 29.953125 27.605469 29.890625 27.707031 C 29.824219 27.808594 29.789062 27.917969 29.789062 28.042969 C 29.789062 28.230469 29.863281 28.386719 30.003906 28.515625 C 30.148438 28.640625 30.355469 28.703125 30.632812 28.703125 C 30.902344 28.703125 31.144531 28.644531 31.359375 28.523438 C 31.570312 28.40625 31.726562 28.242188 31.824219 28.035156 C 31.902344 27.875 31.941406 27.640625 31.941406 27.328125 L 31.941406 27.066406 "/>
<path style=" stroke:none;fill-rule:nonzero;fill:rgb(13.729858%,12.159729%,12.548828%);fill-opacity:1;" d="M 16.308594 39.746094 L 16.308594 33.976562 L 16.949219 33.976562 L 16.949219 34.519531 C 17.101562 34.308594 17.273438 34.148438 17.464844 34.042969 C 17.65625 33.9375 17.886719 33.882812 18.160156 33.882812 C 18.515625 33.882812 18.832031 33.976562 19.101562 34.15625 C 19.375 34.339844 19.582031 34.601562 19.71875 34.933594 C 19.859375 35.265625 19.929688 35.632812 19.929688 36.03125 C 19.929688 36.457031 19.851562 36.84375 19.699219 37.183594 C 19.546875 37.527344 19.324219 37.789062 19.03125 37.96875 C 18.738281 38.152344 18.429688 38.242188 18.109375 38.242188 C 17.875 38.242188 17.664062 38.191406 17.476562 38.09375 C 17.289062 37.996094 17.136719 37.867188 17.015625 37.71875 L 17.015625 39.746094 Z M 16.945312 36.085938 C 16.945312 36.621094 17.054688 37.019531 17.273438 37.277344 C 17.488281 37.535156 17.753906 37.660156 18.0625 37.660156 C 18.375 37.660156 18.644531 37.527344 18.871094 37.261719 C 19.09375 36.996094 19.207031 36.585938 19.207031 36.027344 C 19.207031 35.496094 19.097656 35.097656 18.878906 34.832031 C 18.660156 34.570312 18.398438 34.4375 18.09375 34.4375 C 17.792969 34.4375 17.527344 34.578125 17.292969 34.859375 C 17.0625 35.140625 16.945312 35.550781 16.945312 36.085938 "/>
<path style=" stroke:none;fill-rule:nonzero;fill:rgb(13.729858%,12.159729%,12.548828%);fill-opacity:1;" d="M 23.515625 38.148438 L 23.515625 37.535156 C 23.1875 38.007812 22.75 38.242188 22.191406 38.242188 C 21.945312 38.242188 21.714844 38.195312 21.5 38.101562 C 21.289062 38.007812 21.128906 37.886719 21.027344 37.746094 C 20.921875 37.601562 20.851562 37.429688 20.808594 37.222656 C 20.78125 37.082031 20.765625 36.863281 20.765625 36.5625 L 20.765625 33.976562 L 21.472656 33.976562 L 21.472656 36.289062 C 21.472656 36.660156 21.488281 36.910156 21.515625 37.039062 C 21.558594 37.222656 21.652344 37.367188 21.796875 37.476562 C 21.941406 37.582031 22.121094 37.632812 22.332031 37.632812 C 22.542969 37.632812 22.742188 37.582031 22.929688 37.472656 C 23.117188 37.363281 23.246094 37.214844 23.324219 37.027344 C 23.402344 36.839844 23.441406 36.566406 23.441406 36.210938 L 23.441406 33.976562 L 24.148438 33.976562 L 24.148438 38.148438 L 23.515625 38.148438 "/>
<path style=" stroke:none;fill-rule:nonzero;fill:rgb(13.729858%,12.159729%,12.548828%);fill-opacity:1;" d="M 25.238281 38.148438 L 25.238281 32.390625 L 25.945312 32.390625 L 25.945312 38.148438 L 25.238281 38.148438 "/>
<path style=" stroke:none;fill-rule:nonzero;fill:rgb(13.729858%,12.159729%,12.548828%);fill-opacity:1;" d="M 26.757812 36.902344 L 27.457031 36.792969 C 27.496094 37.074219 27.605469 37.289062 27.785156 37.4375 C 27.964844 37.585938 28.214844 37.660156 28.539062 37.660156 C 28.863281 37.660156 29.105469 37.59375 29.261719 37.464844 C 29.417969 37.332031 29.496094 37.175781 29.496094 37 C 29.496094 36.835938 29.425781 36.710938 29.289062 36.621094 C 29.191406 36.558594 28.949219 36.476562 28.566406 36.382812 C 28.046875 36.25 27.6875 36.136719 27.488281 36.042969 C 27.289062 35.945312 27.136719 35.8125 27.03125 35.644531 C 26.929688 35.476562 26.875 35.289062 26.875 35.085938 C 26.875 34.898438 26.917969 34.726562 27.003906 34.570312 C 27.089844 34.410156 27.207031 34.277344 27.351562 34.171875 C 27.460938 34.09375 27.613281 34.023438 27.800781 33.96875 C 27.992188 33.910156 28.195312 33.882812 28.414062 33.882812 C 28.738281 33.882812 29.027344 33.929688 29.273438 34.023438 C 29.523438 34.117188 29.703125 34.246094 29.824219 34.40625 C 29.941406 34.570312 30.019531 34.785156 30.066406 35.054688 L 29.375 35.148438 C 29.34375 34.933594 29.25 34.765625 29.101562 34.644531 C 28.953125 34.523438 28.738281 34.464844 28.464844 34.464844 C 28.140625 34.464844 27.90625 34.519531 27.769531 34.625 C 27.628906 34.734375 27.558594 34.859375 27.558594 35.003906 C 27.558594 35.09375 27.589844 35.175781 27.648438 35.25 C 27.703125 35.328125 27.792969 35.386719 27.917969 35.4375 C 27.988281 35.464844 28.195312 35.523438 28.542969 35.617188 C 29.042969 35.753906 29.390625 35.863281 29.589844 35.945312 C 29.785156 36.03125 29.941406 36.15625 30.054688 36.320312 C 30.167969 36.480469 30.222656 36.683594 30.222656 36.921875 C 30.222656 37.160156 30.152344 37.378906 30.015625 37.589844 C 29.878906 37.796875 29.679688 37.957031 29.421875 38.070312 C 29.164062 38.1875 28.871094 38.242188 28.542969 38.242188 C 28 38.242188 27.585938 38.128906 27.300781 37.90625 C 27.019531 37.679688 26.835938 37.34375 26.757812 36.902344 "/>
<path style=" stroke:none;fill-rule:nonzero;fill:rgb(13.729858%,12.159729%,12.548828%);fill-opacity:1;" d="M 33.917969 36.804688 L 34.648438 36.894531 C 34.535156 37.324219 34.320312 37.652344 34.011719 37.890625 C 33.699219 38.125 33.300781 38.242188 32.816406 38.242188 C 32.207031 38.242188 31.722656 38.054688 31.363281 37.679688 C 31.007812 37.304688 30.828125 36.777344 30.828125 36.097656 C 30.828125 35.394531 31.007812 34.851562 31.371094 34.464844 C 31.730469 34.078125 32.199219 33.882812 32.777344 33.882812 C 33.335938 33.882812 33.789062 34.074219 34.144531 34.453125 C 34.496094 34.832031 34.671875 35.367188 34.671875 36.054688 C 34.671875 36.097656 34.671875 36.160156 34.667969 36.242188 L 31.558594 36.242188 C 31.585938 36.703125 31.714844 37.054688 31.949219 37.296875 C 32.179688 37.539062 32.472656 37.660156 32.820312 37.660156 C 33.078125 37.660156 33.300781 37.59375 33.484375 37.457031 C 33.667969 37.320312 33.8125 37.105469 33.917969 36.804688 Z M 31.597656 35.660156 L 33.925781 35.660156 C 33.894531 35.3125 33.804688 35.046875 33.660156 34.875 C 33.433594 34.601562 33.140625 34.464844 32.785156 34.464844 C 32.460938 34.464844 32.1875 34.574219 31.964844 34.789062 C 31.746094 35.007812 31.621094 35.296875 31.597656 35.660156 "/>
<path style="fill:none;stroke-width:19.9984;stroke-linecap:butt;stroke-linejoin:miter;stroke:rgb(13.729858%,12.159729%,12.548828%);stroke-opacity:1;stroke-miterlimit:22.9256;" d="M 2315.872356 1469.074462 L 2869.928879 1469.074462 " transform="matrix(0.033517,0,0,-0.033517,0.5,89.321)"/>
<path style=" stroke:none;fill-rule:evenodd;fill:rgb(13.729858%,12.159729%,12.548828%);fill-opacity:1;" d="M 96.414062 38.328125 L 99.601562 40.082031 L 96.414062 41.835938 Z M 96.414062 38.328125 "/>
<path style="fill:none;stroke-width:19.9984;stroke-linecap:butt;stroke-linejoin:miter;stroke:rgb(13.729858%,12.159729%,12.548828%);stroke-opacity:1;stroke-miterlimit:22.9256;" d="M 4499.11612 1433.528135 L 5053.172644 1433.528135 " transform="matrix(0.033517,0,0,-0.033517,0.5,89.321)"/>
<path style=" stroke:none;fill-rule:evenodd;fill:rgb(13.729858%,12.159729%,12.548828%);fill-opacity:1;" d="M 169.589844 39.523438 L 172.777344 41.273438 L 169.589844 43.027344 Z M 169.589844 39.523438 "/>
<path style=" stroke:none;fill-rule:nonzero;fill:rgb(13.729858%,12.159729%,12.548828%);fill-opacity:1;" d="M 3.65625 33.671875 L 2.949219 33.671875 L 2.949219 29.167969 C 2.78125 29.328125 2.558594 29.492188 2.28125 29.652344 C 2.003906 29.816406 1.753906 29.9375 1.535156 30.019531 L 1.535156 29.335938 C 1.929688 29.148438 2.277344 28.921875 2.574219 28.660156 C 2.867188 28.394531 3.078125 28.136719 3.203125 27.890625 L 3.65625 27.890625 L 3.65625 33.671875 "/>
<path style="fill:none;stroke-width:19.9984;stroke-linecap:butt;stroke-linejoin:miter;stroke:rgb(13.729858%,12.159729%,12.548828%);stroke-opacity:1;stroke-miterlimit:22.9256;" d="M 138.222768 1732.350374 L 417.465391 1732.350374 " transform="matrix(0.033517,0,0,-0.033517,0.5,89.321)"/>
</g>
</svg>
