<?xml version="1.0" encoding="UTF-8"?>
<svg xmlns="http://www.w3.org/2000/svg" xmlns:xlink="http://www.w3.org/1999/xlink" width="348.696pt" height="82.721pt" viewBox="0 0 348.696 82.721" version="1.2">
<defs>
<clipPath id="clip1">
  <path d="M 0.5 8 L 7 8 L 7 14 L 0.5 14 Z M 0.5 8 "/>
</clipPath>
<clipPath id="clip2">
  <path d="M 0.5 0.5 L 113 0.5 L 113 82.222656 L 0.5 82.222656 Z M 0.5 0.5 "/>
</clipPath>
<clipPath id="clip3">
  <path d="M 37 0.5 L 158 0.5 L 158 82.222656 L 37 82.222656 Z M 37 0.5 "/>
</clipPath>
<clipPath id="clip4">
  <path d="M 84 0.5 L 205 0.5 L 205 82.222656 L 84 82.222656 Z M 84 0.5 "/>
</clipPath>
<clipPath id="clip5">
  <path d="M 139 0.5 L 260 0.5 L 260 82.222656 L 139 82.222656 Z M 139 0.5 "/>
</clipPath>
<clipPath id="clip6">
  <path d="M 217 0.5 L 338 0.5 L 338 82.222656 L 217 82.222656 Z M 217 0.5 "/>
</clipPath>
<clipPath id="clip7">
  <path d="M 0.5 0.5 L 106 0.5 L 106 64 L 0.5 64 Z M 0.5 0.5 "/>
</clipPath>
<clipPath id="clip8">
  <path d="M 44 0.5 L 151 0.5 L 151 63 L 44 63 Z M 44 0.5 "/>
</clipPath>
<clipPath id="clip9">
  <path d="M 92 0.5 L 198 0.5 L 198 63 L 92 63 Z M 92 0.5 "/>
</clipPath>
<clipPath id="clip10">
  <path d="M 147 0.5 L 254 0.5 L 254 62 L 147 62 Z M 147 0.5 "/>
</clipPath>
</defs>
<g id="surface1">
<path style="fill:none;stroke-width:21.6;stroke-linecap:butt;stroke-linejoin:miter;stroke:rgb(13.729858%,12.159729%,12.548828%);stroke-opacity:1;stroke-miterlimit:22.9256;" d="M 1011.33342 1034.517884 L 1011.33342 845.880894 L 802.530563 845.880894 L 802.530563 1034.517884 Z M 1011.33342 1034.517884 " transform="matrix(0.077095,0,0,-0.077095,0.5,82.221)"/>
<path style="fill:none;stroke-width:21.6;stroke-linecap:butt;stroke-linejoin:miter;stroke:rgb(13.729858%,12.159729%,12.548828%);stroke-opacity:1;stroke-miterlimit:22.9256;" d="M 1622.136244 1041.003389 L 1622.136244 852.366399 L 1413.384055 852.366399 L 1413.384055 1041.003389 Z M 1622.136244 1041.003389 " transform="matrix(0.077095,0,0,-0.077095,0.5,82.221)"/>
<path style="fill:none;stroke-width:21.6;stroke-linecap:butt;stroke-linejoin:miter;stroke:rgb(13.729858%,12.159729%,12.548828%);stroke-opacity:1;stroke-miterlimit:22.9256;" d="M 2334.731095 1041.459401 L 2334.731095 852.822411 L 2125.928238 852.822411 L 2125.928238 1041.459401 Z M 2334.731095 1041.459401 " transform="matrix(0.077095,0,0,-0.077095,0.5,82.221)"/>
<path style="fill:none;stroke-width:21.6;stroke-linecap:butt;stroke-linejoin:miter;stroke:rgb(13.729858%,12.159729%,12.548828%);stroke-opacity:1;stroke-miterlimit:22.9256;" d="M 3346.469859 1041.966081 L 3346.469859 853.329091 L 3137.667002 853.329091 L 3137.667002 1041.966081 Z M 3346.469859 1041.966081 " transform="matrix(0.077095,0,0,-0.077095,0.5,82.221)"/>
<path style="fill:none;stroke-width:29.6167;stroke-linecap:butt;stroke-linejoin:miter;stroke:rgb(13.729858%,12.159729%,12.548828%);stroke-opacity:1;stroke-miterlimit:22.9256;" d="M 924.478992 723.509856 L 924.478992 529.997848 " transform="matrix(0.0562268,0,0,-0.0979631,0.5,82.221)"/>
<path style="fill:none;stroke-width:20.0262;stroke-linecap:butt;stroke-linejoin:miter;stroke:rgb(13.729858%,12.159729%,12.548828%);stroke-opacity:1;stroke-miterlimit:22.9256;" d="M -1261.324709 701.410987 L -1261.324709 937.065515 L -1010.941813 937.065515 " transform="matrix(-0.0772099,0,0,-0.0769797,0.5,82.221)"/>
<path style="fill:none;stroke-width:20.0262;stroke-linecap:butt;stroke-linejoin:miter;stroke:rgb(13.729858%,12.159729%,12.548828%);stroke-opacity:1;stroke-miterlimit:22.9256;" d="M -1871.269384 707.855458 L -1871.269384 943.56073 L -1620.886488 943.56073 " transform="matrix(-0.0772099,0,0,-0.0769797,0.5,82.221)"/>
<path style="fill:none;stroke-width:20.0262;stroke-linecap:butt;stroke-linejoin:miter;stroke:rgb(13.729858%,12.159729%,12.548828%);stroke-opacity:1;stroke-miterlimit:22.9256;" d="M -2582.804048 708.362897 L -2582.804048 944.017425 L -2332.370559 944.017425 " transform="matrix(-0.0772099,0,0,-0.0769797,0.5,82.221)"/>
<path style="fill:none;stroke-width:20.0262;stroke-linecap:butt;stroke-linejoin:miter;stroke:rgb(13.729858%,12.159729%,12.548828%);stroke-opacity:1;stroke-miterlimit:22.9256;" d="M -3593.037563 708.870336 L -3593.037563 944.524864 L -3342.654667 944.524864 " transform="matrix(-0.0772099,0,0,-0.0769797,0.5,82.221)"/>
<path style=" stroke:none;fill-rule:evenodd;fill:rgb(13.729858%,12.159729%,12.548828%);fill-opacity:1;" d="M 72.859375 6.460938 L 72.859375 7.292969 L 70.585938 7.292969 L 70.585938 13.121094 L 69.695312 13.121094 L 69.695312 7.292969 L 67.421875 7.292969 L 67.421875 6.460938 L 72.859375 6.460938 "/>
<path style=" stroke:none;fill-rule:evenodd;fill:rgb(13.729858%,12.159729%,12.548828%);fill-opacity:1;" d="M 119.953125 5.960938 L 119.953125 6.796875 L 117.675781 6.796875 L 117.675781 12.625 L 116.789062 12.625 L 116.789062 6.796875 L 114.515625 6.796875 L 114.515625 5.960938 L 119.953125 5.960938 "/>
<path style=" stroke:none;fill-rule:evenodd;fill:rgb(13.729858%,12.159729%,12.548828%);fill-opacity:1;" d="M 174.890625 5.925781 L 174.890625 6.757812 L 172.613281 6.757812 L 172.613281 12.585938 L 171.726562 12.585938 L 171.726562 6.757812 L 169.449219 6.757812 L 169.449219 5.925781 L 174.890625 5.925781 "/>
<path style=" stroke:none;fill-rule:evenodd;fill:rgb(13.729858%,12.159729%,12.548828%);fill-opacity:1;" d="M 252.890625 5.886719 L 252.890625 6.71875 L 250.617188 6.71875 L 250.617188 12.546875 L 249.726562 12.546875 L 249.726562 6.71875 L 247.453125 6.71875 L 247.453125 5.886719 L 252.890625 5.886719 "/>
<g clip-path="url(#clip1)" clip-rule="nonzero">
<path style=" stroke:none;fill-rule:evenodd;fill:rgb(13.729858%,12.159729%,12.548828%);fill-opacity:1;" d="M 1.058594 8.039062 L 2.953125 10.6875 L 0.996094 13.527344 L 2.132812 13.527344 L 3.457031 11.445312 L 4.84375 13.527344 L 6.042969 13.527344 L 4.089844 10.6875 L 5.980469 8.039062 L 4.78125 8.039062 L 3.519531 9.933594 L 2.257812 8.039062 L 1.058594 8.039062 "/>
</g>
<path style=" stroke:none;fill-rule:evenodd;fill:rgb(13.729858%,12.159729%,12.548828%);fill-opacity:1;" d="M 9.261719 5.832031 L 8.632812 5.832031 L 8.570312 5.894531 C 8 6.714844 7.875 6.964844 7.621094 7.472656 C 7.117188 8.605469 6.863281 9.554688 6.863281 10.75 C 6.863281 11.445312 6.929688 12.078125 7.117188 12.707031 C 7.371094 13.527344 7.683594 14.222656 8.503906 15.484375 L 8.632812 15.671875 L 9.324219 15.671875 L 9.074219 15.230469 C 8.882812 14.917969 8.757812 14.539062 8.570312 14.222656 C 8.0625 13.085938 7.875 12.140625 7.875 10.878906 C 7.875 10.058594 7.9375 9.175781 8.125 8.542969 C 8.253906 8.039062 8.378906 7.535156 8.632812 7.09375 C 8.695312 6.902344 8.882812 6.523438 9.136719 6.019531 C 9.199219 5.957031 9.199219 5.894531 9.261719 5.832031 "/>
<path style=" stroke:none;fill-rule:evenodd;fill:rgb(13.729858%,12.159729%,12.548828%);fill-opacity:1;" d="M 10.523438 6.460938 L 10.523438 8.039062 L 9.765625 8.039062 L 9.765625 8.796875 L 10.523438 8.796875 L 10.523438 12.519531 C 10.523438 13.210938 10.902344 13.589844 11.597656 13.589844 C 11.914062 13.589844 11.976562 13.589844 12.355469 13.527344 L 12.355469 12.769531 C 12.226562 12.769531 12.101562 12.769531 11.976562 12.769531 C 11.660156 12.769531 11.46875 12.707031 11.46875 12.519531 L 11.46875 8.796875 L 12.355469 8.796875 L 12.355469 8.039062 L 11.46875 8.039062 L 11.46875 6.460938 L 10.523438 6.460938 "/>
<path style=" stroke:none;fill-rule:evenodd;fill:rgb(13.729858%,12.159729%,12.548828%);fill-opacity:1;" d="M 13.554688 5.832031 L 12.921875 5.832031 C 13.046875 6.019531 13.113281 6.144531 13.175781 6.273438 C 13.488281 6.902344 13.742188 7.472656 13.867188 7.851562 C 13.996094 8.101562 14.058594 8.355469 14.121094 8.671875 C 14.308594 9.363281 14.375 9.804688 14.375 10.5625 C 14.375 11.445312 14.246094 12.390625 14.121094 13.023438 C 13.933594 13.78125 13.554688 14.664062 12.984375 15.609375 L 12.921875 15.671875 L 13.617188 15.671875 L 13.679688 15.609375 C 14.878906 13.90625 15.382812 12.390625 15.382812 10.6875 C 15.382812 10.058594 15.257812 9.363281 15.128906 8.796875 C 14.941406 8.164062 14.4375 7.15625 14.058594 6.585938 L 13.617188 5.894531 L 13.554688 5.832031 "/>
<path style=" stroke:none;fill-rule:evenodd;fill:rgb(13.729858%,12.159729%,12.548828%);fill-opacity:1;" d="M 331.601562 69.214844 L 333.894531 75.59375 C 333.824219 75.878906 333.75 76.023438 333.679688 76.167969 L 333.535156 76.453125 C 333.320312 76.953125 333.179688 77.097656 332.75 77.097656 C 332.535156 77.097656 332.390625 77.027344 332.175781 76.953125 L 332.175781 77.886719 C 332.460938 78.027344 332.535156 78.027344 332.820312 78.027344 C 333.105469 78.027344 333.394531 77.957031 333.609375 77.886719 C 334.039062 77.742188 334.324219 77.167969 334.828125 75.878906 C 334.96875 75.523438 335.113281 75.234375 335.183594 74.949219 C 335.398438 74.519531 335.472656 74.230469 335.542969 74.160156 L 337.332031 69.214844 L 336.117188 69.214844 L 334.46875 74.304688 L 332.820312 69.214844 L 331.601562 69.214844 "/>
<path style=" stroke:none;fill-rule:evenodd;fill:rgb(13.729858%,12.159729%,12.548828%);fill-opacity:1;" d="M 340.988281 67.378906 L 340.273438 67.378906 L 340.199219 67.449219 C 339.554688 68.378906 339.410156 68.667969 339.125 69.242188 C 338.550781 70.53125 338.265625 71.605469 338.265625 72.964844 C 338.265625 73.753906 338.335938 74.472656 338.550781 75.1875 C 338.839844 76.117188 339.195312 76.90625 340.128906 78.339844 L 340.273438 78.554688 L 341.058594 78.554688 L 340.773438 78.054688 C 340.558594 77.695312 340.414062 77.265625 340.199219 76.90625 C 339.625 75.617188 339.410156 74.542969 339.410156 73.109375 C 339.410156 72.179688 339.484375 71.175781 339.699219 70.457031 C 339.839844 69.886719 339.984375 69.3125 340.273438 68.8125 C 340.34375 68.59375 340.558594 68.164062 340.84375 67.59375 C 340.917969 67.519531 340.917969 67.449219 340.988281 67.378906 "/>
<path style=" stroke:none;fill-rule:evenodd;fill:rgb(13.729858%,12.159729%,12.548828%);fill-opacity:1;" d="M 342.421875 68.09375 L 342.421875 69.886719 L 341.5625 69.886719 L 341.5625 70.746094 L 342.421875 70.746094 L 342.421875 74.972656 C 342.421875 75.761719 342.851562 76.191406 343.640625 76.191406 C 343.996094 76.191406 344.070312 76.191406 344.496094 76.117188 L 344.496094 75.257812 C 344.355469 75.257812 344.210938 75.257812 344.070312 75.257812 C 343.710938 75.257812 343.496094 75.1875 343.496094 74.972656 L 343.496094 70.746094 L 344.496094 70.746094 L 344.496094 69.886719 L 343.496094 69.886719 L 343.496094 68.09375 L 342.421875 68.09375 "/>
<path style=" stroke:none;fill-rule:evenodd;fill:rgb(13.729858%,12.159729%,12.548828%);fill-opacity:1;" d="M 345.859375 67.378906 L 345.144531 67.378906 C 345.285156 67.59375 345.359375 67.734375 345.429688 67.878906 C 345.789062 68.59375 346.074219 69.242188 346.21875 69.671875 C 346.359375 69.957031 346.433594 70.242188 346.503906 70.601562 C 346.71875 71.390625 346.789062 71.890625 346.789062 72.75 C 346.789062 73.753906 346.648438 74.828125 346.503906 75.546875 C 346.289062 76.40625 345.859375 77.40625 345.214844 78.484375 L 345.144531 78.554688 L 345.929688 78.554688 L 346.003906 78.484375 C 347.363281 76.546875 347.9375 74.828125 347.9375 72.894531 C 347.9375 72.179688 347.792969 71.390625 347.652344 70.746094 C 347.4375 70.027344 346.863281 68.882812 346.433594 68.238281 L 345.929688 67.449219 L 345.859375 67.378906 "/>
<path style="fill:none;stroke-width:20.0364;stroke-linecap:butt;stroke-linejoin:miter;stroke:rgb(13.729858%,12.159729%,12.548828%);stroke-opacity:1;stroke-miterlimit:22.9256;" d="M 227.000764 928.168656 L 683.834744 928.168656 " transform="matrix(0.0772299,0,0,-0.0769601,0.5,82.221)"/>
<path style="fill:none;stroke-width:16.9418;stroke-linecap:butt;stroke-linejoin:miter;stroke:rgb(13.729858%,12.159729%,12.548828%);stroke-opacity:1;stroke-miterlimit:22.9256;" d="M 3444.438337 805.500928 L 3830.719507 805.500928 " transform="matrix(0.0631725,0,0,-0.0910176,0.5,82.221)"/>
<path style="fill:none;stroke-width:12.4391;stroke-linecap:butt;stroke-linejoin:miter;stroke:rgb(13.729858%,12.159729%,12.548828%);stroke-opacity:1;stroke-miterlimit:22.9256;" d="M 6579.663143 587.700732 L 6863.206923 587.700732 " transform="matrix(0.0302257,0,0,-0.123964,0.5,82.221)"/>
<path style="fill:none;stroke-width:13.3987;stroke-linecap:butt;stroke-linejoin:miter;stroke:rgb(13.729858%,12.159729%,12.548828%);stroke-opacity:1;stroke-miterlimit:22.9256;" d="M 2485.356452 629.033542 L 2790.831534 629.033542 " transform="matrix(0.039104,0,0,-0.115086,0.5,82.221)"/>
<path style="fill:none;stroke-width:14.9767;stroke-linecap:butt;stroke-linejoin:miter;stroke:rgb(13.729858%,12.159729%,12.548828%);stroke-opacity:1;stroke-miterlimit:22.9256;" d="M 2843.334484 703.460679 L 3184.77862 703.460679 " transform="matrix(0.05123,0,0,-0.10296,0.5,82.221)"/>
<path style="fill:none;stroke-width:20.0013;stroke-linecap:butt;stroke-linejoin:miter;stroke:rgb(13.729858%,12.159729%,12.548828%);stroke-opacity:1;stroke-miterlimit:22.9256;" d="M 538.70225 238.523494 L 4061.091429 238.523494 L 4061.091429 16.749627 L 538.70225 16.749627 Z M 538.70225 238.523494 " transform="matrix(0.077095,0,0,-0.077095,0.5,82.221)"/>
<path style=" stroke:none;fill-rule:nonzero;fill:rgb(13.729858%,12.159729%,12.548828%);fill-opacity:1;" d="M 177.894531 76.371094 L 170.984375 76.371094 L 170.984375 76.121094 L 174.527344 71.875 L 170.984375 67.429688 L 170.984375 67.183594 L 177.6875 67.183594 L 177.894531 69.476562 L 177.617188 69.476562 C 177.550781 68.851562 177.375 68.40625 177.097656 68.136719 C 176.820312 67.871094 176.421875 67.742188 175.894531 67.742188 L 172.738281 67.742188 L 175.632812 71.378906 L 172.375 75.300781 L 175.960938 75.300781 C 176.5625 75.300781 177.015625 75.1875 177.316406 74.964844 C 177.617188 74.738281 177.867188 74.3125 178.066406 73.6875 L 178.316406 73.742188 L 177.894531 76.371094 "/>
<g clip-path="url(#clip2)" clip-rule="nonzero">
<path style="fill:none;stroke-width:20.0013;stroke-linecap:butt;stroke-linejoin:miter;stroke:rgb(13.729858%,12.159729%,12.548828%);stroke-opacity:1;stroke-miterlimit:22.9256;" d="M 673.124473 455.179892 L 803.949267 681.767219 L 542.299679 681.767219 Z M 673.124473 455.179892 " transform="matrix(0.077095,0,0,-0.077095,0.5,82.221)"/>
</g>
<g clip-path="url(#clip3)" clip-rule="nonzero">
<path style="fill:none;stroke-width:20.0013;stroke-linecap:butt;stroke-linejoin:miter;stroke:rgb(13.729858%,12.159729%,12.548828%);stroke-opacity:1;stroke-miterlimit:22.9256;" d="M 1261.126694 467.188209 L 1391.951488 693.775537 L 1130.352568 693.775537 Z M 1261.126694 467.188209 " transform="matrix(0.077095,0,0,-0.077095,0.5,82.221)"/>
</g>
<g clip-path="url(#clip4)" clip-rule="nonzero">
<path style="fill:none;stroke-width:20.0013;stroke-linecap:butt;stroke-linejoin:miter;stroke:rgb(13.729858%,12.159729%,12.548828%);stroke-opacity:1;stroke-miterlimit:22.9256;" d="M 1871.980187 473.623046 L 2002.804981 700.210374 L 1741.155393 700.210374 Z M 1871.980187 473.623046 " transform="matrix(0.077095,0,0,-0.077095,0.5,82.221)"/>
</g>
<g clip-path="url(#clip5)" clip-rule="nonzero">
<path style="fill:none;stroke-width:20.0013;stroke-linecap:butt;stroke-linejoin:miter;stroke:rgb(13.729858%,12.159729%,12.548828%);stroke-opacity:1;stroke-miterlimit:22.9256;" d="M 2584.575037 474.129726 L 2715.399831 700.717054 L 2453.750243 700.717054 Z M 2584.575037 474.129726 " transform="matrix(0.077095,0,0,-0.077095,0.5,82.221)"/>
</g>
<g clip-path="url(#clip6)" clip-rule="nonzero">
<path style="fill:none;stroke-width:20.0013;stroke-linecap:butt;stroke-linejoin:miter;stroke:rgb(13.729858%,12.159729%,12.548828%);stroke-opacity:1;stroke-miterlimit:22.9256;" d="M 3596.313801 474.585738 L 3727.138595 701.173066 L 3465.539675 701.173066 Z M 3596.313801 474.585738 " transform="matrix(0.077095,0,0,-0.077095,0.5,82.221)"/>
</g>
<path style="fill:none;stroke-width:20.0013;stroke-linecap:butt;stroke-linejoin:miter;stroke:rgb(13.729858%,12.159729%,12.548828%);stroke-opacity:1;stroke-miterlimit:22.9256;" d="M 673.124473 451.683799 L 673.124473 323.392405 " transform="matrix(0.077095,0,0,-0.077095,0.5,82.221)"/>
<path style=" stroke:none;fill-rule:evenodd;fill:rgb(13.729858%,12.159729%,12.548828%);fill-opacity:1;" d="M 56.421875 56.652344 L 52.394531 63.980469 L 48.363281 56.652344 Z M 56.421875 56.652344 "/>
<path style="fill:none;stroke-width:20.0013;stroke-linecap:butt;stroke-linejoin:miter;stroke:rgb(13.729858%,12.159729%,12.548828%);stroke-opacity:1;stroke-miterlimit:22.9256;" d="M 1262.596067 465.110821 L 1262.596067 323.392405 " transform="matrix(0.077095,0,0,-0.077095,0.5,82.221)"/>
<path style=" stroke:none;fill-rule:evenodd;fill:rgb(13.729858%,12.159729%,12.548828%);fill-opacity:1;" d="M 101.871094 56.652344 L 97.839844 63.980469 L 93.8125 56.652344 Z M 101.871094 56.652344 "/>
<path style="fill:none;stroke-width:20.0013;stroke-linecap:butt;stroke-linejoin:miter;stroke:rgb(13.729858%,12.159729%,12.548828%);stroke-opacity:1;stroke-miterlimit:22.9256;" d="M 1873.449559 471.596326 L 1873.449559 329.87791 " transform="matrix(0.077095,0,0,-0.077095,0.5,82.221)"/>
<path style=" stroke:none;fill-rule:evenodd;fill:rgb(13.729858%,12.159729%,12.548828%);fill-opacity:1;" d="M 148.964844 56.152344 L 144.933594 63.480469 L 140.902344 56.152344 Z M 148.964844 56.152344 "/>
<path style="fill:none;stroke-width:20.0013;stroke-linecap:butt;stroke-linejoin:miter;stroke:rgb(13.729858%,12.159729%,12.548828%);stroke-opacity:1;stroke-miterlimit:22.9256;" d="M 2586.044409 472.052338 L 2586.044409 330.38459 " transform="matrix(0.077095,0,0,-0.077095,0.5,82.221)"/>
<path style=" stroke:none;fill-rule:evenodd;fill:rgb(13.729858%,12.159729%,12.548828%);fill-opacity:1;" d="M 203.902344 56.117188 L 199.871094 63.445312 L 195.839844 56.117188 Z M 203.902344 56.117188 "/>
<path style="fill:none;stroke-width:20.0013;stroke-linecap:butt;stroke-linejoin:miter;stroke:rgb(13.729858%,12.159729%,12.548828%);stroke-opacity:1;stroke-miterlimit:22.9256;" d="M 3597.783173 472.559018 L 3597.783173 330.840603 " transform="matrix(0.077095,0,0,-0.077095,0.5,82.221)"/>
<path style=" stroke:none;fill-rule:evenodd;fill:rgb(13.729858%,12.159729%,12.548828%);fill-opacity:1;" d="M 281.902344 56.078125 L 277.871094 63.40625 L 273.84375 56.078125 Z M 281.902344 56.078125 "/>
<path style="fill:none;stroke-width:20.0013;stroke-linecap:butt;stroke-linejoin:miter;stroke:rgb(13.729858%,12.159729%,12.548828%);stroke-opacity:1;stroke-miterlimit:22.9256;" d="M 4062.662138 129.080599 L 4178.79321 129.080599 " transform="matrix(0.077095,0,0,-0.077095,0.5,82.221)"/>
<path style=" stroke:none;fill-rule:evenodd;fill:rgb(13.729858%,12.159729%,12.548828%);fill-opacity:1;" d="M 322.03125 68.238281 L 329.359375 72.269531 L 322.03125 76.300781 Z M 322.03125 68.238281 "/>
<path style=" stroke:none;fill-rule:evenodd;fill:rgb(13.729858%,12.159729%,12.548828%);fill-opacity:1;" d="M 52.785156 7.359375 C 54.308594 7.359375 55.542969 8.710938 55.542969 10.375 C 55.542969 12.039062 54.308594 13.386719 52.785156 13.386719 C 51.261719 13.386719 50.027344 12.039062 50.027344 10.375 C 50.027344 8.710938 51.261719 7.359375 52.785156 7.359375 "/>
<g clip-path="url(#clip7)" clip-rule="nonzero">
<path style="fill:none;stroke-width:20.0013;stroke-linecap:butt;stroke-linejoin:miter;stroke:rgb(13.729858%,12.159729%,12.548828%);stroke-opacity:1;stroke-miterlimit:22.9256;" d="M 678.191274 971.030871 C 697.951796 971.030871 713.962887 953.499741 713.962887 931.91517 C 713.962887 910.330599 697.951796 892.850136 678.191274 892.850136 C 658.430751 892.850136 642.419661 910.330599 642.419661 931.91517 C 642.419661 953.499741 658.430751 971.030871 678.191274 971.030871 Z M 678.191274 971.030871 " transform="matrix(0.077095,0,0,-0.077095,0.5,82.221)"/>
</g>
<path style=" stroke:none;fill-rule:evenodd;fill:rgb(13.729858%,12.159729%,12.548828%);fill-opacity:1;" d="M 97.570312 6.398438 C 99.09375 6.398438 100.328125 7.75 100.328125 9.414062 C 100.328125 11.078125 99.09375 12.429688 97.570312 12.429688 C 96.046875 12.429688 94.8125 11.078125 94.8125 9.414062 C 94.8125 7.75 96.046875 6.398438 97.570312 6.398438 "/>
<g clip-path="url(#clip8)" clip-rule="nonzero">
<path style="fill:none;stroke-width:20.0013;stroke-linecap:butt;stroke-linejoin:miter;stroke:rgb(13.729858%,12.159729%,12.548828%);stroke-opacity:1;stroke-miterlimit:22.9256;" d="M 1259.099974 983.495201 C 1278.860497 983.495201 1294.871587 965.96407 1294.871587 944.379499 C 1294.871587 922.794928 1278.860497 905.263798 1259.099974 905.263798 C 1239.339451 905.263798 1223.328361 922.794928 1223.328361 944.379499 C 1223.328361 965.96407 1239.339451 983.495201 1259.099974 983.495201 Z M 1259.099974 983.495201 " transform="matrix(0.077095,0,0,-0.077095,0.5,82.221)"/>
</g>
<path style=" stroke:none;fill-rule:evenodd;fill:rgb(13.729858%,12.159729%,12.548828%);fill-opacity:1;" d="M 145.125 6.363281 C 146.648438 6.363281 147.882812 7.710938 147.882812 9.375 C 147.882812 11.042969 146.648438 12.390625 145.125 12.390625 C 143.601562 12.390625 142.367188 11.042969 142.367188 9.375 C 142.367188 7.710938 143.601562 6.363281 145.125 6.363281 "/>
<g clip-path="url(#clip9)" clip-rule="nonzero">
<path style="fill:none;stroke-width:20.0013;stroke-linecap:butt;stroke-linejoin:miter;stroke:rgb(13.729858%,12.159729%,12.548828%);stroke-opacity:1;stroke-miterlimit:22.9256;" d="M 1875.932291 983.951213 C 1895.692814 983.951213 1911.703904 966.47075 1911.703904 944.886179 C 1911.703904 923.25094 1895.692814 905.770478 1875.932291 905.770478 C 1856.171769 905.770478 1840.160678 923.25094 1840.160678 944.886179 C 1840.160678 966.47075 1856.171769 983.951213 1875.932291 983.951213 Z M 1875.932291 983.951213 " transform="matrix(0.077095,0,0,-0.077095,0.5,82.221)"/>
</g>
<path style=" stroke:none;fill-rule:evenodd;fill:rgb(13.729858%,12.159729%,12.548828%);fill-opacity:1;" d="M 200.519531 5.863281 C 202.042969 5.863281 203.28125 7.214844 203.28125 8.878906 C 203.28125 10.542969 202.042969 11.894531 200.519531 11.894531 C 199 11.894531 197.765625 10.542969 197.765625 8.878906 C 197.765625 7.214844 199 5.863281 200.519531 5.863281 "/>
<g clip-path="url(#clip10)" clip-rule="nonzero">
<path style="fill:none;stroke-width:20.0013;stroke-linecap:butt;stroke-linejoin:miter;stroke:rgb(13.729858%,12.159729%,12.548828%);stroke-opacity:1;stroke-miterlimit:22.9256;" d="M 2594.455299 990.436718 C 2614.215821 990.436718 2630.27758 972.905587 2630.27758 951.321016 C 2630.27758 929.736445 2614.215821 912.205315 2594.455299 912.205315 C 2574.745444 912.205315 2558.734354 929.736445 2558.734354 951.321016 C 2558.734354 972.905587 2574.745444 990.436718 2594.455299 990.436718 Z M 2594.455299 990.436718 " transform="matrix(0.077095,0,0,-0.077095,0.5,82.221)"/>
</g>
<path style=" stroke:none;fill-rule:nonzero;fill:rgb(13.729858%,12.159729%,12.548828%);fill-opacity:1;" d="M 107.886719 44.175781 L 107.886719 34.242188 L 109.105469 34.242188 L 109.105469 37.804688 C 109.671875 37.148438 110.394531 36.816406 111.261719 36.816406 C 111.792969 36.816406 112.253906 36.921875 112.648438 37.132812 C 113.039062 37.339844 113.324219 37.632812 113.492188 38.003906 C 113.660156 38.371094 113.746094 38.910156 113.746094 39.613281 L 113.746094 44.175781 L 112.523438 44.175781 L 112.523438 39.613281 C 112.523438 39.007812 112.394531 38.5625 112.128906 38.285156 C 111.867188 38.007812 111.492188 37.867188 111.007812 37.867188 C 110.648438 37.867188 110.308594 37.960938 109.988281 38.148438 C 109.667969 38.335938 109.441406 38.589844 109.308594 38.910156 C 109.171875 39.230469 109.105469 39.675781 109.105469 40.238281 L 109.105469 44.175781 L 107.886719 44.175781 "/>
<path style=" stroke:none;fill-rule:nonzero;fill:rgb(13.729858%,12.159729%,12.548828%);fill-opacity:1;" d="M 117.933594 47.097656 C 117.257812 46.25 116.691406 45.253906 116.226562 44.117188 C 115.761719 42.976562 115.527344 41.796875 115.527344 40.578125 C 115.527344 39.5 115.699219 38.472656 116.050781 37.488281 C 116.457031 36.34375 117.082031 35.207031 117.933594 34.074219 L 118.808594 34.074219 C 118.261719 35.011719 117.898438 35.683594 117.722656 36.085938 C 117.445312 36.707031 117.230469 37.359375 117.074219 38.039062 C 116.878906 38.882812 116.78125 39.730469 116.78125 40.582031 C 116.78125 42.757812 117.457031 44.925781 118.808594 47.097656 L 117.933594 47.097656 "/>
<path style=" stroke:none;fill-rule:nonzero;fill:rgb(13.729858%,12.159729%,12.548828%);fill-opacity:1;" d="M 122.90625 44.175781 L 122.90625 35.414062 L 119.636719 35.414062 L 119.636719 34.242188 L 127.507812 34.242188 L 127.507812 35.414062 L 124.222656 35.414062 L 124.222656 44.175781 L 122.90625 44.175781 "/>
<path style=" stroke:none;fill-rule:nonzero;fill:rgb(13.729858%,12.159729%,12.548828%);fill-opacity:1;" d="M 129.5 47.097656 L 128.625 47.097656 C 129.976562 44.925781 130.652344 42.757812 130.652344 40.582031 C 130.652344 39.734375 130.554688 38.894531 130.359375 38.054688 C 130.207031 37.378906 129.992188 36.726562 129.714844 36.105469 C 129.539062 35.699219 129.175781 35.019531 128.625 34.074219 L 129.5 34.074219 C 130.347656 35.207031 130.976562 36.34375 131.382812 37.488281 C 131.730469 38.472656 131.90625 39.5 131.90625 40.578125 C 131.90625 41.796875 131.671875 42.976562 131.203125 44.117188 C 130.738281 45.253906 130.167969 46.25 129.5 47.097656 "/>
<path style=" stroke:none;fill-rule:nonzero;fill:rgb(13.729858%,12.159729%,12.548828%);fill-opacity:1;" d="M 154.054688 42.753906 L 154.054688 32.820312 L 155.273438 32.820312 L 155.273438 36.382812 C 155.84375 35.726562 156.5625 35.394531 157.429688 35.394531 C 157.960938 35.394531 158.425781 35.5 158.816406 35.710938 C 159.210938 35.921875 159.492188 36.210938 159.660156 36.582031 C 159.832031 36.953125 159.917969 37.492188 159.917969 38.195312 L 159.917969 42.753906 L 158.695312 42.753906 L 158.695312 38.195312 C 158.695312 37.585938 158.5625 37.140625 158.300781 36.863281 C 158.035156 36.585938 157.660156 36.445312 157.179688 36.445312 C 156.816406 36.445312 156.476562 36.539062 156.15625 36.726562 C 155.839844 36.914062 155.613281 37.167969 155.476562 37.492188 C 155.339844 37.808594 155.273438 38.253906 155.273438 38.816406 L 155.273438 42.753906 L 154.054688 42.753906 "/>
<path style=" stroke:none;fill-rule:nonzero;fill:rgb(13.729858%,12.159729%,12.548828%);fill-opacity:1;" d="M 164.101562 45.675781 C 163.429688 44.828125 162.859375 43.832031 162.394531 42.695312 C 161.929688 41.554688 161.695312 40.375 161.695312 39.15625 C 161.695312 38.082031 161.871094 37.050781 162.21875 36.066406 C 162.625 34.921875 163.253906 33.785156 164.101562 32.652344 L 164.976562 32.652344 C 164.433594 33.589844 164.070312 34.261719 163.894531 34.664062 C 163.617188 35.285156 163.402344 35.9375 163.242188 36.617188 C 163.046875 37.460938 162.953125 38.308594 162.953125 39.164062 C 162.953125 41.335938 163.625 43.507812 164.976562 45.675781 L 164.101562 45.675781 "/>
<path style=" stroke:none;fill-rule:nonzero;fill:rgb(13.729858%,12.159729%,12.548828%);fill-opacity:1;" d="M 172.464844 41.582031 L 172.464844 42.753906 L 165.898438 42.753906 C 165.890625 42.460938 165.9375 42.179688 166.039062 41.90625 C 166.207031 41.460938 166.476562 41.019531 166.84375 40.585938 C 167.214844 40.152344 167.746094 39.652344 168.441406 39.082031 C 169.519531 38.195312 170.25 37.496094 170.628906 36.976562 C 171.007812 36.460938 171.199219 35.972656 171.199219 35.511719 C 171.199219 35.027344 171.027344 34.621094 170.679688 34.289062 C 170.332031 33.957031 169.882812 33.789062 169.328125 33.789062 C 168.742188 33.789062 168.269531 33.964844 167.917969 34.320312 C 167.566406 34.671875 167.386719 35.160156 167.382812 35.78125 L 166.128906 35.652344 C 166.214844 34.71875 166.539062 34.003906 167.097656 33.515625 C 167.65625 33.023438 168.414062 32.777344 169.355469 32.777344 C 170.308594 32.777344 171.0625 33.046875 171.617188 33.574219 C 172.175781 34.101562 172.453125 34.757812 172.453125 35.539062 C 172.453125 35.9375 172.371094 36.328125 172.207031 36.710938 C 172.046875 37.09375 171.773438 37.5 171.398438 37.921875 C 171.019531 38.347656 170.394531 38.929688 169.519531 39.671875 C 168.785156 40.285156 168.316406 40.703125 168.109375 40.921875 C 167.902344 41.140625 167.730469 41.359375 167.59375 41.582031 L 172.464844 41.582031 "/>
<path style=" stroke:none;fill-rule:nonzero;fill:rgb(13.729858%,12.159729%,12.548828%);fill-opacity:1;" d="M 176.796875 42.753906 L 176.796875 33.992188 L 173.523438 33.992188 L 173.523438 32.820312 L 181.394531 32.820312 L 181.394531 33.992188 L 178.109375 33.992188 L 178.109375 42.753906 L 176.796875 42.753906 "/>
<path style=" stroke:none;fill-rule:nonzero;fill:rgb(13.729858%,12.159729%,12.548828%);fill-opacity:1;" d="M 183.386719 45.675781 L 182.511719 45.675781 C 183.863281 43.507812 184.539062 41.335938 184.539062 39.164062 C 184.539062 38.3125 184.441406 37.472656 184.246094 36.632812 C 184.09375 35.960938 183.878906 35.308594 183.605469 34.683594 C 183.429688 34.277344 183.066406 33.601562 182.511719 32.652344 L 183.386719 32.652344 C 184.238281 33.785156 184.867188 34.921875 185.273438 36.066406 C 185.621094 37.050781 185.792969 38.082031 185.792969 39.15625 C 185.792969 40.375 185.558594 41.554688 185.09375 42.695312 C 184.625 43.832031 184.054688 44.828125 183.386719 45.675781 "/>
<path style=" stroke:none;fill-rule:nonzero;fill:rgb(13.729858%,12.159729%,12.548828%);fill-opacity:1;" d="M 208.992188 42.71875 L 208.992188 32.785156 L 210.210938 32.785156 L 210.210938 36.347656 C 210.78125 35.6875 211.5 35.359375 212.367188 35.359375 C 212.898438 35.359375 213.359375 35.464844 213.753906 35.675781 C 214.144531 35.882812 214.429688 36.175781 214.597656 36.542969 C 214.765625 36.914062 214.851562 37.453125 214.851562 38.15625 L 214.851562 42.71875 L 213.628906 42.71875 L 213.628906 38.15625 C 213.628906 37.546875 213.5 37.105469 213.234375 36.828125 C 212.972656 36.550781 212.597656 36.40625 212.113281 36.40625 C 211.753906 36.40625 211.414062 36.503906 211.09375 36.691406 C 210.773438 36.878906 210.546875 37.132812 210.414062 37.453125 C 210.277344 37.773438 210.210938 38.214844 210.210938 38.78125 L 210.210938 42.71875 L 208.992188 42.71875 "/>
<path style=" stroke:none;fill-rule:nonzero;fill:rgb(13.729858%,12.159729%,12.548828%);fill-opacity:1;" d="M 219.039062 45.636719 C 218.363281 44.789062 217.796875 43.796875 217.332031 42.65625 C 216.867188 41.515625 216.632812 40.339844 216.632812 39.117188 C 216.632812 38.042969 216.804688 37.015625 217.15625 36.027344 C 217.5625 34.886719 218.1875 33.75 219.039062 32.613281 L 219.914062 32.613281 C 219.367188 33.554688 219.003906 34.222656 218.828125 34.625 C 218.550781 35.25 218.335938 35.902344 218.175781 36.578125 C 217.984375 37.421875 217.886719 38.273438 217.886719 39.125 C 217.886719 41.300781 218.5625 43.46875 219.914062 45.636719 L 219.039062 45.636719 "/>
<path style=" stroke:none;fill-rule:nonzero;fill:rgb(13.729858%,12.159729%,12.548828%);fill-opacity:1;" d="M 220.996094 40.09375 L 222.214844 39.933594 C 222.355469 40.625 222.59375 41.121094 222.929688 41.425781 C 223.269531 41.730469 223.679688 41.882812 224.160156 41.882812 C 224.734375 41.882812 225.222656 41.6875 225.617188 41.289062 C 226.011719 40.890625 226.207031 40.398438 226.207031 39.808594 C 226.207031 39.25 226.027344 38.789062 225.660156 38.425781 C 225.292969 38.0625 224.828125 37.878906 224.261719 37.878906 C 224.03125 37.878906 223.746094 37.925781 223.402344 38.015625 L 223.539062 36.945312 C 223.621094 36.953125 223.683594 36.957031 223.734375 36.957031 C 224.253906 36.957031 224.722656 36.820312 225.136719 36.550781 C 225.554688 36.28125 225.761719 35.863281 225.761719 35.296875 C 225.761719 34.851562 225.609375 34.480469 225.304688 34.1875 C 225.003906 33.894531 224.613281 33.746094 224.132812 33.746094 C 223.660156 33.746094 223.265625 33.894531 222.949219 34.191406 C 222.632812 34.492188 222.429688 34.9375 222.339844 35.535156 L 221.121094 35.320312 C 221.269531 34.5 221.609375 33.867188 222.136719 33.417969 C 222.664062 32.96875 223.324219 32.742188 224.109375 32.742188 C 224.648438 32.742188 225.148438 32.859375 225.605469 33.089844 C 226.0625 33.324219 226.410156 33.640625 226.652344 34.042969 C 226.894531 34.445312 227.015625 34.871094 227.015625 35.324219 C 227.015625 35.753906 226.898438 36.144531 226.667969 36.496094 C 226.4375 36.851562 226.097656 37.128906 225.648438 37.335938 C 226.234375 37.472656 226.691406 37.753906 227.015625 38.183594 C 227.339844 38.605469 227.5 39.140625 227.5 39.78125 C 227.5 40.648438 227.1875 41.386719 226.554688 41.988281 C 225.921875 42.59375 225.121094 42.894531 224.152344 42.894531 C 223.28125 42.894531 222.558594 42.632812 221.984375 42.113281 C 221.40625 41.59375 221.078125 40.921875 220.996094 40.09375 "/>
<path style=" stroke:none;fill-rule:nonzero;fill:rgb(13.729858%,12.159729%,12.548828%);fill-opacity:1;" d="M 231.730469 42.71875 L 231.730469 33.957031 L 228.460938 33.957031 L 228.460938 32.785156 L 236.332031 32.785156 L 236.332031 33.957031 L 233.046875 33.957031 L 233.046875 42.71875 L 231.730469 42.71875 "/>
<path style=" stroke:none;fill-rule:nonzero;fill:rgb(13.729858%,12.159729%,12.548828%);fill-opacity:1;" d="M 238.324219 45.636719 L 237.449219 45.636719 C 238.800781 43.46875 239.476562 41.300781 239.476562 39.125 C 239.476562 38.277344 239.378906 37.433594 239.183594 36.597656 C 239.03125 35.921875 238.816406 35.269531 238.539062 34.648438 C 238.363281 34.242188 238 33.5625 237.449219 32.613281 L 238.324219 32.613281 C 239.171875 33.75 239.800781 34.886719 240.207031 36.027344 C 240.554688 37.015625 240.730469 38.042969 240.730469 39.117188 C 240.730469 40.339844 240.496094 41.515625 240.027344 42.65625 C 239.5625 43.796875 238.992188 44.789062 238.324219 45.636719 "/>
<path style=" stroke:none;fill-rule:nonzero;fill:rgb(13.729858%,12.159729%,12.548828%);fill-opacity:1;" d="M 286.992188 42.679688 L 286.992188 32.746094 L 288.210938 32.746094 L 288.210938 36.3125 C 288.78125 35.652344 289.5 35.320312 290.367188 35.320312 C 290.898438 35.320312 291.363281 35.425781 291.753906 35.636719 C 292.148438 35.84375 292.429688 36.136719 292.601562 36.507812 C 292.769531 36.878906 292.855469 37.417969 292.855469 38.121094 L 292.855469 42.679688 L 291.632812 42.679688 L 291.632812 38.121094 C 291.632812 37.511719 291.5 37.066406 291.238281 36.789062 C 290.972656 36.511719 290.597656 36.371094 290.117188 36.371094 C 289.753906 36.371094 289.414062 36.464844 289.097656 36.652344 C 288.777344 36.839844 288.550781 37.09375 288.414062 37.417969 C 288.28125 37.734375 288.210938 38.179688 288.210938 38.742188 L 288.210938 42.679688 L 286.992188 42.679688 "/>
<path style=" stroke:none;fill-rule:nonzero;fill:rgb(13.729858%,12.159729%,12.548828%);fill-opacity:1;" d="M 297.039062 45.601562 C 296.367188 44.753906 295.796875 43.757812 295.332031 42.621094 C 294.867188 41.480469 294.636719 40.300781 294.636719 39.082031 C 294.636719 38.003906 294.808594 36.976562 295.15625 35.992188 C 295.566406 34.847656 296.191406 33.710938 297.039062 32.578125 L 297.914062 32.578125 C 297.367188 33.515625 297.007812 34.1875 296.832031 34.589844 C 296.554688 35.210938 296.339844 35.863281 296.179688 36.542969 C 295.984375 37.386719 295.890625 38.234375 295.890625 39.089844 C 295.890625 41.261719 296.5625 43.433594 297.914062 45.601562 L 297.039062 45.601562 "/>
<path style=" stroke:none;fill-rule:nonzero;fill:rgb(13.729858%,12.159729%,12.548828%);fill-opacity:1;" d="M 299.332031 42.679688 L 299.332031 35.484375 L 300.429688 35.484375 L 300.429688 36.507812 C 300.957031 35.714844 301.722656 35.320312 302.71875 35.320312 C 303.152344 35.320312 303.550781 35.398438 303.914062 35.554688 C 304.28125 35.710938 304.550781 35.914062 304.730469 36.167969 C 304.914062 36.421875 305.039062 36.722656 305.113281 37.070312 C 305.15625 37.296875 305.179688 37.691406 305.179688 38.253906 L 305.179688 42.679688 L 303.957031 42.679688 L 303.957031 38.300781 C 303.957031 37.808594 303.910156 37.433594 303.816406 37.1875 C 303.722656 36.941406 303.554688 36.746094 303.3125 36.601562 C 303.070312 36.453125 302.789062 36.378906 302.460938 36.378906 C 301.941406 36.378906 301.496094 36.542969 301.117188 36.871094 C 300.738281 37.203125 300.550781 37.828125 300.550781 38.75 L 300.550781 42.679688 L 299.332031 42.679688 "/>
<path style=" stroke:none;fill-rule:nonzero;fill:rgb(13.729858%,12.159729%,12.548828%);fill-opacity:1;" d="M 309.734375 42.679688 L 309.734375 33.917969 L 306.460938 33.917969 L 306.460938 32.746094 L 314.335938 32.746094 L 314.335938 33.917969 L 311.046875 33.917969 L 311.046875 42.679688 L 309.734375 42.679688 "/>
<path style=" stroke:none;fill-rule:nonzero;fill:rgb(13.729858%,12.159729%,12.548828%);fill-opacity:1;" d="M 316.324219 45.601562 L 315.449219 45.601562 C 316.800781 43.433594 317.476562 41.261719 317.476562 39.089844 C 317.476562 38.238281 317.378906 37.398438 317.183594 36.558594 C 317.03125 35.886719 316.816406 35.234375 316.542969 34.609375 C 316.367188 34.203125 316.003906 33.527344 315.449219 32.578125 L 316.324219 32.578125 C 317.175781 33.710938 317.804688 34.847656 318.210938 35.992188 C 318.558594 36.976562 318.730469 38.003906 318.730469 39.082031 C 318.730469 40.300781 318.496094 41.480469 318.03125 42.621094 C 317.5625 43.757812 316.996094 44.753906 316.324219 45.601562 "/>
<path style=" stroke:none;fill-rule:nonzero;fill:rgb(13.729858%,12.159729%,12.548828%);fill-opacity:1;" d="M 61.3125 43.675781 L 61.3125 33.742188 L 62.53125 33.742188 L 62.53125 37.308594 C 63.101562 36.648438 63.820312 36.316406 64.6875 36.316406 C 65.21875 36.316406 65.683594 36.425781 66.074219 36.632812 C 66.46875 36.84375 66.75 37.132812 66.917969 37.503906 C 67.089844 37.875 67.175781 38.414062 67.175781 39.117188 L 67.175781 43.675781 L 65.953125 43.675781 L 65.953125 39.117188 C 65.953125 38.507812 65.820312 38.0625 65.558594 37.785156 C 65.292969 37.507812 64.917969 37.367188 64.4375 37.367188 C 64.074219 37.367188 63.734375 37.460938 63.414062 37.648438 C 63.097656 37.835938 62.871094 38.089844 62.734375 38.414062 C 62.597656 38.730469 62.53125 39.175781 62.53125 39.742188 L 62.53125 43.675781 L 61.3125 43.675781 "/>
<path style=" stroke:none;fill-rule:nonzero;fill:rgb(13.729858%,12.159729%,12.548828%);fill-opacity:1;" d="M 71.359375 46.597656 C 70.6875 45.75 70.117188 44.753906 69.652344 43.617188 C 69.1875 42.476562 68.953125 41.300781 68.953125 40.078125 C 68.953125 39.003906 69.128906 37.972656 69.476562 36.988281 C 69.882812 35.847656 70.511719 34.707031 71.359375 33.574219 L 72.234375 33.574219 C 71.6875 34.511719 71.328125 35.183594 71.152344 35.585938 C 70.875 36.207031 70.660156 36.859375 70.5 37.539062 C 70.304688 38.382812 70.207031 39.230469 70.207031 40.085938 C 70.207031 42.257812 70.882812 44.429688 72.234375 46.597656 L 71.359375 46.597656 "/>
<path style=" stroke:none;fill-rule:nonzero;fill:rgb(13.729858%,12.159729%,12.548828%);fill-opacity:1;" d="M 73.3125 38.777344 C 73.3125 37.601562 73.433594 36.65625 73.675781 35.941406 C 73.917969 35.226562 74.277344 34.671875 74.753906 34.285156 C 75.230469 33.894531 75.828125 33.703125 76.550781 33.703125 C 77.085938 33.703125 77.550781 33.808594 77.953125 34.027344 C 78.355469 34.238281 78.6875 34.546875 78.949219 34.953125 C 79.210938 35.359375 79.417969 35.851562 79.566406 36.429688 C 79.714844 37.011719 79.789062 37.792969 79.789062 38.777344 C 79.789062 39.945312 79.671875 40.882812 79.433594 41.601562 C 79.191406 42.316406 78.832031 42.871094 78.355469 43.261719 C 77.878906 43.652344 77.277344 43.847656 76.550781 43.847656 C 75.59375 43.847656 74.839844 43.503906 74.296875 42.816406 C 73.640625 41.992188 73.3125 40.644531 73.3125 38.777344 Z M 74.566406 38.777344 C 74.566406 40.410156 74.757812 41.492188 75.140625 42.035156 C 75.519531 42.574219 75.992188 42.84375 76.550781 42.84375 C 77.113281 42.84375 77.582031 42.570312 77.964844 42.03125 C 78.34375 41.488281 78.535156 40.40625 78.535156 38.777344 C 78.535156 37.144531 78.34375 36.054688 77.964844 35.519531 C 77.582031 34.980469 77.109375 34.710938 76.539062 34.710938 C 75.976562 34.710938 75.53125 34.949219 75.195312 35.425781 C 74.777344 36.027344 74.566406 37.148438 74.566406 38.777344 "/>
<path style=" stroke:none;fill-rule:nonzero;fill:rgb(13.729858%,12.159729%,12.548828%);fill-opacity:1;" d="M 82.167969 46.597656 L 81.292969 46.597656 C 82.644531 44.429688 83.320312 42.257812 83.320312 40.085938 C 83.320312 39.234375 83.222656 38.394531 83.027344 37.558594 C 82.875 36.882812 82.660156 36.230469 82.386719 35.609375 C 82.210938 35.199219 81.847656 34.523438 81.292969 33.574219 L 82.167969 33.574219 C 83.015625 34.707031 83.644531 35.847656 84.054688 36.988281 C 84.398438 37.972656 84.574219 39.003906 84.574219 40.078125 C 84.574219 41.300781 84.339844 42.476562 83.871094 43.617188 C 83.40625 44.753906 82.835938 45.75 82.167969 46.597656 "/>
<path style="fill:none;stroke-width:20.0013;stroke-linecap:butt;stroke-linejoin:miter;stroke:rgb(13.729858%,12.159729%,12.548828%);stroke-opacity:1;stroke-miterlimit:22.9256;" d="M 674.188501 935.157922 L 800.402507 935.157922 " transform="matrix(0.077095,0,0,-0.077095,0.5,82.221)"/>
<path style=" stroke:none;fill-rule:nonzero;fill:rgb(13.729858%,12.159729%,12.548828%);fill-opacity:1;" d="M 208.40625 15.425781 L 212.246094 1.730469 L 213.546875 1.730469 L 209.71875 15.425781 L 208.40625 15.425781 "/>
<path style=" stroke:none;fill-rule:nonzero;fill:rgb(13.729858%,12.159729%,12.548828%);fill-opacity:1;" d="M 213.546875 15.425781 L 217.386719 1.730469 L 218.6875 1.730469 L 214.859375 15.425781 L 213.546875 15.425781 "/>
</g>
</svg>
