<?xml version="1.0" encoding="UTF-8"?>
<svg xmlns="http://www.w3.org/2000/svg" xmlns:xlink="http://www.w3.org/1999/xlink" width="261.772pt" height="214.817pt" viewBox="0 0 261.772 214.817" version="1.2">
<defs>
<clipPath id="clip1">
  <path d="M 90 0.5 L 95 0.5 L 95 5 L 90 5 Z M 90 0.5 "/>
</clipPath>
<clipPath id="clip2">
  <path d="M 69 0.5 L 251 0.5 L 251 134 L 69 134 Z M 69 0.5 "/>
</clipPath>
<clipPath id="clip3">
  <path d="M 258 206 L 261.273438 206 L 261.273438 214 L 258 214 Z M 258 206 "/>
</clipPath>
<clipPath id="clip4">
  <path d="M 0.5 24 L 148 24 L 148 133 L 0.5 133 Z M 0.5 24 "/>
</clipPath>
<clipPath id="clip5">
  <path d="M 69 102 L 251 102 L 251 214.316406 L 69 214.316406 Z M 69 102 "/>
</clipPath>
</defs>
<g id="surface1">
<path style=" stroke:none;fill-rule:evenodd;fill:rgb(91.363525%,91.20636%,91.246033%);fill-opacity:1;" d="M 105.152344 202.839844 L 92.714844 202.839844 L 92.714844 12.753906 L 105.152344 12.753906 L 105.152344 202.839844 "/>
<path style="fill:none;stroke-width:19.9984;stroke-linecap:butt;stroke-linejoin:miter;stroke:rgb(13.729858%,12.159729%,12.548828%);stroke-opacity:1;stroke-miterlimit:22.9256;" d="M 2496.179934 273.754472 L 2199.519231 273.754472 L 2199.519231 4807.70647 L 2496.179934 4807.70647 Z M 2496.179934 273.754472 " transform="matrix(0.041925,0,0,-0.041925,0.5,214.317)"/>
<path style="fill:none;stroke-width:19.9984;stroke-linecap:butt;stroke-linejoin:miter;stroke:rgb(13.729858%,12.159729%,12.548828%);stroke-opacity:1;stroke-miterlimit:22.9256;" d="M 2199.519231 5005.604502 L 2199.519231 3238.963924 L 6123.378801 3238.963924 " transform="matrix(0.041925,0,0,-0.041925,0.5,214.317)"/>
<g clip-path="url(#clip1)" clip-rule="nonzero">
<path style=" stroke:none;fill-rule:evenodd;fill:rgb(13.729858%,12.159729%,12.548828%);fill-opacity:1;" d="M 94.90625 4.800781 L 92.714844 0.816406 L 90.523438 4.800781 Z M 94.90625 4.800781 "/>
</g>
<path style=" stroke:none;fill-rule:evenodd;fill:rgb(13.729858%,12.159729%,12.548828%);fill-opacity:1;" d="M 256.875 76.332031 L 260.863281 78.523438 L 256.875 80.714844 Z M 256.875 76.332031 "/>
<path style="fill:none;stroke-width:19.9984;stroke-linecap:butt;stroke-linejoin:miter;stroke:rgb(13.729858%,12.159729%,12.548828%);stroke-opacity:1;stroke-miterlimit:22.9256;" d="M 2199.519231 2040.395051 L 2199.519231 273.754472 L 6123.378801 273.754472 " transform="matrix(0.041925,0,0,-0.041925,0.5,214.317)"/>
<path style=" stroke:none;fill-rule:evenodd;fill:rgb(13.729858%,12.159729%,12.548828%);fill-opacity:1;" d="M 94.90625 129.117188 L 92.714844 125.132812 L 90.523438 129.117188 Z M 94.90625 129.117188 "/>
<path style=" stroke:none;fill-rule:evenodd;fill:rgb(13.729858%,12.159729%,12.548828%);fill-opacity:1;" d="M 256.875 200.648438 L 260.863281 202.839844 L 256.875 205.035156 Z M 256.875 200.648438 "/>
<g clip-path="url(#clip2)" clip-rule="nonzero">
<path style="fill:none;stroke-width:39.9997;stroke-linecap:butt;stroke-linejoin:miter;stroke:rgb(13.729858%,12.159729%,12.548828%);stroke-opacity:1;stroke-miterlimit:10;" d="M 2199.519231 3240.920543 L 2232.036374 3609.417114 L 2263.994484 3934.402206 L 2296.511628 4206.372242 L 2328.56291 4417.407573 L 2360.986881 4564.899374 L 2393.038163 4646.425164 L 2425.555307 4664.873286 L 2457.513417 4624.343321 L 2490.030561 4530.425611 L 2521.98867 4391.412493 L 2554.505814 4216.434854 L 2586.557096 4015.368962 L 2618.981067 3798.370602 L 2651.032349 3575.875075 L 2683.549493 3356.361061 L 2715.507603 3149.891175 L 2748.024747 2962.894305 L 2779.982856 2801.892516 L 2812.5 2670.892218 L 2845.017144 2573.433959 L 2876.975253 2510.356291 L 2909.492397 2482.404592 L 2941.543679 2486.876863 L 2974.060823 2521.90966 L 3006.018933 2583.403399 L 3038.536076 2666.885808 L 3070.494186 2766.85972 L 3103.01133 2878.852862 L 3135.062612 2996.436345 L 3167.486583 3114.858378 L 3199.537865 3229.367174 L 3232.055009 3335.397287 L 3264.013119 3429.408169 L 3296.530262 3508.418306 L 3328.581544 3570.377907 L 3361.005516 3613.889386 L 3393.056798 3639.418605 L 3425.573942 3646.40653 L 3457.532051 3636.343918 L 3490.049195 3610.907871 L 3522.566339 3572.89356 L 3554.524448 3523.884914 L 3587.041592 3467.422481 L 3619.092874 3405.928742 L 3651.516846 3342.385212 L 3683.568128 3279.866577 L 3716.085271 3220.42263 L 3748.043381 3166.941711 L 3780.560525 3119.889684 L 3812.518634 3081.875373 L 3845.035778 3053.364639 L 3877.08706 3034.357484 L 3909.511032 3025.41294 L 3941.562314 3025.41294 L 3974.079457 3034.916518 L 4006.037567 3051.40802 L 4038.554711 3074.887448 L 4070.605993 3102.93232 L 4103.029964 3134.424568 L 4135.547108 3167.873435 L 4167.59839 3201.415474 L 4200.022361 3234.398479 L 4232.073643 3264.865832 L 4264.590787 3291.885808 L 4296.548897 3314.899374 L 4329.066041 3332.881634 L 4361.02415 3345.92576 L 4393.541294 3353.938581 L 4425.592576 3356.454234 L 4458.10972 3353.938581 L 4490.067829 3346.950656 L 4522.584973 3336.422182 L 4554.543083 3322.912194 L 4587.060227 3306.886553 L 4619.111509 3289.370155 L 4651.53548 3271.387895 L 4683.586762 3253.871497 L 4716.103906 3236.914132 L 4748.062016 3221.447525 L 4780.579159 3207.378503 L 4813.096303 3196.384168 L 4845.054413 3187.905486 L 4877.571556 3182.408318 L 4909.622838 3179.426804 L 4942.04681 3179.426804 L 4974.098092 3181.942457 L 5006.615236 3186.414729 L 5038.573345 3192.936792 L 5071.090489 3200.390578 L 5103.048599 3209.428295 L 5135.565742 3218.931872 L 5167.617024 3228.43545 L 5200.134168 3237.939028 L 5232.092278 3246.883572 L 5264.609422 3254.430531 L 5296.567531 3261.418456 L 5329.084675 3266.449761 L 5361.135957 3270.456172 L 5393.559928 3272.878652 " transform="matrix(0.041925,0,0,-0.041925,0.5,214.317)"/>
</g>
<path style=" stroke:none;fill-rule:nonzero;fill:rgb(13.729858%,12.159729%,12.548828%);fill-opacity:1;" d="M 260.46875 89.074219 L 260.597656 89.855469 C 260.347656 89.90625 260.125 89.933594 259.929688 89.933594 C 259.609375 89.933594 259.359375 89.882812 259.183594 89.78125 C 259.007812 89.679688 258.882812 89.546875 258.808594 89.378906 C 258.738281 89.214844 258.703125 88.867188 258.703125 88.335938 L 258.703125 85.332031 L 258.050781 85.332031 L 258.050781 84.648438 L 258.703125 84.648438 L 258.703125 83.351562 L 259.582031 82.824219 L 259.582031 84.648438 L 260.46875 84.648438 L 260.46875 85.332031 L 259.582031 85.332031 L 259.582031 88.386719 C 259.582031 88.636719 259.597656 88.796875 259.628906 88.871094 C 259.660156 88.941406 259.710938 89 259.78125 89.042969 C 259.851562 89.085938 259.949219 89.105469 260.082031 89.105469 C 260.179688 89.105469 260.308594 89.097656 260.46875 89.074219 "/>
<g clip-path="url(#clip3)" clip-rule="nonzero">
<path style=" stroke:none;fill-rule:nonzero;fill:rgb(13.729858%,12.159729%,12.548828%);fill-opacity:1;" d="M 261.097656 212.945312 L 261.226562 213.726562 C 260.980469 213.78125 260.753906 213.808594 260.558594 213.808594 C 260.238281 213.808594 259.988281 213.757812 259.8125 213.65625 C 259.636719 213.554688 259.511719 213.417969 259.4375 213.253906 C 259.367188 213.089844 259.332031 212.742188 259.332031 212.210938 L 259.332031 209.207031 L 258.679688 209.207031 L 258.679688 208.519531 L 259.332031 208.519531 L 259.332031 207.226562 L 260.210938 206.699219 L 260.210938 208.519531 L 261.097656 208.519531 L 261.097656 209.207031 L 260.210938 209.207031 L 260.210938 212.257812 C 260.210938 212.511719 260.226562 212.671875 260.257812 212.746094 C 260.289062 212.816406 260.339844 212.875 260.410156 212.917969 C 260.480469 212.960938 260.578125 212.980469 260.710938 212.980469 C 260.808594 212.980469 260.9375 212.96875 261.097656 212.945312 "/>
</g>
<g clip-path="url(#clip4)" clip-rule="nonzero">
<path style="fill:none;stroke-width:39.9997;stroke-linecap:butt;stroke-linejoin:miter;stroke:rgb(13.729858%,12.159729%,12.548828%);stroke-opacity:1;stroke-miterlimit:22.9256;" d="M 2199.519231 3240.920543 L 4.285927 3241.386404 " transform="matrix(0.041925,0,0,-0.041925,0.5,214.317)"/>
</g>
<path style=" stroke:none;fill-rule:nonzero;fill:rgb(13.729858%,12.159729%,12.548828%);fill-opacity:1;" d="M 91.640625 83.824219 C 91.640625 82.972656 91.726562 82.285156 91.902344 81.769531 C 92.078125 81.25 92.339844 80.847656 92.683594 80.566406 C 93.03125 80.285156 93.464844 80.144531 93.988281 80.144531 C 94.375 80.144531 94.714844 80.222656 95.003906 80.378906 C 95.296875 80.53125 95.539062 80.757812 95.726562 81.050781 C 95.917969 81.34375 96.066406 81.703125 96.175781 82.121094 C 96.285156 82.542969 96.335938 83.109375 96.335938 83.824219 C 96.335938 84.667969 96.25 85.351562 96.078125 85.871094 C 95.902344 86.390625 95.644531 86.789062 95.296875 87.074219 C 94.953125 87.359375 94.515625 87.5 93.988281 87.5 C 93.292969 87.5 92.746094 87.25 92.351562 86.753906 C 91.878906 86.152344 91.640625 85.175781 91.640625 83.824219 Z M 92.546875 83.824219 C 92.546875 85.007812 92.6875 85.792969 92.964844 86.1875 C 93.242188 86.578125 93.582031 86.773438 93.988281 86.773438 C 94.394531 86.773438 94.734375 86.574219 95.011719 86.183594 C 95.289062 85.789062 95.429688 85.003906 95.429688 83.824219 C 95.429688 82.640625 95.289062 81.851562 95.011719 81.460938 C 94.734375 81.070312 94.390625 80.875 93.980469 80.875 C 93.570312 80.875 93.246094 81.050781 93.003906 81.394531 C 92.703125 81.832031 92.546875 82.640625 92.546875 83.824219 "/>
<path style=" stroke:none;fill-rule:nonzero;fill:rgb(13.729858%,12.159729%,12.548828%);fill-opacity:1;" d="M 90.078125 210.257812 C 90.078125 209.402344 90.164062 208.71875 90.339844 208.199219 C 90.515625 207.679688 90.777344 207.277344 91.121094 206.996094 C 91.46875 206.714844 91.902344 206.574219 92.425781 206.574219 C 92.8125 206.574219 93.152344 206.652344 93.441406 206.808594 C 93.734375 206.964844 93.976562 207.1875 94.164062 207.480469 C 94.355469 207.777344 94.503906 208.132812 94.613281 208.554688 C 94.722656 208.976562 94.773438 209.542969 94.773438 210.257812 C 94.773438 211.101562 94.6875 211.78125 94.515625 212.300781 C 94.339844 212.820312 94.082031 213.222656 93.734375 213.503906 C 93.390625 213.789062 92.953125 213.929688 92.425781 213.929688 C 91.730469 213.929688 91.183594 213.683594 90.789062 213.183594 C 90.316406 212.585938 90.078125 211.609375 90.078125 210.257812 Z M 90.984375 210.257812 C 90.984375 211.4375 91.125 212.226562 91.402344 212.617188 C 91.679688 213.007812 92.019531 213.203125 92.425781 213.203125 C 92.832031 213.203125 93.171875 213.007812 93.449219 212.613281 C 93.726562 212.222656 93.867188 211.433594 93.867188 210.257812 C 93.867188 209.070312 93.726562 208.28125 93.449219 207.894531 C 93.171875 207.503906 92.828125 207.308594 92.417969 207.308594 C 92.007812 207.308594 91.683594 207.480469 91.441406 207.824219 C 91.140625 208.261719 90.984375 209.074219 90.984375 210.257812 "/>
<g clip-path="url(#clip5)" clip-rule="nonzero">
<path style="fill:none;stroke-width:39.9997;stroke-linecap:butt;stroke-linejoin:miter;stroke:rgb(13.729858%,12.159729%,12.548828%);stroke-opacity:1;stroke-miterlimit:10;" d="M 2200.823643 256.144902 L 2233.340787 1197.092278 L 2265.392069 1762.64833 L 2297.816041 2039.649672 L 2330.333184 2105.615683 L 2362.384466 2026.605546 L 2394.90161 1855.634317 L 2427.325581 1634.629547 L 2459.376863 1395.176655 L 2491.894007 1159.637001 L 2524.317979 941.613745 L 2556.369261 750.610465 L 2588.886404 590.16771 L 2621.403548 460.658169 L 2653.361658 360.684258 L 2685.878801 287.171288 L 2718.395945 235.646989 L 2750.354055 202.663983 L 2782.871199 184.122689 L 2815.388342 176.668903 L 2847.346452 177.134764 L 2879.863596 182.631932 L 2912.380739 191.110614 L 2944.338849 201.173226 L 2976.855993 211.608527 L 3009.373137 221.671139 L 3041.331246 230.149821 L 3073.84839 238.162642 L 3106.365534 244.125671 L 3138.323643 249.156977 L 3170.840787 253.163387 L 3203.357931 256.144902 L 3235.409213 257.635659 L 3267.926357 258.660555 L 3300.350328 259.68545 L 3364.918754 259.68545 L 3397.342725 259.126416 L 3429.394007 258.660555 L 3461.911151 258.101521 L 3494.428295 257.635659 L 3526.386404 257.635659 L 3558.903548 257.169797 L 3591.420692 256.610763 L 3623.378801 256.610763 L 3655.895945 256.144902 L 5401.945438 256.144902 " transform="matrix(0.041925,0,0,-0.041925,0.5,214.317)"/>
</g>
<path style="fill:none;stroke-width:39.9997;stroke-linecap:butt;stroke-linejoin:miter;stroke:rgb(13.729858%,12.159729%,12.548828%);stroke-opacity:1;stroke-miterlimit:22.9256;" d="M 2199.519231 273.754472 L 75.190072 273.754472 " transform="matrix(0.041925,0,0,-0.041925,0.5,214.317)"/>
<path style=" stroke:none;fill-rule:nonzero;fill:rgb(13.729858%,12.159729%,12.548828%);fill-opacity:1;" d="M 101.535156 213.070312 L 101.664062 213.851562 C 101.414062 213.902344 101.191406 213.929688 100.996094 213.929688 C 100.675781 213.929688 100.425781 213.878906 100.246094 213.777344 C 100.070312 213.675781 99.949219 213.542969 99.875 213.375 C 99.804688 213.210938 99.765625 212.863281 99.765625 212.332031 L 99.765625 209.332031 L 99.117188 209.332031 L 99.117188 208.644531 L 99.765625 208.644531 L 99.765625 207.351562 L 100.648438 206.820312 L 100.648438 208.644531 L 101.535156 208.644531 L 101.535156 209.332031 L 100.648438 209.332031 L 100.648438 212.382812 C 100.648438 212.636719 100.660156 212.796875 100.691406 212.867188 C 100.722656 212.941406 100.773438 212.996094 100.84375 213.042969 C 100.914062 213.082031 101.015625 213.105469 101.148438 213.105469 C 101.246094 213.105469 101.375 213.09375 101.535156 213.070312 "/>
<path style=" stroke:none;fill-rule:nonzero;fill:rgb(13.729858%,12.159729%,12.548828%);fill-opacity:1;" d="M 107.054688 209.628906 L 102.296875 209.628906 L 102.296875 208.800781 L 107.054688 208.800781 Z M 107.054688 211.8125 L 102.296875 211.8125 L 102.296875 210.988281 L 107.054688 210.988281 L 107.054688 211.8125 "/>
<path style=" stroke:none;fill-rule:nonzero;fill:rgb(13.729858%,12.159729%,12.548828%);fill-opacity:1;" d="M 111.363281 213.863281 L 110.476562 213.863281 L 110.476562 208.226562 C 110.265625 208.429688 109.984375 208.632812 109.640625 208.835938 C 109.292969 209.039062 108.984375 209.191406 108.707031 209.292969 L 108.707031 208.4375 C 109.203125 208.203125 109.636719 207.921875 110.007812 207.59375 C 110.375 207.261719 110.636719 206.941406 110.792969 206.628906 L 111.363281 206.628906 L 111.363281 213.863281 "/>
<path style="fill:none;stroke-width:19.9984;stroke-linecap:butt;stroke-linejoin:miter;stroke:rgb(13.729858%,12.159729%,12.548828%);stroke-opacity:1;stroke-miterlimit:22.9256;" d="M 2496.179934 3929.650417 L 1681.20155 3929.650417 " transform="matrix(0.041925,0,0,-0.041925,0.5,214.317)"/>
<path style=" stroke:none;fill-rule:evenodd;fill:rgb(13.729858%,12.159729%,12.548828%);fill-opacity:1;" d="M 71.328125 51.761719 L 67.34375 49.566406 L 71.328125 47.375 Z M 71.328125 51.761719 "/>
<path style="fill:none;stroke-width:19.9984;stroke-linecap:butt;stroke-linejoin:miter;stroke:rgb(13.729858%,12.159729%,12.548828%);stroke-opacity:1;stroke-miterlimit:22.9256;" d="M 2199.519231 1200.446482 L 3002.757901 1200.446482 " transform="matrix(0.041925,0,0,-0.041925,0.5,214.317)"/>
<path style=" stroke:none;fill-rule:evenodd;fill:rgb(13.729858%,12.159729%,12.548828%);fill-opacity:1;" d="M 126.042969 161.796875 L 130.027344 163.988281 L 126.042969 166.179688 Z M 126.042969 161.796875 "/>
<path style=" stroke:none;fill-rule:nonzero;fill:rgb(13.729858%,12.159729%,12.548828%);fill-opacity:1;" d="M 23.136719 48.574219 L 23.136719 47.914062 C 22.804688 48.433594 22.320312 48.691406 21.675781 48.691406 C 21.261719 48.691406 20.878906 48.578125 20.53125 48.347656 C 20.183594 48.117188 19.910156 47.796875 19.71875 47.386719 C 19.527344 46.976562 19.433594 46.503906 19.433594 45.96875 C 19.433594 45.449219 19.519531 44.976562 19.691406 44.550781 C 19.867188 44.128906 20.125 43.800781 20.472656 43.578125 C 20.820312 43.351562 21.210938 43.238281 21.640625 43.238281 C 21.953125 43.238281 22.234375 43.304688 22.476562 43.4375 C 22.722656 43.570312 22.921875 43.742188 23.078125 43.953125 L 23.078125 41.371094 L 23.957031 41.371094 L 23.957031 48.574219 Z M 20.339844 45.96875 C 20.339844 46.636719 20.480469 47.136719 20.761719 47.46875 C 21.046875 47.796875 21.378906 47.964844 21.761719 47.964844 C 22.148438 47.964844 22.476562 47.804688 22.746094 47.488281 C 23.015625 47.175781 23.152344 46.691406 23.152344 46.042969 C 23.152344 45.328125 23.015625 44.804688 22.738281 44.472656 C 22.464844 44.136719 22.125 43.96875 21.722656 43.96875 C 21.328125 43.96875 21 44.128906 20.738281 44.449219 C 20.472656 44.769531 20.339844 45.277344 20.339844 45.96875 "/>
<path style=" stroke:none;fill-rule:nonzero;fill:rgb(13.729858%,12.159729%,12.548828%);fill-opacity:1;" d="M 25.351562 42.386719 L 25.351562 41.371094 L 26.238281 41.371094 L 26.238281 42.386719 Z M 25.351562 48.574219 L 25.351562 43.355469 L 26.238281 43.355469 L 26.238281 48.574219 L 25.351562 48.574219 "/>
<path style=" stroke:none;fill-rule:nonzero;fill:rgb(13.729858%,12.159729%,12.548828%);fill-opacity:1;" d="M 27.574219 48.574219 L 27.574219 43.355469 L 28.367188 43.355469 L 28.367188 44.144531 C 28.570312 43.777344 28.757812 43.53125 28.933594 43.414062 C 29.101562 43.296875 29.292969 43.238281 29.5 43.238281 C 29.796875 43.238281 30.097656 43.332031 30.40625 43.523438 L 30.101562 44.34375 C 29.886719 44.214844 29.671875 44.152344 29.457031 44.152344 C 29.261719 44.152344 29.089844 44.210938 28.933594 44.324219 C 28.78125 44.441406 28.671875 44.605469 28.605469 44.808594 C 28.507812 45.125 28.457031 45.46875 28.457031 45.839844 L 28.457031 48.574219 L 27.574219 48.574219 "/>
<path style=" stroke:none;fill-rule:nonzero;fill:rgb(13.729858%,12.159729%,12.548828%);fill-opacity:1;" d="M 34.503906 46.894531 L 35.417969 47.003906 C 35.273438 47.539062 35.007812 47.953125 34.617188 48.25 C 34.226562 48.542969 33.730469 48.691406 33.125 48.691406 C 32.363281 48.691406 31.757812 48.457031 31.308594 47.984375 C 30.863281 47.515625 30.640625 46.859375 30.640625 46.007812 C 30.640625 45.128906 30.867188 44.449219 31.316406 43.964844 C 31.769531 43.480469 32.355469 43.238281 33.078125 43.238281 C 33.773438 43.238281 34.34375 43.476562 34.785156 43.949219 C 35.226562 44.425781 35.449219 45.09375 35.449219 45.953125 C 35.449219 46.007812 35.449219 46.085938 35.445312 46.191406 L 31.554688 46.191406 C 31.585938 46.765625 31.746094 47.203125 32.039062 47.507812 C 32.332031 47.8125 32.695312 47.964844 33.128906 47.964844 C 33.453125 47.964844 33.730469 47.878906 33.960938 47.707031 C 34.191406 47.539062 34.371094 47.265625 34.503906 46.894531 Z M 31.601562 45.460938 L 34.515625 45.460938 C 34.476562 45.023438 34.363281 44.695312 34.179688 44.476562 C 33.898438 44.136719 33.535156 43.964844 33.085938 43.964844 C 32.679688 43.964844 32.339844 44.101562 32.0625 44.371094 C 31.785156 44.644531 31.632812 45.007812 31.601562 45.460938 "/>
<path style=" stroke:none;fill-rule:nonzero;fill:rgb(13.729858%,12.159729%,12.548828%);fill-opacity:1;" d="M 39.933594 46.660156 L 40.804688 46.777344 C 40.710938 47.375 40.46875 47.84375 40.074219 48.183594 C 39.683594 48.519531 39.203125 48.691406 38.632812 48.691406 C 37.917969 48.691406 37.34375 48.457031 36.910156 47.992188 C 36.476562 47.523438 36.257812 46.855469 36.257812 45.984375 C 36.257812 45.421875 36.351562 44.925781 36.539062 44.503906 C 36.726562 44.082031 37.011719 43.765625 37.394531 43.554688 C 37.773438 43.34375 38.1875 43.238281 38.636719 43.238281 C 39.203125 43.238281 39.667969 43.382812 40.027344 43.667969 C 40.386719 43.953125 40.621094 44.359375 40.722656 44.890625 L 39.863281 45.019531 C 39.777344 44.671875 39.636719 44.40625 39.425781 44.230469 C 39.21875 44.054688 38.96875 43.964844 38.671875 43.964844 C 38.226562 43.964844 37.863281 44.125 37.585938 44.445312 C 37.308594 44.761719 37.167969 45.269531 37.167969 45.957031 C 37.167969 46.660156 37.300781 47.167969 37.570312 47.488281 C 37.839844 47.804688 38.191406 47.964844 38.625 47.964844 C 38.972656 47.964844 39.257812 47.855469 39.492188 47.644531 C 39.726562 47.429688 39.875 47.105469 39.933594 46.660156 "/>
<path style=" stroke:none;fill-rule:nonzero;fill:rgb(13.729858%,12.159729%,12.548828%);fill-opacity:1;" d="M 43.492188 47.78125 L 43.621094 48.5625 C 43.371094 48.613281 43.148438 48.640625 42.953125 48.640625 C 42.628906 48.640625 42.382812 48.589844 42.203125 48.488281 C 42.027344 48.390625 41.902344 48.253906 41.832031 48.089844 C 41.761719 47.925781 41.722656 47.574219 41.722656 47.046875 L 41.722656 44.042969 L 41.074219 44.042969 L 41.074219 43.355469 L 41.722656 43.355469 L 41.722656 42.0625 L 42.601562 41.53125 L 42.601562 43.355469 L 43.492188 43.355469 L 43.492188 44.042969 L 42.601562 44.042969 L 42.601562 47.09375 C 42.601562 47.347656 42.617188 47.507812 42.648438 47.582031 C 42.679688 47.652344 42.730469 47.710938 42.800781 47.753906 C 42.871094 47.796875 42.972656 47.816406 43.101562 47.816406 C 43.203125 47.816406 43.332031 47.804688 43.492188 47.78125 "/>
<path style=" stroke:none;fill-rule:nonzero;fill:rgb(13.729858%,12.159729%,12.548828%);fill-opacity:1;" d="M 44.359375 42.386719 L 44.359375 41.371094 L 45.246094 41.371094 L 45.246094 42.386719 Z M 44.359375 48.574219 L 44.359375 43.355469 L 45.246094 43.355469 L 45.246094 48.574219 L 44.359375 48.574219 "/>
<path style=" stroke:none;fill-rule:nonzero;fill:rgb(13.729858%,12.159729%,12.548828%);fill-opacity:1;" d="M 46.261719 45.964844 C 46.261719 44.996094 46.53125 44.28125 47.070312 43.816406 C 47.515625 43.429688 48.0625 43.238281 48.710938 43.238281 C 49.425781 43.238281 50.015625 43.472656 50.46875 43.941406 C 50.925781 44.414062 51.152344 45.0625 51.152344 45.890625 C 51.152344 46.5625 51.050781 47.089844 50.847656 47.476562 C 50.648438 47.859375 50.355469 48.160156 49.96875 48.371094 C 49.585938 48.585938 49.164062 48.691406 48.710938 48.691406 C 47.980469 48.691406 47.390625 48.457031 46.9375 47.988281 C 46.488281 47.519531 46.261719 46.847656 46.261719 45.964844 Z M 47.171875 45.964844 C 47.171875 46.632812 47.316406 47.132812 47.609375 47.464844 C 47.902344 47.796875 48.269531 47.964844 48.710938 47.964844 C 49.148438 47.964844 49.515625 47.796875 49.804688 47.464844 C 50.097656 47.128906 50.242188 46.621094 50.242188 45.933594 C 50.242188 45.289062 50.097656 44.800781 49.800781 44.46875 C 49.507812 44.136719 49.144531 43.96875 48.710938 43.96875 C 48.269531 43.96875 47.902344 44.136719 47.609375 44.464844 C 47.316406 44.796875 47.171875 45.296875 47.171875 45.964844 "/>
<path style=" stroke:none;fill-rule:nonzero;fill:rgb(13.729858%,12.159729%,12.548828%);fill-opacity:1;" d="M 52.1875 48.574219 L 52.1875 43.355469 L 52.984375 43.355469 L 52.984375 44.097656 C 53.367188 43.523438 53.921875 43.238281 54.644531 43.238281 C 54.960938 43.238281 55.246094 43.292969 55.511719 43.40625 C 55.777344 43.519531 55.972656 43.667969 56.101562 43.851562 C 56.234375 44.035156 56.324219 44.253906 56.378906 44.503906 C 56.410156 44.667969 56.429688 44.957031 56.429688 45.363281 L 56.429688 48.574219 L 55.542969 48.574219 L 55.542969 45.398438 C 55.542969 45.039062 55.507812 44.769531 55.441406 44.589844 C 55.371094 44.414062 55.25 44.269531 55.074219 44.164062 C 54.898438 44.058594 54.695312 44.003906 54.457031 44.003906 C 54.082031 44.003906 53.757812 44.125 53.480469 44.363281 C 53.207031 44.601562 53.074219 45.054688 53.074219 45.722656 L 53.074219 48.574219 L 52.1875 48.574219 "/>
<path style=" stroke:none;fill-rule:nonzero;fill:rgb(13.729858%,12.159729%,12.548828%);fill-opacity:1;" d="M 19.421875 57.203125 C 19.421875 56.238281 19.691406 55.523438 20.230469 55.058594 C 20.675781 54.671875 21.222656 54.476562 21.867188 54.476562 C 22.585938 54.476562 23.171875 54.710938 23.628906 55.183594 C 24.085938 55.652344 24.308594 56.300781 24.308594 57.132812 C 24.308594 57.804688 24.210938 58.332031 24.007812 58.714844 C 23.808594 59.101562 23.515625 59.398438 23.128906 59.613281 C 22.746094 59.824219 22.324219 59.929688 21.867188 59.929688 C 21.140625 59.929688 20.550781 59.699219 20.097656 59.230469 C 19.648438 58.761719 19.421875 58.085938 19.421875 57.203125 Z M 20.332031 57.203125 C 20.332031 57.875 20.476562 58.375 20.769531 58.707031 C 21.058594 59.039062 21.425781 59.207031 21.867188 59.207031 C 22.308594 59.207031 22.671875 59.039062 22.964844 58.703125 C 23.253906 58.371094 23.402344 57.859375 23.402344 57.175781 C 23.402344 56.53125 23.253906 56.039062 22.960938 55.707031 C 22.667969 55.375 22.304688 55.210938 21.867188 55.210938 C 21.425781 55.210938 21.058594 55.375 20.769531 55.707031 C 20.476562 56.039062 20.332031 56.539062 20.332031 57.203125 "/>
<path style=" stroke:none;fill-rule:nonzero;fill:rgb(13.729858%,12.159729%,12.548828%);fill-opacity:1;" d="M 25.558594 59.8125 L 25.558594 55.285156 L 24.777344 55.285156 L 24.777344 54.597656 L 25.558594 54.597656 L 25.558594 54.042969 C 25.558594 53.691406 25.589844 53.429688 25.652344 53.261719 C 25.738281 53.03125 25.886719 52.84375 26.101562 52.703125 C 26.316406 52.558594 26.617188 52.488281 27.003906 52.488281 C 27.25 52.488281 27.527344 52.515625 27.828125 52.578125 L 27.695312 53.347656 C 27.511719 53.316406 27.339844 53.300781 27.175781 53.300781 C 26.90625 53.300781 26.71875 53.355469 26.605469 53.472656 C 26.492188 53.585938 26.4375 53.800781 26.4375 54.117188 L 26.4375 54.597656 L 27.453125 54.597656 L 27.453125 55.285156 L 26.4375 55.285156 L 26.4375 59.8125 L 25.558594 59.8125 "/>
<path style=" stroke:none;fill-rule:nonzero;fill:rgb(13.729858%,12.159729%,12.548828%);fill-opacity:1;" d="M 30.941406 53.628906 L 30.941406 52.613281 L 31.828125 52.613281 L 31.828125 53.628906 Z M 30.941406 59.8125 L 30.941406 54.597656 L 31.828125 54.597656 L 31.828125 59.8125 L 30.941406 59.8125 "/>
<path style=" stroke:none;fill-rule:nonzero;fill:rgb(13.729858%,12.159729%,12.548828%);fill-opacity:1;" d="M 33.175781 59.8125 L 33.175781 54.597656 L 33.96875 54.597656 L 33.96875 55.339844 C 34.355469 54.765625 34.90625 54.476562 35.628906 54.476562 C 35.945312 54.476562 36.234375 54.535156 36.496094 54.648438 C 36.761719 54.761719 36.957031 54.910156 37.089844 55.09375 C 37.222656 55.277344 37.3125 55.496094 37.367188 55.746094 C 37.398438 55.910156 37.414062 56.195312 37.414062 56.605469 L 37.414062 59.8125 L 36.527344 59.8125 L 36.527344 56.640625 C 36.527344 56.28125 36.496094 56.011719 36.425781 55.832031 C 36.359375 55.652344 36.234375 55.511719 36.0625 55.40625 C 35.886719 55.296875 35.679688 55.246094 35.445312 55.246094 C 35.066406 55.246094 34.742188 55.363281 34.46875 55.601562 C 34.195312 55.84375 34.058594 56.296875 34.058594 56.964844 L 34.058594 59.8125 L 33.175781 59.8125 "/>
<path style=" stroke:none;fill-rule:nonzero;fill:rgb(13.729858%,12.159729%,12.548828%);fill-opacity:1;" d="M 40.703125 59.023438 L 40.828125 59.804688 C 40.582031 59.855469 40.359375 59.882812 40.160156 59.882812 C 39.839844 59.882812 39.589844 59.832031 39.414062 59.730469 C 39.238281 59.628906 39.113281 59.496094 39.042969 59.328125 C 38.96875 59.164062 38.933594 58.816406 38.933594 58.285156 L 38.933594 55.285156 L 38.285156 55.285156 L 38.285156 54.597656 L 38.933594 54.597656 L 38.933594 53.304688 L 39.8125 52.773438 L 39.8125 54.597656 L 40.703125 54.597656 L 40.703125 55.285156 L 39.8125 55.285156 L 39.8125 58.335938 C 39.8125 58.589844 39.828125 58.75 39.859375 58.820312 C 39.890625 58.894531 39.941406 58.949219 40.011719 58.992188 C 40.082031 59.035156 40.183594 59.058594 40.3125 59.058594 C 40.410156 59.058594 40.539062 59.046875 40.703125 59.023438 "/>
<path style=" stroke:none;fill-rule:nonzero;fill:rgb(13.729858%,12.159729%,12.548828%);fill-opacity:1;" d="M 45.136719 58.132812 L 46.050781 58.246094 C 45.90625 58.78125 45.640625 59.195312 45.25 59.492188 C 44.859375 59.785156 44.363281 59.929688 43.757812 59.929688 C 42.992188 59.929688 42.386719 59.695312 41.941406 59.226562 C 41.496094 58.757812 41.273438 58.097656 41.273438 57.25 C 41.273438 56.371094 41.496094 55.691406 41.949219 55.207031 C 42.402344 54.722656 42.988281 54.476562 43.707031 54.476562 C 44.40625 54.476562 44.976562 54.714844 45.417969 55.191406 C 45.859375 55.664062 46.082031 56.335938 46.082031 57.195312 C 46.082031 57.25 46.078125 57.328125 46.078125 57.429688 L 42.1875 57.429688 C 42.21875 58.003906 42.378906 58.445312 42.671875 58.746094 C 42.964844 59.054688 43.324219 59.207031 43.761719 59.207031 C 44.085938 59.207031 44.363281 59.121094 44.59375 58.949219 C 44.820312 58.78125 45.003906 58.507812 45.136719 58.132812 Z M 42.234375 56.703125 L 45.148438 56.703125 C 45.109375 56.265625 44.996094 55.933594 44.8125 55.71875 C 44.53125 55.375 44.167969 55.207031 43.71875 55.207031 C 43.3125 55.207031 42.96875 55.339844 42.695312 55.613281 C 42.417969 55.886719 42.265625 56.25 42.234375 56.703125 "/>
<path style=" stroke:none;fill-rule:nonzero;fill:rgb(13.729858%,12.159729%,12.548828%);fill-opacity:1;" d="M 47 60.246094 L 47.859375 60.375 C 47.894531 60.640625 47.996094 60.832031 48.160156 60.953125 C 48.378906 61.117188 48.679688 61.199219 49.058594 61.199219 C 49.46875 61.199219 49.785156 61.117188 50.007812 60.953125 C 50.230469 60.789062 50.378906 60.558594 50.457031 60.265625 C 50.503906 60.085938 50.523438 59.707031 50.523438 59.132812 C 50.136719 59.585938 49.65625 59.8125 49.078125 59.8125 C 48.359375 59.8125 47.804688 59.554688 47.414062 59.039062 C 47.019531 58.519531 46.824219 57.898438 46.824219 57.175781 C 46.824219 56.679688 46.914062 56.21875 47.09375 55.796875 C 47.273438 55.375 47.535156 55.050781 47.878906 54.820312 C 48.21875 54.59375 48.621094 54.476562 49.082031 54.476562 C 49.699219 54.476562 50.207031 54.726562 50.605469 55.226562 L 50.605469 54.597656 L 51.421875 54.597656 L 51.421875 59.105469 C 51.421875 59.917969 51.339844 60.496094 51.175781 60.835938 C 51.007812 61.171875 50.746094 61.441406 50.386719 61.636719 C 50.027344 61.832031 49.585938 61.933594 49.0625 61.933594 C 48.441406 61.933594 47.9375 61.792969 47.554688 61.511719 C 47.171875 61.230469 46.988281 60.808594 47 60.246094 Z M 47.730469 57.113281 C 47.730469 57.796875 47.867188 58.296875 48.140625 58.609375 C 48.414062 58.925781 48.753906 59.082031 49.160156 59.082031 C 49.566406 59.082031 49.90625 58.925781 50.183594 58.613281 C 50.457031 58.300781 50.597656 57.808594 50.597656 57.140625 C 50.597656 56.503906 50.453125 56.019531 50.171875 55.695312 C 49.886719 55.375 49.546875 55.210938 49.148438 55.210938 C 48.753906 55.210938 48.421875 55.371094 48.144531 55.691406 C 47.867188 56.007812 47.730469 56.484375 47.730469 57.113281 "/>
<path style=" stroke:none;fill-rule:nonzero;fill:rgb(13.729858%,12.159729%,12.548828%);fill-opacity:1;" d="M 52.75 59.8125 L 52.75 54.597656 L 53.542969 54.597656 L 53.542969 55.386719 C 53.746094 55.019531 53.933594 54.773438 54.105469 54.65625 C 54.277344 54.539062 54.46875 54.476562 54.675781 54.476562 C 54.972656 54.476562 55.273438 54.574219 55.582031 54.761719 L 55.277344 55.585938 C 55.0625 55.457031 54.847656 55.390625 54.628906 55.390625 C 54.4375 55.390625 54.261719 55.449219 54.109375 55.566406 C 53.953125 55.683594 53.847656 55.84375 53.78125 56.050781 C 53.679688 56.363281 53.632812 56.707031 53.632812 57.082031 L 53.632812 59.8125 L 52.75 59.8125 "/>
<path style=" stroke:none;fill-rule:nonzero;fill:rgb(13.729858%,12.159729%,12.548828%);fill-opacity:1;" d="M 59.515625 59.171875 C 59.183594 59.449219 58.871094 59.644531 58.566406 59.761719 C 58.265625 59.875 57.9375 59.929688 57.59375 59.929688 C 57.019531 59.929688 56.578125 59.792969 56.269531 59.511719 C 55.964844 59.230469 55.808594 58.875 55.808594 58.4375 C 55.808594 58.183594 55.867188 57.949219 55.984375 57.738281 C 56.101562 57.527344 56.253906 57.355469 56.441406 57.230469 C 56.628906 57.101562 56.839844 57.003906 57.078125 56.941406 C 57.25 56.894531 57.511719 56.847656 57.863281 56.808594 C 58.578125 56.722656 59.101562 56.621094 59.441406 56.503906 C 59.445312 56.382812 59.445312 56.304688 59.445312 56.273438 C 59.445312 55.910156 59.363281 55.65625 59.195312 55.511719 C 58.96875 55.308594 58.632812 55.210938 58.1875 55.210938 C 57.773438 55.210938 57.464844 55.28125 57.265625 55.429688 C 57.066406 55.574219 56.921875 55.832031 56.824219 56.203125 L 55.960938 56.085938 C 56.039062 55.714844 56.171875 55.414062 56.347656 55.1875 C 56.527344 54.960938 56.789062 54.785156 57.132812 54.664062 C 57.472656 54.539062 57.867188 54.476562 58.316406 54.476562 C 58.761719 54.476562 59.121094 54.53125 59.398438 54.636719 C 59.679688 54.742188 59.882812 54.871094 60.015625 55.03125 C 60.144531 55.191406 60.238281 55.390625 60.289062 55.632812 C 60.320312 55.785156 60.335938 56.054688 60.335938 56.449219 L 60.335938 57.628906 C 60.335938 58.449219 60.351562 58.96875 60.390625 59.1875 C 60.429688 59.40625 60.503906 59.613281 60.613281 59.8125 L 59.691406 59.8125 C 59.597656 59.632812 59.539062 59.417969 59.515625 59.171875 Z M 59.441406 57.195312 C 59.117188 57.328125 58.636719 57.4375 57.996094 57.53125 C 57.632812 57.582031 57.375 57.640625 57.226562 57.707031 C 57.074219 57.773438 56.957031 57.867188 56.875 57.996094 C 56.792969 58.121094 56.753906 58.257812 56.753906 58.414062 C 56.753906 58.648438 56.84375 58.847656 57.019531 59.003906 C 57.199219 59.160156 57.460938 59.238281 57.804688 59.238281 C 58.144531 59.238281 58.449219 59.164062 58.710938 59.015625 C 58.976562 58.867188 59.171875 58.660156 59.296875 58.402344 C 59.394531 58.203125 59.441406 57.910156 59.441406 57.519531 L 59.441406 57.195312 "/>
<path style=" stroke:none;fill-rule:nonzero;fill:rgb(13.729858%,12.159729%,12.548828%);fill-opacity:1;" d="M 63.636719 59.023438 L 63.761719 59.804688 C 63.515625 59.855469 63.292969 59.882812 63.097656 59.882812 C 62.773438 59.882812 62.527344 59.832031 62.347656 59.730469 C 62.171875 59.628906 62.046875 59.496094 61.976562 59.328125 C 61.902344 59.164062 61.867188 58.816406 61.867188 58.285156 L 61.867188 55.285156 L 61.21875 55.285156 L 61.21875 54.597656 L 61.867188 54.597656 L 61.867188 53.304688 L 62.746094 52.773438 L 62.746094 54.597656 L 63.636719 54.597656 L 63.636719 55.285156 L 62.746094 55.285156 L 62.746094 58.335938 C 62.746094 58.589844 62.761719 58.75 62.792969 58.820312 C 62.824219 58.894531 62.875 58.949219 62.945312 58.992188 C 63.015625 59.035156 63.117188 59.058594 63.246094 59.058594 C 63.347656 59.058594 63.476562 59.046875 63.636719 59.023438 "/>
<path style=" stroke:none;fill-rule:nonzero;fill:rgb(13.729858%,12.159729%,12.548828%);fill-opacity:1;" d="M 64.503906 53.628906 L 64.503906 52.613281 L 65.390625 52.613281 L 65.390625 53.628906 Z M 64.503906 59.8125 L 64.503906 54.597656 L 65.390625 54.597656 L 65.390625 59.8125 L 64.503906 59.8125 "/>
<path style=" stroke:none;fill-rule:nonzero;fill:rgb(13.729858%,12.159729%,12.548828%);fill-opacity:1;" d="M 66.40625 57.203125 C 66.40625 56.238281 66.675781 55.523438 67.214844 55.058594 C 67.660156 54.671875 68.207031 54.476562 68.851562 54.476562 C 69.570312 54.476562 70.15625 54.710938 70.613281 55.183594 C 71.070312 55.652344 71.296875 56.300781 71.296875 57.132812 C 71.296875 57.804688 71.195312 58.332031 70.992188 58.714844 C 70.792969 59.101562 70.5 59.398438 70.113281 59.613281 C 69.730469 59.824219 69.308594 59.929688 68.851562 59.929688 C 68.125 59.929688 67.535156 59.699219 67.082031 59.230469 C 66.632812 58.761719 66.40625 58.085938 66.40625 57.203125 Z M 67.316406 57.203125 C 67.316406 57.875 67.460938 58.375 67.753906 58.707031 C 68.046875 59.039062 68.414062 59.207031 68.851562 59.207031 C 69.292969 59.207031 69.660156 59.039062 69.949219 58.703125 C 70.238281 58.371094 70.386719 57.859375 70.386719 57.175781 C 70.386719 56.53125 70.238281 56.039062 69.945312 55.707031 C 69.652344 55.375 69.289062 55.210938 68.851562 55.210938 C 68.414062 55.210938 68.046875 55.375 67.753906 55.707031 C 67.460938 56.039062 67.316406 56.539062 67.316406 57.203125 "/>
<path style=" stroke:none;fill-rule:nonzero;fill:rgb(13.729858%,12.159729%,12.548828%);fill-opacity:1;" d="M 72.332031 59.8125 L 72.332031 54.597656 L 73.128906 54.597656 L 73.128906 55.339844 C 73.511719 54.765625 74.066406 54.476562 74.789062 54.476562 C 75.101562 54.476562 75.390625 54.535156 75.65625 54.648438 C 75.921875 54.761719 76.117188 54.910156 76.246094 55.09375 C 76.378906 55.277344 76.46875 55.496094 76.523438 55.746094 C 76.554688 55.910156 76.574219 56.195312 76.574219 56.605469 L 76.574219 59.8125 L 75.6875 59.8125 L 75.6875 56.640625 C 75.6875 56.28125 75.652344 56.011719 75.585938 55.832031 C 75.515625 55.652344 75.394531 55.511719 75.21875 55.40625 C 75.042969 55.296875 74.839844 55.246094 74.601562 55.246094 C 74.226562 55.246094 73.902344 55.363281 73.625 55.601562 C 73.351562 55.84375 73.21875 56.296875 73.21875 56.964844 L 73.21875 59.8125 L 72.332031 59.8125 "/>
<path style=" stroke:none;fill-rule:nonzero;fill:rgb(13.729858%,12.159729%,12.548828%);fill-opacity:1;" d="M 138.164062 157.925781 L 138.164062 157.265625 C 137.835938 157.785156 137.347656 158.042969 136.707031 158.042969 C 136.289062 158.042969 135.90625 157.929688 135.558594 157.699219 C 135.210938 157.46875 134.941406 157.148438 134.746094 156.738281 C 134.554688 156.328125 134.460938 155.855469 134.460938 155.320312 C 134.460938 154.800781 134.546875 154.328125 134.71875 153.902344 C 134.894531 153.480469 135.152344 153.152344 135.5 152.929688 C 135.847656 152.703125 136.238281 152.589844 136.667969 152.589844 C 136.980469 152.589844 137.261719 152.65625 137.507812 152.789062 C 137.753906 152.921875 137.953125 153.09375 138.105469 153.304688 L 138.105469 150.722656 L 138.984375 150.722656 L 138.984375 157.925781 Z M 135.367188 155.320312 C 135.367188 155.988281 135.511719 156.488281 135.792969 156.820312 C 136.074219 157.148438 136.40625 157.316406 136.789062 157.316406 C 137.175781 157.316406 137.503906 157.15625 137.773438 156.839844 C 138.042969 156.527344 138.179688 156.042969 138.179688 155.394531 C 138.179688 154.679688 138.042969 154.15625 137.765625 153.824219 C 137.492188 153.488281 137.152344 153.320312 136.75 153.320312 C 136.355469 153.320312 136.027344 153.480469 135.765625 153.800781 C 135.5 154.121094 135.367188 154.628906 135.367188 155.320312 "/>
<path style=" stroke:none;fill-rule:nonzero;fill:rgb(13.729858%,12.159729%,12.548828%);fill-opacity:1;" d="M 140.378906 151.738281 L 140.378906 150.722656 L 141.265625 150.722656 L 141.265625 151.738281 Z M 140.378906 157.925781 L 140.378906 152.707031 L 141.265625 152.707031 L 141.265625 157.925781 L 140.378906 157.925781 "/>
<path style=" stroke:none;fill-rule:nonzero;fill:rgb(13.729858%,12.159729%,12.548828%);fill-opacity:1;" d="M 142.601562 157.925781 L 142.601562 152.707031 L 143.398438 152.707031 L 143.398438 153.496094 C 143.601562 153.128906 143.789062 152.882812 143.960938 152.765625 C 144.132812 152.648438 144.320312 152.589844 144.527344 152.589844 C 144.824219 152.589844 145.128906 152.683594 145.4375 152.875 L 145.128906 153.695312 C 144.917969 153.566406 144.699219 153.503906 144.484375 153.503906 C 144.289062 153.503906 144.117188 153.5625 143.960938 153.675781 C 143.808594 153.792969 143.699219 153.953125 143.632812 154.160156 C 143.535156 154.476562 143.484375 154.820312 143.484375 155.191406 L 143.484375 157.925781 L 142.601562 157.925781 "/>
<path style=" stroke:none;fill-rule:nonzero;fill:rgb(13.729858%,12.159729%,12.548828%);fill-opacity:1;" d="M 149.53125 156.246094 L 150.445312 156.355469 C 150.300781 156.890625 150.035156 157.304688 149.648438 157.601562 C 149.257812 157.894531 148.757812 158.042969 148.152344 158.042969 C 147.390625 158.042969 146.785156 157.808594 146.339844 157.335938 C 145.890625 156.867188 145.667969 156.207031 145.667969 155.359375 C 145.667969 154.480469 145.894531 153.800781 146.34375 153.316406 C 146.796875 152.832031 147.382812 152.589844 148.105469 152.589844 C 148.800781 152.589844 149.371094 152.828125 149.8125 153.300781 C 150.253906 153.777344 150.476562 154.445312 150.476562 155.304688 C 150.476562 155.359375 150.476562 155.4375 150.472656 155.542969 L 146.582031 155.542969 C 146.613281 156.113281 146.777344 156.554688 147.066406 156.859375 C 147.359375 157.164062 147.722656 157.316406 148.15625 157.316406 C 148.480469 157.316406 148.757812 157.230469 148.988281 157.058594 C 149.21875 156.890625 149.398438 156.617188 149.53125 156.246094 Z M 146.628906 154.8125 L 149.542969 154.8125 C 149.503906 154.375 149.390625 154.046875 149.210938 153.828125 C 148.925781 153.488281 148.5625 153.316406 148.113281 153.316406 C 147.707031 153.316406 147.367188 153.453125 147.089844 153.722656 C 146.8125 153.996094 146.660156 154.359375 146.628906 154.8125 "/>
<path style=" stroke:none;fill-rule:nonzero;fill:rgb(13.729858%,12.159729%,12.548828%);fill-opacity:1;" d="M 154.964844 156.011719 L 155.832031 156.125 C 155.738281 156.726562 155.496094 157.195312 155.101562 157.535156 C 154.710938 157.871094 154.230469 158.042969 153.660156 158.042969 C 152.949219 158.042969 152.371094 157.808594 151.9375 157.34375 C 151.503906 156.875 151.285156 156.207031 151.285156 155.335938 C 151.285156 154.773438 151.382812 154.277344 151.566406 153.855469 C 151.753906 153.433594 152.039062 153.117188 152.421875 152.90625 C 152.800781 152.695312 153.21875 152.589844 153.664062 152.589844 C 154.230469 152.589844 154.695312 152.734375 155.054688 153.019531 C 155.414062 153.304688 155.648438 153.710938 155.75 154.238281 L 154.890625 154.371094 C 154.808594 154.023438 154.664062 153.757812 154.453125 153.582031 C 154.246094 153.40625 153.996094 153.316406 153.699219 153.316406 C 153.253906 153.316406 152.890625 153.476562 152.613281 153.796875 C 152.335938 154.113281 152.195312 154.621094 152.195312 155.308594 C 152.195312 156.011719 152.332031 156.519531 152.601562 156.839844 C 152.867188 157.15625 153.21875 157.316406 153.652344 157.316406 C 154 157.316406 154.289062 157.207031 154.519531 156.996094 C 154.753906 156.78125 154.902344 156.457031 154.964844 156.011719 "/>
<path style=" stroke:none;fill-rule:nonzero;fill:rgb(13.729858%,12.159729%,12.548828%);fill-opacity:1;" d="M 158.519531 157.132812 L 158.648438 157.914062 C 158.398438 157.964844 158.175781 157.992188 157.980469 157.992188 C 157.65625 157.992188 157.410156 157.941406 157.230469 157.839844 C 157.054688 157.738281 156.933594 157.605469 156.859375 157.441406 C 156.789062 157.277344 156.75 156.925781 156.75 156.398438 L 156.75 153.394531 L 156.101562 153.394531 L 156.101562 152.707031 L 156.75 152.707031 L 156.75 151.414062 L 157.632812 150.882812 L 157.632812 152.707031 L 158.519531 152.707031 L 158.519531 153.394531 L 157.632812 153.394531 L 157.632812 156.445312 C 157.632812 156.699219 157.644531 156.859375 157.675781 156.933594 C 157.707031 157.003906 157.757812 157.0625 157.828125 157.105469 C 157.898438 157.144531 158 157.167969 158.132812 157.167969 C 158.230469 157.167969 158.359375 157.15625 158.519531 157.132812 "/>
<path style=" stroke:none;fill-rule:nonzero;fill:rgb(13.729858%,12.159729%,12.548828%);fill-opacity:1;" d="M 159.386719 151.738281 L 159.386719 150.722656 L 160.273438 150.722656 L 160.273438 151.738281 Z M 159.386719 157.925781 L 159.386719 152.707031 L 160.273438 152.707031 L 160.273438 157.925781 L 159.386719 157.925781 "/>
<path style=" stroke:none;fill-rule:nonzero;fill:rgb(13.729858%,12.159729%,12.548828%);fill-opacity:1;" d="M 161.289062 155.316406 C 161.289062 154.347656 161.558594 153.632812 162.097656 153.167969 C 162.542969 152.78125 163.09375 152.589844 163.738281 152.589844 C 164.457031 152.589844 165.042969 152.824219 165.496094 153.292969 C 165.953125 153.765625 166.179688 154.414062 166.179688 155.242188 C 166.179688 155.914062 166.078125 156.441406 165.875 156.824219 C 165.675781 157.210938 165.382812 157.511719 165 157.722656 C 164.613281 157.9375 164.191406 158.042969 163.738281 158.042969 C 163.007812 158.042969 162.417969 157.808594 161.964844 157.339844 C 161.515625 156.871094 161.289062 156.195312 161.289062 155.316406 Z M 162.199219 155.316406 C 162.199219 155.984375 162.34375 156.484375 162.636719 156.816406 C 162.929688 157.148438 163.296875 157.316406 163.738281 157.316406 C 164.175781 157.316406 164.542969 157.148438 164.832031 156.8125 C 165.125 156.480469 165.269531 155.972656 165.269531 155.285156 C 165.269531 154.640625 165.125 154.152344 164.832031 153.820312 C 164.535156 153.488281 164.171875 153.320312 163.738281 153.320312 C 163.296875 153.320312 162.929688 153.488281 162.636719 153.816406 C 162.34375 154.148438 162.199219 154.648438 162.199219 155.316406 "/>
<path style=" stroke:none;fill-rule:nonzero;fill:rgb(13.729858%,12.159729%,12.548828%);fill-opacity:1;" d="M 167.21875 157.925781 L 167.21875 152.707031 L 168.011719 152.707031 L 168.011719 153.449219 C 168.394531 152.875 168.949219 152.589844 169.671875 152.589844 C 169.988281 152.589844 170.277344 152.644531 170.539062 152.757812 C 170.804688 152.871094 171 153.019531 171.132812 153.203125 C 171.261719 153.386719 171.355469 153.605469 171.40625 153.855469 C 171.441406 154.019531 171.457031 154.308594 171.457031 154.714844 L 171.457031 157.925781 L 170.570312 157.925781 L 170.570312 154.75 C 170.570312 154.390625 170.539062 154.121094 170.46875 153.941406 C 170.398438 153.765625 170.277344 153.621094 170.101562 153.515625 C 169.925781 153.410156 169.722656 153.355469 169.484375 153.355469 C 169.109375 153.355469 168.785156 153.476562 168.511719 153.714844 C 168.238281 153.953125 168.101562 154.40625 168.101562 155.074219 L 168.101562 157.925781 L 167.21875 157.925781 "/>
<path style=" stroke:none;fill-rule:nonzero;fill:rgb(13.729858%,12.159729%,12.548828%);fill-opacity:1;" d="M 134.449219 166.554688 C 134.449219 165.589844 134.71875 164.875 135.257812 164.410156 C 135.703125 164.023438 136.25 163.828125 136.898438 163.828125 C 137.613281 163.828125 138.203125 164.0625 138.65625 164.535156 C 139.113281 165.003906 139.339844 165.652344 139.339844 166.480469 C 139.339844 167.15625 139.238281 167.683594 139.035156 168.066406 C 138.835938 168.453125 138.542969 168.75 138.15625 168.964844 C 137.773438 169.175781 137.351562 169.28125 136.898438 169.28125 C 136.167969 169.28125 135.578125 169.050781 135.125 168.582031 C 134.675781 168.113281 134.449219 167.4375 134.449219 166.554688 Z M 135.359375 166.554688 C 135.359375 167.226562 135.503906 167.726562 135.796875 168.058594 C 136.089844 168.390625 136.457031 168.558594 136.898438 168.558594 C 137.335938 168.558594 137.703125 168.390625 137.992188 168.054688 C 138.285156 167.722656 138.429688 167.210938 138.429688 166.527344 C 138.429688 165.882812 138.285156 165.390625 137.988281 165.058594 C 137.695312 164.726562 137.332031 164.5625 136.898438 164.5625 C 136.457031 164.5625 136.089844 164.726562 135.796875 165.058594 C 135.503906 165.390625 135.359375 165.886719 135.359375 166.554688 "/>
<path style=" stroke:none;fill-rule:nonzero;fill:rgb(13.729858%,12.159729%,12.548828%);fill-opacity:1;" d="M 140.585938 169.164062 L 140.585938 164.636719 L 139.804688 164.636719 L 139.804688 163.949219 L 140.585938 163.949219 L 140.585938 163.394531 C 140.585938 163.042969 140.617188 162.78125 140.679688 162.613281 C 140.765625 162.382812 140.914062 162.195312 141.128906 162.054688 C 141.34375 161.910156 141.644531 161.839844 142.03125 161.839844 C 142.28125 161.839844 142.554688 161.867188 142.855469 161.929688 L 142.726562 162.699219 C 142.542969 162.667969 142.367188 162.648438 142.203125 162.648438 C 141.933594 162.648438 141.746094 162.707031 141.632812 162.824219 C 141.523438 162.9375 141.464844 163.152344 141.464844 163.46875 L 141.464844 163.949219 L 142.484375 163.949219 L 142.484375 164.636719 L 141.464844 164.636719 L 141.464844 169.164062 L 140.585938 169.164062 "/>
<path style=" stroke:none;fill-rule:nonzero;fill:rgb(13.729858%,12.159729%,12.548828%);fill-opacity:1;" d="M 145.972656 162.980469 L 145.972656 161.960938 L 146.855469 161.960938 L 146.855469 162.980469 Z M 145.972656 169.164062 L 145.972656 163.949219 L 146.855469 163.949219 L 146.855469 169.164062 L 145.972656 169.164062 "/>
<path style=" stroke:none;fill-rule:nonzero;fill:rgb(13.729858%,12.159729%,12.548828%);fill-opacity:1;" d="M 148.203125 169.164062 L 148.203125 163.949219 L 148.996094 163.949219 L 148.996094 164.691406 C 149.382812 164.117188 149.933594 163.828125 150.65625 163.828125 C 150.972656 163.828125 151.261719 163.886719 151.523438 164 C 151.789062 164.113281 151.988281 164.261719 152.117188 164.445312 C 152.25 164.628906 152.339844 164.84375 152.394531 165.097656 C 152.425781 165.261719 152.441406 165.546875 152.441406 165.957031 L 152.441406 169.164062 L 151.558594 169.164062 L 151.558594 165.992188 C 151.558594 165.632812 151.523438 165.363281 151.453125 165.183594 C 151.386719 165.003906 151.261719 164.863281 151.089844 164.757812 C 150.914062 164.648438 150.707031 164.59375 150.472656 164.59375 C 150.09375 164.59375 149.769531 164.714844 149.496094 164.953125 C 149.222656 165.195312 149.085938 165.648438 149.085938 166.316406 L 149.085938 169.164062 L 148.203125 169.164062 "/>
<path style=" stroke:none;fill-rule:nonzero;fill:rgb(13.729858%,12.159729%,12.548828%);fill-opacity:1;" d="M 155.730469 168.375 L 155.855469 169.15625 C 155.609375 169.207031 155.386719 169.234375 155.1875 169.234375 C 154.867188 169.234375 154.621094 169.183594 154.441406 169.082031 C 154.265625 168.980469 154.140625 168.847656 154.070312 168.679688 C 153.996094 168.515625 153.960938 168.167969 153.960938 167.636719 L 153.960938 164.636719 L 153.3125 164.636719 L 153.3125 163.949219 L 153.960938 163.949219 L 153.960938 162.65625 L 154.839844 162.125 L 154.839844 163.949219 L 155.730469 163.949219 L 155.730469 164.636719 L 154.839844 164.636719 L 154.839844 167.6875 C 154.839844 167.941406 154.855469 168.101562 154.886719 168.171875 C 154.917969 168.246094 154.96875 168.300781 155.039062 168.34375 C 155.109375 168.386719 155.210938 168.410156 155.339844 168.410156 C 155.4375 168.410156 155.570312 168.398438 155.730469 168.375 "/>
<path style=" stroke:none;fill-rule:nonzero;fill:rgb(13.729858%,12.159729%,12.548828%);fill-opacity:1;" d="M 160.164062 167.484375 L 161.078125 167.597656 C 160.933594 168.132812 160.667969 168.546875 160.277344 168.839844 C 159.886719 169.136719 159.390625 169.28125 158.785156 169.28125 C 158.023438 169.28125 157.417969 169.046875 156.96875 168.578125 C 156.523438 168.109375 156.300781 167.449219 156.300781 166.601562 C 156.300781 165.722656 156.527344 165.042969 156.976562 164.558594 C 157.429688 164.074219 158.015625 163.828125 158.734375 163.828125 C 159.433594 163.828125 160.003906 164.066406 160.445312 164.542969 C 160.886719 165.015625 161.109375 165.6875 161.109375 166.546875 C 161.109375 166.601562 161.109375 166.679688 161.105469 166.78125 L 157.214844 166.78125 C 157.246094 167.355469 157.40625 167.796875 157.699219 168.097656 C 157.992188 168.402344 158.355469 168.558594 158.789062 168.558594 C 159.113281 168.558594 159.390625 168.472656 159.621094 168.300781 C 159.851562 168.128906 160.03125 167.859375 160.164062 167.484375 Z M 157.261719 166.054688 L 160.175781 166.054688 C 160.136719 165.617188 160.023438 165.285156 159.839844 165.070312 C 159.558594 164.726562 159.195312 164.558594 158.746094 164.558594 C 158.339844 164.558594 158 164.691406 157.722656 164.964844 C 157.445312 165.234375 157.292969 165.601562 157.261719 166.054688 "/>
<path style=" stroke:none;fill-rule:nonzero;fill:rgb(13.729858%,12.159729%,12.548828%);fill-opacity:1;" d="M 162.027344 169.597656 L 162.886719 169.726562 C 162.921875 169.992188 163.023438 170.183594 163.1875 170.304688 C 163.40625 170.46875 163.707031 170.550781 164.085938 170.550781 C 164.496094 170.550781 164.8125 170.46875 165.035156 170.304688 C 165.257812 170.140625 165.40625 169.910156 165.484375 169.617188 C 165.53125 169.4375 165.554688 169.058594 165.550781 168.484375 C 165.164062 168.9375 164.683594 169.164062 164.105469 169.164062 C 163.386719 169.164062 162.832031 168.90625 162.441406 168.390625 C 162.046875 167.871094 161.851562 167.25 161.851562 166.527344 C 161.851562 166.03125 161.941406 165.570312 162.121094 165.148438 C 162.300781 164.726562 162.5625 164.402344 162.90625 164.171875 C 163.246094 163.945312 163.648438 163.828125 164.109375 163.828125 C 164.726562 163.828125 165.234375 164.078125 165.632812 164.578125 L 165.632812 163.949219 L 166.449219 163.949219 L 166.449219 168.457031 C 166.449219 169.269531 166.367188 169.847656 166.203125 170.183594 C 166.035156 170.523438 165.773438 170.792969 165.414062 170.988281 C 165.058594 171.183594 164.617188 171.285156 164.089844 171.285156 C 163.46875 171.285156 162.964844 171.144531 162.582031 170.863281 C 162.199219 170.582031 162.015625 170.160156 162.027344 169.597656 Z M 162.757812 166.464844 C 162.757812 167.148438 162.894531 167.648438 163.167969 167.960938 C 163.441406 168.277344 163.78125 168.433594 164.191406 168.433594 C 164.597656 168.433594 164.9375 168.277344 165.210938 167.964844 C 165.484375 167.652344 165.625 167.160156 165.625 166.492188 C 165.625 165.851562 165.484375 165.371094 165.199219 165.046875 C 164.914062 164.726562 164.574219 164.5625 164.175781 164.5625 C 163.78125 164.5625 163.449219 164.722656 163.171875 165.042969 C 162.898438 165.359375 162.757812 165.835938 162.757812 166.464844 "/>
<path style=" stroke:none;fill-rule:nonzero;fill:rgb(13.729858%,12.159729%,12.548828%);fill-opacity:1;" d="M 167.777344 169.164062 L 167.777344 163.949219 L 168.570312 163.949219 L 168.570312 164.738281 C 168.773438 164.371094 168.960938 164.125 169.136719 164.007812 C 169.304688 163.890625 169.496094 163.828125 169.703125 163.828125 C 170 163.828125 170.300781 163.925781 170.609375 164.113281 L 170.304688 164.9375 C 170.089844 164.808594 169.875 164.742188 169.660156 164.742188 C 169.464844 164.742188 169.292969 164.800781 169.136719 164.917969 C 168.984375 165.035156 168.875 165.195312 168.808594 165.402344 C 168.710938 165.714844 168.660156 166.058594 168.660156 166.433594 L 168.660156 169.164062 L 167.777344 169.164062 "/>
<path style=" stroke:none;fill-rule:nonzero;fill:rgb(13.729858%,12.159729%,12.548828%);fill-opacity:1;" d="M 174.542969 168.519531 C 174.214844 168.800781 173.898438 168.996094 173.597656 169.113281 C 173.292969 169.226562 172.96875 169.28125 172.621094 169.28125 C 172.046875 169.28125 171.605469 169.144531 171.296875 168.863281 C 170.992188 168.582031 170.835938 168.226562 170.835938 167.789062 C 170.835938 167.535156 170.894531 167.300781 171.011719 167.089844 C 171.128906 166.878906 171.28125 166.707031 171.46875 166.582031 C 171.65625 166.453125 171.867188 166.355469 172.105469 166.292969 C 172.277344 166.246094 172.539062 166.199219 172.890625 166.160156 C 173.605469 166.074219 174.132812 165.972656 174.46875 165.851562 C 174.472656 165.734375 174.472656 165.65625 174.472656 165.625 C 174.472656 165.261719 174.390625 165.007812 174.222656 164.863281 C 173.996094 164.660156 173.660156 164.5625 173.214844 164.5625 C 172.800781 164.5625 172.492188 164.632812 172.292969 164.78125 C 172.09375 164.925781 171.949219 165.183594 171.855469 165.554688 L 170.988281 165.4375 C 171.070312 165.066406 171.199219 164.765625 171.378906 164.539062 C 171.558594 164.3125 171.820312 164.136719 172.160156 164.015625 C 172.5 163.890625 172.894531 163.828125 173.34375 163.828125 C 173.789062 163.828125 174.148438 163.882812 174.429688 163.988281 C 174.707031 164.09375 174.910156 164.222656 175.042969 164.382812 C 175.175781 164.542969 175.265625 164.742188 175.320312 164.984375 C 175.347656 165.136719 175.363281 165.40625 175.363281 165.800781 L 175.363281 166.980469 C 175.363281 167.800781 175.378906 168.320312 175.417969 168.539062 C 175.457031 168.757812 175.53125 168.964844 175.640625 169.164062 L 174.71875 169.164062 C 174.628906 168.984375 174.566406 168.769531 174.542969 168.519531 Z M 174.46875 166.546875 C 174.144531 166.679688 173.664062 166.789062 173.023438 166.882812 C 172.660156 166.933594 172.402344 166.992188 172.253906 167.058594 C 172.101562 167.121094 171.984375 167.21875 171.902344 167.347656 C 171.820312 167.472656 171.78125 167.609375 171.78125 167.765625 C 171.78125 168 171.871094 168.199219 172.046875 168.355469 C 172.226562 168.511719 172.488281 168.589844 172.832031 168.589844 C 173.171875 168.589844 173.476562 168.515625 173.742188 168.367188 C 174.003906 168.21875 174.203125 168.011719 174.324219 167.753906 C 174.421875 167.554688 174.46875 167.261719 174.46875 166.871094 L 174.46875 166.546875 "/>
<path style=" stroke:none;fill-rule:nonzero;fill:rgb(13.729858%,12.159729%,12.548828%);fill-opacity:1;" d="M 178.664062 168.375 L 178.792969 169.15625 C 178.542969 169.207031 178.320312 169.234375 178.125 169.234375 C 177.800781 169.234375 177.554688 169.183594 177.375 169.082031 C 177.199219 168.980469 177.074219 168.847656 177.003906 168.679688 C 176.933594 168.515625 176.894531 168.167969 176.894531 167.636719 L 176.894531 164.636719 L 176.246094 164.636719 L 176.246094 163.949219 L 176.894531 163.949219 L 176.894531 162.65625 L 177.773438 162.125 L 177.773438 163.949219 L 178.664062 163.949219 L 178.664062 164.636719 L 177.773438 164.636719 L 177.773438 167.6875 C 177.773438 167.941406 177.789062 168.101562 177.820312 168.171875 C 177.851562 168.246094 177.902344 168.300781 177.972656 168.34375 C 178.042969 168.386719 178.144531 168.410156 178.273438 168.410156 C 178.375 168.410156 178.503906 168.398438 178.664062 168.375 "/>
<path style=" stroke:none;fill-rule:nonzero;fill:rgb(13.729858%,12.159729%,12.548828%);fill-opacity:1;" d="M 179.53125 162.980469 L 179.53125 161.960938 L 180.417969 161.960938 L 180.417969 162.980469 Z M 179.53125 169.164062 L 179.53125 163.949219 L 180.417969 163.949219 L 180.417969 169.164062 L 179.53125 169.164062 "/>
<path style=" stroke:none;fill-rule:nonzero;fill:rgb(13.729858%,12.159729%,12.548828%);fill-opacity:1;" d="M 181.433594 166.554688 C 181.433594 165.589844 181.703125 164.875 182.242188 164.410156 C 182.6875 164.023438 183.234375 163.828125 183.882812 163.828125 C 184.597656 163.828125 185.1875 164.0625 185.640625 164.535156 C 186.097656 165.003906 186.324219 165.652344 186.324219 166.480469 C 186.324219 167.15625 186.222656 167.683594 186.019531 168.066406 C 185.820312 168.453125 185.527344 168.75 185.140625 168.964844 C 184.757812 169.175781 184.335938 169.28125 183.882812 169.28125 C 183.152344 169.28125 182.5625 169.050781 182.109375 168.582031 C 181.660156 168.113281 181.433594 167.4375 181.433594 166.554688 Z M 182.34375 166.554688 C 182.34375 167.226562 182.488281 167.726562 182.78125 168.058594 C 183.074219 168.390625 183.441406 168.558594 183.882812 168.558594 C 184.320312 168.558594 184.6875 168.390625 184.976562 168.054688 C 185.269531 167.722656 185.414062 167.210938 185.414062 166.527344 C 185.414062 165.882812 185.269531 165.390625 184.976562 165.058594 C 184.679688 164.726562 184.316406 164.5625 183.882812 164.5625 C 183.441406 164.5625 183.074219 164.726562 182.78125 165.058594 C 182.488281 165.390625 182.34375 165.886719 182.34375 166.554688 "/>
<path style=" stroke:none;fill-rule:nonzero;fill:rgb(13.729858%,12.159729%,12.548828%);fill-opacity:1;" d="M 187.359375 169.164062 L 187.359375 163.949219 L 188.15625 163.949219 L 188.15625 164.691406 C 188.539062 164.117188 189.09375 163.828125 189.816406 163.828125 C 190.132812 163.828125 190.417969 163.886719 190.683594 164 C 190.949219 164.113281 191.144531 164.261719 191.273438 164.445312 C 191.40625 164.628906 191.5 164.84375 191.550781 165.097656 C 191.582031 165.261719 191.601562 165.546875 191.601562 165.957031 L 191.601562 169.164062 L 190.714844 169.164062 L 190.714844 165.992188 C 190.714844 165.632812 190.679688 165.363281 190.613281 165.183594 C 190.542969 165.003906 190.421875 164.863281 190.246094 164.757812 C 190.070312 164.648438 189.867188 164.59375 189.628906 164.59375 C 189.253906 164.59375 188.929688 164.714844 188.65625 164.953125 C 188.378906 165.195312 188.246094 165.648438 188.246094 166.316406 L 188.246094 169.164062 L 187.359375 169.164062 "/>
</g>
</svg>
