<?xml version="1.0" encoding="UTF-8"?>
<svg xmlns="http://www.w3.org/2000/svg" xmlns:xlink="http://www.w3.org/1999/xlink" width="261.772pt" height="88.709pt" viewBox="0 0 261.772 88.709" version="1.2">
<defs>
<clipPath id="clip1">
  <path d="M 140 0.5 L 241 0.5 L 241 66 L 140 66 Z M 140 0.5 "/>
</clipPath>
<clipPath id="clip2">
  <path d="M 55 0.5 L 220 0.5 L 220 88.210938 L 55 88.210938 Z M 55 0.5 "/>
</clipPath>
<clipPath id="clip3">
  <path d="M 3 0.5 L 230 0.5 L 230 88.210938 L 3 88.210938 Z M 3 0.5 "/>
</clipPath>
<clipPath id="clip4">
  <path d="M 52 0.5 L 134 0.5 L 134 57 L 52 57 Z M 52 0.5 "/>
</clipPath>
<clipPath id="clip5">
  <path d="M 1 0.5 L 82 0.5 L 82 58 L 1 58 Z M 1 0.5 "/>
</clipPath>
<clipPath id="clip6">
  <path d="M 165 0.5 L 170 0.5 L 170 11 L 165 11 Z M 165 0.5 "/>
</clipPath>
</defs>
<g id="surface1">
<path style=" stroke:none;fill-rule:nonzero;fill:rgb(13.729858%,12.159729%,12.548828%);fill-opacity:1;" d="M 69.273438 22.136719 L 69.273438 13.21875 L 65.941406 13.21875 L 65.941406 12.023438 L 73.957031 12.023438 L 73.957031 13.21875 L 70.609375 13.21875 L 70.609375 22.136719 L 69.273438 22.136719 "/>
<path style="fill:none;stroke-width:19.9984;stroke-linecap:butt;stroke-linejoin:miter;stroke:rgb(13.729858%,12.159729%,12.548828%);stroke-opacity:1;stroke-miterlimit:22.9256;" d="M 1017.224263 1389.401597 L 1341.390257 1389.401597 L 1341.390257 1027.477066 L 1017.224263 1027.477066 Z M 1017.224263 1389.401597 " transform="matrix(0.058865,0,0,-0.058865,0.5,88.209)"/>
<path style=" stroke:none;fill-rule:nonzero;fill:rgb(13.729858%,12.159729%,12.548828%);fill-opacity:1;" d="M 115.746094 21.320312 L 115.746094 12.398438 L 112.414062 12.398438 L 112.414062 11.207031 L 120.429688 11.207031 L 120.429688 12.398438 L 117.082031 12.398438 L 117.082031 21.320312 L 115.746094 21.320312 "/>
<path style="fill:none;stroke-width:19.9984;stroke-linecap:butt;stroke-linejoin:miter;stroke:rgb(13.729858%,12.159729%,12.548828%);stroke-opacity:1;stroke-miterlimit:22.9256;" d="M 1806.702837 1403.270725 L 2130.868831 1403.270725 L 2130.868831 1041.412554 L 1806.702837 1041.412554 Z M 1806.702837 1403.270725 " transform="matrix(0.058865,0,0,-0.058865,0.5,88.209)"/>
<path style="fill:none;stroke-width:19.9984;stroke-linecap:butt;stroke-linejoin:miter;stroke:rgb(13.729858%,12.159729%,12.548828%);stroke-opacity:1;stroke-miterlimit:22.9256;" d="M 441.555891 1211.425508 L 1011.185552 1211.425508 " transform="matrix(0.058865,0,0,-0.058865,0.5,88.209)"/>
<path style="fill:none;stroke-width:19.9984;stroke-linecap:butt;stroke-linejoin:miter;stroke:rgb(13.729858%,12.159729%,12.548828%);stroke-opacity:1;stroke-miterlimit:22.9256;" d="M 1349.287034 1217.3315 L 1806.171961 1217.3315 " transform="matrix(0.058865,0,0,-0.058865,0.5,88.209)"/>
<path style="fill:none;stroke-width:19.9984;stroke-linecap:butt;stroke-linejoin:miter;stroke:rgb(13.729858%,12.159729%,12.548828%);stroke-opacity:1;stroke-miterlimit:22.9256;" d="M 2130.868831 1229.209845 L 2953.394419 1229.209845 " transform="matrix(0.058865,0,0,-0.058865,0.5,88.209)"/>
<path style=" stroke:none;fill-rule:evenodd;fill:rgb(13.729858%,12.159729%,12.548828%);fill-opacity:1;" d="M 173.867188 12.773438 L 179.460938 15.851562 L 173.867188 18.929688 Z M 173.867188 12.773438 "/>
<g clip-path="url(#clip1)" clip-rule="nonzero">
<path style="fill:none;stroke-width:19.9984;stroke-linecap:butt;stroke-linejoin:miter;stroke:rgb(13.729858%,12.159729%,12.548828%);stroke-opacity:1;stroke-miterlimit:22.9256;" d="M 3230.047036 1419.064278 C 3338.146607 1419.064278 3425.807462 1331.403423 3425.807462 1223.303852 C 3425.807462 1115.204281 3338.146607 1027.477066 3230.047036 1027.477066 C 3121.947465 1027.477066 3034.286609 1115.204281 3034.286609 1223.303852 C 3034.286609 1331.403423 3121.947465 1419.064278 3230.047036 1419.064278 Z M 3230.047036 1419.064278 " transform="matrix(0.058865,0,0,-0.058865,0.5,88.209)"/>
</g>
<path style=" stroke:none;fill-rule:nonzero;fill:rgb(13.729858%,12.159729%,12.548828%);fill-opacity:1;" d="M 195.265625 20.738281 L 188.230469 20.738281 L 188.230469 20.484375 L 191.835938 16.160156 L 188.230469 11.632812 L 188.230469 11.386719 L 195.054688 11.386719 L 195.265625 13.71875 L 194.984375 13.71875 C 194.914062 13.082031 194.738281 12.628906 194.453125 12.355469 C 194.171875 12.085938 193.765625 11.953125 193.230469 11.953125 L 190.015625 11.953125 L 192.960938 15.65625 L 189.644531 19.648438 L 193.296875 19.648438 C 193.910156 19.648438 194.371094 19.535156 194.675781 19.304688 C 194.984375 19.074219 195.238281 18.640625 195.441406 18.007812 L 195.695312 18.0625 L 195.265625 20.738281 "/>
<g clip-path="url(#clip2)" clip-rule="nonzero">
<path style="fill:none;stroke-width:19.9984;stroke-linecap:butt;stroke-linejoin:miter;stroke:rgb(13.729858%,12.159729%,12.548828%);stroke-opacity:1;stroke-miterlimit:22.9256;" d="M 1577.762677 1217.3315 L 1580.682494 493.548798 L 2779.20082 493.548798 L 3075.031322 987.462308 " transform="matrix(0.058865,0,0,-0.058865,0.5,88.209)"/>
</g>
<path style=" stroke:none;fill-rule:evenodd;fill:rgb(13.729858%,12.159729%,12.548828%);fill-opacity:1;" d="M 178.632812 28.921875 L 184.128906 25.710938 L 183.894531 32.074219 Z M 178.632812 28.921875 "/>
<g clip-path="url(#clip3)" clip-rule="nonzero">
<path style="fill:none;stroke-width:19.9984;stroke-linecap:butt;stroke-linejoin:miter;stroke:rgb(13.729858%,12.159729%,12.548828%);stroke-opacity:1;stroke-miterlimit:22.9256;" d="M 696.70804 1211.425508 L 696.70804 18.945893 L 3239.337361 18.945893 L 3230.843349 941.077041 " transform="matrix(0.058865,0,0,-0.058865,0.5,88.209)"/>
</g>
<path style=" stroke:none;fill-rule:evenodd;fill:rgb(13.729858%,12.159729%,12.548828%);fill-opacity:1;" d="M 187.625 33.324219 L 190.636719 27.726562 L 193.753906 33.269531 Z M 187.625 33.324219 "/>
<path style="fill:none;stroke-width:19.9984;stroke-linecap:butt;stroke-linejoin:miter;stroke:rgb(13.729858%,12.159729%,12.548828%);stroke-opacity:1;stroke-miterlimit:22.9256;" d="M 3425.807462 1223.303852 L 3908.572581 1223.303852 " transform="matrix(0.058865,0,0,-0.058865,0.5,88.209)"/>
<path style=" stroke:none;fill-rule:evenodd;fill:rgb(13.729858%,12.159729%,12.548828%);fill-opacity:1;" d="M 230.09375 13.121094 L 235.6875 16.199219 L 230.09375 19.277344 Z M 230.09375 13.121094 "/>
<path style=" stroke:none;fill-rule:evenodd;fill:rgb(13.729858%,12.159729%,12.548828%);fill-opacity:1;" d="M 93.375 14.277344 C 94.628906 14.277344 95.644531 15.296875 95.644531 16.550781 C 95.644531 17.800781 94.628906 18.820312 93.375 18.820312 C 92.121094 18.820312 91.105469 17.800781 91.105469 16.550781 C 91.105469 15.296875 92.121094 14.277344 93.375 14.277344 "/>
<g clip-path="url(#clip4)" clip-rule="nonzero">
<path style="fill:none;stroke-width:19.9984;stroke-linecap:butt;stroke-linejoin:miter;stroke:rgb(13.729858%,12.159729%,12.548828%);stroke-opacity:1;stroke-miterlimit:22.9256;" d="M 1577.762677 1255.95271 C 1599.064066 1255.95271 1616.317527 1238.632889 1616.317527 1217.3315 C 1616.317527 1196.096471 1599.064066 1178.77665 1577.762677 1178.77665 C 1556.461289 1178.77665 1539.207827 1196.096471 1539.207827 1217.3315 C 1539.207827 1238.632889 1556.461289 1255.95271 1577.762677 1255.95271 Z M 1577.762677 1255.95271 " transform="matrix(0.058865,0,0,-0.058865,0.5,88.209)"/>
</g>
<path style=" stroke:none;fill-rule:evenodd;fill:rgb(13.729858%,12.159729%,12.548828%);fill-opacity:1;" d="M 41.511719 14.628906 C 42.765625 14.628906 43.78125 15.644531 43.78125 16.898438 C 43.78125 18.152344 42.765625 19.167969 41.511719 19.167969 C 40.257812 19.167969 39.242188 18.152344 39.242188 16.898438 C 39.242188 15.644531 40.257812 14.628906 41.511719 14.628906 "/>
<g clip-path="url(#clip5)" clip-rule="nonzero">
<path style="fill:none;stroke-width:19.9984;stroke-linecap:butt;stroke-linejoin:miter;stroke:rgb(13.729858%,12.159729%,12.548828%);stroke-opacity:1;stroke-miterlimit:22.9256;" d="M 696.70804 1249.980358 C 718.009428 1249.980358 735.26289 1232.726896 735.26289 1211.425508 C 735.26289 1190.124119 718.009428 1172.870657 696.70804 1172.870657 C 675.406651 1172.870657 658.15319 1190.124119 658.15319 1211.425508 C 658.15319 1232.726896 675.406651 1249.980358 696.70804 1249.980358 Z M 696.70804 1249.980358 " transform="matrix(0.058865,0,0,-0.058865,0.5,88.209)"/>
</g>
<path style=" stroke:none;fill-rule:nonzero;fill:rgb(13.729858%,12.159729%,12.548828%);fill-opacity:1;" d="M 129.78125 30.359375 L 129.78125 29.109375 L 133.597656 29.109375 L 133.597656 30.359375 L 129.78125 30.359375 "/>
<path style=" stroke:none;fill-rule:nonzero;fill:rgb(13.729858%,12.159729%,12.548828%);fill-opacity:1;" d="M 141.152344 32.199219 L 141.152344 33.394531 L 134.464844 33.394531 C 134.457031 33.09375 134.503906 32.808594 134.609375 32.53125 C 134.777344 32.074219 135.050781 31.628906 135.425781 31.183594 C 135.804688 30.746094 136.34375 30.234375 137.050781 29.65625 C 138.152344 28.753906 138.894531 28.039062 139.28125 27.511719 C 139.667969 26.988281 139.859375 26.488281 139.859375 26.019531 C 139.859375 25.527344 139.683594 25.113281 139.332031 24.773438 C 138.980469 24.4375 138.519531 24.265625 137.953125 24.265625 C 137.355469 24.265625 136.878906 24.445312 136.519531 24.804688 C 136.160156 25.164062 135.980469 25.660156 135.976562 26.292969 L 134.699219 26.164062 C 134.785156 25.210938 135.117188 24.484375 135.6875 23.988281 C 136.253906 23.488281 137.023438 23.238281 137.984375 23.238281 C 138.953125 23.238281 139.722656 23.507812 140.285156 24.046875 C 140.855469 24.585938 141.136719 25.25 141.136719 26.046875 C 141.136719 26.453125 141.054688 26.851562 140.886719 27.242188 C 140.722656 27.632812 140.445312 28.042969 140.0625 28.472656 C 139.679688 28.90625 139.042969 29.5 138.148438 30.253906 C 137.402344 30.882812 136.925781 31.304688 136.714844 31.527344 C 136.503906 31.75 136.328125 31.972656 136.1875 32.199219 L 141.152344 32.199219 "/>
<path style=" stroke:none;fill-rule:nonzero;fill:rgb(13.729858%,12.159729%,12.548828%);fill-opacity:1;" d="M 147.605469 30.710938 L 148.828125 30.871094 C 148.695312 31.710938 148.351562 32.371094 147.800781 32.84375 C 147.253906 33.320312 146.578125 33.558594 145.777344 33.558594 C 144.777344 33.558594 143.96875 33.230469 143.359375 32.578125 C 142.75 31.921875 142.445312 30.980469 142.445312 29.757812 C 142.445312 28.964844 142.578125 28.273438 142.839844 27.679688 C 143.101562 27.085938 143.5 26.644531 144.035156 26.347656 C 144.570312 26.050781 145.15625 25.902344 145.785156 25.902344 C 146.578125 25.902344 147.234375 26.101562 147.734375 26.507812 C 148.242188 26.910156 148.566406 27.480469 148.710938 28.21875 L 147.503906 28.40625 C 147.386719 27.914062 147.183594 27.542969 146.894531 27.296875 C 146.601562 27.046875 146.25 26.921875 145.832031 26.921875 C 145.207031 26.921875 144.699219 27.148438 144.308594 27.597656 C 143.917969 28.042969 143.722656 28.753906 143.722656 29.722656 C 143.722656 30.707031 143.910156 31.421875 144.289062 31.871094 C 144.664062 32.316406 145.15625 32.539062 145.765625 32.539062 C 146.253906 32.539062 146.65625 32.386719 146.984375 32.089844 C 147.3125 31.789062 147.519531 31.332031 147.605469 30.710938 "/>
<path style=" stroke:none;fill-rule:nonzero;fill:rgb(13.729858%,12.159729%,12.548828%);fill-opacity:1;" d="M 149.425781 29.730469 C 149.425781 28.375 149.804688 27.367188 150.558594 26.714844 C 151.1875 26.175781 151.957031 25.902344 152.863281 25.902344 C 153.871094 25.902344 154.695312 26.230469 155.332031 26.890625 C 155.972656 27.550781 156.289062 28.460938 156.289062 29.625 C 156.289062 30.570312 156.148438 31.3125 155.867188 31.851562 C 155.585938 32.394531 155.171875 32.8125 154.632812 33.109375 C 154.089844 33.410156 153.503906 33.558594 152.863281 33.558594 C 151.839844 33.558594 151.007812 33.230469 150.375 32.570312 C 149.742188 31.914062 149.425781 30.96875 149.425781 29.730469 Z M 150.703125 29.730469 C 150.703125 30.667969 150.910156 31.371094 151.316406 31.835938 C 151.726562 32.304688 152.242188 32.539062 152.863281 32.539062 C 153.480469 32.539062 153.992188 32.304688 154.402344 31.835938 C 154.808594 31.367188 155.015625 30.648438 155.015625 29.691406 C 155.015625 28.78125 154.808594 28.09375 154.398438 27.628906 C 153.984375 27.164062 153.472656 26.929688 152.863281 26.929688 C 152.242188 26.929688 151.726562 27.164062 151.316406 27.628906 C 150.910156 28.089844 150.703125 28.792969 150.703125 29.730469 "/>
<path style=" stroke:none;fill-rule:nonzero;fill:rgb(13.729858%,12.159729%,12.548828%);fill-opacity:1;" d="M 157.25 31.207031 L 158.476562 31.011719 C 158.546875 31.503906 158.738281 31.882812 159.054688 32.144531 C 159.367188 32.40625 159.808594 32.539062 160.375 32.539062 C 160.945312 32.539062 161.371094 32.421875 161.644531 32.191406 C 161.921875 31.957031 162.058594 31.683594 162.058594 31.375 C 162.058594 31.089844 161.9375 30.871094 161.691406 30.710938 C 161.523438 30.597656 161.097656 30.460938 160.421875 30.289062 C 159.515625 30.058594 158.878906 29.863281 158.53125 29.691406 C 158.179688 29.523438 157.910156 29.292969 157.730469 28.996094 C 157.546875 28.699219 157.457031 28.371094 157.457031 28.011719 C 157.457031 27.6875 157.53125 27.382812 157.683594 27.105469 C 157.832031 26.828125 158.035156 26.59375 158.292969 26.410156 C 158.484375 26.269531 158.75 26.148438 159.082031 26.050781 C 159.414062 25.949219 159.773438 25.902344 160.15625 25.902344 C 160.730469 25.902344 161.234375 25.984375 161.667969 26.152344 C 162.105469 26.316406 162.425781 26.539062 162.632812 26.820312 C 162.839844 27.105469 162.980469 27.484375 163.058594 27.957031 L 161.84375 28.125 C 161.789062 27.746094 161.628906 27.453125 161.363281 27.242188 C 161.101562 27.03125 160.726562 26.921875 160.246094 26.921875 C 159.675781 26.921875 159.265625 27.015625 159.023438 27.207031 C 158.78125 27.394531 158.65625 27.613281 158.65625 27.867188 C 158.65625 28.03125 158.710938 28.171875 158.808594 28.304688 C 158.910156 28.4375 159.070312 28.546875 159.285156 28.632812 C 159.410156 28.679688 159.777344 28.785156 160.382812 28.949219 C 161.261719 29.1875 161.875 29.375 162.21875 29.527344 C 162.566406 29.675781 162.839844 29.894531 163.039062 30.179688 C 163.238281 30.464844 163.335938 30.816406 163.335938 31.242188 C 163.335938 31.65625 163.214844 32.042969 162.972656 32.410156 C 162.730469 32.777344 162.382812 33.058594 161.929688 33.257812 C 161.472656 33.460938 160.957031 33.558594 160.382812 33.558594 C 159.429688 33.558594 158.703125 33.359375 158.207031 32.964844 C 157.707031 32.570312 157.386719 31.984375 157.25 31.207031 "/>
<path style=" stroke:none;fill-rule:nonzero;fill:rgb(13.729858%,12.159729%,12.548828%);fill-opacity:1;" d="M 169.46875 27.136719 L 169.46875 26.886719 C 170.246094 26.886719 170.878906 27.019531 171.371094 27.285156 C 171.863281 27.550781 172.261719 27.976562 172.5625 28.5625 C 172.863281 29.148438 173.011719 29.792969 173.011719 30.492188 C 173.011719 31.082031 172.894531 31.625 172.660156 32.117188 C 172.425781 32.609375 172.105469 32.980469 171.699219 33.230469 C 171.292969 33.484375 170.902344 33.609375 170.535156 33.609375 C 170.132812 33.609375 169.789062 33.492188 169.503906 33.261719 C 169.21875 33.035156 168.960938 32.675781 168.738281 32.191406 C 168.484375 32.679688 168.199219 33.039062 167.878906 33.265625 C 167.558594 33.492188 167.199219 33.609375 166.804688 33.609375 C 166.460938 33.609375 166.09375 33.484375 165.710938 33.238281 C 165.328125 32.992188 165.015625 32.613281 164.785156 32.101562 C 164.546875 31.585938 164.429688 31.03125 164.429688 30.433594 C 164.429688 29.785156 164.5625 29.195312 164.824219 28.660156 C 165.027344 28.246094 165.285156 27.90625 165.601562 27.632812 C 165.917969 27.359375 166.25 27.171875 166.605469 27.058594 C 166.960938 26.945312 167.410156 26.886719 167.957031 26.886719 L 167.957031 27.136719 C 167.316406 27.199219 166.789062 27.503906 166.375 28.042969 C 165.957031 28.585938 165.75 29.378906 165.75 30.425781 C 165.75 31.464844 165.90625 32.222656 166.226562 32.703125 C 166.417969 32.992188 166.6875 33.140625 167.039062 33.140625 C 167.328125 33.140625 167.605469 33.019531 167.863281 32.777344 C 168.121094 32.542969 168.34375 32.109375 168.53125 31.480469 C 168.328125 30.945312 168.195312 30.542969 168.132812 30.28125 C 168.070312 30.019531 168.039062 29.769531 168.039062 29.53125 C 168.039062 29.085938 168.144531 28.699219 168.347656 28.378906 C 168.449219 28.21875 168.570312 28.136719 168.710938 28.136719 C 168.851562 28.136719 168.972656 28.21875 169.074219 28.378906 C 169.273438 28.683594 169.371094 29.050781 169.371094 29.488281 C 169.371094 30.023438 169.222656 30.6875 168.921875 31.480469 C 169.101562 32.113281 169.3125 32.535156 169.554688 32.753906 C 169.792969 32.972656 170.066406 33.082031 170.371094 33.082031 C 170.730469 33.082031 171.019531 32.945312 171.242188 32.660156 C 171.539062 32.285156 171.6875 31.578125 171.6875 30.542969 C 171.6875 29.289062 171.410156 28.363281 170.855469 27.761719 C 170.515625 27.402344 170.054688 27.191406 169.46875 27.136719 "/>
<path style=" stroke:none;fill-rule:nonzero;fill:rgb(13.729858%,12.159729%,12.548828%);fill-opacity:1;" d="M 171.792969 35.402344 C 171.792969 34.746094 171.859375 34.21875 171.992188 33.816406 C 172.128906 33.417969 172.328125 33.109375 172.597656 32.890625 C 172.863281 32.675781 173.195312 32.566406 173.597656 32.566406 C 173.898438 32.566406 174.160156 32.628906 174.382812 32.746094 C 174.609375 32.867188 174.792969 33.039062 174.941406 33.265625 C 175.085938 33.492188 175.203125 33.765625 175.285156 34.089844 C 175.367188 34.414062 175.410156 34.851562 175.410156 35.402344 C 175.410156 36.054688 175.34375 36.578125 175.207031 36.976562 C 175.074219 37.378906 174.875 37.6875 174.609375 37.90625 C 174.34375 38.125 174.007812 38.230469 173.597656 38.230469 C 173.066406 38.230469 172.644531 38.042969 172.339844 37.65625 C 171.972656 37.195312 171.792969 36.441406 171.792969 35.402344 Z M 172.492188 35.402344 C 172.492188 36.3125 172.597656 36.917969 172.8125 37.222656 C 173.023438 37.523438 173.285156 37.671875 173.597656 37.671875 C 173.914062 37.671875 174.175781 37.519531 174.390625 37.21875 C 174.601562 36.914062 174.710938 36.308594 174.710938 35.402344 C 174.710938 34.488281 174.601562 33.882812 174.390625 33.582031 C 174.175781 33.28125 173.910156 33.132812 173.59375 33.132812 C 173.28125 33.132812 173.03125 33.265625 172.84375 33.527344 C 172.609375 33.867188 172.492188 34.492188 172.492188 35.402344 "/>
<g clip-path="url(#clip6)" clip-rule="nonzero">
<path style=" stroke:none;fill-rule:nonzero;fill:rgb(13.729858%,12.159729%,12.548828%);fill-opacity:1;" d="M 169.707031 10.960938 L 168.464844 10.960938 L 168.464844 3.050781 C 168.167969 3.335938 167.777344 3.621094 167.292969 3.90625 C 166.804688 4.1875 166.367188 4.402344 165.980469 4.542969 L 165.980469 3.347656 C 166.675781 3.019531 167.285156 2.625 167.804688 2.160156 C 168.324219 1.691406 168.691406 1.242188 168.910156 0.804688 L 169.707031 0.804688 L 169.707031 10.960938 "/>
</g>
<path style=" stroke:none;fill-rule:nonzero;fill:rgb(13.729858%,12.159729%,12.548828%);fill-opacity:1;" d="M 186.980469 46.421875 L 185.742188 46.421875 L 185.742188 38.511719 C 185.441406 38.796875 185.050781 39.082031 184.566406 39.367188 C 184.078125 39.652344 183.644531 39.863281 183.257812 40.007812 L 183.257812 38.808594 C 183.953125 38.480469 184.558594 38.085938 185.078125 37.621094 C 185.597656 37.15625 185.96875 36.707031 186.183594 36.265625 L 186.980469 36.265625 L 186.980469 46.421875 "/>
<path style=" stroke:none;fill-rule:nonzero;fill:rgb(13.729858%,12.159729%,12.548828%);fill-opacity:1;" d="M 1.066406 19.855469 L 3.746094 16.046875 L 1.265625 12.53125 L 2.820312 12.53125 L 3.945312 14.246094 C 4.15625 14.574219 4.328125 14.847656 4.453125 15.066406 C 4.65625 14.765625 4.84375 14.496094 5.015625 14.261719 L 6.246094 12.53125 L 7.730469 12.53125 L 5.199219 15.980469 L 7.925781 19.855469 L 6.402344 19.855469 L 4.894531 17.578125 L 4.496094 16.964844 L 2.570312 19.855469 L 1.066406 19.855469 "/>
<path style=" stroke:none;fill-rule:nonzero;fill:rgb(13.729858%,12.159729%,12.548828%);fill-opacity:1;" d="M 11.332031 22.828125 C 10.644531 21.964844 10.066406 20.953125 9.59375 19.792969 C 9.121094 18.632812 8.882812 17.433594 8.882812 16.191406 C 8.882812 15.097656 9.058594 14.046875 9.414062 13.046875 C 9.828125 11.882812 10.46875 10.722656 11.332031 9.570312 L 12.222656 9.570312 C 11.664062 10.527344 11.296875 11.210938 11.121094 11.617188 C 10.835938 12.253906 10.617188 12.914062 10.457031 13.605469 C 10.257812 14.464844 10.160156 15.328125 10.160156 16.199219 C 10.160156 18.414062 10.847656 20.621094 12.222656 22.828125 L 11.332031 22.828125 "/>
<path style=" stroke:none;fill-rule:nonzero;fill:rgb(13.729858%,12.159729%,12.548828%);fill-opacity:1;" d="M 13.664062 19.855469 L 13.664062 12.53125 L 14.78125 12.53125 L 14.78125 13.570312 C 15.320312 12.765625 16.097656 12.363281 17.113281 12.363281 C 17.554688 12.363281 17.960938 12.441406 18.328125 12.601562 C 18.703125 12.761719 18.976562 12.96875 19.160156 13.226562 C 19.347656 13.484375 19.472656 13.789062 19.550781 14.144531 C 19.59375 14.375 19.617188 14.777344 19.617188 15.351562 L 19.617188 19.855469 L 18.375 19.855469 L 18.375 15.398438 C 18.375 14.894531 18.328125 14.515625 18.230469 14.261719 C 18.132812 14.011719 17.960938 13.8125 17.71875 13.664062 C 17.46875 13.515625 17.183594 13.4375 16.851562 13.4375 C 16.320312 13.4375 15.867188 13.609375 15.480469 13.941406 C 15.097656 14.28125 14.90625 14.914062 14.90625 15.855469 L 14.90625 19.855469 L 13.664062 19.855469 "/>
<path style=" stroke:none;fill-rule:nonzero;fill:rgb(13.729858%,12.159729%,12.548828%);fill-opacity:1;" d="M 22.335938 22.828125 L 21.445312 22.828125 C 22.820312 20.621094 23.507812 18.414062 23.507812 16.199219 C 23.507812 15.335938 23.40625 14.476562 23.210938 13.625 C 23.054688 12.9375 22.835938 12.273438 22.554688 11.640625 C 22.375 11.226562 22.007812 10.535156 21.445312 9.570312 L 22.335938 9.570312 C 23.199219 10.722656 23.839844 11.882812 24.253906 13.046875 C 24.605469 14.046875 24.78125 15.097656 24.78125 16.191406 C 24.78125 17.433594 24.546875 18.632812 24.070312 19.792969 C 23.59375 20.953125 23.015625 21.964844 22.335938 22.828125 "/>
<path style=" stroke:none;fill-rule:nonzero;fill:rgb(13.729858%,12.159729%,12.548828%);fill-opacity:1;" d="M 237.925781 22.328125 L 237.789062 21.160156 C 238.0625 21.234375 238.296875 21.273438 238.5 21.273438 C 238.773438 21.273438 238.996094 21.226562 239.160156 21.132812 C 239.328125 21.042969 239.460938 20.914062 239.566406 20.746094 C 239.648438 20.625 239.773438 20.316406 239.945312 19.824219 C 239.96875 19.753906 240.007812 19.652344 240.058594 19.519531 L 237.277344 12.179688 L 238.617188 12.179688 L 240.140625 16.421875 C 240.339844 16.960938 240.515625 17.527344 240.671875 18.117188 C 240.816406 17.550781 240.984375 16.992188 241.183594 16.449219 L 242.75 12.179688 L 243.988281 12.179688 L 241.203125 19.628906 C 240.90625 20.4375 240.671875 20.988281 240.507812 21.292969 C 240.285156 21.703125 240.035156 22 239.75 22.191406 C 239.460938 22.382812 239.121094 22.480469 238.726562 22.480469 C 238.488281 22.480469 238.222656 22.429688 237.925781 22.328125 "/>
<path style=" stroke:none;fill-rule:nonzero;fill:rgb(13.729858%,12.159729%,12.548828%);fill-opacity:1;" d="M 247.417969 22.480469 C 246.734375 21.617188 246.152344 20.601562 245.679688 19.445312 C 245.207031 18.285156 244.96875 17.085938 244.96875 15.84375 C 244.96875 14.746094 245.144531 13.699219 245.5 12.695312 C 245.917969 11.535156 246.554688 10.375 247.417969 9.222656 L 248.308594 9.222656 C 247.753906 10.175781 247.386719 10.859375 247.207031 11.269531 C 246.925781 11.902344 246.707031 12.566406 246.542969 13.257812 C 246.34375 14.117188 246.246094 14.980469 246.246094 15.847656 C 246.246094 18.0625 246.933594 20.269531 248.308594 22.480469 L 247.417969 22.480469 "/>
<path style=" stroke:none;fill-rule:nonzero;fill:rgb(13.729858%,12.159729%,12.548828%);fill-opacity:1;" d="M 249.753906 19.507812 L 249.753906 12.179688 L 250.867188 12.179688 L 250.867188 13.222656 C 251.40625 12.417969 252.183594 12.011719 253.199219 12.011719 C 253.640625 12.011719 254.046875 12.09375 254.417969 12.25 C 254.789062 12.410156 255.0625 12.617188 255.246094 12.878906 C 255.433594 13.132812 255.5625 13.441406 255.636719 13.792969 C 255.679688 14.023438 255.703125 14.425781 255.703125 15 L 255.703125 19.507812 L 254.460938 19.507812 L 254.460938 15.046875 C 254.460938 14.542969 254.414062 14.164062 254.316406 13.914062 C 254.21875 13.664062 254.050781 13.464844 253.804688 13.316406 C 253.558594 13.164062 253.269531 13.089844 252.9375 13.089844 C 252.40625 13.089844 251.953125 13.257812 251.566406 13.59375 C 251.183594 13.929688 250.992188 14.566406 250.992188 15.503906 L 250.992188 19.507812 L 249.753906 19.507812 "/>
<path style=" stroke:none;fill-rule:nonzero;fill:rgb(13.729858%,12.159729%,12.548828%);fill-opacity:1;" d="M 258.421875 22.480469 L 257.53125 22.480469 C 258.90625 20.269531 259.59375 18.0625 259.59375 15.847656 C 259.59375 14.984375 259.496094 14.128906 259.296875 13.277344 C 259.140625 12.589844 258.921875 11.925781 258.644531 11.289062 C 258.464844 10.875 258.09375 10.1875 257.53125 9.222656 L 258.421875 9.222656 C 259.285156 10.375 259.925781 11.535156 260.339844 12.695312 C 260.695312 13.699219 260.871094 14.746094 260.871094 15.84375 C 260.871094 17.085938 260.632812 18.285156 260.15625 19.445312 C 259.679688 20.601562 259.101562 21.617188 258.421875 22.480469 "/>
</g>
</svg>
